<?xml version="1.0" encoding="UTF-8"?>
<svg width="71px" height="64px" viewBox="0 0 71 64" version="1.1" xmlns="http://www.w3.org/2000/svg" xmlns:xlink="http://www.w3.org/1999/xlink">
    <title>music_icon</title>
    <defs>
        <linearGradient x1="44.1453143%" y1="16.2671993%" x2="64.5464946%" y2="75.2330226%" id="linearGradient-1">
            <stop stop-color="#000000" offset="0%"></stop>
            <stop stop-color="#000000" stop-opacity="0" offset="100%"></stop>
        </linearGradient>
        <linearGradient x1="41.470776%" y1="18.2051282%" x2="63.9425666%" y2="79.8504274%" id="linearGradient-2">
            <stop stop-color="#000000" offset="0%"></stop>
            <stop stop-color="#000000" stop-opacity="0" offset="100%"></stop>
        </linearGradient>
    </defs>
    <g id="Page-2" stroke="none" stroke-width="1" fill="none" fill-rule="evenodd">
        <g id="LP_Preventa-Samsung-Galaxy-Note-XX-+-Watch----Note---Desktop" transform="translate(-455.000000, -1368.000000)">
            <g id="Group-6" transform="translate(50.000000, 1335.000000)">
                <g id="1" transform="translate(300.000000, 0.000000)">
                    <g id="Group" transform="translate(76.000000, 0.000000)">
                        <g transform="translate(23.000000, 23.000000)" id="accessories-hi-dark">
                            <path d="M16.35375,42 L20.934375,42 L20.934375,73.5 L16.35375,73.5 C12.4877568,73.5 9.35375,70.3659932 9.35375,66.5 L9.35375,49 C9.35375,45.1340068 12.4877568,42 16.35375,42 Z" id="Path" fill="#FFFFFF" fill-rule="nonzero"></path>
                            <path d="M9.35375,66.469375 L9.35375,66.469375 L9.35375,49.04375 L9.35375,49.04375 C8.71212746,49.0448976 8.09743554,49.3017876 7.64579671,49.7575322 C7.19415788,50.2132768 6.94284109,50.8302683 6.9475,51.471875 L6.9475,64.04125 C6.94284109,64.6828567 7.19415788,65.2998482 7.64579671,65.7555928 C8.09743554,66.2113374 8.71212746,66.4682274 9.35375,66.469375 Z" id="Path" fill="#E90000" fill-rule="nonzero"></path>
                            <path d="M20.890625,42 L22.701875,42 C23.6683733,42 24.451875,42.7835017 24.451875,43.75 L24.451875,71.75 C24.451875,72.7164983 23.6683733,73.5 22.701875,73.5 L20.890625,73.5 L20.890625,42 Z" id="Path" fill="#4A4D4E" fill-rule="nonzero"></path>
                            <path d="M9.35375,65.625 L9.35375,65.594375 C8.71212746,65.5932274 8.09743554,65.3363374 7.64579671,64.8805928 C7.19415788,64.4248482 6.94284109,63.8078567 6.9475,63.16625 L6.9475,64.04125 C6.94284109,64.6828567 7.19415788,65.2998482 7.64579671,65.7555928 C8.09743554,66.2113374 8.71212746,66.4682274 9.35375,66.469375 L9.35375,65.625 Z" id="Path" fill="#000000" fill-rule="nonzero" opacity="0.12" style="mix-blend-mode: multiply;"></path>
                            <path d="M67.493125,73.530625 L62.86875,73.530625 L62.86875,42 L67.493125,42 C71.3591182,42 74.493125,45.1340068 74.493125,49 L74.493125,66.530625 C74.493125,70.3966182 71.3591182,73.530625 67.493125,73.530625 Z" id="Path" fill="#FFFFFF" fill-rule="nonzero"></path>
                            <path d="M74.493125,66.5 L74.493125,66.5 L74.493125,49.04375 L74.493125,49.04375 C75.8341414,49.04375 76.92125,50.1308586 76.92125,51.471875 L76.92125,64.071875 C76.92125,65.4128914 75.8341414,66.5 74.493125,66.5 L74.493125,66.5 Z" id="Path" fill="#E90000" fill-rule="nonzero"></path>
                            <path d="M62.9125,73.530625 L61.131875,73.530625 C60.1653767,73.530625 59.381875,72.7471233 59.381875,71.780625 L59.381875,43.75 C59.381875,42.7835017 60.1653767,42 61.131875,42 L62.9125,42 L62.9125,73.530625 Z" id="Path" fill="#4A4D4E" fill-rule="nonzero"></path>
                            <path d="M74.493125,66.5 L74.493125,66.530625 C74.493125,70.3966182 71.3591182,73.530625 67.493125,73.530625 L61.131875,73.530625 C60.1653767,73.530625 59.381875,72.7471233 59.381875,71.780625 L59.381875,70.905625 C59.381875,71.8721233 60.1653767,72.655625 61.131875,72.655625 L67.48875,72.655625 C71.3547432,72.655625 74.48875,69.5216182 74.48875,65.655625 L74.48875,65.625" id="Path" fill="#000000" fill-rule="nonzero" opacity="0.06" style="mix-blend-mode: multiply;"></path>
                            <rect id="Rectangle" x="0" y="0" width="84" height="84"></rect>
                            <polygon id="Path" fill="url(#linearGradient-1)" fill-rule="nonzero" opacity="0.2" points="20.951875 61.71375 14.13125 55.085625 17.399375 42.00875 20.951875 42"></polygon>
                            <path d="M74.501875,62.86 L67.064375,55.60625 L69.715625,42.385 L69.715625,42.385 C72.6157521,43.4353108 74.5423313,46.1955733 74.528125,49.28 L74.501875,62.86 Z" id="Path" fill="url(#linearGradient-2)" fill-rule="nonzero" opacity="0.2"></path>
                            <path d="M68.201875,56.0000219 C67.2353767,56.0000219 66.451875,55.2164983 66.451875,54.25 L66.451875,38.565625 C66.4374072,25.0261485 55.4651015,14.0538428 41.925625,14.039375 C35.294265,13.9900924 28.9332645,16.6644961 24.329375,21.4375 C19.90921,26.0471269 17.4297352,32.1792455 17.40375,38.565625 L17.40375,54.25 C17.40375,55.2164983 16.6202483,56.0000219 15.65375,56.0000219 C14.6872517,56.0000219 13.90375,55.2164983 13.90375,54.25 L13.90375,38.565625 C13.9378058,31.2789855 16.7676616,24.2834316 21.809375,19.0225 C27.0706149,13.5547357 34.3465935,10.4877525 41.934375,10.539375 C57.4058488,10.5562534 69.9437466,23.0941512 69.960625,38.565625 L69.960625,54.25 C69.960625,54.7156489 69.7750557,55.1620994 69.4449722,55.4905408 C69.1148886,55.8189821 68.6675181,56.0023282 68.201875,56.0000219 Z" id="Path" fill="#FFFFFF" fill-rule="nonzero"></path>
                            <path d="M41.925625,10.539375 C34.3378435,10.4877525 27.0618649,13.5547357 21.800625,19.0225 L21.581875,19.254375 C20.938282,19.9444042 20.9576351,21.0204354 21.625625,21.686875 L22.938125,22.999375 C23.375625,22.46125 23.813125,21.93625 24.311875,21.4375 C28.9199623,16.6600698 35.2882021,13.9852825 41.925625,14.039375 C49.2888454,14.0404287 56.2611476,17.3530755 60.913125,23.060625 L62.225625,21.748125 C62.8864894,21.0844757 62.9077001,20.0181551 62.27375,19.32875 C56.99276,13.7190895 49.6299839,10.5387337 41.925625,10.539375 L41.925625,10.539375 Z" id="Path" fill="#E90000" fill-rule="nonzero"></path>
                            <path d="M60.9175,23.060625 C64.501903,27.4322576 66.4579882,32.9123889 66.4518893,38.565625 L66.4518893,37.690625 C66.4573131,32.2481242 64.6432708,26.9599909 61.298125,22.666875 L60.9175,23.060625 Z" id="Path" fill="#000000" fill-rule="nonzero" opacity="0.06"></path>
                            <path d="M22.56625,22.623125 C19.2426693,26.9435439 17.4290151,32.235418 17.40375,37.68625 L17.40375,38.56125 C17.4298411,32.8967662 19.3866853,27.4105034 22.95125,23.008125 L22.56625,22.623125 Z" id="Path" fill="#000000" fill-rule="nonzero" opacity="0.06"></path>
                            <path d="M61.298125,22.666875 C56.6582268,16.6731982 49.5053886,13.1646244 41.925625,13.164375 C34.3479937,13.1145554 27.1839549,16.6148157 22.56625,22.623125 L22.955625,23.00375 C23.401875,22.4670833 23.8597917,21.945 24.329375,21.4375 C28.9332645,16.6644961 35.294265,13.9900924 41.925625,14.039375 C49.2888454,14.0404287 56.2611476,17.3530755 60.913125,23.060625 L61.298125,22.666875 Z" id="Path" fill="#000000" fill-rule="nonzero" opacity="0.12"></path>
                            <path d="M9.35375,66.469375 L9.35375,66.5 C9.35375,70.3659932 12.4877568,73.5 16.35375,73.5 L22.6975,73.5 C23.6639983,73.5 24.4475,72.7164983 24.4475,71.75 L24.4475,70.875 C24.4475,71.8414983 23.6639983,72.625 22.6975,72.625 L16.35375,72.625 C12.4877568,72.625 9.35375,69.4909932 9.35375,65.625 L9.35375,66.469375 Z" id="Path" fill="#000000" fill-rule="nonzero" opacity="0.06" style="mix-blend-mode: multiply;"></path>
                            <path d="M74.493125,65.655625 L74.493125,65.625 C75.1371038,65.625 75.7547069,65.3691804 76.2100687,64.9138187 C76.6654304,64.4584569 76.92125,63.8408538 76.92125,63.196875 L76.92125,64.071875 C76.92125,64.7158538 76.6654304,65.3334569 76.2100687,65.7888187 C75.7547069,66.2441804 75.1371038,66.5 74.493125,66.5 L74.493125,65.655625 L74.493125,65.655625 Z" id="Path" fill="#000000" fill-rule="nonzero" opacity="0.12" style="mix-blend-mode: multiply;"></path>
                        </g>
                    </g>
                </g>
            </g>
        </g>
    </g>
</svg>