<svg xmlns="http://www.w3.org/2000/svg" width="16" height="22" viewBox="0 0 16 22"><path fill="#333" fill-rule="evenodd" d="M.417 19.667V2.333c0-1.196.97-2.166 2.166-2.166h10.834c1.196 0 2.166.97 2.166 2.166v17.334c0 1.196-.97 2.166-2.166 2.166H2.583a2.167 2.167 0 01-2.166-2.166zm1.083 0c0 .598.485 1.083 1.083 1.083h10.834c.598 0 1.083-.485 1.083-1.083V2.333c0-.598-.485-1.083-1.083-1.083H2.583c-.598 0-1.083.485-1.083 1.083v17.334zm10.833-1.084v-2.708a.542.542 0 011.084 0v3.25c0 .3-.243.542-.542.542h-3.25a.542.542 0 010-1.084h2.708zM3.667 3.417v2.708a.542.542 0 01-1.084 0v-3.25c0-.3.243-.542.542-.542h3.25a.542.542 0 010 1.084H3.667z"/></svg>