<?xml version="1.0" encoding="UTF-8"?>
<svg width="84px" height="32px" viewBox="0 0 84 32" version="1.1" xmlns="http://www.w3.org/2000/svg" xmlns:xlink="http://www.w3.org/1999/xlink">
    <title>Logos / Logo - LG / Gris</title>
    <g id="Logos-/-Logo---LG-/-Gris" stroke="none" stroke-width="1" fill="none" fill-rule="evenodd">
        <path d="M43.644,8.718 C43.642,8.758 43.642,8.797 43.642,8.836 C43.644,13.477 43.647,18.118 43.65,22.76 C43.65,22.763 43.654,22.767 43.657,22.77 C43.66,22.774 43.664,22.777 43.667,22.78 C43.854,22.807 53.53,22.797 53.62,22.769 L53.62,20.048 L53.418,20.048 C51.306,20.048 49.194,20.048 47.082,20.048 C47.018,20.048 46.955,20.041 46.875,20.037 L46.875,8.676 L43.66,8.676 C43.653,8.694 43.645,8.706 43.644,8.718 L43.644,8.718 Z M66.464,14.764 C66.408,14.768 66.352,14.774 66.295,14.774 C64.528,14.775 62.761,14.775 60.994,14.775 L60.831,14.775 C60.802,14.922 60.806,17.275 60.836,17.392 L63.484,17.392 L63.484,17.565 L63.484,19.633 C63.484,19.88 63.484,19.881 63.25,19.951 C62.786,20.091 62.31,20.174 61.828,20.224 C61.141,20.295 60.459,20.275 59.784,20.132 C59.301,20.03 58.85,19.848 58.458,19.539 C57.986,19.167 57.691,18.677 57.502,18.115 C57.283,17.464 57.214,16.788 57.193,16.107 C57.176,15.601 57.187,15.095 57.243,14.591 C57.296,14.113 57.385,13.643 57.556,13.192 C57.807,12.526 58.21,11.983 58.836,11.623 C59.286,11.364 59.776,11.234 60.288,11.173 C60.788,11.114 61.288,11.117 61.789,11.167 C62.8,11.269 63.644,11.687 64.291,12.479 C64.327,12.522 64.363,12.564 64.404,12.613 C65.079,11.988 65.744,11.371 66.413,10.751 C66.379,10.703 66.353,10.664 66.324,10.626 C65.792,9.925 65.11,9.418 64.307,9.067 C63.424,8.68 62.493,8.51 61.537,8.465 C60.97,8.439 60.403,8.449 59.837,8.51 C59.285,8.569 58.742,8.67 58.212,8.838 C57.338,9.114 56.555,9.547 55.899,10.196 C55.218,10.871 54.768,11.683 54.474,12.589 C54.17,13.527 54.058,14.494 54.039,15.474 C54.026,16.086 54.058,16.695 54.134,17.302 C54.218,17.979 54.364,18.641 54.608,19.28 C55.176,20.769 56.18,21.834 57.668,22.428 C58.557,22.784 59.489,22.933 60.439,22.972 C61.089,23 61.739,22.978 62.386,22.906 C63.112,22.824 63.826,22.692 64.525,22.482 C65.192,22.283 65.835,22.028 66.417,21.638 C66.431,21.629 66.449,21.628 66.464,21.623 L66.464,14.764 Z M24.411,11.0929987 C23.682,11.094 23.097,11.673 23.0979987,12.392 C23.0979987,13.115 23.689,13.695 24.424,13.6930052 C25.135,13.69 25.723,13.096 25.718,12.385 C25.713,11.67 25.128,11.092 24.411,11.0929987 L24.411,11.0929987 Z M30.477,20.618 L30.477,19.751 L30.315,19.751 C29.705,19.751 29.094,19.752 28.483,19.751 C28.433,19.751 28.382,19.746 28.32,19.742 L28.32,11.1 L27.45,11.1 C27.421,11.218 27.422,20.503 27.451,20.618 L30.477,20.618 Z M36.08,16.284 C36.08,16.35 36.082,16.394 36.079,16.437 C36.045,16.854 35.989,17.269 35.897,17.678 C35.109,21.157 32.124,23.826 28.421,24.073 C27.51,24.134 26.609,24.045 25.726,23.802 C24.274,23.403 23.021,22.663 21.98,21.579 C20.09,19.61 19.352,17.259 19.739,14.568 C19.967,12.983 20.647,11.591 21.715,10.395 C22.871,9.102 24.29,8.244 25.98,7.843 C26.672,7.679 27.373,7.614 28.083,7.623 C28.152,7.624 28.22,7.624 28.297,7.624 L28.297,6.777 C28.163,6.768 28.033,6.754 27.903,6.752 C27.264,6.746 26.631,6.811 26.007,6.946 C24.13,7.351 22.53,8.253 21.224,9.658 C19.79,11.201 18.99,13.032 18.811,15.13 C18.743,15.921 18.788,16.708 18.931,17.489 C19.243,19.201 19.973,20.713 21.159,21.987 C22.96,23.922 25.201,24.898 27.844,24.943 C28.628,24.956 29.401,24.851 30.162,24.656 C33.858,23.71 37.094,20.262 36.976,15.547 C36.976,15.518 36.966,15.489 36.96,15.459 L30.484,15.459 L30.484,16.284 L36.08,16.284 Z M28.286,5 C28.337,5.009 28.388,5.022 28.439,5.025 C33.156,5.271 37.188,8.565 38.365,13.133 C38.643,14.21 38.755,15.304 38.698,16.413 C38.495,20.413 36.151,23.797 32.819,25.511 C31.763,26.054 30.646,26.413 29.472,26.587 C28.592,26.717 27.708,26.738 26.822,26.652 C22.256,26.212 18.439,22.916 17.339,18.462 C17.187,17.847 17.089,17.223 17.049,16.591 C17.043,16.488 17.017,16.385 17,16.283 L17,15.471 C17.011,15.421 17.026,15.371 17.031,15.32 C17.057,15.069 17.076,14.816 17.104,14.565 C17.232,13.461 17.531,12.404 17.989,11.391 C19.658,7.698 23.263,5.236 27.308,5.025 C27.363,5.022 27.419,5.009 27.475,5 L28.286,5 Z" id="Fill-1" fill="#333333"></path>
    </g>
</svg>