<?xml version="1.0" encoding="UTF-8"?>
<svg width="84px" height="32px" viewBox="0 0 84 32" version="1.1" xmlns="http://www.w3.org/2000/svg" xmlns:xlink="http://www.w3.org/1999/xlink">
    <title>Logos / Logo - nubia / gris</title>
    <g id="Logos-/-Logo---nubia-/-gris" stroke="none" stroke-width="1" fill="none" fill-rule="evenodd">
        <path d="M43.6978483,5.62037931 L43.6978483,10.1948621 C44.1372966,10.0483793 44.4041931,9.97389655 44.6599172,9.87024138 C45.8175034,9.40348276 47.0141931,9.19989655 48.2642621,9.26072414 C51.6867448,9.42458621 54.0211586,11.6516207 54.2638483,15.0561034 C54.3706069,16.5600345 54.1254345,18.0254828 53.5078483,19.4102414 C52.1237103,22.5136897 48.9370897,23.7258966 45.822469,22.3187931 C45.1546069,22.0171379 44.5345379,21.6074828 43.7661241,21.1761034 C43.7170897,21.7117586 43.6798483,22.1220345 43.6357793,22.5981034 L40.9413655,22.5981034 L40.9413655,5.62037931 L43.6978483,5.62037931 Z M73.4737586,9.52681379 C74.5854138,9.91846897 75.3054138,10.7712966 75.3283793,11.9170897 C75.3991379,15.4376414 75.3538276,18.9612966 75.3538276,22.5755724 L72.5905172,22.5755724 L72.5905172,15.3110207 C70.7582414,15.8609517 69.0997586,16.2799172 67.5008621,16.8627448 C66.2073448,17.334469 65.6642414,18.2450207 65.8554138,19.1847448 C66.0664483,20.2256414 67.0067931,20.8475724 68.4095517,20.7737103 C69.2673448,20.7284 70.1183103,20.5608138 71.1132759,20.4298483 C70.9146552,21.0989517 70.7452069,21.6699862 70.5683103,22.2652276 C68.6665172,22.9281241 66.8081724,23.1912966 64.9926552,22.1901241 C63.638931,21.4440552 62.909,20.2541931 62.9580345,18.6894345 C63.0064483,17.1228138 63.7754828,15.9224 65.2285172,15.3656414 C66.7324483,14.7896414 68.3201724,14.436469 69.8601034,13.9510897 C70.5645862,13.7288828 71.2883103,13.4992276 71.9127241,13.1230897 C72.2354828,12.9288138 72.5340345,12.3993655 72.5197586,12.0344 C72.5073448,11.7358483 72.0523793,11.268469 71.7283793,11.2045379 C70.7923793,11.0195724 69.811069,10.8644 68.8707241,10.9506759 C68.2326552,11.009198 67.6018825,11.152438 66.9729628,11.3125289 L66.0302927,11.55682 C65.8731858,11.5968138 65.7160246,11.6357399 65.5587241,11.6725379 C65.257069,11.7426759 64.9628621,11.8413655 64.5122414,11.9710897 C64.5941724,11.2119862 64.6587241,10.6161241 64.7344483,9.91722759 C67.6287241,9.00667586 70.5112069,8.4821931 73.4737586,9.52681379 Z M37.5613379,9.5963931 L37.5613379,22.6110138 L34.9569241,22.6110138 C34.9060276,22.1572897 34.8607172,21.7526 34.8073379,21.2678414 C34.6099586,21.3336345 34.4510621,21.3534966 34.3306483,21.4317034 C32.9067862,22.3583931 31.3320966,22.7637034 29.6494069,22.8375655 C26.7067172,22.9672897 24.6609241,21.4987379 24.415131,18.5697034 C24.1680966,15.6239103 24.3605103,12.6414966 24.3605103,9.60197931 L27.0319586,9.60197931 C27.0555448,9.97066897 27.0946483,10.3139103 27.0958897,10.656531 C27.1020966,12.6290828 27.0760276,14.6028759 27.113269,16.5748069 C27.1275448,17.3444621 27.2293379,18.1215655 27.3783034,18.8775655 C27.5446483,19.7229448 28.1256138,20.2219793 28.9703724,20.374669 C30.8938897,20.7228759 32.5573379,20.1791517 33.955131,18.8378414 C34.5143724,18.3021862 34.7806483,17.6169448 34.7899586,16.8317724 C34.8135448,14.8269448 34.8483034,12.8221172 34.8768552,10.8179103 C34.8824414,10.4349448 34.8780966,10.0519793 34.8780966,9.5963931 L37.5613379,9.5963931 Z M17.4767517,9.01604828 C19.9843379,9.2543931 21.2567517,10.7390828 21.2896483,13.4018414 C21.3200621,15.8597724 21.2983379,18.3177034 21.2995793,20.7756345 L21.2995793,22.6091517 L18.5474414,22.6091517 C18.5244759,22.1821172 18.4884759,21.8059793 18.4872345,21.4298414 C18.4742,18.8750828 18.4897172,16.3203241 18.4524759,13.7661862 C18.4239241,11.7644621 17.7504759,11.1232897 15.7673724,11.2741172 C14.9412345,11.3374276 14.0908897,11.5242552 13.3243379,11.8339793 C11.7608207,12.4664621 10.8136483,13.6203241 10.7913034,15.3899103 C10.7664759,17.3947379 10.744131,19.3989448 10.7162,21.4037724 C10.7112345,21.7823931 10.6820621,22.1603931 10.6615793,22.6029448 L8.00006207,22.6029448 L8.00006207,9.59018621 L10.6032345,9.59018621 C10.6733724,9.89370345 10.7366828,10.170531 10.8173724,10.5193586 C11.0029586,10.458531 11.1916483,10.4361862 11.3344069,10.3430828 C13.2150966,9.12342759 15.3043379,8.80935862 17.4767517,9.01604828 Z M60.1478621,9.61675172 L60.1478621,22.5724069 L57.3398621,22.5724069 L57.3398621,9.61675172 L60.1478621,9.61675172 Z M45.0993655,12.055069 C44.1310897,12.4895517 43.4756414,13.0854138 43.6935034,14.2696897 C43.7307448,14.4707931 43.6469517,15.3316897 43.6606069,15.5327931 C43.7090207,16.241 43.7251586,16.9560345 43.8821931,17.6400345 C44.2248138,19.1284483 45.7070207,20.2866552 47.2581241,20.4107931 C48.8433655,20.5380345 49.9810897,19.8478276 50.7104,18.2954828 C51.3385379,16.9585172 51.4484,15.5545172 51.1250207,14.1312759 C50.8395034,12.8725172 50.1002621,11.9638276 48.7949517,11.6745862 C47.5330897,11.3940345 46.2941931,11.5200345 45.0993655,12.055069 Z M60.1608966,5.64123448 L60.1608966,7.3804069 L57.3249655,7.3804069 L57.3249655,5.64123448 L60.1608966,5.64123448 Z" id="Combined-Shape" fill="#333333"></path>
    </g>
</svg>