<svg width="112" height="20" viewBox="0 0 112 20" xmlns="http://www.w3.org/2000/svg"><path d="M19.455 2.612a1.447 1.447 0 1 1 1.447 1.45 1.457 1.457 0 0 1-1.447-1.45zm.206 3.245h2.5v12.27h-2.5V5.857zM31.327 1.3a5.262 5.262 0 0 1 5.512 5.524 5.329 5.329 0 0 1-5.6 5.547h-3.606v5.754h-2.595V1.302h6.292l-.003-.002zm-3.674 8.884h2.986c2.273 0 3.559-1.22 3.559-3.337s-1.286-3.335-3.537-3.335h-3.008v6.675-.003zM38.63 1.3h2.48v6.612h.069a4 4 0 0 1 3.881-2.255c2.687 0 4.3 1.8 4.3 4.557v7.895h-2.527v-7.397c0-1.8-.9-2.9-2.664-2.9a2.919 2.919 0 0 0-3.008 3.222v7.089h-2.5L38.63 1.302V1.3zM51.1 12c0-3.936 2.319-6.352 5.81-6.352 3.491 0 5.81 2.417 5.81 6.352 0 3.959-2.3 6.352-5.81 6.352s-5.81-2.411-5.81-6.347V12zm9.048 0c0-2.716-1.286-4.281-3.238-4.281-1.975 0-3.238 1.565-3.238 4.281 0 2.716 1.286 4.281 3.238 4.281 1.975.005 3.238-1.56 3.238-4.276V12zm4.409-6.145h2.388v2.057h.067a3.978 3.978 0 0 1 3.858-2.255c2.687 0 4.249 1.726 4.249 4.534v7.941h-2.527V10.67c0-1.841-.849-2.854-2.6-2.854a2.866 2.866 0 0 0-2.916 3.153v7.135h-2.5L64.553 5.86l.004-.005zm23.355 8.657c-.345 2.233-2.458 3.844-5.259 3.844-3.583 0-5.764-2.44-5.764-6.306 0-3.844 2.2-6.4 5.672-6.4 3.4 0 5.512 2.394 5.512 6.122v.852h-8.635v.161a3.211 3.211 0 0 0 3.284 3.544 2.77 2.77 0 0 0 2.824-1.8l2.366-.017zm-8.5-3.659h6.131a3.012 3.012 0 0 0-3.008-3.2 3.205 3.205 0 0 0-3.123 3.201v-.001zm17.751.805c.186.674.849 1.1 1.539.99a1.174 1.174 0 0 0 1.378-.944c0-.483-.345-.76-1.263-.944l-.758-.161c-1.447-.3-2.182-.99-2.182-2.071 0-1.335 1.171-2.233 2.779-2.233 1.7 0 2.779.9 2.8 2.233h-1.444a1.185 1.185 0 0 0-1.355-.99 1.054 1.054 0 0 0-1.263.9c0 .46.345.737 1.217.9l.781.161c1.538.3 2.2.944 2.2 2.048 0 1.427-1.125 2.325-2.939 2.325-1.745 0-2.893-.829-2.939-2.209h1.446l.003-.005zm10.334 2.071h-4.845V6.412h4.845v1.266h-3.306V9.45h3.123v1.174h-3.123v1.841h3.306v1.266-.002zm-2.5-11.6h1.126c.346 0 .692.03 1.033.092.31.062.61.162.895.3.272.136.52.314.735.529.222.223.408.48.552.76.137.278.238.572.3.875.062.342.093.689.092 1.036v8.746c0 .347-.03.694-.092 1.036-.058.312-.16.615-.3.9a2.861 2.861 0 0 1-.529.737c-.22.215-.467.4-.735.552a3.412 3.412 0 0 1-.895.3c-.34.062-.687.093-1.033.092h-8.7c-.346 0-.692-.03-1.033-.092a3.717 3.717 0 0 1-.9-.3 2.473 2.473 0 0 1-.735-.552 2.922 2.922 0 0 1-.85-1.634 5.838 5.838 0 0 1-.091-1.036V5.721c0-.347.03-.694.091-1.036.061-.312.162-.614.3-.9a2.95 2.95 0 0 1 .551-.76c.215-.214.463-.393.735-.529.285-.141.587-.242.9-.3.34-.064.687-.095 1.033-.092h.5l7.05.023m0-1.565H97.35a6.423 6.423 0 0 0-1.263.115c-.456.08-.897.227-1.309.437a3.96 3.96 0 0 0-1.125.828c-.333.33-.612.71-.827 1.128a4.889 4.889 0 0 0-.436 1.312 6.62 6.62 0 0 0-.115 1.266v8.815a6.62 6.62 0 0 0 .115 1.266c.079.457.226.899.436 1.312.207.422.487.804.827 1.128.329.334.709.614 1.125.829.413.207.854.354 1.309.437.418.068.84.107 1.263.115h8.773c.423.003.846-.035 1.262-.115.456-.08.898-.226 1.31-.437a3.969 3.969 0 0 0 1.125-.829c.335-.329.614-.71.827-1.128.206-.415.353-.856.436-1.312a6.62 6.62 0 0 0 .115-1.266V5.675a6.62 6.62 0 0 0-.115-1.266 4.664 4.664 0 0 0-.436-1.312 3.984 3.984 0 0 0-.827-1.128 4.467 4.467 0 0 0-1.125-.829 4.883 4.883 0 0 0-1.31-.437 6.422 6.422 0 0 0-1.262-.115h-.529l-.6-.023.003-.003zM10.062 2.937a4.121 4.121 0 0 0 .942-2.923 3.973 3.973 0 0 0-2.687 1.4 3.851 3.851 0 0 0-.964 2.808 3.313 3.313 0 0 0 2.709-1.289m.942 1.5c-1.493-.092-2.779.852-3.491.852-.712 0-1.814-.806-2.985-.783A4.475 4.475 0 0 0 .762 6.781c-1.608 2.785-.414 6.9 1.148 9.16.758 1.128 1.676 2.348 2.893 2.3 1.149-.046 1.585-.736 2.963-.736 1.378 0 1.791.736 2.985.713 1.263-.023 2.044-1.128 2.8-2.233a8.764 8.764 0 0 0 1.24-2.578 4.077 4.077 0 0 1-2.434-3.706 4.161 4.161 0 0 1 1.975-3.475 4.344 4.344 0 0 0-3.33-1.8" fill="#F5F5F7" fill-rule="evenodd"/></svg>