<?xml version="1.0" encoding="utf-8"?>
<!-- Generator: Adobe Illustrator 21.1.0, SVG Export Plug-In . SVG Version: 6.00 Build 0)  -->
<svg version="1.1" id="Layer_1" xmlns="http://www.w3.org/2000/svg" xmlns:xlink="http://www.w3.org/1999/xlink" x="0px" y="0px"
	 viewBox="0 0 480 116" style="enable-background:new 0 0 480 116;" xml:space="preserve">
<style type="text/css">
	.st0{fill:#111111;}
</style>
<path id="_50_S1_Headline_medium_1x.svg" class="st0" d="M29.5,39.7H9.1V1.5H1v45.1h28.5V39.7z M46,41.2c-3.4,0-5.6-1.7-5.6-4.4
	c0-2.6,2.2-4.3,5.9-4.6l7.7-0.5v2.5C54,38.3,50.4,41.2,46,41.2L46,41.2z M43.7,47.1c4.2,0,8.4-2.2,10.3-5.8h0.2v5.3h7.5V23.7
	c0-6.7-5.3-11-13.6-11c-8.4,0-13.7,4.4-14.1,10.6h7.2c0.5-2.7,2.8-4.5,6.5-4.5c3.8,0,6.2,2,6.2,5.5v2.4l-8.7,0.5
	c-8.1,0.5-12.6,4-12.6,9.9C32.6,43.1,37.3,47.1,43.7,47.1L43.7,47.1z M79.6,46.6h7.8V26.3c0-4,2.6-6.9,6.4-6.9c3.6,0,5.9,2.3,5.9,6
	v21.2h7.6V26.1c0-4,2.6-6.7,6.3-6.7c3.8,0,5.9,2.3,5.9,6.4v20.8h7.8V23.8c0-6.6-4.3-11-10.8-11c-4.8,0-8.7,2.6-10.3,6.7h-0.2
	c-1.2-4.2-4.6-6.7-9.2-6.7c-4.5,0-8,2.5-9.4,6.4H87v-5.7h-7.5L79.6,46.6L79.6,46.6z M147.1,18.8c4.5,0,7.5,3.3,7.6,8h-15.5
	C139.6,22.1,142.7,18.8,147.1,18.8L147.1,18.8z M154.8,36.6c-0.8,2.7-3.6,4.6-7.2,4.6c-5.1,0-8.3-3.6-8.3-8.9v-0.5h23.2v-2.5
	c0-10.1-5.9-16.6-15.3-16.6c-9.6,0-15.6,6.9-15.6,17.4c0,10.6,6,17.1,15.9,17.1c7.8,0,13.7-4.3,14.7-10.6H154.8L154.8,36.6z
	 M179.2,47.1c4.8,0,8.7-2.5,10.5-6.2h0.1v5.7h7.6V1.5h-7.8V19h-0.2c-1.8-3.7-5.5-6.1-10.2-6.1c-8.3,0-13.7,6.6-13.7,17.1
	C165.4,40.5,170.8,47.1,179.2,47.1L179.2,47.1z M181.5,19.3c4.9,0,8.1,4.2,8.1,10.7c0,6.6-3.2,10.7-8.1,10.7c-5,0-8.1-4.1-8.1-10.7
	C173.4,23.4,176.5,19.3,181.5,19.3L181.5,19.3z M203.5,46.6h7.8V13.4h-7.8L203.5,46.6L203.5,46.6z M207.4,8.4c2.3,0,4.2-1.9,4.2-4.2
	c0-2.3-1.9-4.2-4.2-4.2c-2.3,0-4.2,1.9-4.2,4.2C203.1,6.6,205,8.4,207.4,8.4L207.4,8.4z M229.6,47.1c4.8,0,8.7-2.5,10.5-6.2h0.1v5.7
	h7.6V1.5h-7.8V19h-0.2c-1.8-3.7-5.5-6.1-10.2-6.1c-8.3,0-13.7,6.6-13.7,17.1C215.9,40.5,221.3,47.1,229.6,47.1L229.6,47.1z
	 M232,19.3c4.9,0,8.1,4.2,8.1,10.7c0,6.6-3.2,10.7-8.1,10.7c-5,0-8.1-4.1-8.1-10.7C223.9,23.4,227,19.3,232,19.3L232,19.3z
	 M265.9,41.2c-3.4,0-5.6-1.7-5.6-4.4c0-2.6,2.2-4.3,5.9-4.6l7.7-0.5v2.5C273.9,38.3,270.3,41.2,265.9,41.2L265.9,41.2z M263.6,47.1
	c4.2,0,8.4-2.2,10.3-5.8h0.2v5.3h7.5V23.7c0-6.7-5.3-11-13.6-11c-8.4,0-13.7,4.4-14.1,10.6h7.2c0.5-2.7,2.8-4.5,6.5-4.5
	c3.8,0,6.2,2,6.2,5.5v2.4l-8.7,0.5c-8.1,0.5-12.6,4-12.6,9.9C252.5,43.1,257.2,47.1,263.6,47.1L263.6,47.1z M313.7,18.8
	c4.5,0,7.5,3.3,7.6,8h-15.5C306.2,22.1,309.4,18.8,313.7,18.8L313.7,18.8z M321.4,36.6c-0.8,2.7-3.6,4.6-7.2,4.6
	c-5.1,0-8.3-3.6-8.3-8.9v-0.5H329v-2.5c0-10.1-5.9-16.6-15.3-16.6c-9.6,0-15.6,6.9-15.6,17.4c0,10.6,6,17.1,15.9,17.1
	c7.8,0,13.7-4.3,14.7-10.6H321.4L321.4,36.6z M345.8,34.7l6.9,11.9h8.5l-10.5-16.7l10.7-16.4h-8.5l-6.6,11.6H346l-6.7-11.6h-8.7
	L341.2,30l-10.7,16.5h8.3l6.9-11.9H345.8L345.8,34.7z M376.3,41.2c-3.4,0-5.6-1.7-5.6-4.4c0-2.6,2.2-4.3,5.9-4.6l7.7-0.5v2.5
	C384.2,38.3,380.7,41.2,376.3,41.2L376.3,41.2z M373.9,47.1c4.2,0,8.4-2.2,10.3-5.8h0.2v5.3h7.5V23.7c0-6.7-5.3-11-13.6-11
	c-8.4,0-13.7,4.4-14.1,10.6h7.2c0.5-2.7,2.8-4.5,6.5-4.5c3.8,0,6.2,2,6.2,5.5v2.4l-8.7,0.5c-8.1,0.5-12.6,4-12.6,9.9
	C362.9,43.1,367.5,47.1,373.9,47.1L373.9,47.1z M426.8,25.2c-0.5-7-5.9-12.5-14.7-12.5c-9.6,0-15.9,6.7-15.9,17.2
	c0,10.7,6.2,17.2,15.9,17.2c8.3,0,14-4.9,14.7-12.3h-7.3c-0.7,3.7-3.3,6-7.2,6c-4.9,0-8.1-4-8.1-10.9c0-6.8,3.2-10.9,8.1-10.9
	c4.2,0,6.6,2.7,7.2,6.2H426.8z M433,5.7v7.7h-4.8v6h4.8v18.3c0,6.4,2.8,9,10,9c1.4,0,2.7-0.1,4-0.3v-5.9c-0.7,0.1-1.5,0.2-2.2,0.2
	c-2.8,0-4-1.2-4-4V19.4h6.2v-6h-6.2V5.7H433z M463.4,41.2c-3.4,0-5.6-1.7-5.6-4.4c0-2.6,2.2-4.3,5.9-4.6l7.7-0.5v2.5
	C471.3,38.3,467.8,41.2,463.4,41.2L463.4,41.2z M461,47.1c4.2,0,8.4-2.2,10.3-5.8h0.2v5.3h7.5V23.7c0-6.7-5.3-11-13.6-11
	c-8.4,0-13.7,4.4-14.1,10.6h7.2c0.5-2.7,2.8-4.5,6.5-4.5c3.8,0,6.2,2,6.2,5.5v2.4l-8.7,0.5c-8.1,0.5-12.6,4-12.6,9.9
	C450,43.1,454.6,47.1,461,47.1L461,47.1z M144,115.1c4.8,0,8.7-2.5,10.5-6.2h0.1v5.7h7.6V69.5h-7.8V87h-0.2
	c-1.8-3.7-5.5-6.1-10.2-6.1c-8.3,0-13.7,6.6-13.7,17.1C130.3,108.5,135.7,115.1,144,115.1L144,115.1z M146.4,87.3
	c4.9,0,8.1,4.2,8.1,10.7c0,6.6-3.2,10.7-8.1,10.7c-5,0-8.1-4.1-8.1-10.7C138.2,91.4,141.4,87.3,146.4,87.3L146.4,87.3z M182.5,86.8
	c4.5,0,7.5,3.3,7.6,8h-15.5C174.9,90.1,178.1,86.8,182.5,86.8L182.5,86.8z M190.1,104.6c-0.8,2.7-3.6,4.6-7.2,4.6
	c-5.1,0-8.3-3.6-8.3-8.9v-0.5h23.2v-2.5c0-10.1-5.9-16.6-15.3-16.6c-9.6,0-15.6,6.9-15.6,17.4c0,10.6,6,17.1,15.9,17.1
	c7.8,0,13.7-4.3,14.7-10.6H190.1L190.1,104.6z M216.5,73.7v7.7h-4.7v6h4.7v18.3c0,6.4,2.8,9,10,9c1.4,0,2.7-0.1,4-0.3v-5.9
	c-0.7,0.1-1.5,0.2-2.2,0.2c-2.7,0-4-1.2-4-4V87.4h6.2v-6h-6.2v-7.7H216.5z M249.3,115.2c9.7,0,16-6.5,16-17.2
	c0-10.7-6.4-17.2-16-17.2s-16,6.6-16,17.2C233.3,108.7,239.6,115.2,249.3,115.2L249.3,115.2z M249.3,109.1c-4.9,0-8.1-4-8.1-11.1
	c0-7,3.2-11.1,8.1-11.1c4.9,0,8.1,4,8.1,11.1C257.4,105.1,254.2,109.1,249.3,109.1L249.3,109.1z M282.1,115.1
	c4.8,0,8.7-2.5,10.5-6.2h0.1v5.7h7.6V69.5h-7.8V87h-0.2c-1.8-3.7-5.5-6.1-10.2-6.1c-8.3,0-13.7,6.6-13.7,17.1
	C268.4,108.5,273.8,115.1,282.1,115.1L282.1,115.1z M284.5,87.3c4.9,0,8.1,4.2,8.1,10.7c0,6.6-3.2,10.7-8.1,10.7
	c-5,0-8.1-4.1-8.1-10.7C276.4,91.4,279.5,87.3,284.5,87.3L284.5,87.3z M321,115.2c9.7,0,16-6.5,16-17.2c0-10.7-6.4-17.2-16-17.2
	c-9.7,0-16,6.6-16,17.2C304.9,108.7,311.2,115.2,321,115.2L321,115.2z M321,109.1c-4.9,0-8.1-4-8.1-11.1c0-7,3.2-11.1,8.1-11.1
	c4.9,0,8.1,4,8.1,11.1C329.1,105.1,325.9,109.1,321,109.1L321,109.1z M345.6,114.9c2.5,0,4.5-2,4.5-4.5s-2-4.5-4.5-4.5
	s-4.5,2-4.5,4.5c0,2.4,1.9,4.5,4.4,4.5C345.5,114.9,345.5,114.9,345.6,114.9L345.6,114.9z"/>
</svg>
