<?xml version="1.0" encoding="utf-8"?>
<!-- Generator: Adobe Illustrator 21.1.0, SVG Export Plug-In . SVG Version: 6.00 Build 0)  -->
<svg version="1.1" id="Layer_1" xmlns="http://www.w3.org/2000/svg" xmlns:xlink="http://www.w3.org/1999/xlink" x="0px" y="0px"
	 viewBox="0 0 268 76" style="enable-background:new 0 0 268 76;" xml:space="preserve">
<style type="text/css">
	.st0{fill:#111111;}
</style>
<path id="_50_S1_Headline_small_1x.svg" class="st0" d="M62.6,24.8H49.8V0.9h-5v28.2h17.8C62.6,29.1,62.6,24.8,62.6,24.8z
	 M73.3,25.8c-2.1,0-3.5-1.1-3.5-2.8c0-1.6,1.4-2.7,3.7-2.9l4.8-0.3v1.6C78.3,23.9,76.1,25.8,73.3,25.8z M71.8,29.4
	c2.7,0,5.3-1.4,6.4-3.6h0.1v3.3h4.7V14.8c0-4.2-3.3-6.9-8.5-6.9c-5.3,0-8.6,2.8-8.8,6.6h4.5c0.3-1.7,1.8-2.8,4.1-2.8
	c2.4,0,3.9,1.3,3.9,3.4v1.5L72.8,17c-5,0.3-7.9,2.5-7.9,6.2C64.9,26.9,67.8,29.4,71.8,29.4z M95,29.1h4.9V16.4c0-2.5,1.6-4.3,4-4.3
	c2.3,0,3.7,1.4,3.7,3.7v13.3h4.7V16.3c0-2.5,1.6-4.2,3.9-4.2c2.4,0,3.7,1.4,3.7,4v13h4.9V14.9c0-4.1-2.7-6.9-6.8-6.9
	c-3,0-5.5,1.6-6.4,4.2h-0.1c-0.8-2.7-2.9-4.2-5.8-4.2c-2.6-0.1-5,1.5-5.9,4h-0.1V8.4H95L95,29.1L95,29.1z M137.6,11.7
	c2.8,0,4.7,2.1,4.8,5h-9.7C132.9,13.8,134.8,11.7,137.6,11.7z M142.4,22.9c-0.5,1.7-2.2,2.9-4.5,2.9c-3.2,0-5.2-2.2-5.2-5.5v-0.3
	h14.5v-1.6c0-6.3-3.7-10.4-9.6-10.4c-6,0-9.8,4.3-9.8,10.9c0,6.6,3.8,10.7,10,10.7c4.9,0,8.5-2.7,9.2-6.6L142.4,22.9L142.4,22.9z
	 M158,29.4c3,0,5.4-1.5,6.5-3.9h0.1v3.5h4.8V0.9h-4.9v11h-0.1C163.2,9.5,160.7,8,158,8c-5.2,0-8.6,4.1-8.6,10.7
	C149.4,25.3,152.7,29.4,158,29.4L158,29.4z M159.4,12c3.1,0,5.1,2.6,5.1,6.7c0,4.1-2,6.7-5.1,6.7c-3.1,0-5.1-2.6-5.1-6.7
	C154.3,14.6,156.3,12,159.4,12L159.4,12z M173.5,29.1h4.9V8.4h-4.9V29.1L173.5,29.1z M175.9,5.3c1.5,0,2.6-1.2,2.6-2.7
	c0-1.5-1.2-2.6-2.7-2.6c-1.4,0-2.6,1.2-2.6,2.6C173.3,4.1,174.5,5.3,175.9,5.3C175.9,5.3,175.9,5.3,175.9,5.3L175.9,5.3z
	 M190.2,29.4c3,0,5.4-1.5,6.5-3.9h0.1v3.5h4.8V0.9h-4.9v11h-0.1c-1.2-2.4-3.7-3.9-6.4-3.8c-5.2,0-8.6,4.1-8.6,10.7
	C181.6,25.3,185,29.4,190.2,29.4L190.2,29.4z M191.7,12c3.1,0,5.1,2.6,5.1,6.7c0,4.1-2,6.7-5.1,6.7c-3.1,0-5.1-2.6-5.1-6.7
	C186.6,14.6,188.6,12,191.7,12L191.7,12z M213.3,25.8c-2.1,0-3.5-1.1-3.5-2.8c0-1.6,1.4-2.7,3.7-2.9l4.8-0.3v1.6
	C218.2,23.9,216,25.8,213.3,25.8L213.3,25.8z M211.8,29.4c2.7,0,5.3-1.4,6.4-3.6h0.1v3.3h4.7V14.8c0-4.2-3.3-6.9-8.5-6.9
	c-5.3,0-8.6,2.8-8.8,6.6h4.5c0.3-1.7,1.8-2.8,4.1-2.8c2.4,0,3.9,1.3,3.9,3.4v1.5l-5.5,0.3c-5,0.3-7.9,2.5-7.9,6.2
	C204.9,26.9,207.8,29.4,211.8,29.4L211.8,29.4z M10.9,55.7c2.8,0,4.7,2.1,4.8,5H6C6.2,57.8,8.1,55.7,10.9,55.7z M15.7,66.9
	c-0.5,1.7-2.2,2.9-4.5,2.9c-3.2,0-5.2-2.2-5.2-5.5v-0.3h14.5v-1.6c0-6.3-3.7-10.4-9.6-10.4c-6,0-9.8,4.3-9.8,10.9
	c0,6.6,3.8,10.7,10,10.7c4.9,0,8.5-2.7,9.2-6.6L15.7,66.9L15.7,66.9z M31.3,65.7l4.3,7.4h5.3l-6.6-10.5L41,52.4h-5.3l-4.1,7.3h-0.1
	l-4.2-7.3h-5.5l6.6,10.4l-6.7,10.3h5.2L31.3,65.7L31.3,65.7L31.3,65.7z M50.7,69.8c-2.1,0-3.5-1.1-3.5-2.8c0-1.6,1.4-2.7,3.7-2.9
	l4.8-0.3v1.6C55.6,67.9,53.4,69.8,50.7,69.8L50.7,69.8z M49.2,73.4c2.7,0,5.3-1.4,6.4-3.6h0.1v3.3h4.7V58.8c0-4.2-3.3-6.9-8.5-6.9
	c-5.3,0-8.6,2.8-8.8,6.6h4.5c0.3-1.7,1.8-2.8,4.1-2.8c2.4,0,3.9,1.3,3.9,3.4v1.5L50.2,61c-5,0.3-7.9,2.5-7.9,6.2
	C42.3,70.9,45.2,73.4,49.2,73.4L49.2,73.4z M82.6,59.8c-0.3-4.4-3.7-7.8-9.2-7.8c-6,0-9.9,4.2-9.9,10.8c0,6.7,3.9,10.8,10,10.8
	c5.2,0,8.8-3,9.2-7.7H78c-0.5,2.3-2,3.8-4.5,3.8c-3.1,0-5.1-2.5-5.1-6.8c0-4.3,2-6.8,5-6.8c2.6,0,4.1,1.7,4.5,3.9L82.6,59.8
	L82.6,59.8z M86.9,47.6v4.8h-3v3.8h3v11.4c0,4,1.8,5.6,6.2,5.6c0.8,0,1.7-0.1,2.5-0.2v-3.7c-0.5,0.1-0.9,0.1-1.4,0.1
	c-1.7,0-2.5-0.8-2.5-2.5V56.1h3.9v-3.8h-3.9v-4.8L86.9,47.6L86.9,47.6z M106.2,69.8c-2.1,0-3.5-1.1-3.5-2.8c0-1.6,1.3-2.7,3.7-2.9
	l4.8-0.3v1.6C111.2,67.9,109,69.8,106.2,69.8L106.2,69.8z M104.7,73.4c2.7,0,5.3-1.4,6.4-3.6h0.1v3.3h4.7V58.8
	c0-4.2-3.3-6.9-8.5-6.9c-5.3,0-8.6,2.8-8.8,6.6h4.5c0.3-1.7,1.8-2.8,4.1-2.8c2.4,0,3.9,1.3,3.9,3.4v1.5l-5.5,0.3
	c-5,0.3-7.9,2.5-7.9,6.2C97.8,70.9,100.7,73.4,104.7,73.4L104.7,73.4z M135.6,73.4c3,0,5.4-1.5,6.5-3.9h0.1v3.5h4.8V44.9h-4.9v11
	H142c-1.2-2.4-3.7-3.9-6.4-3.8c-5.2,0-8.6,4.1-8.6,10.7C127,69.3,130.4,73.4,135.6,73.4L135.6,73.4z M137.1,56
	c3.1,0,5.1,2.6,5.1,6.7c0,4.1-2,6.7-5.1,6.7c-3.1,0-5.1-2.6-5.1-6.7C132,58.6,134,56,137.1,56L137.1,56z M160,55.7
	c2.8,0,4.7,2.1,4.8,5h-9.7C155.3,57.8,157.3,55.7,160,55.7z M164.8,66.9c-0.5,1.7-2.2,2.9-4.5,2.9c-3.2,0-5.2-2.2-5.2-5.5v-0.3h14.5
	v-1.6c0-6.3-3.7-10.4-9.6-10.4c-6,0-9.8,4.3-9.8,10.9c0,6.6,3.8,10.7,10,10.7c4.9,0,8.5-2.7,9.2-6.6L164.8,66.9L164.8,66.9z
	 M182,47.6v4.8h-3v3.8h3v11.4c0,4,1.8,5.6,6.2,5.6c0.8,0,1.7-0.1,2.5-0.2v-3.7c-0.5,0.1-0.9,0.1-1.4,0.1c-1.7,0-2.5-0.8-2.5-2.5
	V56.1h3.9v-3.8h-3.9v-4.8L182,47.6L182,47.6z M202.9,73.5c6.1,0,10-4,10-10.8c0-6.7-4-10.8-10-10.8s-10,4.1-10,10.8
	C192.9,69.5,196.8,73.5,202.9,73.5L202.9,73.5z M202.9,69.7c-3.1,0-5.1-2.5-5.1-6.9c0-4.4,2-6.9,5.1-6.9c3.1,0,5.1,2.5,5.1,6.9
	C207.9,67.2,206,69.7,202.9,69.7L202.9,69.7z M223.7,73.4c3,0,5.4-1.5,6.5-3.9h0.1v3.5h4.8V44.9h-4.9v11h-0.1
	c-1.2-2.4-3.7-3.9-6.4-3.8c-5.2,0-8.6,4.1-8.6,10.7C215.2,69.3,218.5,73.4,223.7,73.4L223.7,73.4z M225.2,56c3.1,0,5.1,2.6,5.1,6.7
	c0,4.1-2,6.7-5.1,6.7c-3.1,0-5.1-2.6-5.1-6.7C220.1,58.6,222.1,56,225.2,56L225.2,56z M248.4,73.5c6.1,0,10-4,10-10.8
	c0-6.7-4-10.8-10-10.8s-10,4.1-10,10.8C238.4,69.5,242.3,73.5,248.4,73.5L248.4,73.5z M248.4,69.7c-3.1,0-5.1-2.5-5.1-6.9
	c0-4.4,2-6.9,5.1-6.9c3.1,0,5.1,2.5,5.1,6.9C253.5,67.2,251.5,69.7,248.4,69.7L248.4,69.7z M264.1,73.3c1.6,0,2.8-1.3,2.8-2.8
	c0-1.6-1.3-2.8-2.8-2.8s-2.8,1.3-2.8,2.8C261.3,72,262.5,73.3,264.1,73.3C264.1,73.3,264.1,73.3,264.1,73.3L264.1,73.3z"/>
</svg>
