<?xml version="1.0" encoding="utf-8"?>
<!-- Generator: Adobe Illustrator 21.1.0, SVG Export Plug-In . SVG Version: 6.00 Build 0)  -->
<svg version="1.1" id="Layer_1" xmlns="http://www.w3.org/2000/svg" xmlns:xlink="http://www.w3.org/1999/xlink" x="0px" y="0px"
	 viewBox="0 0 64 16" style="enable-background:new 0 0 64 16;" xml:space="preserve">
<style type="text/css">
	.st0{fill:#666666;}
</style>
<path id="_50_S2_Sub_1_small_1x.svg" class="st0" d="M0.1,0.5v14.8h5.4c4.4,0,7-2.7,7-7.4s-2.6-7.4-7-7.4H0.1z M2.8,2.7h2.5
	c3,0,4.6,1.8,4.6,5.1c0,3.4-1.6,5.2-4.6,5.2H2.8L2.8,2.7L2.8,2.7z M14.7,15.3h2.6V4.4h-2.6V15.3z M16,2.8c0.8,0,1.4-0.6,1.4-1.4
	c0-0.8-0.6-1.4-1.4-1.4c-0.8,0-1.4,0.6-1.4,1.4C14.6,2.1,15.2,2.8,16,2.8C16,2.8,16,2.8,16,2.8z M19.4,7.5c0,1.6,1,2.6,3.1,3.1
	l1.8,0.4c1.1,0.3,1.5,0.6,1.5,1.3c0,0.8-0.8,1.3-2,1.3c-1.3,0-2-0.5-2.2-1.6h-2.5c0.2,2.1,1.9,3.5,4.7,3.5c2.7,0,4.5-1.4,4.5-3.4
	c0-1.6-0.9-2.4-3.1-3l-1.8-0.4c-1.1-0.3-1.6-0.7-1.6-1.3c0-0.8,0.7-1.3,1.9-1.3c1.2,0,1.9,0.6,2,1.6h2.4c-0.1-2.1-1.7-3.5-4.4-3.5
	C21.2,4.2,19.4,5.5,19.4,7.5L19.4,7.5z M35,6.2c1.5,0,2.4,1.1,2.5,2.6h-5.1C32.5,7.3,33.5,6.2,35,6.2L35,6.2z M37.5,12
	c-0.3,0.9-1.2,1.5-2.4,1.5c-1.7,0-2.7-1.2-2.7-2.9v-0.2H40V9.6c0-3.3-1.9-5.4-5-5.4c-3.1,0-5.1,2.3-5.1,5.7c0,3.5,2,5.6,5.2,5.6
	c2.6,0,4.5-1.4,4.8-3.5L37.5,12L37.5,12z M41.9,15.3h2.6V9c0-1.6,0.9-2.6,2.4-2.6c1.5,0,2.2,0.9,2.2,2.4v6.5h2.6v-7
	c0-2.5-1.4-4-3.8-4c-1.5-0.1-2.8,0.7-3.4,2.1h0V4.4h-2.4L41.9,15.3L41.9,15.3z M48,2.8c1.3,0,2.2-1,2.2-2.8h-1.5
	c0,0.9-0.3,1.3-0.8,1.3c-0.7,0-1-1.3-2.5-1.3c-1.3,0-2.2,1-2.2,2.8h1.5c0-0.9,0.3-1.3,0.8-1.3C46.2,1.5,46.5,2.8,48,2.8L48,2.8z
	 M58.6,15.5c3.2,0,5.3-2.1,5.3-5.6c0-3.5-2.1-5.7-5.3-5.7c-3.2,0-5.3,2.2-5.3,5.7C53.4,13.4,55.4,15.5,58.6,15.5L58.6,15.5z
	 M58.6,13.5c-1.6,0-2.7-1.3-2.7-3.6c0-2.3,1.1-3.6,2.7-3.6c1.6,0,2.7,1.3,2.7,3.6C61.3,12.2,60.2,13.5,58.6,13.5L58.6,13.5z"/>
</svg>
