<?xml version="1.0" encoding="utf-8"?>
<!-- Generator: Adobe Illustrator 21.1.0, SVG Export Plug-In . SVG Version: 6.00 Build 0)  -->
<svg version="1.1" id="Layer_1" xmlns="http://www.w3.org/2000/svg" xmlns:xlink="http://www.w3.org/1999/xlink" x="0px" y="0px"
	 viewBox="0 0 88 24" style="enable-background:new 0 0 88 24;" xml:space="preserve">
<style type="text/css">
	.st0{fill:#666666;}
</style>
<path id="_50_S2_Sub_1_large_1x.svg" class="st0" d="M1.8,0.6v19.7H9c5.9,0,9.4-3.7,9.4-9.9S14.9,0.6,9,0.6H1.8z M5.3,3.6h3.3
	c3.9,0,6.2,2.4,6.2,6.8c0,4.5-2.2,6.9-6.2,6.9H5.3L5.3,3.6L5.3,3.6z M21.1,20.4h3.4V5.9h-3.4V20.4z M22.8,3.7c1,0,1.8-0.8,1.8-1.9
	c0-1-0.8-1.8-1.9-1.8c-1,0-1.8,0.8-1.8,1.8C20.9,2.9,21.8,3.7,22.8,3.7C22.8,3.7,22.8,3.7,22.8,3.7L22.8,3.7z M27.3,10
	c0,2.1,1.4,3.5,4.2,4.1l2.4,0.5c1.5,0.3,2,0.8,2,1.7c0,1.1-1,1.8-2.7,1.8c-1.7,0-2.7-0.7-3-2.1h-3.3c0.3,2.8,2.5,4.6,6.3,4.6
	c3.6,0,6.1-1.8,6.1-4.6c0-2.1-1.2-3.3-4.2-3.9l-2.4-0.5c-1.5-0.3-2.1-0.9-2.1-1.8c0-1.1,1-1.8,2.5-1.8c1.6,0,2.5,0.8,2.7,2.1H39
	c-0.1-2.7-2.3-4.6-5.9-4.6C29.6,5.6,27.3,7.4,27.3,10L27.3,10z M47.9,8.2c2,0,3.3,1.4,3.3,3.5h-6.8C44.6,9.7,46,8.2,47.9,8.2
	L47.9,8.2z M51.3,16c-0.4,1.2-1.6,2-3.2,2c-2.2,0-3.7-1.6-3.7-3.9v-0.2h10.1v-1.1c0-4.4-2.6-7.3-6.7-7.3c-4.2,0-6.8,3-6.8,7.6
	c0,4.6,2.6,7.5,7,7.5c3.4,0,6-1.9,6.4-4.6H51.3L51.3,16z M57,20.4h3.4V12c0-2.1,1.2-3.5,3.2-3.5c1.9,0,2.9,1.2,2.9,3.2v8.7h3.4V11
	c0-3.3-1.8-5.4-5-5.4c-2.2,0-3.8,1-4.6,2.8h-0.1V5.9H57V20.4z M65.1,3.8c1.8,0,2.9-1.3,3-3.7h-2c0,1.1-0.4,1.7-1.1,1.7
	c-1,0-1.4-1.8-3.4-1.8c-1.8,0-2.9,1.3-2.9,3.7h2c0-1.2,0.4-1.7,1-1.7C62.7,2,63.2,3.8,65.1,3.8L65.1,3.8z M79.2,20.7
	c4.2,0,7-2.8,7-7.5c0-4.7-2.8-7.5-7-7.5s-7,2.9-7,7.5C72.2,17.8,75,20.7,79.2,20.7L79.2,20.7z M79.2,18c-2.2,0-3.6-1.8-3.6-4.8
	c0-3.1,1.4-4.8,3.6-4.8c2.2,0,3.6,1.8,3.6,4.8C82.8,16.2,81.4,18,79.2,18z"/>
</svg>
