<?xml version="1.0" encoding="utf-8"?>
<!-- Generator: Adobe Illustrator 21.1.0, SVG Export Plug-In . SVG Version: 6.00 Build 0)  -->
<svg version="1.1" id="Layer_1" xmlns="http://www.w3.org/2000/svg" xmlns:xlink="http://www.w3.org/1999/xlink" x="0px" y="0px"
	 viewBox="0 0 244 60" style="enable-background:new 0 0 244 60;" xml:space="preserve">
<style type="text/css">
	.st0{fill:#111111;}
</style>
<path id="_50_S2_Title_1_small_1x.svg" class="st0" d="M16.1,19.9H5.5v-6.4h10v-3.2h-10V4.1h10.6V0.7H1.5v22.5h14.6V19.9L16.1,19.9z
	 M19.4,23.3h3.9V0.7h-3.9V23.3z M33.4,23.3h3.9V0.7h-3.9V23.3z M46.8,20.6c-1.7,0-2.8-0.9-2.8-2.2c0-1.3,1.1-2.2,3-2.3l3.8-0.2v1.3
	C50.7,19.1,49,20.6,46.8,20.6L46.8,20.6z M45.6,23.6c2.1,0,4.1-1.1,5.2-2.9h0.1v2.6h3.8V11.9c0-3.3-2.7-5.5-6.8-5.5
	c-4.2,0-6.9,2.2-7,5.3h3.6c0.2-1.4,1.4-2.3,3.3-2.3c1.9,0,3.1,1,3.1,2.7v1.2l-4.4,0.2c-4,0.2-6.3,2-6.3,5
	C40.1,21.5,42.4,23.5,45.6,23.6L45.6,23.6z M64,23.6c2.2,0.1,4.2-1.1,5.2-3.1h0.1v2.8h3.8V0.7h-3.9v8.8h-0.1c-1-1.9-3-3.1-5.1-3.1
	c-4.2,0-6.9,3.3-6.9,8.5C57.1,20.3,59.8,23.5,64,23.6L64,23.6z M65.2,9.6c2.5,0,4.1,2.1,4.1,5.4c0,3.3-1.6,5.4-4.1,5.4
	c-2.5,0-4.1-2.1-4.1-5.4C61.1,11.7,62.7,9.6,65.2,9.6L65.2,9.6z M83.8,23.6c4.9,0,8-3.2,8-8.6c0-5.4-3.2-8.6-8-8.6s-8,3.3-8,8.6
	C75.8,20.4,79,23.6,83.8,23.6L83.8,23.6z M83.8,20.5c-2.5,0-4.1-2-4.1-5.5c0-3.5,1.6-5.5,4.1-5.5c2.5,0,4.1,2,4.1,5.5
	C87.9,18.5,86.3,20.5,83.8,20.5L83.8,20.5z M110.3,23.5c4.2,0,6.8-3.2,6.8-8.5s-2.7-8.6-6.8-8.6c-2.2-0.1-4.2,1.2-5.2,3.1H105V0.7
	h-3.9v22.5h3.8v-2.8h0.1C106,22.4,108.1,23.6,110.3,23.5z M109.1,9.6c2.5,0,4,2.1,4,5.4c0,3.3-1.5,5.4-4,5.4c-2.4,0-4.1-2.1-4.1-5.4
	C105,11.8,106.7,9.6,109.1,9.6z M127.1,23.6c4.9,0,8-3.2,8-8.6c0-5.4-3.2-8.6-8-8.6s-8,3.3-8,8.6C119.1,20.4,122.2,23.6,127.1,23.6
	L127.1,23.6z M127.1,20.5c-2.5,0-4.1-2-4.1-5.5c0-3.5,1.6-5.5,4.1-5.5c2.5,0,4.1,2,4.1,5.5C131.2,18.5,129.6,20.5,127.1,20.5
	L127.1,20.5z M137.7,23.3h3.9v-9.6c0-2.4,1.4-4,3.7-4c2.2,0,3.3,1.3,3.3,3.7v9.9h3.9V12.6c0-3.8-2.1-6.2-5.7-6.2
	c-2.5,0-4.3,1.2-5.2,3.2h-0.1V6.7h-3.7L137.7,23.3L137.7,23.3z M155.8,23.3h3.9V6.7h-3.9L155.8,23.3L155.8,23.3z M157.7,4.2
	c1.2,0,2.1-1,2.1-2.1c0-1.2-1-2.1-2.1-2.1c-1.2,0-2.1,1-2.1,2.1C155.6,3.3,156.6,4.2,157.7,4.2C157.7,4.2,157.7,4.2,157.7,4.2
	L157.7,4.2z M164.2,2.8v3.9h-2.4v3h2.4v9.2c0,3.2,1.4,4.5,5,4.5c0.7,0,1.4,0,2-0.2v-3c-0.4,0.1-0.7,0.1-1.1,0.1c-1.4,0-2-0.6-2-2
	V9.7h3.1v-3h-3.1V2.8L164.2,2.8L164.2,2.8z M181,23.6c4.9,0,8-3.2,8-8.6c0-5.4-3.2-8.6-8-8.6s-8,3.3-8,8.6
	C173,20.4,176.1,23.6,181,23.6L181,23.6z M181,20.5c-2.5,0-4.1-2-4.1-5.5c0-3.5,1.6-5.5,4.1-5.5c2.5,0,4.1,2,4.1,5.5
	C185,18.5,183.4,20.5,181,20.5L181,20.5z M7.3,59.5c2.2,0.1,4.2-1.1,5.2-3.1h0.1v2.8h3.8V36.7h-3.9v8.8h-0.1c-1-1.9-3-3.1-5.1-3.1
	c-4.2,0-6.9,3.3-6.9,8.5C0.4,56.3,3.1,59.5,7.3,59.5z M8.4,45.6c2.5,0,4.1,2.1,4.1,5.4c0,3.3-1.6,5.4-4.1,5.4
	c-2.5,0-4.1-2.1-4.1-5.4C4.4,47.7,5.9,45.6,8.4,45.6L8.4,45.6z M26.9,45.4c2.2,0,3.7,1.6,3.8,4H23C23.1,47.1,24.7,45.4,26.9,45.4
	L26.9,45.4z M30.7,54.3c-0.4,1.4-1.8,2.3-3.6,2.3c-2.5,0-4.2-1.8-4.2-4.4v-0.2h11.6v-1.3c0-5-2.9-8.3-7.6-8.3
	c-4.8,0-7.8,3.5-7.8,8.7c0,5.3,3,8.5,8,8.5c3.9,0,6.8-2.2,7.3-5.3H30.7L30.7,54.3z M44.8,38.8v3.9h-2.4v3h2.4v9.2
	c0,3.2,1.4,4.5,5,4.5c0.7,0,1.4,0,2-0.2v-3c-0.4,0.1-0.7,0.1-1.1,0.1c-1.4,0-2-0.6-2-2v-8.6h3.1v-3h-3.1v-3.9H44.8L44.8,38.8z
	 M61.6,59.6c4.9,0,8-3.2,8-8.6c0-5.4-3.2-8.6-8-8.6s-8,3.3-8,8.6C53.6,56.4,56.7,59.6,61.6,59.6L61.6,59.6z M61.6,56.5
	c-2.5,0-4.1-2-4.1-5.5c0-3.5,1.6-5.5,4.1-5.5c2.5,0,4.1,2,4.1,5.5C65.6,54.5,64,56.5,61.6,56.5L61.6,56.5z M78.4,59.5
	c2.2,0.1,4.2-1.1,5.2-3.1h0.1v2.8h3.8V36.7h-3.9v8.8h-0.1c-1-1.9-3-3.1-5.1-3.1c-4.2,0-6.9,3.3-6.9,8.5
	C71.5,56.3,74.2,59.5,78.4,59.5L78.4,59.5z M79.6,45.6c2.5,0,4.1,2.1,4.1,5.4c0,3.3-1.6,5.4-4.1,5.4c-2.5,0-4.1-2.1-4.1-5.4
	C75.5,47.7,77.1,45.6,79.6,45.6L79.6,45.6z M98.2,59.6c4.9,0,8-3.2,8-8.6c0-5.4-3.2-8.6-8-8.6s-8,3.3-8,8.6
	C90.2,56.4,93.4,59.6,98.2,59.6L98.2,59.6z M98.2,56.5c-2.5,0-4.1-2-4.1-5.5c0-3.5,1.6-5.5,4.1-5.5c2.5,0,4.1,2,4.1,5.5
	C102.3,54.5,100.7,56.5,98.2,56.5L98.2,56.5z M108.6,47.5c0,2.5,1.6,4,4.8,4.7l2.8,0.6c1.7,0.4,2.3,1,2.3,2c0,1.2-1.2,2-3.1,2
	c-2,0-3.1-0.8-3.4-2.4h-3.8c0.3,3.2,2.9,5.3,7.2,5.3c4.1,0,6.9-2.1,6.9-5.2c0-2.4-1.3-3.7-4.8-4.5l-2.8-0.6c-1.7-0.4-2.4-1-2.4-2
	c0-1.2,1.1-2,2.9-2c1.8,0,2.9,1,3.1,2.5h3.6c-0.1-3.1-2.7-5.3-6.7-5.3C111.2,42.4,108.6,44.4,108.6,47.5L108.6,47.5z M131.6,59.3
	h3.9V36.7h-3.9V59.3z M146.2,59.6c4.9,0,8-3.2,8-8.6c0-5.4-3.2-8.6-8-8.6s-8,3.3-8,8.6C138.2,56.4,141.4,59.6,146.2,59.6L146.2,59.6
	z M146.2,56.5c-2.5,0-4.1-2-4.1-5.5c0-3.5,1.6-5.5,4.1-5.5c2.5,0,4.1,2,4.1,5.5C150.3,54.5,148.7,56.5,146.2,56.5L146.2,56.5z
	 M156.6,47.5c0,2.5,1.6,4,4.8,4.7l2.8,0.6c1.7,0.4,2.3,1,2.3,2c0,1.2-1.2,2-3.1,2c-2,0-3.1-0.8-3.4-2.4h-3.8
	c0.3,3.2,2.9,5.3,7.2,5.3c4.1,0,6.9-2.1,6.9-5.2c0-2.4-1.3-3.7-4.8-4.5l-2.8-0.6c-1.7-0.4-2.4-1-2.4-2c0-1.2,1.1-2,2.9-2
	c1.8,0,2.9,1,3.1,2.5h3.6c-0.1-3.1-2.7-5.3-6.7-5.3C159.2,42.4,156.6,44.4,156.6,47.5z M185.6,59.5c2.2,0.1,4.2-1.1,5.2-3.1h0.1v2.8
	h3.8V36.7h-3.9v8.8h-0.1c-1-1.9-3-3.1-5.1-3.1c-4.2,0-6.9,3.3-6.9,8.5C178.7,56.3,181.4,59.5,185.6,59.5L185.6,59.5z M186.8,45.6
	c2.5,0,4.1,2.1,4.1,5.4c0,3.3-1.6,5.4-4.1,5.4c-2.5,0-4.1-2.1-4.1-5.4C182.7,47.7,184.3,45.6,186.8,45.6L186.8,45.6z M198.2,59.3
	h3.9V42.7h-3.9L198.2,59.3L198.2,59.3z M201.5,40.4l3.7-4.8h-3.7l-2.7,4.8H201.5z M211.6,56.6c-1.7,0-2.8-0.9-2.8-2.2
	c0-1.3,1.1-2.2,3-2.3l3.8-0.2v1.3C215.5,55.1,213.8,56.6,211.6,56.6L211.6,56.6z M210.4,59.5c2.1,0,4.1-1.1,5.2-2.9h0.1v2.6h3.8
	V47.9c0-3.3-2.7-5.5-6.8-5.5c-4.2,0-6.9,2.2-7,5.3h3.6c0.2-1.4,1.4-2.3,3.3-2.3c1.9,0,3.1,1,3.1,2.7v1.2l-4.4,0.2
	c-4,0.2-6.3,2-6.3,5C204.8,57.5,207.2,59.5,210.4,59.5L210.4,59.5z M222.3,47.5c0,2.5,1.6,4,4.8,4.7l2.8,0.6c1.7,0.4,2.3,1,2.3,2
	c0,1.2-1.2,2-3.1,2c-2,0-3.1-0.8-3.4-2.4h-3.8c0.3,3.2,2.9,5.3,7.2,5.3c4.1,0,6.9-2.1,6.9-5.2c0-2.4-1.3-3.7-4.8-4.5l-2.8-0.6
	c-1.7-0.4-2.4-1-2.4-2c0-1.2,1.1-2,2.9-2c1.8,0,2.9,1,3.1,2.5h3.6c-0.1-3.1-2.7-5.3-6.7-5.3C225,42.4,222.3,44.4,222.3,47.5
	L222.3,47.5z M241.4,59.5c1.2,0,2.2-1,2.2-2.2s-1-2.2-2.2-2.2s-2.2,1-2.2,2.2C239.1,58.4,240.1,59.4,241.4,59.5
	C241.3,59.5,241.3,59.5,241.4,59.5L241.4,59.5z"/>
</svg>
