<?xml version="1.0" encoding="utf-8"?>
<!-- Generator: Adobe Illustrator 21.1.0, SVG Export Plug-In . SVG Version: 6.00 Build 0)  -->
<svg version="1.1" id="Layer_1" xmlns="http://www.w3.org/2000/svg" xmlns:xlink="http://www.w3.org/1999/xlink" x="0px" y="0px"
	 viewBox="0 0 544 32" style="enable-background:new 0 0 544 32;" xml:space="preserve">
<style type="text/css">
	.st0{fill:#111111;}
</style>
<path id="_50_S2_Title_1_medium_1x.svg" class="st0" d="M18.3,25.4H5.1v-8h12.5v-4H5.1V5.7h13.2V1.4H0.1v28.2h18.2V25.4z M22.3,29.6
	h4.9V1.4h-4.9L22.3,29.6L22.3,29.6z M39.5,29.6h4.9V1.4h-4.9V29.6z M56,26.3c-2.1,0-3.5-1.1-3.5-2.8c0-1.6,1.4-2.7,3.7-2.8l4.8-0.3
	v1.6C61,24.4,58.8,26.3,56,26.3L56,26.3z M54.6,29.9c2.7,0,5.3-1.4,6.4-3.6h0.1v3.3h4.7V15.4c0-4.2-3.3-6.9-8.5-6.9
	c-5.3,0-8.6,2.8-8.8,6.6H53c0.3-1.7,1.8-2.8,4.1-2.8c2.4,0,3.9,1.2,3.9,3.4v1.5l-5.5,0.3c-5,0.3-7.9,2.5-7.9,6.2
	C47.7,27.4,50.6,29.9,54.6,29.9L54.6,29.9z M77.4,29.9c3,0,5.4-1.5,6.5-3.9h0.1v3.5h4.8V1.4H84v11h-0.1c-1.2-2.4-3.7-3.9-6.4-3.8
	c-5.2,0-8.6,4.1-8.6,10.7C68.8,25.8,72.2,29.9,77.4,29.9L77.4,29.9z M78.9,12.6c3.1,0,5.1,2.6,5.1,6.7c0,4.1-2,6.7-5.1,6.7
	c-3.1,0-5.1-2.6-5.1-6.7C73.8,15.2,75.8,12.6,78.9,12.6L78.9,12.6z M102.1,30c6.1,0,10-4,10-10.8c0-6.7-4-10.8-10-10.8
	s-10,4.1-10,10.8C92,26,96,30,102.1,30L102.1,30z M102.1,26.2c-3.1,0-5.1-2.5-5.1-6.9c0-4.4,2-6.9,5.1-6.9c3.1,0,5.1,2.5,5.1,6.9
	C107.1,23.7,105.2,26.2,102.1,26.2L102.1,26.2z M134.8,29.9c5.2,0,8.5-4.1,8.5-10.7S140,8.6,134.8,8.6c-2.7-0.1-5.3,1.4-6.5,3.9
	h-0.1v-11h-4.9v28.2h4.8v-3.5h0.1C129.4,28.5,131.8,29.9,134.8,29.9L134.8,29.9z M133.3,12.6c3.1,0,5.1,2.6,5.1,6.7
	c0,4.1-1.9,6.7-5.1,6.7c-3,0-5.1-2.6-5.1-6.7C128.2,15.2,130.3,12.6,133.3,12.6L133.3,12.6z M155.6,30c6.1,0,10-4,10-10.8
	c0-6.7-4-10.8-10-10.8s-10,4.1-10,10.8C145.6,26,149.6,30,155.6,30L155.6,30z M155.6,26.2c-3.1,0-5.1-2.5-5.1-6.9
	c0-4.4,2-6.9,5.1-6.9c3.1,0,5.1,2.5,5.1,6.9C160.7,23.7,158.7,26.2,155.6,26.2L155.6,26.2z M168.8,29.6h4.9v-12c0-3,1.8-5,4.6-5
	c2.8,0,4.1,1.6,4.1,4.6v12.4h4.9V16.2c0-4.8-2.6-7.7-7.2-7.7c-3.2,0-5.4,1.5-6.5,3.9h-0.1V8.9h-4.7L168.8,29.6L168.8,29.6z
	 M191.2,29.6h4.9V8.9h-4.9V29.6z M193.6,5.8c1.5,0,2.6-1.2,2.6-2.7c0-1.5-1.2-2.6-2.7-2.6c-1.5,0-2.6,1.2-2.6,2.6
	C191,4.6,192.2,5.8,193.6,5.8C193.6,5.8,193.6,5.8,193.6,5.8L193.6,5.8z M201.5,4.1v4.8h-3v3.8h3v11.4c0,4,1.8,5.6,6.2,5.6
	c0.8,0,1.7,0,2.5-0.2v-3.7c-0.5,0.1-0.9,0.1-1.4,0.1c-1.7,0-2.5-0.8-2.5-2.5V12.7h3.9V8.9h-3.9V4.1H201.5z M222.4,30
	c6.1,0,10-4,10-10.8c0-6.7-4-10.8-10-10.8s-10,4.1-10,10.8C212.3,26,216.3,30,222.4,30L222.4,30z M222.4,26.2
	c-3.1,0-5.1-2.5-5.1-6.9c0-4.4,2-6.9,5.1-6.9c3.1,0,5.1,2.5,5.1,6.9C227.4,23.7,225.4,26.2,222.4,26.2L222.4,26.2z M251.2,29.9
	c3,0,5.4-1.5,6.5-3.9h0.1v3.5h4.8V1.4h-4.9v11h-0.1c-1.2-2.4-3.7-3.9-6.4-3.8c-5.2,0-8.6,4.1-8.6,10.7
	C242.7,25.8,246,29.9,251.2,29.9L251.2,29.9z M252.7,12.6c3.1,0,5.1,2.6,5.1,6.7c0,4.1-2,6.7-5.1,6.7c-3.1,0-5.1-2.6-5.1-6.7
	C247.6,15.2,249.6,12.6,252.7,12.6L252.7,12.6z M275.6,12.3c2.8,0,4.7,2.1,4.8,5h-9.7C270.9,14.3,272.9,12.2,275.6,12.3L275.6,12.3z
	 M280.4,23.4c-0.5,1.7-2.2,2.9-4.5,2.9c-3.2,0-5.2-2.2-5.2-5.6v-0.3h14.5v-1.6c0-6.3-3.7-10.4-9.5-10.4c-6,0-9.8,4.3-9.8,10.9
	c0,6.6,3.8,10.7,10,10.7c4.9,0,8.5-2.7,9.2-6.6H280.4L280.4,23.4z M297.7,4.1v4.8h-3v3.8h3v11.4c0,4,1.8,5.6,6.2,5.6
	c0.8,0,1.7,0,2.5-0.2v-3.7c-0.5,0.1-0.9,0.1-1.4,0.1c-1.7,0-2.5-0.8-2.5-2.5V12.7h3.9V8.9h-3.9V4.1H297.7z M318.5,30
	c6.1,0,10-4,10-10.8c0-6.7-4-10.8-10-10.8s-10,4.1-10,10.8C308.5,26,312.4,30,318.5,30L318.5,30z M318.5,26.2
	c-3.1,0-5.1-2.5-5.1-6.9c0-4.4,2-6.9,5.1-6.9c3.1,0,5.1,2.5,5.1,6.9C323.6,23.7,321.6,26.2,318.5,26.2L318.5,26.2z M339.4,29.9
	c3,0,5.4-1.5,6.5-3.9h0.1v3.5h4.8V1.4h-4.9v11h-0.1c-1.2-2.4-3.7-3.9-6.4-3.8c-5.2,0-8.6,4.1-8.6,10.7
	C330.8,25.8,334.2,29.9,339.4,29.9L339.4,29.9z M340.8,12.6c3.1,0,5.1,2.6,5.1,6.7c0,4.1-2,6.7-5.1,6.7c-3.1,0-5.1-2.6-5.1-6.7
	C335.8,15.2,337.7,12.6,340.8,12.6L340.8,12.6z M364,30c6.1,0,10-4,10-10.8c0-6.7-4-10.8-10-10.8s-10,4.1-10,10.8
	C354,26,357.9,30,364,30L364,30z M364,26.2c-3.1,0-5.1-2.5-5.1-6.9c0-4.4,2-6.9,5.1-6.9c3.1,0,5.1,2.5,5.1,6.9
	C369.1,23.7,367.1,26.2,364,26.2L364,26.2z M376.8,14.9c0,3.1,2,5,6,5.9l3.4,0.8c2.2,0.5,2.9,1.2,2.9,2.4c0,1.5-1.5,2.5-3.8,2.5
	c-2.5,0-3.8-1-4.2-3h-4.8c0.4,4,3.6,6.6,9,6.6c5.1,0,8.7-2.6,8.7-6.5c0-3-1.7-4.7-6-5.6l-3.4-0.8c-2.2-0.5-3-1.3-3-2.5
	c0-1.5,1.4-2.5,3.6-2.5c2.2,0,3.6,1.2,3.8,3.1h4.5c-0.1-3.9-3.3-6.6-8.4-6.6C380.1,8.5,376.8,11.1,376.8,14.9L376.8,14.9z
	 M405.2,29.6h4.9V1.4h-4.9V29.6L405.2,29.6z M423.3,30c6.1,0,10-4,10-10.8c0-6.7-4-10.8-10-10.8s-10,4.1-10,10.8
	C413.3,26,417.3,30,423.3,30L423.3,30z M423.3,26.2c-3.1,0-5.1-2.5-5.1-6.9c0-4.4,2-6.9,5.1-6.9c3.1,0,5.1,2.5,5.1,6.9
	C428.4,23.7,426.4,26.2,423.3,26.2L423.3,26.2z M436.1,14.9c0,3.1,2,5,6,5.9l3.4,0.8c2.2,0.5,2.9,1.2,2.9,2.4c0,1.5-1.5,2.5-3.8,2.5
	c-2.5,0-3.8-1-4.2-3h-4.8c0.4,4,3.6,6.6,9,6.6c5.1,0,8.7-2.6,8.7-6.5c0-3-1.7-4.7-6-5.6l-3.4-0.8c-2.2-0.5-3-1.3-3-2.5
	c0-1.5,1.4-2.5,3.6-2.5c2.2,0,3.6,1.2,3.8,3.1h4.5c-0.1-3.9-3.3-6.6-8.4-6.6C439.4,8.5,436.1,11.1,436.1,14.9L436.1,14.9z
	 M472.1,29.9c3,0,5.4-1.5,6.5-3.9h0.1v3.5h4.8V1.4h-4.9v11h-0.1c-1.2-2.4-3.7-3.9-6.4-3.8c-5.2,0-8.6,4.1-8.6,10.7
	C463.5,25.8,466.9,29.9,472.1,29.9L472.1,29.9z M473.6,12.6c3.1,0,5.1,2.6,5.1,6.7c0,4.1-2,6.7-5.1,6.7c-3.1,0-5.1-2.6-5.1-6.7
	C468.5,15.2,470.4,12.6,473.6,12.6L473.6,12.6z M487.7,29.6h4.9V8.9h-4.9V29.6z M491.8,6l4.6-6h-4.6l-3.4,6H491.8z M504.2,26.3
	c-2.1,0-3.5-1.1-3.5-2.8c0-1.6,1.3-2.7,3.7-2.8l4.8-0.3v1.6C509.2,24.4,507,26.3,504.2,26.3L504.2,26.3z M502.7,29.9
	c2.7,0,5.3-1.4,6.4-3.6h0.1v3.3h4.7V15.4c0-4.2-3.3-6.9-8.5-6.9c-5.3,0-8.6,2.8-8.8,6.6h4.5c0.3-1.7,1.8-2.8,4.1-2.8
	c2.4,0,3.9,1.2,3.9,3.4v1.5l-5.5,0.3c-5,0.3-7.9,2.5-7.9,6.2C495.8,27.4,498.7,29.9,502.7,29.9L502.7,29.9z M517.5,14.9
	c0,3.1,2,5,6,5.9l3.4,0.8c2.2,0.5,2.9,1.2,2.9,2.4c0,1.5-1.5,2.5-3.8,2.5c-2.5,0-3.8-1-4.2-3H517c0.4,4,3.6,6.6,9,6.6
	c5.1,0,8.7-2.6,8.7-6.5c0-3-1.7-4.7-6-5.6l-3.4-0.8c-2.2-0.5-3-1.3-3-2.5c0-1.5,1.4-2.5,3.6-2.5c2.2,0,3.6,1.2,3.8,3.1h4.5
	c-0.1-3.9-3.3-6.6-8.4-6.6C520.8,8.5,517.5,11.1,517.5,14.9L517.5,14.9z M541.2,29.8c1.6,0,2.8-1.3,2.8-2.8c0-1.6-1.3-2.8-2.8-2.8
	c-1.6,0-2.8,1.3-2.8,2.8C538.3,28.5,539.5,29.8,541.2,29.8C541.1,29.8,541.1,29.8,541.2,29.8L541.2,29.8z"/>
</svg>
