<?xml version="1.0" encoding="utf-8"?>
<!-- Generator: Adobe Illustrator 21.1.0, SVG Export Plug-In . SVG Version: 6.00 Build 0)  -->
<svg version="1.1" id="Layer_1" xmlns="http://www.w3.org/2000/svg" xmlns:xlink="http://www.w3.org/1999/xlink" x="0px" y="0px"
	 viewBox="0 0 76 16" style="enable-background:new 0 0 76 16;" xml:space="preserve">
<style type="text/css">
	.st0{fill:#666666;}
</style>
<path id="_50_S3_Sub_1_medium_1x.svg" class="st0" d="M8.8,15.8c3.5,0,5.9-1.9,6.4-5.1h-2.6c-0.4,1.8-1.8,2.8-3.8,2.8
	c-2.6,0-4.2-2.1-4.2-5.4c0-3.3,1.6-5.4,4.2-5.4c1.8-0.1,3.5,1.3,3.8,3.1h2.6c-0.3-3.2-2.9-5.3-6.4-5.3c-4.2,0-6.9,2.9-6.9,7.6
	C1.9,12.9,4.6,15.8,8.8,15.8z M21.1,13.8c-1.1,0-1.8-0.6-1.8-1.5c0-0.9,0.7-1.4,1.9-1.5l2.5-0.2v0.8C23.7,12.8,22.5,13.8,21.1,13.8
	L21.1,13.8z M20.3,15.7c1.4,0,2.7-0.7,3.4-1.9h0.1v1.7h2.5V8.1c0-2.2-1.8-3.6-4.4-3.6c-2.8,0-4.5,1.5-4.6,3.5h2.4
	c0.2-0.9,0.9-1.5,2.1-1.5c1.3,0,2,0.7,2,1.8V9l-2.9,0.2c-2.6,0.2-4.1,1.3-4.1,3.2C16.7,14.4,18.2,15.7,20.3,15.7L20.3,15.7z
	 M22.6,3.2L25,0h-2.4l-1.8,3.2H22.6z M28.5,15.5H31V8.9C31,7.7,31.8,6.7,33,6.6c0.1,0,0.1,0,0.2,0c1-0.1,1.9,0.7,1.9,1.7
	c0,0.1,0,0.2,0,0.3v7h2.5V8.8c-0.1-1.1,0.7-2.1,1.9-2.2c0.1,0,0.1,0,0.2,0c1.2,0,1.9,0.8,1.9,2.1v6.8h2.6V8.1c0-2.2-1.4-3.6-3.6-3.6
	c-1.5-0.1-2.8,0.8-3.4,2.2h-0.1c-0.4-1.4-1.6-2.3-3-2.2c-1.4,0-2.6,0.8-3.1,2.1h-0.1V4.7h-2.4L28.5,15.5L28.5,15.5z M50.4,13.8
	c-1.1,0-1.8-0.6-1.8-1.5c0-0.9,0.7-1.4,1.9-1.5l2.5-0.2v0.8C53,12.8,51.8,13.8,50.4,13.8z M49.6,15.7c1.4,0,2.7-0.7,3.4-1.9H53v1.7
	h2.5V8.1c0-2.2-1.8-3.6-4.4-3.6c-2.8,0-4.5,1.5-4.6,3.5h2.4C49,7,49.7,6.5,50.9,6.5c1.3,0,2,0.7,2,1.8V9l-2.9,0.2
	c-2.6,0.2-4.1,1.3-4.1,3.2C46,14.4,47.5,15.7,49.6,15.7L49.6,15.7z M57.8,15.5h2.6V9.2c0-1.5,0.9-2.5,2.3-2.5c0.4,0,0.7,0,1,0.1V4.6
	c-0.3-0.1-0.5-0.1-0.8-0.1c-1.3,0-2.4,0.8-2.6,2.1h-0.1V4.7h-2.4L57.8,15.5L57.8,15.5z M69,13.8c-1.1,0-1.8-0.6-1.8-1.5
	c0-0.9,0.7-1.4,1.9-1.5l2.5-0.2v0.8C71.6,12.8,70.4,13.8,69,13.8z M68.2,15.7c1.4,0,2.7-0.7,3.4-1.9h0v1.7h2.5V8.1
	c0-2.2-1.8-3.6-4.4-3.6c-2.8,0-4.5,1.5-4.6,3.5h2.4c0.2-0.9,0.9-1.5,2.1-1.5c1.3,0,2,0.7,2,1.8V9l-2.9,0.2c-2.6,0.2-4.1,1.3-4.1,3.2
	C64.6,14.4,66.1,15.7,68.2,15.7L68.2,15.7z"/>
</svg>
