<?xml version="1.0" encoding="utf-8"?>
<!-- Generator: Adobe Illustrator 21.1.0, SVG Export Plug-In . SVG Version: 6.00 Build 0)  -->
<svg version="1.1" id="Layer_1" xmlns="http://www.w3.org/2000/svg" xmlns:xlink="http://www.w3.org/1999/xlink" x="0px" y="0px"
	 viewBox="0 0 96 24" style="enable-background:new 0 0 96 24;" xml:space="preserve">
<style type="text/css">
	.st0{fill:#666666;}
</style>
<path id="_50_S3_Sub_1_large_1x.svg" class="st0" d="M9.3,21.1c4.7,0,7.9-2.6,8.5-6.8h-3.5c-0.5,2.4-2.4,3.8-5,3.8
	c-3.4,0-5.6-2.8-5.6-7.2c0-4.4,2.2-7.2,5.6-7.2c2.5-0.1,4.6,1.7,5,4.1h3.5c-0.4-4.2-3.9-7.1-8.5-7.1c-5.6,0-9.2,3.9-9.2,10.2
	C0.2,17.2,3.7,21.1,9.3,21.1z M25.6,18.4c-1.5,0-2.5-0.8-2.5-1.9c0-1.1,0.9-1.9,2.6-2l3.3-0.2v1.1C29.1,17.1,27.6,18.4,25.6,18.4z
	 M24.6,21c1.9,0,3.6-0.9,4.5-2.5h0.1v2.3h3.3v-10c0-2.9-2.3-4.8-5.9-4.8c-3.7,0-6,1.9-6.2,4.6h3.2c0.2-1.2,1.2-2,2.9-2
	c1.7,0,2.7,0.9,2.7,2.4v1l-3.8,0.2c-3.5,0.2-5.5,1.8-5.5,4.3C19.8,19.2,21.8,21,24.6,21z M27.6,4.2L30.8,0h-3.2l-2.4,4.2H27.6z
	 M35.4,20.7h3.4v-8.9c0-1.8,1.2-3,2.8-3c1.6,0,2.6,1,2.6,2.6v9.3h3.3v-9c0-1.7,1.1-2.9,2.8-2.9c1.7,0,2.6,1,2.6,2.8v9.1h3.4v-9.9
	c0-2.9-1.9-4.8-4.7-4.8c-2-0.1-3.8,1.1-4.5,2.9h-0.1C46.4,7,44.9,6,42.9,6C41,5.9,39.4,7,38.7,8.8h-0.1V6.2h-3.3L35.4,20.7
	L35.4,20.7z M64.4,18.4c-1.5,0-2.5-0.8-2.5-1.9c0-1.1,0.9-1.9,2.6-2l3.3-0.2v1.1C67.9,17.1,66.4,18.4,64.4,18.4L64.4,18.4z M63.4,21
	c1.9,0,3.6-0.9,4.5-2.5H68v2.3h3.3v-10c0-2.9-2.3-4.8-5.9-4.8c-3.7,0-6,1.9-6.2,4.6h3.2c0.2-1.2,1.2-2,2.9-2c1.7,0,2.7,0.9,2.7,2.4
	v1l-3.8,0.2c-3.5,0.2-5.5,1.8-5.5,4.3C58.6,19.2,60.6,21,63.4,21L63.4,21z M74.2,20.7h3.4v-8.4c0-2,1.2-3.3,3.1-3.3
	c0.5,0,0.9,0.1,1.4,0.2V6.1C81.7,6,81.4,6,81,6c-1.7,0-3,1-3.5,2.8h-0.1V6.2h-3.3L74.2,20.7L74.2,20.7z M89,18.4
	c-1.5,0-2.5-0.8-2.5-1.9c0-1.1,0.9-1.9,2.6-2l3.3-0.2v1.1C92.5,17.1,90.9,18.4,89,18.4L89,18.4z M88,21c1.9,0,3.6-0.9,4.5-2.5h0.1
	v2.3h3.3v-10c0-2.9-2.3-4.8-5.9-4.8c-3.7,0-6,1.9-6.2,4.6h3.2c0.2-1.2,1.2-2,2.9-2c1.7,0,2.7,0.9,2.7,2.4v1l-3.8,0.2
	c-3.5,0.2-5.5,1.8-5.5,4.3C83.1,19.2,85.2,21,88,21L88,21z"/>
</svg>
