<?xml version="1.0" encoding="utf-8"?>
<!-- Generator: Adobe Illustrator 21.1.0, SVG Export Plug-In . SVG Version: 6.00 Build 0)  -->
<svg version="1.1" id="Layer_1" xmlns="http://www.w3.org/2000/svg" xmlns:xlink="http://www.w3.org/1999/xlink" x="0px" y="0px"
	 viewBox="0 0 232 76" style="enable-background:new 0 0 232 76;" xml:space="preserve">
<style type="text/css">
	.st0{fill:#111111;}
</style>
<path id="_50_S3_Title_2_medium_1x.svg" class="st0" d="M1.8,1.4v28.2h5v-9.3h5.7c5.7,0,9.7-3.8,9.7-9.4s-3.9-9.4-9.5-9.4H1.8z
	 M6.8,5.5h4.6c3.6,0,5.7,1.9,5.7,5.3c0,3.4-2.1,5.4-5.7,5.4H6.8L6.8,5.5L6.8,5.5z M31.5,26.3c-2.1,0-3.5-1.1-3.5-2.8
	c0-1.6,1.4-2.7,3.7-2.9l4.8-0.3v1.6C36.4,24.4,34.2,26.3,31.5,26.3L31.5,26.3z M30,29.9c2.7,0,5.3-1.4,6.4-3.6h0.1v3.3h4.7V15.3
	c0-4.2-3.3-6.9-8.5-6.9c-5.3,0-8.6,2.8-8.8,6.6h4.5c0.3-1.7,1.8-2.8,4.1-2.8c2.4,0,3.9,1.2,3.9,3.4v1.5L31,17.5
	c-5,0.3-7.9,2.5-7.9,6.2C23.1,27.4,26,29.9,30,29.9L30,29.9z M44.8,14.8c0,3.1,2,5,6,5.9l3.4,0.8c2.2,0.5,2.9,1.2,2.9,2.4
	c0,1.5-1.5,2.5-3.8,2.5c-2.5,0-3.8-1-4.2-3h-4.8c0.4,4,3.6,6.6,9,6.6c5.1,0,8.7-2.6,8.7-6.5c0-3-1.7-4.7-6-5.6l-3.4-0.8
	c-2.2-0.5-3-1.3-3-2.5c0-1.5,1.4-2.5,3.6-2.5c2.2,0,3.6,1.2,3.8,3.1h4.5c-0.1-3.9-3.3-6.6-8.4-6.6C48.1,8.5,44.8,11,44.8,14.8z
	 M72.6,26.3c-2.1,0-3.5-1.1-3.5-2.8c0-1.6,1.3-2.7,3.7-2.9l4.8-0.3v1.6C77.6,24.4,75.4,26.3,72.6,26.3L72.6,26.3z M71.1,29.9
	c2.7,0,5.3-1.4,6.4-3.6h0.1v3.3h4.7V15.3c0-4.2-3.3-6.9-8.5-6.9c-5.3,0-8.6,2.8-8.8,6.6h4.5c0.3-1.7,1.8-2.8,4.1-2.8
	c2.4,0,3.9,1.2,3.9,3.4v1.5l-5.5,0.3c-5,0.3-7.9,2.5-7.9,6.2C64.2,27.4,67.1,29.9,71.1,29.9L71.1,29.9z M95.6,4.1v4.8h-3v3.8h3v11.4
	c0,4,1.8,5.6,6.2,5.6c0.8,0,1.7-0.1,2.5-0.2v-3.7c-0.5,0.1-0.9,0.1-1.4,0.1c-1.7,0-2.5-0.8-2.5-2.5V12.7h3.9V8.9h-3.9V4.1H95.6
	L95.6,4.1z M126.1,8.9h-4.9v12c0,3-1.7,5-4.5,5c-2.7,0-4.2-1.6-4.2-4.6V8.9h-4.9v13.4c0,4.8,2.9,7.7,7.3,7.7c3.1,0,5.2-1.4,6.3-4
	h0.1v3.6h4.7L126.1,8.9L126.1,8.9z M156.3,8.9h-5.1l-4.8,16.2h-0.1l-4.8-16.2h-5.2l7.3,20.7h5.4L156.3,8.9z M158.6,29.6h4.9V8.9
	h-4.9V29.6z M162.7,6l4.6-6h-4.6l-3.4,6H162.7L162.7,6z M175.3,29.9c3,0,5.4-1.5,6.5-3.9h0.1v3.5h4.8V1.4h-4.9v11h-0.1
	c-1.2-2.4-3.7-3.9-6.4-3.8c-5.2,0-8.6,4.1-8.6,10.7C166.7,25.8,170.1,29.9,175.3,29.9L175.3,29.9z M176.7,12.6
	c3.1,0,5.1,2.6,5.1,6.7c0,4.1-2,6.7-5.1,6.7c-3.1,0-5.1-2.6-5.1-6.7C171.7,15.2,173.6,12.6,176.7,12.6L176.7,12.6z M199.7,12.2
	c2.8,0,4.7,2.1,4.8,5h-9.7C195,14.3,196.9,12.2,199.7,12.2L199.7,12.2z M204.5,23.4c-0.5,1.7-2.2,2.9-4.5,2.9
	c-3.2,0-5.2-2.2-5.2-5.5v-0.3h14.5v-1.6c0-6.3-3.7-10.4-9.5-10.4c-6,0-9.8,4.3-9.8,10.9c0,6.6,3.8,10.7,10,10.7
	c4.9,0,8.5-2.7,9.2-6.6H204.5L204.5,23.4z M221.5,30c6.1,0,10-4,10-10.8c0-6.7-4-10.8-10-10.8s-10,4.1-10,10.8
	C211.5,26,215.4,30,221.5,30L221.5,30z M221.5,26.2c-3.1,0-5.1-2.5-5.1-6.9c0-4.4,2-6.9,5.1-6.9c3.1,0,5.1,2.5,5.1,6.9
	C226.6,23.7,224.6,26.2,221.5,26.2L221.5,26.2z M8.9,70.3c-2.1,0-3.5-1.1-3.5-2.8c0-1.6,1.3-2.7,3.7-2.9l4.8-0.3v1.6
	C13.8,68.4,11.6,70.3,8.9,70.3z M7.4,73.9c2.7,0,5.3-1.4,6.4-3.6h0.1v3.3h4.7V59.3c0-4.2-3.3-6.9-8.5-6.9c-5.3,0-8.6,2.8-8.8,6.6
	h4.5c0.3-1.7,1.8-2.8,4.1-2.8c2.4,0,3.9,1.2,3.9,3.4v1.5l-5.5,0.3c-5,0.3-7.9,2.5-7.9,6.2C0.5,71.4,3.4,73.9,7.4,73.9z M39.7,74
	c6.1,0,10-4,10-10.8c0-6.7-4-10.8-10-10.8s-10,4.1-10,10.8C29.7,70,33.6,74,39.7,74z M39.7,70.2c-3.1,0-5.1-2.5-5.1-6.9
	c0-4.4,2-6.9,5.1-6.9c3.1,0,5.1,2.5,5.1,6.9C44.8,67.7,42.8,70.2,39.7,70.2z M54.2,48.1v4.8h-3v3.8h3v11.4c0,4,1.8,5.6,6.2,5.6
	c0.8,0,1.7-0.1,2.5-0.2v-3.7c-0.5,0.1-0.9,0.1-1.4,0.1c-1.7,0-2.5-0.8-2.5-2.5V56.6H63v-3.8h-3.9v-4.8H54.2z M66.3,73.6h4.9V61.5
	c0-2.9,1.7-4.7,4.4-4.7c0.7,0,1.3,0.1,2,0.3v-4.4c-0.5-0.1-1-0.2-1.5-0.2c-2.4,0-4.3,1.4-5,4h-0.1v-3.6h-4.7L66.3,73.6L66.3,73.6z
	 M88.4,74c6.1,0,10-4,10-10.8c0-6.7-4-10.8-10-10.8s-10,4.1-10,10.8C78.4,70,82.3,74,88.4,74L88.4,74z M88.4,70.2
	c-3.1,0-5.1-2.5-5.1-6.9c0-4.4,2-6.9,5.1-6.9c3.1,0,5.1,2.5,5.1,6.9C93.5,67.7,91.5,70.2,88.4,70.2L88.4,70.2z M109.5,73.6h4.9v-12
	c0-3,1.8-5,4.6-5c2.8,0,4.1,1.6,4.1,4.6v12.4h4.9V60.2c0-4.8-2.6-7.7-7.2-7.7c-3.2,0-5.4,1.5-6.5,3.9h-0.1v-3.6h-4.7L109.5,73.6
	L109.5,73.6z M132,73.6h4.9V52.9H132V73.6z M134.4,49.8c1.5,0,2.6-1.2,2.6-2.7c0-1.5-1.2-2.6-2.7-2.6c-1.4,0-2.6,1.2-2.6,2.6
	C131.7,48.6,132.9,49.8,134.4,49.8L134.4,49.8z M159.2,52.9h-5.1l-4.8,16.2h-0.1l-4.8-16.2h-5.2l7.3,20.7h5.4L159.2,52.9z
	 M169.7,56.2c2.8,0,4.7,2.1,4.8,5h-9.7C165,58.3,167,56.2,169.7,56.2L169.7,56.2z M174.5,67.4c-0.5,1.7-2.2,2.9-4.5,2.9
	c-3.2,0-5.2-2.2-5.2-5.5v-0.3h14.5v-1.6c0-6.3-3.7-10.4-9.5-10.4c-6,0-9.8,4.3-9.8,10.9c0,6.6,3.8,10.7,10,10.7
	c4.9,0,8.5-2.7,9.2-6.6H174.5L174.5,67.4z M182.5,73.6h4.9V45.4h-4.9V73.6z M194.9,73.8c1.6,0,2.8-1.3,2.8-2.8s-1.3-2.8-2.8-2.8
	c-1.6,0-2.8,1.3-2.8,2.8c0,0,0,0,0,0C192.1,72.5,193.3,73.8,194.9,73.8C194.9,73.8,194.9,73.8,194.9,73.8L194.9,73.8z"/>
</svg>
