<?xml version="1.0" encoding="utf-8"?>
<!-- Generator: Adobe Illustrator 21.1.0, SVG Export Plug-In . SVG Version: 6.00 Build 0)  -->
<svg version="1.1" id="Layer_1" xmlns="http://www.w3.org/2000/svg" xmlns:xlink="http://www.w3.org/1999/xlink" x="0px" y="0px"
	 viewBox="0 0 288 68" style="enable-background:new 0 0 288 68;" xml:space="preserve">
<style type="text/css">
	.st0{fill:#111111;}
</style>
<path id="_50_S3_Title_1_small_1x.svg" class="st0" d="M12,23.7V4.6h6.7V1.1H1.2v3.4H8v19.1H12z M33.3,7.1h-3.9v9.6
	c0,2.4-1.4,4-3.6,4c-2.2,0-3.3-1.3-3.3-3.7V7.1h-3.9v10.7c0,3.8,2.3,6.2,5.9,6.2c2.5,0,4.2-1.2,5.1-3.2h0.1v2.9h3.8V7.1z M36.3,11.9
	c0,2.5,1.6,4,4.8,4.7l2.8,0.6c1.7,0.4,2.3,1,2.3,2c0,1.2-1.2,2-3.1,2c-2,0-3.1-0.8-3.4-2.4h-3.8c0.3,3.2,2.9,5.3,7.2,5.3
	c4.1,0,6.9-2.1,6.9-5.2c0-2.4-1.3-3.7-4.8-4.5l-2.8-0.6c-1.7-0.4-2.4-1.1-2.4-2c0-1.2,1.1-2,2.9-2c1.8,0,2.9,0.9,3.1,2.4h3.6
	C49.6,9,47,6.8,43,6.8C39,6.8,36.3,8.8,36.3,11.9L36.3,11.9z M60.3,23.7h3.9V10.1h3.2V7.2h-3.3V5.8c0-1.3,0.7-2,2.2-2
	c0.4,0,0.8,0,1.2,0.1V1.2C66.8,1,66.1,1,65.4,1c-3.6,0-5.1,1.5-5.1,4.7v1.5H58v2.9h2.3L60.3,23.7L60.3,23.7z M76.9,24
	c4.9,0,8-3.2,8-8.6c0-5.4-3.2-8.6-8-8.6s-8,3.3-8,8.6C68.8,20.8,72,24,76.9,24L76.9,24z M76.9,20.9c-2.5,0-4.1-2-4.1-5.5
	c0-3.5,1.6-5.5,4.1-5.5c2.5,0,4.1,2,4.1,5.5C80.9,18.9,79.3,20.9,76.9,20.9L76.9,20.9z M88.6,3.3v3.9h-2.4v3h2.4v9.2
	c0,3.2,1.4,4.5,5,4.5c0.7,0,1.4,0,2-0.2v-3c-0.4,0.1-0.7,0.1-1.1,0.1c-1.4,0-2-0.6-2-2v-8.6h3.1v-3h-3.1V3.3H88.6z M105.4,24
	c4.9,0,8-3.2,8-8.6c0-5.4-3.2-8.6-8-8.6s-8,3.3-8,8.6C97.4,20.8,100.5,24,105.4,24L105.4,24z M105.4,20.9c-2.5,0-4.1-2-4.1-5.5
	c0-3.5,1.6-5.5,4.1-5.5c2.5,0,4.1,2,4.1,5.5C109.4,18.9,107.8,20.9,105.4,20.9L105.4,20.9z M115.7,11.9c0,2.5,1.6,4,4.8,4.7l2.8,0.6
	c1.7,0.4,2.3,1,2.3,2c0,1.2-1.2,2-3.1,2c-2,0-3.1-0.8-3.4-2.4h-3.8c0.3,3.2,2.9,5.3,7.2,5.3c4.1,0,6.9-2.1,6.9-5.2
	c0-2.4-1.3-3.7-4.8-4.5l-2.8-0.6c-1.7-0.4-2.4-1.1-2.4-2c0-1.2,1.1-2,2.9-2c1.8,0,2.9,0.9,3.1,2.4h3.6c-0.1-3.1-2.7-5.3-6.7-5.3
	C118.4,6.8,115.7,8.8,115.7,11.9L115.7,11.9z M138.6,23.7h3.9V13.6c0-2,1.3-3.5,3.2-3.5c1.8,0,2.9,1.1,2.9,3v10.6h3.8V13.5
	c0-2,1.3-3.4,3.2-3.4c1.9,0,3,1.2,3,3.2v10.4h3.9V12.3c0-3.3-2.1-5.5-5.4-5.5c-2.2-0.1-4.3,1.2-5.2,3.3h-0.1
	c-0.6-2.1-2.3-3.3-4.6-3.3c-2.1-0.1-4,1.2-4.7,3.2h-0.1V7.1h-3.7L138.6,23.7L138.6,23.7z M172.8,9.8c2.2,0,3.7,1.6,3.8,4h-7.7
	C169,11.5,170.6,9.8,172.8,9.8L172.8,9.8z M176.6,18.7c-0.4,1.4-1.8,2.3-3.6,2.3c-2.5,0-4.2-1.8-4.2-4.4v-0.2h11.6v-1.3
	c0-5-2.9-8.3-7.6-8.3c-4.8,0-7.8,3.4-7.8,8.7c0,5.3,3,8.6,8,8.6c3.9,0,6.8-2.2,7.3-5.3L176.6,18.7L176.6,18.7z M187,7.1h-3.9v17.3
	c0,1.5-0.6,2.1-2.2,2.1c-0.2,0-0.3,0-0.5,0v3c0.1,0,0.7,0,1,0c3.8,0,5.7-1.7,5.7-5L187,7.1L187,7.1z M185,4.6c1.2,0,2.1-1,2.1-2.1
	c0-1.2-1-2.1-2.1-2.1c-1.2,0-2.1,1-2.1,2.1C182.9,3.7,183.9,4.6,185,4.6L185,4.6z M197.7,24c4.9,0,8-3.2,8-8.6c0-5.4-3.2-8.6-8-8.6
	s-8,3.3-8,8.6C189.7,20.8,192.9,24,197.7,24L197.7,24z M197.7,20.9c-2.5,0-4.1-2-4.1-5.5c0-3.5,1.6-5.5,4.1-5.5c2.5,0,4.1,2,4.1,5.5
	C201.8,18.9,200.2,20.9,197.7,20.9L197.7,20.9z M208.4,23.7h3.9v-9.6c0-2.3,1.3-3.8,3.5-3.8c0.5,0,1.1,0.1,1.6,0.2V7
	c-0.4-0.1-0.8-0.1-1.2-0.2c-2,0-3.4,1.2-4,3.2h-0.1V7.1h-3.7V23.7L208.4,23.7z M225.2,21c-1.7,0-2.8-0.9-2.8-2.2
	c0-1.3,1.1-2.2,3-2.3l3.8-0.2v1.3C229.2,19.6,227.4,21,225.2,21L225.2,21z M224,24c2.1,0,4.1-1.1,5.2-2.9h0.1v2.6h3.8V12.3
	c0-3.3-2.7-5.5-6.8-5.5c-4.2,0-6.9,2.2-7,5.3h3.6c0.2-1.4,1.4-2.3,3.3-2.3c1.9,0,3.1,1,3.1,2.7v1.2l-4.4,0.2c-4,0.2-6.3,2-6.3,5
	C218.5,21.9,220.8,24,224,24L224,24z M236.3,23.7h3.9v-9.6c0-2.3,1.3-3.8,3.5-3.8c0.5,0,1.1,0.1,1.6,0.2V7c-0.4-0.1-0.8-0.1-1.2-0.2
	c-2,0-3.4,1.2-4,3.2H240V7.1h-3.7V23.7L236.3,23.7z M253.1,21c-1.7,0-2.8-0.9-2.8-2.2c0-1.3,1.1-2.2,3-2.3l3.8-0.2v1.3
	C257,19.6,255.3,21,253.1,21z M251.9,24c2.1,0,4.1-1.1,5.2-2.9h0.1v2.6h3.8V12.3c0-3.3-2.7-5.5-6.8-5.5c-4.2,0-6.9,2.2-7,5.3h3.6
	c0.2-1.4,1.4-2.3,3.3-2.3c1.9,0,3.1,1,3.1,2.7v1.2l-4.4,0.2c-4,0.2-6.3,2-6.3,5C246.4,21.9,248.7,24,251.9,24z M255.3,4.8L259,0
	h-3.7l-2.7,4.8H255.3z M264.1,23.7h3.9v-9.6c0-2.4,1.4-4,3.7-4c2.2,0,3.3,1.3,3.3,3.7v9.9h3.9V13c0-3.8-2.1-6.2-5.7-6.2
	c-2.5,0-4.3,1.2-5.2,3.2h-0.1V7.1h-3.7V23.7L264.1,23.7z M284.8,23.9c1.2,0,2.3-1,2.3-2.2s-1-2.2-2.3-2.2s-2.2,1-2.2,2.2l0,0
	C282.6,22.8,283.6,23.8,284.8,23.9C284.8,23.9,284.8,23.9,284.8,23.9z M17.2,59.7h4.2l-8-22.5H8.9l-8,22.5h4.2L7,53.9h8.3L17.2,59.7
	z M11.1,41.1h0.1l3.1,9.6H7.9L11.1,41.1z M23.6,59.7h3.9V49.6c0-2,1.3-3.5,3.2-3.5c1.8,0,2.9,1.1,2.9,3v10.6h3.8V49.5
	c0-2,1.3-3.4,3.2-3.4c1.9,0,3,1.2,3,3.2v10.4h3.9V48.3c0-3.3-2.1-5.5-5.4-5.5c-2.2-0.1-4.3,1.2-5.2,3.3h-0.1
	c-0.6-2.1-2.3-3.3-4.6-3.3c-2.1-0.1-4,1.2-4.7,3.2h-0.1v-2.9h-3.7L23.6,59.7L23.6,59.7z M59.8,42.8c-2.2-0.1-4.3,1.2-5.2,3.1h-0.1
	v-2.9h-3.8v22h3.9v-8.2h0.1c0.9,1.9,2.8,3,5.2,3c4.2,0,6.8-3.3,6.8-8.5C66.6,46.1,64,42.8,59.8,42.8L59.8,42.8z M58.6,56.8
	c-2.4,0-4-2.1-4-5.4c0-3.2,1.6-5.4,4-5.4c2.5,0,4.1,2.1,4.1,5.4C62.6,54.7,61.1,56.8,58.6,56.8L58.6,56.8z M69.4,59.7h3.9V37.2h-3.9
	V59.7z M76.8,59.7h3.9V43.1h-3.9L76.8,59.7L76.8,59.7z M78.7,40.6c1.2,0,2.1-1,2.1-2.1c0-1.2-1-2.1-2.1-2.1c-1.2,0-2.1,1-2.1,2.1
	C76.6,39.7,77.5,40.6,78.7,40.6C78.7,40.6,78.7,40.6,78.7,40.6L78.7,40.6z M90.1,57c-1.7,0-2.8-0.9-2.8-2.2c0-1.3,1.1-2.2,3-2.3
	l3.8-0.2v1.3C94.1,55.6,92.3,57,90.1,57L90.1,57z M88.9,60c2.1,0,4.1-1.1,5.2-2.9h0.1v2.6h3.8V48.3c0-3.3-2.7-5.5-6.8-5.5
	c-4.2,0-6.9,2.2-7,5.3h3.6c0.2-1.4,1.4-2.3,3.3-2.3c1.9,0,3.1,1,3.1,2.7v1.2L89.7,50c-4,0.2-6.3,2-6.3,5C83.4,57.9,85.7,60,88.9,60
	L88.9,60z M101.2,59.7h3.9V49.6c0-2,1.3-3.5,3.2-3.5c1.8,0,2.9,1.1,2.9,3v10.6h3.8V49.5c0-2,1.3-3.4,3.2-3.4c1.9,0,3,1.2,3,3.2v10.4
	h3.9V48.3c0-3.3-2.1-5.5-5.4-5.5c-2.2-0.1-4.3,1.2-5.2,3.3h-0.1c-0.6-2.1-2.3-3.3-4.6-3.3c-2.1-0.1-4,1.2-4.7,3.2h-0.1v-2.9h-3.7
	L101.2,59.7L101.2,59.7z M135.4,45.8c2.2,0,3.7,1.6,3.8,4h-7.7C131.6,47.5,133.2,45.8,135.4,45.8L135.4,45.8z M139.2,54.7
	c-0.4,1.4-1.8,2.3-3.6,2.3c-2.5,0-4.2-1.8-4.2-4.4v-0.2H143v-1.3c0-5-2.9-8.3-7.6-8.3c-4.8,0-7.8,3.4-7.8,8.7c0,5.3,3,8.6,8,8.6
	c3.9,0,6.8-2.2,7.3-5.3L139.2,54.7L139.2,54.7z M145.6,59.7h3.9v-9.6c0-2.4,1.4-4,3.7-4c2.2,0,3.3,1.3,3.3,3.7v9.9h3.9V49
	c0-3.8-2.1-6.2-5.7-6.2c-2.5,0-4.3,1.2-5.2,3.2h-0.1v-2.8h-3.7L145.6,59.7L145.6,59.7z M164.7,39.3v3.9h-2.4v3h2.4v9.2
	c0,3.2,1.4,4.5,5,4.5c0.7,0,1.4,0,2-0.2v-3c-0.4,0.1-0.7,0.1-1.1,0.1c-1.4,0-2-0.6-2-2v-8.6h3.1v-3h-3.1v-3.9L164.7,39.3L164.7,39.3
	z M181.3,45.8c2.2,0,3.7,1.6,3.8,4h-7.7C177.5,47.5,179.1,45.8,181.3,45.8L181.3,45.8z M185.1,54.7c-0.4,1.4-1.8,2.3-3.6,2.3
	c-2.5,0-4.2-1.8-4.2-4.4v-0.2h11.6v-1.3c0-5-2.9-8.3-7.6-8.3c-4.8,0-7.8,3.4-7.8,8.7c0,5.3,3,8.6,8,8.6c3.9,0,6.8-2.2,7.3-5.3
	L185.1,54.7L185.1,54.7z M194.3,59.9c1.2,0,2.2-1,2.2-2.2s-1-2.2-2.2-2.2s-2.2,1-2.2,2.2l0,0C192,58.8,193,59.8,194.3,59.9
	C194.2,59.9,194.3,59.9,194.3,59.9L194.3,59.9z"/>
</svg>
