<?xml version="1.0" encoding="utf-8"?>
<!-- Generator: Adobe Illustrator 21.1.0, SVG Export Plug-In . SVG Version: 6.00 Build 0)  -->
<svg version="1.1" id="Layer_1" xmlns="http://www.w3.org/2000/svg" xmlns:xlink="http://www.w3.org/1999/xlink" x="0px" y="0px"
	 viewBox="0 0 560 128" style="enable-background:new 0 0 560 128;" xml:space="preserve">
<style type="text/css">
	.st0{fill:#111111;}
</style>
<path id="_50_S3_Title_1_large_1x.svg" class="st0" d="M23.9,47.4V9.1h13.5V2.3h-35v6.8h13.5v38.3H23.9z M65.7,14.3h-7.8v19.2
	c0,4.8-2.8,8-7.3,8c-4.4,0-6.7-2.6-6.7-7.3V14.3h-7.8v21.4c0,7.7,4.6,12.3,11.8,12.3c5,0,8.4-2.3,10.1-6.3h0.2v5.8h7.5V14.3z
	 M70.9,23.8c0,4.9,3.2,8,9.5,9.4l5.5,1.2c3.5,0.8,4.7,1.9,4.7,3.9c0,2.5-2.3,4-6.1,4c-3.9,0-6.2-1.6-6.8-4.8h-7.7
	C70.7,43.9,75.8,48,84.5,48c8.1,0,13.9-4.2,13.9-10.5c0-4.8-2.7-7.5-9.5-9l-5.5-1.2c-3.5-0.8-4.8-2.1-4.8-4c0-2.4,2.3-4.1,5.7-4.1
	c3.6,0,5.8,1.9,6.1,4.9h7.2c-0.2-6.3-5.3-10.6-13.4-10.6C76.2,13.6,70.9,17.7,70.9,23.8L70.9,23.8z M117.1,47.4h7.8V20.3h6.5v-5.9
	h-6.6v-2.7c0-2.7,1.3-4.1,4.3-4.1c0.8,0,1.7,0.1,2.5,0.2V2.3c-1.4-0.2-2.8-0.3-4.2-0.3c-7.2,0-10.2,3-10.2,9.5v2.9h-4.5v5.9h4.5
	V47.4z M149.5,48c9.7,0,16-6.5,16-17.2c0-10.7-6.4-17.2-16-17.2s-16,6.6-16,17.2C133.4,41.6,139.7,48,149.5,48L149.5,48z
	 M149.5,41.9c-4.9,0-8.1-4-8.1-11.1c0-7,3.2-11.1,8.1-11.1c4.9,0,8.1,4,8.1,11.1C157.6,37.9,154.4,41.9,149.5,41.9L149.5,41.9z
	 M172.1,6.5v7.8h-4.8v6h4.8v18.3c0,6.4,2.8,9,10,9c1.4,0,2.7-0.1,4-0.3v-5.9c-0.7,0.1-1.5,0.2-2.2,0.2c-2.8,0-4-1.2-4-4V20.3h6.2v-6
	h-6.2V6.5H172.1z M204.8,48c9.7,0,16-6.5,16-17.2c0-10.7-6.4-17.2-16-17.2s-16,6.6-16,17.2C188.8,41.6,195.1,48,204.8,48L204.8,48z
	 M204.8,41.9c-4.9,0-8.1-4-8.1-11.1c0-7,3.2-11.1,8.1-11.1c4.9,0,8.1,4,8.1,11.1C213,37.9,209.8,41.9,204.8,41.9L204.8,41.9z
	 M224.7,23.8c0,4.9,3.2,8,9.5,9.4l5.5,1.2c3.5,0.8,4.7,1.9,4.7,3.9c0,2.5-2.3,4-6.1,4c-3.9,0-6.2-1.6-6.8-4.8h-7.7
	c0.6,6.4,5.8,10.5,14.4,10.5c8.1,0,13.9-4.2,13.9-10.5c0-4.8-2.7-7.5-9.5-9l-5.5-1.2c-3.5-0.8-4.8-2.1-4.8-4c0-2.4,2.3-4.1,5.7-4.1
	c3.6,0,5.8,1.9,6.1,4.9h7.2c-0.2-6.3-5.3-10.6-13.4-10.6C230,13.6,224.7,17.7,224.7,23.8L224.7,23.8z M268.8,47.4h7.8V27.1
	c0-4,2.6-6.9,6.4-6.9c3.6,0,5.9,2.3,5.9,6v21.2h7.6V26.9c0-4,2.6-6.7,6.3-6.7c3.8,0,5.9,2.3,5.9,6.4v20.8h7.8V24.7
	c0-6.6-4.3-11-10.8-11c-4.8,0-8.7,2.6-10.3,6.7h-0.2c-1.2-4.2-4.6-6.7-9.2-6.7c-4.5,0-8,2.5-9.4,6.4h-0.2v-5.8h-7.5V47.4z
	 M336.3,19.6c4.5,0,7.5,3.3,7.6,8h-15.5C328.8,22.9,331.9,19.6,336.3,19.6L336.3,19.6z M344,37.5c-0.8,2.8-3.6,4.6-7.2,4.6
	c-5.1,0-8.3-3.6-8.3-8.9v-0.5h23.2v-2.5c0-10.1-5.9-16.6-15.3-16.6c-9.6,0-15.6,6.9-15.6,17.4c0,10.6,6,17.1,15.9,17.1
	c7.8,0,13.7-4.3,14.7-10.6H344L344,37.5z M364,14.3h-7.8v34.6c0,3.1-1.2,4.2-4.4,4.2c-0.2,0-0.9,0-1,0v5.9c0.3,0,1.5,0.1,1.9,0.1
	c7.5,0,11.3-3.3,11.3-10.1L364,14.3L364,14.3z M360,9.3c2.3,0,4.2-1.9,4.2-4.2c0-2.3-1.9-4.2-4.2-4.2c-2.3,0-4.2,1.9-4.2,4.2
	C355.8,7.4,357.7,9.3,360,9.3L360,9.3z M384.6,48c9.7,0,16-6.5,16-17.2c0-10.7-6.4-17.2-16-17.2s-16,6.6-16,17.2
	C368.5,41.6,374.8,48,384.6,48L384.6,48z M384.6,41.9c-4.9,0-8.1-4-8.1-11.1c0-7,3.2-11.1,8.1-11.1c4.9,0,8.1,4,8.1,11.1
	C392.7,37.9,389.5,41.9,384.6,41.9L384.6,41.9z M405,47.4h7.8V28.1c0-4.7,2.7-7.5,7.1-7.5c1.1,0,2.1,0.1,3.2,0.4v-7
	c-0.8-0.2-1.6-0.3-2.4-0.3c-3.9,0-6.8,2.3-7.9,6.3h-0.2v-5.8H405V47.4z M437.8,42c-3.4,0-5.6-1.7-5.6-4.4c0-2.6,2.2-4.3,5.9-4.6
	l7.7-0.5v2.5C445.8,39.1,442.2,42,437.8,42L437.8,42z M435.5,47.9c4.2,0,8.4-2.2,10.3-5.8h0.2v5.3h7.5V24.6c0-6.7-5.3-11-13.6-11
	c-8.4,0-13.7,4.4-14.1,10.6h7.2c0.5-2.8,2.8-4.5,6.5-4.5c3.8,0,6.2,2,6.2,5.5v2.4L437,28c-8.1,0.5-12.6,4-12.6,9.9
	C424.4,43.9,429.1,47.9,435.5,47.9L435.5,47.9z M459.1,47.4h7.8V28.1c0-4.7,2.7-7.5,7.1-7.5c1.1,0,2.1,0.1,3.2,0.4v-7
	c-0.8-0.2-1.6-0.3-2.4-0.3c-3.9,0-6.8,2.3-7.9,6.3h-0.2v-5.8h-7.5L459.1,47.4L459.1,47.4z M491.9,42c-3.4,0-5.6-1.7-5.6-4.4
	c0-2.6,2.2-4.3,5.9-4.6l7.7-0.5v2.5C499.8,39.1,496.3,42,491.9,42L491.9,42z M489.6,47.9c4.2,0,8.4-2.2,10.3-5.8h0.2v5.3h7.5V24.6
	c0-6.7-5.3-11-13.6-11c-8.4,0-13.7,4.4-14.1,10.6h7.2c0.5-2.8,2.8-4.5,6.5-4.5c3.8,0,6.2,2,6.2,5.5v2.4l-8.8,0.5
	c-8.1,0.5-12.6,4-12.6,9.9C478.5,43.9,483.2,47.9,489.6,47.9L489.6,47.9z M496.4,9.7l7.3-9.7h-7.4l-5.4,9.7H496.4z M513.2,47.4h7.8
	V28.2c0-4.8,2.8-8,7.3-8c4.4,0,6.6,2.6,6.6,7.3v19.8h7.8V26c0-7.7-4.2-12.3-11.5-12.3c-5.1,0-8.6,2.4-10.4,6.3h-0.2v-5.7h-7.5V47.4z
	 M553.8,47.7c2.5,0,4.5-2,4.5-4.5s-2-4.5-4.5-4.5s-4.5,2-4.5,4.5l0,0c0,2.4,1.9,4.5,4.4,4.5C553.7,47.7,553.7,47.7,553.8,47.7
	L553.8,47.7z M34.3,115.4h8.5l-16-45.1h-9.1l-16,45.1H10l3.8-11.7h16.6L34.3,115.4z M22.1,78.3h0.2l6.3,19.2H15.8L22.1,78.3z
	 M46.3,115.4h7.8V95.1c0-4,2.6-6.9,6.4-6.9c3.6,0,5.9,2.3,5.9,6v21.2h7.6V94.9c0-4,2.6-6.7,6.3-6.7c3.8,0,5.9,2.3,5.9,6.4v20.8h7.8
	V92.7c0-6.6-4.3-11-10.8-11c-4.8,0-8.7,2.6-10.3,6.7h-0.2c-1.2-4.2-4.6-6.7-9.2-6.7c-4.5,0-8,2.5-9.4,6.4h-0.2v-5.8h-7.5L46.3,115.4
	L46.3,115.4z M117.7,81.7c-4.8,0-8.6,2.4-10.4,6.3h-0.2v-5.7h-7.6v44h7.8v-16.4h0.2c1.8,3.7,5.6,6,10.4,6c8.3,0,13.6-6.5,13.6-17.1
	C131.5,88.2,126.1,81.7,117.7,81.7L117.7,81.7z M115.4,109.5c-4.8,0-8.1-4.2-8.1-10.7c0-6.4,3.2-10.7,8.1-10.7c5,0,8.2,4.2,8.2,10.7
	C123.5,105.4,120.4,109.5,115.4,109.5L115.4,109.5z M136.1,115.4h7.8V70.3h-7.8V115.4z M150.1,115.4h7.8V82.3h-7.8V115.4z M154,77.3
	c2.3,0,4.2-1.9,4.2-4.2c0-2.3-1.9-4.2-4.2-4.2c-2.3,0-4.2,1.9-4.2,4.2C149.8,75.4,151.7,77.3,154,77.3L154,77.3z M176,110
	c-3.4,0-5.6-1.7-5.6-4.4c0-2.6,2.2-4.3,5.9-4.6l7.7-0.5v2.5C183.9,107.1,180.4,110,176,110L176,110z M173.6,115.9
	c4.2,0,8.4-2.2,10.3-5.8h0.2v5.3h7.5V92.6c0-6.7-5.3-11-13.6-11c-8.4,0-13.7,4.4-14.1,10.6h7.2c0.5-2.8,2.8-4.5,6.5-4.5
	c3.8,0,6.2,2,6.2,5.5v2.4l-8.8,0.5c-8.1,0.5-12.6,4-12.6,9.9C162.6,111.9,167.2,115.9,173.6,115.9L173.6,115.9z M197.3,115.4h7.8
	V95.1c0-4,2.6-6.9,6.4-6.9c3.6,0,5.9,2.3,5.9,6v21.2h7.6V94.9c0-4,2.6-6.7,6.3-6.7c3.8,0,5.9,2.3,5.9,6.4v20.8h7.8V92.7
	c0-6.6-4.3-11-10.8-11c-4.8,0-8.7,2.6-10.3,6.7h-0.2c-1.2-4.2-4.6-6.7-9.2-6.7c-4.5,0-8,2.5-9.4,6.4h-0.2v-5.8h-7.5L197.3,115.4
	L197.3,115.4z M264.8,87.6c4.5,0,7.5,3.3,7.6,8H257C257.3,90.9,260.5,87.6,264.8,87.6z M272.5,105.5c-0.8,2.8-3.6,4.6-7.2,4.6
	c-5.1,0-8.3-3.6-8.3-8.9v-0.5h23.2v-2.5c0-10.1-5.9-16.6-15.3-16.6c-9.6,0-15.6,6.9-15.6,17.4c0,10.6,6,17.1,15.9,17.1
	c7.8,0,13.7-4.3,14.7-10.6H272.5z M284.5,115.4h7.8V96.2c0-4.8,2.8-8,7.3-8c4.4,0,6.6,2.6,6.6,7.3v19.8h7.8V94
	c0-7.7-4.2-12.3-11.5-12.3c-5.1,0-8.6,2.4-10.4,6.3H292v-5.7h-7.5L284.5,115.4L284.5,115.4z M321.8,74.5v7.8h-4.8v6h4.8v18.3
	c0,6.4,2.8,9,10,9c1.4,0,2.7-0.1,4-0.3v-5.9c-0.7,0.1-1.5,0.2-2.2,0.2c-2.8,0-4-1.2-4-4V88.3h6.2v-6h-6.2v-7.8H321.8z M354.2,87.6
	c4.5,0,7.5,3.3,7.6,8h-15.5C346.7,90.9,349.8,87.6,354.2,87.6L354.2,87.6z M361.9,105.5c-0.8,2.8-3.6,4.6-7.2,4.6
	c-5.1,0-8.3-3.6-8.3-8.9v-0.5h23.2v-2.5c0-10.1-5.9-16.6-15.3-16.6c-9.6,0-15.6,6.9-15.6,17.4c0,10.6,6,17.1,15.9,17.1
	c7.8,0,13.7-4.3,14.7-10.6H361.9z M379.3,115.7c2.5,0,4.5-2,4.5-4.5s-2-4.5-4.5-4.5s-4.5,2-4.5,4.5l0,0c0,2.4,1.9,4.5,4.4,4.5
	C379.2,115.7,379.3,115.7,379.3,115.7L379.3,115.7z"/>
</svg>
