<?xml version="1.0" encoding="utf-8"?>
<!-- Generator: Adobe Illustrator 21.1.0, SVG Export Plug-In . SVG Version: 6.00 Build 0)  -->
<svg version="1.1" id="Layer_1" xmlns="http://www.w3.org/2000/svg" xmlns:xlink="http://www.w3.org/1999/xlink" x="0px" y="0px"
	 viewBox="0 0 208 76" style="enable-background:new 0 0 208 76;" xml:space="preserve">
<style type="text/css">
	.st0{fill:#111111;}
</style>
<path id="_50_S3_Title_3_medium_1x.svg" class="st0" d="M20.4,23.9H7.6V0h-5v28.2h17.8V23.9L20.4,23.9z M31.1,24.8
	c-2.1,0-3.5-1.1-3.5-2.8c0-1.6,1.3-2.7,3.7-2.9l4.8-0.3v1.6C36,23,33.8,24.8,31.1,24.8z M29.6,28.5c2.7,0,5.3-1.4,6.4-3.6h0.1v3.3
	h4.7V13.9c0-4.2-3.3-6.9-8.5-6.9c-5.3,0-8.6,2.8-8.8,6.6h4.5c0.3-1.7,1.8-2.8,4.1-2.8c2.4,0,3.9,1.2,3.9,3.4v1.5l-5.5,0.3
	c-5,0.3-7.9,2.5-7.9,6.2C22.7,26,25.6,28.5,29.6,28.5z M52.7,28.2h4.9v-12c0-3,1.8-5,4.6-5c2.8,0,4.1,1.6,4.1,4.6v12.4h4.9V14.8
	c0-4.8-2.6-7.7-7.2-7.7c-3.2,0-5.4,1.5-6.5,3.9h-0.1V7.5h-4.7L52.7,28.2L52.7,28.2z M84.2,28.6c6.1,0,10-4,10-10.8
	c0-6.7-4-10.8-10-10.8s-10,4.1-10,10.8C74.2,24.5,78.1,28.6,84.2,28.6z M84.2,24.7c-3.1,0-5.1-2.5-5.1-6.9c0-4.4,2-6.9,5.1-6.9
	c3.1,0,5.1,2.5,5.1,6.9C89.3,22.2,87.3,24.7,84.2,24.7z M115.6,14.9c-0.3-4.4-3.7-7.8-9.2-7.8c-6,0-9.9,4.2-9.9,10.8
	c0,6.7,3.9,10.8,10,10.8c5.2,0,8.8-3,9.2-7.7H111c-0.5,2.3-2,3.8-4.5,3.8c-3.1,0-5.1-2.5-5.1-6.8c0-4.3,2-6.8,5-6.8
	c2.6,0,4.1,1.7,4.5,3.9H115.6z M118.7,28.2h4.9V16.3c0-3,1.8-5.1,4.7-5.1c2.8,0,4.3,1.7,4.3,4.6v12.3h4.9V14.8
	c0-4.7-2.7-7.8-7.2-7.8c-3.1,0-5.4,1.4-6.5,3.9h-0.1V0h-4.8L118.7,28.2L118.7,28.2z M150.2,10.8c2.8,0,4.7,2.1,4.8,5h-9.7
	C145.5,12.9,147.4,10.8,150.2,10.8z M154.9,22c-0.5,1.7-2.2,2.9-4.5,2.9c-3.2,0-5.2-2.2-5.2-5.5V19h14.5v-1.6
	c0-6.3-3.7-10.4-9.6-10.4c-6,0-9.8,4.3-9.8,10.9c0,6.6,3.8,10.7,10,10.7c4.9,0,8.5-2.7,9.2-6.6H154.9L154.9,22z M1.7,57.4
	c0,3.1,2,5,6,5.9l3.4,0.8c2.2,0.5,2.9,1.2,2.9,2.4c0,1.5-1.5,2.5-3.8,2.5c-2.5,0-3.8-1-4.2-3H1.2c0.4,4,3.6,6.6,9,6.6
	c5.1,0,8.7-2.6,8.7-6.5c0-3-1.7-4.7-6-5.6l-3.4-0.8c-2.2-0.5-3-1.3-3-2.5c0-1.5,1.4-2.5,3.6-2.5c2.2,0,3.6,1.2,3.8,3.1h4.5
	c-0.1-3.9-3.3-6.6-8.4-6.6C5,51,1.7,53.6,1.7,57.4L1.7,57.4z M29.5,68.8c-2.1,0-3.5-1.1-3.5-2.8c0-1.6,1.3-2.7,3.7-2.9l4.8-0.3v1.6
	C34.5,67,32.2,68.8,29.5,68.8L29.5,68.8z M28,72.5c2.7,0,5.2-1.4,6.4-3.6h0.1v3.3h4.7V57.9c0-4.2-3.3-6.9-8.5-6.9
	c-5.3,0-8.6,2.8-8.8,6.6h4.5c0.3-1.7,1.8-2.8,4.1-2.8c2.4,0,3.9,1.2,3.9,3.4v1.5L29,60.1c-5,0.3-7.9,2.5-7.9,6.2
	C21.1,70,24,72.5,28,72.5L28,72.5z M43.3,72.2h4.9V44h-4.9V72.2z M61.2,54.8c2.8,0,4.7,2.1,4.8,5h-9.7
	C56.5,56.9,58.5,54.8,61.2,54.8L61.2,54.8z M66,66c-0.5,1.7-2.2,2.9-4.5,2.9c-3.2,0-5.2-2.2-5.2-5.5V63h14.5v-1.6
	c0-6.3-3.7-10.4-9.5-10.4c-6,0-9.8,4.3-9.8,10.9c0,6.6,3.8,10.7,10,10.7c4.9,0,8.5-2.7,9.2-6.6H66L66,66z M89.5,68.8
	c-2.1,0-3.5-1.1-3.5-2.8c0-1.6,1.3-2.7,3.7-2.9l4.8-0.3v1.6C94.4,67,92.2,68.8,89.5,68.8L89.5,68.8z M88,72.5c2.7,0,5.2-1.4,6.4-3.6
	h0.1v3.3h4.7V57.9c0-4.2-3.3-6.9-8.5-6.9c-5.3,0-8.6,2.8-8.8,6.6h4.5c0.3-1.7,1.8-2.8,4.1-2.8c2.4,0,3.9,1.2,3.9,3.4v1.5l-5.5,0.3
	c-5,0.3-7.9,2.5-7.9,6.2C81.1,70,84,72.5,88,72.5L88,72.5z M111.3,72.2h4.9V44h-4.9V72.2z M127.8,68.8c-2.1,0-3.5-1.1-3.5-2.8
	c0-1.6,1.3-2.7,3.7-2.9l4.8-0.3v1.6C132.8,67,130.6,68.8,127.8,68.8L127.8,68.8z M126.4,72.5c2.7,0,5.3-1.4,6.5-3.6h0.1v3.3h4.7
	V57.9c0-4.2-3.3-6.9-8.5-6.9c-5.3,0-8.6,2.8-8.8,6.6h4.5c0.3-1.7,1.8-2.8,4.1-2.8c2.4,0,3.9,1.2,3.9,3.4v1.5l-5.5,0.3
	c-5,0.3-7.9,2.5-7.9,6.2C119.5,70,122.4,72.5,126.4,72.5L126.4,72.5z M149.7,72.2h4.9V44h-4.9V72.2z M177,51.5h-4.9v12
	c0,3-1.7,5-4.5,5c-2.7,0-4.2-1.6-4.2-4.6V51.5h-4.9v13.4c0,4.8,2.8,7.7,7.3,7.7c3.1,0,5.2-1.4,6.3-4h0.1v3.6h4.7V51.5z M180.6,72.2
	h16.5v-3.8h-10.5v-0.1l10.3-13.6v-3.2h-16.2v3.8h10.6v0.1l-10.7,13.9L180.6,72.2L180.6,72.2z M204,72.4c1.6,0,2.8-1.3,2.8-2.8
	c0-1.6-1.3-2.8-2.8-2.8s-2.8,1.3-2.8,2.8C201.2,71.1,202.4,72.4,204,72.4C204,72.4,204,72.4,204,72.4L204,72.4z"/>
</svg>
