<?xml version="1.0" encoding="utf-8"?>
<!-- Generator: Adobe Illustrator 21.1.0, SVG Export Plug-In . SVG Version: 6.00 Build 0)  -->
<svg version="1.1" id="Layer_1" xmlns="http://www.w3.org/2000/svg" xmlns:xlink="http://www.w3.org/1999/xlink" x="0px" y="0px"
	 viewBox="0 0 364 120" style="enable-background:new 0 0 364 120;" xml:space="preserve">
<style type="text/css">
	.st0{fill:#111111;}
</style>
<path id="_50_S3_Title_2_large_1x.svg" class="st0" d="M2.7,2.3v45.1h8.1V32.5h9.1c9.1,0,15.5-6.1,15.5-15.1S29.2,2.3,20.3,2.3H2.7z
	 M10.8,8.9h7.3c5.8,0,9.1,3.1,9.1,8.5c0,5.5-3.4,8.6-9.2,8.6h-7.3L10.8,8.9L10.8,8.9z M49.7,42c-3.4,0-5.6-1.7-5.6-4.4
	c0-2.6,2.2-4.3,5.9-4.6l7.7-0.5v2.5C57.6,39.1,54.1,42,49.7,42z M47.3,47.9c4.2,0,8.4-2.2,10.3-5.8h0.2v5.3h7.5V24.6
	c0-6.7-5.3-11-13.6-11c-8.4,0-13.7,4.4-14.1,10.6h7.2c0.5-2.8,2.8-4.5,6.5-4.5c3.8,0,6.2,2,6.2,5.5v2.4L48.8,28
	c-8.1,0.5-12.6,4-12.6,9.9C36.3,43.9,40.9,47.9,47.3,47.9z M70.4,23.8c0,4.9,3.2,8,9.5,9.4l5.5,1.2c3.5,0.8,4.7,1.9,4.7,3.9
	c0,2.5-2.3,4-6.1,4c-3.9,0-6.2-1.6-6.8-4.8h-7.7C70.1,43.9,75.3,48,83.9,48c8.1,0,13.9-4.2,13.9-10.5c0-4.8-2.7-7.5-9.5-9l-5.5-1.2
	c-3.5-0.8-4.8-2.1-4.8-4c0-2.4,2.3-4.1,5.7-4.1c3.6,0,5.8,1.9,6.1,4.9H97c-0.2-6.3-5.3-10.6-13.4-10.6
	C75.6,13.6,70.4,17.7,70.4,23.8L70.4,23.8z M114.3,42c-3.4,0-5.6-1.7-5.6-4.4c0-2.6,2.2-4.3,5.9-4.6l7.7-0.5v2.5
	C122.2,39.1,118.7,42,114.3,42L114.3,42z M111.9,47.9c4.2,0,8.4-2.2,10.3-5.8h0.2v5.3h7.5V24.6c0-6.7-5.3-11-13.6-11
	c-8.4,0-13.7,4.4-14.1,10.6h7.2c0.5-2.8,2.8-4.5,6.5-4.5c3.8,0,6.2,2,6.2,5.5v2.4l-8.8,0.5c-8.1,0.5-12.6,4-12.6,9.9
	C100.9,43.9,105.5,47.9,111.9,47.9L111.9,47.9z M150,6.5v7.8h-4.8v6h4.8v18.3c0,6.4,2.8,9,10,9c1.4,0,2.7-0.1,4-0.3v-5.9
	c-0.7,0.1-1.5,0.2-2.2,0.2c-2.8,0-4-1.2-4-4V20.2h6.2v-6h-6.2V6.5H150L150,6.5z M198.1,14.2h-7.8v19.2c0,4.8-2.8,8-7.3,8
	c-4.4,0-6.7-2.6-6.7-7.3V14.2h-7.8v21.4c0,7.7,4.6,12.3,11.8,12.3c5,0,8.4-2.3,10.1-6.3h0.2v5.8h7.5L198.1,14.2L198.1,14.2z
	 M245.3,14.2h-8.1l-7.7,25.9h-0.2l-7.7-25.9h-8.3L225,47.4h8.6L245.3,14.2z M248.4,47.4h7.8V14.2h-7.8L248.4,47.4L248.4,47.4z
	 M255.1,9.7l7.3-9.7H255l-5.4,9.7H255.1L255.1,9.7z M274.5,47.9c4.8,0,8.7-2.5,10.5-6.2h0.1v5.7h7.6V2.3H285v17.5h-0.2
	c-1.8-3.7-5.5-6.1-10.2-6.1c-8.3,0-13.8,6.6-13.8,17.1C260.8,41.3,266.2,47.9,274.5,47.9L274.5,47.9z M276.9,20.1
	c4.9,0,8.1,4.2,8.1,10.7c0,6.6-3.2,10.7-8.1,10.7c-5,0-8.1-4.1-8.1-10.7C268.8,24.2,271.9,20.1,276.9,20.1L276.9,20.1z M313,19.6
	c4.5,0,7.5,3.3,7.6,8h-15.5C305.5,22.9,308.6,19.6,313,19.6L313,19.6z M320.7,37.5c-0.8,2.8-3.6,4.6-7.2,4.6c-5.1,0-8.3-3.6-8.3-8.9
	v-0.5h23.2v-2.5c0-10.1-5.9-16.6-15.3-16.6c-9.6,0-15.6,6.9-15.6,17.4c0,10.6,6,17.1,15.9,17.1c7.8,0,13.7-4.3,14.7-10.6H320.7
	L320.7,37.5z M347.3,48c9.7,0,16-6.5,16-17.2c0-10.7-6.4-17.2-16-17.2s-16,6.6-16,17.2C331.3,41.6,337.6,48,347.3,48L347.3,48z
	 M347.3,41.9c-4.9,0-8.1-4-8.1-11.1c0-7,3.2-11.1,8.1-11.1c4.9,0,8.1,4,8.1,11.1C355.5,37.9,352.3,41.9,347.3,41.9L347.3,41.9z
	 M14.1,110c-3.4,0-5.6-1.7-5.6-4.4c0-2.6,2.2-4.3,5.9-4.6l7.7-0.5v2.5C22,107.1,18.5,110,14.1,110L14.1,110z M11.7,115.9
	c4.2,0,8.4-2.2,10.3-5.8h0.2v5.3h7.5V92.6c0-6.7-5.3-11-13.6-11C7.7,81.6,2.4,86,2.1,92.2h7.2c0.5-2.8,2.8-4.5,6.5-4.5
	c3.8,0,6.2,2,6.2,5.5v2.4L13.2,96c-8.1,0.5-12.6,4-12.6,9.9C0.6,111.9,5.3,115.9,11.7,115.9L11.7,115.9z M62.2,116
	c9.7,0,16-6.5,16-17.2c0-10.7-6.4-17.2-16-17.2s-16,6.6-16,17.2C46.2,109.6,52.5,116,62.2,116L62.2,116z M62.2,109.9
	c-4.9,0-8.1-4-8.1-11.1c0-7,3.2-11.1,8.1-11.1c4.9,0,8.1,4,8.1,11.1C70.4,105.9,67.2,109.9,62.2,109.9L62.2,109.9z M84.9,74.5v7.8
	h-4.8v6h4.8v18.3c0,6.4,2.8,9,10,9c1.4,0,2.7-0.1,4-0.3v-5.9c-0.7,0.1-1.5,0.2-2.2,0.2c-2.8,0-4-1.2-4-4V88.2h6.2v-6h-6.2v-7.8H84.9
	z M103.6,115.4h7.8V96.1c0-4.7,2.7-7.5,7.1-7.5c1.1,0,2.1,0.1,3.2,0.4v-7c-0.8-0.2-1.6-0.3-2.4-0.3c-3.9,0-6.8,2.3-7.9,6.3h-0.2
	v-5.8h-7.5V115.4z M138.4,116c9.7,0,16-6.5,16-17.2c0-10.7-6.4-17.2-16-17.2s-16,6.6-16,17.2C122.4,109.6,128.7,116,138.4,116
	L138.4,116z M138.4,109.9c-4.9,0-8.1-4-8.1-11.1c0-7,3.2-11.1,8.1-11.1c4.9,0,8.1,4,8.1,11.1C146.5,105.9,143.4,109.9,138.4,109.9
	L138.4,109.9z M171.1,115.4h7.8V96.2c0-4.8,2.8-8,7.3-8c4.4,0,6.6,2.6,6.6,7.3v19.8h7.8V94c0-7.7-4.2-12.3-11.5-12.3
	c-5.1,0-8.6,2.4-10.4,6.3h-0.2v-5.7h-7.5V115.4z M206.4,115.4h7.8V82.2h-7.8V115.4z M210.3,77.2c2.3,0,4.2-1.9,4.2-4.2
	c0-2.3-1.9-4.2-4.2-4.2c-2.3,0-4.2,1.9-4.2,4.2C206,75.4,207.9,77.3,210.3,77.2C210.3,77.2,210.3,77.2,210.3,77.2L210.3,77.2z
	 M249.3,82.2h-8.1l-7.7,25.9h-0.2l-7.7-25.9h-8.3l11.8,33.1h8.6L249.3,82.2z M265.7,87.6c4.5,0,7.5,3.3,7.6,8h-15.5
	C258.1,90.9,261.3,87.6,265.7,87.6L265.7,87.6z M273.3,105.5c-0.8,2.8-3.6,4.6-7.2,4.6c-5.1,0-8.3-3.6-8.3-8.9v-0.5h23.2v-2.5
	c0-10.1-5.9-16.6-15.3-16.6c-9.6,0-15.6,6.9-15.6,17.4c0,10.6,6,17.1,15.9,17.1c7.8,0,13.7-4.3,14.7-10.6H273.3L273.3,105.5z
	 M285.6,115.4h7.8V70.3h-7.8V115.4z M304.8,115.7c2.5,0,4.5-2,4.5-4.5s-2-4.5-4.5-4.5s-4.5,2-4.5,4.5l0,0c0,2.5,1.9,4.5,4.4,4.5
	C304.7,115.7,304.8,115.7,304.8,115.7L304.8,115.7z"/>
</svg>
