<?xml version="1.0" encoding="utf-8"?>
<!-- Generator: Adobe Illustrator 21.1.0, SVG Export Plug-In . SVG Version: 6.00 Build 0)  -->
<svg version="1.1" id="Layer_1" xmlns="http://www.w3.org/2000/svg" xmlns:xlink="http://www.w3.org/1999/xlink" x="0px" y="0px"
	 viewBox="0 0 168 28" style="enable-background:new 0 0 168 28;" xml:space="preserve">
<style type="text/css">
	.st0{fill:#666666;}
</style>
<path id="_50_S4_Sub_1_large_1x.svg" class="st0" d="M9,20.7c4.2,0,6.8-2.1,6.8-5.6c0-2.6-1.9-4.5-4.6-4.8v-0.1
	c2.1-0.4,3.6-2.2,3.6-4.3c0-3-2.3-4.9-5.9-4.9H0.7v19.7L9,20.7L9,20.7z M4.3,3.8H8c2.1,0,3.3,1,3.3,2.7c0,1.8-1.4,2.9-3.8,2.9H4.3
	V3.8z M4.3,18v-6.2H8c2.7,0,4.1,1.1,4.1,3.1c0,2-1.4,3.1-4,3.1H4.3z M23.4,18.4c-1.5,0-2.5-0.8-2.5-1.9c0-1.1,0.9-1.9,2.6-2l3.3-0.2
	v1.1C26.9,17.1,25.4,18.4,23.4,18.4L23.4,18.4z M22.4,21c1.9,0,3.6-0.9,4.5-2.5H27v2.3h3.3v-10c0-2.9-2.3-4.8-5.9-4.8
	c-3.7,0-6,1.9-6.2,4.6h3.2c0.2-1.2,1.2-2,2.9-2c1.7,0,2.7,0.9,2.7,2.4v1l-3.8,0.2c-3.5,0.2-5.5,1.8-5.5,4.3
	C17.6,19.2,19.6,21,22.4,21z M34.1,2.8v3.4h-2.1v2.6h2.1v8c0,2.8,1.2,3.9,4.4,3.9c0.6,0,1.2,0,1.8-0.1v-2.6c-0.3,0-0.6,0.1-1,0.1
	c-1.2,0-1.8-0.5-1.8-1.7V8.9h2.7V6.2h-2.7V2.8H34.1z M48.8,8.6c2,0,3.3,1.4,3.3,3.5h-6.8C45.5,10,46.8,8.6,48.8,8.6z M52.1,16.4
	c-0.4,1.2-1.6,2-3.2,2c-2.2,0-3.7-1.6-3.7-3.9v-0.2h10.1v-1.1c0-4.4-2.6-7.3-6.7-7.3c-4.2,0-6.8,3-6.8,7.6c0,4.6,2.6,7.5,7,7.5
	c3.4,0,6-1.9,6.4-4.6L52.1,16.4L52.1,16.4z M57.8,20.7h3.4v-8.4c0-2,1.2-3.3,3.1-3.3c0.5,0,0.9,0.1,1.4,0.2V6.1C65.3,6,65,6,64.6,6
	c-1.7,0-3,1-3.5,2.8h-0.1V6.2h-3.3L57.8,20.7L57.8,20.7z M67.7,20.7h3.4V6.2h-3.4V20.7z M70.6,4.2L73.8,0h-3.2l-2.4,4.2H70.6z
	 M79.5,18.4c-1.5,0-2.5-0.8-2.5-1.9c0-1.1,0.9-1.9,2.6-2l3.3-0.2v1.1C82.9,17.1,81.4,18.4,79.5,18.4L79.5,18.4z M78.4,21
	c1.9,0,3.6-0.9,4.5-2.5H83v2.3h3.3v-10c0-2.9-2.3-4.8-5.9-4.8c-3.7,0-6,1.9-6.2,4.6h3.2c0.2-1.2,1.2-2,2.9-2c1.7,0,2.7,0.9,2.7,2.4
	v1l-3.8,0.2c-3.5,0.2-5.5,1.8-5.5,4.3C73.6,19.2,75.6,21,78.4,21L78.4,21z M96.7,26.1c3.3,0,4.9-1.2,6.1-4.8l5.2-15.1h-3.6
	l-3.4,11.6H101L97.6,6.2h-3.7L99,20.7c0,0-0.2,0.8-0.2,0.8c-0.4,1.3-1.1,1.9-2.5,1.9c-0.3,0-0.7,0-1,0v2.7
	C95.5,26.1,96.5,26.1,96.7,26.1L96.7,26.1z M128.4,11.4c-0.2-3-2.6-5.5-6.4-5.5c-4.2,0-6.9,2.9-6.9,7.5c0,4.7,2.7,7.5,7,7.5
	c3.6,0,6.1-2.1,6.4-5.4h-3.2c-0.2,1.6-1.6,2.7-3.2,2.6c-2.2,0-3.6-1.8-3.6-4.8c0-3,1.4-4.8,3.5-4.8c1.6-0.1,3,1.1,3.2,2.7
	L128.4,11.4L128.4,11.4z M130.8,20.7h3.4v-8.3c0-2.1,1.2-3.6,3.3-3.6c2,0,3,1.2,3,3.2v8.6h3.4v-9.3c0-3.3-1.9-5.4-5.1-5.4
	c-2.2,0-3.8,1-4.6,2.8h-0.1V1h-3.4L130.8,20.7L130.8,20.7z M146.8,20.7h3.4V6.2h-3.4V20.7z M148.5,4c1,0,1.8-0.8,1.8-1.9
	s-0.8-1.8-1.9-1.8c-1,0-1.8,0.8-1.8,1.8C146.7,3.2,147.5,4.1,148.5,4C148.5,4,148.5,4,148.5,4L148.5,4z M161.3,6
	c-1.9-0.1-3.7,1-4.6,2.8h-0.1V6.2h-3.3v19.3h3.4v-7.2h0.1c0.9,1.7,2.6,2.7,4.5,2.6c3.6,0,6-2.9,6-7.5C167.3,8.9,164.9,6,161.3,6
	L161.3,6z M160.2,18.2c-2.1,0-3.5-1.8-3.5-4.7c0-2.8,1.4-4.7,3.5-4.7c2.2,0,3.6,1.8,3.6,4.7C163.8,16.4,162.4,18.2,160.2,18.2
	L160.2,18.2z"/>
</svg>
