<?xml version="1.0" encoding="utf-8"?>
<!-- Generator: Adobe Illustrator 21.1.0, SVG Export Plug-In . SVG Version: 6.00 Build 0)  -->
<svg version="1.1" id="Layer_1" xmlns="http://www.w3.org/2000/svg" xmlns:xlink="http://www.w3.org/1999/xlink" x="0px" y="0px"
	 viewBox="0 0 192 76" style="enable-background:new 0 0 192 76;" xml:space="preserve">
<style type="text/css">
	.st0{fill:#111111;}
</style>
<path id="_50_S4_Title_1_medium_1x.svg" class="st0" d="M21.5,24.8H8.7V0.9h-5v28.2h17.8V24.8z M24.7,29.1h4.9V8.4h-4.9V29.1z
	 M27.1,5.3c1.5,0,2.6-1.2,2.6-2.7c0-1.5-1.2-2.6-2.7-2.6c-1.5,0-2.6,1.2-2.6,2.6C24.5,4.1,25.7,5.3,27.1,5.3
	C27.1,5.3,27.1,5.3,27.1,5.3z M33.3,14.3c0,3.1,2,5,6,5.9l3.4,0.8c2.2,0.5,2.9,1.2,2.9,2.4c0,1.5-1.5,2.5-3.8,2.5
	c-2.5,0-3.9-1-4.2-3h-4.8c0.4,4,3.6,6.6,9,6.6c5.1,0,8.7-2.6,8.7-6.5c0-3-1.7-4.7-6-5.6l-3.4-0.8c-2.2-0.5-3-1.3-3-2.5
	c0-1.5,1.4-2.5,3.6-2.5c2.2,0,3.6,1.2,3.8,3.1H50C49.9,10.7,46.7,8,41.6,8C36.6,8,33.3,10.6,33.3,14.3L33.3,14.3z M54.9,3.6v4.8h-3
	v3.8h3v11.4c0,4,1.8,5.6,6.2,5.6c0.8,0,1.7,0,2.5-0.2v-3.7c-0.5,0.1-0.9,0.1-1.4,0.1c-1.7,0-2.5-0.8-2.5-2.5V12.1h3.9V8.4h-3.9V3.6
	H54.9z M75.8,29.5c6.1,0,10-4,10-10.8c0-6.7-4-10.8-10-10.8s-10,4.1-10,10.8C65.7,25.5,69.7,29.5,75.8,29.5L75.8,29.5z M75.8,25.7
	c-3.1,0-5.1-2.5-5.1-6.9c0-4.4,2-6.9,5.1-6.9c3.1,0,5.1,2.5,5.1,6.9C80.8,23.2,78.8,25.7,75.8,25.7L75.8,25.7z M108.3,8
	c-2.8-0.1-5.3,1.4-6.5,3.9h-0.1V8.4h-4.7v27.5h4.9V25.7h0.1c1.1,2.3,3.5,3.8,6.5,3.8c5.2,0,8.5-4.1,8.5-10.7
	C116.9,12.1,113.5,8.1,108.3,8L108.3,8z M106.8,25.4c-3,0-5-2.6-5.1-6.7c0-4,2-6.7,5.1-6.7c3.1,0,5.1,2.6,5.1,6.7
	C111.9,22.9,109.9,25.4,106.8,25.4L106.8,25.4z M127.5,25.8c-2.1,0-3.5-1.1-3.5-2.8c0-1.6,1.4-2.7,3.7-2.9l4.8-0.3v1.6
	C132.5,23.9,130.3,25.8,127.5,25.8L127.5,25.8z M126.1,29.4c2.7,0,5.3-1.4,6.4-3.6h0.1v3.3h4.7V14.8c0-4.2-3.3-6.9-8.5-6.9
	c-5.3,0-8.6,2.8-8.8,6.6h4.5c0.3-1.7,1.8-2.8,4.1-2.8c2.4,0,3.9,1.2,3.9,3.4v1.5L127,17c-5,0.3-7.9,2.5-7.9,6.2
	C119.2,26.9,122.1,29.4,126.1,29.4L126.1,29.4z M141.2,29.1h4.9V17c0-2.9,1.7-4.7,4.4-4.7c0.7,0,1.3,0.1,2,0.3V8.2
	c-0.5-0.1-1-0.2-1.5-0.2c-2.4,0-4.3,1.4-5,4h-0.1V8.4h-4.7L141.2,29.1L141.2,29.1z M162.1,25.8c-2.1,0-3.5-1.1-3.5-2.8
	c0-1.6,1.4-2.7,3.7-2.9l4.8-0.3v1.6C167,23.9,164.8,25.8,162.1,25.8L162.1,25.8z M160.6,29.4c2.7,0,5.3-1.4,6.4-3.6h0.1v3.3h4.7
	V14.8c0-4.2-3.3-6.9-8.5-6.9c-5.3,0-8.6,2.8-8.8,6.6h4.5c0.3-1.7,1.8-2.8,4.1-2.8c2.4,0,3.9,1.2,3.9,3.4v1.5l-5.5,0.3
	c-5,0.3-7.9,2.5-7.9,6.2C153.7,26.9,156.6,29.4,160.6,29.4L160.6,29.4z M4.5,47.6v4.8h-3v3.8h3v11.4c0,4,1.8,5.6,6.2,5.6
	c0.8,0,1.7,0,2.5-0.2v-3.7c-0.5,0.1-0.9,0.1-1.4,0.1c-1.7,0-2.5-0.8-2.5-2.5V56.1h3.9v-3.8H9.4v-4.8H4.5z M25.4,73.5
	c6.1,0,10-4,10-10.8c0-6.7-4-10.8-10-10.8s-10,4.1-10,10.8C15.3,69.5,19.3,73.5,25.4,73.5L25.4,73.5z M25.4,69.7
	c-3.1,0-5.1-2.5-5.1-6.9c0-4.4,2-6.9,5.1-6.9c3.1,0,5.1,2.5,5.1,6.9C30.4,67.2,28.4,69.7,25.4,69.7L25.4,69.7z M46.2,73.4
	c3,0,5.4-1.5,6.5-3.9h0.1v3.5h4.8V44.9h-4.9v11h-0.1c-1.2-2.4-3.7-3.9-6.4-3.8c-5.2,0-8.6,4.1-8.6,10.7C37.6,69.3,41,73.4,46.2,73.4
	L46.2,73.4z M47.7,56c3.1,0,5.1,2.6,5.1,6.7c0,4.1-2,6.7-5.1,6.7c-3.1,0-5.1-2.6-5.1-6.7C42.6,58.6,44.6,56.1,47.7,56L47.7,56z
	 M70.9,73.5c6.1,0,10-4,10-10.8c0-6.7-4-10.8-10-10.8s-10,4.1-10,10.8C60.9,69.5,64.8,73.5,70.9,73.5L70.9,73.5z M70.9,69.7
	c-3.1,0-5.1-2.5-5.1-6.9c0-4.4,2-6.9,5.1-6.9c3.1,0,5.1,2.5,5.1,6.9C75.9,67.2,74,69.7,70.9,69.7L70.9,69.7z M100.9,55.7
	c2.8,0,4.7,2.1,4.8,5H96C96.2,57.8,98.2,55.7,100.9,55.7L100.9,55.7z M105.7,66.9c-0.5,1.7-2.2,2.9-4.5,2.9c-3.2,0-5.2-2.2-5.2-5.6
	v-0.3h14.5v-1.6c0-6.3-3.7-10.4-9.5-10.4c-6,0-9.8,4.3-9.8,10.9c0,6.6,3.8,10.7,10,10.7c4.9,0,8.5-2.7,9.2-6.6H105.7L105.7,66.9z
	 M113.7,73.1h4.9V44.9h-4.9L113.7,73.1L113.7,73.1z M138.5,73.4c3,0,5.4-1.5,6.5-3.9h0.1v3.5h4.8V44.9H145v11h-0.1
	c-1.2-2.4-3.7-3.9-6.4-3.8c-5.2,0-8.6,4.1-8.6,10.7C129.9,69.3,133.3,73.4,138.5,73.4L138.5,73.4z M140,56c3.1,0,5.1,2.6,5.1,6.7
	c0,4.1-2,6.7-5.1,6.7c-3.1,0-5.1-2.6-5.1-6.7C134.9,58.6,136.8,56.1,140,56L140,56z M154.1,73.1h4.9V52.4h-4.9V73.1z M158.2,49.5
	l4.6-6h-4.6l-3.4,6H158.2L158.2,49.5z M170.6,69.8c-2.1,0-3.5-1.1-3.5-2.8c0-1.6,1.3-2.7,3.7-2.9l4.8-0.3v1.6
	C175.5,67.9,173.3,69.8,170.6,69.8L170.6,69.8z M169.1,73.4c2.7,0,5.3-1.4,6.4-3.6h0.1v3.3h4.7V58.8c0-4.2-3.3-6.9-8.5-6.9
	c-5.3,0-8.6,2.8-8.8,6.6h4.5c0.3-1.7,1.8-2.8,4.1-2.8c2.4,0,3.9,1.2,3.9,3.4v1.5l-5.5,0.3c-5,0.3-7.9,2.5-7.9,6.2
	C162.2,70.9,165.1,73.4,169.1,73.4L169.1,73.4z M187.6,73.3c1.6,0,2.8-1.3,2.8-2.8s-1.3-2.8-2.8-2.8c-1.6,0-2.8,1.3-2.8,2.8
	C184.8,72,186,73.3,187.6,73.3C187.6,73.3,187.6,73.3,187.6,73.3L187.6,73.3z"/>
</svg>
