<?xml version="1.0" encoding="utf-8"?>
<!-- Generator: Adobe Illustrator 21.1.0, SVG Export Plug-In . SVG Version: 6.00 Build 0)  -->
<svg version="1.1" id="Layer_1" xmlns="http://www.w3.org/2000/svg" xmlns:xlink="http://www.w3.org/1999/xlink" x="0px" y="0px"
	 viewBox="0 0 296 116" style="enable-background:new 0 0 296 116;" xml:space="preserve">
<style type="text/css">
	.st0{fill:#111111;}
</style>
<path id="_50_S4_Title_1_large_1x.svg" class="st0" d="M32,39.7H11.5V1.5H3.4v45.1H32V39.7z M36.6,46.6h7.8V13.4h-7.8V46.6z
	 M40.4,8.4c2.3,0,4.2-1.9,4.2-4.2c0-2.3-1.9-4.2-4.2-4.2c-2.3,0-4.2,1.9-4.2,4.2C36.2,6.5,38.1,8.4,40.4,8.4
	C40.4,8.4,40.4,8.4,40.4,8.4z M49.7,22.9c0,4.9,3.2,8,9.5,9.4l5.5,1.2c3.5,0.8,4.7,1.9,4.7,3.9c0,2.5-2.3,4-6.1,4
	c-3.9,0-6.2-1.6-6.8-4.8h-7.7c0.6,6.4,5.8,10.5,14.4,10.5c8.1,0,13.9-4.2,13.9-10.5c0-4.8-2.7-7.5-9.5-9l-5.5-1.2
	c-3.5-0.8-4.8-2.1-4.8-4c0-2.4,2.3-4.1,5.7-4.1c3.6,0,5.8,1.9,6.1,4.9h7.2c-0.2-6.3-5.3-10.6-13.4-10.6C55,12.7,49.7,16.9,49.7,22.9
	z M83.7,5.7v7.8H79v6h4.8v18.3c0,6.4,2.8,9,10,9c1.4,0,2.7-0.1,4-0.3v-5.9c-0.7,0.1-1.5,0.2-2.2,0.2c-2.8,0-4-1.2-4-4V19.4h6.2v-6
	h-6.2V5.7L83.7,5.7L83.7,5.7z M116.5,47.2c9.7,0,16-6.5,16-17.2c0-10.7-6.4-17.2-16-17.2s-16,6.6-16,17.2
	C100.4,40.7,106.8,47.2,116.5,47.2z M116.5,41.1c-4.9,0-8.1-4-8.1-11.1c0-7,3.2-11.1,8.1-11.1c4.9,0,8.1,4,8.1,11.1
	C124.6,37.1,121.4,41.1,116.5,41.1z M167.4,12.9c-4.8,0-8.6,2.4-10.4,6.3h-0.2v-5.7h-7.6v44h7.8V41.1h0.2c1.8,3.7,5.6,6,10.4,6
	c8.3,0,13.6-6.5,13.6-17.1C181.1,19.4,175.8,12.9,167.4,12.9z M165,40.7c-4.8,0-8.1-4.2-8.1-10.7c0-6.4,3.2-10.7,8.1-10.7
	c5,0,8.2,4.2,8.2,10.7C173.1,36.6,170,40.7,165,40.7z M197.6,41.2c-3.4,0-5.6-1.7-5.6-4.4c0-2.6,2.2-4.3,5.9-4.6l7.7-0.5v2.5
	C205.6,38.3,202,41.2,197.6,41.2L197.6,41.2z M195.3,47.1c4.2,0,8.4-2.2,10.3-5.8h0.2v5.3h7.5V23.7c0-6.7-5.3-11-13.6-11
	c-8.4,0-13.7,4.4-14.1,10.6h7.2c0.5-2.8,2.8-4.5,6.5-4.5c3.8,0,6.2,2,6.2,5.5v2.4l-8.8,0.5c-8.1,0.5-12.6,4-12.6,9.9
	C184.2,43.1,188.9,47.1,195.3,47.1L195.3,47.1z M218.9,46.6h7.8V27.3c0-4.7,2.7-7.5,7.1-7.5c1.1,0,2.1,0.1,3.2,0.4v-7
	c-0.8-0.2-1.6-0.3-2.4-0.3c-3.9,0-6.8,2.3-7.9,6.3h-0.2v-5.8h-7.5V46.6L218.9,46.6z M251.7,41.2c-3.4,0-5.6-1.7-5.6-4.4
	c0-2.6,2.2-4.3,5.9-4.6l7.7-0.5v2.5C259.7,38.3,256.1,41.2,251.7,41.2L251.7,41.2z M249.4,47.1c4.2,0,8.4-2.2,10.3-5.8h0.2v5.3h7.5
	V23.7c0-6.7-5.3-11-13.6-11c-8.4,0-13.7,4.4-14.1,10.6h7.2c0.5-2.8,2.8-4.5,6.5-4.5c3.8,0,6.2,2,6.2,5.5v2.4l-8.8,0.5
	c-8.1,0.5-12.6,4-12.6,9.9C238.3,43.1,243,47.1,249.4,47.1L249.4,47.1z M4.8,73.7v7.8H0.1v6h4.8v18.3c0,6.4,2.8,9,10,9
	c1.4,0,2.7-0.1,4-0.3v-5.9c-0.7,0.1-1.5,0.2-2.2,0.2c-2.8,0-4-1.2-4-4V87.4h6.2v-6h-6.2v-7.8L4.8,73.7L4.8,73.7z M37.6,115.2
	c9.7,0,16-6.5,16-17.2c0-10.7-6.4-17.2-16-17.2s-16,6.6-16,17.2C21.5,108.7,27.9,115.2,37.6,115.2L37.6,115.2z M37.6,109.1
	c-4.9,0-8.1-4-8.1-11.1c0-7,3.2-11.1,8.1-11.1c4.9,0,8.1,4,8.1,11.1C45.7,105.1,42.5,109.1,37.6,109.1L37.6,109.1z M70.4,115.1
	c4.8,0,8.7-2.5,10.5-6.2H81v5.7h7.6V69.5h-7.8V87h-0.2c-1.8-3.7-5.5-6.1-10.2-6.1c-8.3,0-13.8,6.6-13.8,17.1
	C56.7,108.5,62.1,115.1,70.4,115.1L70.4,115.1z M72.7,87.3c4.9,0,8.1,4.2,8.1,10.7c0,6.6-3.2,10.7-8.1,10.7c-5,0-8.1-4.1-8.1-10.7
	C64.6,91.4,67.7,87.3,72.7,87.3L72.7,87.3z M109.2,115.2c9.7,0,16-6.5,16-17.2c0-10.7-6.4-17.2-16-17.2s-16,6.6-16,17.2
	C93.2,108.7,99.5,115.2,109.2,115.2L109.2,115.2z M109.2,109.1c-4.9,0-8.1-4-8.1-11.1c0-7,3.2-11.1,8.1-11.1c4.9,0,8.1,4,8.1,11.1
	C117.4,105.1,114.2,109.1,109.2,109.1L109.2,109.1z M156.2,86.8c4.5,0,7.5,3.3,7.6,8h-15.5C148.7,90.1,151.8,86.8,156.2,86.8
	L156.2,86.8z M163.9,104.7c-0.8,2.8-3.6,4.6-7.2,4.6c-5.1,0-8.3-3.6-8.3-8.9v-0.5h23.2v-2.5c0-10.1-5.9-16.6-15.3-16.6
	c-9.6,0-15.6,6.9-15.6,17.4c0,10.6,6,17.1,15.9,17.1c7.8,0,13.7-4.3,14.7-10.6H163.9L163.9,104.7z M176.1,114.6h7.8V69.5h-7.8V114.6
	z M214.5,115.1c4.8,0,8.7-2.5,10.5-6.2h0.1v5.7h7.6V69.5H225V87h-0.2c-1.8-3.7-5.5-6.1-10.2-6.1c-8.3,0-13.8,6.6-13.8,17.1
	C200.8,108.5,206.2,115.1,214.5,115.1z M216.9,87.3c4.9,0,8.1,4.2,8.1,10.7c0,6.6-3.2,10.7-8.1,10.7c-5,0-8.1-4.1-8.1-10.7
	C208.8,91.4,211.9,87.3,216.9,87.3z M238.9,114.6h7.8V81.4h-7.8V114.6z M245.5,76.8l7.3-9.7h-7.4l-5.4,9.7H245.5z M264.7,109.2
	c-3.4,0-5.6-1.7-5.6-4.4c0-2.6,2.2-4.3,5.9-4.6l7.7-0.5v2.5C272.7,106.3,269.1,109.2,264.7,109.2L264.7,109.2z M262.4,115.1
	c4.2,0,8.4-2.2,10.3-5.8h0.2v5.3h7.5V91.7c0-6.7-5.3-11-13.6-11c-8.4,0-13.7,4.4-14.1,10.6h7.2c0.5-2.8,2.8-4.5,6.5-4.5
	c3.8,0,6.2,2,6.2,5.5v2.4l-8.8,0.5c-8.1,0.5-12.6,4-12.6,9.9C251.3,111.1,256,115.1,262.4,115.1L262.4,115.1z M291.5,114.9
	c2.5,0,4.5-2,4.5-4.5s-2-4.5-4.5-4.5s-4.5,2-4.5,4.5l0,0c0,2.4,1.9,4.5,4.4,4.5C291.4,114.9,291.4,114.9,291.5,114.9L291.5,114.9z"
	/>
</svg>
