<?xml version="1.0" encoding="utf-8"?>
<!-- Generator: Adobe Illustrator 21.1.0, SVG Export Plug-In . SVG Version: 6.00 Build 0)  -->
<svg version="1.1" id="Layer_1" xmlns="http://www.w3.org/2000/svg" xmlns:xlink="http://www.w3.org/1999/xlink" x="0px" y="0px"
	 viewBox="0 0 132 24" style="enable-background:new 0 0 132 24;" xml:space="preserve">
<style type="text/css">
	.st0{fill:#666666;}
</style>
<path id="_50_S5_Sub_1_large_1x.svg" class="st0" d="M1.6,0.6v19.7h3.5v-6.5h4c4,0,6.8-2.7,6.8-6.6c0-4-2.7-6.6-6.6-6.6H1.6z
	 M5.1,3.5h3.2c2.5,0,4,1.4,4,3.8c0,2.4-1.5,3.8-4,3.8H5.1V3.5z M18.3,20.4h3.4v-8.5c0-2,1.2-3.2,3.1-3.2c0.5,0,0.9,0,1.4,0.2V5.8
	c-0.3-0.1-0.7-0.1-1.1-0.1c-1.7,0-3,1-3.5,2.8h-0.1V5.9h-3.3L18.3,20.4L18.3,20.4z M28.3,20.4h3.4V5.9h-3.4V20.4z M29.9,3.7
	c1,0,1.9-0.8,1.9-1.9c0-1-0.8-1.9-1.9-1.9c-1,0-1.9,0.8-1.9,1.9C28.1,2.9,28.9,3.7,29.9,3.7L29.9,3.7z M47.5,5.9h-3.6l-3.4,11.4
	h-0.1L37.1,5.9h-3.6l5.1,14.5h3.7L47.5,5.9z M54.2,18c-1.5,0-2.5-0.8-2.5-1.9s0.9-1.9,2.6-2l3.3-0.2V15C57.7,16.8,56.1,18,54.2,18
	L54.2,18z M53.2,20.6c1.9,0,3.6-1,4.5-2.5h0.1v2.3H61v-10c0-3-2.3-4.9-5.9-4.9c-3.7,0-6,2-6.2,4.6h3.2c0.2-1.2,1.2-2,2.9-2
	c1.7,0,2.7,0.9,2.7,2.4v1l-3.8,0.2c-3.5,0.2-5.5,1.8-5.5,4.3C48.3,18.9,50.4,20.6,53.2,20.6z M76.7,11.1c-0.2-3-2.6-5.5-6.4-5.5
	c-4.2,0-6.9,3-6.9,7.5c0,4.7,2.7,7.5,7,7.5c3.6,0,6.1-2.1,6.4-5.4h-3.2c-0.2,1.6-1.6,2.7-3.2,2.6c-2.2,0-3.6-1.8-3.6-4.8
	c0-3,1.4-4.8,3.5-4.8c1.6-0.1,3,1.1,3.2,2.7H76.7z M79,20.4h3.4V5.9H79V20.4z M80.7,3.7c1,0,1.9-0.8,1.9-1.9c0-1-0.8-1.9-1.9-1.9
	c-1,0-1.9,0.8-1.9,1.9C78.9,2.9,79.7,3.7,80.7,3.7z M90.9,20.6c1.9,0.1,3.7-1,4.6-2.7h0.1v2.5h3.3V0.6h-3.4v7.6h-0.1
	c-0.8-1.7-2.6-2.8-4.5-2.7c-3.7,0-6,2.9-6,7.5S87.3,20.6,90.9,20.6L90.9,20.6z M91.9,8.4c2.1,0,3.6,1.9,3.6,4.7
	c0,2.9-1.4,4.7-3.6,4.7c-2.2,0-3.6-1.8-3.6-4.7C88.4,10.2,89.8,8.4,91.9,8.4z M107.2,18c-1.5,0-2.5-0.8-2.5-1.9s0.9-1.9,2.6-2
	l3.3-0.2V15C110.7,16.8,109.2,18,107.2,18z M106.2,20.6c1.9,0,3.6-1,4.5-2.5h0.1v2.3h3.3v-10c0-3-2.3-4.9-5.9-4.9
	c-3.7,0-6,2-6.2,4.6h3.2c0.2-1.2,1.2-2,2.9-2c1.7,0,2.7,0.9,2.7,2.4v1l-3.8,0.2c-3.5,0.2-5.5,1.8-5.5,4.3
	C101.4,18.9,103.4,20.6,106.2,20.6z M122.4,20.6c1.9,0.1,3.7-1,4.6-2.7h0.1v2.5h3.3V0.6H127v7.6h-0.1c-0.8-1.7-2.6-2.8-4.5-2.7
	c-3.7,0-6,2.9-6,7.5S118.8,20.6,122.4,20.6L122.4,20.6z M123.4,8.4c2.1,0,3.6,1.9,3.6,4.7c0,2.9-1.4,4.7-3.6,4.7
	c-2.2,0-3.6-1.8-3.6-4.7C119.9,10.2,121.3,8.4,123.4,8.4z"/>
</svg>
