<?xml version="1.0" encoding="utf-8"?>
<!-- Generator: Adobe Illustrator 21.1.0, SVG Export Plug-In . SVG Version: 6.00 Build 0)  -->
<svg version="1.1" id="Layer_1" xmlns="http://www.w3.org/2000/svg" xmlns:xlink="http://www.w3.org/1999/xlink" x="0px" y="0px"
	 viewBox="0 0 184 76" style="enable-background:new 0 0 184 76;" xml:space="preserve">
<style type="text/css">
	.st0{fill:#111111;}
</style>
<path id="_50_S5_Title_1_medium_1x.svg" class="st0" d="M1.9,0.9v28.2h5v-9.3h5.7c5.7,0,9.7-3.8,9.7-9.4s-3.9-9.4-9.5-9.4H1.9z M7,5
	h4.6c3.6,0,5.7,1.9,5.7,5.3c0,3.4-2.1,5.4-5.7,5.4H7L7,5L7,5z M25.6,29.1h4.9V17c0-2.9,1.7-4.7,4.4-4.7c0.7,0,1.3,0.1,2,0.3V8.2
	c-0.5-0.1-1-0.2-1.5-0.2c-2.4,0-4.3,1.4-5,4h-0.1V8.4h-4.7L25.6,29.1L25.6,29.1z M39.4,29.1h4.9V8.4h-4.9V29.1z M41.9,5.3
	c1.5,0,2.6-1.2,2.6-2.7S43.3,0,41.8,0c-1.4,0-2.6,1.2-2.6,2.6C39.2,4.1,40.4,5.3,41.9,5.3C41.9,5.3,41.9,5.3,41.9,5.3L41.9,5.3z
	 M66.6,8.4h-5.1l-4.8,16.2h-0.1L51.8,8.4h-5.2L54,29.1h5.4L66.6,8.4z M76,25.8c-2.1,0-3.5-1.1-3.5-2.8c0-1.6,1.3-2.7,3.7-2.9
	l4.8-0.3v1.6C80.9,23.9,78.7,25.8,76,25.8L76,25.8z M74.5,29.4c2.7,0,5.3-1.4,6.4-3.6H81v3.3h4.7V14.8c0-4.2-3.3-6.9-8.5-6.9
	c-5.3,0-8.6,2.8-8.8,6.6H73c0.3-1.7,1.8-2.8,4.1-2.8c2.4,0,3.9,1.2,3.9,3.4v1.5L75.4,17c-5,0.3-7.9,2.5-7.9,6.2
	C67.6,26.9,70.5,29.4,74.5,29.4L74.5,29.4z M107.9,15.8c-0.3-4.4-3.7-7.8-9.2-7.8c-6,0-9.9,4.2-9.9,10.8c0,6.7,3.9,10.8,10,10.8
	c5.2,0,8.8-3.1,9.2-7.7h-4.6c-0.5,2.3-2.1,3.8-4.5,3.8c-3.1,0-5.1-2.5-5.1-6.8c0-4.3,2-6.8,5-6.8c2.6,0,4.1,1.7,4.5,3.9H107.9
	L107.9,15.8z M110.9,29.1h4.9V8.4h-4.9V29.1z M113.3,5.3c1.5,0,2.6-1.2,2.6-2.7S114.7,0,113.3,0c-1.4,0-2.6,1.2-2.6,2.6
	C110.6,4.1,111.8,5.3,113.3,5.3C113.3,5.3,113.3,5.3,113.3,5.3L113.3,5.3z M127.6,29.4c3,0,5.4-1.5,6.5-3.9h0.1v3.5h4.8V0.9h-4.9v11
	H134c-1.2-2.4-3.7-3.9-6.4-3.8c-5.2,0-8.6,4.1-8.6,10.7C119,25.3,122.4,29.4,127.6,29.4L127.6,29.4z M129,12c3.1,0,5.1,2.6,5.1,6.7
	c0,4.1-2,6.7-5.1,6.7c-3.1,0-5.1-2.6-5.1-6.7C124,14.6,125.9,12,129,12L129,12z M150.6,25.8c-2.1,0-3.5-1.1-3.5-2.8
	c0-1.6,1.3-2.7,3.7-2.9l4.8-0.3v1.6C155.6,23.9,153.4,25.8,150.6,25.8L150.6,25.8z M149.1,29.4c2.7,0,5.2-1.4,6.4-3.6h0.1v3.3h4.7
	V14.8c0-4.2-3.3-6.9-8.5-6.9c-5.3,0-8.6,2.8-8.8,6.6h4.5c0.3-1.7,1.8-2.8,4.1-2.8c2.4,0,3.9,1.2,3.9,3.4v1.5l-5.5,0.3
	c-5,0.3-7.9,2.5-7.9,6.2C142.2,26.9,145.1,29.4,149.1,29.4L149.1,29.4z M172,29.4c3,0,5.4-1.5,6.5-3.9h0.1v3.5h4.8V0.9h-4.9v11h-0.1
	c-1.2-2.4-3.7-3.9-6.4-3.8c-5.2,0-8.6,4.1-8.6,10.7C163.4,25.3,166.8,29.4,172,29.4L172,29.4z M173.5,12c3.1,0,5.1,2.6,5.1,6.7
	c0,4.1-2,6.7-5.1,6.7c-3.1,0-5.1-2.6-5.1-6.7C168.4,14.6,170.3,12,173.5,12L173.5,12z M9.2,73.4c3,0,5.4-1.5,6.5-3.9h0.1v3.5h4.8
	V44.9h-4.9v11h-0.1c-1.2-2.4-3.7-3.9-6.4-3.8C4,52,0.6,56.2,0.6,62.7C0.6,69.3,4,73.4,9.2,73.4L9.2,73.4z M10.7,56
	c3.1,0,5.1,2.6,5.1,6.7c0,4.1-2,6.7-5.1,6.7c-3.1,0-5.1-2.6-5.1-6.7C5.6,58.6,7.5,56,10.7,56L10.7,56z M33.6,55.7c2.8,0,4.7,2,4.8,5
	h-9.7C28.9,57.8,30.9,55.7,33.6,55.7L33.6,55.7z M38.4,66.9c-0.5,1.7-2.2,2.9-4.5,2.9c-3.2,0-5.2-2.2-5.2-5.5v-0.3h14.5v-1.6
	c0-6.3-3.7-10.4-9.5-10.4c-6,0-9.8,4.3-9.8,10.9c0,6.6,3.8,10.7,10,10.7c4.9,0,8.5-2.7,9.2-6.6H38.4L38.4,66.9z M53.9,58.3
	c0,3.1,2,5,6,5.9l3.4,0.8c2.2,0.5,2.9,1.2,2.9,2.4c0,1.5-1.5,2.5-3.8,2.5c-2.5,0-3.8-1-4.2-3h-4.8c0.4,4,3.6,6.6,9,6.6
	c5.1,0,8.7-2.6,8.7-6.5c0-3-1.7-4.7-6-5.6l-3.4-0.8c-2.2-0.5-3-1.3-3-2.5c0-1.5,1.4-2.5,3.6-2.5c2.2,0,3.6,1.2,3.8,3.1h4.5
	c-0.1-3.9-3.3-6.6-8.4-6.6C57.2,52,53.9,54.5,53.9,58.3L53.9,58.3z M83.1,55.7c2.8,0,4.7,2,4.8,5h-9.7
	C78.4,57.8,80.3,55.7,83.1,55.7L83.1,55.7z M87.9,66.9c-0.5,1.7-2.2,2.9-4.5,2.9c-3.2,0-5.2-2.2-5.2-5.5v-0.3h14.5v-1.6
	C92.6,56,88.9,52,83,52c-6,0-9.8,4.3-9.8,10.9c0,6.6,3.8,10.7,10,10.7c4.9,0,8.5-2.7,9.2-6.6H87.9L87.9,66.9z M95.7,73.1h4.9V61
	c0-2.9,1.7-4.7,4.4-4.7c0.7,0,1.3,0.1,2,0.3v-4.4c-0.5-0.1-1-0.2-1.5-0.2c-2.4,0-4.3,1.4-5,4h-0.1v-3.6h-4.7L95.7,73.1L95.7,73.1z
	 M109.6,73.1h4.9V52.4h-4.9V73.1z M112,49.3c1.5,0,2.6-1.2,2.6-2.7c0-1.5-1.2-2.6-2.7-2.6c-1.5,0-2.6,1.2-2.6,2.6
	C109.3,48.1,110.5,49.3,112,49.3C112,49.3,112,49.3,112,49.3L112,49.3z M127.5,55.7c2.8,0,4.7,2,4.8,5h-9.7
	C122.8,57.8,124.7,55.7,127.5,55.7L127.5,55.7z M132.2,66.9c-0.5,1.7-2.2,2.9-4.5,2.9c-3.2,0-5.2-2.2-5.2-5.5v-0.3H137v-1.6
	c0-6.3-3.7-10.4-9.5-10.4c-6,0-9.8,4.3-9.8,10.9c0,6.6,3.8,10.7,10,10.7c4.9,0,8.5-2.7,9.2-6.6H132.2L132.2,66.9z M143.5,73.3
	c1.6,0,2.8-1.3,2.8-2.8s-1.3-2.8-2.8-2.8c-1.6,0-2.8,1.3-2.8,2.8C140.7,72,141.9,73.3,143.5,73.3C143.5,73.3,143.5,73.3,143.5,73.3
	L143.5,73.3z"/>
</svg>
