<svg width="32" height="26" viewBox="0 0 32 26" xmlns="http://www.w3.org/2000/svg"><g fill="none" fill-rule="evenodd"><path d="M-3-6h38v38H-3z"/><path d="M16.792 22.5v1.583h7.125a.792.792 0 010 1.584H8.083a.792.792 0 010-1.584h7.125V22.5H3.333a3.167 3.167 0 01-3.166-3.167V3.5A3.167 3.167 0 013.333.333h25.334A3.167 3.167 0 0131.833 3.5v15.833a3.167 3.167 0 01-3.166 3.167H16.792zM3.333 1.917c-.874 0-1.583.709-1.583 1.583v15.833c0 .875.709 1.584 1.583 1.584h25.334c.874 0 1.583-.71 1.583-1.584V3.5c0-.874-.709-1.583-1.583-1.583H3.333z" fill="#FFF"/></g></svg>