<svg width="33" height="23" viewBox="0 0 33 23" xmlns="http://www.w3.org/2000/svg"><g fill="none" fill-rule="evenodd"><path d="M-2.554-7.5h38v38h-38z"/><path d="M16.446 19.785a1.59 1.59 0 011.583 1.597 1.59 1.59 0 01-1.583 1.597 1.59 1.59 0 01-1.584-1.597 1.59 1.59 0 011.584-1.597zm.031-6.987a9.58 9.58 0 016.807 2.845.803.803 0 010 1.13.787.787 0 01-1.12 0 8.004 8.004 0 00-5.687-2.378 8.004 8.004 0 00-5.686 2.377.787.787 0 01-1.12 0 .803.803 0 010-1.129 9.58 9.58 0 016.806-2.845zm.028-6.388c4.242 0 8.31 1.7 11.307 4.727a.803.803 0 010 1.13.787.787 0 01-1.12 0 14.338 14.338 0 00-10.187-4.26 14.338 14.338 0 00-10.187 4.26.787.787 0 01-1.12 0 .803.803 0 010-1.13A15.914 15.914 0 0116.505 6.41zm-.06-6.39a21.958 21.958 0 0115.603 6.524.803.803 0 01-.001 1.13.787.787 0 01-1.12-.001 20.382 20.382 0 00-14.481-6.055A20.382 20.382 0 001.964 7.673a.787.787 0 01-1.12 0 .803.803 0 010-1.13A21.958 21.958 0 0116.446.022z" fill="#FFF"/></g></svg>