<svg width="20" height="33" viewBox="0 0 20 33" xmlns="http://www.w3.org/2000/svg"><g fill="none" fill-rule="evenodd"><path d="M-8.554-2.5h38v38h-38z"/><path d="M8.07 29.167a.792.792 0 010-1.584h4.75a.792.792 0 010 1.584H8.07zM4.113.667H16.78a3.167 3.167 0 013.167 3.166v25.334a3.167 3.167 0 01-3.167 3.166H4.112a3.167 3.167 0 01-3.166-3.166V3.833A3.167 3.167 0 014.112.667zm0 1.583c-.874 0-1.583.709-1.583 1.583v25.334c0 .874.709 1.583 1.583 1.583H16.78c.875 0 1.583-.709 1.583-1.583V3.833c0-.874-.708-1.583-1.583-1.583H4.112z" fill="#FFF"/></g></svg>