<svg width="33" height="27" viewBox="0 0 33 27" xmlns="http://www.w3.org/2000/svg"><g fill="none" fill-rule="evenodd"><path d="M-2.554-5.5h38v38h-38z"/><path d="M30.696 24.98V13.103a.396.396 0 00-.396-.396h-5.542a.396.396 0 00-.396.396V24.98c0 .219.178.396.396.396H30.3a.396.396 0 00.396-.396zm-7.917-11.876a1.98 1.98 0 011.98-1.979h4.353V3.017a1.372 1.372 0 00-1.333-1.392H5.126A1.373 1.373 0 003.78 3.028v3.365h9.12a1.98 1.98 0 011.98 1.979v10.707h7.9v-5.975zm-7.9 9.104h.778l-.002-1.545h-.777v1.545zm-1.584 2.771V8.372a.396.396 0 00-.396-.396H2.592a.396.396 0 00-.396.396v16.607c0 .219.177.396.396.396h10.307a.396.396 0 00.396-.396zm17.4-13.814a1.98 1.98 0 011.584 1.94v11.874a1.98 1.98 0 01-1.979 1.98h-5.542a1.98 1.98 0 01-1.979-1.98v-4.316h-5.54l.001 1.545h3.13a.792.792 0 010 1.584h-5.492v1.187a1.98 1.98 0 01-1.979 1.98H2.592a1.98 1.98 0 01-1.98-1.98V8.372c0-.958.68-1.756 1.584-1.94V3.04A2.956 2.956 0 015.113.042h22.678a2.953 2.953 0 012.905 2.988v8.135zM8.538 22.208a.792.792 0 010 1.584H6.954a.792.792 0 010-1.584h1.583zm19.784 0a.792.792 0 010 1.584h-1.584a.792.792 0 010-1.584h1.584z" fill="#FFF"/></g></svg>