<?xml version="1.0" encoding="UTF-8"?>
<svg width="80px" height="90px" viewBox="0 0 80 90" version="1.1" xmlns="http://www.w3.org/2000/svg" xmlns:xlink="http://www.w3.org/1999/xlink">
    <!-- Generator: Sketch 61.2 (89653) - https://sketch.com -->
    <title>icono</title>
    <desc>Created with Sketch.</desc>
    <defs>
        <path d="M9.16981132,0 L25.2169811,0 C30.2813281,0 34.3867925,4.02943725 34.3867925,9 L34.3867925,24.75 C34.3867925,29.7205627 30.2813281,33.75 25.2169811,33.75 L9.16981132,33.75 C4.10546437,33.75 0,29.7205627 0,24.75 L0,9 C0,4.02943725 4.10546437,0 9.16981132,0 Z" id="path-1"></path>
    </defs>
    <g id="PLP-Revamp-Vodafone-One-Test-A/B" stroke="none" stroke-width="1" fill="none" fill-rule="evenodd">
        <g id="PLP-Desktop---Revamp-Móvil-+-Fibra" transform="translate(-69.000000, -1225.000000)">
            <g id="Añade-lineas" transform="translate(0.000000, 1170.000000)">
                <g id="Card-lineas" transform="translate(50.000000, 40.000000)">
                    <g id="icono" transform="translate(16.000000, 6.000000)">
                        <g id="01-Icon-Sets-/-HiFi-/-sim">
                            <g id="Group-2">
                                <g id="sim_hi">
                                    <path d="M64.1886792,9 L36.6792453,9 C31.6148983,9 27.509434,13.0294373 27.509434,18 L27.509434,90 C27.509434,94.9705627 31.6148983,99 36.6792453,99 L73.3584906,99 C78.4228375,99 82.5283019,94.9705627 82.5283019,90 L82.5283019,27 L64.1886792,9 Z" id="Shape" fill="#EBEBEB" fill-rule="nonzero"></path>
                                    <path d="M36.6792453,97.875 L73.3584906,97.875 C78.4228375,97.875 82.5283019,93.8455627 82.5283019,88.875 L82.5283019,90 C82.5283019,94.9705627 78.4228375,99 73.3584906,99 L36.6792453,99 C31.6148983,99 27.509434,94.9705627 27.509434,90 L27.509434,88.875 C27.509434,93.8455627 31.6148983,97.875 36.6792453,97.875 Z" id="Shape" fill="#000000" fill-rule="nonzero" opacity="0.06"></path>
                                    <path d="M46.995283,54 L63.0424528,54 C68.1067998,54 72.2122642,58.0294373 72.2122642,63 L72.2122642,78.75 C72.2122642,83.7205627 68.1067998,87.75 63.0424528,87.75 L46.995283,87.75 C41.9309361,87.75 37.8254717,83.7205627 37.8254717,78.75 L37.8254717,63 C37.8254717,58.0294373 41.9309361,54 46.995283,54 Z" id="Rectangle_path" fill="#000000" fill-rule="nonzero" opacity="0.06"></path>
                                    <rect id="ccce3f95_c0ef_4ceb_854f_39124c3498db" x="0" y="0" width="110.037736" height="108"></rect>
                                    <path d="M55.0188679,28.6875 C51.8536511,28.6875 49.2877358,31.2058983 49.2877358,34.3125 C49.2877358,37.4191017 51.8536511,39.9375 55.0188679,39.9375 C58.1840848,39.9375 60.75,37.4191017 60.75,34.3125 C60.75,31.2058983 58.1840848,28.6875 55.0188679,28.6875 L55.0188679,28.6875 Z M57.8213915,35.825625 C57.6237174,36.2063214 57.3440749,36.5402845 57.0018396,36.804375 C56.4464579,37.2317537 55.7589314,37.459993 55.0532547,37.45125 L54.7265802,37.45125 C54.5597583,37.4306963 54.3949203,37.3968343 54.2337028,37.35 C53.4786502,37.130549 52.8295417,36.6512352 52.4054717,36 C52.2219509,35.7196646 52.0810137,35.4145869 51.9870991,35.094375 L51.9870991,35.02125 C51.9380807,34.8366208 51.9035923,34.648567 51.8839387,34.45875 C51.8702757,34.2714898 51.8702757,34.0835102 51.8839387,33.89625 L51.8839387,33.84 C51.9003951,33.5667582 51.9426037,33.2955999 52.0100236,33.03 C52.2663551,32.0458906 52.8293696,31.1648957 53.6204717,30.51 C54.087557,30.1225679 54.6186374,29.8162885 55.1908019,29.604375 C55.3512736,29.5425 55.5060142,29.491875 55.6607547,29.446875 L55.9530425,29.368125 C56.1926118,29.3098587 56.435723,29.266646 56.6808962,29.23875 C56.9206748,29.209396 57.1632403,29.209396 57.4030189,29.23875 L57.5176415,29.23875 C56.4072304,29.4432712 55.6000202,30.3911559 55.5919811,31.5 C55.5919811,31.5 55.5919811,31.550625 55.5919811,31.573125 C56.0188282,31.655409 56.4279518,31.8095575 56.80125,32.02875 C57.1130537,32.2142106 57.3839097,32.459013 57.5978774,32.74875 L57.6437264,32.81625 C57.7944491,33.0379887 57.910366,33.2806987 57.9875943,33.53625 C58.0669848,33.8014527 58.1112871,34.0755772 58.1194104,34.351875 C58.1194104,34.39125 58.1194104,34.425 58.1194104,34.464375 C58.1296406,34.9347313 58.0275798,35.4009106 57.8213915,35.825625 L57.8213915,35.825625 Z" id="Shape" fill="#E60000" fill-rule="nonzero"></path>
                                    <g id="Clipped" transform="translate(37.825472, 54.000000)">
                                        <mask id="mask-2" fill="white">
                                            <use xlink:href="#path-1"></use>
                                        </mask>
                                        <g id="Rectangle_path"></g>
                                        <g id="Group" opacity="0.06" mask="url(#mask-2)" fill="#000000" fill-rule="nonzero">
                                            <g transform="translate(-1.719340, 0.000000)">
                                                <path d="M13.1816038,20.8125 L24.6438679,20.8125 L24.6438679,12.9375 L13.1816038,12.9375 L13.1816038,20.8125 Z M25.7900943,11.8125 L25.7900943,21.9375 L12.0353774,21.9375 L12.0353774,11.8125 L25.7900943,11.8125 Z" id="Rectangle_path"></path>
                                                <polygon id="Shape" points="10.8891509 0 9.74292453 0 9.74292453 10.5911685 12.5885667 13.0764674 13.3505371 12.2360326 10.8891509 10.0863315"></polygon>
                                                <polygon id="Shape" points="13.3505371 21.4464674 12.5885667 20.6060326 9.74292453 23.0913315 9.74292453 33.6825 10.8891509 33.6825 10.8891509 23.5961685"></polygon>
                                                <polygon id="Shape" points="24.5434131 12.2413713 25.3174359 13.0711287 28.0825472 10.5863975 28.0825472 0 26.9363208 0 26.9363208 10.0911025"></polygon>
                                                <polygon id="Shape" points="26.9363208 33.6825 28.0825472 33.6825 28.0825472 23.0961025 25.3174359 20.6113713 24.5434131 21.4411287 26.9363208 23.5913975"></polygon>
                                                <polygon id="Shape" points="1.05287016 9.16475244 0.242365689 9.96024756 7.86069836 17.4375 12.9695519 17.4375 12.9695519 16.3125 8.33548089 16.3125"></polygon>
                                                <polygon id="Shape" points="24.9304245 16.3125 24.9304245 17.4375 30.0392781 17.4375 37.6576107 9.96024756 36.8471063 9.16475244 29.5644955 16.3125"></polygon>
                                                <polygon id="Shape" points="18.3396226 21.166875 18.3396226 33.6825 19.4858491 33.6825 19.4858491 21.166875"></polygon>
                                                <polygon id="Shape" points="18.3396226 0.0675 18.3396226 12.58875 19.4858491 12.58875 19.4858491 0.0675"></polygon>
                                            </g>
                                        </g>
                                    </g>
                                    <path d="M46.995283,54.5625 C42.2474578,54.5625 38.3985849,58.3400974 38.3985849,63 L38.3985849,78.75 C38.3985849,83.4099026 42.2474578,87.1875 46.995283,87.1875 L63.0424528,87.1875 C67.7902781,87.1875 71.6391509,83.4099026 71.6391509,78.75 L71.6391509,63 C71.6391509,58.3400974 67.7902781,54.5625 63.0424528,54.5625 L46.995283,54.5625 Z M46.995283,53.4375 L63.0424528,53.4375 C68.4233215,53.4375 72.7853774,57.7187771 72.7853774,63 L72.7853774,78.75 C72.7853774,84.0312229 68.4233215,88.3125 63.0424528,88.3125 L46.995283,88.3125 C41.6144144,88.3125 37.2523585,84.0312229 37.2523585,78.75 L37.2523585,63 C37.2523585,57.7187771 41.6144144,53.4375 46.995283,53.4375 Z" id="Rectangle_path" fill="#F4F4F4" fill-rule="nonzero"></path>
                                    <path d="M46.995283,54.5625 C42.2474578,54.5625 38.3985849,58.3400974 38.3985849,63 L38.3985849,78.75 C38.3985849,83.4099026 42.2474578,87.1875 46.995283,87.1875 L63.0424528,87.1875 C67.7902781,87.1875 71.6391509,83.4099026 71.6391509,78.75 L71.6391509,63 C71.6391509,58.3400974 67.7902781,54.5625 63.0424528,54.5625 L46.995283,54.5625 Z M46.995283,53.4375 L63.0424528,53.4375 C68.4233215,53.4375 72.7853774,57.7187771 72.7853774,63 L72.7853774,78.75 C72.7853774,84.0312229 68.4233215,88.3125 63.0424528,88.3125 L46.995283,88.3125 C41.6144144,88.3125 37.2523585,84.0312229 37.2523585,78.75 L37.2523585,63 C37.2523585,57.7187771 41.6144144,53.4375 46.995283,53.4375 Z" id="Rectangle_path" fill="#000000" fill-rule="nonzero" opacity="0.0599999987"></path>
                                    <path d="M46.995283,54.5625 C42.2474578,54.5625 38.3985849,58.3400974 38.3985849,63 L38.3985849,78.75 C38.3985849,83.4099026 42.2474578,87.1875 46.995283,87.1875 L63.0424528,87.1875 C67.7902781,87.1875 71.6391509,83.4099026 71.6391509,78.75 L71.6391509,63 C71.6391509,58.3400974 67.7902781,54.5625 63.0424528,54.5625 L46.995283,54.5625 Z M46.995283,53.4375 L63.0424528,53.4375 C68.4233215,53.4375 72.7853774,57.7187771 72.7853774,63 L72.7853774,78.75 C72.7853774,84.0312229 68.4233215,88.3125 63.0424528,88.3125 L46.995283,88.3125 C41.6144144,88.3125 37.2523585,84.0312229 37.2523585,78.75 L37.2523585,63 C37.2523585,57.7187771 41.6144144,53.4375 46.995283,53.4375 Z" id="Rectangle_path" fill="#000000" fill-rule="nonzero" opacity="0.0599999987"></path>
                                </g>
                            </g>
                        </g>
                        <ellipse id="Oval" fill="#343232" cx="25.6" cy="41.9333333" rx="22" ry="21.5"></ellipse>
                        <path d="M13.1166016,48.2548828 C13.7787109,48.2548828 14.4203125,48.1582031 15.0414062,47.9648438 C15.7269531,47.7714844 16.3158203,47.3378906 16.8080078,46.6640625 C17.3119141,46.0019531 17.5638672,45.1259766 17.5638672,44.0361328 C17.5638672,42.6591797 17.1698242,41.644043 16.3817383,40.9907227 C15.5936523,40.3374023 14.4730469,40.0107422 13.0199219,40.0107422 C12.7679687,40.0107422 12.5951172,40.0224609 12.5013672,40.0458984 L12.5013672,40.0458984 L12.5013672,38.0419922 L17.1244141,38.0419922 L17.1244141,35.9941406 L10.4710937,35.9941406 L10.4710937,42.3134766 C11.4203125,42.1083984 12.1585937,42.0058594 12.6859375,42.0058594 C13.5472656,42.0058594 14.2064453,42.1743164 14.6634766,42.5112305 C15.1205078,42.8481445 15.3490234,43.3828125 15.3490234,44.1152344 L15.3490234,44.1152344 L15.3490234,44.2119141 C15.3490234,44.4638672 15.3080078,44.7011719 15.2259766,44.9238281 C15.1380859,45.1757812 15.0003906,45.3984375 14.8128906,45.5917969 C14.6253906,45.7851562 14.3910156,45.9316406 14.1097656,46.03125 C13.8578125,46.1191406 13.5707031,46.1630859 13.2484375,46.1630859 L13.2484375,46.1630859 L13.1341797,46.1630859 C12.5951172,46.1630859 12.1,46.0634766 11.6488281,45.8642578 C11.1976562,45.6650391 10.7611328,45.4042969 10.3392578,45.0820312 L10.3392578,45.0820312 L9.40761719,47.0859375 C9.56582031,47.2441406 9.78847656,47.4023438 10.0755859,47.5605469 C10.3626953,47.71875 10.7757812,47.8740234 11.3148437,48.0263672 C11.8539062,48.1787109 12.4544922,48.2548828 13.1166016,48.2548828 Z M22.9515625,48.2548828 C23.7601562,48.2548828 24.4369141,48.065918 24.9818359,47.6879883 C25.5267578,47.3100586 25.9676758,46.8237305 26.3045898,46.2290039 C26.6415039,45.6342773 26.8817383,44.9707031 27.025293,44.2382812 C27.1688477,43.5058594 27.240625,42.7792969 27.240625,42.0585938 C27.240625,41.296875 27.1439453,40.4707031 26.9505859,39.5800781 C26.7689453,38.6074219 26.3294922,37.7548828 25.6322266,37.0224609 C24.9466797,36.2548828 24.053125,35.8710938 22.9515625,35.8710938 C22.1488281,35.8710938 21.4076172,36.1069336 20.7279297,36.5786133 C20.0482422,37.050293 19.5296875,37.7783203 19.1722656,38.7626953 C18.8265625,39.7705078 18.6537109,40.8691406 18.6537109,42.0585938 C18.6537109,42.7792969 18.7254883,43.5058594 18.869043,44.2382812 C19.0125977,44.9707031 19.252832,45.6342773 19.5897461,46.2290039 C19.9266602,46.8237305 20.3675781,47.3100586 20.9125,47.6879883 C21.4574219,48.065918 22.1371094,48.2548828 22.9515625,48.2548828 Z M23.0042969,46.1806641 L22.9515625,46.1806641 C22.6058594,46.1806641 22.3099609,46.0722656 22.0638672,45.8554688 C21.8177734,45.6386719 21.6170898,45.3413086 21.4618164,44.9633789 C21.306543,44.5854492 21.1893555,44.1474609 21.1102539,43.6494141 C21.0311523,43.1513672 20.9916016,42.6152344 20.9916016,42.0410156 C20.9857422,41.9589844 20.9828125,41.8740234 20.9828125,41.7861328 C20.9828125,41.6455078 20.9886719,41.4990234 21.0003906,41.3466797 C21.0179687,41.0888672 21.0384766,40.8046875 21.0619141,40.4941406 C21.1146484,39.8789062 21.3080078,39.2958984 21.6419922,38.7451172 C21.9701172,38.2060547 22.3949219,37.9365234 22.9164062,37.9365234 L22.9164062,37.9365234 L22.9515625,37.9365234 C23.2035156,37.9365234 23.4466797,38.0170898 23.6810547,38.1782227 C23.9154297,38.3393555 24.1234375,38.5854492 24.3050781,38.9165039 C24.4867187,39.2475586 24.6317383,39.6708984 24.7401367,40.1865234 C24.8485352,40.7021484 24.9027344,41.3203125 24.9027344,42.0410156 L24.9027344,42.0410156 L24.9027344,42.2695312 C24.9027344,42.6152344 24.8792969,42.9873047 24.8324219,43.3857422 C24.7796875,43.8720703 24.6786133,44.324707 24.5291992,44.7436523 C24.3797852,45.1625977 24.1761719,45.5097656 23.9183594,45.7851562 C23.6722656,46.0488281 23.3675781,46.1806641 23.0042969,46.1806641 L23.0042969,46.1806641 Z M30.4925781,41.4873047 C30.9730469,41.4873047 31.393457,41.4052734 31.7538086,41.2412109 C32.1141602,41.0771484 32.4144531,40.8632812 32.6546875,40.5996094 C32.8949219,40.3359375 33.0750977,40.0356445 33.1952148,39.6987305 C33.315332,39.3618164 33.3753906,39.0146484 33.3753906,38.6572266 C33.3695312,38.4873047 33.3080078,38.1503906 33.1908203,37.6464844 C33.0736328,37.21875 32.7689453,36.8115234 32.2767578,36.4248047 C31.7962891,36.0439453 31.2015625,35.8535156 30.4925781,35.8535156 C30.1292969,35.8535156 29.7748047,35.9135742 29.4291016,36.0336914 C29.0833984,36.1538086 28.7743164,36.3369141 28.5018555,36.5830078 C28.2293945,36.8291016 28.0155273,37.1279297 27.8602539,37.4794922 C27.7049805,37.8310547 27.6273437,38.2294922 27.6273437,38.6748047 C27.6273437,39.0205078 27.6874023,39.3618164 27.8075195,39.6987305 C27.9276367,40.0356445 28.1078125,40.3359375 28.3480469,40.5996094 C28.5882812,40.8632812 28.8856445,41.0771484 29.2401367,41.2412109 C29.5946289,41.4052734 30.0121094,41.4873047 30.4925781,41.4873047 Z M28.928125,48.1054688 L40.1605469,37.0927734 L38.9652344,35.8535156 L27.7328125,46.8134766 L28.928125,48.1054688 Z M30.475,39.9404297 C30.2933594,39.9404297 30.1395508,39.9008789 30.0135742,39.8217773 C29.8875977,39.7426758 29.7821289,39.6430664 29.697168,39.5229492 C29.612207,39.402832 29.5492187,39.2651367 29.5082031,39.1098633 C29.4671875,38.9545898 29.4466797,38.7978516 29.4466797,38.6396484 C29.4466797,38.3056641 29.5375,38.0097656 29.7191406,37.7519531 C29.9007812,37.4941406 30.1527344,37.3652344 30.475,37.3652344 C30.7503906,37.3652344 30.990625,37.4853516 31.1957031,37.7255859 C31.4007812,37.9658203 31.5033203,38.2705078 31.5033203,38.6396484 C31.5033203,38.7744141 31.4696289,38.9428711 31.4022461,39.1450195 C31.3348633,39.347168 31.2293945,39.5302734 31.0858398,39.6943359 C30.9422852,39.8583984 30.7386719,39.9404297 30.475,39.9404297 Z M37.2953125,48.140625 C37.7757812,48.140625 38.1932617,48.0600586 38.5477539,47.8989258 C38.9022461,47.737793 39.1996094,47.5253906 39.4398437,47.2617188 C39.6800781,46.9980469 39.8602539,46.6977539 39.9803711,46.3608398 C40.1004883,46.0239258 40.1605469,45.6767578 40.1605469,45.3193359 C40.1605469,44.9677734 40.0697266,44.5913086 39.8880859,44.1899414 C39.7064453,43.7885742 39.4369141,43.4208984 39.0794922,43.0869141 C38.5990234,42.7001953 38.0101562,42.5068359 37.3128906,42.5068359 C36.94375,42.5068359 36.5819336,42.5698242 36.2274414,42.6958008 C35.8729492,42.8217773 35.5609375,43.0078125 35.2914062,43.2539062 C35.021875,43.5 34.8080078,43.800293 34.6498047,44.1547852 C34.4916016,44.5092773 34.4125,44.9033203 34.4125,45.3369141 C34.4125,45.6826172 34.4725586,46.0239258 34.5926758,46.3608398 C34.712793,46.6977539 34.8929687,46.9980469 35.1332031,47.2617188 C35.3734375,47.5253906 35.6737305,47.737793 36.034082,47.8989258 C36.3944336,48.0600586 36.8148437,48.140625 37.2953125,48.140625 Z M37.2777344,46.59375 C36.9320312,46.59375 36.6742187,46.4589844 36.5042969,46.1894531 C36.334375,45.9199219 36.2494141,45.6298828 36.2494141,45.3193359 C36.2494141,45.0087891 36.334375,44.71875 36.5042969,44.4492188 C36.6742187,44.1738281 36.9320312,44.0361328 37.2777344,44.0361328 C37.6234375,44.0361328 37.88125,44.1723633 38.0511719,44.4448242 C38.2210937,44.7172852 38.3060547,45.0087891 38.3060547,45.3193359 C38.3060547,45.6298828 38.2210937,45.9199219 38.0511719,46.1894531 C37.88125,46.4589844 37.6234375,46.59375 37.2777344,46.59375 Z" id="50%" fill="#FFFFFF" fill-rule="nonzero"></path>
                    </g>
                </g>
            </g>
        </g>
    </g>
</svg>