<svg width="84" height="32" viewBox="0 0 84 32" xmlns="http://www.w3.org/2000/svg"><g id="Logos-/-Logo---Xiaomi-/-Gris" stroke="none" stroke-width="1" fill="none" fill-rule="evenodd"><path d="M44.502 11.835h-1.839c-.046.276-.033 8.397.012 8.551h1.827v-8.55zm35.752 8.55h1.838v-8.55H80.25c-.049.203-.044 8.377.004 8.55zm-42.502-4.372l.646-.83.658-.843.643-.826c.22-.28.44-.56.657-.843.21-.273.434-.535.649-.849h-.253c-.548 0-1.098.006-1.646-.003a.403.403 0 00-.373.18c-.636.85-1.281 1.693-1.923 2.54-.043.054-.089.107-.146.177-.059-.074-.109-.133-.155-.195-.638-.849-1.277-1.696-1.911-2.548-.079-.107-.159-.156-.298-.154-.613.01-1.226.003-1.84.004-.052 0-.104.011-.184.02l3.228 4.18-3.334 4.288c-.008.01-.012.025-.016.04-.002.005 0 .012.002.02l.013.025c.616 0 1.236-.007 1.856.004.164.003.257-.054.352-.179.677-.89 1.36-1.777 2.042-2.664.05-.066.104-.13.171-.215.067.083.12.147.171.213.675.892 1.352 1.783 2.021 2.68a.368.368 0 00.338.164c.428-.009.856-.003 1.283-.003h.738l-3.389-4.383zm24.91.012c-.009-.483-.055-.957-.213-1.413-.246-.707-.691-1.229-1.421-1.454a3.036 3.036 0 00-.797-.133c-1.206-.035-2.078.542-2.424 1.712-.179.604-.198 1.22-.139 1.842.046.485.158.954.395 1.387.311.567.772.947 1.409 1.087.234.052.479.076.719.076 1.077.002 1.858-.559 2.225-1.575.179-.496.231-1.01.246-1.529zm1.97-.01c.006.674-.08 1.334-.313 1.97-.427 1.17-1.234 1.953-2.42 2.322a5.851 5.851 0 01-3.412.034c-1.26-.363-2.113-1.183-2.529-2.425a5.855 5.855 0 01-.092-3.493c.362-1.297 1.195-2.168 2.486-2.567a5.932 5.932 0 013.638.016c1.355.436 2.167 1.391 2.499 2.765.109.452.149.912.143 1.377zm-12.256.298c-.062-.008-.109-.018-.157-.02a11.486 11.486 0 00-1.75.011c-.447.035-.891.1-1.318.247-.285.098-.554.224-.774.437-.563.545-.467 1.357.208 1.747.287.166.602.254.926.311.898.156 1.787.076 2.67-.113.206-.044.206-.048.206-.268V16.53c0-.069-.008-.138-.011-.216zm-.062-1.415c.088-.646-.196-1.197-.741-1.464-.364-.18-.758-.243-1.159-.258a12.202 12.202 0 00-3.512.404c-.02.005-.041.007-.09.016-.029-.493-.007-.979-.013-1.49.251-.066.495-.138.743-.194 1.004-.226 2.019-.36 3.051-.306.607.033 1.206.103 1.785.298 1.02.345 1.595 1.062 1.753 2.114.051.337.075.681.077 1.022.008 1.574.003 3.15.003 4.724 0 .227 0 .228-.211.298-.81.267-1.643.408-2.491.473-.807.063-1.61.024-2.409-.09-.56-.08-1.104-.218-1.609-.482-.855-.445-1.29-1.148-1.309-2.116-.018-.908.366-1.59 1.121-2.077.541-.348 1.146-.533 1.771-.658.948-.19 1.908-.23 2.872-.214h.368zm26.078 5.222v-5.174c0-.306.008-.613-.003-.919-.032-.852-.4-1.519-1.137-1.96a3.205 3.205 0 00-.64-.289c-.642-.213-1.302-.214-1.966-.138-.798.091-1.543.33-2.222.765-.04.026-.085.045-.124.065-.028-.017-.048-.025-.065-.038-.695-.557-1.506-.784-2.38-.828-.827-.04-1.632.098-2.424.326-.445.127-.88.281-1.289.491-.05.52-.009 7.768.047 7.961h1.846v-6.879c.047-.024.071-.04.097-.05a4.15 4.15 0 011.824-.27c.631.052 1.134.462 1.295 1.05.057.21.075.435.076.654.006 1.74.003 3.477.004 5.216 0 .09.008.18.013.281h1.848c.005-.097.013-.187.013-.278.001-2.023.006-4.047-.007-6.07-.002-.248.081-.372.289-.475.598-.299 1.219-.446 1.881-.296.578.13.963.481 1.097 1.07.037.164.043.338.044.508.003 1.753.002 3.506.002 5.26v.281h1.881v-.264zM10.898 17.8c0 .826-.001 1.652.001 2.478.001.271.046.313.309.314h1.753c.222 0 .277-.057.287-.275l.001-.107-.001-4.808c0-.057.003-.114-.003-.17-.015-.135-.067-.188-.202-.209-.049-.007-.1-.005-.149-.005h-1.646c-.304.001-.346.044-.35.344V17.8zm10.145-1.72v-4.124c0-.058.002-.115-.001-.17-.009-.152-.054-.2-.206-.22-.063-.008-.128-.007-.192-.007H19.19c-.367.001-.394.028-.394.405l-.001 8.226.001.042c.001.327.032.36.35.36h1.582c.282 0 .314-.034.315-.325V16.08zm-14.051-.006v4.17c0 .31.037.348.34.348.506.001 1.013-.007 1.519.002.404.008.389-.08.389-.382-.002-2.145-.001-4.29-.001-6.435 0-.278.01-.288.291-.288h2.845c.413 0 .828-.014 1.24.008.543.03.942.293 1.158.805.092.22.126.45.126.688a4685.2 4685.2 0 000 5.302c0 .26.038.3.296.3h1.646c.251 0 .3-.05.304-.299v-5.965c0-.085 0-.17-.004-.256-.052-1.174-.803-2.13-1.92-2.412a3.595 3.595 0 00-.866-.097c-2.338-.007-4.677-.004-7.015-.003-.303 0-.346.045-.348.345v4.17zM2 16.072c0-3.685 0-7.37.002-11.055 0-.14.008-.287.048-.42A.87.87 0 012.855 4h.15c7.344 0 14.688 0 22.032.002.133 0 .275.005.399.046a.836.836 0 01.598.734c.01.085.009.171.009.257l-.001 22.087c0 .127-.002.26-.032.382a.851.851 0 01-.77.636c-.092.006-.185.005-.278.005H3.08c-.086 0-.171-.003-.257-.003-.428.002-.825-.406-.822-.849.001-.086-.001-.17-.001-.256V16.072z" id="Fill-1" fill="#333"/></g></svg>