<svg xmlns="http://www.w3.org/2000/svg" width="44" height="44" viewBox="0 0 44 44"><g fill="none" fill-rule="evenodd"><path fill="#D8D8D8" fill-opacity="0" d="M0 0h44v44H0z"/><path d="M0 0h44v44H0z"/><path stroke="#666" stroke-linecap="round" stroke-linejoin="round" stroke-width=".917" d="M10.035 32.409l.459 4.707c.05.53.394.916.802.916h3.944c.408 0 .751-.396.802-.916l.458-4.707"/><path stroke="#666" stroke-linecap="round" stroke-linejoin="round" stroke-width=".917" d="M11.142 21.594h4.24a3.396 3.396 0 013.396 3.397v4.14a3.396 3.396 0 01-3.396 3.397h-4.24a3.395 3.395 0 01-3.396-3.396V24.99a3.396 3.396 0 013.396-3.397z"/><path stroke="#E60000" stroke-linecap="round" stroke-linejoin="round" stroke-width=".928" d="M13.264 24.796v3.162h2.75"/><path stroke="#666" stroke-linecap="round" stroke-linejoin="round" stroke-width=".917" d="M10.051 21.594l.459-4.64c.05-.52.391-.917.797-.917h3.923c.406 0 .747.392.798.917l.458 4.64m9.712-8.302h7.194a2.822 2.822 0 012.823 2.823V35.23a2.822 2.822 0 01-2.823 2.823h-7.194a2.823 2.823 0 01-2.823-2.823V16.115a2.822 2.822 0 012.823-2.823h0z"/><path stroke="#E60000" stroke-linecap="round" stroke-width=".928" d="M27.844 34.393h3.896"/><path stroke="#666" stroke-linecap="round" stroke-linejoin="round" stroke-width=".917" d="M10.198 34.393h-3.25a2.822 2.822 0 01-2.823-2.823V12.448a2.818 2.818 0 012.823-2.823h30.104a2.818 2.818 0 012.823 2.823V31.57a2.818 2.818 0 01-2.823 2.823h-.844m-12.833-.018h-6.99"/></g></svg>