<svg xmlns="http://www.w3.org/2000/svg" width="65" height="60" viewBox="0 0 65 60"><g fill="none" fill-rule="evenodd" transform="translate(-9 -10)"><path d="M0 0h80v80H0z"/><path stroke="#333" stroke-linecap="round" stroke-width="3.333" d="M37.596 11.73c21.204 0 25.962 16.25 25.962 30.62 0 14.35-11.633 25.983-25.983 25.983-14.35 0-25.983-11.633-25.983-25.983.025-14.354 4.658-30.62 26.004-30.62z"/><path stroke="#333" stroke-linecap="round" stroke-width="3.333" d="M46.25 53.188c-4.337 4.763-11.714 5.11-16.48.774h-.02a10.223 10.223 0 0 1-.646-.637m-15.425-23.05l57.988-6.942m-37.775-11.02s7.579 4.683 9.475 13.695"/><circle cx="29.258" cy="40.862" r="3.746" fill="#333" fill-rule="nonzero"/><circle cx="46.737" cy="40.862" r="3.746" fill="#333" fill-rule="nonzero"/></g></svg>