<?xml version="1.0" encoding="UTF-8"?>
<svg width="94px" height="94px" viewBox="0 0 94 94" version="1.1" xmlns="http://www.w3.org/2000/svg" xmlns:xlink="http://www.w3.org/1999/xlink">
    <title>battery-charge-icon_desñtop</title>
    <defs>
        <linearGradient x1="0%" y1="50%" x2="100%" y2="50%" id="linearGradient-1">
            <stop stop-color="#EBEBEB" offset="0%"></stop>
            <stop stop-color="#BDBDBD" offset="100%"></stop>
        </linearGradient>
        <linearGradient x1="-0.0483870927%" y1="50%" x2="99.9999916%" y2="50%" id="linearGradient-2">
            <stop stop-color="#D0D0D0" offset="0%"></stop>
            <stop stop-color="#FFFFFF" offset="100%"></stop>
        </linearGradient>
        <linearGradient x1="-0.0935453695%" y1="50%" x2="100%" y2="50%" id="linearGradient-3">
            <stop stop-color="#EBEBEB" offset="0%"></stop>
            <stop stop-color="#BDBDBD" offset="100%"></stop>
        </linearGradient>
    </defs>
    <g id="Landing" stroke="none" stroke-width="1" fill="none" fill-rule="evenodd">
        <g id="LP_Preventa-Samsung-Galaxy-Note-XX-+-Watch----Note---Desktop" transform="translate(-444.000000, -2682.000000)">
            <g id="Group-6" transform="translate(50.000000, 2664.000000)">
                <g id="1" transform="translate(300.000000, 0.000000)">
                    <g id="Group" transform="translate(76.000000, 0.000000)">
                        <g id="interchangable-batteries-hi" transform="translate(23.000000, 23.000000)">
                            <path d="M57.79375,17.5 L57.79375,13.25625 C57.79375,11.6680673 56.5075559,10.3799137 54.919375,10.3775 L46.606875,10.3775 C45.0255346,10.3895166 43.75,11.674864 43.75,13.25625 L43.75,17.5 L57.79375,17.5 Z" id="Path" fill="url(#linearGradient-1)" fill-rule="nonzero"></path>
                            <path d="M57.79375,17.5 L57.79375,13.25625 C57.79375,11.6680673 56.5075559,10.3799137 54.919375,10.3775 L46.606875,10.3775 C45.0255346,10.3895166 43.75,11.674864 43.75,13.25625 L43.75,17.5 L57.79375,17.5 Z" id="Path" fill="#000000" fill-rule="nonzero" opacity="0.12"></path>
                            <g id="Group" stroke-linecap="round" stroke-linejoin="round"></g>
                            <g id="Group" stroke-linecap="round" stroke-linejoin="round"></g>
                            <rect id="Rectangle" x="0" y="0" width="84" height="84"></rect>
                            <g id="Group"></g>
                            <path d="M37.625,17.3775 L60.449375,17.3775 C62.8283746,17.3847371 64.7524238,19.3166156 64.7500023,21.695625 L64.7500023,62.125 C64.7500023,63.2690776 64.2955169,64.3662968 63.4865319,65.1752819 C62.6775468,65.9842669 61.5803276,66.43875 60.43625,66.43875 L47.27625,66.43875" id="Path" fill="url(#linearGradient-2)" fill-rule="nonzero"></path>
                            <path d="M40.280625,24.5 L40.280625,20.25625 C40.2782158,18.6673593 38.9907657,17.3799092 37.401875,17.3775 L29.11125,17.3775 C27.5281987,17.3871236 26.25,18.6731695 26.25,20.25625 L26.25,24.5 L40.280625,24.5 Z" id="Path" fill="url(#linearGradient-3)" fill-rule="nonzero"></path>
                            <path d="M40.280625,24.5 L40.280625,20.25625 C40.2782158,18.6673593 38.9907657,17.3799092 37.401875,17.3775 L29.11125,17.3775 C27.5281987,17.3871236 26.25,18.6731695 26.25,20.25625 L26.25,24.5 L40.280625,24.5 Z" id="Path" fill="#000000" fill-rule="nonzero" opacity="0.12"></path>
                            <path d="M47.27625,62.405 L47.27625,69.18625 C47.27625,71.5686683 45.3449183,73.5 42.9625,73.5 L23.5375,73.5 C21.1550817,73.5 19.22375,71.5686683 19.22375,69.18625 L19.22375,28.7 C19.22375,26.3175817 21.1550817,24.38625 23.5375,24.38625 L42.9625,24.38625 C45.3449183,24.38625 47.27625,26.3175817 47.27625,28.7 L47.27625,62.3875 L47.27625,62.405 Z" id="Path" fill="#FFFFFF" fill-rule="nonzero"></path>
                            <path d="M29.72375,34.0025 L32.34875,34.0025 L32.34875,36.6275 C32.34875,37.1107492 32.7405008,37.5025 33.22375,37.5025 C33.7069992,37.5025 34.09875,37.1107492 34.09875,36.6275 L34.09875,34.0025 L36.72375,34.0025 C37.2069992,34.0025 37.59875,33.6107492 37.59875,33.1275 C37.59875,32.6442508 37.2069992,32.2525 36.72375,32.2525 L34.09875,32.2525 L34.09875,29.6275 C34.09875,29.1442508 33.7069992,28.7525 33.22375,28.7525 C32.7405008,28.7525 32.34875,29.1442508 32.34875,29.6275 L32.34875,32.2525 L29.72375,32.2525 C29.2405008,32.2525 28.84875,32.6442508 28.84875,33.1275 C28.84875,33.6107492 29.2405008,34.0025 29.72375,34.0025 Z" id="Path" fill="#666666" fill-rule="nonzero"></path>
                            <path d="M36.72375,65.5025 L29.72375,65.5025 C29.2405008,65.5025 28.84875,65.8942508 28.84875,66.3775 C28.84875,66.8607492 29.2405008,67.2525 29.72375,67.2525 L36.72375,67.2525 C37.2069992,67.2525 37.59875,66.8607492 37.59875,66.3775 C37.59875,65.8942508 37.2069992,65.5025 36.72375,65.5025 Z" id="Path" fill="#666666" fill-rule="nonzero"></path>
                            <path d="M56.083125,44.463125 L56.083125,44.463125 C55.5998758,44.463125 55.208125,44.8548758 55.208125,45.338125 C55.1840589,51.1390672 50.4784877,55.8309538 44.6775,55.838125 L44.6775,55.838125 C38.8775551,55.8116708 34.1870622,51.1074973 34.1775,45.3075 L34.1775,42.245 L38.00125,46.081875 C38.1694235,46.246978 38.3955782,46.3396386 38.63125,46.34 C38.9934482,46.3496468 39.3241251,46.1350639 39.4628612,45.8003508 C39.6015973,45.4656377 39.5196902,45.0800418 39.256875,44.830625 L33.87125,39.50625 L33.87125,39.50625 C33.8327459,39.4639211 33.7885783,39.4271148 33.74,39.396875 L33.6875,39.375 L33.595625,39.326875 C33.5685803,39.3161478 33.5408006,39.3073753 33.5125,39.300625 L33.429375,39.274375 C33.3711213,39.2700641 33.3126287,39.2700641 33.254375,39.274375 L33.254375,39.274375 C33.1961296,39.2698462 33.1376204,39.2698462 33.079375,39.274375 L32.983125,39.305 L32.913125,39.305 L32.8125,39.375 L32.746875,39.414375 C32.7148284,39.4338613 32.6854206,39.4573875 32.659375,39.484375 L32.61125,39.519375 L27.36125,44.769375 C27.1369542,44.9936708 27.0493567,45.3205891 27.1314546,45.6269828 C27.2135526,45.9333766 27.4528734,46.1726974 27.7592672,46.2547954 C28.0656609,46.3368933 28.3925792,46.2492958 28.616875,46.025 L32.375,42.27125 L32.375,45.33375 C32.3846174,52.1191246 37.8790146,57.6193897 44.664375,57.63625 L44.664375,57.63625 C51.4507448,57.629033 56.9524141,52.1332333 56.9669193,45.346875 C56.969238,45.1117735 56.8768879,44.8856126 56.7106376,44.7193624 C56.5443874,44.5531121 56.3182265,44.460762 56.083125,44.463125 L56.083125,44.463125 Z" id="Path" fill="#E60000" fill-rule="nonzero"></path>
                            <g id="Group" opacity="0.12" transform="translate(26.687500, 41.125000)" fill="#000000" fill-rule="nonzero">
                                <path d="M11.89125,4.493125 C11.6558917,4.49332665 11.4303758,4.39870462 11.265625,4.230625 L7.4375,0.398125 L7.4375,1.150625 L11.26125,4.9875 C11.5520168,5.34250646 12.0676436,5.41257541 12.4426012,5.14803478 C12.8175588,4.88349416 12.9244503,4.37422518 12.6875,3.98125 C12.6455165,4.07364056 12.5877809,4.15802346 12.516875,4.230625 C12.3521242,4.39870462 12.1266083,4.49332665 11.89125,4.493125 Z" id="Path"></path>
                                <path d="M1.911875,4.1475 C1.74709867,4.3172302 1.52062027,4.41301131 1.2840625,4.41301131 C1.04750473,4.41301131 0.821026326,4.3172302 0.65625,4.1475 C0.58534413,4.07489846 0.527608459,3.99051556 0.485625,3.898125 C0.248674714,4.29110018 0.35556619,4.80036916 0.730523772,5.06490978 C1.10548135,5.32945041 1.62110818,5.25938146 1.911875,4.904375 L5.6875,1.14625 L5.6875,0.389375 L1.911875,4.1475 Z" id="Path"></path>
                                <path d="M17.9725,15.75 L17.9725,15.75 C11.1922563,15.7307532 5.70191928,10.2365057 5.6875,3.45625 L5.6875,4.213125 C5.69951454,10.9975051 11.1925115,16.4963686 17.976875,16.515625 L17.976875,16.515625 C24.7639577,16.5084154 30.2668825,11.0133155 30.28375,4.22625 C30.2880527,4.17383816 30.2880527,4.12116184 30.28375,4.06875 C29.9436931,10.6188598 24.5314298,15.754163 17.9725,15.75 L17.9725,15.75 Z" id="Path"></path>
                            </g>
                        </g>
                    </g>
                </g>
            </g>
        </g>
    </g>
</svg>