<svg xmlns="http://www.w3.org/2000/svg" xmlns:xlink="http://www.w3.org/1999/xlink" width="400" height="324" viewBox="0 0 400 324">
    <defs>
        <path id="g2vmao2ppa" d="M0 0L400 0 400 324 0 324z"/>
    </defs>
    <g fill="none" fill-rule="evenodd">
        <g>
            <g>
                <g transform="translate(-440 -940) translate(20 860) translate(420 80)">
                    <mask id="ndeefm560b" fill="#fff">
                        <use xlink:href="#g2vmao2ppa"/>
                    </mask>
                    <g mask="url(#ndeefm560b)">
                        <g>
                            <path fill-rule="nonzero" d="M0 0H398V398H0z" transform="translate(0 -35)"/>
                            <g>
                                <path stroke="#E60000" stroke-dasharray="1.362" stroke-linejoin="round" stroke-width="1.003" d="M121.742 154.963c0-15.072 12.218-27.29 27.291-27.29s27.292 12.218 27.292 27.29c0 15.073-12.219 27.292-27.292 27.292-15.073 0-27.291-12.219-27.291-27.292z" transform="translate(0 -35) translate(-.183 46.462)"/>
                                <path stroke="#E60000" stroke-dasharray="1.362" stroke-linejoin="round" stroke-width="1.003" d="M128.378 154.963c0-11.407 9.248-20.655 20.655-20.655 11.408 0 20.655 9.248 20.655 20.655 0 11.408-9.247 20.655-20.655 20.655-11.407 0-20.655-9.247-20.655-20.655z" transform="translate(0 -35) translate(-.183 46.462)"/>
                                <path stroke="#E60000" stroke-dasharray="1.362" stroke-linejoin="round" stroke-width="1.003" d="M135.264 154.963c0-7.604 6.165-13.769 13.77-13.769 7.604 0 13.768 6.165 13.768 13.77 0 7.603-6.164 13.769-13.769 13.769-7.604 0-13.769-6.166-13.769-13.77z" transform="translate(0 -35) translate(-.183 46.462)"/>
                                <path fill="#E60000" d="M143.244 163.443L154.823 163.443 154.823 146.485 143.244 146.485z" transform="translate(0 -35) translate(-.183 46.462)"/>
                                <path stroke="#E60000" stroke-dasharray="1.362" stroke-linejoin="round" stroke-width="1.003" d="M205.284 154.963c0-15.072 12.219-27.29 27.291-27.29 15.073 0 27.292 12.218 27.292 27.29 0 15.073-12.219 27.292-27.292 27.292-15.072 0-27.291-12.219-27.291-27.292z" transform="translate(0 -35) translate(-.183 46.462)"/>
                                <path stroke="#E60000" stroke-dasharray="1.362" stroke-linejoin="round" stroke-width="1.003" d="M211.92 154.963c0-11.407 9.248-20.655 20.656-20.655 11.407 0 20.655 9.248 20.655 20.655 0 11.408-9.248 20.655-20.655 20.655-11.408 0-20.655-9.247-20.655-20.655z" transform="translate(0 -35) translate(-.183 46.462)"/>
                                <path stroke="#E60000" stroke-dasharray="1.362" stroke-linejoin="round" stroke-width="1.003" d="M218.807 154.963c0-7.604 6.164-13.769 13.768-13.769 7.605 0 13.77 6.165 13.77 13.77 0 7.603-6.165 13.769-13.77 13.769-7.604 0-13.768-6.166-13.768-13.77z" transform="translate(0 -35) translate(-.183 46.462)"/>
                                <path fill="#E60000" d="M226.786 163.443L238.365 163.443 238.365 146.485 226.786 146.485z" transform="translate(0 -35) translate(-.183 46.462)"/>
                                <path stroke="#E60000" stroke-dasharray="1.362" stroke-linejoin="round" stroke-width="1.003" d="M262.875 256.025c0-15.073 12.218-27.292 27.291-27.292s27.292 12.219 27.292 27.292c0 15.072-12.219 27.29-27.292 27.29-15.073 0-27.291-12.218-27.291-27.29z" transform="translate(0 -35) translate(-.183 46.462)"/>
                                <path stroke="#E60000" stroke-dasharray="1.362" stroke-linejoin="round" stroke-width="1.003" d="M269.511 256.025c0-11.408 9.248-20.655 20.655-20.655 11.407 0 20.655 9.247 20.655 20.655 0 11.407-9.248 20.655-20.655 20.655-11.407 0-20.655-9.248-20.655-20.655z" transform="translate(0 -35) translate(-.183 46.462)"/>
                                <path stroke="#E60000" stroke-dasharray="1.362" stroke-linejoin="round" stroke-width="1.003" d="M276.397 256.025c0-7.605 6.165-13.77 13.769-13.77s13.769 6.165 13.769 13.77c0 7.604-6.165 13.768-13.769 13.768s-13.769-6.164-13.769-13.768z" transform="translate(0 -35) translate(-.183 46.462)"/>
                                <path fill="#E60000" d="M284.377 264.504L295.956 264.504 295.956 247.545 284.377 247.545z" transform="translate(0 -35) translate(-.183 46.462)"/>
                                <path stroke="#E60000" stroke-dasharray="1.362" stroke-linejoin="round" stroke-width="1.003" d="M90.813 223.258c0-15.073 12.219-27.292 27.291-27.292 15.073 0 27.292 12.22 27.292 27.292 0 15.072-12.219 27.291-27.292 27.291-15.072 0-27.291-12.219-27.291-27.291z" transform="translate(0 -35) translate(-.183 46.462)"/>
                                <path stroke="#E60000" stroke-dasharray="1.362" stroke-linejoin="round" stroke-width="1.003" d="M97.45 223.258c0-11.407 9.247-20.655 20.654-20.655 11.408 0 20.655 9.248 20.655 20.655 0 11.407-9.247 20.655-20.655 20.655-11.407 0-20.655-9.248-20.655-20.655z" transform="translate(0 -35) translate(-.183 46.462)"/>
                                <path stroke="#E60000" stroke-dasharray="1.362" stroke-linejoin="round" stroke-width="1.003" d="M104.336 223.258c0-7.604 6.164-13.77 13.768-13.77 7.605 0 13.77 6.166 13.77 13.77 0 7.604-6.165 13.769-13.77 13.769-7.604 0-13.768-6.165-13.768-13.769z" transform="translate(0 -35) translate(-.183 46.462)"/>
                                <path fill="#E60000" d="M112.315 231.737L123.894 231.737 123.894 214.778 112.315 214.778z" transform="translate(0 -35) translate(-.183 46.462)"/>
                                <path fill="#E60000" d="M341.417 296.832H53.105c-.34 0-.615-.276-.615-.615V89.963h1.23v205.639h287.082V89.963h1.23v206.254c0 .34-.275.615-.615.615M361.247 81.671L340.938 1.51H53.588l-19.5 80.155-1.195-.29L52.508.75c.066-.276.313-.47.597-.47h288.312c.281 0 .527.191.596.465L362.44 81.37l-1.193.301z" transform="translate(0 -35) translate(-.183 46.462)"/>
                                <path fill="#E60000" d="M260.524 89.349h93.179l6.749-7.414h-96.626c-.136 0-.268-.045-.376-.129L197.043 30.6l-59.869 51.188c-.11.096-.253.148-.4.148H34.84l6.443 7.414h98.604l57.38-48.967c.223-.191.55-.198.78-.017l62.477 48.984zm93.45 1.23h-93.663c-.137 0-.271-.046-.38-.131l-62.247-48.804-57.171 48.788c-.111.094-.253.147-.4.147h-99.11c-.179 0-.347-.078-.464-.212l-7.513-8.644c-.158-.182-.195-.44-.095-.659.1-.219.319-.36.56-.36h103.057l60.076-51.364c.22-.19.544-.198.775-.02l66.637 51.385h97.808c.243 0 .464.143.562.366.099.223.057.483-.108.663l-7.87 8.644c-.115.128-.28.2-.454.2zM34.106 304.934h322.58v-8.102H34.107v8.102zm323.196 1.23H33.491c-.34 0-.615-.276-.615-.615v-9.332c0-.34.274-.616.615-.616h323.811c.34 0 .615.276.615.616v9.332c0 .34-.275.615-.615.615zM78.948 163.477h50.85v-35.805h-50.85v35.805zm51.465 1.23h-52.08c-.34 0-.614-.274-.614-.615v-37.035c0-.34.275-.615.614-.615h52.08c.34 0 .615.275.615.615v37.035c0 .34-.275.616-.615.616zM78.948 185.801h75.423v-17.2H78.948v17.2zm76.038 1.23H78.333c-.34 0-.614-.276-.614-.614v-18.432c0-.34.275-.615.614-.615h76.653c.34 0 .615.275.615.615v18.432c0 .338-.276.614-.615.614z" transform="translate(0 -35) translate(-.183 46.462)"/>
                                <path fill="#E60000" d="M82.184 160.794h44.379v-30.438H82.184v30.438zm44.993 1.23H81.57c-.34 0-.614-.275-.614-.616v-31.667c0-.34.274-.615.614-.615h45.608c.34 0 .615.275.615.615v31.667c0 .34-.275.615-.615.615zM100.189 167.37h8.37v-2.662h-8.37v2.662zm8.984 1.23h-9.6c-.34 0-.614-.275-.614-.615v-3.893c0-.34.275-.615.615-.615h9.599c.34 0 .615.276.615.615v3.893c0 .34-.275.615-.615.615zM83.036 188.254h4.94v-1.223h-4.94v1.223zm5.556 1.23h-6.171c-.34 0-.615-.276-.615-.615v-2.452c0-.34.275-.616.615-.616h6.171c.34 0 .615.275.615.616v2.452c0 .34-.275.615-.615.615zM145.396 188.254h4.94v-1.223h-4.94v1.223zm5.556 1.23h-6.171c-.34 0-.615-.276-.615-.615v-2.452c0-.34.275-.616.615-.616h6.171c.34 0 .615.275.615.616v2.452c0 .34-.275.615-.615.615zM214.238 295.601h40.668v-77.19h-40.668v77.19zm41.283 1.23h-41.898c-.34 0-.615-.274-.615-.614v-78.421c0-.34.275-.616.615-.616h41.898c.339 0 .614.276.614.616v78.421c0 .34-.275.615-.614.615z" transform="translate(0 -35) translate(-.183 46.462)"/>
                                <path fill="#E60000" d="M213.623 222.332L255.521 222.332 255.521 221.102 213.623 221.102zM216.72 271.149L217.949 271.149 217.949 244.117 216.72 244.117zM284.14 281.651h.006-.005zm-4.73 13.95h.263l6.905-25.153h-2.298l-4.87 25.154zm.732 1.231h-1.478c-.184 0-.358-.082-.475-.224-.117-.141-.165-.327-.13-.508l5.11-26.384c.056-.29.31-.498.604-.498h3.612c.192 0 .373.09.49.242.116.153.154.35.103.536l-3.244 11.818-4 14.566c-.073.267-.316.452-.592.452z" transform="translate(0 -35) translate(-.183 46.462)"/>
                                <path fill="#E60000" d="M283.58 284.31c-.054 0-.11-.007-.163-.021-.274-.075-.453-.323-.453-.593 0-.054.007-.109.022-.163l.562-2.045c.09-.327.429-.521.756-.43.273.075.452.323.452.593 0 .054-.007.109-.022.164l-.562 2.043c-.075.273-.322.452-.593.452M300.66 295.602h.263l-4.871-25.154h-2.298l3.031 11.04 3.875 14.114zm1.008 1.23h-1.477c-.277 0-.52-.185-.594-.452l-7.243-26.384c-.05-.185-.013-.383.104-.536.116-.153.297-.242.489-.242h3.612c.294 0 .548.209.603.499l5.11 26.383c.035.18-.012.367-.129.508-.116.141-.29.223-.475.223z" transform="translate(0 -35) translate(-.183 46.462)"/>
                                <path fill="#E60000" d="M279.278 269.218h21.776v-1.44h-21.776v1.44zm22.39 1.23h-23.005c-.34 0-.614-.276-.614-.615v-2.67c0-.34.274-.616.614-.616h23.006c.34 0 .615.276.615.615v2.671c0 .34-.275.615-.615.615zM284.386 283.08h11.56l-.223-.814h-11.114l-.223.814zm12.367 1.23H283.58c-.192 0-.372-.088-.489-.241-.116-.153-.155-.351-.104-.536l.561-2.045c.074-.267.317-.452.594-.452h12.05c.278 0 .52.185.594.452l.561 2.045c.05.185.012.383-.104.536-.116.153-.297.241-.489.241z" transform="translate(0 -35) translate(-.183 46.462)"/>
                                <path fill="#E60000" d="M296.753 284.31c-.27 0-.519-.179-.593-.452l-.562-2.043c-.014-.055-.022-.11-.022-.164 0-.27.18-.518.453-.593.328-.092.666.103.756.43l.56 2.045c.016.054.023.109.023.163 0 .27-.18.518-.453.593-.054.014-.109.021-.162.021M.585 306.164L396.324 306.164 396.324 304.934.585 304.934zM52.867 189.484L341.417 189.484 341.417 188.254 52.867 188.254z" transform="translate(0 -35) translate(-.183 46.462)"/>
                                <path fill="#E60000" d="M208.932 188.869L210.162 188.869 210.162 80.583 208.932 80.583zM175.095 296.217L176.325 296.217 176.325 188.869 175.095 188.869z" transform="translate(0 -35) translate(-.183 46.462)"/>
                                <path fill="#E60000" d="M151.472 80.885L247.769 80.885 247.769 79.656 151.472 79.656zM251.964 185.801h75.422v-7.985h-75.422v7.985zm76.038 1.23h-76.653c-.34 0-.615-.276-.615-.614V177.2c0-.34.275-.615.615-.615h76.653c.34 0 .615.275.615.615v9.216c0 .338-.275.614-.615.614z" transform="translate(0 -35) translate(-.183 46.462)"/>
                                <path fill="#E60000" d="M251.964 176.586h75.422V168.6h-75.422v7.986zm76.038 1.23h-76.653c-.34 0-.615-.276-.615-.615v-9.216c0-.34.275-.615.615-.615h76.653c.34 0 .615.275.615.615v9.216c0 .34-.275.615-.615.615zM256.052 188.254h4.94v-1.223h-4.94v1.223zm5.556 1.23h-6.172c-.34 0-.614-.276-.614-.615v-2.452c0-.34.275-.616.614-.616h6.172c.34 0 .615.275.615.616v2.452c0 .34-.276.615-.615.615zM318.412 188.254h4.941v-1.223h-4.94v1.223zm5.556 1.23h-6.17c-.341 0-.616-.276-.616-.615v-2.452c0-.34.275-.616.615-.616h6.17c.341 0 .616.275.616.616v2.452c0 .34-.275.615-.615.615z" transform="translate(0 -35) translate(-.183 46.462)"/>
                                <path fill="#E60000" d="M287.281 167.569h-1.23c0-2.302-1.872-4.174-4.174-4.174h-20.735c-2.301 0-4.174 1.872-4.174 4.174h-1.23c0-2.98 2.424-5.403 5.404-5.403h20.735c2.98 0 5.404 2.423 5.404 5.403M323.613 167.569h-1.23c0-2.302-1.873-4.174-4.175-4.174h-20.735c-2.302 0-4.173 1.872-4.173 4.174h-1.23c0-2.98 2.424-5.403 5.403-5.403h20.735c2.98 0 5.405 2.423 5.405 5.403M223.906 188.254h17.34V168.6h-17.34v19.654zm17.954 1.23h-18.57c-.339 0-.614-.276-.614-.615v-20.884c0-.34.275-.615.615-.615h18.57c.339 0 .614.275.614.615v20.884c0 .34-.275.615-.615.615zM87.506 257.402h46.285v-2.756H87.506v2.756zm46.9 1.23H86.89c-.34 0-.615-.275-.615-.614v-3.987c0-.34.275-.615.615-.615h47.514c.34 0 .615.275.615.615v3.987c0 .34-.275.615-.615.615zM87.506 239.006h46.285v-2.757H87.506v2.757zm46.9 1.23H86.89c-.34 0-.615-.276-.615-.616v-3.986c0-.34.275-.616.615-.616h47.514c.34 0 .615.276.615.616v3.986c0 .34-.275.615-.615.615z" transform="translate(0 -35) translate(-.183 46.462)"/>
                                <path fill="#E60000" d="M93.457 253.416h1.582v-7.635h-1.582v7.635zm2.197 1.23h-2.811c-.34 0-.615-.275-.615-.615v-8.865c0-.34.275-.615.615-.615h2.811c.34 0 .615.276.615.615v8.865c0 .34-.275.615-.615.615z" transform="translate(0 -35) translate(-.183 46.462)"/>
                                <path fill="#E60000" d="M96.27 253.416h1.581v-5.734h-1.582v5.734zm2.196 1.23h-2.812c-.34 0-.615-.275-.615-.615v-6.964c0-.34.276-.614.615-.614h2.812c.34 0 .615.275.615.614v6.964c0 .34-.276.615-.615.615z" transform="translate(0 -35) translate(-.183 46.462)"/>
                                <path fill="#E60000" d="M99.08 253.416h1.583v-8.569H99.08v8.57zm2.197 1.23h-2.811c-.34 0-.615-.275-.615-.615v-9.799c0-.34.275-.615.615-.615h2.811c.34 0 .615.275.615.615v9.8c0 .339-.275.614-.615.614z" transform="translate(0 -35) translate(-.183 46.462)"/>
                            </g>
                        </g>
                    </g>
                </g>
            </g>
        </g>
    </g>
</svg>
