<svg width="34" height="68" viewBox="0 0 34 68" xmlns="http://www.w3.org/2000/svg"><defs><linearGradient x1="26.824%" y1="10.73%" x2="73.176%" y2="89.27%" id="a"><stop stop-color="#FFF" stop-opacity=".3" offset="0%"/><stop stop-color="#F6F6F6" stop-opacity="0" offset="100%"/></linearGradient></defs><g transform="translate(-23 -6)" fill="none" fill-rule="evenodd"><rect fill="#FFF" fill-rule="nonzero" x="23.333" y="6.667" width="33.333" height="66.667" rx="3.75"/><path d="M53.333 72.5H26.667a3.333 3.333 0 01-3.334-3.333V70a3.333 3.333 0 003.334 3.333h26.666A3.333 3.333 0 0056.667 70v-.833a3.333 3.333 0 01-3.334 3.333z" fill="#000" fill-rule="nonzero" opacity=".06"/><rect fill="#333" fill-rule="nonzero" x="25" y="13.333" width="30" height="50.833" rx=".938"/><rect fill="url(#a)" fill-rule="nonzero" opacity=".5" x="25" y="13.333" width="30" height="50.833" rx=".938"/><path d="M54.167 13.75c.23 0 .416.187.416.417v49.166c0 .23-.186.417-.416.417H25.833a.417.417 0 01-.416-.417V14.167c0-.23.186-.417.416-.417h28.334zm0-.417H25.833a.833.833 0 00-.833.834v49.166c0 .46.373.834.833.834h28.334c.46 0 .833-.373.833-.834V14.167a.833.833 0 00-.833-.834z" opacity=".24" fill="#333" fill-rule="nonzero"/><rect fill="#4A4D4E" fill-rule="nonzero" x="36.667" y="10" width="6.667" height="1" rx=".333"/><rect fill="#E60000" fill-rule="nonzero" x="34.167" y="10" width="1" height="1" rx=".333"/><circle fill="#E60000" fill-rule="nonzero" cx="40" cy="68.333" r="2.5"/><path d="M0 0h80v80H0z"/><path d="M54.167 13.333h-.534l-2.666 4.859L36.979 22.5l-5.833 3.546 18.679-5.754-2.67 4.866L39.3 30.23a.833.833 0 00-.375.6l-1.6 13.217-5.367 7.725 6.746-6.75a.833.833 0 00.242-.488l1.587-13.116 6.605-4.275 1.666 11.083-.162-12.33 3.637-6.62L55 14.305v-.138a.833.833 0 00-.833-.834z" fill="#A0A0A0" fill-rule="nonzero"/></g></svg>