<?xml version="1.0" encoding="utf-8"?>
<!-- Generator: Adobe Illustrator 21.1.0, SVG Export Plug-In . SVG Version: 6.00 Build 0)  -->
<svg version="1.1" id="Layer_1" xmlns="http://www.w3.org/2000/svg" xmlns:xlink="http://www.w3.org/1999/xlink" x="0px" y="0px"
	 viewBox="0 0 732 40" style="enable-background:new 0 0 732 40;" xml:space="preserve">
<style type="text/css">
	.st0{fill:#111111;}
</style>
<path id="_50_S13_Title_1_medium_1x.svg" class="st0" d="M20.1,24.8H6.9v-8.1h12.5v-4H6.9V5.2h13.2V0.9H1.9v28.2h18.2L20.1,24.8
	L20.1,24.8z M24,29.1h4.9v-12c0-3,1.8-5,4.6-5c2.8,0,4.1,1.6,4.1,4.6v12.4h4.9V15.7c0-4.8-2.6-7.7-7.2-7.7c-3.2,0-5.4,1.5-6.5,3.9
	h-0.1V8.4H24L24,29.1L24,29.1z M64.6,15.8C64.2,11.4,60.8,8,55.4,8c-6,0-9.9,4.2-9.9,10.8c0,6.7,3.9,10.8,10,10.8
	c5.2,0,8.8-3,9.2-7.7H60c-0.5,2.3-2,3.8-4.5,3.8c-3.1,0-5.1-2.5-5.1-6.8c0-4.3,2-6.8,5-6.8c2.6,0,4.1,1.7,4.5,3.9H64.6z M85.8,8.4
	H81v12c0,3-1.7,5-4.5,5c-2.7,0-4.2-1.6-4.2-4.6V8.4h-4.9v13.4c0,4.8,2.9,7.7,7.3,7.7c3.1,0,5.2-1.4,6.3-4h0.1v3.6h4.7L85.8,8.4
	L85.8,8.4z M98.7,11.7c2.8,0,4.7,2.1,4.8,5h-9.7C94,13.8,96,11.7,98.7,11.7L98.7,11.7z M103.5,22.9c-0.5,1.7-2.2,2.8-4.5,2.8
	c-3.2,0-5.2-2.2-5.2-5.5v-0.3h14.5v-1.6c0-6.3-3.7-10.4-9.5-10.4c-6,0-9.8,4.3-9.8,10.9c0,6.6,3.8,10.7,10,10.7
	c4.9,0,8.5-2.7,9.2-6.6H103.5L103.5,22.9z M111.4,29.1h4.9v-12c0-3,1.8-5,4.6-5c2.8,0,4.1,1.6,4.1,4.6v12.4h4.9V15.7
	c0-4.8-2.6-7.7-7.2-7.7c-3.2,0-5.4,1.5-6.5,3.9H116V8.4h-4.7L111.4,29.1L111.4,29.1z M135,3.6v4.8h-3v3.8h3v11.4
	c0,4,1.8,5.6,6.2,5.6c0.8,0,1.7-0.1,2.5-0.2v-3.7c-0.5,0.1-0.9,0.1-1.4,0.1c-1.7,0-2.5-0.8-2.5-2.5V12.1h3.9V8.4h-3.9V3.6H135z
	 M147.1,29.1h4.9V17c0-2.9,1.7-4.7,4.4-4.7c0.7,0,1.3,0.1,2,0.3V8.2c-0.5-0.1-1-0.2-1.5-0.2c-2.4,0-4.3,1.4-5,4h-0.1V8.4h-4.7
	L147.1,29.1L147.1,29.1z M168,25.8c-2.1,0-3.5-1.1-3.5-2.8c0-1.6,1.4-2.7,3.7-2.9l4.8-0.3v1.6C172.9,23.9,170.7,25.8,168,25.8z
	 M166.5,29.4c2.7,0,5.2-1.4,6.4-3.6h0.1v3.3h4.7V14.8c0-4.2-3.3-6.9-8.5-6.9c-5.3,0-8.6,2.8-8.8,6.6h4.5c0.3-1.7,1.8-2.8,4.1-2.8
	c2.4,0,3.9,1.2,3.9,3.4v1.5l-5.5,0.3c-5,0.3-7.9,2.5-7.9,6.2C159.6,26.9,162.5,29.4,166.5,29.4z M198.6,11.7c2.8,0,4.7,2.1,4.8,5
	h-9.7C193.9,13.8,195.8,11.7,198.6,11.7L198.6,11.7z M203.4,22.9c-0.5,1.7-2.2,2.8-4.5,2.8c-3.2,0-5.2-2.2-5.2-5.5v-0.3h14.5v-1.6
	c0-6.3-3.7-10.4-9.5-10.4c-6,0-9.8,4.3-9.8,10.9c0,6.6,3.8,10.7,10,10.7c4.9,0,8.5-2.7,9.2-6.6H203.4L203.4,22.9z M211.4,29.1h4.9
	V0.9h-4.9V29.1z M228.5,29.1h4.9V8.4h-4.9V29.1z M230.9,5.3c1.5,0,2.6-1.2,2.6-2.7c0-1.5-1.2-2.6-2.7-2.6c-1.4,0-2.6,1.2-2.6,2.6
	C228.3,4.1,229.4,5.3,230.9,5.3L230.9,5.3z M237.9,0.9v28.2h5v-9.3h5.7c5.7,0,9.7-3.8,9.7-9.4s-3.9-9.4-9.5-9.4H237.9z M243,5h4.6
	c3.6,0,5.7,1.9,5.7,5.3c0,3.4-2.1,5.4-5.7,5.4H243L243,5L243,5z M261.7,29.1h4.9V17.2c0-3,1.8-5.1,4.7-5.1c2.8,0,4.3,1.7,4.3,4.6
	v12.3h4.9V15.8c0-4.7-2.7-7.8-7.2-7.8c-3.1,0-5.4,1.4-6.5,3.9h-0.1v-11h-4.8L261.7,29.1L261.7,29.1z M293.4,29.5c6.1,0,10-4,10-10.8
	c0-6.7-4-10.8-10-10.8s-10,4.1-10,10.8C283.4,25.5,287.4,29.5,293.4,29.5L293.4,29.5z M293.4,25.7c-3.1,0-5.1-2.5-5.1-6.9
	c0-4.4,2-6.9,5.1-6.9c3.1,0,5.1,2.5,5.1,6.9C298.5,23.2,296.5,25.7,293.4,25.7L293.4,25.7z M306.6,29.1h4.9v-12c0-3,1.8-5,4.6-5
	c2.8,0,4.1,1.6,4.1,4.6v12.4h4.9V15.7c0-4.8-2.6-7.7-7.2-7.7c-3.2,0-5.4,1.5-6.5,3.9h-0.1V8.4h-4.7L306.6,29.1L306.6,29.1z
	 M337.8,11.7c2.8,0,4.7,2.1,4.8,5h-9.7C333.1,13.8,335.1,11.7,337.8,11.7L337.8,11.7z M342.6,22.9c-0.5,1.7-2.2,2.8-4.5,2.8
	c-3.2,0-5.2-2.2-5.2-5.5v-0.3h14.5v-1.6c0-6.3-3.7-10.4-9.5-10.4c-6,0-9.8,4.3-9.8,10.9c0,6.6,3.8,10.7,10,10.7
	c4.9,0,8.5-2.7,9.2-6.6H342.6L342.6,22.9z M366.3,8c-5.3,0-8.6,4.1-8.6,10.7c0,6.6,3.3,10.7,8.5,10.7c3,0,5.4-1.5,6.5-3.8h0.1v10.3
	h4.9V8.4h-4.8V12h-0.1C371.5,9.5,369,8,366.3,8L366.3,8z M367.6,25.5c-3.1,0-5-2.6-5-6.7s1.9-6.7,5-6.7c3.1,0,5.1,2.6,5.1,6.7
	C372.8,22.8,370.7,25.5,367.6,25.5L367.6,25.5z M399.9,8.4h-4.9v12c0,3-1.7,5-4.5,5c-2.7,0-4.2-1.6-4.2-4.6V8.4h-4.9v13.4
	c0,4.8,2.8,7.7,7.3,7.7c3.1,0,5.2-1.4,6.3-4h0.1v3.6h4.7L399.9,8.4L399.9,8.4z M412.8,11.7c2.8,0,4.7,2.1,4.8,5h-9.7
	C408.1,13.8,410.1,11.7,412.8,11.7L412.8,11.7z M417.6,22.9c-0.5,1.7-2.2,2.8-4.5,2.8c-3.2,0-5.2-2.2-5.2-5.5v-0.3h14.5v-1.6
	c0-6.3-3.7-10.4-9.5-10.4c-6,0-9.8,4.3-9.8,10.9c0,6.6,3.8,10.7,10,10.7c4.9,0,8.5-2.7,9.2-6.6H417.6L417.6,22.9z M433.5,29.1h4.9
	V16.4c0-2.5,1.6-4.3,4-4.3c2.3,0,3.7,1.4,3.7,3.7v13.3h4.7V16.3c0-2.5,1.6-4.2,3.9-4.2c2.4,0,3.7,1.4,3.7,4v13h4.9V14.9
	c0-4.1-2.7-6.9-6.8-6.9c-3,0-5.5,1.6-6.4,4.2h-0.1c-0.8-2.7-2.8-4.2-5.8-4.2c-2.6-0.1-5,1.5-5.9,4h-0.1V8.4h-4.7L433.5,29.1
	L433.5,29.1z M476.1,11.7c2.8,0,4.7,2.1,4.8,5h-9.7C471.4,13.8,473.3,11.7,476.1,11.7L476.1,11.7z M480.9,22.9
	c-0.5,1.7-2.2,2.8-4.5,2.8c-3.2,0-5.2-2.2-5.2-5.5v-0.3h14.5v-1.6c0-6.3-3.7-10.4-9.5-10.4c-6,0-9.8,4.3-9.8,10.9
	c0,6.6,3.8,10.7,10,10.7c4.9,0,8.5-2.7,9.2-6.6H480.9L480.9,22.9z M493.7,8.4h-4.9V30c0,1.9-0.8,2.6-2.8,2.6c-0.1,0-0.5,0-0.6,0v3.7
	c0.2,0,0.9,0,1.2,0c4.7,0,7.1-2.1,7.1-6.3V8.4L493.7,8.4z M491.3,5.3c1.5,0,2.6-1.2,2.6-2.7c0-1.5-1.2-2.6-2.7-2.6
	c-1.4,0-2.6,1.2-2.6,2.6C488.6,4.1,489.8,5.3,491.3,5.3L491.3,5.3z M507,29.5c6.1,0,10-4,10-10.8c0-6.7-4-10.8-10-10.8
	s-10,4.1-10,10.8C496.9,25.5,500.9,29.5,507,29.5L507,29.5z M507,25.7c-3.1,0-5.1-2.5-5.1-6.9c0-4.4,2-6.9,5.1-6.9
	c3.1,0,5.1,2.5,5.1,6.9C512,23.2,510,25.7,507,25.7L507,25.7z M520.1,29.1h4.9V17.1c0-2.9,1.7-4.7,4.4-4.7c0.7,0,1.3,0.1,2,0.3V8.2
	c-0.5-0.1-1-0.2-1.5-0.2c-2.4,0-4.3,1.4-5,4h-0.1V8.4h-4.7L520.1,29.1L520.1,29.1z M560.1,8.4H555l-4.8,16.2h-0.1l-4.8-16.2h-5.2
	l7.3,20.7h5.3L560.1,8.4z M569.4,25.8c-2.1,0-3.5-1.1-3.5-2.8c0-1.6,1.3-2.7,3.7-2.9l4.8-0.3v1.6C574.4,23.9,572.2,25.8,569.4,25.8
	L569.4,25.8z M568,29.4c2.7,0,5.2-1.4,6.4-3.6h0.1v3.3h4.7V14.8c0-4.2-3.3-6.9-8.5-6.9c-5.3,0-8.6,2.8-8.8,6.6h4.5
	c0.3-1.7,1.8-2.8,4.1-2.8c2.4,0,3.9,1.2,3.9,3.4v1.5l-5.5,0.3c-5,0.3-7.9,2.5-7.9,6.2C561,26.9,564,29.4,568,29.4L568,29.4z
	 M609.3,15.8c-0.3-4.4-3.7-7.8-9.2-7.8c-6,0-9.9,4.2-9.9,10.8c0,6.7,3.9,10.8,10,10.8c5.2,0,8.8-3,9.2-7.7h-4.6
	c-0.5,2.3-2,3.8-4.5,3.8c-3.1,0-5.1-2.5-5.1-6.8c0-4.3,2-6.8,5-6.8c2.6,0,4.1,1.7,4.5,3.9H609.3z M621.4,29.5c6.1,0,10-4,10-10.8
	c0-6.7-4-10.8-10-10.8s-10,4.1-10,10.8C611.4,25.5,615.3,29.5,621.4,29.5L621.4,29.5z M621.4,25.7c-3.1,0-5.1-2.5-5.1-6.9
	c0-4.4,2-6.9,5.1-6.9c3.1,0,5.1,2.5,5.1,6.9C626.5,23.2,624.5,25.7,621.4,25.7L621.4,25.7z M634.6,29.1h4.9v-12c0-3,1.8-5,4.6-5
	c2.8,0,4.1,1.6,4.1,4.6v12.4h4.9V15.7c0-4.8-2.6-7.7-7.2-7.7c-3.2,0-5.4,1.5-6.5,3.9h-0.1V8.4h-4.7L634.6,29.1L634.6,29.1z
	 M658.2,3.6v4.8h-3v3.8h3v11.4c0,4,1.8,5.6,6.2,5.6c0.8,0,1.7-0.1,2.5-0.2v-3.7c-0.5,0.1-0.9,0.1-1.4,0.1c-1.7,0-2.5-0.8-2.5-2.5
	V12.2h3.9V8.4h-3.9V3.6H658.2z M670.4,29.1h4.9V8.4h-4.9V29.1z M672.8,5.3c1.5,0,2.6-1.2,2.6-2.7c0-1.5-1.2-2.6-2.7-2.6
	c-1.4,0-2.6,1.2-2.6,2.6C670.2,4.1,671.4,5.3,672.8,5.3L672.8,5.3z M688.5,25.3c-3.1,0-5-2.5-5-6.6c0-4.1,2-6.6,5-6.6
	c3.1,0,5.1,2.6,5.1,6.6C693.6,22.7,691.6,25.3,688.5,25.3L688.5,25.3z M688.5,36.9c6,0,10-3.2,10-8.1V8.4h-4.8V12h-0.1
	c-1.2-2.5-3.8-4-6.5-3.9c-5.3,0-8.6,4.1-8.6,10.6c0,6.4,3.4,10.4,8.5,10.4c3,0,5.4-1.5,6.5-3.7h0.1v3.5c0,2.6-1.8,4.4-5,4.4
	c-2.3,0-4.1-1.1-4.6-2.7h-4.8C679.7,34.3,683.4,36.9,688.5,36.9L688.5,36.9z M711.6,29.5c6.1,0,10-4,10-10.8c0-6.7-4-10.8-10-10.8
	s-10,4.1-10,10.8C701.6,25.5,705.5,29.5,711.6,29.5L711.6,29.5z M711.6,25.7c-3.1,0-5.1-2.5-5.1-6.9c0-4.4,2-6.9,5.1-6.9
	c3.1,0,5.1,2.5,5.1,6.9C716.7,23.2,714.7,25.7,711.6,25.7L711.6,25.7z M727.3,29.3c1.6,0,2.8-1.3,2.8-2.8s-1.3-2.8-2.8-2.8
	s-2.8,1.3-2.8,2.8C724.5,28,725.7,29.3,727.3,29.3C727.3,29.3,727.3,29.3,727.3,29.3L727.3,29.3z"/>
</svg>
