<?xml version="1.0" encoding="utf-8"?>
<!-- Generator: Adobe Illustrator 21.1.0, SVG Export Plug-In . SVG Version: 6.00 Build 0)  -->
<svg version="1.1" id="Layer_1" xmlns="http://www.w3.org/2000/svg" xmlns:xlink="http://www.w3.org/1999/xlink" x="0px" y="0px"
	 viewBox="0 0 872 48" style="enable-background:new 0 0 872 48;" xml:space="preserve">
<style type="text/css">
	.st0{fill:#111111;}
</style>
<path id="_50_S13_Title_1_large_1x.svg" class="st0" d="M23.8,29.8H8v-9.7h15v-4.8H8V6.2h15.8V1.1H1.9v33.8h21.9V29.8z M28.3,34.9
	h5.8V20.5c0-3.6,2.1-6,5.5-6c3.3,0,5,2,5,5.5v14.9h5.8V18.9c0-5.7-3.1-9.3-8.6-9.3c-3.8,0-6.5,1.8-7.8,4.7h-0.1v-4.3h-5.6L28.3,34.9
	L28.3,34.9z M76.9,18.9c-0.4-5.2-4.5-9.4-11-9.4c-7.2,0-11.9,5-11.9,12.9c0,8.1,4.7,12.9,12,12.9c6.2,0,10.5-3.7,11-9.2h-5.5
	c-0.5,2.8-2.5,4.5-5.4,4.5c-3.7,0-6.1-3-6.1-8.2c0-5.1,2.4-8.2,6.1-8.2c3.1,0,5,2,5.4,4.6L76.9,18.9L76.9,18.9z M102.2,10.1h-5.8
	v14.4c0,3.6-2.1,6-5.5,6c-3.3,0-5-1.9-5-5.5V10.1h-5.8v16.1c0,5.7,3.4,9.2,8.8,9.2c3.8,0,6.3-1.7,7.6-4.8h0.1v4.3h5.6V10.1
	L102.2,10.1z M117.6,14.1c3.3,0,5.6,2.5,5.7,6h-11.6C111.9,16.6,114.3,14.1,117.6,14.1z M123.3,27.5c-0.6,2.1-2.7,3.4-5.4,3.4
	c-3.8,0-6.3-2.7-6.3-6.7v-0.3H129V22c0-7.5-4.4-12.4-11.5-12.4c-7.2,0-11.7,5.2-11.7,13c0,7.9,4.5,12.8,12,12.8
	c5.9,0,10.2-3.2,11-7.9H123.3z M132.6,34.9h5.8V20.5c0-3.6,2.1-6,5.5-6c3.3,0,5,2,5,5.5v14.9h5.8V18.9c0-5.7-3.1-9.3-8.6-9.3
	c-3.8,0-6.5,1.8-7.8,4.7h-0.1v-4.3h-5.6V34.9L132.6,34.9z M160.9,4.3v5.8h-3.6v4.5h3.6v13.7c0,4.8,2.1,6.7,7.5,6.7c1,0,2-0.1,3-0.2
	v-4.5c-0.6,0.1-1.1,0.1-1.7,0.1c-2.1,0-3-0.9-3-3V14.6h4.7v-4.5h-4.7V4.3H160.9z M175.2,34.9h5.8V20.5c0-3.5,2-5.6,5.3-5.6
	c0.8,0,1.6,0.1,2.4,0.3V9.9c-0.6-0.1-1.2-0.2-1.8-0.2c-2.9,0-5.1,1.7-5.9,4.8h-0.1v-4.3h-5.6L175.2,34.9L175.2,34.9z M200.1,30.9
	c-2.5,0-4.2-1.3-4.2-3.3c0-2,1.6-3.2,4.4-3.4l5.7-0.4v1.9C206,28.7,203.4,30.9,200.1,30.9L200.1,30.9z M198.3,35.3
	c3.2,0,6.3-1.7,7.7-4.4h0.1v4h5.6V17.8c0-5-4-8.2-10.2-8.2c-6.3,0-10.3,3.3-10.6,8h5.4c0.4-2.1,2.1-3.4,4.9-3.4
	c2.9,0,4.6,1.5,4.6,4.1V20l-6.6,0.4c-6,0.4-9.4,3-9.4,7.4C190,32.3,193.5,35.3,198.3,35.3L198.3,35.3z M236.5,14.1
	c3.3,0,5.6,2.5,5.7,6h-11.6C230.9,16.6,233.3,14.1,236.5,14.1L236.5,14.1z M242.3,27.5c-0.6,2.1-2.7,3.4-5.4,3.4
	c-3.8,0-6.3-2.7-6.3-6.7v-0.3H248V22c0-7.5-4.4-12.4-11.5-12.4c-7.2,0-11.7,5.2-11.7,13c0,7.9,4.5,12.8,11.9,12.8
	c5.9,0,10.2-3.2,11-7.9H242.3z M251.7,34.9h5.8V1.1h-5.8V34.9L251.7,34.9z M272,34.9h5.8V10.1H272V34.9z M274.9,6.3
	c1.7,0,3.2-1.4,3.1-3.2c0-1.7-1.4-3.2-3.2-3.1c-1.7,0-3.1,1.4-3.1,3.2C271.7,4.9,273.1,6.3,274.9,6.3L274.9,6.3z M283.2,1.1v33.8
	h6.1V23.7h6.8c6.8,0,11.7-4.6,11.7-11.3s-4.7-11.3-11.4-11.3H283.2z M289.2,6h5.5c4.3,0,6.8,2.3,6.8,6.4c0,4.1-2.5,6.4-6.9,6.4h-5.5
	V6z M311.6,34.9h5.8V20.6c0-3.7,2.1-6.1,5.7-6.1c3.4,0,5.1,2.1,5.1,5.6v14.8h5.8v-16c0-5.7-3.2-9.3-8.7-9.3c-3.8,0-6.5,1.7-7.8,4.7
	h-0.1V1.1h-5.8V34.9L311.6,34.9z M349.5,35.4c7.3,0,12-4.9,12-12.9c0-8-4.8-12.9-12-12.9s-12,4.9-12,12.9
	C337.5,30.6,342.2,35.4,349.5,35.4L349.5,35.4z M349.5,30.8c-3.7,0-6.1-3-6.1-8.3c0-5.3,2.4-8.3,6.1-8.3c3.7,0,6.1,3,6.1,8.3
	C355.6,27.8,353.2,30.8,349.5,30.8L349.5,30.8z M365.1,34.9h5.8V20.5c0-3.6,2.1-6,5.5-6c3.3,0,5,2,5,5.5v14.9h5.8V18.9
	c0-5.7-3.1-9.3-8.6-9.3c-3.8,0-6.5,1.8-7.8,4.7h-0.1v-4.3h-5.6L365.1,34.9L365.1,34.9z M402.5,14.1c3.3,0,5.6,2.5,5.7,6h-11.6
	C396.8,16.6,399.2,14.1,402.5,14.1L402.5,14.1z M408.2,27.5c-0.6,2.1-2.7,3.4-5.4,3.4c-3.8,0-6.3-2.7-6.3-6.7v-0.3h17.4V22
	c0-7.5-4.4-12.4-11.5-12.4c-7.2,0-11.7,5.2-11.7,13c0,7.9,4.5,12.8,12,12.8c5.9,0,10.2-3.2,11-7.9H408.2z M436.3,9.7
	c-6.3,0-10.3,4.9-10.3,12.8c0,7.9,4,12.8,10.2,12.8c3.6,0,6.5-1.8,7.8-4.6h0.1v12.4h5.8v-33h-5.7v4.3h-0.1
	C442.7,11.4,439.6,9.6,436.3,9.7L436.3,9.7z M438,30.5c-3.7,0-6-3.1-6-8s2.3-8,6-8c3.7,0,6.1,3.2,6.1,8
	C444.1,27.4,441.6,30.5,438,30.5L438,30.5z M476.6,10.1h-5.8v14.4c0,3.6-2.1,6-5.5,6c-3.3,0-5-1.9-5-5.5V10.1h-5.8v16.1
	c0,5.7,3.4,9.2,8.8,9.2c3.8,0,6.3-1.7,7.6-4.8h0.1v4.3h5.6L476.6,10.1L476.6,10.1z M491.9,14.1c3.4,0,5.6,2.5,5.7,6H486
	C486.3,16.6,488.6,14.1,491.9,14.1L491.9,14.1z M497.7,27.5c-0.6,2.1-2.7,3.4-5.4,3.4c-3.8,0-6.3-2.7-6.3-6.7v-0.3h17.4V22
	c0-7.5-4.4-12.4-11.5-12.4c-7.2,0-11.7,5.2-11.7,13c0,7.9,4.5,12.8,12,12.8c5.9,0,10.2-3.2,11-7.9H497.7z M516.4,34.9h5.8V19.7
	c0-3,2-5.2,4.8-5.2c2.7,0,4.4,1.7,4.4,4.5v15.9h5.7V19.6c0-3,1.9-5,4.7-5c2.9,0,4.5,1.7,4.5,4.8v15.6h5.8v-17c0-5-3.2-8.3-8.1-8.3
	c-3.6,0-6.5,1.9-7.7,5h-0.1c-0.9-3.2-3.4-5-6.9-5c-3.1-0.1-6,1.8-7.1,4.8H522v-4.3h-5.6L516.4,34.9L516.4,34.9z M567.4,14.1
	c3.3,0,5.6,2.5,5.7,6h-11.6C561.7,16.6,564.1,14.1,567.4,14.1L567.4,14.1z M573.1,27.5c-0.6,2.1-2.7,3.4-5.4,3.4
	c-3.8,0-6.3-2.7-6.3-6.7v-0.3h17.4V22c0-7.5-4.4-12.4-11.5-12.4c-7.2,0-11.7,5.2-11.7,13c0,7.9,4.5,12.8,11.9,12.8
	c5.9,0,10.2-3.2,11-7.9H573.1z M588.4,10.1h-5.8V36c0,2.3-0.9,3.2-3.3,3.2c-0.3,0-0.5,0-0.8,0v4.5c0.2,0,1.1,0,1.4,0
	c5.6,0,8.5-2.5,8.5-7.5V10.1z M585.4,6.3c1.7,0,3.2-1.4,3.1-3.2c0-1.7-1.4-3.2-3.2-3.1c-1.7,0-3.1,1.4-3.1,3.2
	C582.3,4.9,583.7,6.3,585.4,6.3L585.4,6.3z M604.1,35.4c7.3,0,12-4.9,12-12.9c0-8-4.8-12.9-12-12.9s-12,4.9-12,12.9
	C592.1,30.6,596.9,35.4,604.1,35.4L604.1,35.4z M604.1,30.8c-3.7,0-6.1-3-6.1-8.3c0-5.3,2.4-8.3,6.1-8.3c3.7,0,6.1,3,6.1,8.3
	C610.2,27.8,607.8,30.8,604.1,30.8L604.1,30.8z M619.8,34.9h5.8V20.5c0-3.5,2-5.6,5.3-5.6c0.8,0,1.6,0.1,2.4,0.3V9.9
	c-0.6-0.1-1.2-0.2-1.8-0.2c-2.9,0-5.1,1.7-6,4.8h-0.1v-4.3h-5.6L619.8,34.9L619.8,34.9z M667.5,10.1h-6.1l-5.8,19.4h-0.1l-5.8-19.4
	h-6.2l8.8,24.8h6.4L667.5,10.1z M678.5,30.9c-2.5,0-4.2-1.3-4.2-3.3c0-2,1.6-3.2,4.4-3.4l5.7-0.4v1.9
	C684.5,28.7,681.8,30.9,678.5,30.9L678.5,30.9z M676.8,35.3c3.2,0,6.3-1.7,7.7-4.4h0.1v4h5.6V17.8c0-5-4-8.2-10.2-8.2
	c-6.3,0-10.3,3.3-10.5,8h5.4c0.4-2.1,2.1-3.4,4.9-3.4c2.9,0,4.6,1.5,4.6,4.1V20l-6.6,0.4c-6,0.4-9.4,3-9.4,7.4
	C668.5,32.3,672,35.3,676.8,35.3L676.8,35.3z M726.1,18.9c-0.4-5.2-4.4-9.4-11-9.4c-7.2,0-11.9,5-11.9,12.9c0,8.1,4.7,12.9,12,12.9
	c6.2,0,10.5-3.7,11-9.2h-5.5c-0.5,2.8-2.5,4.5-5.4,4.5c-3.7,0-6.1-3-6.1-8.2c0-5.1,2.4-8.2,6-8.2c3.1,0,5,2,5.4,4.6L726.1,18.9
	L726.1,18.9z M740.5,35.4c7.3,0,12-4.9,12-12.9c0-8-4.8-12.9-12-12.9s-12,4.9-12,12.9C728.5,30.6,733.2,35.4,740.5,35.4L740.5,35.4z
	 M740.5,30.8c-3.7,0-6.1-3-6.1-8.3c0-5.3,2.4-8.3,6.1-8.3c3.7,0,6.1,3,6.1,8.3C746.6,27.8,744.2,30.8,740.5,30.8L740.5,30.8z
	 M756.1,34.9h5.8V20.5c0-3.6,2.1-6,5.5-6c3.3,0,5,2,5,5.5v14.9h5.8V18.9c0-5.7-3.1-9.3-8.6-9.3c-3.8,0-6.5,1.8-7.8,4.7h-0.1v-4.3
	h-5.6L756.1,34.9L756.1,34.9z M784.4,4.3v5.8h-3.6v4.5h3.6v13.7c0,4.8,2.1,6.7,7.5,6.7c1,0,2-0.1,3-0.2v-4.5
	c-0.6,0.1-1.1,0.1-1.7,0.1c-2.1,0-3-0.9-3-3V14.6h4.7v-4.5h-4.7V4.3H784.4z M798.8,34.9h5.8V10.1h-5.8V34.9z M801.7,6.3
	c1.7,0,3.2-1.4,3.1-3.2c0-1.7-1.4-3.2-3.2-3.1c-1.7,0-3.1,1.4-3.1,3.2C798.5,4.9,800,6.3,801.7,6.3C801.7,6.3,801.7,6.3,801.7,6.3
	L801.7,6.3z M820.4,30.3c-3.7,0-6-3-6-7.9c0-4.9,2.3-8,6-8c3.7,0,6.1,3.1,6.1,8C826.5,27.3,824.1,30.3,820.4,30.3L820.4,30.3z
	 M820.4,44.3c7.2,0,12-3.8,12-9.8V10.1h-5.7v4.3h-0.1c-1.5-2.9-4.5-4.8-7.8-4.7c-6.3,0-10.3,4.9-10.3,12.8c0,7.7,4.1,12.5,10.2,12.5
	c3.6,0,6.5-1.8,7.8-4.5h0.1v4.2c0,3.2-2.2,5.3-6,5.3c-2.8,0-4.9-1.3-5.5-3.2h-5.8C809.8,41.2,814.2,44.3,820.4,44.3L820.4,44.3z
	 M848,35.4c7.3,0,12-4.9,12-12.9c0-8-4.8-12.9-12-12.9s-12,4.9-12,12.9C836,30.6,840.7,35.4,848,35.4L848,35.4z M848,30.8
	c-3.7,0-6.1-3-6.1-8.3c0-5.3,2.4-8.3,6.1-8.3c3.7,0,6.1,3,6.1,8.3C854.1,27.8,851.7,30.8,848,30.8L848,30.8z M866.7,35.2
	c1.9,0,3.4-1.5,3.4-3.4s-1.5-3.4-3.4-3.4s-3.4,1.5-3.4,3.4C863.3,33.6,864.8,35.1,866.7,35.2C866.7,35.2,866.7,35.2,866.7,35.2
	L866.7,35.2z"/>
</svg>
