<?xml version="1.0" encoding="utf-8"?>
<!-- Generator: Adobe Illustrator 21.1.0, SVG Export Plug-In . SVG Version: 6.00 Build 0)  -->
<svg version="1.1" id="Layer_1" xmlns="http://www.w3.org/2000/svg" xmlns:xlink="http://www.w3.org/1999/xlink" x="0px" y="0px"
	 viewBox="0 0 296 120" style="enable-background:new 0 0 296 120;" xml:space="preserve">
<style type="text/css">
	.st0{fill:#FFFFFF;}
</style>
<path id="_50_S1_Headline_small_1x.svg" class="st0" d="M44.7,30.1c6.7,0,11.3-3.7,12.1-9.7h-4.9c-0.8,3.4-3.5,5.4-7.2,5.4
	c-4.9,0-8-4-8-10.3c0-6.3,3.1-10.3,8-10.3c3.5-0.1,6.6,2.4,7.2,5.9h5C56.2,5,51.3,1,44.7,1c-8,0-13.1,5.6-13.1,14.6
	C31.6,24.5,36.7,30.1,44.7,30.1z M67.7,26.3c-2.1,0-3.5-1.1-3.5-2.8c0-1.6,1.4-2.7,3.7-2.9l4.8-0.3v1.6
	C72.6,24.4,70.4,26.3,67.7,26.3L67.7,26.3z M66.2,29.9c2.7,0,5.3-1.4,6.4-3.6h0.1v3.3h4.7V15.3c0-4.2-3.3-6.9-8.5-6.9
	c-5.3,0-8.6,2.8-8.8,6.6h4.5c0.3-1.7,1.8-2.8,4.1-2.8c2.4,0,3.9,1.2,3.9,3.4v1.5l-5.5,0.3c-5,0.3-7.9,2.5-7.9,6.2
	C59.3,27.4,62.2,29.9,66.2,29.9L66.2,29.9z M70.5,6l4.6-6h-4.6l-3.4,6H70.5L70.5,6z M81.4,29.6h4.9V16.9c0-2.5,1.6-4.3,4-4.3
	c2.3,0,3.7,1.4,3.7,3.7v13.3h4.7V16.8c0-2.5,1.6-4.2,3.9-4.2c2.4,0,3.7,1.4,3.7,4v13h4.9V15.4c0-4.1-2.7-6.9-6.8-6.9
	c-3,0-5.5,1.6-6.4,4.2h-0.1C97,10,95,8.5,92,8.5c-2.6-0.1-5,1.5-5.9,4H86V8.9h-4.7L81.4,29.6L81.4,29.6z M122.6,26.3
	c-2.1,0-3.5-1.1-3.5-2.8c0-1.6,1.4-2.7,3.7-2.9l4.8-0.3v1.6C127.5,24.4,125.3,26.3,122.6,26.3z M121.1,29.9c2.7,0,5.3-1.4,6.4-3.6
	h0.1v3.3h4.7V15.3c0-4.2-3.3-6.9-8.5-6.9c-5.3,0-8.6,2.8-8.8,6.6h4.5c0.3-1.7,1.8-2.8,4.1-2.8c2.4,0,3.9,1.2,3.9,3.4v1.5l-5.5,0.3
	c-5,0.3-7.9,2.5-7.9,6.2C114.2,27.4,117.1,29.9,121.1,29.9L121.1,29.9z M136.2,29.6h4.9V17.6c0-2.9,1.7-4.7,4.4-4.7
	c0.7,0,1.3,0.1,2,0.3V8.7c-0.5-0.1-1-0.2-1.5-0.2c-2.4,0-4.3,1.4-5,4h-0.1V8.9h-4.7L136.2,29.6L136.2,29.6z M157.1,26.3
	c-2.1,0-3.5-1.1-3.5-2.8c0-1.6,1.4-2.7,3.7-2.9l4.8-0.3v1.6C162.1,24.4,159.9,26.3,157.1,26.3L157.1,26.3z M155.6,29.9
	c2.7,0,5.3-1.4,6.4-3.6h0.1v3.3h4.7V15.3c0-4.2-3.3-6.9-8.5-6.9c-5.3,0-8.6,2.8-8.8,6.6h4.5c0.3-1.7,1.8-2.8,4.1-2.8
	c2.4,0,3.9,1.2,3.9,3.4v1.5l-5.5,0.3c-5,0.3-7.9,2.5-7.9,6.2C148.7,27.4,151.6,29.9,155.6,29.9L155.6,29.9z M170.4,14.8
	c0,3.1,2,5,6,5.9l3.4,0.8c2.2,0.5,2.9,1.2,2.9,2.4c0,1.5-1.5,2.5-3.8,2.5c-2.5,0-3.9-1-4.2-3h-4.8c0.4,4,3.6,6.6,9,6.6
	c5.1,0,8.7-2.6,8.7-6.5c0-3-1.7-4.7-6-5.6l-3.4-0.8c-2.2-0.5-3-1.3-3-2.5c0-1.5,1.4-2.5,3.6-2.5c2.2,0,3.6,1.2,3.8,3.1h4.5
	c-0.1-3.9-3.3-6.6-8.4-6.6C173.7,8.5,170.4,11.1,170.4,14.8z M199.2,1.4v28.2h5v-9.3h5.7c5.7,0,9.7-3.8,9.7-9.4s-3.9-9.4-9.5-9.4
	H199.2z M204.2,5.5h4.6c3.6,0,5.7,1.9,5.7,5.3c0,3.4-2.1,5.4-5.7,5.4h-4.6V5.5z M222.8,29.6h4.9V17.6c0-2.9,1.7-4.7,4.4-4.7
	c0.7,0,1.3,0.1,2,0.3V8.7c-0.5-0.1-1-0.2-1.5-0.2c-2.4,0-4.3,1.4-5,4h-0.1V8.9h-4.7L222.8,29.6L222.8,29.6z M244.9,30
	c6.1,0,10-4,10-10.8c0-6.7-4-10.8-10-10.8s-10,4.1-10,10.8C234.9,26,238.8,30,244.9,30L244.9,30z M244.9,26.2
	c-3.1,0-5.1-2.5-5.1-6.9c0-4.4,2-6.9,5.1-6.9c3.1,0,5.1,2.5,5.1,6.9C250,23.7,248,26.2,244.9,26.2L244.9,26.2z M260.7,29.8
	c1.6,0,2.8-1.3,2.8-2.8s-1.3-2.8-2.8-2.8s-2.8,1.3-2.8,2.8l0,0C257.8,28.5,259,29.8,260.7,29.8C260.6,29.8,260.6,29.8,260.7,29.8z
	 M41.8,45.4v28.2h5v-9.3h5.7c5.7,0,9.7-3.8,9.7-9.4s-3.9-9.4-9.5-9.4H41.8z M46.9,49.5h4.6c3.6,0,5.7,1.9,5.7,5.3
	c0,3.4-2.1,5.4-5.7,5.4h-4.6L46.9,49.5L46.9,49.5z M71.5,70.3c-2.1,0-3.5-1.1-3.5-2.8c0-1.6,1.3-2.7,3.7-2.9l4.8-0.3v1.6
	C76.5,68.4,74.3,70.3,71.5,70.3L71.5,70.3z M70,73.9c2.7,0,5.3-1.4,6.4-3.6h0.1v3.3h4.7V59.3c0-4.2-3.3-6.9-8.5-6.9
	c-5.3,0-8.6,2.8-8.8,6.6h4.5c0.3-1.7,1.8-2.8,4.1-2.8c2.4,0,3.9,1.2,3.9,3.4v1.5L71,61.5c-5,0.3-7.9,2.5-7.9,6.2
	C63.1,71.4,66,73.9,70,73.9L70,73.9z M85.2,73.6H90v-12c0-3,1.8-5,4.6-5c2.8,0,4.1,1.6,4.1,4.6v12.4h4.9V60.2c0-4.8-2.6-7.7-7.2-7.7
	c-3.2,0-5.4,1.5-6.5,3.9h-0.1v-3.6h-4.7L85.2,73.6L85.2,73.6z M108.9,48.1v4.8h-3v3.8h3v11.4c0,4,1.8,5.6,6.2,5.6
	c0.8,0,1.7-0.1,2.5-0.2v-3.7c-0.5,0.1-0.9,0.1-1.4,0.1c-1.7,0-2.5-0.8-2.5-2.5V56.7h3.9v-3.8h-3.9v-4.8L108.9,48.1L108.9,48.1z
	 M128.2,70.3c-2.1,0-3.5-1.1-3.5-2.8c0-1.6,1.4-2.7,3.7-2.9l4.8-0.3v1.6C133.2,68.4,131,70.3,128.2,70.3L128.2,70.3z M126.7,73.9
	c2.7,0,5.3-1.4,6.4-3.6h0.1v3.3h4.7V59.3c0-4.2-3.3-6.9-8.5-6.9c-5.3,0-8.6,2.8-8.8,6.6h4.5c0.3-1.7,1.8-2.8,4.1-2.8
	c2.4,0,3.9,1.2,3.9,3.4v1.5l-5.5,0.3c-5,0.3-7.9,2.5-7.9,6.2C119.8,71.4,122.7,73.9,126.7,73.9L126.7,73.9z M142,73.6h4.9V45.4H142
	V73.6L142,73.6z M151.2,73.6h4.9V45.4h-4.9V73.6L151.2,73.6z M167.7,70.3c-2.1,0-3.5-1.1-3.5-2.8c0-1.6,1.4-2.7,3.7-2.9l4.8-0.3v1.6
	C172.7,68.4,170.5,70.3,167.7,70.3L167.7,70.3z M166.3,73.9c2.7,0,5.3-1.4,6.4-3.6h0.1v3.3h4.7V59.3c0-4.2-3.3-6.9-8.5-6.9
	c-5.3,0-8.6,2.8-8.8,6.6h4.5c0.3-1.7,1.8-2.8,4.1-2.8c2.4,0,3.9,1.2,3.9,3.4v1.5l-5.5,0.3c-5,0.3-7.9,2.5-7.9,6.2
	C159.3,71.4,162.3,73.9,166.3,73.9L166.3,73.9z M189.9,45.4v28.2h5v-9.3h5.7c5.7,0,9.7-3.8,9.7-9.4s-3.9-9.4-9.5-9.4H189.9z
	 M194.9,49.5h4.6c3.6,0,5.7,1.9,5.7,5.3c0,3.4-2.1,5.4-5.7,5.4h-4.6V49.5z M213.5,73.6h4.9V61.6c0-2.9,1.7-4.7,4.4-4.7
	c0.7,0,1.3,0.1,2,0.3v-4.4c-0.5-0.1-1-0.2-1.5-0.2c-2.4,0-4.3,1.4-5,4h-0.1v-3.6h-4.7L213.5,73.6L213.5,73.6z M235.7,74
	c6.1,0,10-4,10-10.8c0-6.7-4-10.8-10-10.8s-10,4.1-10,10.8C225.6,70,229.6,74,235.7,74L235.7,74z M235.7,70.2
	c-3.1,0-5.1-2.5-5.1-6.9c0-4.4,2-6.9,5.1-6.9c3.1,0,5.1,2.5,5.1,6.9C240.7,67.7,238.7,70.2,235.7,70.2L235.7,70.2z M251.4,73.8
	c1.6,0,2.8-1.3,2.8-2.8s-1.3-2.8-2.8-2.8s-2.8,1.3-2.8,2.8C248.6,72.5,249.8,73.8,251.4,73.8C251.3,73.8,251.4,73.8,251.4,73.8
	L251.4,73.8z M5.4,93.5H11c3.2,0,5.2,1.8,5.2,4.8c0,3-1.9,4.8-5.1,4.8H5.4V93.5z M5.4,107h5.4l5.5,10.6h5.7L16,106.2
	c3.4-1.2,5.3-4.3,5.3-8c0-5.4-3.7-8.8-9.7-8.8H0.4v28.2h5L5.4,107L5.4,107z M33.7,100.2c2.8,0,4.7,2.1,4.8,5h-9.7
	C29,102.3,30.9,100.2,33.7,100.2z M38.5,111.4c-0.5,1.7-2.2,2.9-4.5,2.9c-3.2,0-5.2-2.2-5.2-5.5v-0.3h14.5v-1.6
	c0-6.3-3.7-10.4-9.6-10.4c-6,0-9.8,4.3-9.8,10.9c0,6.6,3.8,10.7,10,10.7c4.9,0,8.5-2.7,9.2-6.6L38.5,111.4L38.5,111.4z M46.3,117.6
	h4.9v-12c0-3,1.8-5,4.6-5c2.8,0,4.1,1.6,4.1,4.6v12.4h4.9v-13.4c0-4.8-2.6-7.7-7.2-7.7c-3.2,0-5.4,1.5-6.5,3.9H51v-3.6h-4.7V117.6z
	 M76.4,117.9c3,0,5.4-1.5,6.5-3.9H83v3.5h4.8V89.4h-4.9v11h-0.1c-1.2-2.4-3.7-3.9-6.4-3.8c-5.2,0-8.6,4.1-8.6,10.7
	C67.8,113.8,71.2,117.9,76.4,117.9z M77.9,100.6c3.1,0,5.1,2.6,5.1,6.7c0,4.1-2,6.7-5.1,6.7c-3.1,0-5.1-2.6-5.1-6.7
	C72.8,103.2,74.7,100.6,77.9,100.6L77.9,100.6z M92,117.6h4.9V96.9H92V117.6L92,117.6z M94.4,93.8c1.5,0,2.6-1.2,2.6-2.7
	c0-1.5-1.2-2.6-2.7-2.6c-1.4,0-2.6,1.2-2.6,2.6C91.7,92.6,92.9,93.8,94.4,93.8C94.4,93.8,94.4,93.8,94.4,93.8L94.4,93.8z
	 M100.9,117.6h4.9v-12.7c0-2.5,1.6-4.3,4-4.3c2.3,0,3.7,1.4,3.7,3.7v13.3h4.7v-12.8c0-2.5,1.6-4.2,3.9-4.2c2.4,0,3.7,1.4,3.7,4v13
	h4.9v-14.2c0-4.1-2.7-6.9-6.8-6.9c-3,0-5.5,1.6-6.4,4.2h-0.1c-0.8-2.7-2.9-4.2-5.8-4.2c-2.6-0.1-5,1.5-5.9,4h-0.1v-3.6h-4.7V117.6
	L100.9,117.6z M134.7,117.6h4.9V96.9h-4.9L134.7,117.6L134.7,117.6z M137.1,93.8c1.5,0,2.6-1.2,2.6-2.7c0-1.5-1.2-2.6-2.7-2.6
	c-1.4,0-2.6,1.2-2.6,2.6C134.4,92.6,135.6,93.8,137.1,93.8C137.1,93.8,137.1,93.8,137.1,93.8L137.1,93.8z M152.6,100.2
	c2.8,0,4.7,2.1,4.8,5h-9.7C147.9,102.3,149.8,100.2,152.6,100.2L152.6,100.2z M157.3,111.4c-0.5,1.7-2.2,2.9-4.5,2.9
	c-3.2,0-5.2-2.2-5.2-5.5v-0.3h14.5v-1.6c0-6.3-3.7-10.4-9.5-10.4c-6,0-9.8,4.3-9.8,10.9c0,6.6,3.8,10.7,10,10.7
	c4.9,0,8.5-2.7,9.2-6.6L157.3,111.4L157.3,111.4z M165.2,117.6h4.9v-12c0-3,1.8-5,4.6-5c2.8,0,4.1,1.6,4.1,4.6v12.4h4.9v-13.4
	c0-4.8-2.6-7.7-7.2-7.7c-3.2,0-5.4,1.5-6.5,3.9h-0.1v-3.6h-4.7L165.2,117.6L165.2,117.6z M188.9,92.1v4.8h-3v3.8h3v11.4
	c0,4,1.8,5.6,6.2,5.6c0.8,0,1.7-0.1,2.5-0.2v-3.7c-0.5,0.1-0.9,0.1-1.4,0.1c-1.7,0-2.5-0.8-2.5-2.5v-10.8h3.9v-3.8h-3.9v-4.8
	L188.9,92.1L188.9,92.1z M209.7,118c6.1,0,10-4,10-10.8c0-6.7-4-10.8-10-10.8s-10,4.1-10,10.8C199.7,114,203.7,118,209.7,118
	L209.7,118z M209.7,114.2c-3.1,0-5.1-2.5-5.1-6.9c0-4.4,2-6.9,5.1-6.9c3.1,0,5.1,2.5,5.1,6.9C214.8,111.7,212.8,114.2,209.7,114.2
	L209.7,114.2z M231.4,89.4v28.2h5v-9.3h5.7c5.7,0,9.7-3.8,9.7-9.4s-3.9-9.4-9.5-9.4H231.4z M236.4,93.5h4.6c3.6,0,5.7,1.9,5.7,5.3
	c0,3.4-2.1,5.4-5.7,5.4h-4.6V93.5z M255,117.6h4.9v-12.1c0-2.9,1.7-4.7,4.4-4.7c0.7,0,1.3,0.1,2,0.3v-4.4c-0.5-0.1-1-0.2-1.5-0.2
	c-2.4,0-4.3,1.4-5,4h-0.1v-3.6H255L255,117.6L255,117.6z M277.1,118c6.1,0,10-4,10-10.8c0-6.7-4-10.8-10-10.8s-10,4.1-10,10.8
	C267.1,114,271.1,118,277.1,118z M277.1,114.2c-3.1,0-5.1-2.5-5.1-6.9c0-4.4,2-6.9,5.1-6.9c3.1,0,5.1,2.5,5.1,6.9
	C282.2,111.7,280.2,114.2,277.1,114.2L277.1,114.2z M292.9,117.8c1.6,0,2.8-1.3,2.8-2.8c0-1.6-1.3-2.8-2.8-2.8
	c-1.6,0-2.8,1.3-2.8,2.8C290,116.5,291.3,117.8,292.9,117.8C292.8,117.8,292.8,117.8,292.9,117.8L292.9,117.8z"/>
</svg>
