<?xml version="1.0" encoding="utf-8"?>
<!-- Generator: Adobe Illustrator 21.1.0, SVG Export Plug-In . SVG Version: 6.00 Build 0)  -->
<svg version="1.1" id="Layer_1" xmlns="http://www.w3.org/2000/svg" xmlns:xlink="http://www.w3.org/1999/xlink" x="0px" y="0px"
	 viewBox="0 0 884 148" style="enable-background:new 0 0 884 148;" xml:space="preserve">
<style type="text/css">
	.st0{fill:#FFFFFF;}
</style>
<path id="_50_S1_Headline_large_1x.svg" class="st0" d="M28.2,60.2c13.3,0,22.5-7.3,24.3-19.4h-9.9c-1.6,6.8-6.9,10.8-14.4,10.8
	c-9.8,0-15.9-7.9-15.9-20.6c0-12.6,6.2-20.5,15.9-20.5c7.3,0,13,4.6,14.4,11.7h9.9C51.2,10.1,41.2,1.9,28.2,1.9
	C12.1,1.9,1.9,13.1,1.9,31C1.9,49.1,12.1,60.2,28.2,60.2z M72.9,52.5c-4.2,0-7-2.1-7-5.5c0-3.3,2.7-5.4,7.4-5.7l9.6-0.6v3.2
	C82.8,48.9,78.4,52.5,72.9,52.5L72.9,52.5z M70,59.9c5.3,0,10.5-2.8,12.9-7.3H83v6.6h9.4V30.7c0-8.3-6.7-13.8-16.9-13.8
	c-10.6,0-17.2,5.5-17.6,13.3h9c0.6-3.4,3.6-5.7,8.2-5.7c4.8,0,7.7,2.5,7.7,6.8v3L71.9,35c-10.1,0.6-15.7,5-15.7,12.4
	C56.1,54.8,62,59.9,70,59.9z M78.5,12.1L87.7,0h-9.3l-6.8,12.1H78.5z M99,59.2h9.7V33.9c0-5,3.3-8.6,8-8.6c4.5,0,7.3,2.9,7.3,7.5
	v26.5h9.4V33.6c0-5,3.2-8.4,7.9-8.4c4.8,0,7.4,2.9,7.4,8v26h9.7V30.8c0-8.3-5.3-13.8-13.5-13.8c-6,0-10.9,3.2-12.9,8.3h-0.2
	c-1.5-5.3-5.7-8.3-11.6-8.3c-5.6,0-10,3.2-11.8,8h-0.2v-7.2H99V59.2L99,59.2z M180.3,52.5c-4.2,0-7-2.1-7-5.5c0-3.3,2.7-5.4,7.4-5.7
	l9.6-0.6v3.2C190.2,48.9,185.8,52.5,180.3,52.5L180.3,52.5z M177.3,59.9c5.3,0,10.5-2.8,12.9-7.3h0.2v6.6h9.4V30.7
	c0-8.3-6.7-13.8-16.9-13.8c-10.6,0-17.2,5.5-17.6,13.3h9c0.6-3.4,3.6-5.7,8.2-5.7c4.8,0,7.7,2.5,7.7,6.8v3L179.2,35
	c-10.1,0.6-15.7,5-15.7,12.4C163.5,54.8,169.3,59.9,177.3,59.9L177.3,59.9z M206.4,59.2h9.7V35.1c0-5.8,3.3-9.4,8.8-9.4
	c1.3,0,2.7,0.2,3.9,0.5v-8.8c-1-0.2-2-0.4-3-0.4c-4.9,0-8.5,2.9-9.9,7.9h-0.2v-7.2h-9.3L206.4,59.2L206.4,59.2z M246.9,52.5
	c-4.2,0-7-2.1-7-5.5c0-3.3,2.7-5.4,7.4-5.7l9.6-0.6v3.2C256.8,48.9,252.4,52.5,246.9,52.5L246.9,52.5z M244,59.9
	c5.3,0,10.5-2.8,12.9-7.3h0.2v6.6h9.4V30.7c0-8.3-6.7-13.8-17-13.8c-10.5,0-17.1,5.5-17.6,13.3h9c0.6-3.4,3.6-5.7,8.2-5.7
	c4.8,0,7.7,2.5,7.7,6.8v3L245.9,35c-10.1,0.6-15.7,5-15.7,12.4C230.2,54.8,236,59.9,244,59.9L244,59.9z M272.3,29.7
	c0,6.1,4,10,11.9,11.8l6.9,1.5c4.3,1,5.8,2.4,5.8,4.9c0,3.1-2.9,5-7.7,5c-4.9,0-7.7-2-8.4-6.1h-9.6c0.8,8,7.2,13.2,18,13.2
	c10.2,0,17.3-5.3,17.3-13.1c0-6-3.3-9.3-11.9-11.2l-6.9-1.5c-4.3-1-6.1-2.6-6.1-5c0-3,2.8-5.1,7.1-5.1c4.5,0,7.3,2.4,7.7,6.1h9.1
	C305.4,22.4,299,17,288.9,17C278.9,17,272.3,22.1,272.3,29.7L272.3,29.7z M327.4,2.9v56.4h10.1V40.6h11.4c11.4,0,19.4-7.6,19.4-18.9
	s-7.8-18.9-19-18.9L327.4,2.9L327.4,2.9z M337.5,11.1h9.2c7.2,0,11.4,3.9,11.4,10.6c0,6.8-4.2,10.7-11.4,10.7h-9.1L337.5,11.1
	L337.5,11.1z M373.5,59.2h9.7V35.1c0-5.8,3.3-9.4,8.8-9.4c1.3,0,2.7,0.2,3.9,0.5v-8.8c-1-0.2-2-0.4-3-0.4c-4.9,0-8.5,2.9-9.9,7.9
	h-0.2v-7.2h-9.3L373.5,59.2L373.5,59.2z M416.5,60c12.1,0,20-8.1,20-21.5c0-13.4-8-21.6-20-21.6s-20,8.2-20,21.6
	C396.5,52,404.4,60,416.5,60L416.5,60z M416.5,52.4c-6.2,0-10.2-5-10.2-13.8c0-8.8,4-13.8,10.2-13.8c6.2,0,10.2,5,10.2,13.8
	C426.7,47.3,422.7,52.3,416.5,52.4L416.5,52.4z M446.8,59.7c3.1,0,5.6-2.5,5.6-5.6s-2.5-5.6-5.6-5.6s-5.6,2.5-5.6,5.6l0,0
	c0,3.1,2.4,5.6,5.5,5.6C446.7,59.7,446.8,59.7,446.8,59.7L446.8,59.7z M471.7,2.9v56.4h10.1V40.6h11.4c11.4,0,19.4-7.6,19.4-18.9
	s-7.8-18.9-19-18.9L471.7,2.9L471.7,2.9z M481.8,11.1h9.2c7.2,0,11.4,3.9,11.4,10.6c0,6.8-4.2,10.7-11.4,10.7h-9.1L481.8,11.1
	L481.8,11.1z M529.9,52.5c-4.2,0-7-2.1-7-5.5c0-3.3,2.7-5.4,7.4-5.7l9.6-0.6v3.2C539.8,48.9,535.4,52.5,529.9,52.5L529.9,52.5z
	 M527,59.9c5.3,0,10.5-2.8,12.9-7.3h0.2v6.6h9.4V30.7c0-8.3-6.7-13.8-17-13.8c-10.5,0-17.2,5.5-17.6,13.3h9c0.6-3.4,3.6-5.7,8.2-5.7
	c4.8,0,7.7,2.5,7.7,6.8v3L528.9,35c-10.1,0.6-15.7,5-15.7,12.4C513.2,54.8,519,59.9,527,59.9L527,59.9z M556,59.2h9.7v-24
	c0-5.9,3.6-10,9.1-10c5.5,0,8.3,3.3,8.3,9.1v24.8h9.7V32.5c0-9.6-5.2-15.4-14.3-15.4c-6.4,0-10.8,3-13,7.9h-0.2v-7.1h-9.3L556,59.2
	L556,59.2z M602.2,8.1v9.7h-5.9v7.5h5.9v22.9c0,8,3.5,11.2,12.5,11.2c1.7,0,3.4-0.1,5-0.4v-7.4c-0.9,0.1-1.8,0.2-2.8,0.2
	c-3.4,0-5-1.6-5-5V25.3h7.8v-7.5h-7.8V8.1L602.2,8.1L602.2,8.1z M639.7,52.5c-4.2,0-7-2.1-7-5.5c0-3.3,2.7-5.4,7.4-5.7l9.6-0.6v3.2
	C649.6,48.9,645.2,52.5,639.7,52.5L639.7,52.5z M636.8,59.9c5.3,0,10.5-2.8,12.9-7.3h0.2v6.6h9.4V30.7c0-8.3-6.7-13.8-16.9-13.8
	c-10.6,0-17.2,5.5-17.6,13.3h9c0.6-3.4,3.6-5.7,8.2-5.7c4.8,0,7.7,2.5,7.7,6.8v3L638.7,35c-10.1,0.6-15.7,5-15.7,12.4
	C623,54.8,628.8,59.9,636.8,59.9L636.8,59.9z M666.1,59.2h9.7V2.9h-9.7V59.2L666.1,59.2z M683.2,59.2h9.7V2.9h-9.7V59.2L683.2,59.2z
	 M715.1,52.5c-4.2,0-7-2.1-7-5.5c0-3.3,2.7-5.4,7.4-5.7l9.6-0.6v3.2C725.1,48.9,720.6,52.5,715.1,52.5L715.1,52.5z M712.2,59.9
	c5.3,0,10.5-2.8,12.9-7.3h0.2v6.6h9.4V30.7c0-8.3-6.7-13.8-16.9-13.8c-10.6,0-17.2,5.5-17.6,13.3h9c0.6-3.4,3.6-5.7,8.2-5.7
	c4.8,0,7.7,2.5,7.7,6.8v3L714.1,35c-10.1,0.6-15.7,5-15.7,12.4C698.4,54.8,704.2,59.9,712.2,59.9L712.2,59.9z M757.1,2.9v56.4h10.1
	V40.6h11.4C790,40.6,798,33,798,21.7s-7.8-18.9-19-18.9L757.1,2.9L757.1,2.9z M767.1,11.1h9.2c7.2,0,11.4,3.9,11.4,10.6
	c0,6.8-4.2,10.7-11.4,10.7h-9.1L767.1,11.1L767.1,11.1z M803.1,59.2h9.7V35.1c0-5.8,3.3-9.4,8.8-9.4c1.3,0,2.7,0.2,3.9,0.5v-8.8
	c-1-0.2-2-0.4-3-0.4c-4.9,0-8.5,2.9-9.9,7.9h-0.2v-7.2h-9.3L803.1,59.2L803.1,59.2z M846.2,60c12.1,0,20-8.1,20-21.5
	c0-13.4-8-21.6-20-21.6s-20,8.2-20,21.6C826.2,52,834,60,846.2,60L846.2,60z M846.2,52.4c-6.2,0-10.2-5-10.2-13.8
	c0-8.8,4-13.8,10.2-13.8c6.2,0,10.2,5,10.2,13.8C856.3,47.3,852.4,52.3,846.2,52.4L846.2,52.4z M876.5,59.7c3.1,0,5.6-2.5,5.6-5.6
	s-2.5-5.6-5.6-5.6s-5.6,2.5-5.6,5.6l0,0c0,3.1,2.4,5.6,5.5,5.6C876.4,59.7,876.4,59.7,876.5,59.7L876.5,59.7z M166.7,95h11.2
	c6.4,0,10.3,3.7,10.3,9.6c0,6.1-3.7,9.6-10.1,9.6h-11.4L166.7,95L166.7,95z M166.7,122h10.9l11.1,21.2h11.5l-12.3-22.7
	c6.7-2.4,10.6-8.6,10.6-16.1c0-10.8-7.3-17.5-19.5-17.5h-22.4v56.4h10.1L166.7,122L166.7,122z M222.1,108.5c5.6,0,9.3,4.1,9.5,10
	h-19.3C212.7,112.7,216.6,108.5,222.1,108.5L222.1,108.5z M231.7,130.8c-1.1,3.4-4.5,5.7-9,5.7c-6.4,0-10.4-4.5-10.4-11.1v-0.6h28.9
	v-3.2c0-12.6-7.3-20.7-19.1-20.7c-11.9,0-19.5,8.6-19.5,21.7c0,13.2,7.5,21.4,19.9,21.4c9.8,0,17.1-5.4,18.3-13.2H231.7L231.7,130.8
	z M246.2,143.2h9.7v-24c0-5.9,3.6-10,9.1-10c5.5,0,8.3,3.3,8.3,9.1v24.8h9.7v-26.8c0-9.6-5.2-15.4-14.3-15.4c-6.4,0-10.8,3-13,7.9
	h-0.2v-7.1h-9.3V143.2L246.2,143.2z M305.1,143.9c6.1,0,10.8-3.1,13.1-7.7h0.2v7.1h9.5V86.9h-9.7v21.9h-0.2
	c-2.2-4.6-6.9-7.7-12.8-7.7c-10.4,0-17.2,8.3-17.2,21.4C287.9,135.6,294.7,143.9,305.1,143.9L305.1,143.9z M308,109.1
	c6.1,0,10.2,5.3,10.2,13.4c0,8.2-4,13.4-10.2,13.4c-6.3,0-10.2-5.2-10.2-13.4C297.9,114.3,301.8,109.1,308,109.1L308,109.1z
	 M335.1,143.2h9.7v-41.4h-9.7V143.2L335.1,143.2z M339.9,95.6c2.9,0,5.3-2.4,5.2-5.3c0-2.9-2.4-5.3-5.3-5.2c-2.9,0-5.2,2.4-5.2,5.3
	C334.6,93.2,337,95.6,339.9,95.6L339.9,95.6z M351.8,143.2h9.7v-25.4c0-5,3.3-8.6,8-8.6c4.5,0,7.3,2.9,7.3,7.5v26.5h9.5v-25.6
	c0-5,3.2-8.4,7.9-8.4c4.8,0,7.4,2.9,7.4,8v26h9.7v-28.4c0-8.3-5.4-13.8-13.5-13.8c-6,0-10.9,3.2-12.9,8.3h-0.2
	c-1.5-5.3-5.7-8.3-11.6-8.3c-5.6,0-10,3.2-11.8,8h-0.2v-7.2h-9.3V143.2L351.8,143.2z M418.1,143.2h9.7v-41.4h-9.7V143.2L418.1,143.2
	z M422.9,95.6c2.9,0,5.3-2.4,5.2-5.3c0-2.9-2.4-5.3-5.3-5.2c-2.9,0-5.2,2.4-5.2,5.3C417.6,93.2,420,95.6,422.9,95.6L422.9,95.6z
	 M452.7,108.5c5.6,0,9.3,4.1,9.5,10h-19.3C443.2,112.7,447.2,108.5,452.7,108.5L452.7,108.5z M462.2,130.8c-1.1,3.4-4.5,5.7-9,5.7
	c-6.4,0-10.4-4.5-10.4-11.1v-0.6h28.9v-3.2c0-12.6-7.3-20.7-19.1-20.7c-12,0-19.5,8.6-19.5,21.7c0,13.2,7.5,21.4,19.9,21.4
	c9.8,0,17.1-5.4,18.3-13.2H462.2L462.2,130.8z M476.8,143.2h9.7v-24c0-5.9,3.6-10,9.1-10c5.5,0,8.3,3.3,8.3,9.1v24.8h9.7v-26.8
	c0-9.6-5.2-15.4-14.3-15.4c-6.4,0-10.8,3-13,7.9h-0.2v-7.1h-9.3L476.8,143.2L476.8,143.2z M522.9,92.1v9.7H517v7.5h5.9v22.9
	c0,8,3.5,11.2,12.5,11.2c1.7,0,3.4-0.1,5-0.4v-7.4c-0.9,0.1-1.8,0.2-2.8,0.2c-3.4,0-5-1.6-5-5v-21.5h7.8v-7.5h-7.8v-9.7L522.9,92.1
	L522.9,92.1z M563.4,144c12.2,0,20-8.1,20-21.5c0-13.4-8-21.6-20-21.6s-20,8.2-20,21.6C543.4,136,551.2,144,563.4,144L563.4,144z
	 M563.4,136.4c-6.2,0-10.2-5-10.2-13.8c0-8.8,4-13.8,10.2-13.8c6.2,0,10.2,5,10.2,13.8C573.6,131.3,569.6,136.3,563.4,136.4
	L563.4,136.4z M604.3,86.9v56.4h10.1v-18.6h11.4c11.4,0,19.4-7.6,19.4-18.9s-7.8-18.9-19-18.9L604.3,86.9L604.3,86.9z M614.4,95.1
	h9.2c7.2,0,11.4,3.9,11.4,10.6c0,6.8-4.2,10.7-11.4,10.7h-9.1L614.4,95.1L614.4,95.1z M650.3,143.2h9.7v-24.1c0-5.8,3.3-9.4,8.8-9.4
	c1.3,0,2.7,0.2,3.9,0.5v-8.8c-1-0.2-2-0.4-3-0.4c-4.9,0-8.5,2.9-9.9,7.9h-0.2v-7.2h-9.3L650.3,143.2L650.3,143.2z M693.4,144
	c12.2,0,20-8.1,20-21.5c0-13.4-8-21.6-20-21.6s-20,8.2-20,21.6C673.4,136,681.3,144,693.4,144L693.4,144z M693.4,136.4
	c-6.2,0-10.2-5-10.2-13.8c0-8.8,4-13.8,10.2-13.8c6.2,0,10.2,5,10.2,13.8C703.6,131.3,699.6,136.3,693.4,136.4L693.4,136.4z
	 M723.7,143.7c3.1,0,5.6-2.5,5.6-5.6s-2.5-5.6-5.6-5.6s-5.6,2.5-5.6,5.6c0,3.1,2.4,5.6,5.5,5.6C723.6,143.7,723.6,143.7,723.7,143.7
	L723.7,143.7z"/>
</svg>
