<?xml version="1.0" encoding="utf-8"?>
<!-- Generator: Adobe Illustrator 21.1.0, SVG Export Plug-In . SVG Version: 6.00 Build 0)  -->
<svg version="1.1" id="Layer_1" xmlns="http://www.w3.org/2000/svg" xmlns:xlink="http://www.w3.org/1999/xlink" x="0px" y="0px"
	 viewBox="0 0 220 68" style="enable-background:new 0 0 220 68;" xml:space="preserve">
<style type="text/css">
	.st0{fill:#FFFFFF;}
</style>
<path id="_50_S2_Title_1_small_1x.svg" class="st0" d="M10.9,0.8C4.3,0.8,0.2,5.3,0.2,12.4s4.1,11.6,10.7,11.6
	c6.6,0,10.7-4.5,10.7-11.6S17.4,0.8,10.9,0.8z M10.9,4.2c4,0,6.6,3.2,6.6,8.2c0,5-2.6,8.2-6.6,8.2c-4,0-6.6-3.2-6.6-8.2
	C4.3,7.4,6.8,4.2,10.9,4.2z M33.7,24c4.2,0,6.8-3.2,6.8-8.5s-2.7-8.6-6.8-8.6C31.6,6.8,29.5,8,28.6,10h-0.1V1.2h-3.9v22.5h3.8v-2.8
	h0.1C29.5,22.8,31.5,24.1,33.7,24z M32.5,10.1c2.5,0,4,2.1,4,5.4c0,3.3-1.5,5.4-4,5.4c-2.4,0-4.1-2.1-4.1-5.4
	C28.5,12.2,30.1,10.1,32.5,10.1z M42.9,11.9c0,2.5,1.6,4,4.8,4.7l2.7,0.6c1.7,0.4,2.3,1,2.3,2c0,1.2-1.2,2-3.1,2
	c-2,0-3.1-0.8-3.4-2.4h-3.8c0.3,3.2,2.9,5.3,7.2,5.3c4.1,0,6.9-2.1,6.9-5.2c0-2.4-1.3-3.7-4.8-4.5l-2.7-0.6c-1.7-0.4-2.4-1-2.4-2
	c0-1.2,1.1-2,2.9-2c1.8,0,2.9,1,3.1,2.5h3.6c-0.1-3.1-2.7-5.3-6.7-5.3C45.6,6.8,42.9,8.9,42.9,11.9L42.9,11.9z M66.4,9.8
	c2.2,0,3.7,1.6,3.8,4h-7.7C62.6,11.5,64.2,9.8,66.4,9.8L66.4,9.8z M70.2,18.7c-0.4,1.4-1.8,2.3-3.6,2.3c-2.5,0-4.2-1.8-4.2-4.4v-0.2
	H74v-1.3c0-5-2.9-8.3-7.6-8.3c-4.8,0-7.8,3.5-7.8,8.7c0,5.3,3,8.5,8,8.5c3.9,0,6.8-2.2,7.3-5.3H70.2L70.2,18.7z M76.4,11.9
	c0,2.5,1.6,4,4.8,4.7l2.7,0.6c1.7,0.4,2.3,1,2.3,2c0,1.2-1.2,2-3.1,2c-2,0-3.1-0.8-3.4-2.4h-3.8c0.3,3.2,2.9,5.3,7.2,5.3
	c4.1,0,6.9-2.1,6.9-5.2c0-2.4-1.3-3.7-4.8-4.5l-2.7-0.6c-1.7-0.4-2.4-1-2.4-2c0-1.2,1.1-2,2.9-2c1.8,0,2.9,1,3.1,2.5h3.6
	C89.6,9,87,6.8,83,6.8C79,6.8,76.4,8.9,76.4,11.9L76.4,11.9z M92.8,23.7h3.9V7.1h-3.9L92.8,23.7L92.8,23.7z M94.7,4.6
	c1.2,0,2.1-1,2.1-2.1c0-1.2-1-2.1-2.1-2.1c-1.2,0-2.1,1-2.1,2.1C92.6,3.7,93.5,4.6,94.7,4.6C94.7,4.6,94.7,4.6,94.7,4.6L94.7,4.6z
	 M107.4,24c4.9,0,8-3.2,8-8.6c0-5.4-3.2-8.6-8-8.6c-4.8,0-8,3.3-8,8.6C99.4,20.8,102.5,24,107.4,24L107.4,24z M107.4,20.9
	c-2.5,0-4.1-2-4.1-5.5c0-3.5,1.6-5.5,4.1-5.5c2.5,0,4.1,2,4.1,5.5C111.5,18.9,109.9,20.9,107.4,20.9L107.4,20.9z M108.8,4.8l3.7-4.8
	h-3.7L106,4.8H108.8L108.8,4.8z M118,23.7h3.9v-9.6c0-2.4,1.4-4,3.7-4c2.2,0,3.3,1.3,3.3,3.7v9.9h3.9V13c0-3.8-2.1-6.2-5.7-6.2
	c-2.5,0-4.3,1.2-5.2,3.2h-0.1V7.1H118L118,23.7L118,23.7z M9.6,42.9C7.4,42.8,5.4,44,4.4,46H4.3v-2.9H0.5v22h3.9v-8.2h0.1
	c0.9,1.9,2.8,3,5.2,3c4.2,0,6.8-3.3,6.8-8.5C16.5,46.1,13.8,42.9,9.6,42.9L9.6,42.9z M8.4,56.8c-2.4,0-4-2.1-4-5.4
	c0-3.2,1.6-5.4,4-5.4c2.5,0,4.1,2.1,4.1,5.4C12.5,54.7,10.9,56.8,8.4,56.8L8.4,56.8z M26.5,60c4.9,0,8-3.2,8-8.6
	c0-5.4-3.2-8.6-8-8.6s-8,3.3-8,8.6C18.4,56.8,21.6,60,26.5,60L26.5,60z M26.5,56.9c-2.5,0-4.1-2-4.1-5.5c0-3.5,1.6-5.5,4.1-5.5
	c2.5,0,4.1,2,4.1,5.5C30.5,54.9,28.9,56.9,26.5,56.9L26.5,56.9z M37.1,59.7H41v-9.6c0-2.3,1.3-3.7,3.5-3.7c0.5,0,1.1,0.1,1.6,0.2V43
	c-0.4-0.1-0.8-0.1-1.2-0.2c-2,0-3.4,1.2-4,3.2h-0.1v-2.9h-3.7L37.1,59.7L37.1,59.7z M54.9,59.7h3.9V37.2h-3.9L54.9,59.7L54.9,59.7z
	 M69.5,60c4.9,0,8-3.2,8-8.6c0-5.4-3.2-8.6-8-8.6c-4.8,0-8,3.3-8,8.6C61.5,56.8,64.7,60,69.5,60L69.5,60z M69.5,56.9
	c-2.5,0-4.1-2-4.1-5.5c0-3.5,1.6-5.5,4.1-5.5c2.5,0,4.1,2,4.1,5.5C73.6,54.9,72,56.9,69.5,56.9L69.5,56.9z M79.9,47.9
	c0,2.5,1.6,4,4.8,4.7l2.7,0.6c1.7,0.4,2.3,1,2.3,2c0,1.2-1.2,2-3.1,2c-2,0-3.1-0.8-3.4-2.4h-3.8c0.3,3.2,2.9,5.3,7.2,5.3
	c4.1,0,6.9-2.1,6.9-5.2c0-2.4-1.3-3.7-4.8-4.5l-2.8-0.6c-1.7-0.4-2.4-1-2.4-2c0-1.2,1.1-2,2.9-2c1.8,0,2.9,1,3.1,2.5h3.6
	c-0.1-3.1-2.7-5.3-6.7-5.3C82.5,42.8,79.9,44.9,79.9,47.9L79.9,47.9z M108.9,60c2.2,0.1,4.2-1.1,5.2-3.1h0.1v2.8h3.8V37.2h-3.9v8.8
	h-0.1c-1-1.9-3-3.1-5.1-3.1c-4.2,0-6.9,3.3-6.9,8.5C102.1,56.7,104.8,60,108.9,60L108.9,60z M110.1,46.1c2.5,0,4.1,2.1,4.1,5.4
	c0,3.3-1.6,5.4-4.1,5.4c-2.5,0-4.1-2.1-4.1-5.4C106,48.1,107.6,46.1,110.1,46.1L110.1,46.1z M128.6,45.8c2.2,0,3.7,1.6,3.8,4h-7.7
	C124.8,47.5,126.4,45.8,128.6,45.8L128.6,45.8z M132.4,54.7c-0.4,1.4-1.8,2.3-3.6,2.3c-2.5,0-4.2-1.8-4.2-4.4v-0.2h11.6v-1.3
	c0-5-2.9-8.3-7.6-8.3c-4.8,0-7.8,3.5-7.8,8.7c0,5.3,3,8.5,8,8.5c3.9,0,6.8-2.2,7.3-5.3H132.4z M139.9,39.3v3.9h-2.4v3h2.4v9.2
	c0,3.2,1.4,4.5,5,4.5c0.7,0,1.4,0,2-0.2v-3c-0.4,0.1-0.7,0.1-1.1,0.1c-1.4,0-2-0.6-2-2v-8.6h3.1v-3h-3.1v-3.9H139.9z M155.5,57
	c-1.7,0-2.8-0.9-2.8-2.2c0-1.3,1.1-2.2,3-2.3l3.8-0.2v1.3C159.5,55.6,157.7,57,155.5,57z M154.3,60c2.1,0,4.1-1.1,5.2-2.9h0.1v2.6
	h3.7V48.3c0-3.3-2.7-5.5-6.8-5.5c-4.2,0-6.9,2.2-7,5.3h3.6c0.2-1.4,1.4-2.3,3.3-2.3c1.9,0,3.1,1,3.1,2.7v1.2l-4.4,0.2
	c-4,0.2-6.3,2-6.3,5C148.8,57.9,151.1,60,154.3,60L154.3,60z M166.7,59.7h3.9V37.2h-3.9V59.7z M174.1,59.7h3.9V37.2h-3.9V59.7z
	 M188.6,45.8c2.2,0,3.7,1.6,3.8,4h-7.7C184.8,47.5,186.4,45.8,188.6,45.8L188.6,45.8z M192.4,54.7c-0.4,1.4-1.8,2.3-3.6,2.3
	c-2.5,0-4.2-1.8-4.2-4.4v-0.2h11.6v-1.3c0-5-2.9-8.3-7.6-8.3c-4.8,0-7.8,3.5-7.8,8.7c0,5.3,3,8.5,8,8.5c3.9,0,6.8-2.2,7.3-5.3H192.4
	L192.4,54.7z M198.6,47.9c0,2.5,1.6,4,4.8,4.7l2.8,0.6c1.7,0.4,2.3,1,2.3,2c0,1.2-1.2,2-3.1,2c-2,0-3.1-0.8-3.4-2.4h-3.8
	c0.3,3.2,2.9,5.3,7.2,5.3c4.1,0,6.9-2.1,6.9-5.2c0-2.4-1.3-3.7-4.8-4.5l-2.8-0.6c-1.7-0.4-2.4-1-2.4-2c0-1.2,1.1-2,2.9-2
	c1.8,0,2.9,1,3.1,2.5h3.6c-0.1-3.1-2.7-5.3-6.7-5.3C201.2,42.8,198.6,44.9,198.6,47.9L198.6,47.9z M217.6,59.9c1.2,0,2.2-1,2.2-2.2
	s-1-2.2-2.2-2.2s-2.2,1-2.2,2.2l0,0C215.3,58.8,216.3,59.8,217.6,59.9C217.6,59.9,217.6,59.9,217.6,59.9L217.6,59.9z"/>
</svg>
