<?xml version="1.0" encoding="utf-8"?>
<!-- Generator: Adobe Illustrator 21.1.0, SVG Export Plug-In . SVG Version: 6.00 Build 0)  -->
<svg version="1.1" id="Layer_1" xmlns="http://www.w3.org/2000/svg" xmlns:xlink="http://www.w3.org/1999/xlink" x="0px" y="0px"
	 viewBox="0 0 308 28" style="enable-background:new 0 0 308 28;" xml:space="preserve">
<style type="text/css">
	.st0{fill:#888888;}
</style>
<path id="_50_S3_Sub_1_large_1x.svg" class="st0" d="M1.1,15.2c0.2,3.6,3.2,5.8,7.8,5.8c4.7,0,7.7-2.4,7.7-6.2
	c0-2.9-1.7-4.6-5.9-5.5L8.5,9C6,8.5,5,7.6,5,6.3c0-1.6,1.6-2.7,3.7-2.7c2.3,0,3.8,1.1,4,3h3.4c-0.1-3.5-3-5.9-7.3-5.9
	C4.5,0.7,1.5,3,1.5,6.5c0,2.9,1.8,4.7,5.8,5.6l2.1,0.4C12,13,13,13.9,13,15.3c0,1.6-1.7,2.8-4,2.8c-2.5,0-4.2-1.1-4.5-2.9H1.1
	L1.1,15.2z M19.1,20.7h3.4V6.2h-3.4V20.7z M20.8,4.1c1,0,1.8-0.8,1.8-1.9c0-1-0.8-1.8-1.9-1.8c-1,0-1.8,0.8-1.8,1.8
	C18.9,3.2,19.7,4.1,20.8,4.1L20.8,4.1z M25.3,10.4c0,2.1,1.4,3.5,4.2,4.1l2.4,0.5c1.5,0.3,2,0.8,2,1.7c0,1.1-1,1.8-2.7,1.8
	c-1.7,0-2.7-0.7-2.9-2.1h-3.3c0.3,2.8,2.5,4.6,6.3,4.6c3.6,0,6.1-1.8,6.1-4.6c0-2.1-1.2-3.3-4.2-3.9L30.7,12
	c-1.5-0.3-2.1-0.9-2.1-1.8c0-1.1,1-1.8,2.5-1.8c1.6,0,2.5,0.8,2.7,2.1H37c-0.1-2.8-2.3-4.6-5.8-4.6C27.6,5.9,25.3,7.7,25.3,10.4
	L25.3,10.4z M40.6,2.8v3.4h-2.1v2.6h2.1v8c0,2.8,1.2,3.9,4.4,3.9c0.6,0,1.2,0,1.8-0.1v-2.6c-0.3,0-0.6,0.1-1,0.1
	c-1.2,0-1.8-0.5-1.8-1.7V8.9h2.7V6.2H44V2.8H40.6z M55.2,8.6c2,0,3.3,1.4,3.3,3.5h-6.8C51.9,10,53.3,8.6,55.2,8.6z M58.6,16.4
	c-0.4,1.2-1.6,2-3.2,2c-2.2,0-3.7-1.6-3.7-3.9v-0.2h10.1v-1.1c0-4.4-2.6-7.3-6.7-7.3c-4.2,0-6.8,3-6.8,7.6c0,4.6,2.6,7.5,7,7.5
	c3.4,0,6-1.9,6.4-4.6H58.6L58.6,16.4z M64.3,20.7h3.4v-8.9c0-1.8,1.2-3,2.8-3c1.6,0,2.6,1,2.6,2.6v9.3h3.3v-9c0-1.7,1.1-2.9,2.8-2.9
	c1.7,0,2.6,1,2.6,2.8v9.1h3.4v-9.9c0-2.9-1.9-4.8-4.7-4.8c-2-0.1-3.8,1.1-4.5,2.9h-0.1c-0.5-1.9-2-2.9-4-2.9
	c-1.8-0.1-3.5,1.1-4.1,2.8h-0.1V6.2h-3.3L64.3,20.7L64.3,20.7z M93.3,18.4c-1.5,0-2.5-0.8-2.5-1.9c0-1.1,0.9-1.9,2.6-2l3.3-0.2v1.1
	C96.8,17.1,95.3,18.4,93.3,18.4z M92.3,21c1.9,0,3.6-0.9,4.5-2.5h0.1v2.3h3.3v-10c0-2.9-2.3-4.8-5.9-4.8c-3.7,0-6,1.9-6.2,4.6h3.2
	c0.2-1.2,1.2-2,2.9-2c1.7,0,2.7,0.9,2.7,2.4v1L93,12.3c-3.5,0.2-5.5,1.8-5.5,4.3C87.5,19.2,89.5,21,92.3,21z M114.3,21
	c1.9,0.1,3.7-1,4.6-2.7h0.1v2.5h3.3V1h-3.4v7.7h-0.1c-0.8-1.7-2.6-2.7-4.5-2.7c-3.7,0-6,2.9-6,7.5C108.3,18.1,110.7,21,114.3,21z
	 M115.3,8.8c2.2,0,3.6,1.8,3.6,4.7c0,2.9-1.4,4.7-3.6,4.7c-2.2,0-3.6-1.8-3.6-4.7C111.8,10.6,113.1,8.8,115.3,8.8z M131.6,8.6
	c2,0,3.3,1.4,3.3,3.5h-6.8C128.3,10,129.7,8.6,131.6,8.6z M134.9,16.4c-0.4,1.2-1.6,2-3.2,2c-2.2,0-3.7-1.6-3.7-3.9v-0.2h10.1v-1.1
	c0-4.4-2.6-7.3-6.7-7.3c-4.2,0-6.8,3-6.8,7.6c0,4.6,2.6,7.5,7,7.5c3.4,0,6-1.9,6.4-4.6H134.9z M147.4,2.8v3.4h-2.1v2.6h2.1v8
	c0,2.8,1.2,3.9,4.4,3.9c0.6,0,1.2,0,1.8-0.1v-2.6c-0.3,0-0.6,0.1-1,0.1c-1.2,0-1.8-0.5-1.8-1.7V8.9h2.7V6.2h-2.7V2.8H147.4z
	 M156,20.7h3.4v-8.4c0-2,1.2-3.3,3.1-3.3c0.5,0,0.9,0.1,1.4,0.2V6.1C163.5,6,163.2,6,162.8,6c-1.7,0-3,1-3.5,2.8h-0.1V6.2H156
	L156,20.7L156,20.7z M165.9,20.7h3.4V6.2h-3.4V20.7z M167.6,4.1c1,0,1.8-0.8,1.8-1.9c0-1-0.8-1.8-1.9-1.8c-1,0-1.8,0.8-1.8,1.8
	C165.7,3.2,166.6,4.1,167.6,4.1L167.6,4.1z M180.3,6c-1.9-0.1-3.7,1-4.6,2.8h-0.1V6.2h-3.3v19.3h3.4v-7.2h0.1
	c0.8,1.6,2.4,2.6,4.5,2.6c3.6,0,6-2.9,6-7.5C186.4,8.9,184,6,180.3,6L180.3,6z M179.3,18.2c-2.1,0-3.5-1.8-3.5-4.7
	c0-2.8,1.4-4.7,3.5-4.7c2.2,0,3.6,1.8,3.6,4.7C182.9,16.4,181.5,18.2,179.3,18.2L179.3,18.2z M188.8,20.7h3.4V1h-3.4V20.7z
	 M201.6,8.6c2,0,3.3,1.4,3.3,3.5h-6.8C198.3,10,199.7,8.6,201.6,8.6z M204.9,16.4c-0.4,1.2-1.6,2-3.2,2c-2.2,0-3.7-1.6-3.7-3.9v-0.2
	h10.1v-1.1c0-4.4-2.6-7.3-6.7-7.3c-4.2,0-6.8,3-6.8,7.6c0,4.6,2.6,7.5,7,7.5c3.4,0,6-1.9,6.4-4.6H204.9L204.9,16.4z M229.2,11.4
	c-0.2-3.1-2.6-5.5-6.4-5.5c-4.2,0-6.9,2.9-6.9,7.6c0,4.7,2.7,7.5,7,7.5c3.6,0,6.1-2.1,6.4-5.4H226c-0.2,1.6-1.6,2.7-3.2,2.6
	c-2.2,0-3.6-1.8-3.6-4.8c0-3,1.4-4.8,3.5-4.8c1.6-0.1,3,1.1,3.2,2.7L229.2,11.4L229.2,11.4z M236.7,18.4c-1.5,0-2.5-0.8-2.5-1.9
	c0-1.1,0.9-1.9,2.6-2l3.3-0.2v1.1C240.2,17.1,238.7,18.4,236.7,18.4L236.7,18.4z M235.7,21c1.9,0,3.6-0.9,4.5-2.5h0.1v2.3h3.3v-10
	c0-2.9-2.3-4.8-5.9-4.8c-3.7,0-6,1.9-6.2,4.6h3.2c0.2-1.2,1.2-2,2.9-2c1.7,0,2.7,0.9,2.7,2.4v1l-3.8,0.2c-3.5,0.2-5.5,1.8-5.5,4.3
	C230.9,19.2,232.9,21,235.7,21L235.7,21z M238.7,4.2l3.2-4.2h-3.2l-2.4,4.2H238.7z M246.5,20.7h3.4v-8.9c0-1.8,1.2-3,2.8-3
	c1.6,0,2.6,1,2.6,2.6v9.3h3.3v-9c0-1.7,1.1-2.9,2.8-2.9c1.7,0,2.6,1,2.6,2.8v9.1h3.4v-9.9c0-2.9-1.9-4.8-4.7-4.8
	c-2-0.1-3.8,1.1-4.5,2.9H258C257.5,7,256,6,254,6c-1.8-0.1-3.5,1.1-4.1,2.8h-0.1V6.2h-3.3V20.7L246.5,20.7z M275.5,18.4
	c-1.5,0-2.5-0.8-2.5-1.9c0-1.1,0.9-1.9,2.6-2l3.3-0.2v1.1C279,17.1,277.5,18.4,275.5,18.4L275.5,18.4z M274.5,21
	c1.9,0,3.6-0.9,4.5-2.5h0.1v2.3h3.3v-10c0-2.9-2.3-4.8-5.9-4.8c-3.7,0-6,1.9-6.2,4.6h3.2c0.2-1.2,1.2-2,2.9-2c1.7,0,2.7,0.9,2.7,2.4
	v1l-3.8,0.2c-3.5,0.2-5.5,1.8-5.5,4.3C269.7,19.2,271.7,21,274.5,21L274.5,21z M285.3,20.7h3.4v-8.4c0-2,1.2-3.3,3.1-3.3
	c0.5,0,0.9,0.1,1.4,0.2V6.1C292.8,6,292.5,6,292.1,6c-1.7,0-3,1-3.5,2.8h-0.1V6.2h-3.3L285.3,20.7L285.3,20.7z M300.1,18.4
	c-1.5,0-2.5-0.8-2.5-1.9c0-1.1,0.9-1.9,2.6-2l3.3-0.2v1.1C303.6,17.1,302,18.4,300.1,18.4L300.1,18.4z M299.1,21
	c1.9,0,3.6-0.9,4.5-2.5h0.1v2.3h3.3v-10c0-2.9-2.3-4.8-5.9-4.8c-3.7,0-6,1.9-6.2,4.6h3.2c0.2-1.2,1.2-2,2.9-2c1.7,0,2.7,0.9,2.7,2.4
	v1l-3.8,0.2c-3.5,0.2-5.5,1.8-5.5,4.3C294.2,19.2,296.3,21,299.1,21L299.1,21z"/>
</svg>
