<?xml version="1.0" encoding="utf-8"?>
<!-- Generator: Adobe Illustrator 21.1.0, SVG Export Plug-In . SVG Version: 6.00 Build 0)  -->
<svg version="1.1" id="Layer_1" xmlns="http://www.w3.org/2000/svg" xmlns:xlink="http://www.w3.org/1999/xlink" x="0px" y="0px"
	 viewBox="0 0 492 76" style="enable-background:new 0 0 492 76;" xml:space="preserve">
<style type="text/css">
	.st0{fill:#FFFFFF;}
</style>
<path id="_50_S3_Title_1_medium_1x.svg" class="st0" d="M13.8,29.6V5.7h8.4V1.4H0.4v4.3h8.4v23.9L13.8,29.6L13.8,29.6z M21.9,29.6
	h4.9V17.5c0-2.9,1.7-4.7,4.4-4.7c0.7,0,1.3,0.1,2,0.3V8.7c-0.5-0.1-1-0.2-1.5-0.2c-2.4,0-4.3,1.4-5,4h-0.1V8.9h-4.7L21.9,29.6
	L21.9,29.6z M43.8,12.2c2.8,0,4.7,2.1,4.8,5h-9.7C39.1,14.3,41,12.2,43.8,12.2z M48.5,23.4c-0.5,1.7-2.2,2.9-4.5,2.9
	c-3.2,0-5.2-2.2-5.2-5.6v-0.3h14.5v-1.6c0-6.3-3.7-10.4-9.5-10.4c-6,0-9.8,4.3-9.8,10.9c0,6.6,3.8,10.7,10,10.7
	c4.9,0,8.5-2.7,9.2-6.6H48.5L48.5,23.4z M56,14.8c0,3.1,2,5,6,5.9l3.4,0.8c2.2,0.5,2.9,1.2,2.9,2.4c0,1.5-1.5,2.5-3.8,2.5
	c-2.5,0-3.8-1-4.2-3h-4.8c0.4,4,3.6,6.6,9,6.6c5.1,0,8.7-2.6,8.7-6.5c0-3-1.7-4.7-6-5.6l-3.4-0.8c-2.2-0.5-3-1.3-3-2.5
	c0-1.5,1.4-2.5,3.6-2.5c2.2,0,3.6,1.2,3.8,3.1h4.5c-0.1-3.9-3.3-6.6-8.4-6.6C59.3,8.5,56,11.1,56,14.8L56,14.8z M102.5,16.3
	c-0.3-4.4-3.7-7.8-9.2-7.8c-6,0-9.9,4.2-9.9,10.8c0,6.7,3.9,10.8,10,10.8c5.2,0,8.8-3.1,9.2-7.7H98c-0.5,2.3-2,3.8-4.5,3.8
	c-3.1,0-5.1-2.5-5.1-6.8c0-4.3,2-6.8,5-6.8c2.6,0,4.1,1.7,4.5,3.9L102.5,16.3L102.5,16.3z M113,26.3c-2.1,0-3.5-1.1-3.5-2.8
	c0-1.6,1.4-2.7,3.7-2.8l4.8-0.3v1.6C118,24.4,115.8,26.3,113,26.3z M111.6,29.9c2.7,0,5.3-1.4,6.4-3.6h0.1v3.3h4.7V15.3
	c0-4.2-3.3-6.9-8.5-6.9c-5.3,0-8.6,2.8-8.8,6.6h4.5c0.3-1.7,1.8-2.8,4.1-2.8c2.4,0,3.9,1.2,3.9,3.4v1.5l-5.5,0.3
	c-5,0.3-7.9,2.5-7.9,6.2C104.6,27.4,107.5,29.9,111.6,29.9z M115.8,6l4.6-6h-4.6l-3.4,6H115.8L115.8,6z M126.7,29.6h4.9V16.9
	c0-2.5,1.6-4.3,4-4.3c2.3,0,3.7,1.4,3.7,3.7v13.3h4.7V16.8c0-2.5,1.6-4.2,3.9-4.2c2.4,0,3.7,1.4,3.7,4v13h4.9V15.4
	c0-4.1-2.7-6.9-6.8-6.9c-3,0-5.5,1.6-6.4,4.2h-0.1c-0.8-2.7-2.9-4.2-5.8-4.2c-2.6-0.1-5,1.5-5.9,4h-0.1V8.9h-4.7L126.7,29.6
	L126.7,29.6z M167.9,26.3c-2.1,0-3.5-1.1-3.5-2.8c0-1.6,1.3-2.7,3.7-2.8l4.8-0.3v1.6C172.9,24.4,170.7,26.3,167.9,26.3z M166.4,29.9
	c2.7,0,5.3-1.4,6.4-3.6h0.1v3.3h4.7V15.3c0-4.2-3.3-6.9-8.5-6.9c-5.3,0-8.6,2.8-8.8,6.6h4.5c0.3-1.7,1.8-2.8,4.1-2.8
	c2.4,0,3.9,1.2,3.9,3.4v1.5l-5.5,0.3c-5,0.3-7.9,2.5-7.9,6.2C159.5,27.4,162.4,29.9,166.4,29.9z M181.6,29.6h4.9V17.6
	c0-2.9,1.7-4.7,4.4-4.7c0.7,0,1.3,0.1,2,0.3V8.7c-0.5-0.1-1-0.2-1.5-0.2c-2.4,0-4.3,1.4-5,4h-0.1V8.9h-4.7L181.6,29.6L181.6,29.6z
	 M202.4,26.3c-2.1,0-3.5-1.1-3.5-2.8c0-1.6,1.3-2.7,3.7-2.8l4.8-0.3v1.6C207.4,24.4,205.2,26.3,202.4,26.3L202.4,26.3z M201,29.9
	c2.7,0,5.2-1.4,6.4-3.6h0.1v3.3h4.7V15.3c0-4.2-3.3-6.9-8.5-6.9c-5.3,0-8.6,2.8-8.8,6.6h4.5c0.3-1.7,1.8-2.8,4.1-2.8
	c2.4,0,3.9,1.2,3.9,3.4v1.5l-5.5,0.3c-5,0.3-7.9,2.5-7.9,6.2C194.1,27.4,197,29.9,201,29.9L201,29.9z M215.7,14.8c0,3.1,2,5,6,5.9
	l3.4,0.8c2.2,0.5,2.9,1.2,2.9,2.4c0,1.5-1.5,2.5-3.8,2.5c-2.5,0-3.8-1-4.2-3h-4.8c0.4,4,3.6,6.6,9,6.6c5.1,0,8.7-2.6,8.7-6.5
	c0-3-1.7-4.7-6-5.6l-3.4-0.8c-2.2-0.5-3-1.3-3-2.5c0-1.5,1.4-2.5,3.6-2.5c2.2,0,3.6,1.2,3.8,3.1h4.5c-0.1-3.9-3.3-6.6-8.4-6.6
	C219,8.5,215.7,11.1,215.7,14.8L215.7,14.8z M251.7,8.6c-5.3,0-8.6,4.1-8.6,10.7c0,6.6,3.3,10.7,8.5,10.7c3,0,5.4-1.5,6.5-3.8h0.1
	v10.3h4.9V8.9h-4.8v3.6h-0.1C257,10,254.5,8.5,251.7,8.6L251.7,8.6z M253.1,26c-3.1,0-5-2.6-5-6.7s1.9-6.7,5-6.7
	c3.1,0,5.1,2.6,5.1,6.7C258.3,23.3,256.2,25.9,253.1,26L253.1,26z M285.4,8.9h-4.9v12c0,3-1.7,5-4.6,5c-2.7,0-4.2-1.6-4.2-4.6V8.9
	H267v13.4c0,4.8,2.8,7.7,7.3,7.7c3.1,0,5.2-1.4,6.3-4h0.1v3.6h4.7V8.9z M298.3,12.2c2.8,0,4.7,2.1,4.8,5h-9.7
	C293.6,14.3,295.6,12.2,298.3,12.2L298.3,12.2z M303.1,23.4c-0.5,1.7-2.2,2.9-4.5,2.9c-3.2,0-5.2-2.2-5.2-5.6v-0.3h14.5v-1.6
	c0-6.3-3.7-10.4-9.6-10.4c-6,0-9.8,4.3-9.8,10.9c0,6.6,3.8,10.7,10,10.7c4.9,0,8.5-2.7,9.2-6.6H303.1L303.1,23.4z M320.3,29.6h4.9
	v-17h4.1V9h-4.1V7.3c0-1.7,0.8-2.6,2.7-2.6c0.5,0,1,0,1.5,0.1V1.4c-0.9-0.1-1.7-0.2-2.6-0.2c-4.5,0-6.4,1.9-6.4,5.9V9h-2.8v3.7h2.8
	L320.3,29.6L320.3,29.6z M350.8,8.9H346v12c0,3-1.7,5-4.5,5c-2.7,0-4.2-1.6-4.2-4.6V8.9h-4.9v13.4c0,4.8,2.8,7.7,7.3,7.7
	c3.1,0,5.2-1.4,6.3-4h0.1v3.6h4.7V8.9z M354.8,29.6h4.9v-12c0-3,1.8-5,4.6-5c2.8,0,4.1,1.6,4.1,4.6v12.4h4.9V16.2
	c0-4.8-2.6-7.7-7.2-7.7c-3.2,0-5.4,1.5-6.5,3.9h-0.1V8.9h-4.7L354.8,29.6L354.8,29.6z M395.4,16.3c-0.3-4.4-3.7-7.8-9.2-7.8
	c-6,0-9.9,4.2-9.9,10.8c0,6.7,3.9,10.8,10,10.8c5.2,0,8.8-3.1,9.2-7.7h-4.6c-0.5,2.3-2.1,3.8-4.5,3.8c-3.1,0-5.1-2.5-5.1-6.8
	c0-4.3,2-6.8,5-6.8c2.6,0,4.1,1.7,4.5,3.9L395.4,16.3L395.4,16.3z M398.4,29.6h4.9V8.9h-4.9V29.6z M400.8,5.8c1.5,0,2.6-1.2,2.6-2.7
	c0-1.5-1.2-2.6-2.7-2.6c-1.4,0-2.6,1.2-2.6,2.6C398.1,4.6,399.3,5.8,400.8,5.8L400.8,5.8z M416.5,30c6.1,0,10-4,10-10.8
	c0-6.7-4-10.8-10-10.8s-10,4.1-10,10.8C406.5,26,410.4,30,416.5,30L416.5,30z M416.5,26.2c-3.1,0-5.1-2.5-5.1-6.9
	c0-4.4,2-6.9,5.1-6.9c3.1,0,5.1,2.5,5.1,6.9C421.6,23.7,419.6,26.2,416.5,26.2L416.5,26.2z M429.6,29.6h4.9v-12c0-3,1.8-5,4.6-5
	c2.8,0,4.1,1.6,4.1,4.6v12.4h4.9V16.2c0-4.8-2.6-7.7-7.2-7.7c-3.2,0-5.4,1.5-6.5,3.9h-0.1V8.9h-4.7L429.6,29.6L429.6,29.6z
	 M459.5,26.3c-2.1,0-3.5-1.1-3.5-2.8c0-1.6,1.3-2.7,3.7-2.8l4.8-0.3v1.6C464.5,24.4,462.3,26.3,459.5,26.3L459.5,26.3z M458.1,29.9
	c2.7,0,5.2-1.4,6.4-3.6h0.1v3.3h4.7V15.3c0-4.2-3.3-6.9-8.5-6.9c-5.3,0-8.6,2.8-8.8,6.6h4.5c0.3-1.7,1.8-2.8,4.1-2.8
	c2.4,0,3.9,1.2,3.9,3.4v1.5l-5.5,0.3c-5,0.3-7.9,2.5-7.9,6.2C451.1,27.4,454.1,29.9,458.1,29.9L458.1,29.9z M473.2,29.6h4.9v-12
	c0-3,1.8-5,4.6-5c2.8,0,4.1,1.6,4.1,4.6v12.4h4.9V16.2c0-4.8-2.6-7.7-7.2-7.7c-3.2,0-5.4,1.5-6.5,3.9h-0.1V8.9h-4.7L473.2,29.6
	L473.2,29.6z M19.7,60.3c-0.3-4.4-3.7-7.8-9.2-7.8c-6,0-9.9,4.2-9.9,10.8C0.6,70,4.5,74,10.5,74c5.2,0,8.8-3.1,9.2-7.7h-4.6
	c-0.5,2.3-2,3.8-4.5,3.8c-3.1,0-5.1-2.5-5.1-6.8c0-4.3,2-6.8,5-6.8c2.6,0,4.1,1.7,4.5,3.9L19.7,60.3L19.7,60.3z M31.7,74
	c6.1,0,10-4,10-10.8c0-6.7-4-10.8-10-10.8s-10,4.1-10,10.8C21.7,70,25.7,74,31.7,74L31.7,74z M31.7,70.2c-3.1,0-5.1-2.5-5.1-6.9
	c0-4.4,2-6.9,5.1-6.9c3.1,0,5.1,2.5,5.1,6.9C36.8,67.7,34.8,70.2,31.7,70.2L31.7,70.2z M44.9,73.6h4.9V60.9c0-2.5,1.6-4.3,4-4.3
	c2.3,0,3.7,1.4,3.7,3.7v13.3h4.7V60.8c0-2.5,1.6-4.2,3.9-4.2c2.4,0,3.7,1.4,3.7,4v13h4.9V59.4c0-4.1-2.7-6.9-6.8-6.9
	c-3,0-5.5,1.6-6.4,4.2h-0.1c-0.8-2.7-2.9-4.2-5.8-4.2c-2.6-0.1-5,1.5-5.9,4h-0.1v-3.6h-4.7L44.9,73.6L44.9,73.6z M87.7,74
	c6.1,0,10-4,10-10.8c0-6.7-4-10.8-10-10.8s-10,4.1-10,10.8C77.7,70,81.6,74,87.7,74L87.7,74z M87.7,70.2c-3.1,0-5.1-2.5-5.1-6.9
	c0-4.4,2-6.9,5.1-6.9c3.1,0,5.1,2.5,5.1,6.9C92.8,67.7,90.8,70.2,87.7,70.2L87.7,70.2z M127.2,52.9h-4.9v12c0,3-1.7,5-4.5,5
	c-2.7,0-4.2-1.6-4.2-4.6V52.9h-4.9v13.4c0,4.8,2.9,7.7,7.3,7.7c3.1,0,5.2-1.4,6.3-4h0.1v3.6h4.7L127.2,52.9L127.2,52.9z M131.2,73.6
	h4.9v-12c0-3,1.8-5,4.6-5c2.8,0,4.1,1.6,4.1,4.6v12.4h4.9V60.2c0-4.8-2.6-7.7-7.2-7.7c-3.2,0-5.4,1.5-6.5,3.9h-0.1v-3.6h-4.7
	L131.2,73.6L131.2,73.6z M161,70.3c-2.1,0-3.5-1.1-3.5-2.8c0-1.6,1.4-2.7,3.7-2.8l4.8-0.3v1.6C166,68.4,163.8,70.3,161,70.3
	L161,70.3z M159.6,73.9c2.7,0,5.3-1.4,6.4-3.6h0.1v3.3h4.7V59.3c0-4.2-3.3-6.9-8.5-6.9c-5.3,0-8.6,2.8-8.8,6.6h4.5
	c0.3-1.7,1.8-2.8,4.1-2.8c2.4,0,3.9,1.2,3.9,3.4v1.5l-5.5,0.3c-5,0.3-7.9,2.5-7.9,6.2C152.7,71.4,155.6,73.9,159.6,73.9L159.6,73.9z
	 M182.4,58.8c0,3.1,2,5,6,5.9l3.4,0.8c2.2,0.5,2.9,1.2,2.9,2.4c0,1.5-1.5,2.5-3.8,2.5c-2.5,0-3.8-1-4.2-3h-4.8c0.4,4,3.6,6.6,9,6.6
	c5.1,0,8.7-2.6,8.7-6.5c0-3-1.7-4.7-6-5.6l-3.4-0.8c-2.2-0.5-3-1.3-3-2.5c0-1.5,1.4-2.5,3.6-2.5c2.2,0,3.6,1.2,3.8,3.1h4.5
	c-0.1-3.9-3.3-6.6-8.4-6.6C185.7,52.5,182.4,55.1,182.4,58.8L182.4,58.8z M211.8,74c6.1,0,10-4,10-10.8c0-6.7-4-10.8-10-10.8
	s-10,4.1-10,10.8C201.7,70,205.7,74,211.8,74L211.8,74z M211.8,70.2c-3.1,0-5.1-2.5-5.1-6.9c0-4.4,2-6.9,5.1-6.9
	c3.1,0,5.1,2.5,5.1,6.9C216.8,67.7,214.9,70.2,211.8,70.2L211.8,70.2z M225,73.6h4.9V45.4H225V73.6z M241.6,70.3
	c-2.1,0-3.5-1.1-3.5-2.8c0-1.6,1.3-2.7,3.7-2.8l4.8-0.3v1.6C246.6,68.4,244.4,70.3,241.6,70.3L241.6,70.3z M240.1,73.9
	c2.7,0,5.2-1.4,6.4-3.6h0.1v3.3h4.7V59.3c0-4.2-3.3-6.9-8.5-6.9c-5.3,0-8.6,2.8-8.8,6.6h4.5c0.3-1.7,1.8-2.8,4.1-2.8
	c2.4,0,3.9,1.2,3.9,3.4v1.5l-5.5,0.3c-5,0.3-7.9,2.5-7.9,6.2C233.2,71.4,236.1,73.9,240.1,73.9L240.1,73.9z M258.7,73.8
	c1.6,0,2.8-1.3,2.8-2.8c0-1.6-1.3-2.8-2.8-2.8c-1.6,0-2.8,1.3-2.8,2.8C255.8,72.5,257.1,73.8,258.7,73.8
	C258.6,73.8,258.7,73.8,258.7,73.8L258.7,73.8z"/>
</svg>
