<?xml version="1.0" encoding="utf-8"?>
<!-- Generator: Adobe Illustrator 21.1.0, SVG Export Plug-In . SVG Version: 6.00 Build 0)  -->
<svg version="1.1" id="Layer_1" xmlns="http://www.w3.org/2000/svg" xmlns:xlink="http://www.w3.org/1999/xlink" x="0px" y="0px"
	 viewBox="0 0 772 120" style="enable-background:new 0 0 772 120;" xml:space="preserve">
<style type="text/css">
	.st0{fill:#FFFFFF;}
</style>
<path id="_50_S3_Title_1_large_1x.svg" class="st0" d="M21.7,47.4V9.1h13.5V2.3h-35v6.8h13.5v38.3H21.7z M34,47.4h7.8V28.1
	c0-4.7,2.7-7.5,7.1-7.5c1.1,0,2.1,0.1,3.2,0.4v-7c-0.8-0.2-1.6-0.3-2.4-0.3c-3.9,0-6.8,2.3-7.9,6.3h-0.2v-5.8H34V47.4z M68.5,19.6
	c4.5,0,7.5,3.3,7.6,8H60.6C60.9,22.9,64.1,19.6,68.5,19.6L68.5,19.6z M76.1,37.5c-0.8,2.8-3.6,4.6-7.2,4.6c-5.1,0-8.3-3.6-8.3-8.9
	v-0.5h23.2v-2.5c0-10.1-5.9-16.6-15.3-16.6c-9.6,0-15.6,6.9-15.6,17.4c0,10.6,6,17.1,15.9,17.1c7.8,0,13.7-4.3,14.7-10.6H76.1
	L76.1,37.5z M87.6,23.7c0,4.9,3.2,8,9.5,9.4l5.5,1.2c3.5,0.8,4.7,1.9,4.7,3.9c0,2.5-2.3,4-6.1,4c-3.9,0-6.2-1.6-6.8-4.8h-7.7
	c0.6,6.4,5.8,10.5,14.4,10.5c8.1,0,13.9-4.2,13.9-10.5c0-4.8-2.7-7.5-9.5-9l-5.5-1.2c-3.5-0.8-4.8-2.1-4.8-4c0-2.4,2.3-4.1,5.7-4.1
	c3.6,0,5.8,1.9,6.1,4.9h7.2c-0.2-6.3-5.3-10.6-13.4-10.6C92.8,13.6,87.6,17.7,87.6,23.7z M160.8,26.1c-0.5-7-5.9-12.5-14.7-12.5
	c-9.6,0-15.9,6.7-15.9,17.2c0,10.8,6.2,17.2,15.9,17.2c8.3,0,14-4.9,14.7-12.3h-7.3c-0.7,3.8-3.3,6-7.2,6c-4.9,0-8.1-4-8.1-10.9
	c0-6.8,3.2-10.9,8.1-10.9c4.2,0,6.6,2.7,7.2,6.2H160.8z M177,42c-3.4,0-5.6-1.7-5.6-4.4c0-2.6,2.2-4.3,5.9-4.6l7.7-0.5v2.5
	C184.9,39.1,181.4,42,177,42L177,42z M174.6,47.9c4.2,0,8.4-2.2,10.3-5.8h0.2v5.3h7.5V24.6c0-6.7-5.3-11-13.6-11
	c-8.4,0-13.7,4.4-14.1,10.6h7.2c0.5-2.8,2.8-4.5,6.5-4.5c3.8,0,6.2,2,6.2,5.5v2.4l-8.8,0.5c-8.1,0.5-12.6,4-12.6,9.9
	C163.6,43.9,168.2,47.9,174.6,47.9L174.6,47.9z M181.5,9.6l7.3-9.7h-7.4L176,9.6H181.5L181.5,9.6z M198.3,47.4h7.8V27.1
	c0-4,2.6-6.9,6.4-6.9c3.6,0,5.9,2.3,5.9,6v21.2h7.6V26.9c0-4,2.6-6.7,6.3-6.7c3.8,0,5.9,2.3,5.9,6.4v20.8h7.8V24.6
	c0-6.6-4.3-11-10.8-11c-4.8,0-8.7,2.6-10.3,6.7h-0.2c-1.2-4.2-4.6-6.7-9.2-6.7c-4.5,0-8,2.5-9.4,6.4h-0.2v-5.8h-7.5L198.3,47.4
	L198.3,47.4z M263.6,42c-3.4,0-5.6-1.7-5.6-4.4c0-2.6,2.2-4.3,5.9-4.6l7.7-0.5v2.5C271.6,39.1,268,42,263.6,42L263.6,42z
	 M261.3,47.9c4.2,0,8.4-2.2,10.3-5.8h0.2v5.3h7.5V24.6c0-6.7-5.3-11-13.6-11c-8.4,0-13.7,4.4-14.1,10.6h7.2c0.5-2.8,2.8-4.5,6.5-4.5
	c3.8,0,6.2,2,6.2,5.5v2.4l-8.8,0.5c-8.1,0.5-12.6,4-12.6,9.9C250.2,43.9,254.9,47.9,261.3,47.9L261.3,47.9z M284.9,47.4h7.8V28.1
	c0-4.7,2.7-7.5,7.1-7.5c1.1,0,2.1,0.1,3.2,0.4v-7c-0.8-0.2-1.6-0.3-2.4-0.3c-3.9,0-6.8,2.3-7.9,6.3h-0.2v-5.8h-7.5L284.9,47.4
	L284.9,47.4z M317.7,42c-3.4,0-5.6-1.7-5.6-4.4c0-2.6,2.2-4.3,5.9-4.6l7.7-0.5v2.5C325.7,39.1,322.1,42,317.7,42L317.7,42z
	 M315.4,47.9c4.2,0,8.4-2.2,10.3-5.8h0.2v5.3h7.5V24.6c0-6.7-5.3-11-13.6-11c-8.4,0-13.7,4.4-14.1,10.6h7.2c0.5-2.8,2.8-4.5,6.5-4.5
	c3.8,0,6.2,2,6.2,5.5v2.4l-8.8,0.5c-8.1,0.5-12.6,4-12.6,9.9C304.3,43.9,309,47.9,315.4,47.9L315.4,47.9z M338.4,23.7
	c0,4.9,3.2,8,9.5,9.4l5.5,1.2c3.5,0.8,4.7,1.9,4.7,3.9c0,2.5-2.3,4-6.1,4c-3.9,0-6.2-1.6-6.8-4.8h-7.7c0.6,6.4,5.8,10.5,14.4,10.5
	c8.1,0,13.9-4.2,13.9-10.5c0-4.8-2.7-7.5-9.5-9l-5.5-1.2c-3.5-0.8-4.8-2.1-4.8-4c0-2.4,2.3-4.1,5.7-4.1c3.6,0,5.8,1.9,6.1,4.9h7.2
	c-0.2-6.3-5.3-10.6-13.4-10.6C343.7,13.6,338.4,17.7,338.4,23.7L338.4,23.7z M394.9,13.7c-8.4,0-13.8,6.6-13.8,17.1
	c0,10.5,5.3,17.1,13.6,17.1c4.8,0,8.7-2.4,10.4-6.1h0.2v16.5h7.8v-44h-7.6V20h-0.2C403.4,16.2,399.7,13.7,394.9,13.7L394.9,13.7z
	 M397.1,41.5c-5,0-8-4.1-8-10.7s3.1-10.7,8-10.7c4.9,0,8.2,4.2,8.2,10.7C405.3,37.3,402,41.5,397.1,41.5L397.1,41.5z M448.2,14.2
	h-7.8v19.2c0,4.8-2.8,8-7.3,8c-4.4,0-6.7-2.6-6.7-7.3V14.2h-7.8v21.4c0,7.7,4.6,12.3,11.8,12.3c5,0,8.4-2.3,10.1-6.3h0.2v5.8h7.5
	L448.2,14.2L448.2,14.2z M468.3,19.6c4.5,0,7.5,3.3,7.6,8h-15.5C460.8,22.9,463.9,19.6,468.3,19.6L468.3,19.6z M476,37.5
	c-0.8,2.8-3.6,4.6-7.2,4.6c-5.1,0-8.3-3.6-8.3-8.9v-0.5h23.2v-2.5c0-10.1-5.9-16.6-15.3-16.6c-9.6,0-15.6,6.9-15.6,17.4
	c0,10.6,6,17.1,15.9,17.1c7.8,0,13.7-4.3,14.7-10.6H476L476,37.5z M502.4,47.4h7.8V20.2h6.5v-5.9H510v-2.7c0-2.7,1.3-4.1,4.3-4.1
	c0.8,0,1.7,0.1,2.5,0.2V2.3c-1.4-0.2-2.8-0.3-4.2-0.3c-7.2,0-10.2,3-10.2,9.5v2.9h-4.5v5.9h4.5V47.4z M550.6,14.2h-7.8v19.2
	c0,4.8-2.8,8-7.3,8c-4.4,0-6.7-2.6-6.7-7.3V14.2H521v21.4c0,7.7,4.6,12.3,11.8,12.3c5,0,8.4-2.3,10.1-6.3h0.2v5.8h7.5V14.2z
	 M556.3,47.4h7.8V28.2c0-4.8,2.8-8,7.3-8c4.4,0,6.6,2.6,6.6,7.3v19.8h7.8V26c0-7.7-4.2-12.3-11.5-12.3c-5.1,0-8.6,2.4-10.4,6.3h-0.2
	v-5.7h-7.5L556.3,47.4L556.3,47.4z M620.7,26.1c-0.5-7-5.9-12.5-14.7-12.5c-9.6,0-15.9,6.7-15.9,17.2c0,10.8,6.2,17.2,15.9,17.2
	c8.3,0,14-4.9,14.7-12.3h-7.3c-0.7,3.8-3.3,6-7.2,6c-4.9,0-8.1-4-8.1-10.9c0-6.8,3.2-10.9,8.1-10.9c4.2,0,6.6,2.7,7.2,6.2H620.7
	L620.7,26.1z M624.9,47.4h7.8V14.2h-7.8V47.4z M628.8,9.2c2.3,0,4.2-1.9,4.2-4.2c0-2.3-1.9-4.2-4.2-4.2c-2.3,0-4.2,1.9-4.2,4.2
	C624.5,7.4,626.4,9.3,628.8,9.2C628.8,9.2,628.8,9.2,628.8,9.2L628.8,9.2z M653.3,48c9.7,0,16-6.5,16-17.2c0-10.7-6.4-17.2-16-17.2
	s-16,6.6-16,17.2C637.3,41.6,643.6,48,653.3,48L653.3,48z M653.3,41.9c-4.9,0-8.1-4-8.1-11.1c0-7,3.2-11.1,8.1-11.1
	c4.9,0,8.1,4,8.1,11.1C661.4,37.9,658.3,41.9,653.3,41.9L653.3,41.9z M673.8,47.4h7.8V28.2c0-4.8,2.8-8,7.3-8c4.4,0,6.6,2.6,6.6,7.3
	v19.8h7.8V26c0-7.7-4.2-12.3-11.5-12.3c-5.1,0-8.6,2.4-10.4,6.3h-0.2v-5.7h-7.5V47.4z M721,42c-3.4,0-5.6-1.7-5.6-4.4
	c0-2.6,2.2-4.3,5.9-4.6l7.7-0.5v2.5C729,39.1,725.4,42,721,42L721,42z M718.7,47.9c4.2,0,8.4-2.2,10.3-5.8h0.2v5.3h7.5V24.6
	c0-6.7-5.3-11-13.6-11c-8.4,0-13.7,4.4-14.1,10.6h7.2c0.5-2.8,2.8-4.5,6.5-4.5c3.8,0,6.2,2,6.2,5.5v2.4l-8.8,0.5
	c-8.1,0.5-12.6,4-12.6,9.9C707.6,43.9,712.3,47.9,718.7,47.9L718.7,47.9z M742.3,47.4h7.8V28.2c0-4.8,2.8-8,7.3-8
	c4.4,0,6.6,2.6,6.6,7.3v19.8h7.8V26c0-7.7-4.2-12.3-11.5-12.3c-5.1,0-8.6,2.4-10.4,6.3h-0.2v-5.7h-7.5V47.4z M31.1,94.1
	c-0.5-7-5.9-12.5-14.7-12.5c-9.6,0-15.9,6.7-15.9,17.2c0,10.8,6.2,17.2,15.9,17.2c8.3,0,14-4.9,14.7-12.3h-7.3c-0.7,3.8-3.3,6-7.2,6
	c-4.9,0-8.1-4-8.1-10.9c0-6.8,3.2-10.9,8.1-10.9c4.2,0,6.6,2.7,7.2,6.2H31.1z M49.8,116c9.7,0,16-6.5,16-17.2
	c0-10.7-6.4-17.2-16-17.2s-16,6.6-16,17.2C33.8,109.6,40.1,116,49.8,116L49.8,116z M49.8,109.9c-4.9,0-8.1-4-8.1-11.1
	c0-7,3.2-11.1,8.1-11.1c4.9,0,8.1,4,8.1,11.1C57.9,105.9,54.7,109.9,49.8,109.9L49.8,109.9z M70.3,115.4H78V95.1
	c0-4,2.6-6.9,6.4-6.9c3.6,0,5.9,2.3,5.9,6v21.2h7.6V94.9c0-4,2.6-6.7,6.3-6.7c3.8,0,5.9,2.3,5.9,6.4v20.8h7.8V92.6
	c0-6.6-4.3-11-10.8-11c-4.8,0-8.7,2.6-10.3,6.7h-0.2c-1.2-4.2-4.6-6.7-9.2-6.7c-4.5,0-8,2.5-9.4,6.4h-0.2v-5.8h-7.5L70.3,115.4
	L70.3,115.4z M138.2,116c9.7,0,16-6.5,16-17.2c0-10.7-6.4-17.2-16-17.2s-16,6.6-16,17.2C122.1,109.6,128.5,116,138.2,116L138.2,116z
	 M138.2,109.9c-4.9,0-8.1-4-8.1-11.1c0-7,3.2-11.1,8.1-11.1c4.9,0,8.1,4,8.1,11.1C146.3,105.9,143.1,109.9,138.2,109.9L138.2,109.9z
	 M200.2,82.2h-7.8v19.2c0,4.8-2.8,8-7.3,8c-4.4,0-6.7-2.6-6.7-7.3V82.2h-7.8v21.4c0,7.7,4.6,12.3,11.8,12.3c5,0,8.4-2.3,10.1-6.3
	h0.2v5.8h7.5V82.2z M206,115.4h7.8V96.2c0-4.8,2.8-8,7.3-8c4.4,0,6.6,2.6,6.6,7.3v19.8h7.8V94c0-7.7-4.2-12.3-11.5-12.3
	c-5.1,0-8.6,2.4-10.4,6.3h-0.2v-5.7H206V115.4z M253.2,110c-3.4,0-5.6-1.7-5.6-4.4c0-2.6,2.2-4.3,5.9-4.6l7.7-0.5v2.5
	C261.2,107.1,257.7,110,253.2,110L253.2,110z M250.9,115.9c4.2,0,8.4-2.2,10.3-5.8h0.2v5.3h7.5V92.6c0-6.7-5.3-11-13.6-11
	c-8.4,0-13.7,4.4-14.1,10.6h7.2c0.5-2.8,2.8-4.5,6.5-4.5c3.8,0,6.2,2,6.2,5.5v2.4l-8.8,0.5c-8.1,0.5-12.6,4-12.6,9.9
	C239.8,111.9,244.5,115.9,250.9,115.9L250.9,115.9z M286.2,91.7c0,4.9,3.2,8,9.5,9.4l5.5,1.2c3.5,0.8,4.7,1.9,4.7,3.9
	c0,2.5-2.3,4-6.1,4c-3.9,0-6.2-1.6-6.8-4.8h-7.7c0.6,6.4,5.8,10.5,14.4,10.5c8.1,0,13.9-4.2,13.9-10.5c0-4.8-2.7-7.5-9.5-9l-5.5-1.2
	c-3.5-0.8-4.8-2.1-4.8-4c0-2.4,2.3-4.1,5.7-4.1c3.6,0,5.8,1.9,6.1,4.9h7.2c-0.2-6.3-5.3-10.6-13.4-10.6
	C291.5,81.6,286.2,85.7,286.2,91.7L286.2,91.7z M332.7,116c9.7,0,16-6.5,16-17.2c0-10.7-6.4-17.2-16-17.2s-16,6.6-16,17.2
	C316.6,109.6,323,116,332.7,116L332.7,116z M332.7,109.9c-4.9,0-8.1-4-8.1-11.1c0-7,3.2-11.1,8.1-11.1c4.9,0,8.1,4,8.1,11.1
	C340.8,105.9,337.6,109.9,332.7,109.9L332.7,109.9z M353.4,115.4h7.8V70.3h-7.8L353.4,115.4L353.4,115.4z M379.3,110
	c-3.4,0-5.6-1.7-5.6-4.4c0-2.6,2.2-4.3,5.9-4.6l7.7-0.5v2.5C387.2,107.1,383.7,110,379.3,110L379.3,110z M376.9,115.9
	c4.2,0,8.4-2.2,10.3-5.8h0.2v5.3h7.5V92.6c0-6.7-5.3-11-13.6-11c-8.4,0-13.7,4.4-14.1,10.6h7.2c0.5-2.8,2.8-4.5,6.5-4.5
	c3.8,0,6.2,2,6.2,5.5v2.4l-8.8,0.5c-8.1,0.5-12.6,4-12.6,9.9C365.9,111.9,370.5,115.9,376.9,115.9L376.9,115.9z M406,115.7
	c2.5,0,4.5-2,4.5-4.5s-2-4.5-4.5-4.5s-4.5,2-4.5,4.5l0,0c0,2.4,1.9,4.5,4.4,4.5C405.9,115.7,406,115.7,406,115.7L406,115.7z"/>
</svg>
