<?xml version="1.0" encoding="utf-8"?>
<!-- Generator: Adobe Illustrator 21.1.0, SVG Export Plug-In . SVG Version: 6.00 Build 0)  -->
<svg version="1.1" id="Layer_1" xmlns="http://www.w3.org/2000/svg" xmlns:xlink="http://www.w3.org/1999/xlink" x="0px" y="0px"
	 viewBox="0 0 212 100" style="enable-background:new 0 0 212 100;" xml:space="preserve">
<style type="text/css">
	.st0{fill:#FFFFFF;}
</style>
<path id="_50_S3_Title_1_small_1x.svg" class="st0" d="M11.5,23.7V4.6h6.7V1.1H0.7v3.4h6.8v19.1H11.5z M18.1,23.7h3.9v-9.6
	c0-2.3,1.3-3.8,3.5-3.8c0.5,0,1.1,0.1,1.6,0.2V7c-0.4-0.1-0.8-0.1-1.2-0.2c-2,0-3.4,1.2-4,3.2h-0.1V7.1h-3.7L18.1,23.7L18.1,23.7z
	 M35.7,9.8c2.2,0,3.7,1.6,3.8,4h-7.7C31.9,11.5,33.5,9.8,35.7,9.8z M39.5,18.7c-0.4,1.4-1.8,2.3-3.6,2.3c-2.5,0-4.2-1.8-4.2-4.4
	v-0.2h11.6v-1.3c0-5-2.9-8.3-7.6-8.3c-4.8,0-7.8,3.4-7.8,8.7c0,5.3,3,8.6,8,8.6c3.9,0,6.8-2.2,7.3-5.3L39.5,18.7L39.5,18.7z
	 M45.7,11.9c0,2.5,1.6,4,4.8,4.7l2.8,0.6c1.7,0.4,2.3,1,2.3,2c0,1.2-1.2,2-3.1,2c-2,0-3.1-0.8-3.4-2.4h-3.8c0.3,3.2,2.9,5.3,7.2,5.3
	c4.1,0,6.9-2.1,6.9-5.2c0-2.4-1.3-3.7-4.8-4.5l-2.8-0.6c-1.7-0.4-2.4-1.1-2.4-2c0-1.2,1.1-2,2.9-2c1.8,0,2.9,0.9,3.1,2.4H59
	c-0.1-3.1-2.7-5.3-6.7-5.3C48.3,6.8,45.7,8.8,45.7,11.9z M83.1,13c-0.3-3.5-3-6.2-7.3-6.2c-4.8,0-7.9,3.3-7.9,8.6
	c0,5.4,3.1,8.6,8,8.6c4.2,0,7-2.4,7.3-6.1h-3.7c-0.2,1.8-1.8,3.1-3.6,3c-2.5,0-4.1-2-4.1-5.5c0-3.4,1.6-5.5,4-5.5
	c1.8-0.1,3.4,1.3,3.6,3.1H83.1z M91.6,21c-1.7,0-2.8-0.9-2.8-2.2c0-1.3,1.1-2.2,3-2.3l3.8-0.2v1.3C95.6,19.6,93.8,21,91.6,21
	L91.6,21z M90.4,24c2.1,0,4.1-1.1,5.2-2.9h0.1v2.6h3.8V12.3c0-3.3-2.7-5.5-6.8-5.5c-4.2,0-6.9,2.2-7,5.3h3.6
	c0.2-1.4,1.4-2.3,3.3-2.3c1.9,0,3.1,1,3.1,2.7v1.2L91.2,14c-4,0.2-6.3,2-6.3,5C84.9,21.9,87.2,24,90.4,24L90.4,24z M93.9,4.8L97.5,0
	h-3.7l-2.7,4.8H93.9z M102.7,23.7h3.9V13.6c0-2,1.3-3.5,3.2-3.5c1.8,0,2.9,1.1,2.9,3v10.6h3.8V13.5c0-2,1.3-3.4,3.2-3.4
	c1.9,0,3,1.2,3,3.2v10.4h3.9V12.3c0-3.3-2.1-5.5-5.4-5.5c-2.2-0.1-4.3,1.2-5.2,3.3h-0.1c-0.6-2.1-2.3-3.3-4.6-3.3
	c-2.1-0.1-4,1.2-4.7,3.2h-0.1V7.1h-3.7V23.7z M135.8,21c-1.7,0-2.8-0.9-2.8-2.2c0-1.3,1.1-2.2,3-2.3l3.8-0.2v1.3
	C139.8,19.6,138,21,135.8,21L135.8,21z M134.6,24c2.1,0,4.1-1.1,5.2-2.9h0.1v2.6h3.8V12.3c0-3.3-2.7-5.5-6.8-5.5
	c-4.2,0-6.9,2.2-7,5.3h3.6c0.2-1.4,1.4-2.3,3.3-2.3c1.9,0,3.1,1,3.1,2.7v1.2l-4.4,0.2c-4,0.2-6.3,2-6.3,5
	C129.1,21.9,131.4,24,134.6,24L134.6,24z M146.8,23.7h3.9v-9.6c0-2.3,1.3-3.8,3.5-3.8c0.5,0,1.1,0.1,1.6,0.2V7
	c-0.4-0.1-0.8-0.1-1.2-0.2c-2,0-3.4,1.2-4,3.2h-0.1V7.1h-3.7L146.8,23.7L146.8,23.7z M163.7,21c-1.7,0-2.8-0.9-2.8-2.2
	c0-1.3,1.1-2.2,3-2.3l3.8-0.2v1.3C167.6,19.6,165.9,21,163.7,21L163.7,21z M162.5,24c2.1,0,4.1-1.1,5.2-2.9h0.1v2.6h3.8V12.3
	c0-3.3-2.7-5.5-6.8-5.5c-4.2,0-6.9,2.2-7,5.3h3.6c0.2-1.4,1.4-2.3,3.3-2.3c1.9,0,3.1,1,3.1,2.7v1.2l-4.4,0.2c-4,0.2-6.3,2-6.3,5
	C157,21.9,159.3,24,162.5,24L162.5,24z M174.4,11.9c0,2.5,1.6,4,4.8,4.7l2.8,0.6c1.7,0.4,2.3,1,2.3,2c0,1.2-1.2,2-3.1,2
	c-2,0-3.1-0.8-3.4-2.4H174c0.3,3.2,2.9,5.3,7.2,5.3c4.1,0,6.9-2.1,6.9-5.2c0-2.4-1.3-3.7-4.8-4.5l-2.8-0.6c-1.7-0.4-2.4-1.1-2.4-2
	c0-1.2,1.1-2,2.9-2c1.8,0,2.9,0.9,3.1,2.4h3.6c-0.1-3.1-2.7-5.3-6.7-5.3C177.1,6.8,174.4,8.8,174.4,11.9L174.4,11.9z M7.8,42.9
	c-4.2,0-6.9,3.3-6.9,8.6c0,5.3,2.7,8.6,6.8,8.6c2.4,0,4.3-1.2,5.2-3.1H13v8.2h3.9v-22h-3.8V46H13C12,44,10,42.8,7.8,42.9L7.8,42.9z
	 M8.9,56.8c-2.5,0-4-2.1-4-5.4s1.5-5.4,4-5.4c2.5,0,4.1,2.1,4.1,5.4C13,54.7,11.3,56.8,8.9,56.8L8.9,56.8z M34.9,43.1H31v9.6
	c0,2.4-1.4,4-3.6,4c-2.2,0-3.3-1.3-3.3-3.7v-9.9h-3.9v10.7c0,3.8,2.3,6.2,5.9,6.2c2.5,0,4.2-1.2,5.1-3.2h0.1v2.9h3.8V43.1L34.9,43.1
	z M45.3,45.8c2.2,0,3.7,1.6,3.8,4h-7.7C41.5,47.5,43.1,45.8,45.3,45.8L45.3,45.8z M49.1,54.7c-0.4,1.4-1.8,2.3-3.6,2.3
	c-2.5,0-4.2-1.8-4.2-4.4v-0.2h11.6v-1.3c0-5-2.9-8.3-7.6-8.3c-4.8,0-7.8,3.4-7.8,8.7c0,5.3,3,8.6,8,8.6c3.9,0,6.8-2.2,7.3-5.3
	L49.1,54.7L49.1,54.7z M63.2,59.7h3.9V46.1h3.2v-2.9H67v-1.4c0-1.3,0.7-2,2.2-2c0.4,0,0.8,0,1.2,0.1v-2.7C69.7,37,69,37,68.3,37
	c-3.6,0-5.1,1.5-5.1,4.7v1.5h-2.3v2.9h2.3V59.7L63.2,59.7z M87.7,43.1h-3.9v9.6c0,2.4-1.4,4-3.6,4c-2.2,0-3.3-1.3-3.3-3.7v-9.9h-3.9
	v10.7c0,3.8,2.3,6.2,5.9,6.2c2.5,0,4.2-1.2,5.1-3.2h0.1v2.9h3.8V43.1L87.7,43.1z M91,59.7h3.9v-9.6c0-2.4,1.4-4,3.7-4
	c2.2,0,3.3,1.3,3.3,3.7v9.9h3.9V49c0-3.8-2.1-6.2-5.7-6.2c-2.5,0-4.3,1.2-5.2,3.2h-0.1v-2.8H91V59.7L91,59.7z M123.6,49
	c-0.3-3.5-3-6.2-7.3-6.2c-4.8,0-7.9,3.3-7.9,8.6c0,5.4,3.1,8.6,8,8.6c4.2,0,7-2.4,7.3-6.1h-3.7c-0.2,1.8-1.8,3.1-3.6,3
	c-2.5,0-4.1-2-4.1-5.5c0-3.4,1.6-5.5,4-5.5c1.8-0.1,3.4,1.3,3.6,3.1H123.6z M126.1,59.7h3.9V43.1h-3.9V59.7L126.1,59.7z M128,40.6
	c1.2,0,2.1-1,2.1-2.1c0-1.2-1-2.1-2.1-2.1c-1.2,0-2.1,1-2.1,2.1C125.9,39.7,126.9,40.6,128,40.6C128,40.6,128,40.6,128,40.6
	L128,40.6z M140.7,60c4.9,0,8-3.2,8-8.6c0-5.4-3.2-8.6-8-8.6s-8,3.3-8,8.6C132.7,56.8,135.9,60,140.7,60L140.7,60z M140.7,56.9
	c-2.5,0-4.1-2-4.1-5.5c0-3.5,1.6-5.5,4.1-5.5c2.5,0,4.1,2,4.1,5.5C144.8,54.9,143.2,56.9,140.7,56.9L140.7,56.9z M151.4,59.7h3.9
	v-9.6c0-2.4,1.4-4,3.7-4c2.2,0,3.3,1.3,3.3,3.7v9.9h3.9V49c0-3.8-2.1-6.2-5.7-6.2c-2.5,0-4.3,1.2-5.2,3.2h-0.1v-2.8h-3.7V59.7
	L151.4,59.7z M175.4,57c-1.7,0-2.8-0.9-2.8-2.2c0-1.3,1.1-2.2,3-2.3l3.8-0.2v1.3C179.4,55.6,177.6,57,175.4,57L175.4,57z M174.2,60
	c2.1,0,4.1-1.1,5.2-2.9h0.1v2.6h3.8V48.3c0-3.3-2.7-5.5-6.8-5.5c-4.2,0-6.9,2.2-7,5.3h3.6c0.2-1.4,1.4-2.3,3.3-2.3
	c1.9,0,3.1,1,3.1,2.7v1.2L175,50c-4,0.2-6.3,2-6.3,5C168.7,57.9,171,60,174.2,60L174.2,60z M186.5,59.7h3.9v-9.6c0-2.4,1.4-4,3.7-4
	c2.2,0,3.3,1.3,3.3,3.7v9.9h3.9V49c0-3.8-2.1-6.2-5.7-6.2c-2.5,0-4.3,1.2-5.2,3.2h-0.1v-2.8h-3.7V59.7L186.5,59.7z M16.2,85
	c-0.3-3.5-3-6.2-7.3-6.2c-4.8,0-7.9,3.3-7.9,8.6c0,5.4,3.1,8.6,8,8.6c4.2,0,7-2.4,7.3-6.1h-3.7c-0.2,1.8-1.8,3.1-3.6,3
	c-2.5,0-4.1-2-4.1-5.5c0-3.4,1.6-5.5,4-5.5c1.8-0.1,3.4,1.3,3.6,3.1H16.2L16.2,85z M25.9,96c4.9,0,8-3.2,8-8.6c0-5.4-3.2-8.6-8-8.6
	s-8,3.3-8,8.6C17.9,92.8,21.1,96,25.9,96L25.9,96z M25.9,92.9c-2.5,0-4.1-2-4.1-5.5c0-3.5,1.6-5.5,4.1-5.5c2.5,0,4.1,2,4.1,5.5
	C30,90.9,28.4,92.9,25.9,92.9L25.9,92.9z M36.6,95.7h3.9V85.6c0-2,1.3-3.5,3.2-3.5c1.8,0,2.9,1.1,2.9,3v10.6h3.8V85.5
	c0-2,1.3-3.4,3.2-3.4c1.9,0,3,1.2,3,3.2v10.4h3.9V84.3c0-3.3-2.1-5.5-5.4-5.5c-2.2-0.1-4.3,1.2-5.2,3.3h-0.1
	c-0.6-2.1-2.3-3.3-4.6-3.3c-2.1-0.1-4,1.2-4.7,3.2h-0.1v-2.9h-3.7L36.6,95.7L36.6,95.7z M71,96c4.9,0,8-3.2,8-8.6
	c0-5.4-3.2-8.6-8-8.6s-8,3.3-8,8.6C63,92.8,66.1,96,71,96L71,96z M71,92.9c-2.5,0-4.1-2-4.1-5.5c0-3.5,1.6-5.5,4.1-5.5
	c2.5,0,4.1,2,4.1,5.5C75,90.9,73.4,92.9,71,92.9L71,92.9z M102.8,79.1h-3.9v9.6c0,2.4-1.4,4-3.6,4c-2.2,0-3.3-1.3-3.3-3.7v-9.9h-3.9
	v10.7c0,3.8,2.3,6.2,5.9,6.2c2.5,0,4.2-1.2,5.1-3.2h0.1v2.9h3.8V79.1L102.8,79.1z M106.1,95.7h3.9v-9.6c0-2.4,1.4-4,3.7-4
	c2.2,0,3.3,1.3,3.3,3.7v9.9h3.9V85c0-3.8-2.1-6.2-5.7-6.2c-2.5,0-4.3,1.2-5.2,3.2h-0.1v-2.8h-3.7L106.1,95.7L106.1,95.7z M130.2,93
	c-1.7,0-2.8-0.9-2.8-2.2c0-1.3,1.1-2.2,3-2.3l3.8-0.2v1.3C134.1,91.6,132.4,93,130.2,93L130.2,93z M129,96c2.1,0,4.1-1.1,5.2-2.9
	h0.1v2.6h3.8V84.3c0-3.3-2.7-5.5-6.8-5.5c-4.2,0-6.9,2.2-7,5.3h3.6c0.2-1.4,1.4-2.3,3.3-2.3c1.9,0,3.1,1,3.1,2.7v1.2l-4.4,0.2
	c-4,0.2-6.3,2-6.3,5C123.5,93.9,125.8,96,129,96L129,96z M147.5,83.9c0,2.5,1.6,4,4.8,4.7l2.8,0.6c1.7,0.4,2.3,1,2.3,2
	c0,1.2-1.2,2-3.1,2c-2,0-3.1-0.8-3.4-2.4h-3.8c0.3,3.2,2.9,5.3,7.2,5.3c4.1,0,6.9-2.1,6.9-5.2c0-2.4-1.3-3.7-4.8-4.5l-2.8-0.6
	c-1.7-0.4-2.4-1.1-2.4-2c0-1.2,1.1-2,2.9-2c1.8,0,2.9,0.9,3.1,2.4h3.6c-0.1-3.1-2.7-5.3-6.7-5.3C150.1,78.8,147.5,80.8,147.5,83.9
	L147.5,83.9z M171.1,96c4.9,0,8-3.2,8-8.6c0-5.4-3.2-8.6-8-8.6s-8,3.3-8,8.6C163.1,92.8,166.3,96,171.1,96L171.1,96z M171.1,92.9
	c-2.5,0-4.1-2-4.1-5.5c0-3.5,1.6-5.5,4.1-5.5c2.5,0,4.1,2,4.1,5.5C175.2,90.9,173.6,92.9,171.1,92.9L171.1,92.9z M181.9,95.7h3.9
	V73.2h-3.9L181.9,95.7L181.9,95.7z M195.3,93c-1.7,0-2.8-0.9-2.8-2.2c0-1.3,1.1-2.2,3-2.3l3.8-0.2v1.3C199.2,91.6,197.5,93,195.3,93
	L195.3,93z M194.1,96c2.1,0,4.1-1.1,5.2-2.9h0.1v2.6h3.8V84.3c0-3.3-2.7-5.5-6.8-5.5c-4.2,0-6.9,2.2-7,5.3h3.6
	c0.2-1.4,1.4-2.3,3.3-2.3c1.9,0,3.1,1,3.1,2.7v1.2l-4.4,0.2c-4,0.2-6.3,2-6.3,5C188.6,93.9,190.9,96,194.1,96L194.1,96z M209,95.9
	c1.2,0,2.2-1,2.2-2.2s-1-2.2-2.2-2.2s-2.2,1-2.2,2.2l0,0C206.8,94.8,207.8,95.8,209,95.9C209,95.9,209,95.9,209,95.9L209,95.9z"/>
</svg>
