<?xml version="1.0" encoding="utf-8"?>
<!-- Generator: Adobe Illustrator 21.1.0, SVG Export Plug-In . SVG Version: 6.00 Build 0)  -->
<svg version="1.1" id="Layer_1" xmlns="http://www.w3.org/2000/svg" xmlns:xlink="http://www.w3.org/1999/xlink" x="0px" y="0px"
	 viewBox="0 0 344 188" style="enable-background:new 0 0 344 188;" xml:space="preserve">
<style type="text/css">
	.st0{fill:#FFFFFF;}
</style>
<path id="_50_S5_Title_1_large_1x.svg" class="st0" d="M30.5,45.4h-7.3c-0.2,3.9-2.9,6.3-6.8,6.3S9.8,49.4,9.8,46
	c0-3.1,1.3-4.8,5.2-7.1c4.3-2.6,6.1-5.3,5.8-10l0-2.2h-7.2v1.8c0,3.1-1.1,4.7-5.2,7.1C4,38.2,1.6,41.6,1.6,46.3
	c0,6.9,5.7,11.8,14.3,11.8C25.2,58.2,30.3,52.8,30.5,45.4z M16.8,20.7c2.4-0.1,4.3-2.1,4.3-4.5s-2.1-4.3-4.5-4.3
	c-2.4,0.1-4.3,2-4.3,4.4C12.2,18.8,14.2,20.8,16.8,20.7C16.7,20.7,16.7,20.7,16.8,20.7L16.8,20.7z M52.8,48.1c2.7,0,5.4-0.4,8-1.3
	l3.8,5.1h7.9l-6.1-8.2c5.1-4,7.8-10.6,7.8-18.9c0-14.4-8.3-23.3-21.4-23.3c-13.1,0-21.4,9-21.4,23.3S39.6,48.1,52.8,48.1L52.8,48.1z
	 M52.8,41.4c-8.1,0-13.2-6.5-13.2-16.5c0-10.1,5.1-16.6,13.2-16.6c8.1,0,13.3,6.5,13.3,16.6c0,5.4-1.6,9.8-4.4,12.6l-3.1-4.2h-7.9
	l5.7,7.6C55.2,41.2,54,41.4,52.8,41.4L52.8,41.4z M108.6,14.2h-7.8v19.2c0,4.8-2.8,8-7.3,8c-4.4,0-6.7-2.6-6.7-7.3V14.2h-7.8v21.4
	c0,7.7,4.6,12.3,11.8,12.3c5,0,8.4-2.3,10.1-6.3h0.2v5.8h7.5L108.6,14.2L108.6,14.2z M114.6,47.4h7.8V14.2h-7.8V47.4L114.6,47.4z
	 M118.4,9.2c2.3,0,4.2-1.9,4.2-4.2c0-2.3-1.9-4.2-4.2-4.2c-2.3,0-4.2,1.9-4.2,4.2C114.2,7.4,116.1,9.3,118.4,9.2L118.4,9.2z
	 M142.6,19.6c4.5,0,7.5,3.3,7.6,8h-15.5C135,22.9,138.2,19.6,142.6,19.6L142.6,19.6z M150.2,37.5c-0.8,2.8-3.6,4.6-7.2,4.6
	c-5.1,0-8.3-3.6-8.3-8.9v-0.5h23.2v-2.5c0-10.1-5.9-16.6-15.3-16.6c-9.6,0-15.6,6.9-15.6,17.4c0,10.6,6,17.1,15.9,17.1
	c7.8,0,13.7-4.3,14.7-10.6H150.2L150.2,37.5z M145.3,9.7l7.3-9.7h-7.4l-5.4,9.7H145.3L145.3,9.7z M162.3,47.4h7.8V28.2
	c0-4.8,2.8-8,7.3-8c4.4,0,6.6,2.6,6.6,7.3v19.8h7.8V26c0-7.7-4.2-12.3-11.5-12.3c-5.1,0-8.6,2.4-10.4,6.3h-0.2v-5.7h-7.5V47.4
	L162.3,47.4z M211.8,6.5v7.8H207v6h4.8v18.3c0,6.4,2.8,9,10,9c1.4,0,2.7-0.1,4-0.3v-5.9c-0.7,0.1-1.5,0.2-2.2,0.2c-2.8,0-4-1.2-4-4
	V20.2h6.2v-6h-6.2V6.5L211.8,6.5L211.8,6.5z M230.7,47.4h7.8V14.2h-7.8V47.4L230.7,47.4z M234.6,9.2c2.3,0,4.2-1.9,4.2-4.2
	c0-2.3-1.9-4.2-4.2-4.2c-2.3,0-4.2,1.9-4.2,4.2C230.3,7.4,232.2,9.3,234.6,9.2C234.6,9.2,234.6,9.2,234.6,9.2L234.6,9.2z
	 M258.7,19.6c4.5,0,7.5,3.3,7.6,8h-15.5C251.2,22.9,254.4,19.6,258.7,19.6L258.7,19.6z M266.4,37.5c-0.8,2.8-3.6,4.6-7.2,4.6
	c-5.1,0-8.3-3.6-8.3-8.9v-0.5H274v-2.5c0-10.1-5.9-16.6-15.3-16.6c-9.6,0-15.6,6.9-15.6,17.4c0,10.6,6,17.1,15.9,17.1
	c7.8,0,13.7-4.3,14.7-10.6H266.4z M278.4,47.4h7.8V28.2c0-4.8,2.8-8,7.3-8c4.4,0,6.6,2.6,6.6,7.3v19.8h7.8V26
	c0-7.7-4.2-12.3-11.5-12.3c-5.1,0-8.6,2.4-10.4,6.3h-0.2v-5.7h-7.5V47.4L278.4,47.4z M327.8,19.6c4.5,0,7.5,3.3,7.6,8H320
	C320.3,22.9,323.5,19.6,327.8,19.6L327.8,19.6z M335.5,37.5c-0.8,2.8-3.6,4.6-7.2,4.6c-5.1,0-8.3-3.6-8.3-8.9v-0.5h23.2v-2.5
	c0-10.1-5.9-16.6-15.3-16.6c-9.6,0-15.6,6.9-15.6,17.4c0,10.6,6,17.1,15.9,17.1c7.8,0,13.7-4.3,14.7-10.6H335.5L335.5,37.5z
	 M2.3,115.4h7.8V95.1c0-4,2.6-6.9,6.4-6.9c3.6,0,5.9,2.3,5.9,6v21.2h7.6V94.9c0-4,2.6-6.7,6.3-6.7c3.8,0,5.9,2.3,5.9,6.4v20.8h7.8
	V92.7c0-6.6-4.3-11-10.8-11c-4.8,0-8.7,2.6-10.3,6.7h-0.2c-1.2-4.2-4.6-6.7-9.2-6.7c-4.5,0-8,2.5-9.4,6.4H9.8v-5.8H2.3V115.4
	L2.3,115.4z M55.7,115.4h7.8V82.2h-7.8V115.4L55.7,115.4z M59.6,77.2c2.3,0,4.2-1.9,4.2-4.2c0-2.3-1.9-4.2-4.2-4.2
	c-2.3,0-4.2,1.9-4.2,4.2C55.3,75.4,57.2,77.3,59.6,77.2C59.6,77.2,59.6,77.2,59.6,77.2L59.6,77.2z M83.8,87.6c4.5,0,7.5,3.3,7.6,8
	H75.9C76.2,90.9,79.4,87.6,83.8,87.6L83.8,87.6z M91.4,105.5c-0.8,2.8-3.6,4.6-7.2,4.6c-5.1,0-8.3-3.6-8.3-8.9v-0.5H99v-2.5
	c0-10.1-5.9-16.6-15.3-16.6c-9.6,0-15.6,6.9-15.6,17.4c0,10.6,6,17.1,15.9,17.1c7.8,0,13.7-4.3,14.7-10.6H91.4L91.4,105.5z
	 M115.8,115.9c4.8,0,8.7-2.5,10.5-6.2h0.1v5.7h7.6V70.3h-7.8v17.5h-0.2c-1.8-3.7-5.5-6.1-10.2-6.1c-8.3,0-13.8,6.6-13.8,17.1
	C102.1,109.3,107.5,115.9,115.8,115.9L115.8,115.9z M118.2,88.1c4.9,0,8.1,4.2,8.1,10.7c0,6.6-3.2,10.7-8.1,10.7
	c-5,0-8.1-4.1-8.1-10.7C110,92.2,113.2,88.1,118.2,88.1L118.2,88.1z M154.6,116c9.7,0,16-6.5,16-17.2c0-10.7-6.4-17.2-16-17.2
	s-16,6.6-16,17.2C138.6,109.6,144.9,116,154.6,116L154.6,116z M154.6,109.9c-4.9,0-8.1-4-8.1-11.1c0-7,3.2-11.1,8.1-11.1
	c4.9,0,8.1,4,8.1,11.1C162.8,105.9,159.6,109.9,154.6,109.9L154.6,109.9z M199.4,110c-3.4,0-5.6-1.7-5.6-4.4c0-2.6,2.2-4.3,5.9-4.6
	l7.7-0.5v2.5C207.4,107.1,203.8,110,199.4,110L199.4,110z M197.1,115.9c4.2,0,8.4-2.2,10.3-5.8h0.2v5.3h7.5V92.6
	c0-6.7-5.3-11-13.6-11c-8.4,0-13.7,4.4-14.1,10.6h7.2c0.5-2.8,2.8-4.5,6.5-4.5c3.8,0,6.2,2,6.2,5.5v2.4l-8.8,0.5
	c-8.1,0.5-12.6,4-12.6,9.9C186,111.9,190.7,115.9,197.1,115.9L197.1,115.9z M233.2,115.4h7.8V70.3h-7.8V115.4z M259.1,110
	c-3.4,0-5.6-1.7-5.6-4.4c0-2.6,2.2-4.3,5.9-4.6l7.7-0.5v2.5C267,107.1,263.5,110,259.1,110L259.1,110z M256.8,115.9
	c4.2,0,8.4-2.2,10.3-5.8h0.2v5.3h7.5V92.6c0-6.7-5.3-11-13.6-11c-8.4,0-13.7,4.4-14.1,10.6h7.2c0.5-2.8,2.8-4.5,6.5-4.5
	c3.8,0,6.2,2,6.2,5.5v2.4l-8.8,0.5c-8.1,0.5-12.6,4-12.6,9.9C245.7,111.9,250.4,115.9,256.8,115.9L256.8,115.9z M16.9,184
	c9.7,0,16-6.5,16-17.2c0-10.7-6.4-17.2-16-17.2s-16,6.6-16,17.2C0.9,177.6,7.2,184,16.9,184L16.9,184z M16.9,177.9
	c-4.9,0-8.1-4-8.1-11.1c0-7,3.2-11.1,8.1-11.1c4.9,0,8.1,4,8.1,11.1C25.1,173.9,21.9,177.9,16.9,177.9L16.9,177.9z M36.8,159.7
	c0,4.9,3.2,8,9.5,9.4l5.5,1.2c3.5,0.8,4.7,1.9,4.7,3.9c0,2.5-2.3,4-6.1,4c-3.9,0-6.2-1.6-6.8-4.8H36c0.6,6.4,5.8,10.5,14.4,10.5
	c8.1,0,13.9-4.2,13.9-10.5c0-4.8-2.7-7.5-9.5-9l-5.5-1.2c-3.5-0.8-4.8-2.1-4.8-4c0-2.4,2.3-4.1,5.7-4.1c3.6,0,5.8,1.9,6.1,4.9h7.2
	c-0.2-6.3-5.3-10.6-13.4-10.6C42.1,149.6,36.8,153.7,36.8,159.7L36.8,159.7z M97.8,162.1c-0.5-7-5.9-12.5-14.7-12.5
	c-9.6,0-15.9,6.7-15.9,17.2c0,10.8,6.2,17.2,15.9,17.2c8.3,0,14-4.9,14.7-12.3h-7.3c-0.7,3.8-3.3,6-7.2,6c-4.9,0-8.1-4-8.1-10.9
	c0-6.8,3.2-10.9,8.1-10.9c4.2,0,6.6,2.7,7.2,6.2H97.8z M131.3,150.2h-7.8v19.2c0,4.8-2.8,8-7.3,8c-4.4,0-6.7-2.6-6.7-7.3v-19.8h-7.8
	v21.4c0,7.7,4.6,12.3,11.8,12.3c5,0,8.4-2.3,10.1-6.3h0.2v5.8h7.5L131.3,150.2L131.3,150.2z M137,183.4h7.8v-19.3
	c0-4.7,2.7-7.5,7.1-7.5c1.1,0,2.1,0.1,3.2,0.4v-7c-0.8-0.2-1.6-0.3-2.4-0.3c-3.9,0-6.8,2.3-7.9,6.3h-0.2v-5.8H137L137,183.4
	L137,183.4z M158.7,183.4h7.8v-33.1h-7.8V183.4L158.7,183.4z M162.5,145.2c2.3,0,4.2-1.9,4.2-4.2c0-2.3-1.9-4.2-4.2-4.2
	c-2.3,0-4.2,1.9-4.2,4.2C158.3,143.4,160.2,145.3,162.5,145.2C162.5,145.2,162.5,145.2,162.5,145.2L162.5,145.2z M184.8,183.9
	c4.8,0,8.7-2.5,10.5-6.2h0.1v5.7h7.6v-45.1h-7.8v17.5H195c-1.8-3.7-5.5-6.1-10.2-6.1c-8.3,0-13.8,6.6-13.8,17.1
	C171,177.3,176.4,183.9,184.8,183.9L184.8,183.9z M187.1,156.1c4.9,0,8.1,4.2,8.1,10.7c0,6.6-3.2,10.7-8.1,10.7
	c-5,0-8.1-4.1-8.1-10.7C179,160.2,182.1,156.1,187.1,156.1L187.1,156.1z M221,178c-3.4,0-5.6-1.7-5.6-4.4c0-2.6,2.2-4.3,5.9-4.6
	l7.7-0.5v2.5C229,175.1,225.4,178,221,178L221,178z M218.7,183.9c4.2,0,8.4-2.2,10.3-5.8h0.2v5.3h7.5v-22.8c0-6.7-5.3-11-13.6-11
	c-8.4,0-13.7,4.4-14.1,10.6h7.2c0.5-2.8,2.8-4.5,6.5-4.5c3.8,0,6.2,2,6.2,5.5v2.4l-8.8,0.5c-8.1,0.5-12.6,4-12.6,9.9
	C207.6,179.9,212.3,183.9,218.7,183.9L218.7,183.9z M254.7,183.9c4.8,0,8.7-2.5,10.5-6.2h0.1v5.7h7.6v-45.1h-7.8v17.5H265
	c-1.8-3.7-5.5-6.1-10.2-6.1c-8.3,0-13.8,6.6-13.8,17.1C241,177.3,246.4,183.9,254.7,183.9L254.7,183.9z M257.1,156.1
	c4.9,0,8.1,4.2,8.1,10.7c0,6.6-3.2,10.7-8.1,10.7c-5,0-8.1-4.1-8.1-10.7C248.9,160.2,252.1,156.1,257.1,156.1L257.1,156.1z
	 M277.4,150.6h7.3c0.2-3.9,2.8-6.3,6.9-6.3c3.9,0,6.6,2.4,6.6,5.7c0,3.1-1.3,4.8-5.2,7.1c-4.3,2.5-6.1,5.3-5.8,10l0,2.2h7.2v-1.8
	c0-3.1,1.2-4.8,5.2-7.1c4.2-2.5,6.6-5.9,6.6-10.7c0-6.9-5.7-11.8-14.3-11.8C282.7,137.9,277.6,143.3,277.4,150.6L277.4,150.6z
	 M290.9,184c2.4-0.1,4.4-2.1,4.3-4.6c-0.1-2.4-2.1-4.4-4.6-4.3c-2.4,0.1-4.3,2-4.3,4.4C286.3,182,288.3,184,290.9,184
	C290.8,184,290.9,184,290.9,184L290.9,184z"/>
</svg>
