<?xml version="1.0" encoding="utf-8"?>
<!-- Generator: Adobe Illustrator 21.1.0, SVG Export Plug-In . SVG Version: 6.00 Build 0)  -->
<svg version="1.1" id="Layer_1" xmlns="http://www.w3.org/2000/svg" xmlns:xlink="http://www.w3.org/1999/xlink" x="0px" y="0px"
	 viewBox="0 0 460 188" style="enable-background:new 0 0 460 188;" xml:space="preserve">
<style type="text/css">
	.st0{fill:#FFFFFF;}
</style>
<path id="_50_S6_Title_1_large_1x.svg" class="st0" d="M49,47.4V2.3h-9.3L25.9,36.7h-0.2L11.9,2.3H2.5v45.1h7.3v-32H10l13,32h5.5
	l13-32h0.2v32H49z M85,14.2h-7.8v19.1c0,4.8-2.8,8-7.3,8c-4.4,0-6.7-2.5-6.7-7.3V14.2h-7.8v21.4c0,7.6,4.6,12.3,11.8,12.3
	c5,0,8.4-2.3,10.1-6.3h0.2v5.8H85L85,14.2L85,14.2z M120,26c-0.5-7-5.9-12.5-14.7-12.5c-9.6,0-15.9,6.6-15.9,17.2
	c0,10.8,6.2,17.2,15.9,17.2c8.3,0,14-4.9,14.7-12.3h-7.3c-0.7,3.8-3.3,6-7.2,6c-4.9,0-8.1-4-8.1-11c0-6.8,3.2-10.9,8.1-10.9
	c4.2,0,6.6,2.6,7.2,6.1H120L120,26z M124.3,47.4h7.8v-19c0-4.9,2.8-8.1,7.5-8.1c4.5,0,6.8,2.8,6.8,7.5v19.8h7.8V26.1
	c0-7.6-4.3-12.4-11.6-12.4c-5,0-8.7,2.2-10.5,6.3H132V2.3h-7.7V47.4L124.3,47.4z M171.9,42c-3.4,0-5.6-1.8-5.6-4.5
	c0-2.6,2.2-4.3,5.9-4.5l7.7-0.5v2.5C179.9,39.1,176.3,42.1,171.9,42L171.9,42z M169.6,47.9c4.2,0,8.4-2.2,10.3-5.8h0.2v5.3h7.5V24.5
	c0-6.6-5.3-11-13.6-11c-8.4,0-13.7,4.5-14.1,10.6h7.2c0.5-2.8,2.8-4.5,6.5-4.5c3.8,0,6.2,2,6.2,5.5v2.4l-8.8,0.5
	c-8.1,0.5-12.6,4-12.6,9.9C158.5,43.9,163.2,47.9,169.6,47.9z M205.5,47.4h7.8V27.1c0-4,2.6-6.9,6.4-6.9c3.6,0,5.9,2.2,5.9,6v21.2
	h7.6V26.9c0-4,2.6-6.7,6.3-6.7c3.8,0,5.9,2.3,5.9,6.4v20.9h7.8V24.7c0-6.6-4.3-11-10.8-11c-4.8,0-8.7,2.5-10.3,6.6h-0.2
	c-1.2-4.2-4.6-6.6-9.2-6.6c-4.5,0-8,2.5-9.4,6.4h-0.2v-5.8h-7.5L205.5,47.4L205.5,47.4z M270.8,42c-3.4,0-5.6-1.8-5.6-4.5
	c0-2.6,2.2-4.3,5.9-4.5l7.7-0.5v2.5C278.8,39.1,275.2,42.1,270.8,42L270.8,42z M268.5,47.9c4.2,0,8.4-2.2,10.3-5.8h0.2v5.3h7.5V24.5
	c0-6.6-5.3-11-13.6-11c-8.4,0-13.7,4.5-14.1,10.6h7.2c0.5-2.8,2.8-4.5,6.5-4.5c3.8,0,6.2,2,6.2,5.5v2.4L270,28
	c-8.1,0.5-12.6,4-12.6,9.9C257.4,43.9,262.1,47.9,268.5,47.9z M275.3,9.6l7.3-9.6h-7.4l-5.4,9.6H275.3L275.3,9.6z M291.5,23.8
	c0,4.9,3.2,8,9.5,9.5l5.5,1.2c3.5,0.8,4.7,1.9,4.7,3.9c0,2.5-2.3,4-6.1,4c-3.9,0-6.2-1.6-6.8-4.9h-7.7c0.6,6.4,5.8,10.5,14.4,10.5
	c8.1,0,13.9-4.2,13.9-10.5c0-4.8-2.7-7.5-9.5-9l-5.5-1.2c-3.5-0.8-4.8-2.1-4.8-4c0-2.5,2.3-4,5.7-4c3.6,0,5.8,1.9,6.1,4.9h7.2
	c-0.2-6.3-5.3-10.6-13.4-10.6C296.8,13.6,291.5,17.7,291.5,23.8z M19.9,81.7c-4.8,0-8.6,2.5-10.4,6.2H9.3v-5.7H1.7v44h7.8v-16.4h0.2
	c1.8,3.7,5.6,6,10.4,6c8.3,0,13.6-6.5,13.6-17.1S28.3,81.7,19.9,81.7z M17.5,109.6c-4.8,0-8.1-4.2-8.1-10.8c0-6.4,3.2-10.7,8.1-10.7
	c5,0,8.2,4.2,8.2,10.7C25.7,105.4,22.6,109.6,17.5,109.6z M52.8,116.1c9.7,0,16-6.5,16-17.2c0-10.7-6.4-17.2-16-17.2
	s-16,6.6-16,17.2C36.7,109.6,43,116.1,52.8,116.1L52.8,116.1z M52.8,109.9c-4.9,0-8.1-4-8.1-11.1c0-7,3.2-11,8.1-11
	c4.9,0,8.1,4,8.1,11C60.9,105.9,57.7,109.9,52.8,109.9L52.8,109.9z M75.4,74.5v7.8h-4.8v6h4.8v18.3c0,6.5,2.8,9,10,9
	c1.4,0,2.7-0.1,4-0.4v-5.9c-0.7,0.1-1.5,0.2-2.2,0.1c-2.8,0-4-1.2-4-4V88.2h6.2v-6h-6.2v-7.8L75.4,74.5L75.4,74.5z M107.8,87.6
	c4.5,0,7.5,3.3,7.6,8H99.9C100.2,91,103.4,87.6,107.8,87.6L107.8,87.6z M115.4,105.5c-0.8,2.8-3.6,4.6-7.2,4.6
	c-5.1,0-8.3-3.6-8.3-8.9v-0.5H123v-2.5c0-10-5.9-16.6-15.3-16.6c-9.6,0-15.6,6.9-15.6,17.4c0,10.5,6,17.1,15.9,17.1
	c7.8,0,13.7-4.4,14.7-10.6H115.4z M127.4,115.4h7.8V96.2c0-4.8,2.8-8,7.3-8c4.4,0,6.6,2.6,6.6,7.4v19.9h7.8V94
	c0-7.6-4.2-12.3-11.5-12.3c-5.1,0-8.6,2.4-10.4,6.3h-0.2v-5.7h-7.5L127.4,115.4L127.4,115.4z M191.8,94.1c-0.5-7-5.9-12.5-14.7-12.5
	c-9.6,0-15.9,6.6-15.9,17.2c0,10.8,6.2,17.2,15.9,17.2c8.3,0,14-4.9,14.7-12.3h-7.3c-0.7,3.8-3.3,6-7.2,6c-4.9,0-8.1-4-8.1-11
	c0-6.8,3.2-10.9,8.1-10.9c4.2,0,6.6,2.6,7.2,6.1H191.8z M196,115.4h7.8V82.3H196V115.4z M199.9,77.3c2.3,0,4.2-1.9,4.2-4.2
	c0-2.3-1.9-4.2-4.2-4.2c-2.3,0-4.2,1.9-4.2,4.2C195.6,75.4,197.5,77.3,199.9,77.3L199.9,77.3z M221.9,110.1c-3.4,0-5.6-1.8-5.6-4.5
	c0-2.6,2.2-4.3,5.9-4.5l7.7-0.5v2.5C229.8,107.1,226.3,110.1,221.9,110.1L221.9,110.1z M219.5,115.9c4.2,0,8.4-2.2,10.3-5.8h0.2v5.3
	h7.5V92.6c0-6.6-5.3-11-13.6-11c-8.4,0-13.7,4.5-14.1,10.6h7.2c0.5-2.8,2.8-4.5,6.5-4.5c3.8,0,6.2,2,6.2,5.5v2.4L221,96
	c-8.1,0.5-12.6,4-12.6,9.9C208.5,111.9,213.1,115.9,219.5,115.9L219.5,115.9z M248.6,115.7c2.5,0,4.5-2,4.5-4.5s-2-4.5-4.5-4.5
	s-4.5,2-4.5,4.5l0,0c0,2.4,1.9,4.5,4.3,4.5C248.5,115.7,248.5,115.7,248.6,115.7L248.6,115.7z M315.8,115.4V70.3h-9.3l-13.8,34.4
	h-0.2l-13.8-34.4h-9.3v45.1h7.3v-32h0.2l13,32h5.5l13-32h0.2v32H315.8L315.8,115.4z M351.8,82.3H344v19.1c0,4.8-2.8,8-7.3,8
	c-4.4,0-6.7-2.5-6.7-7.3V82.3h-7.8v21.4c0,7.6,4.6,12.3,11.8,12.3c5,0,8.4-2.3,10.1-6.3h0.2v5.8h7.5V82.3z M386.8,94.1
	c-0.5-7-5.9-12.5-14.7-12.5c-9.6,0-15.9,6.6-15.9,17.2c0,10.8,6.2,17.2,15.9,17.2c8.3,0,14-4.9,14.7-12.3h-7.3c-0.7,3.8-3.3,6-7.2,6
	c-4.9,0-8.1-4-8.1-11c0-6.8,3.2-10.9,8.1-10.9c4.2,0,6.6,2.6,7.2,6.1H386.8z M391.1,115.4h7.8v-19c0-4.9,2.8-8.1,7.5-8.1
	c4.5,0,6.8,2.8,6.8,7.5v19.8h7.8V94.1c0-7.6-4.3-12.4-11.6-12.4c-5,0-8.7,2.2-10.5,6.3h-0.2V70.3h-7.7L391.1,115.4L391.1,115.4z
	 M438.7,110.1c-3.4,0-5.6-1.8-5.6-4.5c0-2.6,2.2-4.3,5.9-4.5l7.7-0.5v2.5C446.6,107.1,443.1,110.1,438.7,110.1L438.7,110.1z
	 M436.4,115.9c4.2,0,8.4-2.2,10.3-5.8h0.2v5.3h7.5V92.6c0-6.6-5.3-11-13.6-11c-8.4,0-13.7,4.5-14.1,10.6h7.2
	c0.5-2.8,2.8-4.5,6.5-4.5c3.8,0,6.2,2,6.2,5.5v2.4l-8.8,0.5c-8.1,0.5-12.6,4-12.6,9.9C425.3,111.9,430,115.9,436.4,115.9
	L436.4,115.9z M1.7,183.4h7.8v-20.3c0-4,2.6-6.9,6.4-6.9c3.6,0,5.9,2.2,5.9,6v21.2h7.6v-20.5c0-4,2.6-6.7,6.3-6.7
	c3.8,0,5.9,2.3,5.9,6.4v20.9h7.8v-22.8c0-6.6-4.3-11-10.8-11c-4.8,0-8.7,2.5-10.3,6.6H28c-1.2-4.2-4.6-6.6-9.2-6.6
	c-4.5,0-8,2.5-9.4,6.4H9.2v-5.8H1.7L1.7,183.4L1.7,183.4z M67.1,178.1c-3.4,0-5.6-1.8-5.6-4.5c0-2.6,2.2-4.3,5.9-4.5l7.7-0.5v2.5
	C75,175.1,71.5,178.1,67.1,178.1L67.1,178.1z M64.8,183.9c4.2,0,8.4-2.2,10.3-5.8h0.2v5.3h7.5v-22.9c0-6.6-5.3-11-13.6-11
	c-8.4,0-13.7,4.5-14.1,10.6h7.2c0.5-2.8,2.8-4.5,6.5-4.5c3.8,0,6.2,2,6.2,5.5v2.4l-8.8,0.5c-8.1,0.5-12.6,4-12.6,9.9
	C53.7,179.9,58.3,183.9,64.8,183.9L64.8,183.9z M71.6,145.7l7.3-9.6h-7.4l-5.4,9.6H71.6z M87.8,159.8c0,4.9,3.2,8.1,9.5,9.5l5.5,1.2
	c3.5,0.8,4.7,1.9,4.7,3.9c0,2.5-2.3,4-6.1,4c-3.9,0-6.2-1.6-6.8-4.9H87c0.6,6.4,5.8,10.5,14.4,10.5c8.1,0,13.9-4.2,13.9-10.5
	c0-4.8-2.7-7.5-9.5-9l-5.5-1.2c-3.5-0.8-4.8-2.1-4.8-4c0-2.5,2.3-4,5.7-4c3.6,0,5.8,1.9,6.1,4.9h7.2c-0.2-6.3-5.3-10.6-13.4-10.6
	C93.1,149.6,87.8,153.7,87.8,159.8L87.8,159.8z M144,178.1c-3.4,0-5.6-1.8-5.6-4.5c0-2.6,2.2-4.3,5.9-4.5l7.7-0.5v2.5
	C151.9,175.1,148.4,178.1,144,178.1L144,178.1z M141.6,183.9c4.2,0,8.4-2.2,10.3-5.8h0.2v5.3h7.5v-22.9c0-6.6-5.3-11-13.6-11
	c-8.4,0-13.7,4.5-14.1,10.6h7.2c0.5-2.8,2.8-4.5,6.5-4.5c3.8,0,6.2,2,6.2,5.5v2.4l-8.8,0.5c-8.1,0.5-12.6,4-12.6,9.9
	C130.6,179.9,135.2,183.9,141.6,183.9L141.6,183.9z M194.6,150.3h-7.8v19.1c0,4.8-2.8,8-7.3,8c-4.4,0-6.7-2.5-6.7-7.3v-19.9h-7.8
	v21.4c0,7.6,4.6,12.3,11.8,12.3c5,0,8.4-2.3,10.1-6.3h0.2v5.8h7.5V150.3z M202.6,142.5v7.8h-4.8v6h4.8v18.3c0,6.5,2.8,9,10,9
	c1.4,0,2.7-0.1,4-0.4v-5.9c-0.7,0.1-1.5,0.2-2.2,0.1c-2.8,0-4-1.2-4-4v-17.2h6.2v-6h-6.2v-7.8L202.6,142.5L202.6,142.5z
	 M235.3,184.1c9.7,0,16-6.5,16-17.2c0-10.7-6.4-17.2-16-17.2s-16,6.6-16,17.2C219.3,177.6,225.6,184.1,235.3,184.1L235.3,184.1z
	 M235.3,177.9c-4.9,0-8.1-4-8.1-11.1c0-7,3.2-11,8.1-11c4.9,0,8.1,4,8.1,11C243.5,173.9,240.3,177.9,235.3,177.9L235.3,177.9z
	 M255.8,183.4h7.8v-19.2c0-4.8,2.8-8,7.3-8c4.4,0,6.6,2.6,6.6,7.4v19.9h7.8V162c0-7.6-4.2-12.3-11.5-12.3c-5.1,0-8.6,2.4-10.4,6.3
	h-0.2v-5.7h-7.5V183.4L255.8,183.4z M305.6,184.1c9.7,0,16-6.5,16-17.2c0-10.7-6.4-17.2-16-17.2s-16,6.6-16,17.2
	C289.5,177.6,295.9,184.1,305.6,184.1L305.6,184.1z M305.6,177.9c-4.9,0-8.1-4-8.1-11.1c0-7,3.2-11,8.1-11c4.9,0,8.1,4,8.1,11
	C313.7,173.9,310.5,177.9,305.6,177.9L305.6,177.9z M326,183.4h7.8v-20.3c0-4,2.6-6.9,6.4-6.9c3.6,0,5.9,2.2,5.9,6v21.2h7.6v-20.5
	c0-4,2.6-6.7,6.3-6.7c3.8,0,5.9,2.3,5.9,6.4v20.9h7.8v-22.8c0-6.6-4.3-11-10.8-11c-4.8,0-8.7,2.5-10.3,6.6h-0.2
	c-1.2-4.2-4.6-6.6-9.2-6.6c-4.5,0-8,2.5-9.4,6.4h-0.2v-5.8H326L326,183.4L326,183.4z M379.5,183.4h7.8v-33.1h-7.8L379.5,183.4
	L379.5,183.4z M386.1,145.7l7.3-9.6h-7.4l-5.4,9.6H386.1L386.1,145.7z M405.3,178.1c-3.4,0-5.6-1.8-5.6-4.5c0-2.6,2.2-4.3,5.9-4.5
	l7.7-0.5v2.5C413.3,175.1,409.7,178.1,405.3,178.1L405.3,178.1z M403,183.9c4.2,0,8.4-2.2,10.3-5.8h0.2v5.3h7.5v-22.9
	c0-6.6-5.3-11-13.6-11c-8.4,0-13.7,4.5-14.1,10.6h7.2c0.5-2.8,2.8-4.5,6.5-4.5c3.8,0,6.2,2,6.2,5.5v2.4l-8.8,0.5
	c-8.1,0.5-12.6,4-12.6,9.9C391.9,179.9,396.6,183.9,403,183.9L403,183.9z M432.1,183.7c2.5,0,4.5-2,4.5-4.5s-2-4.5-4.5-4.5
	s-4.5,2-4.5,4.5l0,0c0,2.4,1.9,4.5,4.3,4.5C432,183.7,432,183.7,432.1,183.7L432.1,183.7z M441.8,141.8h3.9c0-2.1,1.8-3.5,4.3-3.5
	c2.2,0,3.8,1.3,3.8,3.1c0,1.5-0.7,2.5-3.7,5.2l-8.1,7.4v3.1h16.2v-3.6h-10.7v-0.1l5-4.4c4-3.5,5.3-5.2,5.3-7.9
	c0-3.6-3.2-6.4-7.9-6.4C445.2,134.6,441.8,137.6,441.8,141.8L441.8,141.8z"/>
</svg>
