<?xml version="1.0" encoding="utf-8"?>
<!-- Generator: Adobe Illustrator 21.1.0, SVG Export Plug-In . SVG Version: 6.00 Build 0)  -->
<svg version="1.1" id="Layer_1" xmlns="http://www.w3.org/2000/svg" xmlns:xlink="http://www.w3.org/1999/xlink" x="0px" y="0px"
	 viewBox="0 0 304 100" style="enable-background:new 0 0 304 100;" xml:space="preserve">
<style type="text/css">
	.st0{fill:#FFFFFF;}
</style>
<path id="_50_S6_Title_1_small_1x.svg" class="st0" d="M25.9,23.7V1.2h-4.7l-6.9,17.2h-0.1L7.3,1.2H2.7v22.5h3.6v-16h0.1l6.5,16h2.8
	l6.5-16h0.1v16H25.9L25.9,23.7z M44.3,7.1h-3.9v9.6c0,2.4-1.4,4-3.6,4c-2.2,0-3.3-1.3-3.3-3.7V7.1h-3.9v10.7c0,3.8,2.3,6.2,5.9,6.2
	c2.5,0,4.2-1.2,5.1-3.2h0.1v2.9h3.8V7.1z M62.2,13c-0.3-3.5-3-6.2-7.3-6.2c-4.8,0-7.9,3.3-7.9,8.6c0,5.4,3.1,8.6,8,8.6
	c4.2,0,7-2.4,7.3-6.1h-3.7c-0.2,1.8-1.8,3.1-3.6,3c-2.5,0-4.1-2-4.1-5.5c0-3.4,1.6-5.5,4-5.5c1.8-0.1,3.4,1.3,3.6,3.1H62.2z
	 M64.8,23.7h3.9v-9.5c0-2.4,1.4-4.1,3.8-4.1c2.2,0,3.4,1.4,3.4,3.7v9.9h3.9V13c0-3.8-2.1-6.2-5.8-6.2c-2.5,0-4.3,1.1-5.2,3.2h-0.1
	V1.2h-3.8V23.7L64.8,23.7z M89,21c-1.7,0-2.8-0.9-2.8-2.2c0-1.3,1.1-2.2,3-2.3l3.8-0.2v1.3C93,19.6,91.2,21,89,21z M87.9,24
	c2.1,0,4.1-1.1,5.2-2.9h0.1v2.6h3.8V12.3c0-3.3-2.7-5.5-6.8-5.5c-4.2,0-6.9,2.2-7,5.3h3.6c0.2-1.4,1.4-2.3,3.3-2.3
	c1.9,0,3.1,1,3.1,2.7v1.2L88.6,14c-4,0.2-6.3,2-6.3,5C82.3,21.9,84.7,24,87.9,24L87.9,24z M106.6,23.7h3.9V13.6c0-2,1.3-3.5,3.2-3.5
	c1.8,0,2.9,1.1,2.9,3v10.6h3.8V13.5c0-2,1.3-3.4,3.2-3.4c1.9,0,3,1.2,3,3.2v10.4h3.9V12.3c0-3.3-2.1-5.5-5.4-5.5
	c-2.2-0.1-4.3,1.2-5.2,3.3h-0.1c-0.6-2.1-2.3-3.3-4.6-3.3c-2.1-0.1-4,1.2-4.7,3.2h-0.1V7.1h-3.7V23.7z M139.7,21
	c-1.7,0-2.8-0.9-2.8-2.2c0-1.3,1.1-2.2,3-2.3l3.8-0.2v1.3C143.7,19.6,141.9,21,139.7,21L139.7,21z M138.6,24c2.1,0,4.1-1.1,5.2-2.9
	h0.1v2.6h3.8V12.3c0-3.3-2.7-5.5-6.8-5.5c-4.2,0-6.9,2.2-7,5.3h3.6c0.2-1.4,1.4-2.3,3.3-2.3c1.9,0,3.1,1,3.1,2.7v1.2l-4.4,0.2
	c-4,0.2-6.3,2-6.3,5C133,21.9,135.4,24,138.6,24L138.6,24z M142,4.8l3.7-4.8H142l-2.7,4.8H142z M150.5,11.9c0,2.5,1.6,4,4.8,4.7
	l2.8,0.6c1.7,0.4,2.3,1,2.3,2c0,1.2-1.2,2-3.1,2c-2,0-3.1-0.8-3.4-2.4h-3.8c0.3,3.2,2.9,5.3,7.2,5.3c4.1,0,6.9-2.1,6.9-5.2
	c0-2.4-1.3-3.7-4.8-4.5l-2.8-0.6c-1.7-0.4-2.4-1.1-2.4-2c0-1.2,1.1-2,2.9-2c1.8,0,2.9,0.9,3.1,2.4h3.6c-0.1-3.1-2.7-5.3-6.7-5.3
	C153.2,6.8,150.5,8.9,150.5,11.9L150.5,11.9z M182.5,6.9c-2.2-0.1-4.3,1.2-5.2,3.1h-0.1V7.1h-3.8v22h3.9v-8.2h0.1
	c0.9,1.9,2.8,3,5.2,3c4.2,0,6.8-3.3,6.8-8.5C189.3,10.1,186.7,6.9,182.5,6.9L182.5,6.9z M181.3,20.8c-2.4,0-4-2.1-4-5.4
	c0-3.2,1.6-5.4,4-5.4c2.5,0,4.1,2.1,4.1,5.4C185.4,18.7,183.8,20.8,181.3,20.8L181.3,20.8z M199.3,24c4.9,0,8-3.2,8-8.6
	c0-5.4-3.2-8.6-8-8.6s-8,3.3-8,8.6C191.3,20.8,194.4,24,199.3,24L199.3,24z M199.3,20.9c-2.5,0-4.1-2-4.1-5.5c0-3.5,1.6-5.5,4.1-5.5
	c2.5,0,4.1,2,4.1,5.5C203.4,18.9,201.8,20.9,199.3,20.9L199.3,20.9z M211,3.3v3.9h-2.4v3h2.4v9.2c0,3.2,1.4,4.5,5,4.5
	c0.7,0,1.4,0,2-0.2v-3c-0.4,0.1-0.7,0.1-1.1,0.1c-1.4,0-2-0.6-2-2v-8.6h3.1v-3h-3.1V3.3L211,3.3L211,3.3z M227.6,9.8
	c2.2,0,3.7,1.6,3.8,4h-7.7C223.9,11.5,225.4,9.8,227.6,9.8L227.6,9.8z M231.5,18.7c-0.4,1.4-1.8,2.3-3.6,2.3c-2.5,0-4.2-1.8-4.2-4.4
	v-0.2h11.6v-1.3c0-5-2.9-8.3-7.6-8.3c-4.8,0-7.8,3.4-7.8,8.7c0,5.3,3,8.6,8,8.6c3.9,0,6.8-2.2,7.3-5.3L231.5,18.7L231.5,18.7z
	 M237.9,23.7h3.9v-9.6c0-2.4,1.4-4,3.7-4c2.2,0,3.3,1.3,3.3,3.7v9.9h3.9V13c0-3.8-2.1-6.2-5.7-6.2c-2.5,0-4.3,1.2-5.2,3.2h-0.1V7.1
	h-3.7L237.9,23.7L237.9,23.7z M270.5,13c-0.3-3.5-3-6.2-7.3-6.2c-4.8,0-7.9,3.3-7.9,8.6c0,5.4,3.1,8.6,8,8.6c4.2,0,7-2.4,7.3-6.1
	h-3.7c-0.2,1.8-1.8,3.1-3.6,3c-2.5,0-4.1-2-4.1-5.5c0-3.4,1.6-5.5,4-5.5c1.8-0.1,3.4,1.3,3.6,3.1H270.5L270.5,13z M273,23.7h3.9V7.1
	H273V23.7L273,23.7z M274.9,4.6c1.2,0,2.1-1,2.1-2.1c0-1.2-1-2.1-2.1-2.1c-1.2,0-2.1,1-2.1,2.1C272.8,3.7,273.8,4.6,274.9,4.6
	L274.9,4.6z M286.4,21c-1.7,0-2.8-0.9-2.8-2.2c0-1.3,1.1-2.2,3-2.3l3.8-0.2v1.3C290.3,19.6,288.6,21,286.4,21L286.4,21z M285.2,24
	c2.1,0,4.1-1.1,5.2-2.9h0.1v2.6h3.8V12.3c0-3.3-2.7-5.5-6.8-5.5c-4.2,0-6.9,2.2-7,5.3h3.6c0.2-1.4,1.4-2.3,3.3-2.3
	c1.9,0,3.1,1,3.1,2.7v1.2l-4.4,0.2c-4,0.2-6.3,2-6.3,5C279.6,21.9,282,24,285.2,24L285.2,24z M300.1,23.9c1.2,0,2.2-1,2.2-2.2
	s-1-2.2-2.2-2.2s-2.2,1-2.2,2.2C297.9,22.8,298.8,23.8,300.1,23.9C300.1,23.9,300.1,23.9,300.1,23.9L300.1,23.9z M25.9,59.7V37.2
	h-4.7l-6.9,17.2h-0.1L7.3,37.2H2.7v22.5h3.6v-16h0.1l6.5,16h2.8l6.5-16h0.1v16H25.9L25.9,59.7z M44.4,43.1h-3.9v9.6
	c0,2.4-1.4,4-3.6,4c-2.2,0-3.3-1.3-3.3-3.7v-9.9h-3.9v10.7c0,3.8,2.3,6.2,5.9,6.2c2.5,0,4.2-1.2,5.1-3.2h0.1v2.9h3.8V43.1L44.4,43.1
	z M62.2,49c-0.3-3.5-3-6.2-7.3-6.2c-4.8,0-7.9,3.3-7.9,8.6c0,5.4,3.1,8.6,8,8.6c4.2,0,7-2.4,7.3-6.1h-3.7c-0.2,1.8-1.8,3.1-3.6,3
	c-2.5,0-4.1-2-4.1-5.5c0-3.4,1.6-5.5,4-5.5c1.8-0.1,3.4,1.3,3.6,3.1H62.2z M64.8,59.7h3.9v-9.5c0-2.4,1.4-4.1,3.8-4.1
	c2.2,0,3.4,1.4,3.4,3.7v9.9h3.9V49c0-3.8-2.1-6.2-5.8-6.2c-2.5,0-4.3,1.1-5.2,3.2h-0.1v-8.8h-3.8L64.8,59.7L64.8,59.7z M89,57
	c-1.7,0-2.8-0.9-2.8-2.2c0-1.3,1.1-2.2,3-2.3l3.8-0.2v1.3C93,55.6,91.2,57,89,57L89,57z M87.9,60c2.1,0,4.1-1.1,5.2-2.9h0.1v2.6h3.8
	V48.3c0-3.3-2.7-5.5-6.8-5.5c-4.2,0-6.9,2.2-7,5.3h3.6c0.2-1.4,1.4-2.3,3.3-2.3c1.9,0,3.1,1,3.1,2.7v1.2L88.6,50c-4,0.2-6.3,2-6.3,5
	C82.3,57.9,84.7,60,87.9,60L87.9,60z M106.6,59.7h3.9V49.6c0-2,1.3-3.5,3.2-3.5c1.8,0,2.9,1.1,2.9,3v10.6h3.8V49.5
	c0-2,1.3-3.4,3.2-3.4c1.9,0,3,1.2,3,3.2v10.4h3.9V48.3c0-3.3-2.1-5.5-5.4-5.5c-2.2-0.1-4.3,1.2-5.2,3.3h-0.1
	c-0.6-2.1-2.3-3.3-4.6-3.3c-2.1-0.1-4,1.2-4.7,3.2h-0.1v-2.9h-3.7V59.7z M139.7,57c-1.7,0-2.8-0.9-2.8-2.2c0-1.3,1.1-2.2,3-2.3
	l3.8-0.2v1.3C143.7,55.6,141.9,57,139.7,57L139.7,57z M138.6,60c2.1,0,4.1-1.1,5.2-2.9h0.1v2.6h3.8V48.3c0-3.3-2.7-5.5-6.8-5.5
	c-4.2,0-6.9,2.2-7,5.3h3.6c0.2-1.4,1.4-2.3,3.3-2.3c1.9,0,3.1,1,3.1,2.7v1.2l-4.4,0.2c-4,0.2-6.3,2-6.3,5
	C133,57.9,135.4,60,138.6,60L138.6,60z M142,40.8l3.7-4.8H142l-2.7,4.8H142z M150.5,47.9c0,2.5,1.6,4,4.8,4.7l2.8,0.6
	c1.7,0.4,2.3,1,2.3,2c0,1.2-1.2,2-3.1,2c-2,0-3.1-0.8-3.4-2.4h-3.8c0.3,3.2,2.9,5.3,7.2,5.3c4.1,0,6.9-2.1,6.9-5.2
	c0-2.4-1.3-3.7-4.8-4.5l-2.8-0.6c-1.7-0.4-2.4-1.1-2.4-2c0-1.2,1.1-2,2.9-2c1.8,0,2.9,0.9,3.1,2.4h3.6c-0.1-3.1-2.7-5.3-6.7-5.3
	C153.2,42.8,150.5,44.9,150.5,47.9L150.5,47.9z M8.3,93c-1.7,0-2.8-0.9-2.8-2.2c0-1.3,1.1-2.2,3-2.3l3.8-0.2v1.3
	C12.3,91.6,10.5,93,8.3,93L8.3,93z M7.2,96c2.1,0,4.1-1.1,5.2-2.9h0.1v2.6h3.8V84.3c0-3.3-2.7-5.5-6.8-5.5c-4.2,0-6.9,2.2-7,5.3h3.6
	c0.2-1.4,1.4-2.3,3.3-2.3c1.9,0,3.1,1,3.1,2.7v1.2L7.9,86c-4,0.2-6.3,2-6.3,5C1.6,93.9,4,96,7.2,96L7.2,96z M34.1,79.1h-3.9v9.6
	c0,2.4-1.4,4-3.6,4c-2.2,0-3.3-1.3-3.3-3.7v-9.9h-3.9v10.7c0,3.8,2.3,6.2,5.9,6.2c2.5,0,4.2-1.2,5.1-3.2h0.1v2.9h3.8V79.1L34.1,79.1
	z M38.5,75.3v3.9h-2.4v3h2.4v9.2c0,3.2,1.4,4.5,5,4.5c0.7,0,1.4,0,2-0.2v-3c-0.4,0.1-0.7,0.1-1.1,0.1c-1.4,0-2-0.6-2-2v-8.6h3.1v-3
	h-3.1v-3.9L38.5,75.3L38.5,75.3z M55.3,96c4.9,0,8-3.2,8-8.6c0-5.4-3.2-8.6-8-8.6s-8,3.3-8,8.6C47.2,92.8,50.4,96,55.3,96L55.3,96z
	 M55.3,92.9c-2.5,0-4.1-2-4.1-5.5c0-3.5,1.6-5.5,4.1-5.5c2.5,0,4.1,2,4.1,5.5C59.3,90.9,57.7,92.9,55.3,92.9L55.3,92.9z M65.9,95.7
	h3.9v-9.6c0-2.4,1.4-4,3.7-4c2.2,0,3.3,1.3,3.3,3.7v9.9h3.9V85c0-3.8-2.1-6.2-5.7-6.2c-2.5,0-4.3,1.2-5.2,3.2h-0.1v-2.8h-3.7V95.7
	L65.9,95.7z M91.2,96c4.9,0,8-3.2,8-8.6c0-5.4-3.2-8.6-8-8.6s-8,3.3-8,8.6C83.2,92.8,86.4,96,91.2,96L91.2,96z M91.2,92.9
	c-2.5,0-4.1-2-4.1-5.5c0-3.5,1.6-5.5,4.1-5.5c2.5,0,4.1,2,4.1,5.5C95.3,90.9,93.7,92.9,91.2,92.9L91.2,92.9z M101.9,95.7h3.9V85.6
	c0-2,1.3-3.5,3.2-3.5c1.8,0,2.9,1.1,2.9,3v10.6h3.8V85.5c0-2,1.3-3.4,3.2-3.4c1.9,0,3,1.2,3,3.2v10.4h3.9V84.3
	c0-3.3-2.1-5.5-5.4-5.5c-2.2-0.1-4.3,1.2-5.2,3.3H115c-0.6-2.1-2.3-3.3-4.6-3.3c-2.1-0.1-4,1.2-4.7,3.2h-0.1v-2.9h-3.7L101.9,95.7
	L101.9,95.7z M129,95.7h3.9V79.1H129V95.7L129,95.7z M132.3,76.8L136,72h-3.7l-2.7,4.8H132.3z M142.3,93c-1.7,0-2.8-0.9-2.8-2.2
	c0-1.3,1.1-2.2,3-2.3l3.8-0.2v1.3C146.3,91.6,144.5,93,142.3,93L142.3,93z M141.2,96c2.1,0,4.1-1.1,5.2-2.9h0.1v2.6h3.8V84.3
	c0-3.3-2.7-5.5-6.8-5.5c-4.2,0-6.9,2.2-7,5.3h3.6c0.2-1.4,1.4-2.3,3.3-2.3c1.9,0,3.1,1,3.1,2.7v1.2l-4.4,0.2c-4,0.2-6.3,2-6.3,5
	C135.6,93.9,138,96,141.2,96L141.2,96z M156.1,95.9c1.2,0,2.2-1,2.2-2.2s-1-2.2-2.2-2.2s-2.2,1-2.2,2.2l0,0
	C153.9,94.8,154.8,95.8,156.1,95.9C156.1,95.9,156.1,95.9,156.1,95.9L156.1,95.9z M161.4,74.9h2c0-1.1,0.9-1.8,2.2-1.8
	c1.1,0,1.9,0.7,1.9,1.6c0,0.8-0.3,1.3-1.8,2.6l-4.1,3.7v1.6h8.1v-1.8h-5.3v0l2.5-2.2c2-1.8,2.7-2.6,2.7-3.9c0-1.8-1.6-3.2-3.9-3.2
	C163.1,71.3,161.4,72.8,161.4,74.9L161.4,74.9z"/>
</svg>
