<?xml version="1.0" encoding="utf-8"?>
<!-- Generator: Adobe Illustrator 21.1.0, SVG Export Plug-In . SVG Version: 6.00 Build 0)  -->
<svg version="1.1" id="Layer_1" xmlns="http://www.w3.org/2000/svg" xmlns:xlink="http://www.w3.org/1999/xlink" x="0px" y="0px"
	 viewBox="0 0 100 16" style="enable-background:new 0 0 100 16;" xml:space="preserve">
<style type="text/css">
	.st0{fill:#888888;}
</style>
<path id="_50_S7_Sub_1_small_1x.svg" class="st0" d="M1.3,0.5v14.8H4v-4.9h3c3,0,5.1-2,5.1-5s-2-5-5-5L1.3,0.5L1.3,0.5z M4,2.6h2.4
	c1.9,0,3,1,3,2.8c0,1.8-1.1,2.8-3,2.8H4L4,2.6L4,2.6z M14,15.3h2.6V8.9c0-1.5,0.9-2.5,2.3-2.5c0.4,0,0.7,0,1,0.1V4.3
	c-0.3-0.1-0.5-0.1-0.8-0.1c-1.3,0-2.4,0.9-2.6,2.1h-0.1V4.4H14L14,15.3L14,15.3z M21.5,15.3H24V4.4h-2.6V15.3z M22.7,2.8
	c0.8,0,1.4-0.6,1.4-1.4c0-0.8-0.6-1.4-1.4-1.4c-0.8,0-1.4,0.6-1.4,1.4C21.4,2.1,22,2.8,22.7,2.8C22.7,2.8,22.7,2.8,22.7,2.8
	L22.7,2.8z M36,4.4h-2.7l-2.5,8.5h0l-2.5-8.5h-2.7l3.9,10.9h2.8L36,4.4z M41.1,13.5c-1.1,0-1.8-0.6-1.8-1.5c0-0.9,0.7-1.4,1.9-1.5
	l2.5-0.2v0.8C43.7,12.6,42.6,13.5,41.1,13.5L41.1,13.5z M40.3,15.5c1.4,0,2.7-0.7,3.4-1.9h0v1.7h2.5V7.8c0-2.2-1.8-3.6-4.5-3.6
	c-2.8,0-4.5,1.5-4.6,3.5h2.4c0.2-0.9,0.9-1.5,2.1-1.5c1.3,0,2,0.7,2,1.8v0.8l-2.9,0.2c-2.6,0.2-4.1,1.3-4.1,3.2
	C36.7,14.1,38.2,15.4,40.3,15.5L40.3,15.5z M58.1,8.3c-0.2-2.3-2-4.1-4.8-4.1c-3.2,0-5.2,2.2-5.2,5.7c0,3.5,2,5.6,5.2,5.6
	c2.7,0,4.6-1.6,4.8-4h-2.4c-0.1,1.2-1.2,2-2.4,2c-1.6,0-2.7-1.3-2.7-3.6c0-2.2,1-3.6,2.6-3.6c1.2,0,2.2,0.8,2.4,2L58.1,8.3L58.1,8.3
	z M59.9,15.3h2.6V4.4h-2.6V15.3z M61.2,2.8c0.8,0,1.4-0.6,1.4-1.4c0-0.8-0.6-1.4-1.4-1.4c-0.8,0-1.4,0.6-1.4,1.4
	C59.8,2.1,60.4,2.8,61.2,2.8L61.2,2.8z M68.9,15.5c1.4,0.1,2.8-0.7,3.4-2h0v1.9h2.5V0.5h-2.5v5.8h-0.1c-0.6-1.3-1.9-2.1-3.4-2
	c-2.7,0-4.5,2.2-4.5,5.6C64.4,13.3,66.2,15.4,68.9,15.5L68.9,15.5z M69.7,6.3c1.6,0,2.7,1.4,2.7,3.5c0,2.2-1.1,3.5-2.7,3.5
	C68,13.4,67,12,67,9.8C67,7.7,68,6.3,69.7,6.3L69.7,6.3z M81.2,13.5c-1.1,0-1.8-0.6-1.8-1.5c0-0.9,0.7-1.4,1.9-1.5l2.5-0.2v0.8
	C83.8,12.6,82.7,13.5,81.2,13.5L81.2,13.5z M80.4,15.5c1.4,0,2.7-0.7,3.4-1.9h0v1.7h2.5V7.8c0-2.2-1.8-3.6-4.5-3.6
	c-2.8,0-4.5,1.5-4.6,3.5h2.4c0.2-0.9,0.9-1.5,2.1-1.5c1.3,0,2,0.7,2,1.8v0.8L81,8.9c-2.6,0.2-4.1,1.3-4.1,3.2
	C76.8,14.1,78.3,15.4,80.4,15.5L80.4,15.5z M92.7,15.5c1.4,0.1,2.8-0.7,3.4-2h0v1.9h2.5V0.5h-2.6v5.8H96c-0.6-1.3-1.9-2.1-3.4-2
	c-2.7,0-4.5,2.2-4.5,5.6C88.2,13.3,90,15.4,92.7,15.5L92.7,15.5z M93.5,6.3c1.6,0,2.7,1.4,2.7,3.5c0,2.2-1.1,3.5-2.7,3.5
	c-1.6,0-2.7-1.4-2.7-3.5C90.8,7.7,91.8,6.3,93.5,6.3L93.5,6.3z"/>
</svg>
