<?xml version="1.0" encoding="utf-8"?>
<!-- Generator: Adobe Illustrator 21.1.0, SVG Export Plug-In . SVG Version: 6.00 Build 0)  -->
<svg version="1.1" id="Layer_1" xmlns="http://www.w3.org/2000/svg" xmlns:xlink="http://www.w3.org/1999/xlink" x="0px" y="0px"
	 viewBox="0 0 276 24" style="enable-background:new 0 0 276 24;" xml:space="preserve">
<style type="text/css">
	.st0{fill:#FFFFFF;}
</style>
<path id="_50_S7_Title_1_small_1x.svg" class="st0" d="M1.4,0.7v22.5h4v-7.5H10c4.6,0,7.8-3,7.8-7.5s-3.1-7.5-7.6-7.5H1.4z M5.5,4
	h3.7c2.9,0,4.6,1.5,4.6,4.2c0,2.7-1.7,4.3-4.6,4.3H5.5V4z M20.5,23.3h3.9v-9.6c0-2.3,1.3-3.8,3.5-3.8c0.5,0,1.1,0.1,1.6,0.2V6.6
	c-0.4-0.1-0.8-0.1-1.2-0.2c-2,0-3.4,1.2-4,3.2h-0.1V6.7h-3.7L20.5,23.3L20.5,23.3z M31.7,23.3h3.9V6.7h-3.9L31.7,23.3L31.7,23.3z
	 M33.6,4.2c1.2,0,2.1-1,2.1-2.1c0-1.2-1-2.1-2.1-2.1c-1.2,0-2.1,1-2.1,2.1C31.5,3.3,32.4,4.2,33.6,4.2C33.6,4.2,33.6,4.2,33.6,4.2
	L33.6,4.2z M53.6,6.7h-4.1l-3.8,13h-0.1l-3.8-13h-4.2l5.9,16.6h4.3L53.6,6.7z M61.1,20.6c-1.7,0-2.8-0.9-2.8-2.2
	c0-1.3,1.1-2.2,3-2.3l3.8-0.2v1.3C65.1,19.1,63.4,20.6,61.1,20.6z M60,23.5c2.1,0,4.1-1.1,5.2-2.9h0.1v2.6H69V11.9
	c0-3.3-2.7-5.5-6.8-5.5c-4.2,0-6.9,2.2-7,5.3h3.6c0.2-1.4,1.4-2.3,3.3-2.3c1.9,0,3.1,1,3.1,2.7v1.2l-4.4,0.2c-4,0.2-6.3,2-6.3,5
	C54.4,21.5,56.8,23.5,60,23.5z M86.8,12.6c-0.3-3.5-3-6.2-7.3-6.2c-4.8,0-7.9,3.3-7.9,8.6c0,5.4,3.1,8.6,8,8.6c4.2,0,7-2.4,7.3-6.1
	h-3.7c-0.2,1.8-1.8,3.1-3.6,3c-2.5,0-4.1-2-4.1-5.5c0-3.4,1.6-5.5,4-5.5c1.8-0.1,3.4,1.3,3.6,3.1H86.8z M89.4,23.3h3.9V6.7h-3.9
	V23.3z M91.3,4.2c1.2,0,2.1-1,2.1-2.1c0-1.2-1-2.1-2.1-2.1c-1.2,0-2.1,1-2.1,2.1C89.2,3.3,90.1,4.2,91.3,4.2
	C91.3,4.2,91.3,4.2,91.3,4.2L91.3,4.2z M102.8,23.5c2.2,0.1,4.2-1.1,5.2-3.1h0.1v2.8h3.8V0.7H108v8.8H108c-1-1.9-3-3.1-5.1-3.1
	C98.7,6.4,96,9.8,96,15C96,20.3,98.7,23.5,102.8,23.5L102.8,23.5z M104,9.6c2.5,0,4.1,2.1,4.1,5.4c0,3.3-1.6,5.4-4.1,5.4
	c-2.5,0-4.1-2.1-4.1-5.4C99.9,11.7,101.5,9.6,104,9.6L104,9.6z M121.4,20.6c-1.7,0-2.8-0.9-2.8-2.2c0-1.3,1.1-2.2,3-2.3l3.8-0.2v1.3
	C125.3,19.1,123.6,20.6,121.4,20.6L121.4,20.6z M120.2,23.6c2.1,0,4.1-1.1,5.2-2.9h0.1v2.6h3.8V11.9c0-3.3-2.7-5.5-6.8-5.5
	c-4.2,0-6.9,2.2-7,5.3h3.6c0.2-1.4,1.4-2.3,3.3-2.3c1.9,0,3.1,1,3.1,2.7v1.2l-4.4,0.2c-4,0.2-6.3,2-6.3,5
	C114.7,21.5,117,23.5,120.2,23.6L120.2,23.6z M138.6,23.6c2.2,0.1,4.2-1.1,5.2-3.1h0.1v2.8h3.8V0.7h-3.9v8.8h-0.1
	c-1-1.9-3-3.1-5.1-3.1c-4.2,0-6.9,3.3-6.9,8.5C131.8,20.3,134.5,23.5,138.6,23.6L138.6,23.6z M139.8,9.6c2.5,0,4.1,2.1,4.1,5.4
	c0,3.3-1.6,5.4-4.1,5.4c-2.5,0-4.1-2.1-4.1-5.4C135.7,11.7,137.3,9.6,139.8,9.6L139.8,9.6z M163.9,23.6c2.2,0.1,4.2-1.1,5.2-3.1h0.1
	v2.8h3.8V0.7h-3.9v8.8H169c-1-1.9-3-3.1-5.1-3.1c-4.2,0-6.9,3.3-6.9,8.5C157,20.3,159.7,23.5,163.9,23.6L163.9,23.6z M165,9.6
	c2.5,0,4.1,2.1,4.1,5.4c0,3.3-1.6,5.4-4.1,5.4c-2.5,0-4.1-2.1-4.1-5.4C161,11.7,162.5,9.6,165,9.6z M183.5,9.4c2.2,0,3.7,1.6,3.8,4
	h-7.7C179.7,11.1,181.3,9.4,183.5,9.4L183.5,9.4z M187.3,18.3c-0.4,1.4-1.8,2.3-3.6,2.3c-2.5,0-4.2-1.8-4.2-4.4v-0.2h11.6v-1.3
	c0-5-2.9-8.3-7.6-8.3c-4.8,0-7.8,3.5-7.8,8.7c0,5.3,3,8.5,8,8.5c3.9,0,6.8-2.2,7.3-5.3H187.3L187.3,18.3z M200,11.5
	c0,2.5,1.6,4,4.8,4.7l2.8,0.6c1.7,0.4,2.3,1,2.3,2c0,1.2-1.2,2-3.1,2c-2,0-3.1-0.8-3.4-2.4h-3.8c0.3,3.2,2.9,5.3,7.2,5.3
	c4.1,0,6.9-2.1,6.9-5.2c0-2.4-1.3-3.7-4.8-4.5l-2.8-0.6c-1.7-0.4-2.4-1-2.4-2c0-1.2,1.1-2,2.9-2c1.8,0,2.9,1,3.1,2.5h3.6
	c-0.1-3.1-2.7-5.3-6.7-5.3C202.6,6.4,200,8.4,200,11.5L200,11.5z M223.5,9.4c2.2,0,3.7,1.6,3.8,4h-7.7
	C219.7,11.1,221.3,9.4,223.5,9.4L223.5,9.4z M227.3,18.3c-0.4,1.4-1.8,2.3-3.6,2.3c-2.5,0-4.2-1.8-4.2-4.4v-0.2h11.6v-1.3
	c0-5-2.9-8.3-7.6-8.3c-4.8,0-7.8,3.5-7.8,8.7c0,5.3,3,8.5,8,8.5c3.9,0,6.8-2.2,7.3-5.3H227.3L227.3,18.3z M233.7,23.3h3.9v-9.6
	c0-2.3,1.3-3.8,3.5-3.8c0.5,0,1.1,0.1,1.6,0.2V6.6c-0.4-0.1-0.8-0.1-1.2-0.2c-2,0-3.4,1.2-4,3.2h-0.1V6.7h-3.7V23.3z M244.9,23.3
	h3.9V6.7h-3.9V23.3L244.9,23.3z M246.9,4.2c1.2,0,2.1-1,2.1-2.1c0-1.2-1-2.1-2.1-2.1c-1.2,0-2.1,1-2.1,2.1
	C244.7,3.3,245.7,4.2,246.9,4.2L246.9,4.2z M259.4,9.4c2.2,0,3.7,1.6,3.8,4h-7.7C255.6,11.1,257.2,9.4,259.4,9.4L259.4,9.4z
	 M263.2,18.3c-0.4,1.4-1.8,2.3-3.6,2.3c-2.5,0-4.2-1.8-4.2-4.4v-0.2H267v-1.3c0-5-2.9-8.3-7.6-8.3c-4.8,0-7.8,3.5-7.8,8.7
	c0,5.3,3,8.5,8,8.5c3.9,0,6.8-2.2,7.3-5.3H263.2z M272.3,23.5c1.2,0,2.2-1,2.2-2.2s-1-2.2-2.2-2.2c-1.2,0-2.2,1-2.2,2.2
	C270.1,22.4,271,23.4,272.3,23.5C272.3,23.5,272.3,23.5,272.3,23.5L272.3,23.5z"/>
</svg>
