<?xml version="1.0" encoding="utf-8"?>
<!-- Generator: Adobe Illustrator 21.1.0, SVG Export Plug-In . SVG Version: 6.00 Build 0)  -->
<svg version="1.1" id="Layer_1" xmlns="http://www.w3.org/2000/svg" xmlns:xlink="http://www.w3.org/1999/xlink" x="0px" y="0px"
	 viewBox="0 0 288 116" style="enable-background:new 0 0 288 116;" xml:space="preserve">
<style type="text/css">
	.st0{fill:#FFFFFF;}
</style>
<path id="_50_S7_Title_1_large_1x.svg" class="st0" d="M2.5,1.5v45.1h8.1v-15h9.1c9.1,0,15.5-6,15.5-15S29,1.5,20,1.5H2.5L2.5,1.5z
	 M10.6,8.1h7.3c5.8,0,9.1,3,9.1,8.5s-3.4,8.5-9.2,8.5h-7.3L10.6,8.1L10.6,8.1z M39.8,46.6h7.8V27.3c0-4.6,2.7-7.5,7.1-7.5
	c1.1,0,2.1,0.1,3.2,0.5v-7c-0.8-0.2-1.6-0.3-2.4-0.3c-3.9,0-6.8,2.3-7.9,6.4h-0.2v-5.8h-7.5L39.8,46.6L39.8,46.6z M61.4,46.6h7.8
	V13.5h-7.8V46.6z M65.2,8.5c2.3,0,4.2-1.9,4.2-4.2c0-2.3-1.9-4.2-4.2-4.2c-2.3,0-4.2,1.9-4.2,4.2C61,6.6,62.9,8.5,65.2,8.5L65.2,8.5
	z M104.3,13.5h-8.1l-7.7,25.9h-0.2l-7.7-25.9h-8.3L84,46.6h8.6L104.3,13.5z M118.6,41.2c-3.4,0-5.6-1.8-5.6-4.5
	c0-2.6,2.2-4.3,5.9-4.5l7.7-0.5v2.5C126.6,38.3,123,41.2,118.6,41.2z M116.3,47.1c4.2,0,8.4-2.2,10.3-5.8h0.2v5.3h7.5V23.8
	c0-6.6-5.3-11-13.6-11c-8.4,0-13.7,4.5-14.1,10.6h7.2c0.5-2.8,2.8-4.5,6.5-4.5c3.8,0,6.2,2,6.2,5.5v2.4l-8.8,0.5
	c-8.1,0.5-12.6,4-12.6,9.9C105.2,43.1,109.9,47.1,116.3,47.1L116.3,47.1z M169.1,25.2c-0.5-7-5.9-12.5-14.7-12.5
	c-9.6,0-15.9,6.6-15.9,17.2c0,10.8,6.2,17.2,15.9,17.2c8.3,0,14-4.9,14.7-12.3h-7.3c-0.7,3.8-3.3,6-7.2,6c-4.9,0-8.1-4-8.1-11
	c0-6.8,3.2-10.9,8.1-10.9c4.2,0,6.6,2.6,7.2,6.1H169.1z M173.4,46.6h7.8V13.5h-7.8V46.6z M177.2,8.5c2.3,0,4.2-1.9,4.2-4.2
	c0-2.3-1.9-4.2-4.2-4.2c-2.3,0-4.2,1.9-4.2,4.2C173,6.6,174.9,8.5,177.2,8.5L177.2,8.5z M199.5,47.1c4.8,0,8.7-2.5,10.5-6.2h0.1v5.7
	h7.6V1.5h-7.8V19h-0.2c-1.8-3.6-5.5-6.1-10.2-6.1c-8.3,0-13.8,6.6-13.8,17.1S191.1,47.1,199.5,47.1L199.5,47.1z M201.8,19.3
	c4.9,0,8.1,4.2,8.1,10.7c0,6.6-3.2,10.8-8.1,10.8c-5,0-8.1-4.1-8.1-10.8C193.7,23.4,196.8,19.3,201.8,19.3L201.8,19.3z M235.8,41.3
	c-3.4,0-5.6-1.8-5.6-4.5c0-2.6,2.2-4.3,5.9-4.5l7.7-0.5v2.5C243.7,38.3,240.2,41.2,235.8,41.3L235.8,41.3z M233.4,47.1
	c4.2,0,8.4-2.2,10.3-5.8h0.2v5.3h7.5V23.8c0-6.6-5.3-11-13.6-11c-8.4,0-13.7,4.5-14.1,10.6h7.2c0.5-2.8,2.8-4.5,6.5-4.5
	c3.8,0,6.2,2,6.2,5.5v2.4l-8.8,0.5c-8.1,0.5-12.6,4-12.6,9.9C222.3,43.1,227,47.1,233.4,47.1L233.4,47.1z M269.4,47.1
	c4.8,0,8.7-2.5,10.5-6.2h0.1v5.7h7.6V1.5h-7.8V19h-0.2c-1.8-3.6-5.5-6.1-10.2-6.1c-8.3,0-13.7,6.6-13.7,17.1S261.1,47.1,269.4,47.1
	L269.4,47.1z M271.8,19.3c4.9,0,8.1,4.2,8.1,10.7c0,6.6-3.2,10.8-8.1,10.8c-5,0-8.1-4.1-8.1-10.8C263.6,23.4,266.8,19.3,271.8,19.3
	L271.8,19.3z M14.1,115.1c4.8,0,8.7-2.5,10.5-6.2h0.1v5.7h7.6V69.5h-7.8V87h-0.2c-1.8-3.6-5.5-6.1-10.2-6.1
	C5.8,80.9,0.4,87.5,0.4,98S5.8,115.1,14.1,115.1L14.1,115.1z M16.5,87.3c4.9,0,8.1,4.2,8.1,10.7c0,6.6-3.2,10.8-8.1,10.8
	c-5,0-8.1-4.1-8.1-10.8C8.3,91.4,11.5,87.3,16.5,87.3L16.5,87.3z M52.6,86.8c4.5,0,7.5,3.3,7.6,8H44.7C45,90.1,48.2,86.8,52.6,86.8
	L52.6,86.8z M60.2,104.7c-0.8,2.8-3.6,4.6-7.2,4.6c-5.1,0-8.3-3.6-8.3-8.9v-0.5h23.2v-2.5c0-10-5.9-16.6-15.3-16.6
	c-9.6,0-15.6,6.9-15.6,17.4c0,10.5,6,17.1,15.9,17.1c7.8,0,13.7-4.4,14.7-10.6H60.2L60.2,104.7z M83.9,91c0,4.9,3.2,8.1,9.5,9.5
	l5.5,1.2c3.5,0.8,4.7,1.9,4.7,3.9c0,2.5-2.3,4-6.1,4c-3.9,0-6.2-1.6-6.8-4.9H83c0.6,6.4,5.8,10.5,14.4,10.5
	c8.1,0,13.9-4.2,13.9-10.5c0-4.8-2.7-7.5-9.5-9l-5.5-1.2c-3.5-0.8-4.8-2.1-4.8-4c0-2.5,2.3-4,5.7-4c3.6,0,5.8,1.9,6.1,4.9h7.2
	c-0.2-6.3-5.3-10.6-13.4-10.6C89.2,80.8,83.9,84.9,83.9,91L83.9,91z M130,86.8c4.5,0,7.5,3.3,7.6,8h-15.5
	C122.5,90.1,125.6,86.8,130,86.8L130,86.8z M137.7,104.7c-0.8,2.8-3.6,4.6-7.2,4.6c-5.1,0-8.3-3.6-8.3-8.9v-0.5h23.2v-2.5
	c0-10-5.9-16.6-15.3-16.6c-9.6,0-15.6,6.9-15.6,17.4c0,10.5,6,17.1,15.9,17.1c7.8,0,13.7-4.4,14.7-10.6H137.7L137.7,104.7z
	 M149.7,114.6h7.8V95.3c0-4.6,2.7-7.5,7.1-7.5c1.1,0,2.1,0.1,3.2,0.5v-7c-0.8-0.2-1.6-0.3-2.4-0.3c-3.9,0-6.8,2.3-7.9,6.4h-0.2v-5.8
	h-7.5L149.7,114.6L149.7,114.6z M171.3,114.6h7.8V81.5h-7.8V114.6z M175.1,76.5c2.3,0,4.2-1.9,4.2-4.2c0-2.3-1.9-4.2-4.2-4.2
	c-2.3,0-4.2,1.9-4.2,4.2C170.9,74.6,172.8,76.5,175.1,76.5L175.1,76.5z M199.3,86.8c4.5,0,7.5,3.3,7.6,8h-15.5
	C191.8,90.1,194.9,86.8,199.3,86.8L199.3,86.8z M207,104.7c-0.8,2.8-3.6,4.6-7.2,4.6c-5.1,0-8.3-3.6-8.3-8.9v-0.5h23.2v-2.5
	c0-10-5.9-16.6-15.3-16.6c-9.6,0-15.6,6.9-15.6,17.4c0,10.5,6,17.1,15.9,17.1c7.8,0,13.7-4.4,14.7-10.6H207z M224.4,114.9
	c2.5,0,4.5-2,4.5-4.5s-2-4.5-4.5-4.5s-4.5,2-4.5,4.5l0,0c0,2.4,1.9,4.5,4.4,4.5C224.3,114.9,224.4,114.9,224.4,114.9L224.4,114.9z"
	/>
</svg>
