<?xml version="1.0" encoding="UTF-8"?>
<svg width="385px" height="246px" viewBox="0 0 385 246" version="1.1" xmlns="http://www.w3.org/2000/svg" xmlns:xlink="http://www.w3.org/1999/xlink">
    <!-- Generator: Sketch 60.1 (88133) - https://sketch.com -->
    <title>ilustracion</title>
    <desc>Created with Sketch.</desc>
    <g id="Pagina-error" stroke="none" stroke-width="1" fill="none" fill-rule="evenodd">
        <g id="Pagina_error_desktop" transform="translate(-70.000000, -343.000000)">
            <g id="ilustracion" transform="translate(70.000000, 343.000000)">
                <path d="M210.5481,220.6073 C206.2071,217.9283 202.8991,212.2393 203.7161,200.7883" id="Stroke-1" stroke="#FFFFFF"></path>
                <path d="M154.6409,195.0751 C155.9119,212.8741 144.2479,218.6621 136.1449,220.6061" id="Stroke-3" stroke="#FFFFFF"></path>
                <path d="M231.8704,225.8612 L277.3744,225.8612 C280.2754,225.8612 282.6294,228.2152 282.6294,231.1162 C282.6294,234.0182 280.2754,236.3722 277.3744,236.3722 L78.2774,236.3722 C75.3764,236.3722 73.0224,234.0182 73.0224,231.1162 C73.0224,228.2152 75.3764,225.8612 78.2774,225.8612 L124.4424,225.8612" id="Stroke-5" stroke="#FFFFFF"></path>
                <path d="M231.7385,225.8602 C231.7385,228.7632 229.3845,231.1172 226.4835,231.1172 L129.6965,231.1172 C126.7955,231.1172 124.4425,228.7632 124.4425,225.8602 C124.4425,222.9602 126.7955,220.6062 129.6965,220.6062 L226.4835,220.6062 C229.3845,220.6062 231.7385,222.9602 231.7385,225.8602 Z" id="Stroke-7" stroke="#FFFFFF"></path>
                <path d="M293.6682,196.5214 C292.5412,205.3734 284.4502,211.6294 275.6022,210.5024 L81.9832,185.8074 C73.1332,184.6794 66.8752,176.5904 68.0032,167.7404 L81.3762,62.8914 C82.5052,54.0414 90.5942,47.7824 99.4432,48.9114 L293.0612,73.6054 C301.9102,74.7334 308.1702,82.8234 307.0412,91.6724 L293.6682,196.5214 Z" id="Stroke-9" stroke="#FFFFFF"></path>
                <path d="M293.0608,73.6053 L99.4438,48.9113 C90.5938,47.7823 82.5048,54.0413 81.3758,62.8913 L68.0028,167.7403 C67.9748,167.9653 67.9708,168.1903 67.9518,168.4163 L293.5488,197.1893 C293.5868,196.9653 293.6388,196.7473 293.6678,196.5213 L307.0408,91.6723 C308.1698,82.8233 301.9108,74.7333 293.0608,73.6053 Z" id="Stroke-11" stroke="#FFFFFF"></path>
                <path d="M120.2561,126.0194 C118.2601,127.5634 115.3891,127.1974 113.8441,125.2004 C112.2991,123.2054 112.6661,120.3334 114.6611,118.7894 L151.4331,90.3364 C153.4291,88.7914 156.3001,89.1584 157.8441,91.1564 C159.3891,93.1514 159.0231,96.0224 157.0271,97.5684 L120.2561,126.0194 Z" id="Fill-13" fill="#FFFFFF"></path>
                <path d="M153.6858,123.7665 C155.2298,125.7635 154.8638,128.6345 152.8668,130.1795 C150.8718,131.7235 147.9998,131.3565 146.4558,129.3615 L118.0028,92.5895 C116.4588,90.5945 116.8258,87.7235 118.8208,86.1785 C120.8178,84.6325 123.6888,84.9995 125.2328,86.9955 L153.6858,123.7665 Z" id="Fill-15" fill="#FFFFFF"></path>
                <path d="M227.3616,139.6805 C225.3666,141.2245 222.4956,140.8585 220.9506,138.8615 C219.4056,136.8665 219.7716,133.9945 221.7666,132.4505 L258.5386,103.9985 C260.5366,102.4525 263.4066,102.8195 264.9506,104.8155 C266.4966,106.8135 266.1306,109.6835 264.1326,111.2285 L227.3616,139.6805 Z" id="Fill-17" fill="#FFFFFF"></path>
                <path d="M260.7913,137.4276 C262.3363,139.4236 261.9713,142.2946 259.9733,143.8396 C257.9773,145.3836 255.1063,145.0166 253.5613,143.0226 L225.1083,106.2506 C223.5643,104.2536 223.9323,101.3826 225.9273,99.8386 C227.9243,98.2946 230.7953,98.6586 232.3393,100.6566 L260.7913,137.4276 Z" id="Fill-19" fill="#FFFFFF"></path>
                <path d="M203.6311,172.2479 C200.8131,171.8889 198.8211,169.3149 199.1811,166.4959 C200.3121,157.6259 194.0161,149.4859 185.1431,148.3549 C176.2721,147.2249 168.1341,153.5199 167.0021,162.3929 C166.6431,165.2099 164.0681,167.2029 161.2501,166.8429 C158.4341,166.4829 156.4421,163.9089 156.8011,161.0919 C158.6501,146.5949 171.9471,136.3059 186.4441,138.1529 C200.9421,140.0039 211.2311,153.3009 209.3821,167.7969 C209.0231,170.6149 206.4471,172.6069 203.6311,172.2479" id="Fill-21" fill="#FFFFFF"></path>
                <path d="M205.2923,70.2137 C205.1483,71.3267 204.1333,72.1117 203.0213,71.9717 L188.0763,70.0657 C186.9643,69.9227 186.1783,68.9067 186.3183,67.7937 C186.4613,66.6817 187.4783,65.8957 188.5903,66.0367 L203.5333,67.9427 C204.6463,68.0847 205.4333,69.1007 205.2923,70.2137 Z" id="Stroke-23" stroke="#FFFFFF"></path>
                <path d="M374.4729,42.2704 C374.2959,42.0414 374.1099,41.8254 373.9159,41.6164 C377.6199,36.0184 377.5599,28.4624 373.2229,22.8584 C368.8079,17.1514 361.3209,15.2234 354.8939,17.5984 C354.5689,16.7694 354.1229,15.9704 353.5509,15.2304 C350.3149,11.0484 344.3019,10.2814 340.1199,13.5174 C335.9399,16.7524 335.1709,22.7654 338.4089,26.9474 C339.9689,28.9634 342.1719,30.1824 344.5069,30.5454 C343.9439,34.6774 344.9729,39.0264 347.7269,42.5854 C350.2049,45.7904 353.6539,47.7984 357.3389,48.5274 C357.4159,50.4434 358.0669,52.3554 359.3299,53.9874 C362.5679,58.1684 368.5789,58.9364 372.7599,55.7014 C376.9439,52.4644 377.7079,46.4524 374.4729,42.2704 Z" id="Stroke-25" stroke="#FFFFFF"></path>
                <path d="M378.0677,38.2147 C376.5337,39.4017 376.2517,41.6087 377.4387,43.1417 C378.6267,44.6757 380.8337,44.9577 382.3677,43.7697 C383.9017,42.5837 384.1817,40.3777 382.9937,38.8427 C381.8067,37.3097 379.6017,37.0277 378.0677,38.2147 Z" id="Stroke-27" stroke="#FFFFFF"></path>
                <path d="M354.4143,1.9628 C351.3593,4.3248 350.8023,8.7148 353.1633,11.7688 C355.5273,14.8228 359.9173,15.3828 362.9703,13.0198 C366.0233,10.6568 366.5843,6.2668 364.2213,3.2128 C361.8583,0.1598 357.4683,-0.4002 354.4143,1.9628 Z" id="Stroke-29" stroke="#FFFFFF"></path>
                <path d="M339.4114,28.0546 C339.2234,28.1626 339.0404,28.2856 338.8634,28.4226 C336.7824,30.0316 336.4014,33.0236 338.0114,35.1026 C338.4104,35.6196 338.8954,36.0316 339.4314,36.3346" id="Stroke-31" stroke="#FFFFFF"></path>
                <path d="M354.3294,52.8597 C354.2804,54.0407 354.6324,55.2447 355.4124,56.2527 C357.1744,58.5267 360.4404,58.9437 362.7144,57.1857 C362.8324,57.0927 362.9464,56.9967 363.0564,56.8977" id="Stroke-33" stroke="#FFFFFF"></path>
                <path d="M350.2464,55.0121 C350.3214,55.1641 350.4124,55.3121 350.5204,55.4511 C351.3864,56.5701 352.9934,56.7751 354.1104,55.9091 C354.3834,55.6991 354.6014,55.4431 354.7634,55.1611" id="Stroke-35" stroke="#FFFFFF"></path>
                <path d="M363.5413,12.5765 C364.7233,14.1035 366.9173,14.3835 368.4443,13.2025 C369.9723,12.0205 370.2533,9.8265 369.0693,8.2995 C368.2443,7.2325 366.9243,6.7745 365.6833,6.9975" id="Stroke-37" stroke="#FFFFFF"></path>
                <path d="M373.0833,14.6659 C372.1683,15.3729 371.9993,16.6859 372.7063,17.5999 C373.4143,18.5139 374.7293,18.6809 375.6423,17.9739 C376.5563,17.2669 376.7233,15.9539 376.0153,15.0389 C375.3103,14.1249 373.9943,13.9579 373.0833,14.6659 Z" id="Stroke-39" stroke="#FFFFFF"></path>
                <path d="M381.2747,44.3812 C381.2877,44.6832 381.3907,44.9852 381.5907,45.2422 C382.1017,45.9042 383.0537,46.0262 383.7157,45.5142 C384.3777,45.0022 384.4977,44.0492 383.9877,43.3892 C383.7797,43.1202 383.4997,42.9412 383.1957,42.8562" id="Stroke-41" stroke="#FFFFFF"></path>
                <polyline id="Stroke-43" stroke="#FFFFFF" points="344.4514 30.537 314.0624 65.622 322.5284 61.707 308.9134 76.95 357.7774 51.031"></polyline>
                <path d="M301.7395,57.0546 L309.5995,62.0576 C310.2215,62.4546 310.4055,63.2776 310.0105,63.9006 C309.6135,64.5226 308.7915,64.7066 308.1665,64.3116 L300.2075,59.2456" id="Stroke-45" stroke="#FFFFFF"></path>
                <path d="M297.9544,57.8124 L289.9944,52.7464 C289.3714,52.3514 289.1924,51.5244 289.5874,50.9024 C289.9854,50.2804 290.8084,50.0984 291.4324,50.4944 L299.3894,55.5594" id="Stroke-47" stroke="#FFFFFF"></path>
                <path d="M298.9593,56.181 L304.4543,47.602 C304.8503,46.978 305.6773,46.795 306.2983,47.192 C306.9193,47.588 307.1043,48.413 306.7053,49.035 L301.0623,57.55" id="Stroke-49" stroke="#FFFFFF"></path>
                <path d="M300.636,58.6044 L295.144,67.2044 C294.747,67.8254 293.923,68.0094 293.298,67.6154 C292.677,67.2194 292.493,66.3924 292.89,65.7704 L298.35,57.1724" id="Stroke-51" stroke="#FFFFFF"></path>
                <path d="M354.4895,82.2216 L360.2205,89.6286 C360.6735,90.2156 360.5675,91.0566 359.9805,91.5106 C359.3935,91.9646 358.5535,91.8586 358.0975,91.2726 L352.2955,83.7736" id="Stroke-53" stroke="#FFFFFF"></path>
                <path d="M350.6526,81.6503 L344.8486,74.1503 C344.3936,73.5643 344.5066,72.7223 345.0906,72.2673 C345.6786,71.8153 346.5196,71.9223 346.9736,72.5093 L352.7756,80.0073" id="Stroke-55" stroke="#FFFFFF"></path>
                <path d="M352.1575,80.4491 L360.2735,74.2061 C360.8605,73.7511 361.7045,73.8601 362.1575,74.4461 C362.6095,75.0321 362.5045,75.8751 361.9155,76.3281 L353.6795,82.4591" id="Stroke-57" stroke="#FFFFFF"></path>
                <path d="M352.9192,83.3114 L344.7972,89.5754 C344.2112,90.0284 343.3682,89.9214 342.9122,89.3354 C342.4592,88.7494 342.5672,87.9054 343.1542,87.4524 L351.2432,81.1804" id="Stroke-59" stroke="#FFFFFF"></path>
                <path d="M327.1497,99.5712 L326.0787,106.9942 C325.9927,107.5822 325.4497,107.9892 324.8617,107.9042 C324.2737,107.8192 323.8677,107.2762 323.9507,106.6872 L325.0357,99.1722" id="Stroke-61" stroke="#FFFFFF"></path>
                <path d="M325.3421,97.0448 L326.4271,89.5278 C326.5111,88.9408 327.0581,88.5358 327.6461,88.6188 C328.2341,88.7058 328.6401,89.2488 328.5551,89.8378 L327.4701,97.3528" id="Stroke-63" stroke="#FFFFFF"></path>
                <path d="M327.2766,97.3241 L334.9846,98.4371 C335.5736,98.5201 335.9806,99.0671 335.8946,99.6541 C335.8096,100.2411 335.2656,100.6491 334.6766,100.5631 L326.9636,99.3781" id="Stroke-65" stroke="#FFFFFF"></path>
                <path d="M325.218,99.1864 L317.521,98.0874 C316.934,98.0024 316.526,97.4584 316.609,96.8694 C316.694,96.2834 317.24,95.8744 317.827,95.9594 L325.54,97.0694" id="Stroke-67" stroke="#FFFFFF"></path>
                <path d="M7.8655,213.8026 C7.9975,213.9736 8.1375,214.1356 8.2825,214.2916 C5.5075,218.4866 5.5525,224.1486 8.8025,228.3466 C12.1095,232.6226 17.7195,234.0676 22.5355,232.2876 C22.7785,232.9086 23.1125,233.5076 23.5415,234.0626 C25.9665,237.1966 30.4705,237.7706 33.6045,235.3456 C36.7365,232.9216 37.3125,228.4166 34.8865,225.2826 C33.7185,223.7726 32.0665,222.8596 30.3175,222.5866 C30.7395,219.4906 29.9695,216.2336 27.9055,213.5666 C26.0485,211.1646 23.4645,209.6596 20.7035,209.1146 C20.6445,207.6786 20.1575,206.2456 19.2115,205.0236 C16.7855,201.8906 12.2815,201.3156 9.1485,203.7396 C6.0135,206.1636 5.4415,210.6686 7.8655,213.8026 Z" id="Stroke-69" stroke="#FFFFFF"></path>
                <path d="M5.1721,216.8407 C6.3211,215.9517 6.5331,214.2977 5.6431,213.1497 C4.7531,211.9997 3.1001,211.7887 1.9501,212.6787 C0.8011,213.5677 0.5911,215.2207 1.4821,216.3697 C2.3701,217.5197 4.0231,217.7307 5.1721,216.8407 Z" id="Stroke-71" stroke="#FFFFFF"></path>
                <path d="M22.8948,244.0028 C25.1828,242.2328 25.6008,238.9438 23.8318,236.6558 C22.0608,234.3678 18.7718,233.9478 16.4838,235.7188 C14.1958,237.4888 13.7758,240.7778 15.5468,243.0658 C17.3168,245.3548 20.6068,245.7738 22.8948,244.0028 Z" id="Stroke-73" stroke="#FFFFFF"></path>
                <path d="M34.135,224.454 C34.277,224.373 34.413,224.281 34.546,224.178 C36.106,222.973 36.391,220.73 35.185,219.173 C34.885,218.786 34.522,218.476 34.121,218.25" id="Stroke-75" stroke="#FFFFFF"></path>
                <path d="M22.9583,205.868 C22.9943,204.983 22.7303,204.081 22.1463,203.326 C20.8263,201.622 18.3793,201.309 16.6763,202.627 C16.5863,202.696 16.5013,202.768 16.4203,202.843" id="Stroke-77" stroke="#FFFFFF"></path>
                <path d="M26.0169,204.2557 C25.9609,204.1417 25.8929,204.0307 25.8119,203.9257 C25.1629,203.0887 23.9589,202.9347 23.1219,203.5827 C22.9169,203.7407 22.7539,203.9327 22.6329,204.1437" id="Stroke-79" stroke="#FFFFFF"></path>
                <path d="M16.0559,236.0507 C15.1709,234.9057 13.5269,234.6967 12.3819,235.5817 C11.2379,236.4667 11.0269,238.1117 11.9139,239.2557 C12.5319,240.0547 13.5209,240.3977 14.4519,240.2307" id="Stroke-81" stroke="#FFFFFF"></path>
                <path d="M8.9065,234.4852 C9.5925,233.9552 9.7185,232.9712 9.1885,232.2872 C8.6585,231.6012 7.6745,231.4762 6.9895,232.0062 C6.3045,232.5362 6.1795,233.5202 6.7105,234.2062 C7.2385,234.8902 8.2235,235.0152 8.9065,234.4852 Z" id="Stroke-83" stroke="#FFFFFF"></path>
                <path d="M2.7688,212.2206 C2.7588,211.9936 2.6818,211.7686 2.5328,211.5746 C2.1498,211.0796 1.4358,210.9886 0.9398,211.3716 C0.4448,211.7556 0.3548,212.4686 0.7368,212.9636 C0.8918,213.1656 1.1018,213.2996 1.3298,213.3636" id="Stroke-85" stroke="#FFFFFF"></path>
                <polyline id="Stroke-87" stroke="#FFFFFF" points="30.3587 222.5936 53.1287 196.3056 46.7857 199.2396 56.9867 187.8186 20.3747 207.2386"></polyline>
                <path d="M62.3616,202.7255 L56.4716,198.9765 C56.0066,198.6785 55.8686,198.0625 56.1646,197.5955 C56.4616,197.1285 57.0786,196.9925 57.5466,197.2885 L63.5086,201.0825" id="Stroke-89" stroke="#FFFFFF"></path>
                <path d="M65.1966,202.1571 L71.1616,205.9531 C71.6286,206.2491 71.7616,206.8681 71.4676,207.3351 C71.1686,207.8011 70.5516,207.9371 70.0846,207.6401 L64.1226,203.8451" id="Stroke-91" stroke="#FFFFFF"></path>
                <path d="M64.4446,203.3798 L60.3276,209.8078 C60.0316,210.2758 59.4116,210.4118 58.9456,210.1148 C58.4806,209.8178 58.3416,209.1998 58.6406,208.7338 L62.8696,202.3548" id="Stroke-93" stroke="#FFFFFF"></path>
                <path d="M63.1878,201.5643 L67.3028,195.1203 C67.6008,194.6553 68.2178,194.5163 68.6868,194.8123 C69.1518,195.1093 69.2898,195.7283 68.9928,196.1953 L64.9008,202.6363" id="Stroke-95" stroke="#FFFFFF"></path>
                <path d="M22.8382,183.868 L18.5432,178.318 C18.2042,177.879 18.2842,177.249 18.7232,176.908 C19.1632,176.568 19.7922,176.648 20.1352,177.088 L24.4822,182.706" id="Stroke-97" stroke="#FFFFFF"></path>
                <path d="M25.7132,184.2958 L30.0612,189.9158 C30.4012,190.3548 30.3172,190.9858 29.8802,191.3258 C29.4392,191.6658 28.8102,191.5848 28.4692,191.1458 L24.1212,185.5268" id="Stroke-99" stroke="#FFFFFF"></path>
                <path d="M24.5852,185.1962 L18.5042,189.8742 C18.0642,190.2162 17.4322,190.1332 17.0932,189.6942 C16.7532,189.2562 16.8332,188.6242 17.2732,188.2842 L23.4442,183.6902" id="Stroke-101" stroke="#FFFFFF"></path>
                <path d="M24.0149,183.0516 L30.0999,178.3586 C30.5389,178.0196 31.1699,178.0986 31.5119,178.5376 C31.8519,178.9766 31.7709,179.6096 31.3309,179.9486 L25.2699,184.6486" id="Stroke-103" stroke="#FFFFFF"></path>
                <path d="M43.3225,170.869 L44.1255,165.307 C44.1895,164.867 44.5955,164.562 45.0365,164.625 C45.4765,164.689 45.7815,165.096 45.7185,165.537 L44.9065,171.168" id="Stroke-105" stroke="#FFFFFF"></path>
                <path d="M44.677,172.7616 L43.864,178.3946 C43.801,178.8346 43.391,179.1376 42.951,179.0746 C42.51,179.0106 42.206,178.6036 42.27,178.1616 L43.082,172.5326" id="Stroke-107" stroke="#FFFFFF"></path>
                <path d="M43.2268,172.5526 L37.4528,171.7186 C37.0108,171.6566 36.7058,171.2466 36.7698,170.8066 C36.8328,170.3666 37.2418,170.0616 37.6818,170.1256 L43.4618,171.0136" id="Stroke-109" stroke="#FFFFFF"></path>
                <path d="M44.7698,171.1571 L50.5378,171.9801 C50.9768,172.0451 51.2828,172.4521 51.2198,172.8931 C51.1568,173.3331 50.7478,173.6381 50.3068,173.5751 L44.5288,172.7441" id="Stroke-111" stroke="#FFFFFF"></path>
            </g>
        </g>
    </g>
</svg>