<svg xmlns="http://www.w3.org/2000/svg" xmlns:xlink="http://www.w3.org/1999/xlink" width="84" height="84" viewBox="0 0 84 84">
    <defs>
        <linearGradient id="l1hksdbm7b" x1="51.345%" x2="51.345%" y1="-.396%" y2="99.486%">
            <stop offset="0%"/>
            <stop offset="100%" stop-opacity="0"/>
        </linearGradient>
        <path id="lulri9nvda" d="M16.747 54.657c-4.225.276-8.376-1.21-11.467-4.106C2.19 47.656.437 43.61.437 39.375v-9.778c-.015-.847.563-1.589 1.387-1.78.517-.11 1.056.02 1.466.352.41.333.648.834.647 1.362v9.625c0 6.213 4.704 11.55 10.903 12.018 3.285.254 6.527-.876 8.943-3.116 2.415-2.24 3.786-5.388 3.78-8.683V11.156c0-5.355 4.353-10.285 9.695-10.688 2.916-.224 5.793.778 7.939 2.765 2.146 1.988 3.366 4.78 3.366 7.704v15.685c.015.846-.563 1.589-1.387 1.78-.517.11-1.056-.02-1.466-.353-.41-.333-.648-.833-.648-1.361V11.126c.043-3.604-2.613-6.671-6.186-7.145-1.985-.232-3.975.395-5.468 1.724-1.493 1.33-2.347 3.234-2.346 5.232V39.1c0 8.12-6.212 15.042-14.315 15.558z"/>
    </defs>
    <g fill="none" fill-rule="evenodd">
        <path fill="#4A4D4E" fill-rule="nonzero" d="M40.81 76.97c-4.226.275-8.377-1.211-11.467-4.107-3.09-2.895-4.843-6.94-4.843-11.175v-9.779c-.016-.846.562-1.588 1.387-1.78.517-.11 1.056.02 1.466.353.41.333.648.833.647 1.362v9.625c0 6.212 4.703 11.55 10.903 12.018 3.285.254 6.526-.876 8.942-3.117 2.416-2.24 3.786-5.388 3.78-8.683V33.47c0-5.355 4.353-10.286 9.695-10.688 2.916-.225 5.794.778 7.94 2.765 2.145 1.987 3.365 4.78 3.365 7.704v15.684c.016.847-.562 1.59-1.387 1.781-.517.11-1.056-.02-1.466-.353-.41-.333-.648-.834-.647-1.362V33.438c.042-3.603-2.614-6.67-6.186-7.144-1.986-.233-3.976.395-5.469 1.724-1.493 1.33-2.346 3.233-2.345 5.232v28.162c0 8.12-6.212 15.041-14.315 15.557z"/>
        <g transform="translate(24.063 22.313)">
            <mask id="k88ezb6r4c" fill="#fff">
                <use xlink:href="#lulri9nvda"/>
            </mask>
            <path fill="url(#l1hksdbm7b)" fill-rule="nonzero" d="M-3.631 27.843L11.506 27.843 11.506 53.646 -3.631 53.646z" mask="url(#k88ezb6r4c)" opacity=".2" transform="rotate(-45 3.938 40.745)"/>
        </g>
        <path fill="#FFF" fill-rule="nonzero" d="M41.366 37.757c-.271.006-.53-.112-.7-.322-.172-.21-.236-.487-.175-.75l2.922-12.535c1.343-5.5-1.496-11.164-6.707-13.379-1.476-.616-3.06-.93-4.66-.927-.482 0-.874-.392-.874-.875s.392-.875.875-.875c1.837-.004 3.656.36 5.35 1.067 6.001 2.539 9.28 9.05 7.744 15.383l-2.913 12.534c-.093.4-.451.683-.862.679zM11.2 37.757c-.416.01-.782-.274-.875-.679L7.438 24.544C5.902 18.212 9.18 11.7 15.18 9.16c1.691-.706 3.505-1.069 5.338-1.067.483 0 .875.392.875.875s-.392.875-.875.875c-1.6-.004-3.184.311-4.66.927-5.21 2.215-8.05 7.879-6.707 13.379l2.914 12.534c.061.264-.003.541-.174.75-.172.21-.43.33-.7.323h.008z"/>
        <path fill="#000" fill-rule="nonzero" d="M41.366 37.757c-.271.006-.53-.112-.7-.322-.172-.21-.236-.487-.175-.75l2.922-12.535c1.343-5.5-1.496-11.164-6.707-13.379-1.476-.616-3.06-.93-4.66-.927-.482 0-.874-.392-.874-.875s.392-.875.875-.875c1.837-.004 3.656.36 5.35 1.067 6.001 2.539 9.28 9.05 7.744 15.383l-2.913 12.534c-.093.4-.451.683-.862.679zM11.2 37.757c-.416.01-.782-.274-.875-.679L7.437 24.544C5.902 18.212 9.181 11.7 15.181 9.16c1.691-.706 3.505-1.069 5.338-1.067.483 0 .875.392.875.875s-.392.875-.875.875c-1.6-.004-3.184.311-4.66.927-5.21 2.215-8.05 7.879-6.707 13.379l2.914 12.534c.061.264-.003.541-.174.75-.172.21-.43.33-.7.323h.008z" opacity=".06"/>
        <g fill="#000" fill-rule="nonzero" opacity=".06">
            <path d="M13.519.656c-1.6-.003-3.184.312-4.66.928-4.4 1.863-7.187 6.255-7 11.03.16-4.46 2.89-8.42 7-10.155 1.476-.616 3.06-.931 4.66-.928.483 0 .875-.392.875-.875-.002-.154-.044-.305-.123-.437-.155.269-.442.435-.752.437zM4.996 28.074c-.154.35-.517.558-.896.516-.38-.043-.687-.325-.762-.7l-2.9-12.534c-.208-.894-.325-1.807-.35-2.725-.043 1.21.075 2.42.35 3.6L3.35 28.766c.052.229.194.428.394.551.2.123.441.161.67.105.227-.05.426-.19.55-.387.126-.197.166-.436.114-.663l-.083-.298zM38.141 15.356l-2.913 12.535c-.075.374-.383.656-.762.699-.38.042-.742-.167-.897-.516l-.07.302c-.06.264.004.541.175.75.171.21.43.33.7.322.416.01.782-.273.875-.678l2.914-12.534c.275-1.18.393-2.39.35-3.601-.033.917-.158 1.829-.372 2.721zM29.706 1.584c-1.476-.616-3.06-.931-4.66-.928-.315.003-.607-.164-.765-.437-.078.132-.12.283-.122.437 0 .483.392.875.875.875 1.604-.005 3.192.31 4.672.928 4.11 1.735 6.84 5.696 7 10.154.187-4.774-2.6-9.166-7-11.03z" transform="translate(7 8.313)"/>
        </g>
        <path fill="#E60000" fill-rule="nonzero" d="M21.407 10.719h-.875c-.967 0-1.75-.784-1.75-1.75 0-.967.783-1.75 1.75-1.75h.875c.966 0 1.75.783 1.75 1.75 0 .966-.784 1.75-1.75 1.75zM32.047 10.719h-.875c-.967 0-1.75-.784-1.75-1.75 0-.967.783-1.75 1.75-1.75h.875c.966 0 1.75.783 1.75 1.75 0 .966-.784 1.75-1.75 1.75z"/>
        <path fill="#FFF" fill-rule="nonzero" d="M70.875 62.125c-3.866 0-7-3.134-7-7s3.134-7 7-7 7 3.134 7 7-3.134 7-7 7z"/>
        <path fill="#000" fill-rule="nonzero" d="M70.875 61.25c-3.693-.004-6.747-2.877-6.978-6.563 0 .145-.022.29-.022.438 0 3.866 3.134 7 7 7s7-3.134 7-7c0-.149 0-.293-.022-.438-.23 3.686-3.285 6.559-6.978 6.563z" opacity=".06"/>
        <path fill="#E60000" fill-rule="nonzero" d="M26.28 52.806c-3.21.022-6.348-.948-8.986-2.778-4.768-3.342-6.527-8.29-7.796-12.666-.128-.448-.07-.929.157-1.335.229-.407.61-.706 1.06-.83.934-.266 1.908.268 2.187 1.199 1.155 3.98 2.625 8.089 6.44 10.77 4.185 2.848 9.684 2.848 13.869 0 3.84-2.677 5.289-6.79 6.448-10.766.28-.93 1.254-1.464 2.188-1.199.45.125.83.423 1.059.83.228.406.285.887.157 1.336-1.273 4.375-3.027 9.323-7.8 12.661-2.637 1.829-5.774 2.8-8.982 2.778z"/>
        <path fill="#000" fill-rule="nonzero" d="M70.875 59.5c-2.416 0-4.375-1.959-4.375-4.375s1.959-4.375 4.375-4.375 4.375 1.959 4.375 4.375-1.959 4.375-4.375 4.375z" opacity=".06"/>
        <path fill="#E60000" fill-rule="nonzero" d="M70.875 59.237c-2.416 0-4.375-1.958-4.375-4.375 0-2.416 1.959-4.375 4.375-4.375s4.375 1.96 4.375 4.375c0 2.417-1.959 4.375-4.375 4.375z"/>
        <g fill="#000" fill-rule="nonzero" opacity=".12">
            <path d="M13.672 1.531h-.875c-.804.008-1.51-.534-1.71-1.312-.04.142-.06.29-.062.437 0 .468.187.917.52 1.245.333.33.784.511 1.252.505h.875c.468.006.919-.176 1.251-.505.333-.328.52-.777.52-1.245 0-.148-.021-.295-.06-.437-.201.778-.907 1.32-1.711 1.312zM3.032 1.531h-.875C1.353 1.54.647.997.447.22.406.36.386.509.384.656c0 .468.187.917.52 1.245.333.33.784.511 1.252.505h.875c.468.006.919-.176 1.251-.505.333-.328.52-.777.52-1.245 0-.148-.021-.295-.06-.437-.201.778-.907 1.32-1.711 1.312z" transform="translate(18.375 8.313)"/>
        </g>
        <g fill="#000" fill-rule="nonzero" opacity=".12">
            <path d="M16.31 51.157c-4.226.276-8.377-1.21-11.467-4.106C1.753 44.156-.001 40.11 0 35.875v.875c0 4.235 1.753 8.28 4.843 11.176 3.09 2.895 7.241 4.382 11.467 4.106 8.103-.516 14.315-7.438 14.315-15.558V35.6c0 8.12-6.212 15.042-14.315 15.558zM44.625 7.626C44.667 4.022 42.011.955 38.439.48 36.453.25 34.463.876 32.97 2.205c-1.493 1.33-2.346 3.234-2.345 5.232v.875c0-1.998.854-3.9 2.347-5.229 1.493-1.328 3.482-1.955 5.467-1.722 3.57.473 6.226 3.538 6.186 7.14v-.875z" transform="translate(24.5 24.938)"/>
        </g>
        <path fill="#000" fill-rule="nonzero" d="M43.068 36.487c-1.274 4.375-3.028 9.324-7.801 12.662-5.417 3.707-12.555 3.707-17.973 0-4.768-3.338-6.527-8.287-7.796-12.662v-.039c-.083.3-.083.615 0 .914 1.273 4.375 3.028 9.324 7.8 12.662 5.418 3.707 12.556 3.707 17.973 0 4.769-3.338 6.528-8.287 7.797-12.662.082-.299.082-.615 0-.914 0 0 .004.026 0 .04z" opacity=".12"/>
        <path d="M0 0H84V84H0z"/>
    </g>
</svg>
