<?xml version="1.0" encoding="UTF-8"?>
<svg width="64px" height="64px" viewBox="0 0 64 64" version="1.1" xmlns="http://www.w3.org/2000/svg" xmlns:xlink="http://www.w3.org/1999/xlink">
    <!-- Generator: Sketch 55 (78076) - https://sketchapp.com -->
    <title>Icon</title>
    <desc>Created with Sketch.</desc>
    <g id="✅-TV---Funcionalidades-y-Ofertas" stroke="none" stroke-width="1" fill="none" fill-rule="evenodd">
        <g id="TV---Desktop---Funcionalidades-y-Ofertas" transform="translate(-216.000000, -1787.000000)">
            <g id="Funcionalidades" transform="translate(0.000000, 1614.000000)">
                <g id="Cards-/-Carousel-Standard-/-Dark-bkgd-/-Desktop" transform="translate(37.000000, 128.000000)">
                    <g id="Content">
                        <g id="card3" transform="translate(24.000000, 0.000000)">
                            <g id="Últimos-7-días-y-Ver-desde-el-principio" transform="translate(23.000000, 45.000000)">
                                <g id="tv/hd" transform="translate(132.000000, 0.000000)">
                                    <rect id="Rectangle-path" x="0" y="0" width="63.8337662" height="63.8337662"></rect>
                                    <path d="M55.8545455,43.8855813 L55.8545455,14.6284384 C55.8545455,13.8940177 55.2590961,13.2985683 54.5246753,13.2985683 L9.30909091,13.2985683 C8.57467013,13.2985683 7.97922078,13.8940177 7.97922078,14.6284384 L7.97922078,43.8855813 C7.97922078,44.6203345 8.57467013,45.2154514 9.30909091,45.2154514 L54.5246753,45.2154514 C55.2590961,45.2154514 55.8545455,44.6203345 55.8545455,43.8855813 Z M54.5246753,10.6388281 C56.7279377,10.6388281 58.5142857,12.4251761 58.5142857,14.6284384 L58.5142857,43.8855813 C58.5142857,46.0891761 56.7279377,47.8751917 54.5246753,47.8751917 L33.2467532,47.8751917 L33.2467532,50.5349319 L43.8857143,50.5349319 C44.6201351,50.5349319 45.2155844,51.1303813 45.2155844,51.8648021 C45.2155844,52.5995553 44.6201351,53.1946722 43.8857143,53.1946722 L19.9480519,53.1946722 C19.2136312,53.1946722 18.6181818,52.5995553 18.6181818,51.8648021 C18.6181818,51.1303813 19.2136312,50.5349319 19.9480519,50.5349319 L30.587013,50.5349319 L30.587013,47.8751917 L9.30909091,47.8751917 C7.10582857,47.8751917 5.31948052,46.0891761 5.31948052,43.8855813 L5.31948052,14.6284384 C5.31948052,12.4251761 7.10582857,10.6388281 9.30909091,10.6388281 L54.5246753,10.6388281 Z M36.7396239,32.9927148 C37.9408291,32.5089745 38.6459927,31.4297849 38.6459927,29.2604343 C38.6459927,27.0907512 37.9401642,26.0098992 36.738294,25.5244966 C36.4440603,25.4058057 36.1342005,25.3286732 35.8266681,25.2854525 L35.8266681,33.2304291 C36.1348655,33.1878732 36.4450577,33.1110732 36.7396239,32.9927148 Z M37.7343668,23.0582525 C39.9569122,23.9555823 41.305733,26.0218681 41.305733,29.2604343 C41.305733,32.499333 39.9565797,34.5649538 37.7330369,35.4599564 C36.6495252,35.8961538 35.545733,35.9919044 34.5649538,35.9031356 C34.4429382,35.8918317 34.3485174,35.8798629 34.2850161,35.8695564 C33.640694,35.765494 33.1669278,35.2092758 33.1669278,34.5566421 L33.1669278,23.9575771 C33.1669278,23.3042784 33.6416914,22.7480603 34.286346,22.6443304 C34.3495148,22.6343564 34.4429382,22.62272 34.5636239,22.6114161 C35.5447356,22.5233122 36.6495252,22.6200603 37.7343668,23.0582525 Z M29.2006566,22.584586 C29.9350774,22.584586 30.5305268,23.1800353 30.5305268,23.9144561 L30.5305268,34.5101964 C30.5305268,35.2446171 29.9350774,35.8400665 29.2006566,35.8400665 C28.4662358,35.8400665 27.8707865,35.2446171 27.8707865,34.5101964 L27.8707865,30.5435262 L25.1877735,30.5435262 L25.1877735,34.5101964 C25.1877735,35.2446171 24.5923242,35.8400665 23.8579034,35.8400665 C23.1234826,35.8400665 22.5280332,35.2446171 22.5280332,34.5101964 L22.5280332,23.9144561 C22.5280332,23.1800353 23.1234826,22.584586 23.8579034,22.584586 C24.5923242,22.584586 25.1877735,23.1800353 25.1877735,23.9144561 L25.1877735,27.883786 L27.8707865,27.883786 L27.8707865,23.9144561 C27.8707865,23.1800353 28.4662358,22.584586 29.2006566,22.584586 Z" id="Shape" fill="#FFFFFF" fill-rule="evenodd"></path>
                                </g>
                            </g>
                        </g>
                    </g>
                </g>
            </g>
        </g>
    </g>
</svg>