<?xml version="1.0" encoding="UTF-8"?>
<svg width="64px" height="64px" viewBox="0 0 64 64" version="1.1" xmlns="http://www.w3.org/2000/svg" xmlns:xlink="http://www.w3.org/1999/xlink">
    <!-- Generator: Sketch 55 (78076) - https://sketchapp.com -->
    <title>Icon</title>
    <desc>Created with Sketch.</desc>
    <g id="✅-TV---Funcionalidades-y-Ofertas" stroke="none" stroke-width="1" fill="none" fill-rule="evenodd">
        <g id="TV---Desktop---Funcionalidades-y-Ofertas---Carrusel-funcionalidades-2" transform="translate(-1002.000000, -157.000000)">
            <g id="Funcionalidades">
                <g id="Cards-/-Carousel-Standard-/-Dark-bkgd-/-Desktop" transform="translate(37.000000, 112.000000)">
                    <g id="Content">
                        <g id="card3" transform="translate(810.000000, 0.000000)">
                            <g id="Últimos-7-días-y-Ver-desde-el-principio" transform="translate(23.000000, 45.000000)">
                                <g id="tv/recomendador" transform="translate(132.000000, 0.000000)">
                                    <rect id="Rectangle-path" x="0" y="0" width="63.8337662" height="63.8337662"></rect>
                                    <path d="M21.2679417,55.8545456 L21.2679417,37.236365 C21.2679417,34.298646 18.8875054,31.9168848 15.9517879,31.9168848 L13.2937111,31.9168848 C10.3579936,31.9168848 7.97755738,34.298646 7.97755738,37.236365 L7.97755738,50.5350654 C7.97755738,53.4727844 10.3579936,55.8545456 13.2937111,55.8545456 L21.2679417,55.8545456 Z M18.4784561,58.5142857 L13.2937111,58.5142857 C8.89001937,58.5142857 5.31948052,54.9417594 5.31948052,50.5350654 L5.31948052,37.236365 C5.31948052,32.829671 8.89001937,29.2571447 13.2937111,29.2571447 L15.9517879,29.2571447 C17.5374946,29.2571447 19.0151732,29.7203648 20.257017,30.5189526 C21.6968223,28.6030859 24.4487127,24.9884208 25.4078335,23.6765912 C26.1739768,22.628705 26.8705885,21.6471447 27.5103395,20.7096895 C30.4493644,16.4030067 32.0844195,13.1421574 32.1128504,11.3115537 C31.8987731,8.59090324 32.1625105,6.97418971 32.9396983,6.08782993 C33.1649137,5.83097832 33.4254817,5.64397233 33.7094282,5.52117845 C33.8072043,5.47889476 33.9007053,5.44696175 33.9955977,5.4209281 C34.1644777,5.35077883 34.3493064,5.3148939 34.5400336,5.3199505 C38.0676484,5.41347554 40.3307412,6.88701138 41.2795387,9.53313187 C41.9961423,11.5316824 41.9321594,13.9848938 41.316074,17.2541696 C41.1571643,18.0974289 40.9737132,18.9418599 40.7060629,20.0950569 C39.8775039,23.6649842 39.8227537,23.9196919 39.7234182,24.9113416 C39.6818514,25.326296 39.6783275,25.6537237 39.7052078,25.8858604 C39.9422373,25.8461777 40.2194718,25.7968591 40.5529276,25.7355157 C40.4633967,25.751986 42.1010139,25.4466388 42.6108689,25.3553261 C44.0974441,25.0890875 45.3238749,24.9044942 46.5166423,24.7839412 C49.9972683,24.4321544 52.6185792,24.6923256 54.4025667,25.9021518 C57.6935664,28.1339711 58.209564,30.3840752 57.0932687,33.9456602 C58.9904877,36.4393628 58.8487792,39.1362651 57.4883835,41.5814756 C57.3300169,41.8661279 57.1707226,42.1198639 57.0187389,42.3404272 C57.0205533,42.3458604 57.022366,42.3513123 57.0241771,42.3567826 C57.791424,44.6742949 57.3916595,47.443275 55.1491113,50.3191096 C56.4860547,54.8164577 53.1486599,58.5142857 48.3740126,58.5142857 L18.4784561,58.5142857 Z M22.230956,32.3175874 C23.2928608,33.6729363 23.9260185,35.3806899 23.9260185,37.236365 L23.9260185,55.8545456 L48.3740126,55.8545456 C51.6599068,55.8545456 53.6228219,53.4991547 52.4173083,50.5575539 C52.2269693,50.0931034 52.3142113,49.5609848 52.6428773,49.1817328 C54.68908,46.8205927 55.0352221,44.8069859 54.500948,43.193181 C54.4320383,42.9850356 54.372527,42.859485 54.353827,42.8285503 C54.0477739,42.3222588 54.1128316,41.6745266 54.51345,41.2393015 C54.5377399,41.2129132 54.6017103,41.1369189 54.6921922,41.0171755 C54.8524856,40.8050436 55.0146395,40.5597032 55.1659349,40.2877611 C56.0921217,38.6230089 56.1524357,36.9760272 54.8351015,35.3759126 C54.766745,35.2928826 54.6946442,35.2100239 54.6187244,35.1273528 C54.2854597,34.7644518 54.1800972,34.2468847 54.3449404,33.7824557 C55.4002511,30.809223 55.2336489,29.6787892 52.9113141,28.1038782 C51.7936461,27.3459222 49.6867703,27.1368099 46.7837669,27.4302164 C45.669547,27.5428306 44.5047624,27.7181454 43.0791783,27.9734608 C42.5803698,28.0627951 40.9522802,28.3663658 41.033553,28.3514147 C40.2844392,28.4892235 39.7933202,28.5714641 39.3774003,28.6242114 C39.1852623,28.6485785 38.9901237,28.6306316 38.8056438,28.571627 C37.2718691,28.0810596 36.8751308,26.677215 37.0785944,24.6460726 C37.1953145,23.4808758 37.2441894,23.2535008 38.1168927,19.4933735 C38.3768685,18.3732428 38.5533689,17.5608062 38.7040294,16.7613214 C39.8069045,10.9088808 38.9594091,8.26457297 34.877419,7.99729971 C34.8422066,8.10539286 34.8091942,8.24549263 34.7812765,8.41962278 C34.6822976,9.03698053 34.6687784,9.93987499 34.7669881,11.1562463 L34.7713043,11.2633381 C34.7713043,13.8257322 32.9839474,17.4054544 29.7054496,22.2095817 C29.0482809,23.17256 28.3352943,24.1771933 27.5531024,25.2470298 C26.5319699,26.6436754 23.5901076,30.5058342 22.230956,32.3175874 Z M34.0228333,5.41362546 C34.0705055,5.40113423 34.136498,5.38600598 34.1202578,5.39018047 C34.069339,5.40204745 33.9876405,5.42909027 33.8929434,5.47643271 C33.7608384,5.54247661 33.6357806,5.6303129 33.5270097,5.74650131 C33.6456995,5.61505205 33.8111346,5.49755033 33.9955977,5.4209281 C34.0046619,5.41844136 34.0137388,5.41600843 34.0228333,5.41362546 Z" id="Stroke-3" fill="#FFFFFF" fill-rule="evenodd"></path>
                                </g>
                            </g>
                        </g>
                    </g>
                </g>
            </g>
        </g>
    </g>
</svg>