<?xml version="1.0" encoding="UTF-8"?>
<svg width="64px" height="64px" viewBox="0 0 64 64" version="1.1" xmlns="http://www.w3.org/2000/svg" xmlns:xlink="http://www.w3.org/1999/xlink">
    <!-- Generator: Sketch 55 (78076) - https://sketchapp.com -->
    <title>Icon</title>
    <desc>Created with Sketch.</desc>
    <g id="✅-TV---Funcionalidades-y-Ofertas" stroke="none" stroke-width="1" fill="none" fill-rule="evenodd">
        <g id="TV---Desktop---Funcionalidades-y-Ofertas---Carrusel-funcionalidades-2" transform="translate(-609.000000, -157.000000)">
            <g id="Funcionalidades">
                <g id="Cards-/-Carousel-Standard-/-Dark-bkgd-/-Desktop" transform="translate(37.000000, 112.000000)">
                    <g id="Content">
                        <g id="card3" transform="translate(417.000000, 0.000000)">
                            <g id="Últimos-7-días-y-Ver-desde-el-principio" transform="translate(23.000000, 45.000000)">
                                <g id="tv/control-directo" transform="translate(132.000000, 0.000000)">
                                    <rect id="Rectangle-path" x="0" y="0" width="63.8337662" height="63.8337662"></rect>
                                    <path d="M33.2467532,50.5350649 L43.8857143,50.5350649 C44.6201813,50.5350649 45.2155844,51.1304681 45.2155844,51.8649351 C45.2155844,52.5994021 44.6201813,53.1948052 43.8857143,53.1948052 L19.9480519,53.1948052 C19.213585,53.1948052 18.6181818,52.5994021 18.6181818,51.8649351 C18.6181818,51.1304681 19.213585,50.5350649 19.9480519,50.5350649 L30.587013,50.5350649 L30.587013,47.8753247 L9.30909091,47.8753247 C7.10578236,47.8753247 5.31948052,46.0890228 5.31948052,43.8857143 L5.31948052,14.6285714 C5.31948052,12.4252629 7.10578236,10.638961 9.30909091,10.638961 L54.5246753,10.638961 C56.7279839,10.638961 58.5142857,12.4252629 58.5142857,14.6285714 L58.5142857,43.8857143 C58.5142857,46.0890228 56.7279839,47.8753247 54.5246753,47.8753247 L33.2467532,47.8753247 L33.2467532,50.5350649 Z M20.6130715,24.4942285 C20.6134232,24.4627044 20.6148719,24.4314437 20.617381,24.4004827 C20.6542671,23.8571386 20.8967049,23.344679 21.3019431,22.9670785 C22.1358427,22.1948875 23.4175613,22.2096885 24.2339808,22.975559 L30.1947013,27.3951917 L30.3373924,27.50221 C30.5755568,27.6643497 30.7783788,27.8730385 30.9335754,28.1166805 C31.5516536,29.0876954 31.279768,30.369573 30.3321129,31.0088202 L30.184103,31.1184537 L24.1127839,35.6363541 L24.038359,35.6878342 C23.645019,35.9872687 23.1595216,36.1409247 22.64307,36.1203796 C21.4925944,36.0558832 20.5974274,35.0951382 20.612987,33.9614255 L20.612987,24.5942685 C20.6122383,24.5608452 20.6122697,24.5274907 20.6130715,24.4942285 Z M23.2726175,32.9466693 L28.2352164,29.2533855 L23.2727134,25.5739111 L23.2726175,32.9466693 Z M33.9116883,23.9376623 C33.9116883,23.2031953 34.5070914,22.6077922 35.2415584,22.6077922 C35.9760254,22.6077922 36.5714286,23.2031953 36.5714286,23.9376623 L36.5714286,34.5766234 C36.5714286,35.3110904 35.9760254,35.9064935 35.2415584,35.9064935 C34.5070914,35.9064935 33.9116883,35.3110904 33.9116883,34.5766234 L33.9116883,23.9376623 Z M39.2311688,23.9376623 C39.2311688,23.2031953 39.826572,22.6077922 40.561039,22.6077922 C41.295506,22.6077922 41.8909091,23.2031953 41.8909091,23.9376623 L41.8909091,34.5766234 C41.8909091,35.3110904 41.295506,35.9064935 40.561039,35.9064935 C39.826572,35.9064935 39.2311688,35.3110904 39.2311688,34.5766234 L39.2311688,23.9376623 Z M9.30909091,13.2987013 C8.57471634,13.2987013 7.97922078,13.8941969 7.97922078,14.6285714 L7.97922078,43.8857143 C7.97922078,44.6200889 8.57471634,45.2155844 9.30909091,45.2155844 L54.5246753,45.2155844 C55.2590499,45.2155844 55.8545455,44.6200889 55.8545455,43.8857143 L55.8545455,14.6285714 C55.8545455,13.8941969 55.2590499,13.2987013 54.5246753,13.2987013 L9.30909091,13.2987013 Z" id="Path-2" fill="#FFFFFF" fill-rule="evenodd"></path>
                                </g>
                            </g>
                        </g>
                    </g>
                </g>
            </g>
        </g>
    </g>
</svg>