<?xml version="1.0" encoding="UTF-8"?>
<svg width="138px" height="138px" viewBox="0 0 138 138" version="1.1" xmlns="http://www.w3.org/2000/svg" xmlns:xlink="http://www.w3.org/1999/xlink">
    <title>Bolo 50 Desktop</title>
    <g id="PLP-One-25-mayo-2020" stroke="none" stroke-width="1" fill="none" fill-rule="evenodd">
        <g id="Bolo-50-Desktop" transform="translate(68.585713, 68.585713) rotate(-15.000000) translate(-68.585713, -68.585713) translate(12.585713, 12.585713)">
            <circle id="Oval-Copy-4" fill="#333333" cx="55.769998" cy="55.769998" r="55.769998"></circle>
            <g id="Group" transform="translate(13.948000, 32.751999)" fill="#FFFFFF" fill-rule="nonzero">
                <path d="M15.0926658,41.3961431 C15.6864359,41.3961431 16.2221197,41.2799707 16.6997173,41.0476259 C17.177315,40.8152811 17.5806914,40.5006475 17.9098465,40.1037252 C18.2390016,39.7068028 18.492322,39.2437267 18.6698076,38.7144969 C18.8472932,38.1852671 18.936036,37.6237672 18.936036,37.0299971 C18.936036,36.4362271 18.8214771,35.7956654 18.5923593,35.1083121 C18.3632415,34.4209587 17.9566382,33.8320292 17.3725492,33.3415235 C16.7884602,32.8510178 16.0736772,32.605765 15.2282003,32.605765 C14.7957808,32.605765 14.3875639,32.6719187 14.0035496,32.8042262 C13.6195353,32.9365336 13.2629506,33.1156327 12.9337954,33.3415235 C13.3145827,31.7990122 14.0148441,30.706669 15.0345796,30.0644938 C16.0543151,29.4223186 17.177315,29.101231 18.4035792,29.101231 L18.4035792,29.101231 L18.1034672,27.9104639 C17.1547259,27.9104639 16.2366413,28.0653604 15.3492132,28.3751535 C14.4617852,28.6849466 13.7018241,29.1964278 13.0693299,29.9095972 C12.4368357,30.6227667 11.9382625,31.5053542 11.5736103,32.5573598 C11.208958,33.6093654 11.0266319,34.8098135 11.0266319,36.1587042 C11.0266319,36.8170144 11.1024667,37.4608031 11.2541362,38.0900703 C11.4058057,38.7193374 11.6478315,39.2776103 11.9802137,39.764889 C12.3125958,40.2521677 12.7353343,40.645863 13.248429,40.9459751 C13.7615238,41.2460871 14.3762694,41.3961431 15.0926658,41.3961431 Z M15.1120279,40.0601605 C14.6215222,40.0601605 14.2149188,39.9391476 13.8922177,39.6971218 C13.5695166,39.455096 13.3081287,39.1420759 13.108054,38.7580616 C12.9079794,38.3740473 12.7692179,37.9513088 12.6917696,37.4898462 C12.6143213,37.0283836 12.5755972,36.5846696 12.5755972,36.1587042 C12.5755972,35.6165663 12.6078673,35.1551037 12.6724075,34.7743164 C12.9757466,34.5355176 13.3194233,34.3435104 13.7034376,34.1982949 C14.0874519,34.0530794 14.4988958,33.9804717 14.9377693,33.9804717 C15.3314647,33.9804717 15.7300005,34.0885766 16.1333769,34.3047863 C16.5367533,34.520996 16.8578409,34.8743538 17.0966397,35.3648594 C17.3354385,35.8553651 17.4548379,36.4233191 17.4548379,37.0687213 C17.4548379,37.4430546 17.3919112,37.8641795 17.2660578,38.3320961 C17.1402044,38.8000127 16.8820435,39.2050026 16.4915751,39.5470658 C16.1011068,39.8891289 15.6412577,40.0601605 15.1120279,40.0601605 Z M26.4291557,41.1347552 L26.4291557,33.7578079 C26.7583108,33.5190091 27.1374846,33.2850508 27.5666771,33.055933 C27.9958696,32.8268152 28.4299025,32.7122564 28.868776,32.7122564 C29.2237473,32.7122564 29.5529024,32.7977721 29.8562414,32.9688037 C30.1595805,33.1398353 30.3838577,33.4238123 30.5290732,33.8207346 C30.6742887,34.217657 30.7468965,34.6871871 30.7468965,35.229325 L30.7468965,35.229325 L30.7468965,41.1347552 L32.1990515,41.1347552 L32.1990515,35.4229456 C32.1925974,34.7194572 32.1312842,34.1644113 32.0151118,33.7578079 C32.2668187,33.5319172 32.6298574,33.3011859 33.1042281,33.0656141 C33.5785987,32.8300423 34.0545828,32.7122564 34.5321805,32.7122564 C35.3002091,32.7122564 35.8294389,32.9333066 36.1198699,33.3754071 C36.4103009,33.8175076 36.5555164,34.4354803 36.5555164,35.229325 L36.5555164,35.229325 L36.5555164,41.1347552 L38.0270334,41.1347552 L38.0270334,35.4229456 C38.0270334,34.7904515 37.9576527,34.1595708 37.8188912,33.5303037 C37.6801297,32.9010365 37.3719502,32.3960093 36.8943525,32.015222 C36.4167549,31.6344347 35.7164935,31.444041 34.7935683,31.444041 C34.1481661,31.444041 33.5560096,31.5618269 33.0170988,31.7973987 C32.4781879,32.0329705 32.0183388,32.315334 31.6375515,32.6444891 C31.3342125,32.1862535 30.9614927,31.87162 30.5193922,31.7005884 C30.0772917,31.5295568 29.6174426,31.444041 29.139845,31.444041 C28.571891,31.444041 28.0507287,31.5521459 27.5763581,31.7683556 C27.1019875,31.9845654 26.7131327,32.2056156 26.4097936,32.4315064 L26.4097936,32.4315064 L26.3033023,31.6763858 L24.9770007,31.6763858 L24.9770007,41.1347552 L26.4291557,41.1347552 Z M44.5423688,41.357419 C45.1619549,41.357419 45.77186,41.2573816 46.372084,41.0573069 C46.9723081,40.8572323 47.4176356,40.6119794 47.7080666,40.3215484 L47.7080666,40.3215484 L47.3401873,39.0726951 C46.9787621,39.3760342 46.5737722,39.627741 46.1252177,39.8278157 C45.6766631,40.0278904 45.1619549,40.1279278 44.5810929,40.1279278 C43.6000815,40.1279278 42.8530285,39.7890916 42.3399337,39.1114193 C41.8268389,38.433747 41.5702916,37.5011408 41.5702916,36.3136007 L41.5702916,36.3136007 L48.104989,36.3136007 C48.104989,35.6036583 47.9904301,34.8582187 47.7613123,34.077282 C47.5321945,33.2963454 47.106229,32.6622377 46.4834159,32.174959 C45.8606028,31.6876803 45.0812796,31.444041 44.1454464,31.444041 C43.5258603,31.444041 42.9046606,31.5957105 42.2818475,31.8990496 C41.6590344,32.2023886 41.1459396,32.749367 40.7425632,33.5399847 C40.3391868,34.3306024 40.1374987,35.2680491 40.1374987,36.3523248 C40.1374987,37.9787384 40.534421,39.2195241 41.3282657,40.0746821 C42.1221105,40.92984 43.1934781,41.357419 44.5423688,41.357419 Z M46.4592133,35.1034715 L41.705826,35.1034715 C41.8671766,34.2192705 42.1656751,33.5883899 42.6013216,33.2108296 C43.0369681,32.8332693 43.5516764,32.6444891 44.1454464,32.6444891 C44.4100613,32.6444891 44.7263084,32.7219374 45.0941876,32.8768339 C45.4620669,33.0317304 45.775087,33.3060264 46.0332479,33.6997217 C46.2914087,34.0934171 46.4333972,34.5613337 46.4592133,35.1034715 L46.4592133,35.1034715 Z M52.8099711,41.357419 C53.2682066,41.357419 53.7458043,41.2702897 54.242764,41.0960311 C54.7397237,40.9217725 55.1560081,40.6200469 55.4916173,40.1908545 C55.8272264,39.761662 55.995031,39.2114566 55.995031,38.5402383 C55.995031,37.7722097 55.7739807,37.1735991 55.3318802,36.7444067 C54.8897797,36.3152142 54.252445,35.9489484 53.4198762,35.6456094 C51.9677212,35.1163796 51.2416437,34.5484256 51.2416437,33.9417476 C51.2416437,33.6190465 51.3642701,33.3253885 51.609523,33.0607735 C51.8547758,32.7961586 52.2549252,32.6638512 52.8099711,32.6638512 C53.2940227,32.6638512 53.7345097,32.7509805 54.1314321,32.9252391 C54.5283545,33.0994977 54.8849392,33.3382965 55.2011863,33.6416355 L55.2011863,33.6416355 L55.8207724,32.5476788 C55.5045253,32.2443397 55.0963084,31.9845654 54.5961217,31.7683556 C54.095935,31.5521459 53.4940974,31.444041 52.790609,31.444041 C51.899954,31.444041 51.1867845,31.6844533 50.6511007,32.165278 C50.1154168,32.6461026 49.8475749,33.2705293 49.8475749,34.0385579 C49.8475749,34.6968682 50.0331281,35.2277115 50.4042343,35.6310879 C50.7753406,36.0344642 51.4094483,36.40073 52.3065574,36.7298851 C53.8684307,37.3430172 54.6493674,37.9787384 54.6493674,38.6370487 C54.6493674,39.1533704 54.4944709,39.5309307 54.1846778,39.7697295 C53.8748847,40.0085284 53.4166492,40.1279278 52.8099711,40.1279278 C52.209747,40.1279278 51.6885847,40.0117554 51.2464842,39.7794106 C50.8043837,39.5470658 50.438118,39.3050399 50.147687,39.0533331 L50.147687,39.0533331 L49.6345922,40.2828243 C49.7378566,40.3860886 49.9347042,40.5248501 50.2251352,40.6991087 C50.5155662,40.8733673 50.8802185,41.0266503 51.319092,41.1589578 C51.7579655,41.2912652 52.2549252,41.357419 52.8099711,41.357419 Z M61.8617371,41.357419 C62.4813232,41.357419 63.0912283,41.2573816 63.6914524,41.0573069 C64.2916764,40.8572323 64.7370039,40.6119794 65.0274349,40.3215484 L65.0274349,40.3215484 L64.6595557,39.0726951 C64.2981304,39.3760342 63.8931406,39.627741 63.444586,39.8278157 C62.9960315,40.0278904 62.4813232,40.1279278 61.9004612,40.1279278 C60.9194499,40.1279278 60.1723968,39.7890916 59.659302,39.1114193 C59.1462073,38.433747 58.8896599,37.5011408 58.8896599,36.3136007 L58.8896599,36.3136007 L65.4243573,36.3136007 C65.4243573,35.6036583 65.3097984,34.8582187 65.0806806,34.077282 C64.8515628,33.2963454 64.4255974,32.6622377 63.8027842,32.174959 C63.1799711,31.6876803 62.4006479,31.444041 61.4648147,31.444041 C60.8452286,31.444041 60.224029,31.5957105 59.6012159,31.8990496 C58.9784027,32.2023886 58.465308,32.749367 58.0619316,33.5399847 C57.6585552,34.3306024 57.456867,35.2680491 57.456867,36.3523248 C57.456867,37.9787384 57.8537894,39.2195241 58.6476341,40.0746821 C59.4414788,40.92984 60.5128465,41.357419 61.8617371,41.357419 Z M63.7785817,35.1034715 L59.0251944,35.1034715 C59.1865449,34.2192705 59.4850435,33.5883899 59.9206899,33.2108296 C60.3563364,32.8332693 60.8710447,32.6444891 61.4648147,32.6444891 C61.7294296,32.6444891 62.0456767,32.7219374 62.413556,32.8768339 C62.7814352,33.0317304 63.0944553,33.3060264 63.3526162,33.6997217 C63.6107771,34.0934171 63.7527656,34.5613337 63.7785817,35.1034715 L63.7785817,35.1034715 Z M70.1293394,41.357419 C70.587575,41.357419 71.0651726,41.2702897 71.5621323,41.0960311 C72.059092,40.9217725 72.4753765,40.6200469 72.8109856,40.1908545 C73.1465948,39.761662 73.3143993,39.2114566 73.3143993,38.5402383 C73.3143993,37.7722097 73.0933491,37.1735991 72.6512486,36.7444067 C72.2091481,36.3152142 71.5718134,35.9489484 70.7392445,35.6456094 C69.2870895,35.1163796 68.5610121,34.5484256 68.5610121,33.9417476 C68.5610121,33.6190465 68.6836385,33.3253885 68.9288913,33.0607735 C69.1741442,32.7961586 69.5742935,32.6638512 70.1293394,32.6638512 C70.6133911,32.6638512 71.0538781,32.7509805 71.4508005,32.9252391 C71.8477228,33.0994977 72.2043075,33.3382965 72.5205546,33.6416355 L72.5205546,33.6416355 L73.1401407,32.5476788 C72.8238937,32.2443397 72.4156768,31.9845654 71.91549,31.7683556 C71.4153033,31.5521459 70.8134658,31.444041 70.1099774,31.444041 C69.2193223,31.444041 68.5061529,31.6844533 67.970469,32.165278 C67.4347852,32.6461026 67.1669433,33.2705293 67.1669433,34.0385579 C67.1669433,34.6968682 67.3524964,35.2277115 67.7236027,35.6310879 C68.094709,36.0344642 68.7288166,36.40073 69.6259257,36.7298851 C71.1877991,37.3430172 71.9687357,37.9787384 71.9687357,38.6370487 C71.9687357,39.1533704 71.8138392,39.5309307 71.5040461,39.7697295 C71.1942531,40.0085284 70.7360175,40.1279278 70.1293394,40.1279278 C69.5291154,40.1279278 69.0079531,40.0117554 68.5658526,39.7794106 C68.1237521,39.5470658 67.7574863,39.3050399 67.4670553,39.0533331 L67.4670553,39.0533331 L66.9539605,40.2828243 C67.0572249,40.3860886 67.2540726,40.5248501 67.5445036,40.6991087 C67.8349346,40.8733673 68.1995868,41.0266503 68.6384603,41.1589578 C69.0773338,41.2912652 69.5742935,41.357419 70.1293394,41.357419 Z" id="6meses"></path>
                <path d="M6.86028212,21.8485566 C7.99226791,21.8485566 9.08919219,21.6832667 10.151055,21.3526868 C11.323111,21.0221068 12.3298772,20.2808064 13.1713533,19.1287855 C14.0328646,17.9967997 14.4636203,16.4991725 14.4636203,14.6359038 C14.4636203,12.2817741 13.7899385,10.5462295 12.4425749,9.42927006 C11.0952113,8.31231063 9.17935035,7.75383092 6.69499216,7.75383092 C6.2642365,7.75383092 5.96871809,7.77386606 5.80843691,7.81393636 L5.80843691,7.81393636 L5.80843691,4.38792627 L13.7123023,4.38792627 L13.7123023,0.886784379 L2.33734774,0.886784379 L2.33734774,11.6907372 C3.96019463,11.3401222 5.22240887,11.1648146 6.12399047,11.1648146 C7.59657376,11.1648146 8.72355076,11.4528199 9.50492148,12.0288303 C10.2862922,12.6048408 10.6769776,13.5189444 10.6769776,14.7711411 L10.6769776,14.7711411 L10.6769776,14.936431 C10.6769776,15.3671867 10.6068546,15.7728984 10.4666085,16.1535662 C10.3163449,16.5843218 10.080932,16.9649896 9.7603696,17.2955695 C9.43980726,17.6261495 9.03910432,17.8765888 8.5582608,18.0468875 C8.12750515,18.1971511 7.63664405,18.2722829 7.08567752,18.2722829 L7.08567752,18.2722829 L6.89033484,18.2722829 C5.96871809,18.2722829 5.12223314,18.1019842 4.35087999,17.7613867 C3.57952684,17.4207892 2.83321763,16.9750072 2.11195234,16.4240407 L2.11195234,16.4240407 L0.51915818,19.8500507 C0.789632661,20.1205252 1.17030045,20.3909997 1.66116154,20.6614742 C2.15202264,20.9319487 2.85826156,21.1974144 3.77987831,21.4578713 C4.70149506,21.7183282 5.72829633,21.8485566 6.86028212,21.8485566 Z M23.674779,21.8485566 C25.0572041,21.8485566 26.2142338,21.5254899 27.1458682,20.8793564 C28.0775025,20.2332229 28.8313249,19.4017643 29.4073354,18.3849806 C29.9833458,17.3681969 30.3940663,16.2337068 30.6394969,14.9815101 C30.8849274,13.7293134 31.0076427,12.4871343 31.0076427,11.2549728 C31.0076427,9.95268827 30.8423527,8.54021042 30.5117728,7.01753927 C30.201228,5.3546221 29.44991,3.89706517 28.2578188,2.6448685 C27.0857627,1.33256639 25.5580828,0.676415338 23.674779,0.676415338 C22.3023714,0.676415338 21.0351484,1.07962267 19.8731099,1.88603732 C18.7110714,2.69245198 17.8245162,3.93713547 17.2134442,5.62008779 C16.6224074,7.34311041 16.3268889,9.22140541 16.3268889,11.2549728 C16.3268889,12.4871343 16.4496042,13.7293134 16.6950348,14.9815101 C16.9404653,16.2337068 17.3511858,17.3681969 17.9271963,18.3849806 C18.5032068,19.4017643 19.2570291,20.2332229 20.1886635,20.8793564 C21.1202978,21.5254899 22.2823363,21.8485566 23.674779,21.8485566 Z M23.7649372,18.3023357 L23.674779,18.3023357 C23.0837422,18.3023357 22.5778547,18.1170106 22.1571166,17.7463603 C21.7363786,17.3757101 21.3932767,16.8673183 21.127811,16.2211848 C20.8623453,15.5750513 20.6619938,14.8262377 20.5267566,13.974744 C20.3915193,13.1232502 20.3239007,12.2066423 20.3239007,11.2249201 C20.3138831,11.0846741 20.3088744,10.9394192 20.3088744,10.7891556 C20.3088744,10.5487339 20.3188919,10.2982945 20.3389271,10.0378376 C20.3689798,9.59706441 20.4040413,9.11121211 20.4441116,8.58028072 C20.5342698,7.52843552 20.8648497,6.53168697 21.4358514,5.59003507 C21.9968355,4.66841832 22.7231095,4.20760995 23.6146736,4.20760995 L23.6146736,4.20760995 L23.674779,4.20760995 C24.1055347,4.20760995 24.5212639,4.34535158 24.9219669,4.62083485 C25.3226698,4.89631812 25.6782937,5.3170562 25.9888384,5.88304909 C26.2993832,6.44904199 26.5473182,7.17281166 26.7326433,8.05435812 C26.9179684,8.93590457 27.0106309,9.99275856 27.0106309,11.2249201 L27.0106309,11.2249201 L27.0106309,11.6156054 C27.0106309,12.2066423 26.9705606,12.8427582 26.89042,13.5239532 C26.8002619,14.3554118 26.6274587,15.1292693 26.3720106,15.8455258 C26.1165625,16.5617823 25.7684518,17.1553235 25.3276786,17.6261495 C24.9069405,18.0769403 24.3860267,18.3023357 23.7649372,18.3023357 L23.7649372,18.3023357 Z M36.5673959,10.2782594 C37.3888369,10.2782594 38.1075978,10.1380134 38.7236786,9.85752132 C39.3397593,9.57702927 39.85316,9.21138784 40.2638805,8.76059704 C40.674601,8.30980624 40.9826414,7.7964056 41.1880016,7.22039513 C41.3933619,6.64438467 41.496042,6.05084345 41.496042,5.43977147 C41.4860244,5.14926184 41.3808399,4.57325137 41.1804884,3.71174007 C40.980137,2.98045721 40.4592232,2.28423586 39.617747,1.62307602 C38.796306,0.971933752 37.7795223,0.646362618 36.5673959,0.646362618 C35.9463064,0.646362618 35.3402432,0.749042745 34.7492063,0.954402999 C34.1581695,1.15976325 33.6297425,1.47281242 33.1639254,1.8935505 C32.6981082,2.31428858 32.3324668,2.82518482 32.0670011,3.42623923 C31.8015354,4.02729363 31.6688025,4.70848862 31.6688025,5.46982419 C31.6688025,6.06086102 31.7714827,6.64438467 31.9768429,7.22039513 C32.1822032,7.7964056 32.4902436,8.30980624 32.9009641,8.76059704 C33.3116846,9.21138784 33.8200764,9.57702927 34.4261396,9.85752132 C35.0322028,10.1380134 35.7459549,10.2782594 36.5673959,10.2782594 Z M33.8927038,21.5931085 L53.096392,2.76507938 L51.052807,0.646362618 L31.8491189,19.3842336 L33.8927038,21.5931085 Z M36.5373432,7.63362004 C36.2267984,7.63362004 35.9638371,7.56600142 35.7484593,7.43076418 C35.5330815,7.29552694 35.3527651,7.12522819 35.2075103,6.91986793 C35.0622555,6.71450768 34.9545666,6.47909471 34.8844436,6.21362901 C34.8143206,5.94816332 34.7792591,5.68019323 34.7792591,5.40971875 C34.7792591,4.83871707 34.9345315,4.33282961 35.2450762,3.89205639 C35.555621,3.45128316 35.9863767,3.23089654 36.5373432,3.23089654 C37.0081691,3.23089654 37.4188896,3.4362568 37.7695047,3.84697731 C38.1201198,4.25769781 38.2954273,4.77861163 38.2954273,5.40971875 C38.2954273,5.64012294 38.2378263,5.92812817 38.1226242,6.27373445 C38.0074221,6.61934073 37.8271058,6.9323899 37.5816752,7.21288195 C37.3362447,7.49337401 36.988134,7.63362004 36.5373432,7.63362004 Z M48.1977986,21.653214 C49.0192396,21.653214 49.7329917,21.5154723 50.3390549,21.2399891 C50.9451181,20.9645058 51.4535099,20.6013687 51.8642304,20.1505779 C52.2749509,19.6997871 52.5829913,19.1863865 52.7883516,18.610376 C52.9937118,18.0343656 53.096392,17.4408244 53.096392,16.8297524 C53.096392,16.228698 52.9411196,15.5850689 52.6305748,14.8988651 C52.32003,14.2126613 51.8592216,13.5840586 51.2481497,13.0130569 C50.4267087,12.3518971 49.4199425,12.0213172 48.2278513,12.0213172 C47.5967442,12.0213172 46.978159,12.1290061 46.3720958,12.3443839 C45.7660326,12.5597617 45.2325969,12.8778197 44.7717885,13.2985578 C44.3109801,13.7192959 43.9453387,14.2326965 43.6748642,14.8387597 C43.4043897,15.4448229 43.2691525,16.1185047 43.2691525,16.8598051 C43.2691525,17.4508419 43.3718326,18.0343656 43.5771929,18.610376 C43.7825531,19.1863865 44.0905935,19.6997871 44.501314,20.1505779 C44.9120345,20.6013687 45.4254352,20.9645058 46.0415159,21.2399891 C46.6575967,21.5154723 47.3763576,21.653214 48.1977986,21.653214 Z M48.1677459,19.0085746 C47.576709,19.0085746 47.1359358,18.7781704 46.8454262,18.317362 C46.5549165,17.8565536 46.4096617,17.3606838 46.4096617,16.8297524 C46.4096617,16.298821 46.5549165,15.8029511 46.8454262,15.3421427 C47.1359358,14.8713168 47.576709,14.6359038 48.1677459,14.6359038 C48.7587827,14.6359038 49.1995559,14.8688124 49.4900655,15.3346296 C49.7805752,15.8004467 49.92583,16.298821 49.92583,16.8297524 C49.92583,17.3606838 49.7805752,17.8565536 49.4900655,18.317362 C49.1995559,18.7781704 48.7587827,19.0085746 48.1677459,19.0085746 Z M63.182316,21.6095219 C63.6270962,21.6095219 64.0134278,21.5239873 64.3413107,21.3529179 C64.6691936,21.1818486 64.9329255,20.9851189 65.1325063,20.7627287 L65.1325063,20.7627287 L65.218041,21.4127922 L67.1938918,21.4127922 L67.1938918,9.72875697 L65.0469717,9.72875697 L65.0469717,13.0047346 C64.4995498,12.8393676 64.0205557,12.7566841 63.6099893,12.7566841 L63.6099893,12.7566841 L63.5244546,12.7566841 C63.2906599,12.7566841 62.9827351,12.8023026 62.6006803,12.8935396 C62.1730069,12.9904789 61.7225244,13.1943365 61.2492326,13.5051124 C60.7759407,13.8158884 60.4052905,14.2449873 60.1372819,14.7924091 C59.7780363,15.4652818 59.5984135,16.2522007 59.5984135,17.1531659 C59.5984135,17.7348016 59.6768203,18.2950537 59.8336339,18.833922 C59.9904474,19.3727904 60.2199654,19.8475078 60.5221879,20.2580742 C60.8244104,20.6686406 61.1979118,20.9965235 61.642692,21.2417229 C62.0874723,21.4869222 62.6006803,21.6095219 63.182316,21.6095219 Z M63.6270962,19.7448662 C63.2963622,19.7448662 63.0112467,19.6721618 62.7717496,19.5267528 C62.5322525,19.3813439 62.3340972,19.1888909 62.1772837,18.9493938 C62.0204701,18.7098968 61.9035727,18.429058 61.8265915,18.1068774 C61.7496103,17.7846968 61.7111198,17.4496861 61.7111198,17.1018451 C61.7054174,17.0619289 61.7025663,17.0134593 61.7025663,16.9564362 C61.7082686,16.8081761 61.7310778,16.6000417 61.770994,16.3320331 C61.8280171,15.9613829 62.0404282,15.579328 62.4082273,15.1858686 C62.7760263,14.7924091 63.2621483,14.5956794 63.8665933,14.5956794 C64.1973273,14.5956794 64.5907868,14.6783629 65.0469717,14.8437299 L65.0469717,14.8437299 L65.0469717,19.0092681 C64.9272231,19.208849 64.7276423,19.3813439 64.448229,19.5267528 C64.1688158,19.6721618 63.8951049,19.7448662 63.6270962,19.7448662 Z M71.9239587,21.6095219 C72.368739,21.6095219 72.7921356,21.5453709 73.1941485,21.4170689 C73.5961614,21.2887669 73.9311722,21.1248255 74.1991808,20.9252446 L74.1991808,20.9252446 L73.6432055,19.3599602 C73.3295784,19.6051596 72.956077,19.7277593 72.5227014,19.7277593 C72.3459297,19.7277593 72.1933929,19.6750129 72.0650909,19.5695202 C71.9367889,19.4640274 71.8726379,19.2772767 71.8726379,19.0092681 L71.8726379,19.0092681 L71.8726379,14.7239814 L73.8142748,14.7239814 L73.8142748,12.9705208 L71.8726379,12.9705208 L71.8726379,10.7808334 L69.7171644,10.7808334 L69.7171644,12.9705208 L68.5282325,12.9705208 L68.5282325,14.7239814 L69.7171644,14.7239814 L69.7171644,19.4540484 C69.7171644,20.0470887 69.8982128,20.5545944 70.2603095,20.9765654 C70.6224062,21.3985364 71.176956,21.6095219 71.9239587,21.6095219 Z M79.0318894,21.6095219 C79.2884934,21.6095219 79.620653,21.5710313 80.0283682,21.4940501 C80.4360835,21.4170689 80.876587,21.2146369 81.3498788,20.886754 C81.8231706,20.5588711 82.2052254,20.1098141 82.4960433,19.539583 C82.8838005,18.8039849 83.077679,18.0085125 83.077679,17.1531659 C83.077679,16.6513625 82.9607816,16.0383641 82.7269869,15.3141706 C82.5045968,14.624191 82.0712211,14.0282995 81.42686,13.5264961 C80.7767965,13.0132881 79.978473,12.7566841 79.0318894,12.7566841 C78.3533144,12.7566841 77.6989742,12.9149232 77.0688688,13.2314015 C76.4387635,13.5478798 75.9298322,14.0682156 75.5420751,14.7924091 C75.1714248,15.5109003 74.9860997,16.2978192 74.9860997,17.1531659 C74.9860997,17.7005877 75.0702088,18.2408817 75.238427,18.7740478 C75.4066452,19.3072139 75.6575469,19.7833568 75.991132,20.2024767 C76.3247172,20.6215965 76.7452627,20.960884 77.2527684,21.2203392 C77.760274,21.4797943 78.3533144,21.6095219 79.0318894,21.6095219 Z M79.1430844,19.7363128 C79.1088706,19.7306104 79.0718056,19.7277593 79.0318894,19.7277593 C78.71256,19.7277593 78.4331467,19.6607571 78.1936497,19.5267528 C77.9541526,19.3927485 77.7559973,19.208849 77.5991837,18.9750542 C77.4423702,18.7412595 77.3226217,18.4689741 77.2399382,18.1581982 C77.1572546,17.8474222 77.1159129,17.5124115 77.1159129,17.1531659 C77.1159129,16.8053249 77.162957,16.4532072 77.2570451,16.0968128 C77.3511332,15.7404183 77.5321816,15.4168122 77.8001902,15.1259943 C78.1309242,14.772451 78.5414906,14.5956794 79.0318894,14.5956794 L79.0318894,14.5956794 L79.0746567,14.5956794 C79.2286191,14.5956794 79.4396046,14.6470002 79.7076132,14.7496418 C80.0041334,14.8579857 80.2835466,15.1274199 80.5458529,15.5579444 C80.8081593,15.9884689 80.9393124,16.5202094 80.9393124,17.1531659 C80.9450147,17.2044867 80.9478659,17.2615098 80.9478659,17.3242352 C80.9478659,17.4724953 80.9279078,17.6521181 80.8879916,17.8631036 C80.8309685,18.1596238 80.7283269,18.4490161 80.5800668,18.7312804 C80.4318067,19.0135448 80.2293747,19.2573186 79.9727707,19.4626018 C79.7446783,19.6450758 79.4681162,19.7363128 79.1430844,19.7363128 Z" id="50%dto"></path>
            </g>
        </g>
    </g>
</svg>