<?xml version="1.0" encoding="UTF-8"?>
<svg width="99px" height="99px" viewBox="0 0 99 99" version="1.1" xmlns="http://www.w3.org/2000/svg" xmlns:xlink="http://www.w3.org/1999/xlink">
    <!-- Generator: Sketch 63.1 (92452) - https://sketch.com -->
    <title>sello_mpv</title>
    <desc>Created with Sketch.</desc>
    <defs>
        <polygon id="path-1" points="0 0.287199438 99.7315217 0.287199438 99.7315217 99.9997792 0 99.9997792"></polygon>
        <polygon id="path-3" points="0 100.8 99.7315217 100.8 99.7315217 1.08695652 0 1.08695652"></polygon>
    </defs>
    <g id="PLP-Revamp-Vodafone-One-Test-A/B" stroke="none" stroke-width="1" fill="none" fill-rule="evenodd">
        <g id="PLP-Desktop---Revamp-Móvil-+-Fibra" transform="translate(-595.000000, -163.000000)">
            <g id="Cabecera" transform="translate(50.000000, 136.000000)">
                <g id="bodegon" transform="translate(443.000000, 0.000000)">
                    <g id="sello_mpv" transform="translate(152.000000, 77.000000) rotate(16.000000) translate(-152.000000, -77.000000) translate(102.000000, 26.000000)">
                        <g id="Group-3" transform="translate(0.000000, 0.800000)">
                            <mask id="mask-2" fill="white">
                                <use xlink:href="#path-1"></use>
                            </mask>
                            <g id="Clip-2"></g>
                            <path d="M37.3726087,93.2418478 C37.591087,93.2418478 37.8084783,93.3233696 37.9726087,93.4875 L38.2171739,93.7320652 C44.3215217,99.8907609 54.266087,99.9179348 60.4247826,93.813587 C60.6421739,93.5961957 60.9421739,93.513587 61.2421739,93.5961957 L61.5965217,93.7048913 C69.9606522,95.9668478 78.5715217,91.0342391 80.8606522,82.6690217 L80.8606522,82.6429348 C80.9421739,82.3429348 81.1606522,82.1244565 81.4606522,82.0701087 L81.7867391,81.988587 C90.1791304,79.7809783 95.165,71.1711957 92.9584783,62.8059783 C92.8769565,62.5059783 92.9584783,62.2059783 93.1769565,62.0157609 L93.4486957,61.7701087 C99.6073913,55.6668478 99.6345652,45.7211957 93.5313043,39.5907609 C93.2584783,39.3179348 93.2041304,38.9092391 93.4215217,38.5820652 C93.4215217,38.5277174 93.4486957,38.4733696 93.4486957,38.4461957 C95.7106522,30.0809783 90.7791304,21.4711957 82.413913,19.1820652 C82.113913,19.1005435 81.8954348,18.8820652 81.841087,18.5820652 C81.813913,18.4733696 81.7867391,18.3375 81.7595652,18.2277174 C79.5247826,9.83641304 70.9421739,4.84945652 62.5769565,7.05597826 C62.2769565,7.13858696 61.9780435,7.05597826 61.7867391,6.83858696 L61.541087,6.59293478 C55.4378261,0.4625 45.4921739,0.408152174 39.3345652,6.51141304 C39.116087,6.7298913 38.8171739,6.81141304 38.5171739,6.70271739 L38.1628261,6.59293478 C29.7976087,4.33206522 21.1878186,9.29076087 18.8986957,17.6288043 C18.8171739,17.9288043 18.5986957,18.1461957 18.2997826,18.2005435 C18.19,18.2277174 18.0813043,18.2559783 17.9715217,18.2831522 C9.58021739,20.4896739 4.59326087,29.1005435 6.80086957,37.4918478 C6.8823913,37.7918478 6.80086957,38.0918478 6.5823913,38.2820652 L6.365,38.5005435 C0.179130435,44.6038043 0.124782609,54.5494565 6.22804348,60.7081522 C6.44652174,60.9255435 6.52804348,61.2255435 6.41826087,61.5255435 C6.39217391,61.6342391 6.365,61.7701087 6.30956522,61.8788043 C4.04869565,70.2440217 8.98021739,78.8820652 17.3454348,81.1440217 C17.6454348,81.2255435 17.8628261,81.4440217 17.9182609,81.7429348 C17.9443478,81.8516304 17.9715217,81.961413 17.9997826,82.0701087 C20.2334783,90.4625 28.8171739,95.4483696 37.2095652,93.2418478 L37.3726087,93.2418478 Z M49.3617391,99.9997792 C44.7845652,99.9997792 40.3704348,98.2005435 37.1269565,94.9581522 C28.0269565,97.0842391 18.8715217,91.6342391 16.4193478,82.6157609 C7.45413043,79.9179348 2.24978261,70.5711957 4.67478261,61.5255435 C-1.70130435,54.713587 -1.53717391,44.0592391 5.0573913,37.438587 C2.90413043,28.3375 8.38130435,19.1820652 17.3997826,16.7298913 C20.1247826,7.76467391 29.4432609,2.56032609 38.49,4.98532609 C45.3019565,-1.41684783 55.9563043,-1.25380435 62.6041304,5.33967391 C71.7052174,3.21467391 80.8606522,8.66358696 83.3128261,17.6831522 C92.2769565,20.3809783 97.4813043,29.7266304 95.0563043,38.7733696 C101.432391,45.5853261 101.269348,56.2396739 94.6747826,62.8603261 C96.8280435,71.961413 91.3508696,81.1440217 82.3041304,83.5690217 C79.6063043,92.5331522 70.2606522,97.7375 61.215,95.3125 C58.0269565,98.336413 53.7758696,100.02663 49.3617391,99.9997792 L49.3617391,99.9997792 Z" id="Fill-1" fill="#333333" mask="url(#mask-2)"></path>
                        </g>
                        <path d="M49.8795652,14.9955435 C30.0426087,14.9955435 13.9121739,31.1259783 13.9121739,50.9629348 C13.9121739,70.7988043 30.0426087,86.9303261 49.8795652,86.9303261 C69.7165217,86.9303261 85.8469565,70.7988043 85.8469565,50.9629348 C85.8469565,31.1259783 69.6893478,14.9955435 49.8795652,14.9955435 M49.8795652,88.5651087 C29.1436957,88.5651087 12.2773913,71.6988043 12.2773913,50.9629348 C12.2773913,30.2270652 29.1436957,13.3607609 49.8795652,13.3607609 C70.6154348,13.3607609 87.4817391,30.2270652 87.4817391,50.9629348 C87.4817391,71.6988043 70.6154348,88.5651087 49.8795652,88.5651087" id="Fill-4" fill="#333333"></path>
                        <polygon id="Fill-6" fill="#333333" points="26.9913043 41.153587 27.3728261 32.7883696 28.2173913 32.7883696 30.751087 40.3905435 33.0673913 32.7883696 33.8304348 32.7883696 34.2119565 41.153587 33.5847826 41.153587 33.2586957 34.1231522 31.023913 41.2894565 30.3695652 41.2894565 27.9717391 34.0144565 27.6717391 41.153587"></polygon>
                        <polygon id="Fill-8" fill="#333333" points="39.0078261 41.153587 39.0078261 32.7883696 43.4763043 32.7883696 43.4763043 33.3872826 39.6621739 33.3872826 39.6621739 36.3851087 42.4404348 36.3851087 42.4404348 36.9851087 39.6621739 36.9851087 39.6621739 40.4992391 43.7208696 40.4992391 43.7208696 41.0992391 39.0078261 41.0992391"></polygon>
                        <path d="M47.291087,40.8266304 L47.5084783,40.2266304 C47.6182609,40.336413 47.7541304,40.4179348 47.89,40.4722826 C48.0541304,40.5548913 48.2443478,40.6081522 48.4356522,40.636413 C48.5986957,40.663587 48.7628261,40.6907609 48.9258696,40.6907609 C49.3617391,40.6907609 49.6345652,40.5809783 49.7976087,40.363587 C49.9617391,40.063587 50.0432609,39.7092391 50.016087,39.3820652 L50.016087,32.788587 L50.6693478,32.788587 L50.6693478,39.4646739 C50.6965217,39.7907609 50.6421739,40.1179348 50.5063043,40.4179348 C50.3704348,40.663587 50.1791304,40.8809783 49.9345652,41.0168478 C49.6073913,41.1809783 49.2530435,41.2625 48.8986957,41.2625 C48.5443478,41.2625 48.2171739,41.2081522 47.89,41.0983696 C47.6726087,41.0722826 47.4813043,40.9625 47.291087,40.8266304" id="Fill-10" fill="#333333"></path>
                        <path d="M56.0101087,36.9576087 C56.0101087,37.6380435 56.1198913,38.3195652 56.3644565,38.973913 C56.528587,39.5184783 56.8818478,39.9815217 57.3188043,40.3086957 C57.6992391,40.5543478 58.1090217,40.6902174 58.5709783,40.6902174 C59.1438043,40.6902174 59.7166304,40.4717391 60.0970652,40.0369565 C60.5057609,39.601087 60.8057609,39.0826087 60.9427174,38.5108696 C61.078587,37.9934783 61.1329348,37.475 61.1329348,36.9576087 C61.1329348,36.276087 61.0242391,35.6217391 60.778587,34.9956522 C60.6155435,34.4782609 60.2883696,34.0141304 59.8525,33.6608696 C59.4981522,33.3880435 59.0351087,33.223913 58.5709783,33.223913 C58.1622826,33.223913 57.753587,33.3336957 57.4275,33.551087 C57.1003261,33.7695652 56.8003261,34.0695652 56.6101087,34.3967391 C56.3916304,34.7782609 56.228587,35.1869565 56.1459783,35.5956522 C56.0372826,36.0576087 55.9829348,36.5217391 56.0101087,36.9576087 M55.3296739,36.9576087 C55.3296739,36.1402174 55.4655435,35.35 55.7927174,34.6141304 C55.9557609,34.151087 56.2557609,33.7423913 56.6101087,33.4152174 C56.9101087,33.1423913 57.2633696,32.925 57.6448913,32.7891304 C57.9448913,32.7065217 58.2720652,32.6521739 58.5709783,32.625 C59.2796739,32.5978261 59.9883696,32.8706522 60.5057609,33.3880435 C60.9970652,33.851087 61.3775,34.4782609 61.5416304,35.1315217 C61.7046739,35.7315217 61.8144565,36.3304348 61.8144565,36.9576087 C61.8416304,37.775 61.6775,38.5923913 61.351413,39.3554348 C61.1601087,39.8184783 60.8872826,40.2271739 60.5057609,40.5815217 C60.2068478,40.8532609 59.8796739,41.0717391 59.4981522,41.1804348 C59.1981522,41.2619565 58.8981522,41.3173913 58.5992391,41.3173913 C58.1090217,41.3173913 57.5905435,41.2086957 57.1546739,40.9358696 C56.7459783,40.6902174 56.3916304,40.3630435 56.1459783,39.9543478 C55.8742391,39.5184783 55.6557609,39.0554348 55.5470652,38.5652174 C55.3840217,38.0467391 55.3296739,37.5021739 55.3296739,36.9576087" id="Fill-12" fill="#333333"></path>
                        <path d="M67.1545652,36.7665217 L68.9534783,36.7665217 C69.4436957,36.7936957 69.933913,36.6578261 70.3154348,36.3578261 C70.9415217,35.6491304 70.9415217,34.5871739 70.3154348,33.8513043 C69.933913,33.5513043 69.4708696,33.3882609 68.9806522,33.4154348 L67.1273913,33.4154348 L67.1545652,36.7665217 Z M66.5002174,41.1534783 L66.5002174,32.7882609 L69.0078261,32.7882609 C69.8252174,32.7882609 70.4241304,32.9795652 70.86,33.3882609 C71.2969565,33.8241304 71.5415217,34.4502174 71.4871739,35.0773913 C71.5143478,35.458913 71.4056522,35.8404348 71.2415217,36.1676087 C71.1056522,36.4393478 70.8882609,36.6578261 70.6426087,36.8208696 C70.4795652,36.9295652 70.2882609,37.0393478 70.0980435,37.0936957 C70.3426087,37.1480435 70.561087,37.3382609 70.6969565,37.5567391 C70.8328261,37.8567391 70.9415217,38.1567391 71.0513043,38.4556522 C71.0784783,38.6469565 71.2143478,39.0828261 71.4328261,39.8186957 L71.76,41.1263043 L71.0784783,41.1263043 L70.7241304,39.8186957 C70.4241304,38.8371739 70.261087,38.2654348 70.2067391,38.0752174 C70.1241304,37.8567391 70.0154348,37.6665217 69.8252174,37.5295652 C69.633913,37.3936957 69.4165217,37.311087 69.1980435,37.3382609 L67.1817391,37.3382609 L67.1817391,41.1534783 L66.5002174,41.1534783 Z" id="Fill-14" fill="#333333"></path>
                        <path d="M22.0867391,50.581087 L23.2856522,50.581087 C23.5584783,50.581087 23.8573913,50.553913 24.1302174,50.5267391 C24.3486957,50.4995652 24.566087,50.4452174 24.7834783,50.3354348 C25.0563043,50.1995652 25.3019565,49.9821739 25.4378261,49.7093478 C25.7106522,49.1647826 25.7106522,48.5376087 25.4106522,47.9930435 C25.2476087,47.7202174 25.0291304,47.5017391 24.7302174,47.4202174 C24.2932609,47.2843478 23.8302174,47.2028261 23.3671739,47.23 L22.113913,47.23 L22.0867391,50.581087 Z M19.988913,56.5756522 L19.988913,45.2952174 L23.34,45.2952174 C23.8302174,45.2952174 24.3486957,45.3223913 24.838913,45.403913 C25.3019565,45.4865217 25.7378261,45.6223913 26.1736957,45.8397826 C26.691087,46.0854348 27.1280435,46.5213043 27.3726087,47.0386957 C27.6454348,47.5843478 27.7541304,48.156087 27.7541304,48.756087 C27.7541304,49.355 27.6182609,49.9267391 27.3726087,50.4723913 C27.1813043,50.9354348 26.9095652,51.3169565 26.5280435,51.6713043 C26.3378261,51.8615217 26.1193478,51.9984783 25.8736957,52.08 C25.5193478,52.2430435 25.1106522,52.3528261 24.7302174,52.4071739 C24.3486957,52.4615217 23.966087,52.4886957 23.5845652,52.4886957 L22.141087,52.4886957 L22.141087,56.5756522 L19.988913,56.5756522 Z" id="Fill-16" fill="#333333"></path>
                        <path d="M33.0402174,50.4177174 L34.5663043,50.4177174 C35.8467391,50.4177174 36.501087,49.9003261 36.501087,48.8644565 C36.5282609,48.401413 36.3652174,47.9655435 36.0380435,47.6383696 C35.7380435,47.3655435 35.2478261,47.2296739 34.5663043,47.2296739 L33.0402174,47.2296739 L33.0402174,50.4177174 Z M30.9423913,56.576413 L30.9423913,45.2959783 L34.8663043,45.2959783 C35.6282609,45.2677174 36.3913043,45.4590217 37.0728261,45.8133696 C37.6456522,46.0851087 38.0815217,46.5481522 38.3532609,47.1209783 C38.5445652,47.6111957 38.626087,48.1296739 38.626087,48.6470652 C38.626087,49.1916304 38.4902174,49.7372826 38.2445652,50.2275 C37.9728261,50.7448913 37.5358696,51.153587 37.0456522,51.453587 C37.3456522,51.6166304 37.5913043,51.8622826 37.7543478,52.1351087 C37.998913,52.5698913 38.1902174,53.0340217 38.298913,53.5242391 L39.1434783,56.576413 L36.9913043,56.576413 L36.1467391,53.7688043 C36.0097826,53.3872826 35.873913,53.0883696 35.7652174,52.8427174 C35.6836957,52.6796739 35.5467391,52.5166304 35.3565217,52.4611957 C35.1380435,52.3796739 34.9206522,52.3525 34.675,52.3525 L33.0402174,52.3525 L33.0402174,56.6025 L30.9423913,56.6025 L30.9423913,56.576413 Z" id="Fill-18" fill="#333333"></path>
                        <polygon id="Fill-20" fill="#333333" points="42.5770652 56.5758696 42.5770652 45.2954348 49.906413 45.2954348 49.906413 47.338913 44.7292391 47.338913 44.7292391 49.8997826 49.0346739 49.8997826 49.0346739 51.9432609 44.7292391 51.9432609 44.7292391 54.5052174 50.2879348 54.5052174 50.2879348 56.5486957"></polygon>
                        <path d="M52.7948913,50.9903261 C52.7677174,50.0903261 52.9046739,49.218587 53.203587,48.3740217 C53.4492391,47.6925 53.803587,47.066413 54.2666304,46.5218478 C54.6753261,46.0577174 55.2198913,45.6761957 55.7927174,45.4316304 C56.3644565,45.1859783 56.9633696,45.0772826 57.5905435,45.0772826 C58.2720652,45.0501087 58.9796739,45.2142391 59.6068478,45.5131522 C60.0698913,45.7316304 60.5057609,46.0316304 60.8601087,46.4392391 C61.051413,46.6577174 61.2144565,46.8751087 61.351413,47.1207609 L59.7698913,48.4011957 C59.7166304,48.2925 59.6340217,48.1838043 59.5253261,48.0468478 C59.4166304,47.8838043 59.2525,47.7479348 59.0894565,47.6109783 C58.8981522,47.4751087 58.6807609,47.3392391 58.4622826,47.2566304 C58.1905435,47.1479348 57.9177174,47.1207609 57.6177174,47.1207609 C57.2633696,47.1207609 56.9101087,47.2022826 56.5829348,47.3392391 C56.2557609,47.5022826 55.9557609,47.7479348 55.7383696,48.0468478 C55.4655435,48.4011957 55.2742391,48.8098913 55.1383696,49.2468478 C54.9753261,49.818587 54.9209783,50.3903261 54.9209783,50.9903261 C54.9209783,52.216413 55.1927174,53.1425 55.7111957,53.7968478 C56.228587,54.4511957 56.9916304,54.8044565 57.8361957,54.7772826 C58.4079348,54.8044565 58.9796739,54.668587 59.4981522,54.4511957 C59.8525,54.2870652 60.2068478,54.0696739 60.5057609,53.8240217 L61.1872826,55.7033696 C60.9427174,56.0033696 60.3970652,56.2761957 59.6340217,56.493587 C58.9796739,56.6848913 58.2992391,56.793587 57.5905435,56.8207609 C56.9101087,56.8207609 56.2557609,56.7120652 55.628587,56.4392391 C55.0296739,56.1946739 54.5122826,55.8131522 54.103587,55.3229348 C53.6394565,54.7772826 53.3133696,54.1511957 53.1220652,53.4968478 C52.9046739,52.7066304 52.7948913,51.8348913 52.7948913,50.9903261" id="Fill-22" fill="#333333"></path>
                        <mask id="mask-4" fill="white">
                            <use xlink:href="#path-3"></use>
                        </mask>
                        <g id="Clip-25"></g>
                        <polygon id="Fill-24" fill="#333333" mask="url(#mask-4)" points="64.6478261 56.576087 66.8 56.576087 66.8 45.2956522 64.6478261 45.2956522"></polygon>
                        <path d="M72.8223913,49.5461957 C72.5767391,50.4722826 72.5767391,51.4527174 72.8223913,52.4070652 C72.931087,52.8429348 73.0941304,53.2516304 73.3397826,53.6331522 C73.5582609,53.9875 73.8582609,54.2592391 74.2115217,54.4777174 C74.5658696,54.6961957 74.9745652,54.8048913 75.3832609,54.8048913 C75.8191304,54.8048913 76.256087,54.6679348 76.6365217,54.4505435 C76.9908696,54.2331522 77.2908696,53.9603261 77.5093478,53.6059783 C77.6995652,53.3059783 77.8354348,52.9788043 77.9169565,52.6516304 C78.081087,52.1070652 78.1626087,51.5625 78.1626087,50.9907609 C78.1626087,50.2820652 78.0267391,49.5733696 77.753913,48.9461957 C77.5636957,48.4016304 77.1821739,47.911413 76.7180435,47.5842391 C76.3093478,47.338587 75.8473913,47.1755435 75.3832609,47.1755435 C74.9745652,47.1755435 74.5658696,47.2842391 74.2115217,47.5027174 C73.8582609,47.7201087 73.5582609,48.0201087 73.3397826,48.3472826 C73.0941304,48.6744565 72.931087,49.0831522 72.8223913,49.5461957 M70.778913,53.088587 C70.3702174,51.6983696 70.3702174,50.2266304 70.778913,48.8375 C70.9691304,48.1559783 71.2691304,47.5027174 71.705,46.9298913 C72.1136957,46.3853261 72.6321739,45.9222826 73.231087,45.5951087 C74.8658696,44.7505435 76.855,44.9690217 78.2995652,46.1125 C79.0626087,46.7396739 79.6343478,47.5842391 79.9071739,48.5103261 C80.18,49.3005435 80.3158696,50.1179348 80.3430435,50.9625 C80.3430435,51.6983696 80.2332609,52.4070652 80.0158696,53.088587 C79.8245652,53.7690217 79.4984783,54.3961957 79.0897826,54.9679348 C78.681087,55.513587 78.1626087,55.9766304 77.5365217,56.3038043 C76.855,56.6570652 76.1191304,56.8483696 75.356087,56.8211957 C74.5930435,56.8483696 73.8582609,56.6570652 73.203913,56.3038043 C72.603913,55.9766304 72.0865217,55.513587 71.6778261,54.9679348 C71.2691304,54.3961957 70.9691304,53.7418478 70.778913,53.088587" id="Fill-26" fill="#333333" mask="url(#mask-4)"></path>
                        <polygon id="Fill-27" fill="#333333" mask="url(#mask-4)" points="22.4407609 60.7718478 23.1766304 60.7718478 25.6288043 68.2381522 28.1907609 60.7718478 28.8440217 60.7718478 25.9288043 69.1370652 25.2744565 69.1370652"></polygon>
                        <path d="M29.9067391,64.9408696 C29.9067391,65.6223913 30.0165217,66.3028261 30.261087,66.9571739 C30.4252174,67.5017391 30.7784783,67.9658696 31.2143478,68.2919565 C31.5686957,68.5376087 32.0045652,68.6745652 32.4676087,68.6745652 C33.0404348,68.6745652 33.6121739,68.456087 33.9936957,68.0202174 C34.4023913,67.5843478 34.7023913,67.0669565 34.8393478,66.4941304 C34.9752174,65.9767391 35.0295652,65.4593478 35.0295652,64.9408696 C35.0295652,64.2604348 34.9208696,63.606087 34.6752174,62.978913 C34.5121739,62.4615217 34.185,61.9984783 33.7491304,61.6441304 C33.3947826,61.3713043 32.9317391,61.2082609 32.4676087,61.2082609 C32.058913,61.2082609 31.6502174,61.3169565 31.3241304,61.5354348 C30.9969565,61.7528261 30.7241304,62.0528261 30.5067391,62.38 C30.2882609,62.7615217 30.1252174,63.1702174 30.0426087,63.578913 C29.961087,64.0419565 29.9067391,64.505 29.9067391,64.9408696 M29.2263043,64.9408696 C29.2263043,64.1234783 29.3621739,63.3332609 29.6882609,62.5973913 C29.8795652,62.1343478 30.1523913,61.7256522 30.5067391,61.3984783 C30.8056522,61.1267391 31.16,60.9082609 31.5415217,60.7723913 C31.8415217,60.6897826 32.1686957,60.6365217 32.4676087,60.6082609 C33.1763043,60.581087 33.885,60.853913 34.4023913,61.3713043 C34.8926087,61.8354348 35.2741304,62.4615217 35.4382609,63.1430435 C35.6013043,63.7419565 35.71,64.3419565 35.71,64.9680435 C35.7382609,65.7854348 35.5741304,66.6028261 35.2480435,67.3658696 C35.0567391,67.828913 34.783913,68.2376087 34.4023913,68.5919565 C34.1023913,68.8647826 33.7763043,69.0832609 33.3947826,69.1919565 C33.0947826,69.2734783 32.7947826,69.3278261 32.4947826,69.3278261 C32.0045652,69.3278261 31.4871739,69.2191304 31.0513043,68.9463043 C30.6426087,68.7006522 30.2882609,68.3745652 30.0426087,67.9658696 C29.7708696,67.53 29.5523913,67.0669565 29.4436957,66.5756522 C29.2795652,66.031087 29.2263043,65.4854348 29.2263043,64.9408696" id="Fill-28" fill="#333333" mask="url(#mask-4)"></path>
                        <path d="M37.9447826,68.5106522 L39.1436957,68.5106522 C39.3621739,68.5106522 39.5795652,68.5106522 39.8252174,68.4834783 C40.0426087,68.4563043 40.261087,68.4008696 40.4523913,68.3476087 C41.0241304,68.1291304 41.5415217,67.7204348 41.8415217,67.1747826 C42.2230435,66.4671739 42.4132609,65.6769565 42.358913,64.8867391 C42.386087,64.2595652 42.2502174,63.6334783 42.0317391,63.0334783 C41.8143478,62.5704348 41.4871739,62.1617391 41.0513043,61.8617391 C40.7784783,61.6986957 40.5056522,61.5617391 40.1795652,61.4802174 C39.8523913,61.3986957 39.4980435,61.3715217 39.1708696,61.3715217 L37.9176087,61.3715217 L37.9447826,68.5106522 Z M37.2904348,69.1378261 L37.2904348,60.7715217 L39.2534783,60.7715217 C39.5795652,60.7715217 39.933913,60.7997826 40.261087,60.8541304 C40.561087,60.9084783 40.861087,61.0171739 41.1328261,61.1530435 C41.7317391,61.4530435 42.2230435,61.9171739 42.5502174,62.516087 C42.9034783,63.2247826 43.0947826,64.0421739 43.0676087,64.8323913 C43.0676087,65.9758696 42.8491304,66.9030435 42.4132609,67.5834783 C42.0045652,68.2378261 41.3513043,68.7291304 40.5882609,68.9465217 C40.1523913,69.0552174 39.7154348,69.1378261 39.2806522,69.1378261 L37.2904348,69.1378261 Z" id="Fill-29" fill="#333333" mask="url(#mask-4)"></path>
                        <path d="M45.2747826,65.8128261 L48.1356522,65.8128261 L46.691087,61.5617391 L45.2747826,65.8128261 Z M43.4486957,69.1378261 L46.4193478,60.7715217 L47.0182609,60.7715217 L50.016087,69.1378261 L49.3345652,69.1378261 L48.3541304,66.44 L45.0834783,66.44 L44.1302174,69.1378261 L43.4486957,69.1378261 Z" id="Fill-30" fill="#333333" mask="url(#mask-4)"></path>
                        <polygon id="Fill-31" fill="#333333" mask="url(#mask-4)" points="51.0238043 69.1373913 51.0238043 60.7721739 55.383587 60.7721739 55.383587 61.371087 51.6509783 61.371087 51.6509783 64.5047826 54.4020652 64.5047826 54.4020652 65.1047826 51.6509783 65.1047826 51.6509783 69.1102174"></polygon>
                        <path d="M56.5552174,64.9408696 C56.5552174,65.6223913 56.665,66.3028261 56.9095652,66.9571739 C57.0736957,67.5017391 57.4269565,67.9658696 57.8628261,68.2919565 C58.2171739,68.5376087 58.6530435,68.6745652 59.116087,68.6745652 C59.688913,68.6745652 60.2606522,68.456087 60.6421739,68.0202174 C61.0508696,67.5843478 61.3508696,67.0669565 61.4878261,66.4941304 C61.6236957,65.9767391 61.6780435,65.4593478 61.7052174,64.9408696 C61.7052174,64.2604348 61.5965217,63.606087 61.3508696,62.978913 C61.1878261,62.4615217 60.8606522,61.9984783 60.4247826,61.6441304 C60.0704348,61.3713043 59.6073913,61.2354348 59.1432609,61.2082609 C58.7345652,61.2082609 58.3258696,61.3169565 57.9997826,61.5354348 C57.6726087,61.7528261 57.3997826,62.0528261 57.2095652,62.38 C56.991087,62.7615217 56.8280435,63.1702174 56.7465217,63.578913 C56.6095652,64.0419565 56.5552174,64.505 56.5552174,64.9408696 M55.8747826,64.9408696 C55.8747826,64.1234783 56.0106522,63.3332609 56.3367391,62.5973913 C56.5280435,62.1343478 56.8008696,61.7256522 57.1552174,61.3984783 C57.4541304,61.1267391 57.8084783,60.9082609 58.19,60.7723913 C58.49,60.6897826 58.8171739,60.6365217 59.116087,60.6082609 C59.8247826,60.581087 60.5334783,60.853913 61.0508696,61.3713043 C61.541087,61.8354348 61.9226087,62.4615217 62.0867391,63.1430435 C62.2497826,63.7419565 62.3595652,64.3419565 62.3595652,64.9680435 C62.3867391,65.7854348 62.2226087,66.6028261 61.8965217,67.3658696 C61.7052174,67.828913 61.4323913,68.2376087 61.0508696,68.5919565 C60.7508696,68.8647826 60.4247826,69.0832609 60.0432609,69.1919565 C59.7432609,69.2734783 59.4432609,69.3278261 59.1432609,69.3278261 C58.6530435,69.3278261 58.1356522,69.2191304 57.6997826,68.9463043 C57.291087,68.7006522 56.9367391,68.3745652 56.691087,67.9658696 C56.4193478,67.53 56.2008696,67.0669565 56.0921739,66.5756522 C55.9280435,66.031087 55.8747826,65.4854348 55.8747826,64.9408696" id="Fill-32" fill="#333333" mask="url(#mask-4)"></path>
                        <polygon id="Fill-33" fill="#333333" mask="url(#mask-4)" points="63.9393478 69.1373913 63.9393478 60.7721739 64.6208696 60.7721739 69.0621739 67.8015217 69.0621739 60.7721739 69.6893478 60.7721739 69.6893478 69.1373913 69.1436957 69.1373913 64.5665217 61.943913 64.5665217 69.1645652 63.9393478 69.1645652"></polygon>
                        <polygon id="Fill-34" fill="#333333" mask="url(#mask-4)" points="71.6234783 69.1373913 71.6234783 60.7721739 76.0919565 60.7721739 76.0919565 61.371087 72.2778261 61.371087 72.2778261 64.396087 75.0571739 64.396087 75.0571739 64.995 72.2778261 64.995 72.2778261 68.5102174 76.3104348 68.5102174 76.3104348 69.1102174"></polygon>
                    </g>
                </g>
            </g>
        </g>
    </g>
</svg>