<svg xmlns="http://www.w3.org/2000/svg" xmlns:xlink="http://www.w3.org/1999/xlink" width="127" height="127" viewBox="0 0 127 127"><defs><path id="prefix__a" d="M0 .37h128.367v128.343H0z"/><path id="prefix__c" d="M0 128.743h128.367V.399H0z"/></defs><g fill="none" fill-rule="evenodd" transform="rotate(16 66.178 61.652)"><g transform="translate(0 .03)"><mask id="prefix__b" fill="#fff"><use xlink:href="#prefix__a"/></mask><path fill="red" d="M48.103 120.014c.282 0 .561.105.773.316l.314.315c7.858 7.927 20.657 7.962 28.584.105.28-.28.666-.386 1.053-.28l.456.14c10.765 2.912 21.849-3.437 24.795-14.204v-.034c.105-.386.386-.667.772-.737l.42-.105c10.802-2.842 17.22-13.924 14.38-24.69-.105-.387 0-.773.28-1.018l.35-.316c7.928-7.856 7.963-20.657.107-28.548a1.014 1.014 0 01-.141-1.298c0-.07.034-.14.034-.175 2.912-10.767-3.436-21.849-14.203-24.795-.386-.105-.667-.386-.737-.772-.035-.14-.07-.315-.105-.457-2.876-10.8-13.923-17.22-24.69-14.379-.387.106-.771 0-1.018-.28l-.316-.316C71.356.596 58.554.526 50.63 8.381c-.282.281-.666.386-1.052.246l-.457-.141c-10.767-2.91-21.849 3.472-24.795 14.205-.105.386-.386.665-.77.735l-.423.107C12.33 26.373 5.912 37.456 8.754 48.257c.105.386 0 .772-.282 1.017l-.28.281C.232 57.411.162 70.212 8.017 78.14c.282.28.386.666.245 1.052-.033.14-.068.315-.14.455-2.91 10.767 3.438 21.885 14.205 24.797.386.105.666.386.737.77.034.14.069.282.105.422 2.875 10.802 13.923 17.22 24.725 14.38h.21zm15.432 8.698c-5.892 0-11.573-2.315-15.748-6.489-11.713 2.737-23.497-4.278-26.653-15.886-11.54-3.472-18.238-15.503-15.117-27.146-8.207-8.768-7.996-22.481.493-31.003-2.772-11.714 4.278-23.498 15.886-26.654C25.903 9.994 37.897 3.295 49.542 6.417c8.767-8.24 22.481-8.03 31.038.456 11.714-2.735 23.498 4.278 26.654 15.887 11.538 3.473 18.237 15.502 15.116 27.146 8.207 8.768 7.997 22.482-.491 31.003 2.771 11.715-4.279 23.534-15.923 26.655-3.472 11.538-15.501 18.237-27.144 15.115a21.992 21.992 0 01-15.257 6.033z" mask="url(#prefix__b)"/></g><path fill="red" d="M64.201 18.301c-25.532 0-46.294 20.762-46.294 46.295 0 25.531 20.762 46.295 46.294 46.295 25.533 0 46.295-20.764 46.295-46.295 0-25.533-20.797-46.295-46.295-46.295m0 94.694c-26.69 0-48.398-21.71-48.398-48.4 0-26.689 21.709-48.398 48.398-48.398 26.69 0 48.4 21.71 48.4 48.399 0 26.69-21.71 48.399-48.4 48.399"/><path fill="red" d="M34.741 51.97l.491-10.767h1.087l3.262 9.785 2.981-9.785h.982l.491 10.767h-.807l-.42-9.049-2.876 9.224h-.842l-3.087-9.364-.386 9.189zm15.467 0V41.203h5.752v.771h-4.91v3.858h3.576v.773H51.05v4.523h5.224v.772h-6.066zm10.662-.42l.28-.773c.14.141.316.246.49.316.212.106.457.175.703.211.21.035.421.07.63.07.562 0 .913-.141 1.123-.42.211-.387.316-.843.281-1.264v-8.487h.841v8.593c.035.42-.035.84-.21 1.227a1.944 1.944 0 01-.736.771c-.42.211-.877.316-1.333.316-.456 0-.877-.07-1.298-.211-.28-.034-.526-.175-.771-.35m11.222-4.979a7.4 7.4 0 00.456 2.594 3.4 3.4 0 001.229 1.718c.49.317 1.017.492 1.611.492.738 0 1.475-.282 1.965-.841.526-.561.912-1.229 1.088-1.965a7.816 7.816 0 00.245-1.999c0-.877-.14-1.72-.456-2.525a3.643 3.643 0 00-1.192-1.718 2.75 2.75 0 00-1.65-.563 2.67 2.67 0 00-1.471.422c-.422.28-.808.667-1.053 1.088a5.276 5.276 0 00-.597 1.543c-.14.595-.21 1.192-.175 1.753m-.876 0c0-1.052.175-2.069.596-3.016.21-.596.596-1.122 1.052-1.543a3.99 3.99 0 011.332-.806 7.052 7.052 0 011.192-.211 3.353 3.353 0 012.49.982 4.747 4.747 0 011.334 2.244c.21.772.351 1.543.351 2.35a7.252 7.252 0 01-.596 3.087 4.408 4.408 0 01-1.088 1.578c-.385.35-.806.63-1.297.77a4.425 4.425 0 01-1.157.177c-.631 0-1.299-.14-1.86-.491a3.74 3.74 0 01-1.298-1.264c-.35-.56-.63-1.157-.77-1.788-.21-.667-.28-1.368-.28-2.069m15.22-.246h2.315c.631.035 1.262-.14 1.753-.526.806-.912.806-2.279 0-3.226a2.537 2.537 0 00-1.718-.561h-2.385l.035 4.313zm-.843 5.647V41.203h3.228c1.052 0 1.823.246 2.384.772a2.77 2.77 0 01.807 2.174c.035.491-.105.982-.316 1.403-.175.35-.455.631-.77.841-.21.14-.457.281-.702.351.315.07.596.315.771.596.175.386.315.773.456 1.157.035.247.21.808.491 1.755l.421 1.683h-.877l-.456-1.683c-.386-1.264-.596-2-.666-2.244-.106-.282-.246-.526-.491-.703-.246-.175-.526-.28-.807-.246h-2.595v4.91h-.878zM28.428 64.104h1.544c.35 0 .736-.035 1.087-.07.28-.035.56-.105.84-.246.352-.175.668-.455.843-.806.35-.7.35-1.508-.035-2.209-.21-.35-.491-.632-.876-.737-.562-.175-1.158-.28-1.754-.245h-1.614l-.035 4.313zm-2.7 7.716V57.3h4.314c.63 0 1.298.036 1.929.14a6.245 6.245 0 011.718.562 3.295 3.295 0 011.543 1.543c.351.702.491 1.438.491 2.21a5.36 5.36 0 01-.49 2.21 4.303 4.303 0 01-1.088 1.543c-.245.244-.526.42-.842.526-.456.21-.982.35-1.472.42-.491.07-.984.106-1.475.106h-1.858v5.26h-2.77zm16.799-7.926h1.964c1.648 0 2.49-.666 2.49-2a2.028 2.028 0 00-.595-1.577c-.387-.351-1.018-.526-1.895-.526h-1.964v4.103zm-2.7 7.927v-14.52h5.05c.981-.036 1.963.21 2.84.667.738.35 1.299.945 1.649 1.683.246.63.35 1.298.35 1.964a4.57 4.57 0 01-.49 2.034c-.35.666-.913 1.192-1.543 1.578.386.21.702.526.912.878.314.56.56 1.157.7 1.788l1.088 3.928h-2.77l-1.087-3.614c-.177-.49-.352-.875-.492-1.192-.104-.21-.28-.42-.526-.49a2.4 2.4 0 00-.877-.14h-2.104v5.47h-2.7v-.034zm14.975-.001V57.301h9.434v2.63h-6.664v3.296h5.542v2.631h-5.542v3.297h7.155v2.63zm13.152-7.189a9.169 9.169 0 01.526-3.367 7.671 7.671 0 011.368-2.384 5.571 5.571 0 011.964-1.404 5.788 5.788 0 012.314-.456c.878-.035 1.788.177 2.596.561a4.864 4.864 0 011.613 1.192c.246.281.456.561.632.877l-2.035 1.65a2.723 2.723 0 00-.315-.457c-.14-.21-.351-.384-.561-.56a3.75 3.75 0 00-.808-.457c-.35-.14-.7-.175-1.087-.175-.456 0-.91.105-1.331.282-.422.21-.808.526-1.088.91-.35.457-.597.983-.772 1.545-.21.736-.28 1.472-.28 2.244 0 1.578.35 2.77 1.017 3.612a3.29 3.29 0 002.736 1.262c.736.035 1.471-.14 2.139-.42.456-.21.912-.49 1.297-.807l.877 2.42c-.315.386-1.017.737-2 1.017-.842.246-1.717.386-2.63.42-.875 0-1.718-.14-2.525-.49a5.018 5.018 0 01-1.963-1.437 6.397 6.397 0 01-1.263-2.35 12.372 12.372 0 01-.421-3.227"/><mask id="prefix__d" fill="#fff"><use xlink:href="#prefix__c"/></mask><path fill="red" d="M83.21 71.821h2.77v-14.52h-2.77zm10.522-9.049a7.272 7.272 0 000 3.683c.14.56.35 1.087.666 1.578.28.456.667.806 1.122 1.087.456.281.982.42 1.508.42.561 0 1.123-.175 1.613-.455.456-.28.842-.631 1.124-1.087a4.19 4.19 0 00.524-1.229 7.31 7.31 0 00.316-2.137c0-.913-.175-1.825-.526-2.632a3.684 3.684 0 00-1.333-1.753c-.526-.316-1.12-.526-1.718-.526-.526 0-1.052.14-1.508.421a3.7 3.7 0 00-1.122 1.087c-.316.421-.526.947-.666 1.543m-2.63 4.56a9.685 9.685 0 010-5.472 7.215 7.215 0 011.192-2.455 6.17 6.17 0 011.964-1.718c2.104-1.087 4.664-.806 6.524.666.982.807 1.718 1.894 2.069 3.086.351 1.017.526 2.07.56 3.156 0 .947-.14 1.86-.42 2.737-.247.876-.666 1.683-1.192 2.419a5.948 5.948 0 01-2 1.72c-.877.454-1.824.7-2.806.665a5.409 5.409 0 01-2.77-.666 6.13 6.13 0 01-1.964-1.72 8.036 8.036 0 01-1.157-2.418m-62.218 9.889h.947l3.157 9.61 3.297-9.61h.841l-3.752 10.767h-.843zm9.61 5.366c0 .877.141 1.753.456 2.596.211.7.666 1.298 1.227 1.718a2.826 2.826 0 001.613.492c.737 0 1.473-.281 1.964-.842.526-.561.912-1.227 1.089-1.964a7.813 7.813 0 00.245-2 6.83 6.83 0 00-.457-2.525 3.64 3.64 0 00-1.192-1.718 2.748 2.748 0 00-1.649-.561c-.526 0-1.052.14-1.472.421-.42.28-.772.666-1.052 1.087a5.22 5.22 0 00-.597 1.543 10.258 10.258 0 00-.175 1.753m-.876 0c0-1.052.175-2.069.595-3.016a4.325 4.325 0 011.053-1.543c.385-.35.84-.631 1.332-.806a7.117 7.117 0 011.192-.211 3.356 3.356 0 012.49.982 4.718 4.718 0 011.334 2.28c.21.771.35 1.543.35 2.35a7.25 7.25 0 01-.595 3.086 4.41 4.41 0 01-1.089 1.578c-.386.35-.806.632-1.297.772a4.423 4.423 0 01-1.158.175c-.631 0-1.297-.14-1.858-.491-.526-.316-.982-.736-1.298-1.262-.35-.561-.631-1.157-.771-1.79-.211-.7-.28-1.403-.28-2.104m11.222 4.595h1.543c.281 0 .561 0 .877-.035.28-.035.561-.106.807-.175.736-.281 1.402-.807 1.788-1.51.491-.91.736-1.927.666-2.944.035-.808-.14-1.614-.42-2.386a3.748 3.748 0 00-1.263-1.508c-.35-.21-.702-.386-1.122-.491a5.456 5.456 0 00-1.298-.14h-1.613l.035 9.189zm-.842.807V77.221h2.526c.42 0 .876.036 1.297.106.386.07.772.21 1.122.385a4.209 4.209 0 011.825 1.754c.454.912.7 1.965.666 2.982 0 1.471-.282 2.665-.843 3.54a4.094 4.094 0 01-2.349 1.755c-.56.14-1.123.246-1.683.246h-2.561zm10.276-4.279h3.683l-1.86-5.472-1.823 5.472zm-2.35 4.28l3.824-10.77h.77l3.86 10.77H63.5l-1.262-3.473h-4.21l-1.227 3.472h-.877zm9.75-.001V77.222h5.612v.77h-4.805v4.034h3.541v.772h-3.541v5.156zm7.12-5.402c0 .877.141 1.753.456 2.596.211.7.666 1.298 1.227 1.718a2.826 2.826 0 001.613.492c.737 0 1.473-.281 1.964-.842.526-.561.912-1.227 1.089-1.964.175-.666.245-1.332.28-2a6.83 6.83 0 00-.457-2.525 3.64 3.64 0 00-1.192-1.718c-.456-.351-1.052-.526-1.649-.561-.526 0-1.052.14-1.472.421-.42.28-.772.666-1.017 1.087a5.191 5.191 0 00-.596 1.543 6.193 6.193 0 00-.246 1.753m-.876 0c0-1.052.175-2.069.595-3.016a4.325 4.325 0 011.053-1.543c.385-.35.841-.631 1.332-.806a7.117 7.117 0 011.192-.211 3.356 3.356 0 012.49.982 4.718 4.718 0 011.334 2.28c.21.771.35 1.543.35 2.35a7.234 7.234 0 01-.595 3.086 4.41 4.41 0 01-1.089 1.578c-.386.35-.806.632-1.297.772a4.423 4.423 0 01-1.158.175c-.631 0-1.297-.14-1.858-.491-.526-.316-.982-.736-1.298-1.262-.35-.561-.631-1.157-.771-1.79-.211-.7-.28-1.403-.28-2.104m10.38 5.402V77.222h.877l5.717 9.047v-9.047h.807v10.767h-.702l-5.892-9.259v9.294h-.807zm9.891 0V77.222h5.751v.77h-4.909v3.894h3.577v.771h-3.577v4.524h5.19v.773z" mask="url(#prefix__d)"/></g></svg>