<svg width="147" height="147" viewBox="0 0 147 147" xmlns="http://www.w3.org/2000/svg"><g id="PLP-Revamp---Fibra" stroke="none" stroke-width="1" fill="none" fill-rule="evenodd"><g id="PLP-Desktop---Revamp---Fibra_v06" transform="translate(-665 -254)"><g id="Cabecera" transform="translate(49 118)"><g id="bodegon" transform="translate(559)"><g id="Bolo--sin-permanencia" transform="rotate(15 -414.511 357.979)"><circle id="Oval-Copy-4" fill="#E60000" cx="73.5" cy="73.5" r="73.5"/><path d="M65.67 63.13c0 1.47-.3 2.76-.9 3.87a8.447 8.447 0 01-2.362 2.768A10.2 10.2 0 0159.1 71.41c-1.23.36-2.475.54-3.735.54-1.38 0-2.632-.12-3.758-.36a22.832 22.832 0 01-2.992-.832c-.87-.316-1.597-.638-2.183-.968-.585-.33-1.012-.6-1.282-.81l2.43-4.995c.27.24.645.525 1.125.855a11.504 11.504 0 003.892 1.688 11.85 11.85 0 002.723.292c1.44 0 2.572-.315 3.398-.945.825-.63 1.237-1.47 1.237-2.52 0-.63-.075-1.177-.225-1.642-.15-.466-.457-.9-.922-1.305-.466-.406-1.125-.795-1.98-1.17-.856-.376-1.988-.803-3.398-1.283-1.29-.42-2.43-.885-3.42-1.395-.99-.51-1.822-1.11-2.497-1.8a6.827 6.827 0 01-1.53-2.43c-.346-.93-.518-2.025-.518-3.285 0-1.2.21-2.31.63-3.33a7.192 7.192 0 011.89-2.655c.84-.75 1.89-1.335 3.15-1.755 1.26-.42 2.715-.63 4.365-.63 1.38 0 2.617.135 3.712.405 1.096.27 2.048.607 2.858 1.013.81.405 1.492.847 2.048 1.327a13.1 13.1 0 011.372 1.35l-3.015 4.005c-.3-.36-.697-.72-1.193-1.08-.495-.36-1.057-.69-1.687-.99a11.77 11.77 0 00-2.047-.742 8.824 8.824 0 00-2.273-.293c-1.56 0-2.655.307-3.285.923-.63.615-.945 1.357-.945 2.227 0 .54.09.997.27 1.373.18.375.487.727.922 1.057.436.33 1.02.653 1.755.968.736.315 1.673.682 2.813 1.102 1.56.57 2.902 1.147 4.028 1.733 1.125.585 2.047 1.252 2.767 2.002a6.88 6.88 0 011.575 2.588c.33.975.495 2.137.495 3.487zm4.365 8.19V49.63h5.535v21.69h-5.535zm2.79-23.715c-1.14 0-1.987-.33-2.543-.99-.555-.66-.832-1.395-.832-2.205 0-.78.277-1.5.832-2.16.556-.66 1.403-.99 2.543-.99 1.11 0 1.942.33 2.498.99.555.66.832 1.38.832 2.16 0 .81-.277 1.545-.832 2.205-.556.66-1.388.99-2.498.99zm22.14 23.715V58.945c0-1.65-.345-2.925-1.035-3.825-.69-.9-1.65-1.35-2.88-1.35-.87 0-1.672.225-2.407.675-.736.45-1.373.945-1.913 1.485v15.39h-5.58V49.63h5.085l.27 1.71a9.672 9.672 0 012.948-1.665 9.797 9.797 0 013.307-.585c1.14 0 2.19.172 3.15.518.96.345 1.785.892 2.475 1.642.69.75 1.222 1.725 1.597 2.925.376 1.2.563 2.64.563 4.32V71.32h-5.58zM28.29 92.48c0 .627-.097 1.243-.29 1.85a4.777 4.777 0 01-.88 1.62 4.392 4.392 0 01-1.51 1.15c-.613.293-1.34.44-2.18.44-.44 0-.867-.093-1.28-.28v3.84h-2.48V87.68h2.26l.12.72a3.96 3.96 0 01.91-.65c.38-.207.83-.31 1.35-.31.653 0 1.23.14 1.73.42.5.28.917.65 1.25 1.11.333.46.583.997.75 1.61a7.2 7.2 0 01.25 1.9zm-2.42.04c0-.373-.043-.74-.13-1.1a3.26 3.26 0 00-.39-.96 2.188 2.188 0 00-.65-.68 1.602 1.602 0 00-.91-.26 1.81 1.81 0 00-.98.29c-.307.193-.533.403-.68.63v4.66c.4.187.787.28 1.16.28.44 0 .823-.08 1.15-.24.327-.16.597-.377.81-.65.213-.273.37-.58.47-.92.1-.34.15-.69.15-1.05zm6.24.6c.053.813.307 1.4.76 1.76.453.36 1.04.54 1.76.54.333 0 .647-.03.94-.09a4.38 4.38 0 001.36-.51c.16-.093.28-.18.36-.26l.66 2.02a4.554 4.554 0 01-1.22.59 8.057 8.057 0 01-2.44.37c-.627 0-1.223-.1-1.79-.3a3.992 3.992 0 01-1.49-.93 4.574 4.574 0 01-1.02-1.57c-.253-.627-.38-1.373-.38-2.24 0-.813.117-1.533.35-2.16a4.554 4.554 0 01.96-1.58c.407-.427.88-.753 1.42-.98a4.424 4.424 0 011.73-.34c.613 0 1.18.1 1.7.3.52.2.97.51 1.35.93.38.42.68.963.9 1.63.22.667.33 1.46.33 2.38v.44h-6.24zm3.72-1.78a2.565 2.565 0 00-.21-.87 1.853 1.853 0 00-.42-.6 1.651 1.651 0 00-1.13-.45c-.427 0-.833.16-1.22.48-.387.32-.613.8-.68 1.44h3.66zm9.86-1.56a2.532 2.532 0 00-.38-.06c-.147-.013-.3-.02-.46-.02a2.23 2.23 0 00-1.26.37 5.382 5.382 0 00-.94.77v6.48h-2.48v-9.64h2.26l.16 1.02a3.407 3.407 0 01.98-.82c.213-.12.437-.217.67-.29a2.42 2.42 0 01.73-.11c.227 0 .447.017.66.05.213.033.353.063.42.09l-.36 2.16zm13.46 7.54v-5.66c0-.64-.12-1.157-.36-1.55s-.687-.59-1.34-.59c-.187 0-.377.03-.57.09-.193.06-.377.13-.55.21a3.658 3.658 0 00-.78.48c.027.16.053.34.08.54.027.2.04.42.04.66v5.82h-2.48v-5.66c0-.293-.023-.57-.07-.83a1.92 1.92 0 00-.25-.68 1.35 1.35 0 00-.47-.46c-.193-.113-.437-.17-.73-.17-.373 0-.727.1-1.06.3-.333.2-.613.413-.84.64v6.86h-2.48v-9.64h2.28l.1.72a3.894 3.894 0 011.09-.68c.433-.187.87-.28 1.31-.28.453 0 .903.07 1.35.21.447.14.863.383 1.25.73.44-.267.923-.49 1.45-.67a5.19 5.19 0 011.69-.27c.72 0 1.323.093 1.81.28.487.187.877.453 1.17.8.293.347.503.773.63 1.28s.19 1.087.19 1.74v5.78h-2.46zm9.94 0l-.1-.72a2.734 2.734 0 01-1.02.69c-.413.167-.867.25-1.36.25-.413 0-.81-.07-1.19-.21-.38-.14-.717-.34-1.01-.6a2.96 2.96 0 01-.71-.96c-.18-.38-.27-.81-.27-1.29s.093-.903.28-1.27c.187-.367.44-.677.76-.93s.687-.46 1.1-.62c.413-.16.847-.28 1.3-.36.32-.067.67-.117 1.05-.15a56.6 56.6 0 00.95-.09v-.14c0-.533-.137-.913-.41-1.14-.273-.227-.65-.34-1.13-.34-.28 0-.547.033-.8.1s-.48.15-.68.25c-.2.1-.377.2-.53.3-.153.1-.277.19-.37.27l-.82-1.74c.107-.093.27-.207.49-.34.22-.133.487-.263.8-.39a6.653 6.653 0 011.06-.32c.393-.087.817-.13 1.27-.13a4.8 4.8 0 011.46.21c.44.14.82.36 1.14.66.32.3.57.68.75 1.14.18.46.27 1.017.27 1.67v6.2h-2.28zm-.2-4.5c-.267.013-.54.037-.82.07-.28.033-.547.077-.8.13-.533.107-.903.29-1.11.55-.207.26-.31.543-.31.85 0 .32.117.577.35.77.233.193.563.29.99.29.32 0 .63-.067.93-.2.3-.133.557-.3.77-.5v-1.96zm11.04 4.5v-5.5c0-.733-.153-1.3-.46-1.7-.307-.4-.733-.6-1.28-.6-.387 0-.743.1-1.07.3-.327.2-.61.42-.85.66v6.84h-2.48v-9.64h2.26l.12.76c.387-.32.823-.567 1.31-.74.487-.173.977-.26 1.47-.26.507 0 .973.077 1.4.23.427.153.793.397 1.1.73.307.333.543.767.71 1.3.167.533.25 1.173.25 1.92v5.7h-2.48zm6.82-4.2c.053.813.307 1.4.76 1.76.453.36 1.04.54 1.76.54.333 0 .647-.03.94-.09a4.38 4.38 0 001.36-.51c.16-.093.28-.18.36-.26l.66 2.02a4.554 4.554 0 01-1.22.59 8.057 8.057 0 01-2.44.37c-.627 0-1.223-.1-1.79-.3a3.992 3.992 0 01-1.49-.93 4.574 4.574 0 01-1.02-1.57c-.253-.627-.38-1.373-.38-2.24 0-.813.117-1.533.35-2.16a4.554 4.554 0 01.96-1.58c.407-.427.88-.753 1.42-.98a4.424 4.424 0 011.73-.34c.613 0 1.18.1 1.7.3.52.2.97.51 1.35.93.38.42.68.963.9 1.63.22.667.33 1.46.33 2.38v.44h-6.24zm3.72-1.78a2.565 2.565 0 00-.21-.87 1.853 1.853 0 00-.42-.6 1.651 1.651 0 00-1.13-.45c-.427 0-.833.16-1.22.48-.387.32-.613.8-.68 1.44h3.66zm10.48 5.98v-5.5c0-.733-.153-1.3-.46-1.7-.307-.4-.733-.6-1.28-.6-.387 0-.743.1-1.07.3-.327.2-.61.42-.85.66v6.84h-2.48v-9.64h2.26l.12.76c.387-.32.823-.567 1.31-.74.487-.173.977-.26 1.47-.26.507 0 .973.077 1.4.23.427.153.793.397 1.1.73.307.333.543.767.71 1.3.167.533.25 1.173.25 1.92v5.7h-2.48zm12.4-.82c-.093.067-.24.16-.44.28-.2.12-.45.237-.75.35a6.719 6.719 0 01-2.41.41c-.587 0-1.15-.1-1.69-.3a3.933 3.933 0 01-1.43-.92c-.413-.413-.743-.933-.99-1.56s-.37-1.367-.37-2.22c0-.853.12-1.6.36-2.24.24-.64.563-1.173.97-1.6a3.852 3.852 0 011.41-.95 4.609 4.609 0 011.68-.31c.56 0 1.05.073 1.47.22.42.147.783.33 1.09.55.307.22.557.463.75.73.193.267.35.52.47.76l-1.84 1.24c-.2-.347-.45-.67-.75-.97-.3-.3-.69-.45-1.17-.45-.533 0-.997.237-1.39.71-.393.473-.59 1.21-.59 2.21 0 .96.2 1.693.6 2.2.4.507.98.76 1.74.76.36 0 .683-.037.97-.11.287-.073.537-.16.75-.26a2.93 2.93 0 00.84-.57l.72 2.04zm1.76.82v-9.64h2.46v9.64h-2.46zm1.24-10.54c-.507 0-.883-.147-1.13-.44a1.485 1.485 0 01-.37-.98c0-.347.123-.667.37-.96.247-.293.623-.44 1.13-.44.493 0 .863.147 1.11.44.247.293.37.613.37.96 0 .36-.123.687-.37.98-.247.293-.617.44-1.11.44zm8.76 10.54l-.1-.72a2.734 2.734 0 01-1.02.69c-.413.167-.867.25-1.36.25-.413 0-.81-.07-1.19-.21-.38-.14-.717-.34-1.01-.6a2.96 2.96 0 01-.71-.96c-.18-.38-.27-.81-.27-1.29s.093-.903.28-1.27c.187-.367.44-.677.76-.93s.687-.46 1.1-.62c.413-.16.847-.28 1.3-.36.32-.067.67-.117 1.05-.15.38-.033.697-.063.95-.09v-.14c0-.533-.137-.913-.41-1.14-.273-.227-.65-.34-1.13-.34-.28 0-.547.033-.8.1s-.48.15-.68.25c-.2.1-.377.2-.53.3-.153.1-.277.19-.37.27l-.82-1.74c.107-.093.27-.207.49-.34.22-.133.487-.263.8-.39a6.653 6.653 0 011.06-.32c.393-.087.817-.13 1.27-.13a4.8 4.8 0 011.46.21c.44.14.82.36 1.14.66.32.3.57.68.75 1.14.18.46.27 1.017.27 1.67v6.2h-2.28zm-.2-4.5c-.267.013-.54.037-.82.07-.28.033-.547.077-.8.13-.533.107-.903.29-1.11.55-.207.26-.31.543-.31.85 0 .32.117.577.35.77.233.193.563.29.99.29.32 0 .63-.067.93-.2.3-.133.557-.3.77-.5v-1.96z" id="Sinpermanencia" fill="#FFF" fill-rule="nonzero"/></g></g></g></g></g></svg>