<svg xmlns="http://www.w3.org/2000/svg" width="37" height="37" viewBox="0 0 37 37">
    <path fill="#FFF" fill-rule="evenodd" d="M23.143 26.274l3.012-2.273c.794-.408 1.612-.506 2.11-.204.747.469 7.03 4.66 7.553 5.032.523.373.771 1.427.03 2.454-.74 1.026-4.146 5.083-5.57 5.03-1.426-.054-7.358-.235-18.425-11.36C.786 13.826.718 7.952.687 6.546c-.03-1.406 4.13-4.716 5.18-5.428 1.05-.713 2.11-.436 2.482.072.415.58 4.505 6.837 4.955 7.554.307.49.185 1.303-.234 2.082-.42.778-2.187 3.75-2.187 3.75s1.19 2.078 5.273 6.19c1.946 1.992 6.987 5.507 6.987 5.507z"/>
</svg>
