<svg width="385" height="246" viewBox="0 0 385 246" xmlns="http://www.w3.org/2000/svg"><g fill="none" fill-rule="evenodd"><path d="M210.548 220.607c-4.34-2.679-7.649-8.368-6.832-19.819m-49.076-5.713c1.272 17.8-10.392 23.587-18.495 25.531m95.725 5.255h45.504a5.257 5.257 0 010 10.511H78.277a5.257 5.257 0 010-10.511h46.165" stroke="#FFF"/><path d="M231.738 225.86a5.257 5.257 0 01-5.255 5.257h-96.787a5.256 5.256 0 010-10.51h96.787a5.256 5.256 0 015.255 5.253zm61.93-29.339c-1.127 8.852-9.218 15.108-18.066 13.981L81.983 185.807c-8.85-1.128-15.108-9.217-13.98-18.067L81.376 62.891c1.13-8.85 9.218-15.109 18.067-13.98l193.618 24.694c8.85 1.128 15.11 9.218 13.98 18.067l-13.373 104.85z" stroke="#FFF"/><path d="M293.06 73.605L99.445 48.911c-8.85-1.129-16.94 5.13-18.068 13.98l-13.373 104.85c-.028.224-.032.45-.051.675l225.597 28.773c.038-.224.09-.442.119-.668L307.04 91.672c1.129-8.849-5.13-16.939-13.98-18.067z" stroke="#FFF"/><path d="M120.256 126.02a4.571 4.571 0 01-5.595-7.23l36.772-28.454a4.568 4.568 0 016.411.82 4.571 4.571 0 01-.817 6.412l-36.77 28.451z" fill="#FFF"/><path d="M153.686 123.766a4.572 4.572 0 01-7.23 5.596L118.003 92.59a4.572 4.572 0 017.23-5.594l28.453 36.77zm73.676 15.914a4.57 4.57 0 01-6.411-.819 4.57 4.57 0 01.816-6.41l36.772-28.452a4.57 4.57 0 016.412.817 4.57 4.57 0 01-.818 6.412l-36.771 28.453z" fill="#FFF"/><path d="M260.791 137.428a4.57 4.57 0 01-.818 6.412 4.574 4.574 0 01-6.412-.817l-28.453-36.772a4.573 4.573 0 01.82-6.412 4.57 4.57 0 016.411.818l28.452 36.77zm-57.16 34.82a5.14 5.14 0 01-4.45-5.752c1.131-8.87-5.165-17.01-14.038-18.141-8.87-1.13-17.009 5.165-18.14 14.038a5.141 5.141 0 11-10.202-1.301c1.85-14.497 15.146-24.786 29.643-22.94 14.498 1.852 24.787 15.149 22.938 29.645a5.142 5.142 0 01-5.75 4.45" fill="#FFF"/><path d="M205.292 70.214a2.033 2.033 0 01-2.27 1.758l-14.946-1.906a2.034 2.034 0 01-1.758-2.272 2.033 2.033 0 012.272-1.757l14.943 1.906a2.032 2.032 0 011.76 2.27zM374.473 42.27a9.499 9.499 0 00-.557-.654c3.704-5.598 3.644-13.154-.693-18.758-4.415-5.707-11.902-7.635-18.33-5.26a9.574 9.574 0 10-16.485 9.349 9.532 9.532 0 006.099 3.598 16.068 16.068 0 003.22 12.04 16.04 16.04 0 009.612 5.942 9.517 9.517 0 001.99 5.46c3.239 4.181 9.25 4.95 13.43 1.714a9.571 9.571 0 001.714-13.43z" stroke="#FFF"/><path d="M378.068 38.215a3.512 3.512 0 104.298 5.556 3.512 3.512 0 00-4.298-5.556zM354.414 1.963a6.99 6.99 0 00-1.25 9.806 6.991 6.991 0 101.251-9.806zm-15.003 26.092a4.76 4.76 0 00-1.4 7.048c.4.517.884.929 1.42 1.232M354.33 52.86a5.206 5.206 0 008.727 4.038m-12.811-1.886a2.557 2.557 0 004.517.149m8.778-42.585a3.495 3.495 0 102.142-5.579m7.4 7.669a2.09 2.09 0 102.56 3.308 2.09 2.09 0 00-2.56-3.308zm8.192 29.715a1.514 1.514 0 101.921-1.525" stroke="#FFF"/><path stroke="#FFF" d="M344.451 30.537l-30.389 35.085 8.466-3.915-13.615 15.243 48.864-25.919m-56.037 6.024l7.86 5.003a1.336 1.336 0 01-1.434 2.254l-7.959-5.066m-2.253-1.434l-7.96-5.066a1.335 1.335 0 111.438-2.252l7.957 5.065"/><path d="M298.96 56.181l5.494-8.579a1.334 1.334 0 112.251 1.433l-5.643 8.515m-.426 1.054l-5.492 8.6a1.341 1.341 0 01-1.846.411 1.337 1.337 0 01-.408-1.845l5.46-8.598m56.14 25.05l5.73 7.407a1.342 1.342 0 01-2.123 1.644l-5.802-7.5m-1.642-2.123l-5.804-7.5a1.344 1.344 0 012.125-1.64l5.802 7.497" stroke="#FFF"/><path d="M352.158 80.45l8.115-6.244a1.342 1.342 0 111.642 2.122l-8.236 6.131m-.759.852l-8.123 6.264a1.342 1.342 0 11-1.643-2.123l8.09-6.272M327.15 99.571l-1.071 7.423a1.074 1.074 0 11-2.128-.307l1.085-7.515m.306-2.127l1.085-7.517a1.075 1.075 0 012.128.31l-1.085 7.515" stroke="#FFF"/><path d="M327.277 97.324l7.708 1.113a1.073 1.073 0 11-.308 2.126l-7.713-1.185m-1.746-.192l-7.697-1.099a1.078 1.078 0 01-.912-1.218 1.077 1.077 0 011.218-.91l7.713 1.11M7.865 213.803c.132.17.272.333.418.489-2.775 4.195-2.73 9.857.52 14.055 3.306 4.276 8.916 5.72 13.732 3.94a7.172 7.172 0 0011.069 3.058 7.173 7.173 0 00-3.287-12.758 12.034 12.034 0 00-2.412-9.02 12.01 12.01 0 00-7.202-4.452 7.174 7.174 0 10-12.838 4.688z" stroke="#FFF"/><path d="M5.172 216.84a2.63 2.63 0 10-3.222-4.161 2.63 2.63 0 00-.468 3.69 2.628 2.628 0 003.69.472zm17.723 27.163a5.238 5.238 0 10-6.412-8.284 5.238 5.238 0 006.412 8.284zm11.24-19.549a3.566 3.566 0 00-.014-6.204m-11.163-12.382a3.899 3.899 0 00-6.538-3.025m9.597 1.413a1.918 1.918 0 00-3.384-.112" stroke="#FFF"/><path d="M16.056 236.05a2.618 2.618 0 10-4.142 3.206 2.62 2.62 0 002.538.975m-5.546-5.746a1.566 1.566 0 10-2.196-.279 1.564 1.564 0 002.196.28zM2.769 212.22a1.137 1.137 0 00-1.829-.849 1.137 1.137 0 00.39 1.993m29.029 9.23l22.77-26.288-6.343 2.934 10.2-11.421-36.611 19.42m41.987-4.513l-5.89-3.75a1.001 1.001 0 011.075-1.688l5.962 3.794m1.688 1.075l5.965 3.796c.467.296.6.915.306 1.382a1.002 1.002 0 01-1.383.305l-5.962-3.795" stroke="#FFF"/><path d="M64.445 203.38l-4.117 6.428a1 1 0 11-1.687-1.074l4.229-6.38m.318-.79l4.115-6.444a1.005 1.005 0 011.384-.308c.465.297.603.916.306 1.383l-4.092 6.441m-42.063-18.768l-4.295-5.55a1.006 1.006 0 011.592-1.23l4.347 5.618m1.231 1.59l4.348 5.62a1.007 1.007 0 01-1.592 1.23l-4.348-5.62" stroke="#FFF"/><path d="M24.585 185.196l-6.08 4.678a1.004 1.004 0 01-1.412-.18c-.34-.438-.26-1.07.18-1.41l6.171-4.594m.571-.638l6.085-4.693a1.005 1.005 0 111.231 1.59l-6.061 4.7m18.052-13.78l.803-5.562a.805.805 0 111.593.23l-.812 5.631m-.229 1.594l-.813 5.633a.805.805 0 01-1.594-.233l.812-5.63" stroke="#FFF"/><path d="M43.227 172.553l-5.774-.834a.804.804 0 11.229-1.593l5.78.888m1.308.143l5.768.823a.806.806 0 01-.231 1.595l-5.778-.83" stroke="#FFF"/></g></svg>