<svg xmlns="http://www.w3.org/2000/svg" width="84" height="84" viewBox="0 0 84 84">
    <g fill="none" fill-rule="evenodd">
        <path fill="#FFF" fill-rule="nonzero" d="M46.462 7h-2.58C27.404 7 14 20.278 14 36.597v10.806C14 63.722 27.405 77 43.881 77h2.581C59.444 77 70 66.544 70 53.686V30.314C70 17.456 59.443 7 46.462 7zM61.25 55.125c0 3.481-1.383 6.82-3.844 9.28-2.462 2.462-5.8 3.845-9.281 3.845h-5.25c-7.249 0-13.125-5.876-13.125-13.125v-26.25c0-7.249 5.876-13.125 13.125-13.125h5.25c3.481 0 6.82 1.383 9.28 3.844 2.462 2.462 3.845 5.8 3.845 9.281v26.25z"/>
        <g fill="#000" fill-rule="nonzero" opacity=".06">
            <path d="M34.125 0h-5.25C21.626 0 15.75 5.876 15.75 13.125V14C15.75 6.751 21.626.875 28.875.875h5.25c3.481 0 6.82 1.383 9.28 3.844 2.462 2.462 3.845 5.8 3.845 9.281v-.875c0-3.481-1.383-6.82-3.844-9.28C40.944 1.382 37.606 0 34.125 0zM32.462 61.25h-2.58C13.404 61.25 0 47.972 0 31.653v.875c0 16.319 13.405 29.597 29.881 29.597h2.581C45.444 62.125 56 51.669 56 38.811v-.875C56 50.794 45.443 61.25 32.462 61.25z" transform="translate(14 14.875)"/>
        </g>
        <path d="M0 0H84V84H0z"/>
        <path fill="#E60000" fill-rule="nonzero" d="M21.875 44.625c-1.45 0-2.625-1.175-2.625-2.625s1.175-2.625 2.625-2.625S24.5 40.55 24.5 42s-1.175 2.625-2.625 2.625z"/>
        <path fill="#000" fill-rule="nonzero" d="M21.875 43.75c-1.28-.001-2.372-.925-2.586-2.188-.024.145-.037.291-.039.438 0 1.45 1.175 2.625 2.625 2.625S24.5 43.45 24.5 42c-.002-.147-.015-.293-.04-.438-.213 1.263-1.305 2.187-2.585 2.188z" opacity=".12"/>
        <path fill="#EBEBEB" fill-rule="nonzero" d="M29.72 28.04c0 .28.03.555.03.835v26.25c0 .28 0 .56-.03.836 1.032-.196 1.78-1.098 1.78-2.148V30.186c0-1.05-.748-1.952-1.78-2.148z"/>
        <path fill="#000" fill-rule="nonzero" d="M29.72 28.04c0 .28.03.555.03.835v26.25c0 .28 0 .56-.03.836 1.032-.196 1.78-1.098 1.78-2.148V30.186c0-1.05-.748-1.952-1.78-2.148zM17.5 22.715c-2.301 4.265-3.504 9.036-3.5 13.882v10.806c-.004 4.846 1.199 9.617 3.5 13.882v-38.57z" opacity=".06"/>
        <path fill="#4A4D4E" fill-rule="nonzero" d="M15.75 26.626c-1.16 3.197-1.752 6.57-1.75 9.97v10.807c-.002 3.4.59 6.774 1.75 9.97V26.627z"/>
        <path fill="#000" fill-rule="nonzero" d="M0.411 0.009L9.183 0.009 9.188 1.759 0.438 1.759" opacity=".06" transform="translate(60.813 41.125)"/>
        <path fill="#4A4D4E" fill-rule="nonzero" d="M61.25 42.875H70V43.875H61.25z"/>
    </g>
</svg>
