<svg width="72" height="50" viewBox="0 0 72 50" xmlns="http://www.w3.org/2000/svg"><defs><linearGradient x1="-219.631%" y1="-132.662%" x2="53.04%" y2="62.254%" id="linearGradient-1"><stop offset="0%"/><stop stop-opacity="0" offset="100%"/></linearGradient><linearGradient x1="47.576%" y1="41.378%" x2="61.485%" y2="62.195%" id="linearGradient-2"><stop offset="0%"/><stop stop-opacity="0" offset="100%"/></linearGradient><linearGradient x1="55.823%" y1="51.351%" x2="70.345%" y2="75.173%" id="linearGradient-3"><stop offset="0%"/><stop stop-opacity="0" offset="100%"/></linearGradient><linearGradient x1="-255.573%" y1="-279.455%" x2="59.79%" y2="55.261%" id="linearGradient-4"><stop offset="0%"/><stop stop-opacity="0" offset="100%"/></linearGradient><linearGradient x1="-260.967%" y1="-321.05%" x2="68.29%" y2="61.972%" id="linearGradient-5"><stop offset="0%"/><stop stop-opacity="0" offset="100%"/></linearGradient></defs><g id="Page-2" stroke="none" stroke-width="1" fill="none" fill-rule="evenodd"><g id="LP_Preventa-Samsung-Galaxy-Note-XX-+-Watch----Note---Desktop" transform="translate(-155 -1399)"><g id="Group-6" transform="translate(50 1359)"><g id="Group" transform="translate(76)"><g transform="translate(23 23)" id="game_console_hi_dark"><g id="11483316_49d3_445e_a61d_1e2ec868e03c"><path id="f4685a30_a042_4e75_9262_63010e7de14e" d="M0 0h84v84H0z"/><path id="Rectangle_path" d="M0 0h84v84H0z"/></g><path d="M42 55.19H26.154a2.774 2.774 0 00-2.595 1.838l-1.483 4.038a8.212 8.212 0 01-7.678 5.434A7.578 7.578 0 017 57.785l4.322-30.59a11.152 11.152 0 0110.99-9.695h39.42a11.152 11.152 0 0110.963 9.695L77 57.785a7.577 7.577 0 01-7.398 8.715 8.212 8.212 0 01-7.678-5.434l-1.483-4.038a2.774 2.774 0 00-2.595-1.837H42z" id="Shape" fill="#FFF" fill-rule="nonzero"/><g id="Group" opacity=".06" transform="translate(6.563 54.25)" fill="#000" fill-rule="nonzero"><path d="M70.438 3.54A7.547 7.547 0 0163 11.374a8.199 8.199 0 01-7.66-5.43l-1.484-4.042A2.765 2.765 0 0051.271.07H19.63a2.765 2.765 0 00-2.569 1.829L15.58 5.94a8.19 8.19 0 01-7.678 5.434 7.547 7.547 0 01-7.438-7.83 7.577 7.577 0 007.38 8.706 8.212 8.212 0 007.679-5.43l1.483-4.042A2.774 2.774 0 0119.6.945h31.697a2.774 2.774 0 012.59 1.833l1.483 4.043a8.216 8.216 0 007.678 5.429 7.569 7.569 0 007.39-8.71z" id="Shape"/></g><path id="Shape" fill="url(#linearGradient-1)" fill-rule="nonzero" d="M27.103 36.667l-1.374-1.098-7.2 2.598v.259l15.911 15.81h20.637L28.582 28.11z"/><path d="M34.125 34.484h-4.813V29.67a2.187 2.187 0 10-4.375 0v4.813h-4.812a2.187 2.187 0 100 4.375h4.813v4.812a2.187 2.187 0 104.375 0v-4.81h4.812a2.187 2.187 0 100-4.375z" id="Shape" fill="#4A4D4E" fill-rule="nonzero"/><path d="M27.125 45.093a2.187 2.187 0 01-2.188-2.187v1.019a2.187 2.187 0 104.375 0v-1.02a2.187 2.187 0 01-2.187 2.188zm-7-7a2.187 2.187 0 01-2.122-1.68 2.188 2.188 0 002.122 2.7h4.813v-1.02h-4.813zm14 0h-4.813v1.02h4.813a2.187 2.187 0 002.122-2.7 2.187 2.187 0 01-2.122 1.68z" id="Shape" fill="#333" fill-rule="nonzero"/><g id="Group" opacity=".1" transform="translate(49.438 30.188)" fill-rule="nonzero"><path d="M27.563 27.624l-.105-.726L9.213 9.03l-.46.35-4.61-4.541L.41 8.269v.258l25.375 25.209a7.713 7.713 0 001.776-6.112z" id="Shape" fill="url(#linearGradient-2)"/><path id="Shape" fill="url(#linearGradient-3)" d="M25.896 15.873L14.367 4.58l-.459.35L9.301.389 5.57 3.82v.258l21.71 21.565z"/></g><path d="M76.89 57.085L58.648 39.218l-.46.35-4.606-4.542-3.732 3.43v.258l25.375 25.21a7.713 7.713 0 001.772-6.126l-.105-.713z" id="Shape" fill="url(#linearGradient-4)" fill-rule="nonzero"/><path id="Shape" fill="url(#linearGradient-5)" fill-rule="nonzero" d="M75.333 46.06L63.805 34.768l-.46.35-4.606-4.541-3.732 3.43v.258l21.709 21.564z"/><path d="M56.875 29.75a2.625 2.625 0 100 5.25 2.625 2.625 0 000-5.25z" id="Shape" fill="#E60000" fill-rule="nonzero"/><g id="Group" opacity=".12" transform="translate(54.25 31.938)" fill="#000" fill-rule="nonzero"><path d="M2.625 2.188A2.625 2.625 0 01.039 0a2.625 2.625 0 105.21.438A2.905 2.905 0 005.212 0a2.625 2.625 0 01-2.586 2.188z" id="Shape"/></g><path d="M62.086 34.125a2.625 2.625 0 100 5.25 2.625 2.625 0 000-5.25z" id="Shape" fill="#E60000" fill-rule="nonzero"/><g id="Group" opacity=".12" transform="translate(59.063 36.313)" fill="#000" fill-rule="nonzero"><path d="M3.023 2.188A2.625 2.625 0 01.437 0a2.625 2.625 0 105.21.438A2.209 2.209 0 005.61 0a2.625 2.625 0 01-2.586 2.188z" id="Shape"/></g><path d="M51.625 34.125a2.625 2.625 0 100 5.25 2.625 2.625 0 000-5.25z" id="Shape" fill="#E60000" fill-rule="nonzero"/><g id="Group" opacity=".12" transform="translate(49 36.313)" fill="#000" fill-rule="nonzero"><path d="M2.625 2.188A2.625 2.625 0 01.039 0a2.625 2.625 0 105.21.438A2.905 2.905 0 005.212 0a2.625 2.625 0 01-2.586 2.188z" id="Shape"/></g><path d="M56.875 38.5a2.625 2.625 0 100 5.25 2.625 2.625 0 000-5.25z" id="Shape" fill="#E60000" fill-rule="nonzero"/><g id="Group" opacity=".12" transform="translate(54.25 40.688)" fill="#000" fill-rule="nonzero"><path d="M2.625 2.188A2.625 2.625 0 01.039 0a2.625 2.625 0 105.21.438A2.905 2.905 0 005.212 0a2.625 2.625 0 01-2.586 2.188z" id="Shape"/></g><path d="M38.5 22.75a1.75 1.75 0 100 3.5 1.75 1.75 0 000-3.5z" id="Shape" fill="#4A4D4E" fill-rule="nonzero"/><path d="M38.5 25.375a1.75 1.75 0 01-1.689-1.313 1.79 1.79 0 00-.061.438 1.75 1.75 0 003.5 0 1.79 1.79 0 00-.061-.438 1.75 1.75 0 01-1.689 1.313z" id="Shape" fill="#333" fill-rule="nonzero"/><path d="M45.5 22.75a1.75 1.75 0 100 3.5 1.75 1.75 0 000-3.5z" id="Shape" fill="#4A4D4E" fill-rule="nonzero"/><path d="M45.5 25.375a1.75 1.75 0 01-1.689-1.313 1.79 1.79 0 00-.061.438 1.75 1.75 0 003.5 0 1.79 1.79 0 00-.061-.438 1.75 1.75 0 01-1.689 1.313z" id="Shape" fill="#333" fill-rule="nonzero"/></g></g></g></g></g></svg>