<?xml version="1.0" encoding="UTF-8"?>
<svg width="121px" height="120px" viewBox="0 0 121 120" version="1.1" xmlns="http://www.w3.org/2000/svg" xmlns:xlink="http://www.w3.org/1999/xlink">
    <title>bestrog_icon</title>
    <g id="Secure-Net" stroke="none" stroke-width="1" fill="none" fill-rule="evenodd">
        <g id="SecureNet---Mobile---1" transform="translate(-208.000000, -4271.000000)">
            <g id="Group-3" transform="translate(0.000000, 2622.000000)">
                <g id="Group-2" transform="translate(3.000000, 505.000000)">
                    <g id="Card-Title-+-Vf-Product" transform="translate(0.000000, 1060.000000)">
                        <g id="Group-7" transform="translate(188.000000, 0.000000)">
                            <g id="carer_hi" transform="translate(5.000000, 72.000000)">
                                <g id="833b767b_a681_4ea6_8d21_993abc87868f">
                                    <path d="M38.8725,125.8425 L63.6225,125.8425 C66.9773628,125.964273 70.3252879,125.455469 73.4925,124.3425 C73.7475,124.245 73.995,124.1475 74.2425,124.035 C75.4875,123.5025 84.1575,119.01 98.1975,111.735 C108.8625,106.2075 120.96,99.9375 127.335,96.735 C131.554831,94.576775 133.276179,89.441802 131.209718,85.1762832 C129.143257,80.9107644 124.046711,79.078769 119.7375,81.0525 L118.2375,81.7575 C118.072249,81.4032812 117.88436,81.0600712 117.675,80.73 C115.327196,77.0454379 110.620255,75.6589717 106.65,77.4825 L100.155,80.4825 C98.111971,76.1439246 92.953914,74.2627903 88.5975,76.2675 L65.4075,86.9175 C63.8025,86.595 62.475,86.3175 61.5975,86.1675 C58.635,85.5375 55.23,84.5325 52.8975,83.7975 C46.3749791,81.7287901 39.3013829,82.2996322 33.195,85.3875 C26.0325,89.0925 20.88,95.655 17.865,104.8875" id="Shape" fill="#EBEBEB" fill-rule="nonzero"></path>
                                    <rect id="aa3f1b6b_f95a_429b_8220_62574db5c8cb" x="0" y="0" width="144" height="144"></rect>
                                    <path d="M91.4475,96.36 C91.2824596,97.680083 90.6774067,98.9060417 89.73,99.84 C88.6001896,100.944779 87.0801652,101.559257 85.5,101.55 L61.8675,101.25 C61.785,101.25 54.4575,100.9275 50.505,104.5275 L50.205,104.7975 L50.205,104.7975 C50.081911,104.902402 50.0107018,105.055776 50.01,105.2175 C50.01,105.536444 50.2685556,105.795 50.5875,105.795 C50.7619069,105.792663 50.9253621,105.70955 51.03,105.57 L51.03,105.57 C55.08,102.45 61.7775,102.735 61.86,102.7425 L85.47,103.0425 C87.0579381,103.057711 88.587145,102.442792 89.7225,101.3325 C90.8588805,100.215864 91.4969932,98.6881784 91.4925236,97.095 C91.4925236,96.8493233 91.4770961,96.6038878 91.4475,96.36 L91.4475,96.36 Z" id="Shape" fill="#000000" fill-rule="nonzero" opacity="0.06"></path>
                                    <path d="M132.15,87.885 C132.106803,88.4402367 132.011381,88.9901675 131.865,89.5275 C131.182082,91.9955306 129.491427,94.0618864 127.2075,95.22 C120.8625,98.4225 108.8475,104.6475 98.25,110.145 L98.0625,110.2425 C84.0225,117.5175 75.345,122.01 74.0625,122.55 C73.8075,122.66 73.5575,122.765 73.3125,122.865 C70.1004636,123.985522 66.7069159,124.494299 63.3075,124.365 L34.7475,124.365 L34.7475,125.865 L63.315,125.865 C66.7144159,125.994299 70.1079636,125.485522 73.32,124.365 C73.575,124.27 73.825,124.165 74.07,124.05 C75.33,123.51 84.0075,119.0175 98.07,111.7425 L98.2575,111.645 C108.855,106.1475 120.87,99.9225 127.215,96.72 C130.519655,95.0685258 132.479451,91.56528 132.1575,87.885 L132.15,87.885 Z" id="Shape" fill="#000000" fill-rule="nonzero" opacity="0.06"></path>
                                    <path d="M37.5,131.722501 C36.7041111,131.723126 35.9405913,131.407466 35.3775,130.845 L13.005,108.51 C11.8286336,107.337776 11.8252757,105.433867 12.9975001,104.2575 C14.1697244,103.081134 16.0736335,103.077776 17.25,104.25 L39.6225,126.6 C40.4814906,127.458035 40.7386202,128.749223 40.2738673,129.87087 C39.8091144,130.992518 38.71412,131.723455 37.5,131.722501 Z" id="Shape" fill="#E60000" fill-rule="nonzero"></path>
                                    <path d="M39.6225,129.345 C39.0597952,129.908331 38.2962277,130.22486 37.5,130.22486 C36.7037723,130.22486 35.9402048,129.908331 35.3775,129.345 L13.005,107.01 C12.6380409,106.626863 12.3792455,106.153267 12.255,105.6375 C11.9805027,106.660261 12.2655461,107.751978 13.005,108.51 L35.3775,130.845 C36.3355944,131.793162 37.8084447,131.985896 38.9782502,131.316186 C40.1480558,130.646477 40.7275629,129.278776 40.395,127.9725 C40.2610149,128.489304 39.9947823,128.962319 39.6225,129.345 L39.6225,129.345 Z" id="Shape" fill="#000000" fill-rule="nonzero" opacity="0.12"></path>
                                    <g id="Group" opacity="0.2" transform="translate(65.250000, 75.000000)" fill-rule="nonzero">
                                        <path d="M66.57,16.2975 C67.4653325,13.0259219 66.3828961,9.53197952 63.7948028,7.33957979 C61.2067095,5.14718006 57.5823447,4.65394404 54.5025,6.075 L53.0025,6.78 C52.8372492,6.42578124 52.6493604,6.08257115 52.44,5.7525 C50.092196,2.0679379 45.3852552,0.681471652 41.415,2.505 L34.92,5.505 C32.876971,1.16642462 27.718914,-0.714709726 23.3625,1.29 L0.1575,11.9175 L0.4575,12 L54.0825,25.86 C57.21,24.2475 59.9775,22.86 62.1,21.7575 C64.292529,20.6483358 65.9155466,18.665858 66.57,16.2975 Z" id="Shape"></path>
                                    </g>
                                    <path d="M117.525,80.565 L87.75,92.6925 L90.3075,93.3525 L118.215,81.75 C118.049749,81.3957812 117.86186,81.0525712 117.6525,80.7225 L117.525,80.565 Z" id="Shape" fill="#000000" fill-rule="nonzero" opacity="0.06"></path>
                                    <path d="M99.42,79.2675 L74.0475,89.1525 L76.605,89.8125 L100.1325,80.49 C99.9756146,80.1565758 99.7977583,79.8334283 99.6,79.5225 C99.5443025,79.4345431 99.4842269,79.3494361 99.42,79.2675 Z" id="Shape" fill="#000000" fill-rule="nonzero" opacity="0.06"></path>
                                </g>
                                <ellipse id="21df12f8_497b_4c7f_bab5_79176b96e3c9" fill="#E60000" fill-rule="nonzero" cx="74.6175" cy="27.2025" rx="15.15" ry="15.1725"></ellipse>
                                <path d="M74.6175,40.875 C66.5409529,40.8643254 59.8928275,34.5197373 59.505,26.4525 C59.505,26.7075 59.505,26.9475 59.505,27.2025 C59.505,35.569614 66.287886,42.3525 74.655,42.3525 C83.022114,42.3525 89.805,35.569614 89.805,27.2025 C89.805,26.9475 89.805,26.7075 89.805,26.4525 C89.4158242,34.5487489 82.7230437,40.9044115 74.6175,40.875 Z" id="Shape" fill="#000000" fill-rule="nonzero" opacity="0.12"></path>
                                <path d="M95.1975,70.44 C96.4773057,70.1720728 97.5917219,69.3920886 98.2816632,68.2813823 C98.9716045,67.1706759 99.1769645,65.8260102 98.85,64.56 C95.0325,49.4325 84.8625,42.375 74.7675,42.375 C64.6725,42.375 54.2625,49.425 50.4,64.545 C50.0681799,65.8120357 50.2702388,67.1597049 50.959054,68.2737147 C51.6478692,69.3877245 52.7632225,70.1706849 54.045,70.44 C60.8298726,71.8457545 67.7410303,72.5519491 74.67,72.5475209 C81.5664765,72.5470788 88.4448067,71.8409002 95.1975,70.44 L95.1975,70.44 Z" id="05a08457_b1a2_41c8_8868_19403405ecfd" fill="#E60000" fill-rule="nonzero"></path>
                                <path d="M95.1975,68.94 C88.4448067,70.3409002 81.5664765,71.0470788 74.67,71.0475 C67.7410303,71.0519491 60.8298726,70.3457545 54.045,68.94 C52.0994119,68.5372107 50.6061977,66.9723221 50.295,65.01 C49.8973691,67.5303159 51.5472093,69.9192846 54.045,70.44 C60.8298726,71.8457545 67.7410303,72.5519491 74.67,72.5475209 C81.5664765,72.5470788 88.4448067,71.8409002 95.1975,70.44 C97.6963758,69.915809 99.3455198,67.5245501 98.9475,65.0025 C98.6391525,66.967716 97.1453468,68.5362119 95.1975,68.94 L95.1975,68.94 Z" id="Shape" fill="#000000" fill-rule="nonzero" opacity="0.12"></path>
                            </g>
                        </g>
                    </g>
                </g>
            </g>
        </g>
    </g>
</svg>