<?xml version="1.0" encoding="UTF-8"?>
<svg width="32px" height="46px" viewBox="0 0 32 46" version="1.1" xmlns="http://www.w3.org/2000/svg" xmlns:xlink="http://www.w3.org/1999/xlink">
    <title>doc_icon</title>
    <defs>
        <linearGradient x1="22.1005532%" y1="-22.0358589%" x2="121.811503%" y2="77.9063042%" id="linearGradient-1">
            <stop stop-color="#000000" offset="0%"></stop>
            <stop stop-color="#000000" stop-opacity="0" offset="100%"></stop>
        </linearGradient>
    </defs>
    <g id="Secure-Net" stroke="none" stroke-width="1" fill="none" fill-rule="evenodd">
        <g id="SecureNet---Desktop" transform="translate(-1089.000000, -664.000000)">
            <g id="¿Por-qué-elegir-Vodafone?" transform="translate(29.000000, 552.000000)">
                <g id="4" transform="translate(105.000000, 70.000000)">
                    <g id="report-hi" transform="translate(944.042553, 38.000000)">
                        <path d="M11.25,12.375 L11.25,45 L11.25,45 C11.25,47.4852814 13.2647186,49.5 15.75,49.5 L38.25,49.5 C40.7352814,49.5 42.75,47.4852814 42.75,45 L42.75,45 L42.75,15.75 L36,15.75 C33.5147186,15.75 31.5,13.7352814 31.5,11.25 L31.5,4.5 L15.75,4.5 C13.2647186,4.5 11.25,6.51471863 11.25,9 L11.25,12.375" id="Path" fill="#EBEBEB" fill-rule="nonzero"></path>
                        <path d="M38.25,48.9375 L15.75,48.9375 C13.2647186,48.9375 11.25,46.9227814 11.25,44.4375 L11.25,45 C11.25,47.4852814 13.2647186,49.5 15.75,49.5 L38.25,49.5 C40.7352814,49.5 42.75,47.4852814 42.75,45 L42.75,44.4375 C42.75,46.9227814 40.7352814,48.9375 38.25,48.9375 Z" id="Path" fill="#000000" fill-rule="nonzero" opacity="0.06"></path>
                        <path d="M42.75,15.75 L36,15.75 C33.5147186,15.75 31.5,13.7352814 31.5,11.25 L31.5,4.5 L42.75,15.75 Z" id="Path" fill="#EBEBEB" fill-rule="nonzero"></path>
                        <path d="M36,15.1875 C33.5147186,15.1875 31.5,13.1727814 31.5,10.6875 L31.5,11.25 C31.5,13.7352814 33.5147186,15.75 36,15.75 L42.75,15.75 L42.1875,15.1875 L36,15.1875 Z" id="Path" fill="#000000" fill-rule="nonzero" opacity="0.06"></path>
                        <path d="M36,15.75 C35.8509375,15.75 35.7046875,15.75 35.5584375,15.7275 L35.3840625,15.7021875 C35.2996875,15.7021875 35.2153125,15.6796875 35.13375,15.6628125 C35.0521875,15.6459375 34.9846875,15.6290625 34.9115625,15.609375 L34.72875,15.5615625 C34.644375,15.53625 34.56,15.5053125 34.475625,15.4771875 L34.3434375,15.429375 C34.250625,15.3928125 34.160625,15.350625 34.0621875,15.3084375 L33.9721875,15.2634375 C33.87375,15.215625 33.7809375,15.1621875 33.6909375,15.1059375 L33.6346875,15.0721875 C33.5334375,15.0103125 33.4396875,14.9446875 33.3534375,14.8753125 L33.328125,14.855625 C33.226875,14.7796875 33.1284375,14.7009375 33.046875,14.619375 L33.046875,14.619375 L42.75,24.345 L42.75,15.75 L36,15.75 Z" id="Path" fill="url(#linearGradient-1)" fill-rule="nonzero" opacity="0.2"></path>
                        <rect id="Rectangle" x="0" y="0" width="54" height="54"></rect>
                        <rect id="Rectangle" fill="#4A4D4E" fill-rule="nonzero" x="18.0928125" y="30.65625" width="13.9696875" height="1.125" rx="0.5625"></rect>
                        <rect id="Rectangle" fill="#4A4D4E" fill-rule="nonzero" x="18.0928125" y="25.3125" width="18" height="1.125" rx="0.5625"></rect>
                        <rect id="Rectangle" fill="#4A4D4E" fill-rule="nonzero" x="18.0928125" y="35.71875" width="5.8275" height="1.125" rx="0.5625"></rect>
                        <path d="M38.2753125,30.5409375 L31.910625,36.905625 C31.8051179,37.0112496 31.661949,37.0705987 31.5126563,37.0705987 C31.3633635,37.0705987 31.2201946,37.0112496 31.1146875,36.905625 L28.726875,34.5178125 C28.6213679,34.4121879 28.478199,34.3528388 28.3289063,34.3528388 C28.1796135,34.3528388 28.0364446,34.4121879 27.9309375,34.5178125 L27.135,35.31375 C27.0293754,35.4192571 26.9700263,35.562426 26.9700263,35.7117187 C26.9700263,35.8610115 27.0293754,36.0041804 27.135,36.1096875 L29.919375,38.8940625 L31.111875,40.0865625 C31.2173821,40.1921871 31.360551,40.2515362 31.5098438,40.2515362 C31.6591365,40.2515362 31.8023054,40.1921871 31.9078125,40.0865625 L33.1003125,38.8940625 L39.8503125,32.1440625 C39.9559371,32.0385554 40.0152862,31.8953865 40.0152862,31.7460937 C40.0152862,31.596801 39.9559371,31.4536321 39.8503125,31.348125 L39.054375,30.5521875 C38.8397432,30.3400778 38.4959794,30.3351137 38.2753125,30.5409375 Z" id="Path" fill="#E60000" fill-rule="nonzero"></path>
                    </g>
                </g>
            </g>
        </g>
    </g>
</svg>