<?xml version="1.0" encoding="UTF-8"?>
<svg width="45px" height="57px" viewBox="0 0 45 57" version="1.1" xmlns="http://www.w3.org/2000/svg" xmlns:xlink="http://www.w3.org/1999/xlink">
    <title>Lock_icon</title>
    <defs>
        <linearGradient x1="36.1947638%" y1="5.95709616%" x2="98.254811%" y2="80.4707977%" id="linearGradient-1">
            <stop stop-color="#000000" offset="0%"></stop>
            <stop stop-color="#000000" stop-opacity="0" offset="100%"></stop>
        </linearGradient>
    </defs>
    <g id="Secure-Net" stroke="none" stroke-width="1" fill="none" fill-rule="evenodd">
        <g id="SecureNet---Desktop" transform="translate(-152.000000, -658.000000)">
            <g id="¿Por-qué-elegir-Vodafone?" transform="translate(29.000000, 552.000000)">
                <g id="1" transform="translate(0.000000, 72.000000)">
                    <g id="5g" transform="translate(78.714286, 0.000000)">
                        <g id="5g-hi-dark" transform="translate(30.821429, 29.000000)">
                            <g id="padlock_close_hi" transform="translate(2.464286, 0.000000)">
                                <rect id="bg" fill-opacity="0" fill="#D8D8D8" x="0" y="0" width="67" height="67"></rect>
                                <path d="M44.6701562,26.5208333 L41.8784896,26.5208333 L41.8784896,16.75 C41.8784896,12.1246152 38.1288744,8.375 33.5034896,8.375 C28.8781048,8.375 25.1284896,12.1246152 25.1284896,16.75 L25.1284896,26.5208333 L22.3368229,26.5208333 L22.3368229,16.75 C22.3368229,10.5828203 27.3363099,5.58333333 33.5034896,5.58333333 C39.6706693,5.58333333 44.6701562,10.5828203 44.6701562,16.75 L44.6701562,26.5208333 Z" id="Shape" fill="#E60000" fill-rule="nonzero"></path>
                                <g id="Group" opacity="0.12" transform="translate(25.125000, 7.677083)" fill="#000000" fill-rule="nonzero">
                                    <path d="M16.7534896,8.375 C16.7534896,3.74961522 13.0038744,-1.23974904e-15 8.37848958,-1.23974904e-15 C3.7531048,-1.23974904e-15 0.00348958333,3.74961522 0.00348958333,8.375 L0.00348958333,9.07291667 C0.00348958333,4.44753189 3.7531048,0.697916667 8.37848958,0.697916667 C13.0038744,0.697916667 16.7534896,4.44753189 16.7534896,9.07291667 L16.7534896,8.375 Z" id="Shape"></path>
                                </g>
                                <path d="M16.6906771,25.125 L50.25,25.125 C53.3335899,25.125 55.8333333,27.6247435 55.8333333,30.7083333 L55.8333333,55.8333333 C55.8333333,58.9169232 53.3335899,61.4166667 50.25,61.4166667 L16.6906771,61.4166667 C13.6070872,61.4166667 11.1073437,58.9169232 11.1073437,55.8333333 L11.1073437,30.7083333 C11.1073437,27.6247435 13.6070872,25.125 16.6906771,25.125 Z" id="Rectangle_path" fill="#EBEBEB" fill-rule="nonzero"></path>
                                <path d="M50.2534896,60.71875 L16.6906771,60.71875 C13.6070872,60.71875 11.1073437,58.2190065 11.1073437,55.1354167 L11.1073437,55.8333333 C11.1073437,58.9169232 13.6070872,61.4166667 16.6906771,61.4166667 L50.2534896,61.4166667 C53.3370794,61.4166667 55.8368229,58.9169232 55.8368229,55.8333333 L55.8368229,55.1354167 C55.8368229,58.2190065 53.3370794,60.71875 50.2534896,60.71875 Z" id="Shape" fill="#000000" fill-rule="nonzero" opacity="0.06"></path>
                                <path d="M33.5034896,37.4641667 C35.2440399,37.4652162 36.7073187,38.7709112 36.9058333,40.5001042 C36.9058333,40.3954167 36.9267708,40.2942187 36.9267708,40.1895313 C36.9267708,38.2989052 35.3941156,36.76625 33.5034896,36.76625 C31.6128636,36.76625 30.0802083,38.2989052 30.0802083,40.1895313 C30.0831442,40.2933993 30.0912969,40.3970543 30.1046354,40.5001042 C30.2999893,38.7706766 31.7630636,37.4638238 33.5034896,37.4641667 L33.5034896,37.4641667 Z" id="Shape" fill="#000000" fill-rule="nonzero"></path>
                                <path d="M33.5034896,36.76625 C35.1168258,36.7689856 36.5092744,37.8977922 36.8457073,39.4756623 C37.1821401,41.0535325 36.3712294,42.6521385 34.8993229,43.3127083 L34.8993229,51.6458333 C34.8993229,52.4167308 34.274387,53.0416667 33.5034896,53.0416667 C32.7325921,53.0416667 32.1076562,52.4167308 32.1076562,51.6458333 L32.1076562,43.3127083 C30.6357498,42.6521385 29.824839,41.0535325 30.1612719,39.4756623 C30.4977048,37.8977922 31.8901534,36.7689856 33.5034896,36.76625 L33.5034896,36.76625 Z M33.5034896,35.3704167 C31.4078046,35.3718719 29.5533014,36.727547 28.915975,38.7239719 C28.2786486,40.7203969 29.0046203,42.8998469 30.7118229,44.1153125 L30.7118229,51.6458333 C30.7118229,53.1876283 31.9616947,54.4375 33.5034896,54.4375 C35.0452845,54.4375 36.2951562,53.1876283 36.2951562,51.6458333 L36.2951562,44.1153125 C38.0023589,42.8998469 38.7283306,40.7203969 38.0910042,38.7239719 C37.4536778,36.727547 35.5991745,35.3718719 33.5034896,35.3704167 L33.5034896,35.3704167 Z" id="Shape" fill="#F4F4F4" fill-rule="nonzero"></path>
                                <path d="M36.9302604,40.1895312 C36.9228633,38.485363 35.663083,37.0461542 33.974891,36.8132335 C32.286699,36.5803128 30.6842666,37.6246207 30.2156804,39.2631173 C29.7470942,40.901614 30.555071,42.6352638 32.1111458,43.3301562 L32.1111458,51.6458333 C32.1111458,52.4167308 32.7360817,53.0416667 33.5069792,53.0416667 C34.2778766,53.0416667 34.9028125,52.4167308 34.9028125,51.6458333 L34.9028125,43.3127083 C36.1352284,42.7623671 36.9292338,41.5392436 36.9302604,40.1895312 Z" id="Shape" fill="#4A4D4E" fill-rule="nonzero"></path>
                                <g id="Group" opacity="0.12" transform="translate(28.614583, 35.244792)" fill="#000000" fill-rule="nonzero">
                                    <path d="M4.88890625,1.52145833 C6.50224247,1.52419391 7.89469107,2.65300052 8.23112393,4.23087065 C8.5675568,5.80874079 7.75664607,7.40734682 6.28473958,8.06791667 L6.28473958,16.4010417 C6.28473958,17.1719391 5.65980371,17.796875 4.88890625,17.796875 C4.11800879,17.796875 3.49307292,17.1719391 3.49307292,16.4010417 L3.49307292,8.06791667 C2.02116643,7.40734682 1.2102557,5.80874079 1.54668857,4.23087065 C1.88312143,2.65300052 3.27557003,1.52419391 4.88890625,1.52145833 L4.88890625,1.52145833 Z M4.88890625,0.125625 C2.7932213,0.12708023 0.938718025,1.48275529 0.301391624,3.47918025 C-0.335934778,5.4756052 0.39003695,7.6550552 2.09723958,8.87052083 L2.09723958,16.4010417 C2.09723958,17.9428366 3.34711132,19.1927083 4.88890625,19.1927083 C6.43070118,19.1927083 7.68057292,17.9428366 7.68057292,16.4010417 L7.68057292,8.87052083 C9.38777555,7.6550552 10.1137473,5.4756052 9.47642088,3.47918025 C8.83909447,1.48275529 6.9845912,0.12708023 4.88890625,0.125625 L4.88890625,0.125625 Z" id="Shape"></path>
                                </g>
                                <path d="M37.0140104,36.8953646 C37.9713913,37.904792 38.4442812,39.2796127 38.3104218,40.6643883 C38.1765623,42.0491639 37.4490945,43.307952 36.3160937,44.1153125 L36.3160937,51.6458333 C36.3160937,53.1876283 35.066222,54.4375 33.5244271,54.4375 C33.0741144,54.4389392 32.6304798,54.3286301 32.2332812,54.1164583 L39.7847396,61.4166667 L50.2534896,61.4166667 C53.3370794,61.4166667 55.8368229,58.9169232 55.8368229,55.8333333 L55.8368229,54.7864583 L37.0140104,36.8953646 Z" id="Shape" fill="url(#linearGradient-1)" fill-rule="nonzero" opacity="0.2"></path>
                            </g>
                        </g>
                    </g>
                </g>
            </g>
        </g>
    </g>
</svg>