<svg xmlns="http://www.w3.org/2000/svg" xmlns:xlink="http://www.w3.org/1999/xlink" width="95" height="96" viewBox="0 0 95 96"><defs><filter id="prefix__a" width="104.9%" height="109.3%" x="-2.4%" y="-3.9%" filterUnits="objectBoundingBox"><feOffset dy="2" in="SourceAlpha" result="shadowOffsetOuter1"/><feGaussianBlur in="shadowOffsetOuter1" result="shadowBlurOuter1" stdDeviation="4"/><feColorMatrix in="shadowBlurOuter1" values="0 0 0 0 0 0 0 0 0 0 0 0 0 0 0 0 0 0 0.16 0"/></filter><path id="prefix__b" d="M6 0h521a6 6 0 016 6v268a6 6 0 01-6 6H6a6 6 0 01-6-6V6a6 6 0 016-6z"/></defs><g fill="none" fill-rule="evenodd"><path fill="#F2F2F2" d="M-593-2338H687v4054H-593z"/><g fill-rule="nonzero" transform="translate(-219 -46)"><use fill="#000" filter="url(#prefix__a)" xlink:href="#prefix__b"/><use fill="#FFF" xlink:href="#prefix__b"/></g><path fill="#EBEBEB" fill-rule="nonzero" d="M70.925 36.525s.145-.745.185-1c.815-4.93-2.5-9.63-2.5-9.63a25.533 25.533 0 00-7.325-7.575 33.666 33.666 0 00-10.54-4.76 40.16 40.16 0 00-12.675-1.205 40.592 40.592 0 00-12.5 2.75 34.577 34.577 0 00-10 6 26.363 26.363 0 00-6.5 8.425A20.583 20.583 0 007 39.5a19.853 19.853 0 001.37 6.32 21.933 21.933 0 003.265 5.595 26.23 26.23 0 004.875 4.68c1.865 1.385 5.755 3.075 8 4.06-2.935 6.895-9.8 10.96-9.8 10.96 2.818.233 5.655.119 8.445-.34a33.225 33.225 0 005.805-1.5s2.32-.825 8.975-4.5l.855-.47"/><path d="M-1 0h96v96H-1z"/><path fill="#E60000" fill-rule="nonzero" d="M71.825 36.785l-1.175-.34a31.279 31.279 0 00-9.905-.945A31.586 31.586 0 0051 37.66a26.98 26.98 0 00-7.81 4.725A20.676 20.676 0 0038.09 49a16.204 16.204 0 00-1.59 7.8c.14 2.681.956 5.283 2.37 7.565a19.997 19.997 0 005.725 5.945 26.234 26.234 0 008.235 3.735 31.222 31.222 0 009.9.955l.325-.025a27.862 27.862 0 003.525 2.045 26.801 26.801 0 004.64 1.745c1.848.504 3.746.8 5.66.88 2.21.091 4.42-.092 6.585-.545 0 0-6.915-4-7.105-8.155a25.413 25.413 0 004.545-3.39 21.242 21.242 0 003.42-4.12 17.702 17.702 0 002.095-4.675 15.79 15.79 0 00-1.8-12.625 19.061 19.061 0 00-3.5-4.17 32.68 32.68 0 00-9.3-5.165"/><g style="mix-blend-mode:multiply" fill="#000" fill-rule="nonzero"><path d="M38.395 63.55l-.42.23c-6.65 3.66-8.975 4.5-8.975 4.5a33.225 33.225 0 01-5.805 1.5c-2.34.385-4.715.526-7.085.42-.83.605-1.365.92-1.365.92 2.818.233 5.655.119 8.445-.34a33.225 33.225 0 005.805-1.5s2.32-.825 8.975-4.5l.855-.47c-.147-.25-.29-.503-.43-.76zM24.17 60c.135-.275.26-.55.385-.835-2.265-1-6.155-2.675-8-4.06a26.23 26.23 0 01-4.875-4.68 21.904 21.904 0 01-3.265-5.595A19.881 19.881 0 017 38.5v-.575V39.5a19.853 19.853 0 001.37 6.32 21.933 21.933 0 003.265 5.595 26.23 26.23 0 004.875 4.68C18.295 57.41 21.87 59 24.17 60z" opacity=".06"/><path d="M76.88 78.63a25.568 25.568 0 01-5.66-.88 26.72 26.72 0 01-4.64-1.745 27.862 27.862 0 01-3.525-2.045l-.325.025a31.22 31.22 0 01-9.905-.945 26.244 26.244 0 01-8.235-3.735 20.242 20.242 0 01-5.345-5.355c-.13-.195-.26-.39-.38-.585l-.03-.055a15.933 15.933 0 01-2.34-7.5v-.295 1.295a15.832 15.832 0 001.905 6.745c.137.257.282.51.435.76l.03.055a19.997 19.997 0 005.725 5.945 26.234 26.234 0 008.235 3.735 31.224 31.224 0 009.905.95l.325-.025a27.862 27.862 0 003.525 2.045 26.801 26.801 0 004.64 1.745c1.848.504 3.746.8 5.66.88 2.21.091 4.42-.092 6.585-.545 0 0-.5-.285-1.21-.78a26.42 26.42 0 01-5.375.31zm9.535-20.88a17.702 17.702 0 01-2.095 4.675 21.242 21.242 0 01-3.42 4.12 25.413 25.413 0 01-4.545 3.39c.017.306.067.61.15.905a25.307 25.307 0 004.395-3.295 21.242 21.242 0 003.42-4.12 17.702 17.702 0 002.095-4.675c.421-1.515.615-3.083.575-4.655a15.924 15.924 0 01-.575 3.655z" opacity=".12"/></g></g></svg>