<svg width="48" height="48" viewBox="0 0 48 48" xmlns="http://www.w3.org/2000/svg" xmlns:xlink="http://www.w3.org/1999/xlink"><defs><filter x="-3.4%" y="-3.3%" width="106.8%" height="107.7%" filterUnits="objectBoundingBox" id="filter-2"><feOffset dy="2" in="SourceAlpha" result="shadowOffsetOuter1"/><feGaussianBlur stdDeviation="4" in="shadowOffsetOuter1" result="shadowBlurOuter1"/><feColorMatrix values="0 0 0 0 0 0 0 0 0 0 0 0 0 0 0 0 0 0 0.16 0" in="shadowBlurOuter1"/></filter><path d="M6 0h368a6 6 0 016 6v326a6 6 0 01-6 6H6a6 6 0 01-6-6V6a6 6 0 016-6z" id="path-1"/></defs><g id="Landing-Por-Ser-Tu" stroke="none" stroke-width="1" fill="none" fill-rule="evenodd"><g id="Landing-PorSerTu---Desktop-WS2" transform="translate(-66 -1475)"><path fill="#F2F2F2" d="M0 0h1280v4054H0z"/><g id="Group" transform="translate(50 1152)"><g id="Background" transform="translate(0 104)"><g id="Group" fill-rule="nonzero"><g id="Card-bg"><use fill="#000" filter="url(#filter-2)" xlink:href="#path-1"/><use fill="#FFF" xlink:href="#path-1"/></g></g><g id="location-hi" transform="translate(16 219)"><path id="Rectangle" d="M0 0h48v48H0z"/><rect id="Rectangle" fill="#EBEBEB" x="6" y="6" width="36" height="36" rx="1.5"/><path d="M38 41.5H10a4 4 0 01-4-4v.5a4 4 0 004 4h28a4 4 0 004-4v-.5a4 4 0 01-4 4z" id="Path" fill="#000" opacity=".06"/><path d="M42 11.08V9.947l-6.915-3.664L35.25 6h-3.375l-4.125 7.713-8-4.16 2.015-3.803-.64.178-1.767 3.322L13.25 6h-2.875l-3.728 6.953L6 12.607v3.7l.125-.25 7.5 3.982-3.875 7.332-3.75-2v1.133l3.285 1.75L6 34.455v2.813l7.23 3.832-.48.9H17l-.652-.377 3.982-7.5 7.5 3.982L25.75 42H28l1.6-2.962L35.132 42h2.136l-7.193-3.852 3.883-7.32 7.5 3.982L37.693 42H38c.295 0 .59-.034.877-.1L42 35.938v-4.25l-7.08-3.75 3.847-7.25L42 22.398v-1.13l-2.763-1.466L42 14.59v-2.135l-3.648 6.877-7.95-4.215 4.215-7.952L42 11.08zm-14.718 3.515l-3.847 7.25-7.5-3.982 3.847-7.25 7.5 3.982zM7.532 13.42l3.848-7.25 7.5 3.982-3.847 7.25-7.5-3.982zm7 7.1l7.498 3.98-3.883 7.323-7.5-3.983 3.886-7.32zm-.822 19.695l-7.5-3.983 3.983-7.5 7.5 3.983-3.983 7.5zm14.61-3l-7.5-3.983 3.883-7.32 7.5 3.983-3.883 7.32zm9.578-17l-3.848 7.25-7.965-4.215L29.933 16l7.965 4.215z" id="Shape" fill="#000" fill-rule="nonzero" opacity=".06"/><circle id="Oval" fill="#4A4D4E" cx="23.965" cy="23.927" r="2.5"/><path d="M24 3.08c-4.207 0-7.27 3.372-7.27 7.533C16.73 16.415 24 24.33 24 24.33s1.615-1.867 2.135-2.5c2.16-2.66 5.132-7.205 5.135-11.087.003-4.166-3.065-7.663-7.27-7.663zm0 11.185a3.915 3.915 0 113.915-3.915A3.915 3.915 0 0124 14.262v.003z" id="Shape" fill="#E60100" fill-rule="nonzero"/><g id="Group" opacity=".12" transform="translate(16.5 5.75)" fill="#000"><path d="M7.5.685a3.91 3.91 0 013.902 3.665c0-.082.013-.165.013-.25a3.915 3.915 0 10-7.83 0c0 .085 0 .168.013.25A3.912 3.912 0 017.5.685zm2.135 14.89c-.518.64-2.135 2.5-2.135 2.5S.39 10.325.237 4.545v.313C.23 10.665 7.5 18.58 7.5 18.58s1.615-1.867 2.135-2.5c2.16-2.66 5.133-7.205 5.135-11.087v-.25c-.127 3.81-3.02 8.224-5.135 10.832z" id="Path"/></g></g></g></g></g></g></svg>