<svg xmlns="http://www.w3.org/2000/svg" width="64" height="64" viewBox="0 0 64 64"><g fill="none" fill-rule="evenodd"><path d="M0 0h64v64H0z"/><path stroke="#E60000" stroke-linecap="round" stroke-linejoin="round" d="M39.3 50.5l.017-20.5 6.77 5.39"/><ellipse cx="34.528" cy="51.316" stroke="#E60000" stroke-linecap="round" stroke-linejoin="round" rx="4.873" ry="3.837" transform="rotate(-22.82 34.528 51.316)"/><path stroke="#666" stroke-linecap="round" stroke-linejoin="round" d="M35.353 43.333H15.93a1.91 1.91 0 01-1.93-1.9V20.667h36v20.766a1.91 1.91 0 01-1.93 1.89H43.3M14.053 25.99H50M47.133 10l-31.966 5.187A2.023 2.023 0 0013.5 17.52l.5 3.147 35.96-5.84-.51-3.16A2.02 2.02 0 0047.133 10zM18.68 25.943l5.307-5.29m5.446 5.29l5.304-5.29m5.276 5.29l5.307-5.29m-27.547-5.89l6.07 4.297m4.547-6.017l6.073 4.3m4.377-5.99l6.073 4.297"/></g></svg>