<svg width="33" height="29" viewBox="0 0 33 29" xmlns="http://www.w3.org/2000/svg"><g fill="none" fill-rule="evenodd"><path d="M-3-5h39v39H-3z"/><g transform="translate(1.063 .688)" stroke="#FFF" stroke-linecap="round" stroke-linejoin="round"><path d="M28.151 19.975a2.724 2.724 0 012.724 2.724v1.816a2.724 2.724 0 01-2.724 2.724"/><path d="M12.714 19.975h-9.99A2.724 2.724 0 000 22.699v1.816a2.724 2.724 0 002.724 2.724H28.15a2.724 2.724 0 002.724-2.724v-1.816M14.55 3.012c-4.016-4.016-10.528-4.016-14.544 0m11.67 2.411a6.246 6.246 0 00-8.834 0"/><circle cx="7.25" cy="8.131" r="1"/><path d="M7.264 8.169v11.806m11.805 0h2.724M16.8 23.607a1.328 1.328 0 01-1.363-1.29V8.551a1.326 1.326 0 011.363-1.29h7.264a1.328 1.328 0 011.363 1.29v13.766a1.33 1.33 0 01-1.363 1.29H16.8z"/></g></g></svg>