<svg width="20" height="33" viewBox="0 0 20 33" xmlns="http://www.w3.org/2000/svg"><g fill="none" fill-rule="evenodd"><path d="M-8.554-2.5h38v38h-38z"/><path d="M.946 29.167V3.833A3.167 3.167 0 014.112.667h9.5a.79.79 0 01.56.232l5.542 5.541c.148.149.232.35.232.56v22.167a3.167 3.167 0 01-3.167 3.166H4.112a3.167 3.167 0 01-3.166-3.166zM13.285 2.25H4.112c-.874 0-1.583.709-1.583 1.583v25.334c0 .874.709 1.583 1.583 1.583H16.78c.875 0 1.583-.709 1.583-1.583V7.327L13.285 2.25zM8.07 13.333h4.75a2.375 2.375 0 012.375 2.375v9.5a2.375 2.375 0 01-2.375 2.375H8.07a2.375 2.375 0 01-2.375-2.375v-9.5a2.375 2.375 0 012.375-2.375zm0 1.584a.792.792 0 00-.792.791v9.5c0 .438.355.792.792.792h4.75a.792.792 0 00.791-.792v-9.5a.792.792 0 00-.791-.791H8.07z" fill="#FFF"/></g></svg>