<svg xmlns="http://www.w3.org/2000/svg" width="33" height="16" viewBox="0 0 33 16"><g fill="none" fill-rule="evenodd"><path fill="#E60000" d="M7.876 13.713l4.047-6.129a.411.411 0 000-.478.547.547 0 00-.46-.24H8.746l.871-4.309a.442.442 0 00-.358-.527.508.508 0 00-.615.24L5.059 9.069c-.102.143-.051.335 0 .478.103.144.256.24.41.24h2.305l-.922 3.59a.481.481 0 00.307.575c.052.048.154.048.205.048.256-.048.461-.144.512-.287z"/><path fill="#EBEBEB" d="M15.876 13.713l4.047-6.129a.411.411 0 000-.478.547.547 0 00-.46-.24h-2.716l.871-4.309a.442.442 0 00-.358-.527.508.508 0 00-.615.24l-3.586 6.799c-.102.143-.051.335 0 .478.103.144.256.24.41.24h2.305l-.922 3.59a.481.481 0 00.307.575c.052.048.154.048.205.048.256-.048.461-.144.512-.287zm8 0l4.047-6.129a.411.411 0 000-.478.547.547 0 00-.46-.24h-2.716l.871-4.309a.442.442 0 00-.358-.527.508.508 0 00-.615.24l-3.586 6.799c-.102.143-.051.335 0 .478.103.144.256.24.41.24h2.305l-.922 3.59a.481.481 0 00.307.575c.052.048.154.048.205.048.256-.048.461-.144.512-.287z"/></g></svg>