<svg xmlns="http://www.w3.org/2000/svg" width="80" height="32" viewBox="0 0 80 32"><g fill="none" fill-rule="evenodd"><path d="M-8-32h96v96H-8z"/><g fill-rule="nonzero"><path fill="#E60000" d="M15.535 24.97H7.88C4.955 24.97 0 23.195 0 16.55c0-6.5 5.15-9.325 7.775-9.325H14.6a1.161 1.161 0 011.068 1.759c-.225.37-.636.584-1.068.556H7.775c-1.205 0-5.46 1.68-5.46 7 0 5.81 4.635 6.105 5.565 6.105h7.655a1.16 1.16 0 010 2.315v.01zm48.93 0h7.655c2.925 0 7.88-1.775 7.88-8.42 0-6.5-5.15-9.325-7.775-9.325H65.4a1.161 1.161 0 00-1.068 1.759c.225.37.636.584 1.068.556h6.825c1.205 0 5.46 1.68 5.46 7 0 5.81-4.635 6.105-5.565 6.105h-7.655a1.16 1.16 0 000 2.315v.01z"/><path fill="#EBEBEB" d="M67.435 9.135C67.25 4.605 65.6 3.41 60.29 2.5 54.98 1.59 45.46 0 40 0c-5.46 0-15 1.56-20.29 2.5-5.29.94-6.96 2.105-7.145 6.635-.185 4.53.185 13.685 0 16.43-.185 2.745 3.5 4 10.255 4.75C29.575 31.065 35.935 32 40 32c4.065 0 10.405-.915 17.18-1.66 6.775-.745 10.435-2 10.255-4.75-.18-2.75.18-11.925 0-16.455z"/><path d="M12.5 12.085c0 3.375.095 7.595.105 10.57.025-2.76-.08-7.015-.105-10.57zM57.18 29.5c-6.775.75-13.115 1.665-17.18 1.665-4.065 0-10.405-.92-17.18-1.665-6.325-.695-9.935-1.835-10.235-4.22v.29c-.18 2.75 3.5 4 10.255 4.75C29.595 31.07 35.935 32 40 32c4.065 0 10.405-.915 17.18-1.66 6.775-.745 10.435-2 10.255-4.75v-.29c-.32 2.36-3.935 3.5-10.255 4.2zm10.2-6.845c0-3 .115-7.195.105-10.57.015 3.555-.115 7.81-.105 10.57z" fill="#000" opacity=".06"/><path fill="#000" d="M63.55 9.54c-.07.007-.14.007-.21 0-.12 0-12.275-2.245-15.275-2.445-1.35-.09-2.5-.235-3.58-.38a31.527 31.527 0 00-4.35-.365c-1.467.02-2.93.142-4.38.365-1.1.145-2.23.29-3.58.38C29.175 7.275 17 9.5 16.9 9.5a1.156 1.156 0 11-.4-2.255c.5-.095 12.41-2.27 15.545-2.5a51.48 51.48 0 003.43-.365 33.381 33.381 0 014.65-.385 33.34 33.34 0 014.68.385c1.06.14 2.16.28 3.43.365 3.135.21 15.04 2.385 15.545 2.5a1.155 1.155 0 01-.21 2.295h-.02zm-.265 4.9h-.035c-.2 0-20.185-.535-23.385-.535-3.2 0-23.185.53-23.365.535a1.17 1.17 0 01-1.185-1.125 1.155 1.155 0 011.125-1.19c.825 0 20.22-.535 23.445-.535 3.225 0 22.625.5 23.45.535a1.16 1.16 0 01-.03 2.315h-.02zM40 21.875c-1.88 0-5.8-.25-9.595-.5-2.795-.18-5.44-.35-7.095-.41-3.95-.14-7.43-.645-7.575-.665a1.157 1.157 0 01.335-2.29c.035 0 3.5.5 7.32.645 1.69.06 4.35.23 7.165.41 3.755.24 7.64.5 9.445.5 1.805 0 5.69-.25 9.445-.5 2.815-.18 5.5-.35 7.165-.41 3.815-.135 7.285-.64 7.32-.645a1.158 1.158 0 01.335 2.29c-.145 0-3.625.5-7.575.665-1.655.06-4.3.23-7.095.41-3.795.25-7.715.5-9.595.5zm0 6.51c-2.385 0-9-.5-12.5-.885s-11.045-1.59-11.365-1.645a1.156 1.156 0 01.375-2.28c.075 0 7.76 1.265 11.225 1.62 3.375.35 10 .875 12.27.875 2.27 0 8.895-.5 12.27-.875 3.465-.355 11.15-1.61 11.225-1.62a1.156 1.156 0 01.375 2.28c-.32.055-7.83 1.28-11.365 1.645s-10.125.885-12.51.885z" opacity=".06"/></g></g></svg>