<svg xmlns="http://www.w3.org/2000/svg" xmlns:xlink="http://www.w3.org/1999/xlink" width="80" height="81" viewBox="0 0 80 81"><defs><filter id="zdfjjoob8a" width="104.5%" height="119.4%" x="-2.2%" y="-8.2%" filterUnits="objectBoundingBox"><feOffset dy="2" in="SourceAlpha" result="shadowOffsetOuter1"/><feGaussianBlur in="shadowOffsetOuter1" result="shadowBlurOuter1" stdDeviation="4"/><feColorMatrix in="shadowBlurOuter1" values="0 0 0 0 0 0 0 0 0 0 0 0 0 0 0 0 0 0 0.16 0"/></filter><rect id="6sruiyyyyb" width="580" height="134" x="0" y="0" rx="6"/></defs><g fill="none" fill-rule="evenodd"><path fill="#F2F2F2" d="M-670-190H610v460H-670z"/><g transform="translate(-20 -27)"><use fill="#000" filter="url(#zdfjjoob8a)" xlink:href="#6sruiyyyyb"/><use fill="#FFF" xlink:href="#6sruiyyyyb"/></g><path fill="#D8D8D8" fill-opacity="0" d="M0 0h80v80H0z"/><path fill="#666" fill-rule="nonzero" d="M53.358 50.304c-.92 0-1.666-.746-1.666-1.666V25.825a1.667 1.667 0 113.333 0v22.813c0 .92-.746 1.666-1.667 1.666z"/><path fill="#EBEBEB" fill-rule="nonzero" d="M13.546 48.325h52.917a5.317 5.317 0 015.204 5.417v10.833a5.318 5.318 0 01-5.209 5.417H13.542a5.318 5.318 0 01-5.209-5.417V53.742a5.318 5.318 0 015.213-5.417z"/><path d="M66.447 69.158H13.528a5.313 5.313 0 01-5.194-5.417v.834a5.312 5.312 0 005.208 5.417h52.917a5.313 5.313 0 005.208-5.417v-.834a5.313 5.313 0 01-5.221 5.417z" fill="#000" fill-rule="nonzero" opacity=".06"/><path fill="#E60000" fill-rule="nonzero" d="M66.667 18.046a.831.831 0 01-.596-.246c-7.047-7.029-18.453-7.029-25.5 0a.844.844 0 11-1.192-1.196c7.705-7.688 20.179-7.688 27.884 0a.835.835 0 010 1.192.835.835 0 01-.596.25z"/><path fill="#E60000" fill-rule="nonzero" d="M61.475 22.492a.839.839 0 01-.38-.092.815.815 0 01-.22-.158c-4.148-4.128-10.852-4.128-15 0a.835.835 0 01-1.192 0 .837.837 0 010-1.196c4.808-4.79 12.584-4.79 17.392 0l.03.029.04.05a.833.833 0 01-.67 1.367z"/><circle cx="15.838" cy="59.167" r="2.5" fill="#000" fill-rule="nonzero" opacity=".06"/><circle cx="20.837" cy="59.167" r="1" fill="#D62B11" fill-rule="nonzero"/><circle cx="15.838" cy="59.167" r="1" fill="#D62B11" fill-rule="nonzero"/></g></svg>