<?xml version="1.0" encoding="UTF-8"?>
<svg width="112px" height="20px" viewBox="0 0 112 20" version="1.1" xmlns="http://www.w3.org/2000/svg" xmlns:xlink="http://www.w3.org/1999/xlink">
    <!-- Generator: Sketch 61.2 (89653) - https://sketch.com -->
    <title>Logo_Desktop</title>
    <desc>Created with Sketch.</desc>
    <g id="HB_iPhone-Lanzamiento" stroke="none" stroke-width="1" fill="none" fill-rule="evenodd">
        <g id="HB---Home----lanzamiento-iPhone-SE---Desktop" transform="translate(-516.000000, -49.000000)" fill="#F5F5F7">
            <g id="textos" transform="translate(516.000000, 49.000000)">
                <g id="Logo_Desktop">
                    <path d="M19.455,2.612 C19.456656,1.81323659 20.1052315,1.16689792 20.9039959,1.16799997 C21.7027602,1.16910484 22.3495474,1.81723299 22.3489969,2.61599793 C22.3484457,3.41476287 21.7007651,4.062 20.902,4.062 C20.103951,4.05653165 19.4588155,3.41005861 19.455,2.612 L19.455,2.612 Z M19.661,5.857 L22.161,5.857 L22.161,18.127 L19.661,18.127 L19.661,5.86 L19.661,5.857 Z M31.327,1.3 C32.812048,1.22742692 34.2584857,1.78649676 35.3086826,2.83898001 C36.3588795,3.89146326 36.9148024,5.3391133 36.839,6.824 C36.9023874,8.32302553 36.3309219,9.77932298 35.2649713,10.8351851 C34.1990207,11.8910472 32.737355,12.4486389 31.239,12.371 L27.633,12.371 L27.633,18.125 L25.038,18.125 L25.038,1.302 L31.33,1.302 L31.327,1.3 Z M27.653,10.184 L30.639,10.184 C32.912,10.184 34.198,8.964 34.198,6.847 C34.198,4.73 32.912,3.512 30.661,3.512 L27.653,3.512 L27.653,10.187 L27.653,10.184 Z M38.63,1.3 L41.11,1.3 L41.11,7.912 L41.179,7.912 C41.8892852,6.43692937 43.426758,5.54360263 45.06,5.657 C47.747,5.657 49.36,7.457 49.36,10.214 L49.36,18.109 L46.833,18.109 L46.833,10.712 C46.833,8.912 45.933,7.812 44.169,7.812 C43.3240109,7.78159478 42.5073543,8.11908502 41.9303476,8.73714202 C41.3533409,9.35519902 41.0726842,10.1930889 41.161,11.034 L41.161,18.123 L38.661,18.123 L38.63,1.302 L38.63,1.302 L38.63,1.3 Z M51.1,12 C51.1,8.064 53.419,5.648 56.91,5.648 C60.401,5.648 62.72,8.065 62.72,12 C62.72,15.959 60.42,18.352 56.91,18.352 C53.4,18.352 51.1,15.941 51.1,12.005 L51.1,12 Z M60.148,12 C60.148,9.284 58.862,7.719 56.91,7.719 C54.935,7.719 53.672,9.284 53.672,12 C53.672,14.716 54.958,16.2810119 56.91,16.2810119 C58.885,16.286 60.148,14.721 60.148,12.005 L60.148,12 Z M64.557,5.855 L66.945,5.855 L66.945,7.912 L67.012,7.912 C67.7144232,6.44079179 69.2434168,5.54709546 70.87,5.657 C73.557,5.657 75.119,7.383 75.119,10.191 L75.119,18.132 L72.592,18.132 L72.592,10.67 C72.592,8.829 71.743,7.816 69.992,7.816 C69.1707966,7.79751987 68.3811357,8.13228146 67.823417,8.73532907 C67.2656984,9.33837669 66.9935363,10.1517386 67.076,10.969 L67.076,18.104 L64.576,18.104 L64.553,5.86 L64.553,5.86 L64.557,5.855 Z M87.912,14.512 C87.567,16.745 85.454,18.356 82.653,18.356 C79.07,18.356 76.889,15.916 76.889,12.05 C76.889,8.206 79.089,5.65 82.561,5.65 C85.961,5.65 88.073,8.044 88.073,11.772 L88.073,12.624 L79.438,12.624 L79.438,12.785 C79.3416471,13.7055263 79.6471929,14.6228588 80.2762822,15.3017543 C80.9053716,15.9806498 81.796812,16.3550709 82.722,16.329 C83.9605221,16.430368 85.1149848,15.6945206 85.546,14.529 L87.912,14.512 L87.912,14.512 Z M79.412,10.853 L85.543,10.853 C85.5949188,10.0228186 85.3012099,9.2081254 84.7314995,8.60205047 C84.1617891,7.99597555 83.3668032,7.65248276 82.535,7.65299942 C80.798584,7.69744006 79.4135993,9.11701612 79.412,10.854 L79.412,10.853 Z M97.163,11.658 C97.3492754,12.3315899 98.0118039,12.7577778 98.702,12.648 C99.0101366,12.7075314 99.3292809,12.6412119 99.5881894,12.4638464 C99.847098,12.2864809 100.024214,12.0128367 100.08,11.704 C100.08,11.221 99.735,10.944 98.817,10.76 L98.059,10.599 C96.612,10.299 95.877,9.609 95.877,8.528 C95.877,7.193 97.048,6.295 98.656,6.295 C100.356,6.295 101.435,7.195 101.456,8.528 L100.012,8.528 C99.9640028,8.21683738 99.7941504,7.93756675 99.539932,7.75182787 C99.2857137,7.56608899 98.9680303,7.48915265 98.657,7.538 C98.3686696,7.47727422 98.0680839,7.54001486 97.8281202,7.71101036 C97.5881565,7.88200586 97.4307268,8.14564204 97.394,8.438 C97.394,8.898 97.739,9.175 98.611,9.338 L99.392,9.499 C100.93,9.799 101.592,10.443 101.592,11.547 C101.592,12.974 100.467,13.872 98.653,13.872 C96.908,13.872 95.76,13.043 95.714,11.663 L97.16,11.663 L97.163,11.658 Z M107.497,13.729 L102.652,13.729 L102.652,6.412 L107.497,6.412 L107.497,7.678 L104.191,7.678 L104.191,9.45 L107.314,9.45 L107.314,10.624 L104.191,10.624 L104.191,12.465 L107.497,12.465 L107.497,13.731 L107.497,13.729 Z M104.997,2.129 L106.123,2.129 C106.469409,2.12832911 106.815162,2.15912227 107.156,2.221 C107.465851,2.28263209 107.766599,2.38344172 108.051,2.521 C108.322717,2.65688601 108.570871,2.83548936 108.786,3.05 C109.008005,3.27342495 109.194197,3.52977582 109.338,3.81 C109.475129,4.08758672 109.575957,4.38166961 109.638,4.685 C109.699895,5.02684575 109.730687,5.37359675 109.730011,5.721 L109.730011,14.467 C109.730682,14.814403 109.699889,15.1611535 109.638,15.503 C109.579699,15.8153259 109.478755,16.1181586 109.338,16.403 C109.201986,16.675238 109.023408,16.9240317 108.809,17.14 C108.588709,17.3547855 108.341678,17.540311 108.074,17.692 C107.791007,17.8329838 107.489792,17.9339498 107.179,17.992 C106.83815,18.0537905 106.492405,18.084583 106.146,18.0840107 L97.446,18.0840107 C97.0995915,18.0846709 96.7538379,18.0538777 96.413,17.992 C96.1014177,17.9308519 95.7989548,17.8300309 95.513,17.692 C95.2356565,17.5555495 94.9863508,17.3683158 94.778,17.14 C94.3259233,16.7012095 94.0277722,16.1280578 93.928,15.506 C93.8669015,15.1640622 93.8364473,14.8173531 93.8369925,14.47 L93.8369925,5.721 C93.836442,5.37364668 93.8668962,5.02693708 93.928,4.685 C93.9894545,4.37349852 94.0902627,4.07107391 94.228,3.785 C94.3696573,3.50371819 94.5557079,3.24709658 94.779,3.025 C94.9943183,2.81071264 95.2424344,2.63213657 95.514,2.496 C95.7985413,2.35451728 96.1014774,2.25353858 96.414,2.196 C96.7545672,2.13213933 97.1005074,2.10132955 97.447,2.10384022 L97.947,2.10384022 L104.997,2.127 M104.997,0.562 L97.35,0.562 C96.9262371,0.558574361 96.5031754,0.597095421 96.087,0.677 C95.6312342,0.756251243 95.1899707,0.903563802 94.778,1.114 C94.3568996,1.32115804 93.9759746,1.60151885 93.653,1.942 C93.3197368,2.27217651 93.0406404,2.65285449 92.826,3.07 C92.619252,3.48447242 92.4724512,3.92622163 92.39,4.382 C92.311095,4.79932706 92.2725837,5.22328593 92.274893,5.648 L92.274893,14.463 C92.2725837,14.8877141 92.311095,15.3116729 92.39,15.729 C92.468895,16.1856786 92.6158644,16.6279349 92.826,17.041 C93.0326281,17.4630462 93.312653,17.8449906 93.653,18.169 C93.9819669,18.5028957 94.3616539,18.7826828 94.778,18.998 C95.1913986,19.2050135 95.6321488,19.3521547 96.087,19.435 C96.5047077,19.5034914 96.9267914,19.5419234 97.35,19.55 L106.123,19.55 C106.546431,19.553412 106.96916,19.5148908 107.385,19.435 C107.84112,19.3558899 108.282734,19.2085729 108.695,18.998 C109.116079,18.7903782 109.496982,18.5096951 109.82,18.169 C110.154921,17.8402553 110.434224,17.4592955 110.647,17.041 C110.853288,16.6263375 111.000066,16.1846551 111.083,15.729 C111.161905,15.3116729 111.200416,14.8877141 111.198107,14.463 L111.198107,5.675 C111.200416,5.25028593 111.161905,4.82632706 111.083,4.409 C111.003653,3.95243503 110.856706,3.51024461 110.647,3.097 C110.440009,2.67517351 110.160028,2.29328959 109.82,1.969 C109.490814,1.63535745 109.111169,1.35560159 108.695,1.14 C108.28124,0.933009991 107.840164,0.785872238 107.385,0.703 C106.969153,0.623154634 106.546429,0.584633811 106.123,0.588 L105.594,0.588 L104.994,0.565 L104.994,0.565 L104.997,0.562 Z M10.062,2.937 C10.740877,2.12042768 11.0783331,1.07331056 11.004,0.014 C9.9585678,0.107416769 8.9925765,0.610724481 8.317,1.414 C7.63328364,2.18353851 7.28612016,3.19477818 7.353,4.222 C8.40995124,4.24922026 9.41641667,3.77032254 10.062,2.933 M11.004,4.433 C9.511,4.341 8.225,5.285 7.513,5.285 C6.801,5.285 5.699,4.479 4.528,4.502 C2.95998604,4.54906623 1.53110596,5.41375495 0.762,6.781 C-0.846,9.566 0.348,13.681 1.91,15.941 C2.668,17.069 3.586,18.289 4.803,18.241 C5.952,18.195 6.388,17.505 7.766,17.505 C9.144,17.505 9.557,18.241 10.751,18.218 C12.014,18.195 12.795,17.09 13.551,15.985 C14.1027405,15.1993814 14.5216533,14.328448 14.791,13.407 C13.3201436,12.7593733 12.3669804,11.3080903 12.357,9.701 C12.3794647,8.28160596 13.1240001,6.97160064 14.332,6.226 C13.5555292,5.14849305 12.3288007,4.48539658 11.002,4.426" id="Logo_f5f5f7"></path>
                </g>
            </g>
        </g>
    </g>
</svg>