<svg width="84" height="32" viewBox="0 0 84 32" xmlns="http://www.w3.org/2000/svg"><g id="Logos-/-Logo---nubia-/-gris" stroke="none" stroke-width="1" fill="none" fill-rule="evenodd"><path d="M43.698 5.62v4.575c.44-.147.706-.221.962-.325a8.417 8.417 0 013.604-.61c3.423.165 5.757 2.392 6 5.796a9.006 9.006 0 01-.756 4.354c-1.384 3.104-4.57 4.316-7.686 2.909-.667-.302-1.287-.712-2.056-1.143l-.13 1.422H40.94V5.62h2.757zm29.776 3.907c1.111.391 1.831 1.244 1.854 2.39.071 3.52.026 7.044.026 10.659H72.59V15.31c-1.833.55-3.491.969-5.09 1.552-1.294.471-1.837 1.382-1.646 2.322.211 1.04 1.152 1.663 2.555 1.589.857-.046 1.708-.213 2.703-.344l-.545 1.835c-1.901.663-3.76.926-5.575-.075-1.354-.746-2.084-1.936-2.035-3.5.048-1.567.817-2.768 2.27-3.324 1.504-.576 3.092-.93 4.632-1.415.705-.222 1.428-.452 2.053-.828.322-.194.621-.724.607-1.089-.013-.298-.468-.766-.792-.83-.936-.184-1.917-.34-2.857-.253-.638.058-1.27.201-1.898.362l-.943.244c-.157.04-.314.079-.471.116-.302.07-.596.168-1.047.298l.222-2.054c2.895-.91 5.777-1.435 8.74-.39zm-35.913.07V22.61h-2.604l-.15-1.343c-.197.066-.356.085-.476.164-1.424.926-2.999 1.332-4.682 1.406-2.942.13-4.988-1.34-5.234-4.268-.247-2.946-.054-5.929-.054-8.968h2.671c.024.369.063.712.064 1.055.006 1.972-.02 3.946.017 5.918.015.77.116 1.547.265 2.303.167.845.748 1.344 1.592 1.497 1.924.348 3.587-.196 4.985-1.537.56-.536.826-1.221.835-2.006.024-2.005.058-4.01.087-6.014.005-.383.001-.766.001-1.222h2.683zm-20.084-.581c2.507.238 3.78 1.723 3.813 4.386.03 2.458.008 4.916.01 7.374v1.833h-2.753c-.023-.427-.059-.803-.06-1.18-.013-2.554.003-5.109-.035-7.663-.028-2.002-.702-2.643-2.685-2.492a8.308 8.308 0 00-2.443.56c-1.563.632-2.51 1.786-2.533 3.556-.025 2.005-.047 4.009-.075 6.014-.005.378-.034.756-.054 1.199H8V9.59h2.603l.214.93c.186-.061.375-.084.517-.177 1.881-1.22 3.97-1.534 6.143-1.327zm42.67.6v12.956H57.34V9.617h2.808zM45.1 12.057c-.968.434-1.623 1.03-1.405 2.214.037.2-.047 1.062-.033 1.263.048.708.064 1.423.221 2.107.343 1.488 1.825 2.647 3.376 2.77 1.585.128 2.723-.562 3.452-2.115.629-1.336.738-2.74.415-4.164-.285-1.258-1.025-2.167-2.33-2.456a5.777 5.777 0 00-3.696.38zM60.161 5.64v1.74h-2.836V5.64h2.836z" id="Combined-Shape" fill="#333"/></g></svg>