<svg xmlns="http://www.w3.org/2000/svg" width="160" height="30" viewBox="0 0 160 30">
    <path d="M14.405 5.333c.973-1.183 1.454-2.694 1.345-4.221-1.494.146-2.872.869-3.842 2.015-.98 1.115-1.476 2.575-1.377 4.057 1.51.026 2.945-.66 3.874-1.85m1.328 2.142c-2.14-.13-3.959 1.23-4.98 1.23-1.022 0-2.588-1.166-4.28-1.133-2.25.063-4.295 1.322-5.365 3.302-2.299 4.016-.607 9.972 1.63 13.242 1.083 1.618 2.393 3.399 4.118 3.333 1.628-.065 2.267-1.07 4.25-1.07 1.982 0 2.554 1.07 4.278 1.038 1.788-.033 2.907-1.619 3.992-3.239.771-1.149 1.373-2.403 1.787-3.723-2.11-.94-3.472-3.032-3.479-5.343.022-2.041 1.08-3.932 2.81-5.018-1.088-1.572-2.85-2.543-4.759-2.622m12.053-2.509c0-.843.509-1.603 1.288-1.925.78-.322 1.676-.143 2.271.454.595.598.772 1.495.447 2.273-.324.778-1.086 1.284-1.929 1.282-.552.001-1.082-.218-1.473-.608-.39-.391-.608-.921-.606-1.473l.002-.003zm.283 4.663h3.604V27.25h-3.604V9.627zM44.782 2.96c4.65 0 7.89 3.25 7.89 7.978.103 2.153-.707 4.25-2.231 5.776-1.524 1.525-3.621 2.337-5.775 2.235h-5.15v8.298h-3.72V2.963h8.986V2.96zm-5.265 12.825h4.269c3.238 0 5.083-1.767 5.083-4.833 0-3.067-1.843-4.814-5.065-4.814h-4.286v9.65l-.001-.003zM55.206 2.96h3.57v9.664h.067c1.047-2.104 2.84-3.198 5.5-3.198 3.834 0 6.113 2.591 6.113 6.583V27.25h-3.604V16.698c0-2.575-1.28-4.141-3.788-4.141-2.657 0-4.25 1.833-4.25 4.628V27.25H55.21V2.963l-.004-.003zm17.77 15.467c0-5.537 3.24-9.02 8.272-9.02 5.033 0 8.255 3.483 8.255 9.02 0 5.571-3.189 9.039-8.255 9.039-5.051.003-8.274-3.464-8.274-9.035l.003-.004zm12.873 0c0-3.786-1.727-6.024-4.6-6.024-2.89 0-4.618 2.238-4.618 6.024 0 3.821 1.727 6.043 4.617 6.043 2.89 0 4.599-2.218 4.599-6.04l.002-.003zm6.194-8.802h3.437v3h.067c1.046-2.104 2.79-3.198 5.481-3.198 3.834 0 6.03 2.49 6.03 6.53V27.25h-3.588V16.667c0-2.643-1.213-4.107-3.704-4.107-2.591 0-4.136 1.818-4.136 4.544V27.25h-3.587V9.625zm33.25 12.438c-.482 3.197-3.555 5.402-7.491 5.402-5.066 0-8.222-3.433-8.222-8.954 0-5.521 3.172-9.105 8.073-9.105 4.8 0 7.84 3.349 7.84 8.684v1.264H113.2v.22c0 2.995 1.86 4.964 4.667 4.964 1.993 0 3.537-.959 4.019-2.474h3.405v-.002zm-12.059-5.25h8.654c-.066-2.694-1.76-4.478-4.236-4.478-2.46.002-4.235 1.82-4.42 4.48l.002-.003zm25.933.667c.113.927 1.05 1.535 2.28 1.535 1.23 0 2.062-.6 2.062-1.428 0-.73-.525-1.14-1.845-1.436l-1.402-.32c-1.994-.44-2.97-1.451-2.97-3.046 0-2.006 1.717-3.333 4.117-3.333 2.49 0 4.072 1.306 4.11 3.282h-2.069c-.075-.949-.885-1.52-2.04-1.52-1.132 0-1.898.555-1.898 1.383 0 .685.525 1.08 1.786 1.368l1.297.29c2.174.478 3.12 1.416 3.12 3.077 0 2.12-1.695 3.45-4.365 3.45-2.583 0-4.237-1.25-4.304-3.299h2.12v-.003zm15.23 3.115h-7.138V9.631h7.139v1.846h-4.935v2.71h4.657v1.718h-4.657v2.842h4.935v1.849-.001zm5.211-13.942c-.344-1.294-1.021-2.476-1.963-3.427-.93-.947-2.094-1.632-3.374-1.985-1.53-.352-3.1-.485-4.667-.397h-7.313c-1.575-.09-3.154.044-4.692.397-1.279.352-2.441 1.037-3.37 1.983-.945.952-1.623 2.135-1.967 3.431-.346 1.558-.477 3.156-.389 4.75v7.417c-.087 1.593.044 3.192.39 4.75.695 2.623 2.725 4.683 5.338 5.416 1.537.351 3.116.484 4.69.395h7.313c1.567.088 3.138-.044 4.667-.395 1.278-.353 2.441-1.037 3.37-1.983.946-.951 1.624-2.135 1.966-3.432.348-1.558.48-3.156.391-4.75v-7.416c.09-1.595-.041-3.195-.389-4.754zm-17.316-3.657h7.314c1.375-.08 2.755.027 4.1.32.925.252 1.767.745 2.437 1.43.678.691 1.166 1.546 1.417 2.481.293 1.371.4 2.775.32 4.174v7.416c.082 1.4-.027 2.805-.322 4.175-.247.937-.736 1.793-1.416 2.483-.671.686-1.514 1.18-2.44 1.43-1.345.296-2.724.405-4.098.323h-7.313c-1.384.082-2.772-.027-4.125-.325-.926-.25-1.767-.744-2.439-1.429-.682-.689-1.17-1.545-1.416-2.483-.29-1.37-.398-2.774-.318-4.173v-7.416c-.08-1.4.028-2.804.318-4.176.248-.935.737-1.79 1.416-2.479.672-.684 1.513-1.178 2.438-1.43 1.355-.293 2.744-.4 4.128-.32v-.001z"/>
</svg>
