<svg width="84" height="84" viewBox="0 0 84 84" xmlns="http://www.w3.org/2000/svg"><defs><linearGradient x1="7.062%" y1="34.303%" x2="79.862%" y2="92.276%" id="a"><stop offset="0%"/><stop stop-opacity="0" offset="100%"/></linearGradient></defs><g fill="none" fill-rule="evenodd"><circle fill="#FFF" cx="42" cy="42" r="42"/><g fill-rule="nonzero"><g transform="translate(32 20.438)"><circle fill="#EBEBEB" cx="10.438" cy="6.722" r="6.463"/><path d="M19.219 25.134a2.034 2.034 0 001.562-2.415l-.018-.088c-1.629-6.44-5.966-9.447-10.272-9.447-4.307 0-8.75 3.004-10.403 9.441a2.038 2.038 0 001.456 2.5l.1.025c2.894.6 5.841.9 8.797.9a43.49 43.49 0 008.778-.916z" fill="#CCC"/><circle fill="#CCC" cx="10.438" cy="6.722" r="6.463"/><path d="M8.419 12.856A6.469 6.469 0 0016.9 6.722V6.44a6.466 6.466 0 01-12.906 0v.28a6.466 6.466 0 004.425 6.135zm10.819 11.6a43.125 43.125 0 01-17.55.003l-.125-.022A2.034 2.034 0 01.08 22.813a2.034 2.034 0 001.482 2.3l.096.026c2.895.599 5.844.9 8.8.9a43.49 43.49 0 008.766-.904 2.038 2.038 0 001.59-2.33 2.034 2.034 0 01-1.578 1.652z" opacity=".06" fill="#000"/></g><g transform="translate(17.938 22.938)"><circle fill="#EBEBEB" cx="10.719" cy="6.563" r="6.463"/><path d="M19.5 24.972a2.038 2.038 0 001.563-2.413c0-.03 0-.059-.022-.09-1.616-6.44-5.954-9.447-10.26-9.447S2.031 16.025.378 22.466a2.04 2.04 0 001.46 2.5l.096.021c2.894.6 5.842.901 8.797.9a43.272 43.272 0 008.769-.915z" fill="#AFAFAF"/><circle fill="#AFAFAF" cx="10.719" cy="6.563" r="6.463"/><path d="M8.7 12.697a6.463 6.463 0 008.488-6.134V6.28a6.466 6.466 0 01-12.904 0v.282A6.463 6.463 0 008.7 12.697zm10.816 11.6c-2.884.597-5.821.9-8.766.903-2.955 0-5.903-.3-8.797-.9l-.1-.025A2.04 2.04 0 01.36 22.641a2.044 2.044 0 001.494 2.312l.1.022a43.219 43.219 0 0017.563-.003 2.034 2.034 0 001.59-2.328 2.04 2.04 0 01-1.59 1.653z" opacity=".06" fill="#000"/></g><g transform="translate(44.813 22.938)"><circle fill="#EBEBEB" cx="10.519" cy="6.563" r="6.463"/><path d="M19.3 24.972a2.034 2.034 0 001.563-2.413c0-.03 0-.059-.02-.09-1.627-6.44-5.965-9.447-10.271-9.447-4.306 0-8.75 3.003-10.403 9.444a2.04 2.04 0 001.456 2.5l.1.021c2.894.6 5.842.901 8.797.9 2.95-.005 5.89-.311 8.778-.915z" fill="#CCC"/><circle fill="#CCC" cx="10.519" cy="6.563" r="6.463"/><path d="M8.5 12.697a6.466 6.466 0 008.16-4.134c.21-.646.315-1.321.312-2V6.28a6.469 6.469 0 01-12.906 0v.282A6.466 6.466 0 008.5 12.697zm10.819 11.6a43.49 43.49 0 01-8.75.903c-2.957 0-5.905-.3-8.8-.9l-.097-.025a2.034 2.034 0 01-1.494-1.634 2.04 2.04 0 001.494 2.312l.097.022c2.895.6 5.843.9 8.8.9a43.266 43.266 0 008.75-.903 2.034 2.034 0 001.59-2.328 2.04 2.04 0 01-1.59 1.653z" opacity=".06" fill="#000"/></g><g transform="translate(21.688 24.813)"><circle fill="#EBEBEB" cx="30.334" cy="11.488" r="6.456"/><path d="M39.11 29.884a2.038 2.038 0 001.562-2.412c0-.028-.016-.056-.022-.088-1.616-6.447-5.962-9.44-10.25-9.44-4.287 0-8.75 3-10.397 9.434a2.038 2.038 0 001.456 2.5l.097.022c2.892.6 5.838.9 8.79.9a43.213 43.213 0 008.763-.916z" fill="#EBEBEB"/><circle fill="#EBEBEB" cx="30.334" cy="11.488" r="6.456"/><circle fill="#EBEBEB" cx="14.363" cy="9.066" r="8.809"/><path d="M26.331 34.175a2.781 2.781 0 002.15-3.287l-.028-.126c-2.222-8.79-8.125-12.884-14.006-12.884S2.525 21.975.278 30.75a2.781 2.781 0 001.985 3.394l.134.031c3.94.818 7.954 1.23 11.978 1.228a58.75 58.75 0 0011.956-1.228z" fill="#EBEBEB"/><path d="M28.316 17.619a6.462 6.462 0 008.153-4.132c.21-.645.315-1.32.312-2v-.28a6.463 6.463 0 01-12.897 0v.28a6.462 6.462 0 004.432 6.132zm12.39 9.984a2.034 2.034 0 01-1.597 1.722c-2.878.595-5.81.895-8.75.897a40.72 40.72 0 01-1.906-.044h-.156l.156.563c.032.135.055.273.069.412.012-.14.012-.281 0-.422a43.087 43.087 0 0010.575-.86 2.038 2.038 0 001.61-2.268zm-28.7-10.053A8.8 8.8 0 0023.17 9.063V8.78a8.806 8.806 0 01-17.603 0v.282a8.81 8.81 0 006.44 8.487zm14.325 16.066a58.978 58.978 0 01-11.956 1.225 58.988 58.988 0 01-11.99-1.225 2.769 2.769 0 01-2.188-2.441 2.772 2.772 0 002.187 3c3.945.82 7.963 1.23 11.991 1.228a58.75 58.75 0 0011.944-1.228 2.772 2.772 0 002.187-3 2.772 2.772 0 01-2.175 2.44z" opacity=".06" fill="#000"/></g><path d="M50.003 42.431a6.462 6.462 0 008.153-4.131c.21-.646.316-1.321.313-2v-.281a6.463 6.463 0 01-12.897 0v.281a6.462 6.462 0 004.431 6.131zm-16.309-.069a8.8 8.8 0 0011.162-8.487v-.281a8.806 8.806 0 01-17.603 0v.281a8.81 8.81 0 006.44 8.487zm14.325 16.066a58.978 58.978 0 01-11.957 1.225 58.988 58.988 0 01-11.99-1.225 2.769 2.769 0 01-2.188-2.44 2.772 2.772 0 002.188 3 58.829 58.829 0 0011.99 1.228 58.75 58.75 0 0011.944-1.228 2.772 2.772 0 002.188-3 2.772 2.772 0 01-2.175 2.44z" opacity=".06" fill="#000"/><path d="M29.962 20.106a6.419 6.419 0 01-5.313 10.01h.079c3.16 0 6.325 1.625 8.416 5.04h.959c2.94 0 5.872-.302 8.75-.9.318-.063.616-.2.869-.403L29.832 19.97l.13.137z" fill="url(#a)" opacity=".06" transform="translate(17.938 20.438)"/><g transform="translate(32 37.625)"><circle fill="#EBEBEB" cx="10.575" cy="6.509" r="6.416"/><path d="M19.29 24.788a2.025 2.025 0 001.541-2.485c-1.615-6.397-5.922-9.375-10.197-9.375-4.275 0-8.68 2.981-10.328 9.375a2.025 2.025 0 001.447 2.469l.097.022a42.848 42.848 0 0017.44-.006z" fill="#E60100"/><circle fill="#E60100" cx="10.575" cy="6.509" r="6.416"/><path d="M8.569 12.6a6.422 6.422 0 008.1-4.103 6.33 6.33 0 00.312-1.988v-.28a6.419 6.419 0 01-12.812 0v.28a6.428 6.428 0 004.4 6.091zM19.31 24.116c-2.864.589-5.78.885-8.704.884a43.153 43.153 0 01-8.731-.881l-.097-.025a2.016 2.016 0 01-1.484-1.622 2.022 2.022 0 001.484 2.294l.097.022a42.71 42.71 0 008.75.893c2.924 0 5.84-.3 8.703-.893a2.025 2.025 0 001.563-2.313 2.022 2.022 0 01-1.582 1.64z" opacity=".06" fill="#000"/></g></g><path d="M12 12h60v60H12z"/></g></svg>