<svg width="84" height="84" viewBox="0 0 84 84" xmlns="http://www.w3.org/2000/svg" xmlns:xlink="http://www.w3.org/1999/xlink"><defs><path d="M.122 5.684c0 2.157 5.894 3.9 13.162 3.9 7.138 0 12.944-1.68 13.157-3.778V.9h-1.875v.384C22.266.554 18.075.062 13.28.062 8.488.063 4.297.553 2 1.284V.9H.125v4.784H.122z" id="a"/><path d="M.244 5.675c0 2.153 5.893 3.897 13.165 3.897 7.135 0 12.941-1.678 13.153-3.778V.888h-1.875v.384C22.392.54 18.2.05 13.403.05 8.606.05 4.42.54 2.122 1.272V.887H.247v4.788H.244z" id="d"/><linearGradient x1="-.013%" y1="50.04%" x2="99.987%" y2="50.04%" id="c"><stop offset="0%"/><stop stop-opacity="0" offset="100%"/></linearGradient></defs><g fill="none" fill-rule="evenodd"><circle fill="#FFF" cx="42" cy="42" r="42"/><g transform="translate(12 12)"><path d="M0 0h60v60H0z"/><path d="M17.472 36.706v-2.978h8.312a3.322 3.322 0 003.322-3.325V23.75H17.472v-2.975a.831.831 0 00-1.419-.587L7.5 28.75l8.553 8.55a.831.831 0 001.419-.584v-.01z" fill="#EBEBEB" fill-rule="nonzero"/><path d="M17.038 33.712v2.982a.824.824 0 01-.625.8.831.831 0 001.012-.6.719.719 0 00.028-.2v-2.982h-.415zm8.322 0h.415a3.328 3.328 0 003.328-3.328v-6.659h-.416v6.66a3.328 3.328 0 01-3.328 3.327zm-8.322-12.974v2.987h.415v-2.984a.834.834 0 00-1.04-.797.816.816 0 01.625.794z" opacity=".06" fill="#000" fill-rule="nonzero"/><path d="M32.5 8.294v2.956h-8.281a3.313 3.313 0 00-3.313 3.313v6.64H32.5v2.969a.825.825 0 001.413.584l8.525-8.506-8.526-8.54a.828.828 0 00-1.412.584z" fill="#E60000" fill-rule="nonzero"/><path d="M33.494 7.703l8.528 8.547-8.528 8.512a.822.822 0 01-.375.207c.28.08.582.001.787-.207l8.532-8.512-8.532-8.531a.797.797 0 00-.781-.219.822.822 0 01.369.203z" fill="#000" fill-rule="nonzero" opacity=".12"/><path fill="#EBEBEB" fill-rule="nonzero" d="M41.25 51.428v-2.922l-2.225.425-1.103-.56 3.91-.762h1.846v3.82z"/><path d="M24.497 48.503c0 2.153 5.89 3.897 13.162 3.897 7.144 0 12.953-1.684 13.157-3.784v-4.904H48.94v.385c-2.3-.731-6.491-1.222-11.285-1.222-4.794 0-8.984.49-11.281 1.222v-.385H24.5v4.791h-.003z" fill="#EBEBEB" fill-rule="nonzero"/><g transform="translate(24.375 42.813)"><mask id="b" fill="#fff"><use xlink:href="#a"/></mask><g opacity=".06" mask="url(#b)" fill="#000" fill-rule="nonzero"><path d="M1.206 1.663v6.44a19.47 19.47 0 002.188.688V1.662H1.206zm4.4-.013v7.866c.71.084 1.438.159 2.188.23V1.67l-2.188-.02zM10 3.616v6.728c.719.028 1.45.047 2.188.062v-6.79H10zm4.375.368v5.85c.744 0 1.473-.014 2.188-.043V3.984h-2.188zm4.375-.272v6.122c.75-.059 1.488-.125 2.188-.197V3.7l-2.188.012zm4.4-1.94v7.29a36.12 36.12 0 002.188-.474V1.772H23.15z"/></g></g><path d="M24.497 48.497c0 2.156 5.894 3.9 13.162 3.9 7.138 0 12.944-1.681 13.157-3.778v-4.907H48.94v.385c-2.3-.731-6.491-1.222-11.285-1.222-4.794 0-8.984.49-11.281 1.222v-.385H24.5v4.785h-.003z" fill="#000" fill-rule="nonzero" opacity=".06"/><ellipse fill="#EBEBEB" fill-rule="nonzero" cx="37.65" cy="43.631" rx="13.166" ry="3.897"/><ellipse fill="#EBEBEB" fill-rule="nonzero" cx="37.65" cy="43.638" rx="13.166" ry="3.897"/><path d="M37.038 46.284V43.37l-2.225.425-1.104-.553v-.794l3.91.037h1.85v3.8z" opacity=".06" fill="#000" fill-rule="nonzero"/><path d="M37.038 46.284V43.37l-2.225.425-1.104-.553v-.794l3.91.037h1.85v3.8z" opacity=".06" fill="#000" fill-rule="nonzero"/><path fill="#EBEBEB" fill-rule="nonzero" d="M37.038 45.475v-2.906l-2.225.434-1.104-.556 3.91-.763h1.85v3.791z"/><path d="M48.934 43.712v.385c-2.3-.731-6.49-1.222-11.284-1.222-4.794 0-8.981-.788-11.281-.056l.212.531.147.313L35.4 52.33c.734.038 1.488.06 2.26.06 7.137 0 12.943-1.682 13.156-3.779v-4.906l-1.882.006z" fill="url(#c)" fill-rule="nonzero" opacity=".2"/><path d="M26.181 42.553c0 2.153 5.894 3.897 13.166 3.897 7.14 0 12.95-1.684 13.153-3.784v-4.903h-1.875v.384c-2.297-.731-6.487-1.222-11.284-1.222-4.797 0-8.985.49-11.282 1.222v-.384h-1.875v4.79h-.003z" fill="#EBEBEB" fill-rule="nonzero"/><g transform="translate(25.938 36.875)"><mask id="e" fill="#fff"><use xlink:href="#d"/></mask><g opacity=".06" mask="url(#e)" fill="#000" fill-rule="nonzero"><path d="M2.428.84V8.3c.71.315 1.441.581 2.188.797V.84H2.428zM6.81.831v9.097a67.75 67.75 0 002.187.266V.84L6.809.83zm4.393 2.275v7.79c.719.029 1.453.054 2.188.076V3.106h-2.188zm4.387.428v6.779c.744 0 1.474-.016 2.188-.047v-6.72l-2.187-.012zM20 3.219v7.094a76.817 76.817 0 002.188-.226V3.22H20zM24.375.972v8.437c.794-.17 1.523-.354 2.188-.55V.972h-2.188z"/></g></g><path d="M26.181 42.55c0 2.153 5.894 3.897 13.166 3.897 7.134 0 12.94-1.678 13.153-3.778v-4.906h-1.875v.384c-2.297-.731-6.487-1.222-11.284-1.222-4.797 0-8.985.49-11.282 1.222v-.384h-1.875v4.787h-.003z" fill="#000" fill-rule="nonzero" opacity=".06"/><ellipse fill="#EBEBEB" fill-rule="nonzero" cx="39.334" cy="37.681" rx="13.166" ry="3.897"/><ellipse fill="#E60000" fill-rule="nonzero" cx="39.334" cy="37.681" rx="10.972" ry="2.869"/><path d="M49.788 36.81c-.897-.744-2.404-1.123-3.697-1.388a30.381 30.381 0 00-4.25-.534 37 37 0 00-8.775.437c-1.45.262-3.191.656-4.191 1.487-.425.344-.625.788-.425 1.229.2.44.728.768 1.25 1.022-.494-.404-.678-.938-.334-1.404.316-.375.72-.667 1.175-.85 1.45-.687 3.259-1.015 4.959-1.225a38.904 38.904 0 013.372-.25 27.353 27.353 0 013.469.163c1.815.178 3.709.472 5.312 1.106a4.11 4.11 0 011.538.938c.44.506.312 1.075-.244 1.522.528-.254 1.062-.585 1.25-1.022.187-.438.01-.888-.41-1.232z" fill="#000" fill-rule="nonzero" opacity=".06"/><path d="M49.788 36.81c-.897-.744-2.404-1.123-3.697-1.388a30.381 30.381 0 00-4.25-.534 37 37 0 00-8.775.437c-1.45.262-3.191.656-4.191 1.487-.425.344-.625.788-.425 1.229.2.44.728.768 1.25 1.022-.494-.404-.678-.938-.334-1.404.316-.375.72-.667 1.175-.85 1.45-.687 3.259-1.015 4.959-1.225a38.904 38.904 0 013.372-.25 27.353 27.353 0 013.469.163c1.815.178 3.709.472 5.312 1.106a4.11 4.11 0 011.538.938c.44.506.312 1.075-.244 1.522.528-.254 1.062-.585 1.25-1.022.187-.438.01-.888-.41-1.232z" fill="#000" fill-rule="nonzero" opacity=".06"/></g></g></svg>