<svg width="84" height="84" viewBox="0 0 84 84" xmlns="http://www.w3.org/2000/svg"><defs><linearGradient x1="23.586%" y1="19.418%" x2="84.049%" y2="64.339%" id="a"><stop offset="0%"/><stop stop-opacity="0" offset="100%"/></linearGradient><linearGradient x1="25.163%" y1="10.256%" x2="92.37%" y2="88.889%" id="b"><stop stop-color="#666" stop-opacity=".2" offset="0%"/><stop stop-color="#666" stop-opacity="0" offset="76%"/></linearGradient></defs><g fill="none" fill-rule="evenodd"><circle fill="#FFF" cx="42" cy="42" r="42"/><path d="M64.406 43.95L40.394 22.822l-.416-.24a13.488 13.488 0 00-18.437 4.937l-3.06 5.312A13.488 13.488 0 0023.42 51.27l21.193 12.237a4.278 4.278 0 003.27.428 4.29 4.29 0 003.18-3.887 4.303 4.303 0 005.713-3.769 4.31 4.31 0 005.575-5.184v-.016a4.306 4.306 0 003.075-5.281c-.181-.706-1.019-1.847-1.019-1.847z" fill="#EBEBEB" fill-rule="nonzero"/><path d="M44.222 46.131c.327-.566.52-1.2.566-1.853a4.31 4.31 0 005.575-5.184v-.016a4.306 4.306 0 003.075-5.281c-.188-.7-1.026-1.84-1.026-1.84l-14.53-8.391a7.313 7.313 0 01-2.038 1.612c-2.01 1.031-4.469 1.738-7.713.625L25 29.193c-1.953 1.948-6.194 3.026-7.99 2.35l-1-.374a1.25 1.25 0 01-.332-.185l20.744 20.744a4.278 4.278 0 002.656-3.681 4.31 4.31 0 005.147-1.916h-.003z" fill="url(#a)" fill-rule="nonzero" opacity=".2" transform="translate(12 12)"/><path d="M15.275 30.425l-.078.078.287.288a1.25 1.25 0 01-.209-.366z" fill="url(#b)" fill-rule="nonzero" transform="translate(12 12)"/><path d="M49.881 35.566l14.522 8.384a13.397 13.397 0 001.103-10.313 13.81 13.81 0 00-6.403-7.971l-5.081-2.935c-6.447-3.715-14.684-1.512-18.416 4.925l-8.212 13.669a1.306 1.306 0 00-.2.625 1.25 1.25 0 00.812 1.216l1 .375c1.797.675 6.04-.404 7.99-2.35l3.129-3.394c3.24 1.119 5.703.416 7.712-.625a7.313 7.313 0 002.044-1.606z" fill="#E60000" fill-rule="nonzero"/><path d="M64.4 43.325l-14.519-8.384a7.313 7.313 0 01-2.037 1.612c-2.01 1.031-4.469 1.738-7.713.625L37 40.568c-1.953 1.948-6.194 3.026-7.99 2.35l-1-.374a1.25 1.25 0 01-.772-.856 1.08 1.08 0 00-.044.265 1.25 1.25 0 00.812 1.219l1 .375c1.797.675 6.04-.403 7.99-2.35l3.129-3.4c3.24 1.119 5.703.416 7.712-.625a7.313 7.313 0 002.038-1.613l14.522 8.385a13.397 13.397 0 001.665-6.756 13.412 13.412 0 01-1.662 6.137z" fill="#000" fill-rule="nonzero" opacity=".12"/><path d="M12 12h60v60H12z"/><path d="M12 12h60v60H12z"/><g opacity=".06" fill="#000" fill-rule="nonzero"><path d="M61.931 53.737a4.31 4.31 0 01-5.143 1.916 4.306 4.306 0 01-.741-.337l-13.25-7.65c-.313-.172-.494.34 0 .625l13.247 7.647c.21.122.429.226.656.312a4.31 4.31 0 01-5.638 3.172 4.313 4.313 0 01-.74-.338L39.74 52.966c-.313-.172-.494.34 0 .625l10.596 6.118c.21.123.428.227.654.313a4.281 4.281 0 01-3.09 3.26 4.281 4.281 0 01-3.269-.428L23.433 50.615a13.397 13.397 0 01-6.284-8.191c-.28-1.04-.435-2.11-.462-3.187-.03 1.286.125 2.57.459 3.812.916 3.46 3.18 6.41 6.284 8.19l21.194 12.238a4.281 4.281 0 003.269.428 4.303 4.303 0 003.181-3.86 4.31 4.31 0 005.71-3.768 4.306 4.306 0 005.706-4.397 4.288 4.288 0 01-.56 1.857z"/><path d="M65.566 46.584a4.31 4.31 0 01-6.45 3.438l-13.257-7.656c-.312-.172-.493.34 0 .625l13.257 7.647a4.31 4.31 0 006.45-4.063v.01z"/></g></g></svg>