<svg xmlns="http://www.w3.org/2000/svg" xmlns:xlink="http://www.w3.org/1999/xlink" width="74" height="70" viewBox="0 0 74 70"><defs><path id="44877zjkxa" d="M.177 6.967c0 2.593 6.743 4.693 15.066 4.693 8.164 0 14.807-2.02 15.05-4.55V1.197H28.14v.47C25.507.787 20.717.197 15.227.197S4.943.78 2.313 1.667v-.464H.163v5.764h.014z"/><path id="4afj95cghd" d="M0 6.793c0 2.594 6.743 4.697 15.063 4.697 8.167 0 14.81-2.027 15.054-4.553V1.023h-2.154v.464c-2.63-.88-7.423-1.47-12.91-1.47-5.486 0-10.283.59-12.91 1.47v-.464H0v5.77z"/><path id="gknn3ppkhg" d="M.273 6.96c0 2.593 6.747 4.707 15.06 4.707 8.167 0 14.81-2.024 15.054-4.55V1.19h-2.154v.477C25.603.787 20.81.197 15.32.197S5.043.773 2.417 1.667V1.19H.263v5.77h.01z"/><linearGradient id="od2od0yd9c" x1="0%" x2="99.989%" y1="50%" y2="50%"><stop offset="0%"/><stop offset="87%" stop-opacity=".35"/><stop offset="100%" stop-opacity="0"/></linearGradient><linearGradient id="5t7fqghn8f" x1="0%" x2="100%" y1="49.983%" y2="49.983%"><stop offset="0%"/><stop offset="100%" stop-opacity="0"/></linearGradient></defs><g fill="none" fill-rule="evenodd"><ellipse cx="36.5" cy="35" rx="36.25" ry="35" fill="#FFF" transform="translate(.5)"/><g transform="translate(5.5 3)"><path d="M0 0h64v64H0z"/><path d="M42.797 18.514v6.913l9.77-9.85-9.77-9.853v6.18s-13.13-1.837-16.744 13.523c0 0 3.917-6.137 13.294-7.097 1.483-.116 2.46-.103 3.45.184z" fill="#E60000" fill-rule="nonzero"/><path d="M39.333 17.23c-7.503.77-11.506 4.86-12.803 6.457a27.57 27.57 0 00-.477 1.74s3.917-6.137 13.294-7.097c1.483-.117 2.46-.103 3.45.183v-1.1c-.99-.286-1.967-.3-3.464-.183zm3.467 7.097v1.1l9.767-9.85-.547-.55z" fill="#E60000" fill-rule="nonzero"/><path fill="#EBEBEB" fill-rule="nonzero" d="M25.03 56.257v-3.51l-2.547.513-1.26-.667 4.474-.926h2.116v4.573z"/><path fill="#EBEBEB" fill-rule="nonzero" d="M15.51 52.637c0 2.593 6.743 4.696 15.063 4.696 8.177 0 14.824-2.03 15.054-4.56v-5.91h-2.154v.47c-2.633-.88-7.423-1.47-12.913-1.47s-10.283.584-12.913 1.47v-.463h-2.15v5.773l.013-.006z"/><g transform="translate(15.333 45.667)"><mask id="5dnhuuwceb" fill="#fff"><use xlink:href="#44877zjkxa"/></mask><g fill="#000" fill-rule="nonzero" mask="url(#5dnhuuwceb)" opacity=".06"><path d="M2.667 2.117v7.76c.82.329 1.659.606 2.513.83v-8.59H2.667zm5.04-.014v9.477c.809.1 1.643.192 2.503.277V2.103H7.707zm5.013 2.37v8.107c.82.03 1.667.053 2.51.077V4.473h-2.51zm5.02.444v7.046c.847 0 1.687-.026 2.51-.05v-7l-2.51.004zm5.02-.317v7.377c.864-.074 1.7-.15 2.51-.237V4.6h-2.51zM27.784.973v10.07c.906-.21 1.746-.43 2.51-.666V.973h-2.51z"/></g></g><path fill="#000" fill-rule="nonzero" d="M15.51 52.633c0 2.594 6.743 4.694 15.067 4.694 8.163 0 14.806-2.02 15.05-4.55v-5.914h-2.154v.47c-2.633-.88-7.423-1.47-12.913-1.47s-10.283.584-12.913 1.47v-.463h-2.15v5.763h.013z" opacity=".06"/><ellipse cx="30.563" cy="46.767" fill="#EBEBEB" fill-rule="nonzero" rx="15.067" ry="4.693"/><ellipse cx="30.563" cy="46.753" fill="#E60000" fill-rule="nonzero" rx="12.553" ry="3.457"/><path fill="#000" fill-rule="nonzero" d="M42.52 45.703c-1.023-.896-2.743-1.35-4.227-1.666a33.174 33.174 0 00-4.863-.644 40.348 40.348 0 00-10.033.527c-1.667.317-3.65.79-4.794 1.793-.486.41-.73.947-.486 1.48.243.534.833.924 1.436 1.23-.56-.486-.77-1.113-.38-1.693a3.502 3.502 0 011.334-1.027c1.666-.826 3.726-1.21 5.666-1.46a42.704 42.704 0 013.857-.303 29.794 29.794 0 013.973.197c2.077.213 4.244.566 6.08 1.333.665.235 1.266.62 1.757 1.127.507.61.333 1.28-.273 1.83.603-.304 1.213-.704 1.44-1.23.226-.527-.007-1.077-.487-1.494z" opacity=".06"/><path fill="#000" fill-rule="nonzero" d="M42.52 45.703c-1.023-.896-2.743-1.35-4.227-1.666a33.174 33.174 0 00-4.863-.644 40.348 40.348 0 00-10.033.527c-1.667.317-3.65.79-4.794 1.793-.486.41-.73.947-.486 1.48.243.534.833.924 1.436 1.23-.56-.486-.77-1.113-.38-1.693a3.502 3.502 0 011.334-1.027c1.666-.826 3.726-1.21 5.666-1.46a42.704 42.704 0 013.857-.303 29.794 29.794 0 013.973.197c2.077.213 4.244.566 6.08 1.333.665.235 1.266.62 1.757 1.127.507.61.333 1.28-.273 1.83.603-.304 1.213-.704 1.44-1.23.226-.527-.007-1.077-.487-1.494z" opacity=".06"/><path d="M29.863 49.946v-3.52l-2.53.514-1.263-.667v-.94l4.473.05h2.117v4.577z" fill="#000" fill-rule="nonzero" opacity=".06"/><path d="M29.863 49.946v-3.52l-2.53.514-1.263-.667v-.94l4.473.05h2.117v4.577z" fill="#000" fill-rule="nonzero" opacity=".06"/><path fill="#EBEBEB" fill-rule="nonzero" d="M29.863 49v-3.533l-2.53.51-1.263-.667 4.473-.92h2.117V49z"/><ellipse cx="30.563" cy="46.767" fill="url(#od2od0yd9c)" fill-rule="nonzero" opacity=".2" rx="15.067" ry="4.693"/><path fill="#EBEBEB" fill-rule="nonzero" d="M10.667 45.463c0 2.594 6.743 4.694 15.063 4.694 8.173 0 14.823-2.027 15.053-4.557v-5.91H38.63v.463c-2.63-.88-7.423-1.47-12.91-1.47s-10.283.59-12.91 1.47v-.463h-2.143v5.773z"/><g transform="translate(10.667 38.667)"><mask id="mf734yau0e" fill="#fff"><use xlink:href="#4afj95cghd"/></mask><g fill="#000" fill-rule="nonzero" mask="url(#mf734yau0e)" opacity=".06"><path d="M1.257 1.944v7.76a21.01 21.01 0 002.51.83v-8.59h-2.51zM6.29 1.93v9.477c.81.1 1.647.19 2.503.277V1.95L6.29 1.93zm5.01 2.367v8.107c.823.033 1.667.056 2.51.076V4.297H11.3zm5.033.447v7.043c.851 0 1.688-.017 2.51-.05v-7l-2.51.007zm5-.33v7.373c.86-.07 1.704-.147 2.51-.233v-7.14h-2.51zm5.03-2.337v8.79c.91-.169 1.747-.359 2.514-.57v-8.22h-2.514z"/></g></g><path fill="#000" fill-rule="nonzero" d="M10.667 45.46c0 2.593 6.743 4.697 15.063 4.697 8.167 0 14.81-2.027 15.053-4.554V39.69H38.63v.463c-2.63-.88-7.423-1.47-12.91-1.47s-10.283.59-12.91 1.47v-.463h-2.143v5.77z" opacity=".06"/><ellipse cx="25.733" cy="39.593" fill="#EBEBEB" fill-rule="nonzero" rx="15.067" ry="4.693"/><ellipse cx="25.733" cy="39.603" fill="#EBEBEB" fill-rule="nonzero" rx="15.067" ry="4.693"/><path d="M25.03 42.793V39.28l-2.547.51-1.26-.667v-.956l4.474.046h2.116v4.58z" fill="#000" fill-rule="nonzero" opacity=".06"/><path d="M25.03 42.793V39.28l-2.547.51-1.26-.667v-.956l4.474.046h2.116v4.58z" fill="#000" fill-rule="nonzero" opacity=".06"/><path fill="#EBEBEB" fill-rule="nonzero" d="M25.03 41.817v-3.504l-2.547.527-1.26-.667 4.474-.92h2.116v4.57z"/><path fill="url(#5t7fqghn8f)" fill-rule="nonzero" d="M38.643 39.69v.463c-2.63-.88-7.423-1.47-12.91-1.47-5.486 0-10.28-.95-12.91-.066l.244.64.166.383 9.924 10.443c.84.047 1.703.074 2.586.074 8.167 0 14.81-2.027 15.054-4.554V39.69h-2.154z" opacity=".2"/><path fill="#EBEBEB" fill-rule="nonzero" d="M12.607 38.297c0 2.593 6.743 4.703 15.06 4.703 8.173 0 14.82-2.033 15.053-4.563v-5.914h-2.153V33c-2.63-.88-7.424-1.47-12.914-1.47-5.49 0-10.276.577-12.903 1.47v-.477h-2.153v5.774h.01z"/><g transform="translate(12.333 31.333)"><mask id="iphbm6z6kh" fill="#fff"><use xlink:href="#gknn3ppkhg"/></mask><g fill="#000" fill-rule="nonzero" mask="url(#iphbm6z6kh)" opacity=".06"><path d="M2.774 1.137v9c.814.375 1.652.696 2.51.96v-9.96h-2.51zm5.013-.014v10.96c.81.117 1.647.224 2.503.334V1.137l-2.503-.014zm5.03 2.74v9.387c.823.037 1.667.063 2.51.09V3.863h-2.51zm5.02.514v8.156c.851-.013 1.689-.033 2.513-.06V4.377h-2.513zM22.87 4v8.533c.86-.083 1.7-.176 2.51-.273V4h-2.51zm5.014-2.707V11.47a34.31 34.31 0 002.51-.667v-9.51h-2.51z"/></g></g><path fill="#000" fill-rule="nonzero" d="M12.607 38.293c0 2.594 6.746 4.707 15.06 4.707 8.166 0 14.81-2.023 15.053-4.55v-5.927h-2.153V33c-2.63-.88-7.424-1.47-12.914-1.47-5.49 0-10.276.577-12.903 1.47v-.477h-2.153v5.77h.01z" opacity=".06"/><ellipse cx="27.66" cy="32.427" fill="#EBEBEB" fill-rule="nonzero" rx="15.067" ry="4.693"/><ellipse cx="27.66" cy="32.427" fill="#E60000" fill-rule="nonzero" rx="12.553" ry="3.457"/><path fill="#000" fill-rule="nonzero" d="M39.623 31.377c-1.026-.897-2.75-1.354-4.23-1.667a33.764 33.764 0 00-4.866-.643 40.247 40.247 0 00-10.044.53c-1.666.333-3.646.786-4.793 1.79-.487.413-.73.95-.487 1.48.244.53.834.926 1.44 1.23-.563-.484-.773-1.11-.38-1.69a3.458 3.458 0 011.334-1.024c1.666-.826 3.73-1.223 5.666-1.476a40.878 40.878 0 013.857-.3c1.326-.024 2.652.04 3.97.193 2.077.217 4.247.57 6.083 1.333.662.24 1.261.625 1.754 1.127.506.61.333 1.293-.277 1.833.603-.306 1.217-.706 1.44-1.23.223-.523.01-1.073-.467-1.486z" opacity=".06"/><path fill="#000" fill-rule="nonzero" d="M39.623 31.377c-1.026-.897-2.75-1.354-4.23-1.667a33.764 33.764 0 00-4.866-.643 40.247 40.247 0 00-10.044.53c-1.666.333-3.646.786-4.793 1.79-.487.413-.73.95-.487 1.48.244.53.834.926 1.44 1.23-.563-.484-.773-1.11-.38-1.69a3.458 3.458 0 011.334-1.024c1.666-.826 3.73-1.223 5.666-1.476a40.878 40.878 0 013.857-.3c1.326-.024 2.652.04 3.97.193 2.077.217 4.247.57 6.083 1.333.662.24 1.261.625 1.754 1.127.506.61.333 1.293-.277 1.833.603-.306 1.217-.706 1.44-1.23.223-.523.01-1.073-.467-1.486z" opacity=".06"/></g></g></svg>