<svg xmlns="http://www.w3.org/2000/svg" width="74" height="70" viewBox="0 0 74 70"><defs><linearGradient id="3o00arfrfa" x1="40.758%" x2="97.446%" y1="1.917%" y2="76.093%"><stop offset="0%"/><stop offset="100%" stop-opacity="0"/></linearGradient></defs><g transform="translate(.334)" fill="none" fill-rule="evenodd"><ellipse cx="36.133" cy="35" fill="#FFF" fill-rule="nonzero" rx="36.133" ry="35"/><path fill="#EBEBEB" fill-rule="nonzero" d="M35.666 17.793l-21.333 9.874-6.08-5.867c-.334-.333-.334-1.477.076-1.667l18.67-8.18a1.333 1.333 0 011.39.157l7.277 5.683zm0 0l21.333 9.874 6.08-5.867c.334-.333.334-1.47-.073-1.667l-18.673-8.18a1.333 1.333 0 00-1.39.157l-7.277 5.683z"/><path fill="#000" fill-rule="nonzero" d="M35.666 17.793l-21.333 9.874-6.08-5.867c-.334-.333-.334-1.477.076-1.667l18.67-8.18a1.333 1.333 0 011.39.157l7.277 5.683zm0 0l21.333 9.874 6.08-5.867c.334-.333.334-1.47-.073-1.667l-18.673-8.18a1.333 1.333 0 00-1.39.157l-7.277 5.683z" opacity=".06"/><path fill="#EBEBEB" fill-rule="nonzero" d="M35.666 36.5L14.333 27v21.797c.007.523.32.994.8 1.203l19.466 8.513a2.666 2.666 0 002.137 0L56.199 50c.486-.212.8-.69.8-1.22V27l-21.333 9.5z"/><path fill="#000" fill-rule="nonzero" d="M35.666 36.5v22.253c.368 0 .733-.075 1.07-.223L56.199 50c.486-.212.8-.69.8-1.22V27l-21.333 9.5z" opacity=".06"/><path fill="#EBEBEB" fill-rule="nonzero" d="M35.666 17.127L14.333 27l-6.08-5.867a.666.666 0 01.18-1.083l18.566-8.763a1.333 1.333 0 011.39.156l7.277 5.684zm0 0L56.999 27l6.08-5.867a.666.666 0 00-.18-1.083l-18.566-8.763a1.333 1.333 0 00-1.39.156l-7.277 5.684z"/><path fill="#E60000" fill-rule="nonzero" d="M35.666 36.52L14.333 27l21.333-9.877zm0 0L56.999 27l-21.333-9.877z"/><path fill="#000" fill-rule="nonzero" d="M35.666 36.52L14.333 27l21.333-9.877z" opacity=".12"/><path fill="#EBEBEB" fill-rule="nonzero" d="M62.736 36.373L56.999 27l-21.333 9.517 5.843 10.103a1.333 1.333 0 001.72.54l18.934-8.887a1.333 1.333 0 00.573-1.9zm-54.14 0L14.333 27l21.333 9.517-5.843 10.106c-.347.6-1.094.834-1.72.54L9.166 38.277a1.332 1.332 0 01-.57-1.904z"/><path fill="url(#3o00arfrfa)" fill-rule="nonzero" d="M32 33.517l-5.843 10.106c-.347.6-1.094.834-1.72.54L15 39.733l15.69 15.69.243.107c.338.148.702.224 1.07.223V33.5l-.003.017z" opacity=".2" transform="translate(3.666 3)"/><path fill="#000" fill-rule="nonzero" d="M56.199 49.333l-19.463 8.53a2.666 2.666 0 01-2.137 0l-19.466-8.53a1.33 1.33 0 01-.8-1.22v.667c0 .53.314 1.008.8 1.22l19.466 8.513a2.666 2.666 0 002.137 0L56.199 50c.486-.212.8-.69.8-1.22v-.667a1.33 1.33 0 01-.8 1.22z" opacity=".06"/><path fill="#000" fill-rule="nonzero" d="M62.166 37.61l-18.933 8.887a1.334 1.334 0 01-1.72-.54l-5.54-9.577-.307.137 5.843 10.103a1.333 1.333 0 001.72.54l18.934-8.887c.575-.273.877-.916.72-1.533-.099.382-.361.7-.717.87zm-32.343 8.347a1.334 1.334 0 01-1.72.54L9.166 37.61a1.334 1.334 0 01-.72-.867c-.157.618.144 1.26.72 1.534l18.933 8.886c.627.294 1.374.06 1.72-.54l5.847-10.106-.307-.137-5.536 9.577z" opacity=".12"/><path d="M3.666 3h64v64h-64z"/></g></svg>