<?xml version="1.0" encoding="UTF-8"?>
<svg width="26px" height="16px" viewBox="0 0 26 16" version="1.1" xmlns="http://www.w3.org/2000/svg" xmlns:xlink="http://www.w3.org/1999/xlink">
    <!-- Generator: Sketch 59 (86127) - https://sketch.com -->
    <title>Group 9</title>
    <desc>Created with Sketch.</desc>
    <defs>
        <polygon id="path-1" points="0 0.017875 25.2486 0.017875 25.2486 14.2146875 0 14.2146875"></polygon>
    </defs>
    <g id="Landing-Travel" stroke="none" stroke-width="1" fill="none" fill-rule="evenodd">
        <g id="LP-Travel-Gamers_Desktop" transform="translate(-709.000000, -2617.000000)">
            <g id="Movil" transform="translate(1.000000, 2232.000000)">
                <g id="Gafas-Realidad-Virtual_ic" transform="translate(708.000000, 385.000000)">
                    <g id="Group-9" transform="translate(0.000000, 0.795113)">
                        <g id="Group-4">
                            <mask id="mask-2" fill="white">
                                <use xlink:href="#path-1"></use>
                            </mask>
                            <g id="Clip-3"></g>
                            <path d="M1.3001625,2.374125 C1.3001625,1.7915625 1.7746625,1.317875 2.357225,1.317875 L22.890725,1.317875 C23.4732875,1.317875 23.9477875,1.7915625 23.9477875,2.374125 L23.9477875,11.857625 C23.9477875,12.441 23.4732875,12.9146875 22.890725,12.9146875 L16.14535,12.9146875 L16.14535,11.662625 C16.14535,10.72175 15.7781,9.83775 15.1126625,9.1706875 C14.44885,8.5076875 13.5656625,8.1420625 12.6247875,8.1420625 C10.6829125,8.1420625 9.1034125,9.7215625 9.1034125,11.662625 L9.1034125,12.9146875 L2.357225,12.9146875 C1.7746625,12.9146875 1.3001625,12.441 1.3001625,11.857625 L1.3001625,2.374125 Z M2.357225,14.2146875 L9.7534125,14.2146875 C10.1125375,14.2146875 10.4034125,13.9238125 10.4034125,13.563875 L10.4034125,11.662625 C10.4034125,10.439 11.3995375,9.4420625 12.6247875,9.4420625 C13.2179125,9.4420625 13.7752875,9.672 14.1929125,10.0904375 C14.612975,10.5113125 14.8445375,11.0686875 14.8445375,11.662625 L14.8445375,13.563875 C14.8445375,13.9238125 15.1354125,14.2146875 15.49535,14.2146875 L22.890725,14.2146875 C24.190725,14.2146875 25.2486,13.1568125 25.2486,11.857625 L25.2486,2.374125 C25.2486,1.074125 24.190725,0.017875 22.890725,0.017875 L2.357225,0.017875 C1.057225,0.017875 -0.00065,1.074125 -0.00065,2.374125 L-0.00065,11.857625 C-0.00065,13.1568125 1.057225,14.2146875 2.357225,14.2146875 L2.357225,14.2146875 Z" id="Fill-2" fill="#FFFFFF" mask="url(#mask-2)"></path>
                        </g>
                        <path d="M6.28460625,4.06176875 C7.00123125,4.06176875 7.58541875,4.64514375 7.58541875,5.36258125 C7.58541875,6.07920625 7.00123125,6.66258125 6.28460625,6.66258125 C5.56716875,6.66258125 4.98379375,6.07920625 4.98379375,5.36258125 C4.98379375,4.64514375 5.56716875,4.06176875 6.28460625,4.06176875 M6.28460625,7.96339375 C7.71866875,7.96339375 8.88541875,6.79583125 8.88541875,5.36258125 C8.88541875,3.92851875 7.71866875,2.76095625 6.28460625,2.76095625 C4.84973125,2.76095625 3.68379375,3.92851875 3.68379375,5.36258125 C3.68379375,6.79583125 4.84973125,7.96339375 6.28460625,7.96339375" id="Fill-5" fill="#FFFFFF"></path>
                        <path d="M18.9632625,4.06176875 C19.6807,4.06176875 20.264075,4.64514375 20.264075,5.36258125 C20.264075,6.07920625 19.6807,6.66258125 18.9632625,6.66258125 C18.245825,6.66258125 17.66245,6.07920625 17.66245,5.36258125 C17.66245,4.64514375 18.245825,4.06176875 18.9632625,4.06176875 M18.9632625,7.96339375 C20.3981375,7.96339375 21.564075,6.79583125 21.564075,5.36258125 C21.564075,3.92851875 20.3981375,2.76095625 18.9632625,2.76095625 C17.5292,2.76095625 16.36245,3.92851875 16.36245,5.36258125 C16.36245,6.79583125 17.5292,7.96339375 18.9632625,7.96339375" id="Fill-7" fill="#FFFFFF"></path>
                    </g>
                </g>
            </g>
        </g>
    </g>
</svg>