<?xml version="1.0" encoding="UTF-8"?>
<svg width="25px" height="17px" viewBox="0 0 25 17" version="1.1" xmlns="http://www.w3.org/2000/svg" xmlns:xlink="http://www.w3.org/1999/xlink">
    <!-- Generator: Sketch 59 (86127) - https://sketch.com -->
    <title>Group 3</title>
    <desc>Created with Sketch.</desc>
    <defs>
        <polygon id="path-1" points="0.3836625 0.639516129 24.7082875 0.639516129 24.7082875 16.8369355 0.3836625 16.8369355"></polygon>
    </defs>
    <g id="Landing-Travel" stroke="none" stroke-width="1" fill="none" fill-rule="evenodd">
        <g id="LP-Travel-Gamers_Desktop" transform="translate(-709.000000, -2669.000000)">
            <g id="Movil" transform="translate(1.000000, 2232.000000)">
                <g id="Hatch_ic" transform="translate(708.000000, 437.000000)">
                    <g id="Group-3" transform="translate(0.000000, 0.166613)">
                        <mask id="mask-2" fill="white">
                            <use xlink:href="#path-1"></use>
                        </mask>
                        <g id="Clip-2"></g>
                        <path d="M20.053475,6.83854839 L20.053475,6.82 C20.027475,6.81758065 20.0055375,6.82322581 19.98035,6.82322581 L19.9827875,6.82322581 C19.4871625,6.84983871 19.0857875,7.24580645 19.0744125,7.74419355 C19.0614125,8.245 19.4416625,8.65790323 19.93485,8.70951613 C19.959225,8.71112903 19.9827875,8.71596774 20.0055375,8.7183871 L20.007975,8.69903226 C20.46785,8.63854839 20.830225,8.26274194 20.8416,7.78935484 C20.85135,7.31435484 20.5101,6.92 20.053475,6.83854839 M18.4195375,8.38129032 L18.4195375,8.36193548 C18.395975,8.36193548 18.3724125,8.36677419 18.34885,8.36677419 L18.34885,8.3683871 C17.853225,8.39177419 17.45185,8.78854839 17.4380375,9.28935484 C17.4282875,9.78774194 17.807725,10.2030645 18.3025375,10.2514516 L18.3001,10.2514516 C18.3252875,10.253871 18.34885,10.261129 18.3724125,10.261129 L18.3724125,10.2417742 C18.8339125,10.1820968 19.1962875,9.80709677 19.2076625,9.33209677 C19.2206625,8.85709677 18.876975,8.46274194 18.4195375,8.38129032 M23.3701,13.7772581 C22.900475,15.1046774 21.13085,16.0933871 19.4806625,15.4240323 C18.6941625,15.1046774 18.2741,14.4095161 17.8231625,13.7772581 C17.5209125,13.3530645 16.9277875,12.2877419 16.2794125,12.0740323 C15.39135,11.7845161 13.7541625,12.0191935 12.5606,12.0191935 C11.0924125,12.0191935 9.8281625,11.8054839 8.9002875,12.0740323 C8.2047875,12.2764516 7.781475,13.2022581 7.35735,13.7772581 C6.9324125,14.3562903 6.4514125,15.0409677 5.7551,15.3659677 C3.829475,16.2716129 1.6511625,14.8853226 1.5821,12.8691935 C1.5585375,12.178871 1.850225,11.3498387 2.0395375,10.5425806 C2.2134125,9.79016129 2.3872875,8.99741935 2.552225,8.27241935 C2.9211,6.67 3.0892875,4.98693548 3.754725,3.89983871 C4.472975,2.72806452 5.8517875,2.04258065 7.29885,1.91435484 C7.8156,1.86919355 8.6086,1.88612903 9.0725375,2.02645161 C10.6601625,2.51354839 11.04935,3.73612903 13.533975,3.33290323 C14.5341625,3.16919355 15.2101625,2.295 16.1055375,2.02645161 C18.4991625,1.31354839 20.73435,2.6216129 21.538725,4.18370968 C22.107475,5.28935484 22.3292875,7.09016129 22.62585,8.44096774 C22.80135,9.2466129 22.9281,9.96032258 23.0832875,10.6546774 C23.29535,11.6054839 23.7414125,12.7280645 23.3701,13.7772581 M24.3832875,10.9256452 C24.3345375,10.7385484 24.2890375,10.5635484 24.2532875,10.3990323 C24.1801625,10.0667742 24.1111,9.72806452 24.037975,9.3683871 C23.963225,8.9933871 23.8860375,8.60467742 23.7950375,8.18935484 C23.7251625,7.86758065 23.6585375,7.51677419 23.58785,7.1433871 C23.35385,5.90548387 23.1109125,4.62483871 22.60635,3.64419355 C22.1765375,2.81193548 21.45585,2.05870968 20.5775375,1.5216129 C19.6317875,0.944193548 18.5544125,0.639354839 17.4640375,0.639354839 C16.8904125,0.639354839 16.3200375,0.72483871 15.76185,0.890967742 C15.184975,1.06435484 14.7210375,1.37806452 14.3131625,1.65387097 C13.9459125,1.89903226 13.6322875,2.11435484 13.3397875,2.16112903 C13.0765375,2.20387097 12.8336,2.22483871 12.6191,2.22483871 C11.925225,2.22483871 11.58885,2.01677419 11.028225,1.6716129 C10.595975,1.40306452 10.1092875,1.10064516 9.42435,0.893387097 C8.9141,0.738548387 8.2844125,0.706290323 7.846475,0.706290323 C7.6206,0.706290323 7.3955375,0.714354839 7.196475,0.731290323 C5.2781625,0.89983871 3.6109125,1.85467742 2.7326,3.28451613 C2.1289125,4.26758065 1.89085,5.48774194 1.6397875,6.78129032 C1.5601625,7.18854839 1.4789125,7.60790323 1.3862875,8.00629032 L1.15635,9.02 C1.0645375,9.43612903 0.96785,9.86435484 0.8744125,10.2732258 C0.8289125,10.47 0.7769125,10.6651613 0.72085,10.8748387 C0.553475,11.4982258 0.3836625,12.1441935 0.3836625,12.7901613 L0.3861,12.911129 L0.3861,12.9087097 C0.4226625,13.9829032 0.881725,14.9804839 1.6804125,15.7208065 C2.45635,16.4401613 3.4581625,16.8369355 4.505475,16.8369355 C5.1156625,16.8369355 5.7087875,16.703871 6.2686,16.4401613 C7.2046,15.9990323 7.7920375,15.2006452 8.2649125,14.5587097 L8.3226,14.4780645 C8.4436625,14.3143548 8.5574125,14.1393548 8.66385,13.9708065 C8.8174125,13.7345161 9.1001625,13.2974194 9.250475,13.2095161 C9.45685,13.1522581 9.7339125,13.1272581 10.1239125,13.1272581 C10.4310375,13.1272581 10.7787875,13.1433871 11.1460375,13.161129 C11.5726,13.1820968 12.0560375,13.2054839 12.5606,13.2054839 C12.95385,13.2054839 13.38285,13.1820968 13.797225,13.161129 C14.203475,13.1393548 14.6211,13.1159677 14.99485,13.1159677 C15.493725,13.1159677 15.74885,13.1570968 15.877225,13.195 C15.9072875,13.2143548 16.007225,13.2909677 16.176225,13.4998387 C16.3395375,13.7046774 16.4955375,13.9409677 16.6336625,14.1474194 C16.7084125,14.2627419 16.7799125,14.3716129 16.8465375,14.4651613 L16.9862875,14.661129 C17.4364125,15.3046774 17.999475,16.1054839 19.029725,16.5232258 C19.52535,16.7240323 20.046975,16.8264516 20.5775375,16.8264516 C21.42335,16.8264516 22.279725,16.5603226 22.9906625,16.0740323 C23.69835,15.5917742 24.2346,14.9167742 24.49785,14.1708065 C24.6376,13.7780645 24.7082875,13.3482258 24.7082875,12.8966129 C24.7082875,12.1764516 24.5360375,11.5119355 24.3832875,10.9256452 M16.865225,6.75951613 L16.865225,6.74096774 C16.839225,6.73854839 16.816475,6.745 16.7921,6.745 C16.7921,6.745 16.7945375,6.745 16.7945375,6.74741935 C16.2989125,6.77 15.8975375,7.16677419 15.8861625,7.66516129 C15.8731625,8.16596774 16.2534125,8.58129032 16.7474125,8.63129032 L16.7457875,8.63129032 C16.770975,8.63370968 16.7921,8.63854839 16.8181,8.63854839 L16.8181,8.62 C17.2771625,8.56112903 17.64035,8.18290323 17.65335,7.71032258 C17.6639125,7.23451613 17.320225,6.84096774 16.865225,6.75951613 M8.7865375,6.72483871 C8.782475,6.71516129 8.7800375,6.70629032 8.775975,6.69580645 C8.756475,6.65145161 8.72885,6.61274194 8.69635,6.57645161 C8.6841625,6.56516129 8.6727875,6.55306452 8.6606,6.54258065 L8.6402875,6.52241935 C8.642725,6.52483871 8.6451625,6.52967742 8.6476,6.53370968 C8.5631,6.46596774 8.46235,6.4183871 8.346975,6.4183871 L7.638475,6.4183871 L7.638475,5.71516129 C7.638475,5.65790323 7.625475,5.60306452 7.6067875,5.55145161 C7.6019125,5.5433871 7.599475,5.53290323 7.5954125,5.5216129 C7.5742875,5.47887097 7.5450375,5.43854839 7.51335,5.40306452 C7.5027875,5.39177419 7.4906,5.38129032 7.4767875,5.37080645 C7.4711,5.36435484 7.4670375,5.35548387 7.4581,5.34903226 C7.459725,5.35306452 7.4621625,5.35548387 7.4646,5.36032258 C7.3801,5.29177419 7.27935,5.2466037 7.1664125,5.2466037 L6.6919125,5.2466037 C6.4311,5.245 6.2190375,5.45548387 6.2190375,5.71516129 L6.2190375,6.4183871 L5.51135,6.4183871 C5.2489125,6.4183871 5.03685,6.62967742 5.03685,6.88935484 L5.03685,7.35951613 C5.03685,7.47403226 5.0831625,7.57322581 5.1497875,7.65548387 C5.14735,7.65306452 5.1432875,7.65306452 5.14085,7.64822581 C5.14735,7.65709677 5.1546625,7.66112903 5.16035,7.66919355 C5.171725,7.68048387 5.181475,7.6933871 5.1952875,7.70306452 C5.23185,7.73532258 5.2732875,7.76354839 5.3155375,7.78532258 C5.3261,7.78935484 5.3350375,7.79177419 5.3447875,7.79580645 C5.3967875,7.81516129 5.4504125,7.82806452 5.51135,7.82806452 L6.2190375,7.82806452 L6.2190375,8.53290323 C6.2190375,8.64580645 6.2661625,8.74741935 6.335225,8.82887097 C6.33035,8.82725806 6.325475,8.82483871 6.3246625,8.82241935 C6.33035,8.83129032 6.33685,8.83612903 6.3441625,8.8433871 C6.354725,8.85467742 6.3652875,8.86516129 6.3782875,8.87806452 C6.41485,8.90951613 6.4530375,8.93774194 6.497725,8.95870968 C6.5091,8.96354839 6.517225,8.96516129 6.526975,8.96758065 C6.5797875,8.98854839 6.6334125,9.00145161 6.6919125,9.00145161 L7.1664125,9.00145161 C7.4256,9.00145161 7.638475,8.79096774 7.638475,8.53290323 L7.638475,7.82806452 L8.3486,7.82806452 C8.6110375,7.82806452 8.821475,7.6183871 8.821475,7.35951613 L8.821475,6.88935484 C8.821475,6.82967742 8.8060375,6.77645161 8.7865375,6.72483871 M11.9114125,8.65225806 L11.236225,8.65225806 C11.0972875,8.65225806 10.982725,8.76516129 10.982725,8.90145161 C10.982725,9.04177419 11.0972875,9.15306452 11.236225,9.15306452 L11.9114125,9.15306452 C12.05035,9.15306452 12.1641,9.03935484 12.1641,8.90387097 C12.1641,8.76516129 12.05035,8.65225806 11.9114125,8.65225806 M13.92235,8.65225806 L13.247975,8.65225806 C13.108225,8.65225806 12.994475,8.76516129 12.994475,8.90145161 C12.994475,9.04177419 13.108225,9.15306452 13.247975,9.15306452 L13.92235,9.15306452 C14.0621,9.15306452 14.17585,9.03935484 14.17585,8.90145161 C14.17585,8.76516129 14.0621,8.65225806 13.92235,8.65225806 M18.4520375,7.09580645 L18.4520375,7.07483871 C18.9119125,7.0183871 19.2742875,6.64016129 19.2872875,6.16516129 C19.29785,5.69258065 18.9541625,5.29822581 18.4991625,5.21677419 L18.4991625,5.19580645 C17.9710375,5.18290323 17.531475,5.59822581 17.518475,6.12241935 C17.5046625,6.64903226 17.9239125,7.08370968 18.4520375,7.09580645" id="Fill-1" fill="#FFFFFF" mask="url(#mask-2)"></path>
                    </g>
                </g>
            </g>
        </g>
    </g>
</svg>