<svg xmlns="http://www.w3.org/2000/svg" width="74" height="70" viewBox="0 0 74 70"><defs><linearGradient id="m1rptncjqa" x1="26.824%" x2="73.176%" y1="10.73%" y2="89.27%"><stop offset="0%" stop-color="#FFF" stop-opacity=".3"/><stop offset="100%" stop-color="#F6F6F6" stop-opacity="0"/></linearGradient></defs><g transform="translate(.535)" fill="none" fill-rule="evenodd"><ellipse cx="36.5" cy="35" fill="#FFF" fill-rule="nonzero" rx="36.25" ry="35"/><g transform="translate(4.333 1.667)"><rect width="26.667" height="53.333" x="18.667" y="5.333" fill="#EBEBEB" fill-rule="nonzero" rx="2.667"/><path fill="#000" fill-rule="nonzero" d="M42.667 58H21.333a2.667 2.667 0 01-2.666-2.667V56a2.667 2.667 0 002.666 2.667h21.334A2.667 2.667 0 0045.333 56v-.667A2.667 2.667 0 0142.667 58z" opacity=".06"/><rect width="24" height="40.667" x="20" y="10.667" fill="#333" fill-rule="nonzero" rx=".667"/><rect width="24" height="40.667" x="20" y="10.667" fill="url(#m1rptncjqa)" fill-rule="nonzero" opacity=".5" rx=".667"/><path d="M43.333 11c.184 0 .334.15.334.334v39.333c0 .184-.15.333-.334.333H20.667a.334.334 0 01-.334-.333V11.334c0-.184.15-.334.334-.334h22.666zm0-.333H20.667a.666.666 0 00-.667.667v39.333c0 .368.298.667.667.667h22.666a.667.667 0 00.667-.667V11.334a.666.666 0 00-.667-.667z" fill="#333" fill-rule="nonzero" opacity=".24"/><rect width="5.333" height="1" x="29.333" y="8" fill="#4A4D4E" fill-rule="nonzero" rx=".237"/><rect width="1" height="1" x="27.333" y="8" fill="#E60000" fill-rule="nonzero" rx=".237"/><circle cx="32" cy="54.667" r="2" fill="#E60000" fill-rule="nonzero"/><path d="M0 0h64v64H0z"/><path fill="#EBEBEB" fill-rule="nonzero" d="M37.61 25.057l-4.667-4.667a1.335 1.335 0 00-1.886 0l-4.667 4.667a1.333 1.333 0 101.887 1.886l2.39-2.39v16.114a1.333 1.333 0 002.666 0V24.553l2.39 2.39a1.335 1.335 0 001.887-1.886z"/><path fill="#333" fill-rule="nonzero" d="M37.61 25.057l-4.667-4.667a1.335 1.335 0 00-1.886 0l-4.667 4.667a1.333 1.333 0 101.887 1.886l2.39-2.39v16.114a1.333 1.333 0 002.666 0V24.553l2.39 2.39a1.335 1.335 0 001.887-1.886z" opacity=".06"/></g></g></svg>