<svg xmlns="http://www.w3.org/2000/svg" width="74" height="70" viewBox="0 0 74 70"><defs><linearGradient id="7203ogm2na" x1="115.389%" x2="24.149%" y1="6.433%" y2="116.215%"><stop offset="0%"/><stop offset="100%" stop-opacity="0"/></linearGradient></defs><g transform="translate(.923)" fill="none" fill-rule="evenodd"><ellipse cx="36.077" cy="35" fill="#FFF" fill-rule="nonzero" rx="36.077" ry="35"/><path d="M4 3h64v64H4z"/><path d="M4 3h64v64H4z"/><path fill="#E60000" fill-rule="nonzero" d="M9.367 32.123l3.333-10a.664.664 0 01.633-.456h16v24H14.667a5.334 5.334 0 01-5.334-5.334v-8c0-.071.011-.142.034-.21z"/><path fill="#EBEBEB" fill-rule="nonzero" d="M34.667 16.333h22.666a5.334 5.334 0 015.334 5.334v18.666a5.334 5.334 0 01-5.334 5.334h-28v-24a5.334 5.334 0 015.334-5.334zm-9.334 16H12.167l2.363-7.086c.18-.547.523-.914 1.097-.914h9.706c.737 0 1.334.597 1.334 1.334V31c0 .736-.597 1.333-1.334 1.333z"/><path fill="#000" fill-rule="nonzero" d="M25.333 32.333H12.167l2.363-7.086c.18-.547.523-.914 1.097-.914h9.706c.737 0 1.334.597 1.334 1.334V31c0 .736-.597 1.333-1.334 1.333z" opacity=".06"/><path fill="#4A4D4E" fill-rule="nonzero" d="M24.667 35H26a.667.667 0 100-1.333h-1.333a.666.666 0 100 1.333z"/><path fill="#000" fill-rule="nonzero" d="M14.667 45h14.666v.667H14.667a5.334 5.334 0 01-5.334-5.334v-.666A5.334 5.334 0 0014.667 45z" opacity=".12"/><path fill="#000" fill-rule="nonzero" d="M56.62 45h.713a5.334 5.334 0 005.334-5.333v.666a5.334 5.334 0 01-5.334 5.334h-28V45H56.62z" opacity=".06"/><path fill="#000" fill-rule="nonzero" d="M52 39a6.667 6.667 0 016.667 6.453 5.33 5.33 0 01-1.49.214H45.333A6.667 6.667 0 0152 39zm-29.333 0a6.667 6.667 0 016.5 5.203l.166 1.464H16A6.667 6.667 0 0122.667 39z" opacity=".12"/><path fill="#4A4D4E" fill-rule="nonzero" d="M46.667 45.667a5.333 5.333 0 1110.666-.002 5.333 5.333 0 01-10.666.002z"/><path fill="#EBEBEB" fill-rule="nonzero" d="M52 43a2.667 2.667 0 110 5.334A2.667 2.667 0 0152 43z"/><path fill="#000" fill-rule="nonzero" d="M52 50.333a5.333 5.333 0 005.317-5c0 .11.016.22.016.334a5.333 5.333 0 11-10.666 0c0-.114 0-.224.016-.334a5.333 5.333 0 005.317 5z" opacity=".12"/><path fill="url(#7203ogm2na)" fill-rule="nonzero" d="M10.72 42.667a5.333 5.333 0 01-5.333-5.334v-1.07l17.43-17.596h2.516v24H10.72z" opacity=".2" transform="translate(4 3)"/><path fill="#4A4D4E" fill-rule="nonzero" d="M17.333 45.667a5.334 5.334 0 1110.668 0 5.334 5.334 0 01-10.668 0z"/><path fill="#EBEBEB" fill-rule="nonzero" d="M22.667 43a2.667 2.667 0 11-.001 5.333A2.667 2.667 0 0122.667 43z"/><path d="M52 43a2.667 2.667 0 11-.001 5.333A2.667 2.667 0 0152 43zm-29.333 0a2.667 2.667 0 11-.001 5.333A2.667 2.667 0 0122.667 43z" fill="#000" fill-rule="nonzero" opacity=".12"/><path fill="#000" fill-rule="nonzero" d="M22.667 50.333a5.332 5.332 0 005.316-5c0 .11.017.22.017.334a5.333 5.333 0 01-10.667 0c0-.114 0-.224.017-.334a5.333 5.333 0 005.317 5z" opacity=".12"/><path stroke="#666" stroke-linecap="round" stroke-linejoin="round" stroke-width="1.333" d="M38.973 24.157l3.984 3.983m-2.65 6.693h9.21c2.743 0 5.156-2 5.45-4.736a5.332 5.332 0 00-5.3-5.931h-9.694m2.99-3.999l-3.99 3.99"/></g></svg>