<svg xmlns="http://www.w3.org/2000/svg" width="44" height="44" viewBox="0 0 44 44">
    <g fill="none" fill-rule="evenodd" transform="translate(-10 -10)">
        <circle cx="32" cy="32" r="32" fill="#FFF"/>
        <g>
            <path d="M0 0H48V48H0z" transform="translate(10 10)"/>
            <path stroke="#666" stroke-linejoin="round" d="M18.5 27.5h-3.44l-5.59 6v-6H8c-1.933 0-3.5-1.567-3.5-3.5V14c0-1.933 1.567-3.5 3.5-3.5h18c.928 0 1.818.369 2.475 1.025.656.657 1.025 1.547 1.025 2.475v5.5" transform="translate(10 10)"/>
            <path stroke="#666" stroke-linecap="round" stroke-linejoin="round" d="M32.5 37.5l6.03 6v-6H40c1.933 0 3.5-1.567 3.5-3.5V23c0-1.933-1.567-3.5-3.5-3.5H22c-1.933 0-3.5 1.567-3.5 3.5v11c0 1.933 1.567 3.5 3.5 3.5h10.5z" transform="translate(10 10)"/>
            <path stroke="#E60000" stroke-linecap="round" d="M37.5 25.5L24.5 25.5M37.5 31.5L24.5 31.5" transform="translate(10 10)"/>
        </g>
    </g>
</svg>
