<svg xmlns="http://www.w3.org/2000/svg" width="30" height="30" viewBox="0 0 30 30">
    <g fill="none" fill-rule="evenodd">
        <path fill="#D8D8D8" fill-opacity="0" d="M0 0h30v30H0z"/>
        <path stroke="#E60000" stroke-linecap="round" stroke-linejoin="round" stroke-width=".75" d="M4.556 4.555l5.225 7.768M18.177 20.319l7.257 5.119"/>
        <path stroke="#666" stroke-linecap="round" stroke-linejoin="round" stroke-width=".75" d="M18.177 20.313l2.06-1.563c.544-.28 1.105-.347 1.443-.14.512.313 4.804 3.188 5.167 3.438.362.25.528.977.02 1.68s-2.836 3.478-3.81 3.438c-.976-.041-5.034-.157-12.607-7.774-7.573-7.617-7.617-11.61-7.638-12.575-.02-.964 2.826-3.223 3.544-3.71.719-.485 1.447-.298 1.699.05.284.398 3.082 4.677 3.39 5.168.21.336.127.89-.165 1.425-.292.534-1.499 2.573-1.499 2.573s.82 1.415 3.617 4.227c1.33 1.364 4.779 3.762 4.779 3.762z"/>
    </g>
</svg>
