<svg xmlns="http://www.w3.org/2000/svg" width="20" height="20" viewBox="0 0 20 20">
    <g fill="none" fill-rule="evenodd" stroke="#E60000">
        <path d="M18.57 7.836a3.198 3.198 0 0 1-.014 4.523l-.052.052a3.2 3.2 0 0 1-2.276 3.911l-.07.017a3.2 3.2 0 0 1-3.925 2.25l-.074-.02a3.199 3.199 0 0 1-4.525-.016l-.05-.05a3.198 3.198 0 0 1-3.93-2.346 3.201 3.201 0 0 1-2.25-3.926l.022-.074a3.2 3.2 0 0 1 .029-4.525l.047-.045a3.198 3.198 0 0 1 2.275-3.913l.065-.016a3.202 3.202 0 0 1 3.927-2.25l.073.022a3.201 3.201 0 0 1 4.526.014l.05.052a3.2 3.2 0 0 1 3.91 2.274c0 .024.012.047.018.071a3.198 3.198 0 0 1 2.229 4l-.005-.005z"/>
        <path d="M10 3.5a6.5 6.5 0 1 1 0 13 6.5 6.5 0 0 1 0-13z"/>
        <path d="M12.75 8l-3.981 4-1.519-1.5"/>
    </g>
</svg>
