<svg xmlns="http://www.w3.org/2000/svg" xmlns:xlink="http://www.w3.org/1999/xlink" width="44" height="44" viewBox="0 0 44 44"><defs><filter id="a" width="107.1%" height="109.4%" x="-3.5%" y="-4%" filterUnits="objectBoundingBox"><feOffset dy="2" in="SourceAlpha" result="shadowOffsetOuter1"/><feGaussianBlur in="shadowOffsetOuter1" result="shadowBlurOuter1" stdDeviation="4"/><feComposite in="shadowBlurOuter1" in2="SourceAlpha" operator="out" result="shadowBlurOuter1"/><feColorMatrix in="shadowBlurOuter1" values="0 0 0 0 0 0 0 0 0 0 0 0 0 0 0 0 0 0 0.16 0"/></filter><path id="b" d="M6 0h356a6 6 0 016 6v266a6 6 0 01-6 6H6a6 6 0 01-6-6V6a6 6 0 016-6z"/></defs><g fill="none" fill-rule="evenodd"><g transform="translate(-24 -12)"><use fill="#000" filter="url(#a)" xlink:href="#b"/><use fill="#FFF" fill-opacity=".91" xlink:href="#b"/></g><path d="M0 0h44v44H0z"/><path stroke="#666" stroke-linecap="round" stroke-linejoin="round" stroke-width=".917" d="M31.297 9.543H12.703a1.776 1.776 0 00-1.27.54l-6.792 6.875a1.785 1.785 0 000 2.521l16.087 16.308a1.785 1.785 0 002.544 0l16.087-16.308a1.785 1.785 0 000-2.52l-6.792-6.876a1.776 1.776 0 00-1.27-.54z"/><path stroke="#E60000" stroke-linecap="round" stroke-width=".917" d="M10.203 18.737c6.509-6.516 17.067-6.52 23.583-.012v.012m-20.212 3.57c4.653-4.652 12.197-4.652 16.85 0m-13.321 3.504a6.928 6.928 0 019.794 0"/><circle cx="22" cy="29.991" r="1" stroke="#E60000" stroke-linecap="round" stroke-width=".917"/><circle cx="22" cy="29.991" r="1" fill="#E60000" stroke="#E60000" stroke-linecap="round" stroke-width=".917"/><circle cx="22" cy="29.991" r="1" stroke="#E60000" stroke-linecap="round" stroke-width=".917"/></g></svg>