<svg xmlns="http://www.w3.org/2000/svg" xmlns:xlink="http://www.w3.org/1999/xlink" width="95" height="96" viewBox="0 0 95 96">
    <defs>
        <filter id="prefix__a" width="104.9%" height="109.3%" x="-2.4%" y="-3.9%" filterUnits="objectBoundingBox">
            <feOffset dy="2" in="SourceAlpha" result="shadowOffsetOuter1"/>
            <feGaussianBlur in="shadowOffsetOuter1" result="shadowBlurOuter1" stdDeviation="4"/>
            <feColorMatrix in="shadowBlurOuter1" values="0 0 0 0 0 0 0 0 0 0 0 0 0 0 0 0 0 0 0.16 0"/>
        </filter>
        <path id="prefix__b" d="M6 0h521c3.314 0 6 2.686 6 6v268c0 3.314-2.686 6-6 6H6c-3.314 0-6-2.686-6-6V6c0-3.314 2.686-6 6-6z"/>
    </defs>
    <g fill="none" fill-rule="evenodd">
        <path fill="#F2F2F2" d="M0 0H1280V4054H0z" transform="translate(-593 -2338)"/>
        <g>
            <g fill-rule="nonzero" transform="translate(-593 -2338) translate(350 2292) translate(24)">
                <use fill="#000" filter="url(#prefix__a)" xlink:href="#prefix__b"/>
                <use fill="#FFF" xlink:href="#prefix__b"/>
            </g>
            <g>
                <path fill="#EBEBEB" fill-rule="nonzero" d="M71.925 36.525s.145-.745.185-1c.815-4.93-2.5-9.63-2.5-9.63-1.889-3.007-4.383-5.587-7.325-7.575-3.213-2.183-6.778-3.793-10.54-4.76-4.134-1.073-8.413-1.48-12.675-1.205-4.286.25-8.505 1.178-12.5 2.75-3.65 1.42-7.03 3.448-10 6-2.717 2.337-4.928 5.204-6.5 8.425C8.556 32.627 7.844 36.056 8 39.5c.108 2.167.571 4.302 1.37 6.32.805 2.016 1.906 3.902 3.265 5.595 1.417 1.764 3.055 3.337 4.875 4.68 1.865 1.385 5.755 3.075 8 4.06-2.935 6.895-9.8 10.96-9.8 10.96 2.818.233 5.655.119 8.445-.34 1.976-.324 3.919-.826 5.805-1.5 0 0 2.32-.825 8.975-4.5l.855-.47" transform="translate(-593 -2338) translate(350 2292) translate(242 46)"/>
                <path d="M0 0H96V96H0z" transform="translate(-593 -2338) translate(350 2292) translate(242 46)"/>
                <path fill="#E60000" fill-rule="nonzero" d="M72.825 36.785l-1.175-.34c-3.23-.842-6.574-1.16-9.905-.945-3.342.199-6.632.928-9.745 2.16-2.853 1.12-5.494 2.718-7.81 4.725-2.132 1.835-3.868 4.086-5.1 6.615-1.17 2.427-1.717 5.108-1.59 7.8.14 2.681.956 5.283 2.37 7.565 1.474 2.358 3.424 4.383 5.725 5.945 2.508 1.712 5.294 2.976 8.235 3.735 3.228.845 6.57 1.168 9.9.955l.325-.025c1.123.767 2.302 1.45 3.525 2.045 1.49.724 3.043 1.308 4.64 1.745 1.848.504 3.746.8 5.66.88 2.21.091 4.42-.092 6.585-.545 0 0-6.915-4-7.105-8.155 1.637-.957 3.161-2.094 4.545-3.39 1.31-1.224 2.458-2.608 3.42-4.12.921-1.448 1.627-3.023 2.095-4.675 1.202-4.274.548-8.857-1.8-12.625-.961-1.55-2.14-2.955-3.5-4.17-2.797-2.218-5.939-3.963-9.3-5.165" transform="translate(-593 -2338) translate(350 2292) translate(242 46)"/>
                <g style="mix-blend-mode:multiply" fill="#000" fill-rule="nonzero">
                    <g opacity=".06">
                        <path d="M31.395 26.05l-.42.23c-6.65 3.66-8.975 4.5-8.975 4.5-1.886.674-3.829 1.176-5.805 1.5-2.34.385-4.715.526-7.085.42-.83.605-1.365.92-1.365.92 2.818.233 5.655.119 8.445-.34 1.976-.324 3.919-.826 5.805-1.5 0 0 2.32-.825 8.975-4.5l.855-.47c-.147-.25-.29-.503-.43-.76zM17.17 22.5c.135-.275.26-.55.385-.835-2.265-1-6.155-2.675-8-4.06-1.82-1.343-3.458-2.916-4.875-4.68-1.36-1.693-2.46-3.579-3.265-5.595C.6 5.312.122 3.173 0 1V.425 2c.108 2.167.571 4.302 1.37 6.32.805 2.016 1.906 3.902 3.265 5.595 1.417 1.764 3.055 3.337 4.875 4.68 1.785 1.315 5.36 2.905 7.66 3.905z" transform="translate(-593 -2338) translate(350 2292) translate(242 46) translate(8 37.5)"/>
                    </g>
                    <g opacity=".12">
                        <path d="M40.88 24.63c-1.914-.08-3.812-.376-5.66-.88-1.597-.437-3.15-1.02-4.64-1.745-1.223-.595-2.402-1.278-3.525-2.045l-.325.025c-3.331.217-6.675-.103-9.905-.945-2.94-.759-5.727-2.023-8.235-3.735-2.102-1.433-3.916-3.25-5.345-5.355-.13-.195-.26-.39-.38-.585l-.03-.055C1.441 7.045.637 4.466.495 1.81v-.295V2.81c.123 2.362.774 4.667 1.905 6.745.137.257.282.51.435.76l.03.055c1.474 2.358 3.424 4.383 5.725 5.945 2.508 1.712 5.294 2.976 8.235 3.735 3.23.844 6.574 1.165 9.905.95l.325-.025c1.123.767 2.302 1.45 3.525 2.045 1.49.724 3.043 1.308 4.64 1.745 1.848.504 3.746.8 5.66.88 2.21.091 4.42-.092 6.585-.545 0 0-.5-.285-1.21-.78-1.776.286-3.577.39-5.375.31zM50.415 3.75c-.468 1.652-1.174 3.227-2.095 4.675-.962 1.512-2.11 2.896-3.42 4.12-1.384 1.296-2.908 2.433-4.545 3.39.017.306.067.61.15.905 1.58-.936 3.054-2.04 4.395-3.295 1.31-1.224 2.458-2.608 3.42-4.12.921-1.448 1.627-3.023 2.095-4.675.421-1.515.615-3.083.575-4.655-.049 1.237-.242 2.463-.575 3.655z" transform="translate(-593 -2338) translate(350 2292) translate(242 46) translate(8 37.5) translate(29 16.5)"/>
                    </g>
                </g>
            </g>
        </g>
    </g>
</svg>
