<?xml version="1.0" encoding="UTF-8"?>
<svg width="48px" height="48px" viewBox="0 0 48 48" version="1.1" xmlns="http://www.w3.org/2000/svg" xmlns:xlink="http://www.w3.org/1999/xlink">
    <title>Icons+Indicators / HiFi-Icons / location / light_theme</title>
    <defs>
        <path d="M6,0 L374,0 C377.313708,-6.08718376e-16 380,2.6862915 380,6 L380,332 C380,335.313708 377.313708,338 374,338 L6,338 C2.6862915,338 4.05812251e-16,335.313708 0,332 L0,6 C-4.05812251e-16,2.6862915 2.6862915,6.08718376e-16 6,0 Z" id="path-1"></path>
        <filter x="-3.4%" y="-3.3%" width="106.8%" height="107.7%" filterUnits="objectBoundingBox" id="filter-2">
            <feOffset dx="0" dy="2" in="SourceAlpha" result="shadowOffsetOuter1"></feOffset>
            <feGaussianBlur stdDeviation="4" in="shadowOffsetOuter1" result="shadowBlurOuter1"></feGaussianBlur>
            <feColorMatrix values="0 0 0 0 0   0 0 0 0 0   0 0 0 0 0  0 0 0 0.16 0" type="matrix" in="shadowBlurOuter1"></feColorMatrix>
        </filter>
    </defs>
    <g id="Landing-Por-Ser-Tu" stroke="none" stroke-width="1" fill="none" fill-rule="evenodd">
        <g id="Landing-PorSerTu---Desktop-WS2" transform="translate(-66.000000, -1475.000000)">
            <rect fill="#F2F2F2" x="0" y="0" width="1280" height="4054"></rect>
            <g id="Group" transform="translate(50.000000, 1152.000000)">
                <g id="Background" transform="translate(0.000000, 104.000000)">
                    <g id="Group" fill-rule="nonzero">
                        <g id="Card-bg">
                            <use fill="black" fill-opacity="1" filter="url(#filter-2)" xlink:href="#path-1"></use>
                            <use fill="#FFFFFF" xlink:href="#path-1"></use>
                        </g>
                    </g>
                    <g id="location-hi" transform="translate(16.000000, 219.000000)">
                        <rect id="Rectangle" x="0" y="0" width="48" height="48"></rect>
                        <rect id="Rectangle" fill="#EBEBEB" x="6" y="6" width="36" height="36" rx="1.5"></rect>
                        <path d="M38,41.5 L10,41.5 C7.790861,41.5 6,39.709139 6,37.5 L6,38 C6,40.209139 7.790861,42 10,42 L38,42 C40.209139,42 42,40.209139 42,38 L42,37.5 C42,39.709139 40.209139,41.5 38,41.5 Z" id="Path" fill="#000000" opacity="0.06"></path>
                        <path d="M42,11.08 L42,9.9475 L35.085,6.2825 L35.25,6 L31.875,6 L27.75,13.7125 L19.75,9.5525 L21.765,5.75 L21.125,5.9275 L19.3575,9.25 L13.25,6 L10.375,6 L6.6475,12.9525 L6,12.6075 L6,16.3075 L6.125,16.0575 L13.625,20.04 L9.75,27.3725 L6,25.3725 L6,26.505 L9.285,28.255 L6,34.455 L6,37.2675 L13.23,41.1 L12.75,42 L17,42 L16.3475,41.6225 L20.33,34.1225 L27.83,38.105 L25.75,42 L28,42 L29.6,39.0375 L35.1325,42 L37.2675,42 L30.075,38.1475 L33.9575,30.8275 L41.4575,34.81 L37.6925,42 L38,42 C38.2953113,41.9994486 38.5896367,41.9659073 38.8775,41.9 L42,35.9375 L42,31.6875 L34.92,27.9375 L38.7675,20.6875 L42,22.3975 L42,21.2675 L39.2375,19.8025 L42,14.59 L42,12.455 L38.3525,19.3325 L30.4025,15.1175 L34.6175,7.165 L42,11.08 Z M27.2825,14.595 L23.435,21.845 L15.935,17.8625 L19.7825,10.6125 L27.2825,14.595 Z M7.5325,13.42 L11.38,6.17 L18.88,10.1525 L15.0325,17.4025 L7.5325,13.42 Z M14.5325,20.52 L22.03,24.5 L18.1475,31.8225 L10.6475,27.84 L14.5325,20.52 Z M13.71,40.215 L6.21,36.2325 L10.1925,28.7325 L17.6925,32.715 L13.71,40.215 Z M28.32,37.215 L20.82,33.2325 L24.7025,25.9125 L32.2025,29.895 L28.32,37.215 Z M37.8975,20.215 L34.05,27.465 L26.085,23.25 L29.9325,16 L37.8975,20.215 Z" id="Shape" fill="#000000" fill-rule="nonzero" opacity="0.06"></path>
                        <circle id="Oval" fill="#4A4D4E" cx="23.965" cy="23.9275" r="2.5"></circle>
                        <path d="M24,3.08 C19.7925,3.08 16.73,6.4525 16.73,10.6125 C16.73,16.415 24,24.33 24,24.33 C24,24.33 25.615,22.4625 26.135,21.83 C28.295,19.17 31.2675,14.625 31.2700015,10.7425 C31.2725,6.5775 28.205,3.08 24,3.08 Z M24,14.265 C21.8378052,14.265 20.085,12.5121948 20.085,10.35 C20.085,8.1878052 21.8378052,6.435 24,6.435 C26.1621948,6.435 27.915,8.1878052 27.915,10.35 C27.9136199,12.5112184 26.1612189,14.2625004 24,14.2625 L24,14.265 Z" id="Shape" fill="#E60100" fill-rule="nonzero"></path>
                        <g id="Group" opacity="0.12" transform="translate(16.500000, 5.750000)" fill="#000000">
                            <path d="M7.5,0.685 C9.5643728,0.68490318 11.2731467,2.28968382 11.4025,4.35 C11.4025,4.2675 11.415,4.185 11.415,4.1 C11.415,1.9378052 9.6621948,0.185 7.5,0.185 C5.3378052,0.185 3.585,1.9378052 3.585,4.1 C3.585,4.185 3.585,4.2675 3.5975,4.35 C3.72805839,2.29025099 5.4361177,0.686141487 7.5,0.685 Z" id="Path"></path>
                            <path d="M9.635,15.575 C9.1175,16.215 7.5,18.075 7.5,18.075 C7.5,18.075 0.39,10.325 0.237494201,4.545 C0.237494201,4.6475 0.237494201,4.7525 0.237494201,4.8575 C0.23,10.665 7.5,18.58 7.5,18.58 C7.5,18.58 9.115,16.7125 9.635,16.08 C11.795,13.42 14.7675,8.875 14.77,4.9925 C14.77,4.905 14.77,4.8175 14.77,4.7425 C14.6425,8.5525 11.75,12.9675 9.635,15.575 Z" id="Path"></path>
                        </g>
                    </g>
                </g>
            </g>
        </g>
    </g>
</svg>