<svg xmlns="http://www.w3.org/2000/svg" width="26" height="26" viewBox="0 0 26 26">
    <g fill="none" fill-rule="evenodd">
        <path fill="#D8D8D8" fill-opacity="0" d="M0 0L26 0 26 26 0 26z"/>
        <path stroke="#333" stroke-linecap="round" stroke-linejoin="round" d="M4.333 17.875c-.897 0-1.625-.728-1.625-1.625v-6.5c0-.897.728-1.625 1.625-1.625H19.5c.897 0 1.625.728 1.625 1.625v6.5c0 .897-.728 1.625-1.625 1.625H4.333z"/>
        <path stroke="#333" stroke-linejoin="round" d="M21.125 10.31h1.083c.599 0 1.084.486 1.084 1.084v3.212h0c0 .598-.485 1.083-1.084 1.083h-1.083"/>
        <path stroke="#333" stroke-linecap="round" stroke-linejoin="round" d="M16.792 14.625L16.792 11.375M15.167 13L18.417 13M5.417 13L8.667 13"/>
    </g>
</svg>
