<?xml version="1.0" encoding="UTF-8"?>
<svg width="72px" height="50px" viewBox="0 0 72 50" version="1.1" xmlns="http://www.w3.org/2000/svg" xmlns:xlink="http://www.w3.org/1999/xlink">
    <title>gamepad-icon_desktop</title>
    <defs>
        <linearGradient x1="-219.631314%" y1="-132.661644%" x2="53.0404597%" y2="62.2538871%" id="linearGradient-1">
            <stop stop-color="#000000" offset="0%"></stop>
            <stop stop-color="#000000" stop-opacity="0" offset="100%"></stop>
        </linearGradient>
        <linearGradient x1="47.5756184%" y1="41.3777441%" x2="61.485379%" y2="62.1953066%" id="linearGradient-2">
            <stop stop-color="#000000" offset="0%"></stop>
            <stop stop-color="#000000" stop-opacity="0" offset="100%"></stop>
        </linearGradient>
        <linearGradient x1="55.823457%" y1="51.3513514%" x2="70.3448651%" y2="75.1732502%" id="linearGradient-3">
            <stop stop-color="#000000" offset="0%"></stop>
            <stop stop-color="#000000" stop-opacity="0" offset="100%"></stop>
        </linearGradient>
        <linearGradient x1="-255.572849%" y1="-279.454958%" x2="59.7903688%" y2="55.2611658%" id="linearGradient-4">
            <stop stop-color="#000000" offset="0%"></stop>
            <stop stop-color="#000000" stop-opacity="0" offset="100%"></stop>
        </linearGradient>
        <linearGradient x1="-260.966646%" y1="-321.049896%" x2="68.2895273%" y2="61.971587%" id="linearGradient-5">
            <stop stop-color="#000000" offset="0%"></stop>
            <stop stop-color="#000000" stop-opacity="0" offset="100%"></stop>
        </linearGradient>
    </defs>
    <g id="Page-2" stroke="none" stroke-width="1" fill="none" fill-rule="evenodd">
        <g id="LP_Preventa-Samsung-Galaxy-Note-XX-+-Watch----Note---Desktop" transform="translate(-155.000000, -1399.000000)">
            <g id="Group-6" transform="translate(50.000000, 1359.000000)">
                <g id="Group" transform="translate(76.000000, 0.000000)">
                    <g transform="translate(23.000000, 23.000000)" id="game_console_hi_dark">
                        <g id="11483316_49d3_445e_a61d_1e2ec868e03c">
                            <rect id="f4685a30_a042_4e75_9262_63010e7de14e" x="0" y="0" width="84" height="84"></rect>
                            <rect id="Rectangle_path" x="0" y="0" width="84" height="84"></rect>
                        </g>
                        <path d="M42,55.190625 L26.15375,55.190625 C24.988914,55.1975985 23.9525392,55.9316245 23.559375,57.028125 L22.07625,61.06625 C20.9105016,64.3091096 17.84409,66.4791856 14.398125,66.5 L14.398125,66.5 C12.2062215,66.472974 10.1334246,65.4980618 8.71480557,63.8269269 C7.29618658,62.1557921 6.67076974,59.9522053 7,57.785 L11.3225,27.195 C12.0501576,21.6720067 16.7418768,17.5331334 22.3125,17.5 L61.73125,17.5 C67.2918662,17.5461761 71.9687307,21.6818233 72.695,27.195 L77,57.785 C77.3292303,59.9522053 76.7038134,62.1557921 75.2851944,63.8269269 C73.8665754,65.4980618 71.7937785,66.472974 69.601875,66.5 L69.601875,66.5 C66.15591,66.4791856 63.0894984,64.3091096 61.92375,61.06625 L60.440625,57.028125 C60.0474608,55.9316245 59.011086,55.1975985 57.84625,55.190625 L42,55.190625 Z" id="Shape" fill="#FFFFFF" fill-rule="nonzero"></path>
                        <g id="Group" opacity="0.06" transform="translate(6.562500, 54.250000)" fill="#000000" fill-rule="nonzero">
                            <path d="M70.4375,3.539375 C70.5155056,5.57163032 69.7699884,7.54935035 68.3698708,9.02441548 C66.9697531,10.4994806 65.0335594,11.3470219 63,11.375 C59.5603546,11.3513742 56.5011652,9.18321088 55.339375,5.945625 L53.85625,1.903125 C53.4648715,0.809716974 52.4319447,0.0774050491 51.270625,0.07 L19.630625,0.07 C18.4768648,0.0840270691 17.4531156,0.813034142 17.0625,1.89875 L15.579375,5.94125 C14.4190012,9.18819157 11.349277,11.3606118 7.90125,11.375 C5.86847915,11.3469878 3.93298125,10.5000473 2.53299494,9.02594405 C1.13300863,7.55184082 0.386952566,5.57526278 0.46375,3.54375 C0.137689446,5.7066031 0.762138372,7.90484984 2.17654342,9.57329444 C3.59094846,11.241739 5.6573222,12.2176103 7.844375,12.25 L7.844375,12.25 C11.2892149,12.2298542 14.3552943,10.0617604 15.5225,6.820625 L17.005625,2.778125 C17.4002474,1.68334883 18.4362896,0.951305504 19.6,0.945 L51.296875,0.945 C52.4589785,0.953133986 53.4928051,1.68484573 53.886875,2.778125 L55.37,6.820625 C56.5382741,10.0609472 59.6036957,12.2285758 63.048125,12.25 L63.048125,12.25 C65.2386173,12.2231819 67.310043,11.2485994 68.7271857,9.57806589 C70.1443285,7.90753233 70.768162,5.70493232 70.4375,3.539375 Z" id="Shape"></path>
                        </g>
                        <polygon id="Shape" fill="url(#linearGradient-1)" fill-rule="nonzero" points="27.103125 36.666875 25.729375 35.56875 18.528125 38.1675 18.528125 38.425625 34.44 54.236875 41.978125 54.236875 55.076875 54.236875 28.581875 28.109375"></polygon>
                        <path d="M34.125,34.48375 L29.3125,34.48375 L29.3125,29.67125 C29.3125,28.4631271 28.3331229,27.48375 27.125,27.48375 C25.9168771,27.48375 24.9375,28.4631271 24.9375,29.67125 L24.9375,34.48375 L20.125,34.48375 C18.9168771,34.48375 17.9375,35.4631271 17.9375,36.67125 C17.9375,37.8793729 18.9168771,38.85875 20.125,38.85875 L24.9375,38.85875 L24.9375,43.67125 C24.9375,44.8793729 25.9168771,45.85875 27.125,45.85875 C28.3331229,45.85875 29.3125,44.8793729 29.3125,43.67125 L29.3125,38.85875 L34.125,38.85875 C35.3331229,38.85875 36.3125,37.8793729 36.3125,36.67125 C36.3125,35.4631271 35.3331229,34.48375 34.125,34.48375 Z" id="Shape" fill="#4A4D4E" fill-rule="nonzero"></path>
                        <path d="M27.125,45.093125 C25.9168771,45.093125 24.9375,44.1137479 24.9375,42.905625 L24.9375,43.925 C24.9375,45.1331229 25.9168771,46.1125 27.125,46.1125 C28.3331229,46.1125 29.3125,45.1331229 29.3125,43.925 L29.3125,42.905625 C29.3125,44.1137479 28.3331229,45.093125 27.125,45.093125 L27.125,45.093125 Z" id="Shape" fill="#333333" fill-rule="nonzero"></path>
                        <path d="M20.125,38.093125 C19.1145938,38.0903801 18.2375364,37.3959676 18.003125,36.413125 C17.8464891,37.0639174 17.9964416,37.7506048 18.4101101,38.2768594 C18.8237786,38.803114 19.4556247,39.1110033 20.125,39.1125 L24.9375,39.1125 L24.9375,38.093125 L20.125,38.093125 Z" id="Shape" fill="#333333" fill-rule="nonzero"></path>
                        <path d="M34.125,38.093125 L29.3125,38.093125 L29.3125,39.1125 L34.125,39.1125 C34.7943753,39.1110033 35.4262214,38.803114 35.8398899,38.2768594 C36.2535584,37.7506048 36.4035109,37.0639174 36.246875,36.413125 C36.0124636,37.3959676 35.1354062,38.0903801 34.125,38.093125 Z" id="Shape" fill="#333333" fill-rule="nonzero"></path>
                        <g id="Group" opacity="0.1" transform="translate(49.437500, 30.187500)" fill-rule="nonzero">
                            <path d="M27.5625,27.62375 L27.4575,26.8975 L9.21375,9.03 L8.754375,9.38 L4.143125,4.83875 L0.41125,8.26875 L0.41125,8.526875 L25.78625,33.735625 C27.2304885,32.0489865 27.877776,29.8217434 27.5625,27.62375 Z" id="Shape" fill="url(#linearGradient-2)"></path>
                            <polygon id="Shape" fill="url(#linearGradient-3)" points="25.895625 15.8725 14.3675 4.580625 13.908125 4.930625 9.30125 0.389375 5.569375 3.819375 5.569375 4.0775 27.278125 25.641875"></polygon>
                        </g>
                        <path d="M76.890625,57.085 L58.646875,39.2175 L58.1875,39.5675 L53.580625,35.02625 L49.84875,38.45625 L49.84875,38.714375 L75.22375,63.923125 C76.6701112,62.2325611 77.316021,59.9997865 76.995625,57.798125 L76.890625,57.085 Z" id="Shape" fill="url(#linearGradient-4)" fill-rule="nonzero"></path>
                        <polygon id="Shape" fill="url(#linearGradient-5)" fill-rule="nonzero" points="75.333125 46.06 63.805 34.768125 63.345625 35.118125 58.73875 30.576875 55.006875 34.006875 55.006875 34.265 76.715625 55.829375"></polygon>
                        <path d="M56.875,29.75 C55.4252525,29.75 54.25,30.9252525 54.25,32.375 C54.25,33.8247475 55.4252525,35 56.875,35 C58.3247475,35 59.5,33.8247475 59.5,32.375 C59.5,30.9252525 58.3247475,29.75 56.875,29.75 Z" id="Shape" fill="#E60000" fill-rule="nonzero"></path>
                        <g id="Group" opacity="0.12" transform="translate(54.250000, 31.937500)" fill="#000000" fill-rule="nonzero">
                            <path d="M2.625,2.1875 C1.34508469,2.18620295 0.252693671,1.26201428 0.039375,0 C0.0152271977,0.144630587 0.00206457751,0.290881922 -1.86517468e-14,0.4375 C-1.86517468e-14,1.88724747 1.17525253,3.0625 2.625,3.0625 C4.07474747,3.0625 5.25,1.88724747 5.25,0.4375 C5.24793542,0.290881922 5.2347728,0.144630587 5.210625,0 C4.99730633,1.26201428 3.90491531,2.18620295 2.625,2.1875 Z" id="Shape"></path>
                        </g>
                        <path d="M62.085625,34.125 C60.6358775,34.125 59.460625,35.3002525 59.460625,36.75 C59.460625,38.1997475 60.6358775,39.375 62.085625,39.375 C63.5353725,39.375 64.710625,38.1997475 64.710625,36.75 C64.710625,35.3002525 63.5353725,34.125 62.085625,34.125 L62.085625,34.125 Z" id="Shape" fill="#E60000" fill-rule="nonzero"></path>
                        <g id="Group" opacity="0.12" transform="translate(59.062500, 36.312500)" fill="#000000" fill-rule="nonzero">
                            <path d="M3.023125,2.1875 C1.74320969,2.18620295 0.650818671,1.26201428 0.4375,0 C0.413352198,0.144630587 0.400189578,0.290881922 0.398125,0.4375 C0.398125,1.88724747 1.57337753,3.0625 3.023125,3.0625 C4.47287247,3.0625 5.64812582,1.88724747 5.64812582,0.4375 C5.64824529,0.290776544 5.63506638,0.144344156 5.60875,0 C5.39543133,1.26201428 4.30304031,2.18620295 3.023125,2.1875 L3.023125,2.1875 Z" id="Shape"></path>
                        </g>
                        <path d="M51.625,34.125 C50.1752525,34.125 49,35.3002525 49,36.75 C49,38.1997475 50.1752525,39.375 51.625,39.375 C53.0747475,39.375 54.25,38.1997475 54.25,36.75 C54.25,35.3002525 53.0747475,34.125 51.625,34.125 L51.625,34.125 Z" id="Shape" fill="#E60000" fill-rule="nonzero"></path>
                        <g id="Group" opacity="0.12" transform="translate(49.000000, 36.312500)" fill="#000000" fill-rule="nonzero">
                            <path d="M2.625,2.1875 C1.34508469,2.18620295 0.252693671,1.26201428 0.039375,0 C0.0152271977,0.144630587 0.00206457751,0.290881922 0,0.4375 C0,1.88724747 1.17525253,3.0625 2.625,3.0625 C4.07474747,3.0625 5.25,1.88724747 5.25,0.4375 C5.24793542,0.290881922 5.2347728,0.144630587 5.210625,0 C4.99730633,1.26201428 3.90491531,2.18620295 2.625,2.1875 L2.625,2.1875 Z" id="Shape"></path>
                        </g>
                        <path d="M56.875,38.5 C55.4252525,38.5 54.25,39.6752525 54.25,41.125 C54.25,42.5747475 55.4252525,43.75 56.875,43.75 C58.3247475,43.75 59.5,42.5747475 59.5,41.125 C59.5,39.6752525 58.3247475,38.5 56.875,38.5 Z" id="Shape" fill="#E60000" fill-rule="nonzero"></path>
                        <g id="Group" opacity="0.12" transform="translate(54.250000, 40.687500)" fill="#000000" fill-rule="nonzero">
                            <path d="M2.625,2.1875 C1.34508469,2.18620295 0.252693671,1.26201428 0.039375,0 C0.0152271977,0.144630587 0.00206457751,0.290881922 -1.86517468e-14,0.4375 C-1.86517468e-14,1.88724747 1.17525253,3.0625 2.625,3.0625 C4.07474747,3.0625 5.25,1.88724747 5.25,0.4375 C5.24793542,0.290881922 5.2347728,0.144630587 5.210625,0 C4.99730633,1.26201428 3.90491531,2.18620295 2.625,2.1875 Z" id="Shape"></path>
                        </g>
                        <path d="M38.5,22.75 C37.5335017,22.75 36.75,23.5335017 36.75,24.5 C36.75,25.4664983 37.5335017,26.25 38.5,26.25 C39.4664983,26.25 40.25,25.4664983 40.25,24.5 C40.25,23.5335017 39.4664983,22.75 38.5,22.75 Z" id="Shape" fill="#4A4D4E" fill-rule="nonzero"></path>
                        <path d="M38.5,25.375 C37.7041188,25.3724156 37.0102171,24.8331138 36.81125,24.0625 C36.7728407,24.2052436 36.7522673,24.3521965 36.75,24.5 C36.75,25.4664983 37.5335017,26.25 38.5,26.25 C39.4664983,26.25 40.25,25.4664983 40.25,24.5 C40.2477327,24.3521965 40.2271593,24.2052436 40.18875,24.0625 C39.9897829,24.8331138 39.2958812,25.3724156 38.5,25.375 L38.5,25.375 Z" id="Shape" fill="#333333" fill-rule="nonzero"></path>
                        <path d="M45.5,22.75 C44.5335017,22.75 43.75,23.5335017 43.75,24.5 C43.75,25.4664983 44.5335017,26.25 45.5,26.25 C46.4664983,26.25 47.25,25.4664983 47.25,24.5 C47.25,23.5335017 46.4664983,22.75 45.5,22.75 Z" id="Shape" fill="#4A4D4E" fill-rule="nonzero"></path>
                        <path d="M45.5,25.375 C44.7041188,25.3724156 44.0102171,24.8331138 43.81125,24.0625 C43.7728407,24.2052436 43.7522673,24.3521965 43.75,24.5 C43.75,25.4664983 44.5335017,26.25 45.5,26.25 C46.4664983,26.25 47.25,25.4664983 47.25,24.5 C47.2477327,24.3521965 47.2271593,24.2052436 47.18875,24.0625 C46.9897829,24.8331138 46.2958812,25.3724156 45.5,25.375 Z" id="Shape" fill="#333333" fill-rule="nonzero"></path>
                    </g>
                </g>
            </g>
        </g>
    </g>
</svg>