<svg xmlns="http://www.w3.org/2000/svg" width="64" height="64" viewBox="0 0 64 64"><g fill="none" fill-rule="evenodd"><path d="M0 0h64v64H0z"/><path stroke="#6D6968" stroke-linecap="round" stroke-linejoin="round" d="M18.667 52.667h26.666"/><path stroke="#6D6968" stroke-linejoin="round" d="M32 52.667v-5.334"/><path stroke="#6D6968" stroke-linecap="round" stroke-linejoin="round" d="M10.667 14h42.666A4.667 4.667 0 0 1 58 18.667v24a4.667 4.667 0 0 1-4.667 4.666H10.667A4.667 4.667 0 0 1 6 42.667v-24A4.667 4.667 0 0 1 10.667 14z"/><path fill="#E60000" fill-rule="nonzero" d="M32 41.333A1.333 1.333 0 1 0 32 44a1.333 1.333 0 0 0 0-2.667z"/></g></svg>