<svg xmlns="http://www.w3.org/2000/svg" xmlns:xlink="http://www.w3.org/1999/xlink" width="127" height="127" viewBox="0 0 127 127">
    <defs>
        <path id="prefix__a" d="M0 0.37L128.367 0.37 128.367 128.713 0 128.713z"/>
        <path id="prefix__c" d="M0 128.743L128.367 128.743 128.367 0.399 0 0.399z"/>
    </defs>
    <g fill="none" fill-rule="evenodd" transform="rotate(16 66.178 61.652)">
        <g transform="translate(0 .03)">
            <mask id="prefix__b" fill="#fff">
                <use xlink:href="#prefix__a"/>
            </mask>
            <path fill="red" d="M48.103 120.014c.282 0 .561.105.773.316l.314.315c7.858 7.927 20.657 7.962 28.584.105.28-.28.666-.386 1.053-.28l.456.14c10.765 2.912 21.849-3.437 24.795-14.204v-.034c.105-.386.386-.667.772-.737l.42-.105c10.802-2.842 17.22-13.924 14.38-24.69-.105-.387 0-.773.28-1.018l.35-.316c7.928-7.856 7.963-20.657.107-28.548-.351-.35-.421-.877-.141-1.298 0-.07.034-.14.034-.175 2.912-10.767-3.436-21.849-14.203-24.795-.386-.105-.667-.386-.737-.772-.035-.14-.07-.315-.105-.457-2.876-10.8-13.923-17.22-24.69-14.379-.387.106-.771 0-1.018-.28l-.316-.316C71.356.596 58.554.526 50.63 8.381c-.282.281-.666.386-1.052.246l-.457-.141c-10.767-2.91-21.849 3.472-24.795 14.205-.105.386-.386.665-.77.735l-.423.107C12.33 26.373 5.912 37.456 8.754 48.257c.105.386 0 .772-.282 1.017l-.28.281C.232 57.411.162 70.212 8.017 78.14c.282.28.386.666.245 1.052-.033.14-.068.315-.14.455-2.91 10.767 3.438 21.885 14.205 24.797.386.105.666.386.737.77.034.14.069.282.105.422 2.875 10.802 13.923 17.22 24.725 14.38h.21zm15.432 8.698c-5.892 0-11.573-2.315-15.748-6.489-11.713 2.737-23.497-4.278-26.653-15.886-11.54-3.472-18.238-15.503-15.117-27.146-8.207-8.768-7.996-22.481.493-31.003-2.772-11.714 4.278-23.498 15.886-26.654C25.903 9.994 37.897 3.295 49.542 6.417c8.767-8.24 22.481-8.03 31.038.456 11.714-2.735 23.498 4.278 26.654 15.887 11.538 3.473 18.237 15.502 15.116 27.146 8.207 8.768 7.997 22.482-.491 31.003 2.771 11.715-4.279 23.534-15.923 26.655-3.472 11.538-15.501 18.237-27.144 15.115-4.104 3.893-9.576 6.068-15.257 6.033z" mask="url(#prefix__b)"/>
        </g>
        <path fill="red" d="M64.201 18.301c-25.532 0-46.294 20.762-46.294 46.295 0 25.531 20.762 46.295 46.294 46.295 25.533 0 46.295-20.764 46.295-46.295 0-25.533-20.797-46.295-46.295-46.295m0 94.694c-26.69 0-48.398-21.71-48.398-48.4 0-26.689 21.709-48.398 48.398-48.398 26.69 0 48.4 21.71 48.4 48.399 0 26.69-21.71 48.399-48.4 48.399"/>
        <path fill="red" d="M34.741 51.97L35.232 41.203 36.319 41.203 39.581 50.988 42.562 41.203 43.544 41.203 44.035 51.97 43.228 51.97 42.808 42.921 39.932 52.145 39.09 52.145 36.003 42.781 35.617 51.97zM50.208 51.97L50.208 41.203 55.96 41.203 55.96 41.974 51.05 41.974 51.05 45.832 54.626 45.832 54.626 46.605 51.05 46.605 51.05 51.128 56.274 51.128 56.274 51.9 50.208 51.9zM60.87 51.55l.28-.773c.14.141.316.246.49.316.212.106.457.175.703.211.21.035.421.07.63.07.562 0 .913-.141 1.123-.42.211-.387.316-.843.281-1.264v-8.487h.841v8.593c.035.42-.035.84-.21 1.227-.175.316-.421.596-.736.771-.42.211-.877.316-1.333.316-.456 0-.877-.07-1.298-.211-.28-.034-.526-.175-.771-.35M72.092 46.57c0 .875.142 1.752.456 2.594.212.701.666 1.297 1.229 1.718.49.317 1.017.492 1.611.492.738 0 1.475-.282 1.965-.841.526-.561.912-1.229 1.088-1.965.175-.666.245-1.333.245-1.999 0-.877-.14-1.72-.456-2.525-.21-.666-.631-1.263-1.192-1.718-.456-.351-1.052-.563-1.65-.563-.526 0-1.052.142-1.471.422-.422.28-.808.667-1.053 1.088-.28.491-.49 1.017-.597 1.543-.14.595-.21 1.192-.175 1.753m-.876 0c0-1.052.175-2.069.596-3.016.21-.596.596-1.122 1.052-1.543.387-.351.841-.631 1.332-.806.387-.106.808-.176 1.192-.211.913-.035 1.825.316 2.49.982.633.596 1.123 1.403 1.334 2.244.21.772.351 1.543.351 2.35.035 1.052-.176 2.104-.596 3.087-.246.596-.597 1.122-1.088 1.578-.385.35-.806.63-1.297.77-.386.105-.772.177-1.157.177-.631 0-1.299-.14-1.86-.491-.526-.316-.982-.738-1.298-1.264-.35-.56-.63-1.157-.77-1.788-.21-.667-.28-1.368-.28-2.069M86.437 46.323h2.315c.631.035 1.262-.14 1.753-.526.806-.912.806-2.279 0-3.226-.491-.386-1.087-.596-1.718-.561h-2.385l.035 4.313zm-.843 5.647V41.203h3.228c1.052 0 1.823.246 2.384.772.562.561.877 1.367.807 2.174.035.491-.105.982-.316 1.403-.175.35-.455.631-.77.841-.21.14-.457.281-.702.351.315.07.596.315.771.596.175.386.315.773.456 1.157.035.247.21.808.491 1.755l.421 1.683h-.877l-.456-1.683c-.386-1.264-.596-2-.666-2.244-.106-.282-.246-.526-.491-.703-.246-.175-.526-.28-.807-.246h-2.595v4.91h-.878zM28.428 64.104h1.544c.35 0 .736-.035 1.087-.07.28-.035.56-.105.84-.246.352-.175.668-.455.843-.806.35-.7.35-1.508-.035-2.209-.21-.35-.491-.632-.876-.737-.562-.175-1.158-.28-1.754-.245h-1.614l-.035 4.313zm-2.7 7.716V57.3h4.314c.63 0 1.298.036 1.929.14.596.107 1.157.282 1.718.562.666.316 1.228.877 1.543 1.543.351.702.491 1.438.491 2.21 0 .771-.175 1.507-.49 2.21-.247.595-.597 1.087-1.088 1.543-.245.244-.526.42-.842.526-.456.21-.982.35-1.472.42-.491.07-.984.106-1.475.106h-1.858v5.26h-2.77zM42.527 63.894h1.964c1.648 0 2.49-.666 2.49-2 .036-.595-.174-1.156-.595-1.577-.387-.351-1.018-.526-1.895-.526h-1.964v4.103zm-2.7 7.927v-14.52h5.05c.981-.036 1.963.21 2.84.667.738.35 1.299.945 1.649 1.683.246.63.35 1.298.35 1.964 0 .701-.174 1.403-.49 2.034-.35.666-.913 1.192-1.543 1.578.386.21.702.526.912.878.314.56.56 1.157.7 1.788l1.088 3.928h-2.77l-1.087-3.614c-.177-.49-.352-.875-.492-1.192-.104-.21-.28-.42-.526-.49-.28-.106-.56-.14-.877-.14h-2.104v5.47h-2.7v-.034zM54.802 71.82L54.802 57.301 64.236 57.301 64.236 59.931 57.572 59.931 57.572 63.227 63.114 63.227 63.114 65.858 57.572 65.858 57.572 69.155 64.727 69.155 64.727 71.785zM67.954 64.631c-.035-1.158.141-2.28.526-3.367.316-.878.772-1.683 1.368-2.384.526-.598 1.227-1.089 1.964-1.404.736-.316 1.507-.456 2.314-.456.878-.035 1.788.177 2.596.561.596.281 1.157.668 1.613 1.192.246.281.456.561.632.877L76.932 61.3c-.069-.14-.175-.28-.315-.457-.14-.21-.351-.384-.561-.56-.246-.175-.526-.35-.808-.457-.35-.14-.7-.175-1.087-.175-.456 0-.91.105-1.331.282-.422.21-.808.526-1.088.91-.35.457-.597.983-.772 1.545-.21.736-.28 1.472-.28 2.244 0 1.578.35 2.77 1.017 3.612.666.843 1.649 1.297 2.736 1.262.736.035 1.471-.14 2.139-.42.456-.21.912-.49 1.297-.807l.877 2.42c-.315.386-1.017.737-2 1.017-.842.246-1.717.386-2.63.42-.875 0-1.718-.14-2.525-.49-.77-.315-1.437-.806-1.963-1.437-.597-.703-1.017-1.508-1.263-2.35-.28-1.018-.421-2.14-.421-3.227"/>
        <mask id="prefix__d" fill="#fff">
            <use xlink:href="#prefix__c"/>
        </mask>
        <path fill="red" d="M83.21 71.821L85.98 71.821 85.98 57.301 83.21 57.301zM93.732 62.772c-.316 1.192-.316 2.454 0 3.683.14.56.35 1.087.666 1.578.28.456.667.806 1.122 1.087.456.281.982.42 1.508.42.561 0 1.123-.175 1.613-.455.456-.28.842-.631 1.124-1.087.244-.386.42-.807.524-1.229.211-.7.316-1.401.316-2.137 0-.913-.175-1.825-.526-2.632-.245-.7-.736-1.332-1.333-1.753-.526-.316-1.12-.526-1.718-.526-.526 0-1.052.14-1.508.421-.455.28-.841.666-1.122 1.087-.316.421-.526.947-.666 1.543m-2.63 4.56c-.526-1.79-.526-3.684 0-5.472.244-.877.63-1.718 1.192-2.455.526-.701 1.193-1.297 1.964-1.718 2.104-1.087 4.664-.806 6.524.666.982.807 1.718 1.894 2.069 3.086.351 1.017.526 2.07.56 3.156 0 .947-.14 1.86-.42 2.737-.247.876-.666 1.683-1.192 2.419-.526.702-1.194 1.298-2 1.72-.877.454-1.824.7-2.806.665-.982.035-1.928-.211-2.77-.666-.772-.42-1.438-1.017-1.964-1.72-.526-.735-.913-1.577-1.157-2.418M28.884 77.221L29.831 77.221 32.988 86.831 36.285 77.221 37.126 77.221 33.374 87.988 32.531 87.988zM38.494 82.587c0 .877.141 1.753.456 2.596.211.7.666 1.298 1.227 1.718.456.316 1.017.492 1.613.492.737 0 1.473-.281 1.964-.842.526-.561.912-1.227 1.089-1.964.175-.666.245-1.332.245-2 0-.876-.14-1.718-.457-2.525-.21-.666-.63-1.262-1.192-1.718-.456-.351-1.052-.561-1.649-.561-.526 0-1.052.14-1.472.421-.42.28-.772.666-1.052 1.087-.281.491-.491 1.017-.597 1.543-.105.596-.175 1.192-.175 1.753m-.876 0c0-1.052.175-2.069.595-3.016.246-.596.597-1.122 1.053-1.543.385-.35.84-.631 1.332-.806.386-.106.807-.175 1.192-.211.912-.035 1.824.316 2.49.982.631.597 1.122 1.403 1.334 2.28.21.771.35 1.543.35 2.35.036 1.051-.176 2.103-.595 3.086-.246.596-.598 1.122-1.089 1.578-.386.35-.806.632-1.297.772-.386.105-.772.175-1.158.175-.631 0-1.297-.14-1.858-.491-.526-.316-.982-.736-1.298-1.262-.35-.561-.631-1.157-.771-1.79-.211-.7-.28-1.403-.28-2.104M48.84 87.182h1.543c.281 0 .561 0 .877-.035.28-.035.561-.106.807-.175.736-.281 1.402-.807 1.788-1.51.491-.91.736-1.927.666-2.944.035-.808-.14-1.614-.42-2.386-.28-.596-.702-1.122-1.263-1.508-.35-.21-.702-.386-1.122-.491-.42-.105-.877-.14-1.298-.14h-1.613l.035 9.189zm-.842.807V77.221h2.526c.42 0 .876.036 1.297.106.386.07.772.21 1.122.385.771.386 1.403.983 1.825 1.754.454.912.7 1.965.666 2.982 0 1.471-.282 2.665-.843 3.54-.526.843-1.367 1.475-2.349 1.755-.56.14-1.123.246-1.683.246h-2.561zM58.274 83.71h3.683l-1.86-5.472-1.823 5.472zm-2.35 4.28l3.824-10.77h.77l3.86 10.77H63.5l-1.262-3.473h-4.21l-1.227 3.472h-.877zM65.674 87.989L65.674 77.222 71.286 77.222 71.286 77.992 66.481 77.992 66.481 82.026 70.022 82.026 70.022 82.798 66.481 82.798 66.481 87.954zM72.794 82.587c0 .877.141 1.753.456 2.596.211.7.666 1.298 1.227 1.718.456.316 1.017.492 1.613.492.737 0 1.473-.281 1.964-.842.526-.561.912-1.227 1.089-1.964.175-.666.245-1.332.28-2 0-.876-.14-1.718-.457-2.525-.21-.666-.63-1.262-1.192-1.718-.456-.351-1.052-.526-1.649-.561-.526 0-1.052.14-1.472.421-.42.28-.772.666-1.017 1.087-.281.491-.491 1.017-.596 1.543-.176.596-.246 1.192-.246 1.753m-.876 0c0-1.052.175-2.069.595-3.016.246-.596.597-1.122 1.053-1.543.385-.35.841-.631 1.332-.806.386-.106.807-.175 1.192-.211.912-.035 1.824.316 2.49.982.631.597 1.122 1.403 1.334 2.28.21.771.35 1.543.35 2.35.036 1.051-.175 2.103-.595 3.086-.246.596-.598 1.122-1.089 1.578-.386.35-.806.632-1.297.772-.386.105-.772.175-1.158.175-.631 0-1.297-.14-1.858-.491-.526-.316-.982-.736-1.298-1.262-.35-.561-.631-1.157-.771-1.79-.211-.7-.28-1.403-.28-2.104M82.298 87.989L82.298 77.222 83.175 77.222 88.892 86.269 88.892 77.222 89.699 77.222 89.699 87.989 88.997 87.989 83.105 78.73 83.105 88.024 82.298 88.024zM92.189 87.989L92.189 77.222 97.94 77.222 97.94 77.992 93.031 77.992 93.031 81.886 96.608 81.886 96.608 82.657 93.031 82.657 93.031 87.181 98.221 87.181 98.221 87.954z" mask="url(#prefix__d)"/>
    </g>
</svg>
