<?xml version="1.0" encoding="UTF-8"?>
<svg width="147px" height="147px" viewBox="0 0 147 147" version="1.1" xmlns="http://www.w3.org/2000/svg" xmlns:xlink="http://www.w3.org/1999/xlink">
    <!-- Generator: Sketch 53.1 (72631) - https://sketchapp.com -->
    <title>Bolo -sin permanencia</title>
    <desc>Created with Sketch.</desc>
    <g id="PLP-Revamp---Fibra" stroke="none" stroke-width="1" fill="none" fill-rule="evenodd">
        <g id="PLP-Desktop---Revamp---Fibra_v06" transform="translate(-665.000000, -254.000000)">
            <g id="Cabecera" transform="translate(49.000000, 118.000000)">
                <g id="bodegon" transform="translate(559.000000, 0.000000)">
                    <g id="Bolo--sin-permanencia" transform="translate(130.500000, 209.500000) rotate(-345.000000) translate(-130.500000, -209.500000) translate(57.000000, 136.000000)">
                        <circle id="Oval-Copy-4" fill="#E60000" cx="73.5" cy="73.5" r="73.5"></circle>
                        <path d="M65.67,63.1300016 C65.67,64.600009 65.370003,65.8899961 64.77,67.0000016 C64.169997,68.1100072 63.3825049,69.0324979 62.4075,69.7675016 C61.4324951,70.5025053 60.3300061,71.0499998 59.1,71.4100016 C57.8699939,71.7700034 56.6250063,71.9500016 55.365,71.9500016 C53.9849931,71.9500016 52.7325056,71.8300028 51.6075,71.5900016 C50.4824944,71.3500004 49.4850043,71.0725032 48.615,70.7575016 C47.7449956,70.4425 47.0175029,70.1200033 46.4325,69.7900016 C45.8474971,69.46 45.4200013,69.1900027 45.15,68.9800016 L47.58,63.9850016 C47.8500013,64.2250028 48.2249976,64.51 48.705,64.8400016 C49.1850024,65.1700033 49.7474968,65.4850001 50.3925,65.7850016 C51.0375032,66.0850031 51.7724959,66.3325006 52.5975,66.5275016 C53.4225041,66.7225026 54.329995,66.8200016 55.32,66.8200016 C56.7600072,66.8200016 57.8924959,66.5050048 58.7175,65.8750016 C59.5425041,65.2449985 59.955,64.4050069 59.955,63.3550016 C59.955,62.7249985 59.8800007,62.1775039 59.73,61.7125016 C59.5799992,61.2474993 59.2725023,60.8125036 58.8075,60.4075016 C58.3424977,60.0024996 57.6825043,59.6125035 56.8275,59.2375016 C55.9724957,58.8624997 54.840007,58.435004 53.43,57.9550016 C52.1399935,57.5349995 51.0000049,57.0700042 50.01,56.5600016 C49.019995,56.0499991 48.1875034,55.4500051 47.5125,54.7600016 C46.8374966,54.0699982 46.3275017,53.2600063 45.9825,52.3300016 C45.6374983,51.399997 45.465,50.3050079 45.465,49.0450016 C45.465,47.8449956 45.6749979,46.7350067 46.095,45.7150016 C46.5150021,44.6949965 47.1449958,43.8100054 47.985,43.0600016 C48.8250042,42.3099979 49.8749937,41.7250037 51.135,41.3050016 C52.3950063,40.8849995 53.8499918,40.6750016 55.5,40.6750016 C56.8800069,40.6750016 58.1174945,40.8100003 59.2125,41.0800016 C60.3075055,41.350003 61.2599959,41.6874996 62.07,42.0925016 C62.880004,42.4975036 63.5624972,42.9399992 64.1175,43.4200016 C64.6725028,43.900004 65.1299982,44.3499995 65.49,44.7700016 L62.475,48.7750016 C62.1749985,48.4149998 61.7775025,48.0550034 61.2825,47.6950016 C60.7874975,47.3349998 60.2250031,47.0050031 59.595,46.7050016 C58.9649968,46.4050001 58.2825037,46.1575026 57.5475,45.9625016 C56.8124963,45.7675006 56.0550039,45.6700016 55.275,45.6700016 C53.7149922,45.6700016 52.6200031,45.9774985 51.99,46.5925016 C51.3599968,47.2075047 51.045,47.9499973 51.045,48.8200016 C51.045,49.3600043 51.1349991,49.8174997 51.315,50.1925016 C51.4950009,50.5675035 51.8024978,50.92 52.2375,51.2500016 C52.6725022,51.5800033 53.2574963,51.9025 53.9925,52.2175016 C54.7275037,52.5325032 55.6649943,52.8999995 56.805,53.3200016 C58.3650078,53.8900045 59.7074944,54.4674987 60.8325,55.0525016 C61.9575056,55.6375045 62.8799964,56.3049979 63.6,57.0550016 C64.3200036,57.8050054 64.8449983,58.6674967 65.175,59.6425016 C65.5050016,60.6175065 65.67,61.7799949 65.67,63.1300016 Z M70.035,71.3200016 L70.035,49.6300016 L75.57,49.6300016 L75.57,71.3200016 L70.035,71.3200016 Z M72.825,47.6050016 C71.6849943,47.6050016 70.8375028,47.2750049 70.2825,46.6150016 C69.7274972,45.9549983 69.45,45.2200057 69.45,44.4100016 C69.45,43.6299977 69.7274972,42.9100049 70.2825,42.2500016 C70.8375028,41.5899983 71.6849943,41.2600016 72.825,41.2600016 C73.9350055,41.2600016 74.7674972,41.5899983 75.3225,42.2500016 C75.8775028,42.9100049 76.155,43.6299977 76.155,44.4100016 C76.155,45.2200057 75.8775028,45.9549983 75.3225,46.6150016 C74.7674972,47.2750049 73.9350055,47.6050016 72.825,47.6050016 Z M94.965,71.3200016 L94.965,58.9450016 C94.965,57.2949934 94.6200035,56.0200061 93.93,55.1200016 C93.2399966,54.2199971 92.2800061,53.7700016 91.05,53.7700016 C90.1799956,53.7700016 89.3775037,53.9949994 88.6425,54.4450016 C87.9074963,54.8950039 87.2700027,55.3899989 86.73,55.9300016 L86.73,71.3200016 L81.15,71.3200016 L81.15,49.6300016 L86.235,49.6300016 L86.505,51.3400016 C87.3750043,50.619998 88.3574945,50.0650036 89.4525,49.6750016 C90.5475055,49.2849997 91.6499944,49.0900016 92.76,49.0900016 C93.9000057,49.0900016 94.9499952,49.2624999 95.91,49.6075016 C96.8700048,49.9525033 97.6949965,50.4999979 98.385,51.2500016 C99.0750034,52.0000054 99.6074981,52.9749956 99.9825,54.1750016 C100.357502,55.3750076 100.545,56.8149932 100.545,58.4950016 L100.545,71.3200016 L94.965,71.3200016 Z M28.29,92.4800016 C28.29,93.1066714 28.1933343,93.7233319 28,94.3300016 C27.8066657,94.9366713 27.5133353,95.4766659 27.12,95.9500016 C26.7266647,96.4233373 26.2233364,96.8066668 25.61,97.1000016 C24.9966636,97.3933364 24.2700042,97.5400016 23.43,97.5400016 C22.9899978,97.5400016 22.5633354,97.4466692 22.15,97.2600016 L22.15,101.100002 L19.67,101.100002 L19.67,87.6800016 L21.93,87.6800016 L22.05,88.4000016 C22.2766678,88.1733338 22.5799981,87.9566693 22.96,87.7500016 C23.3400019,87.5433339 23.7899974,87.4400016 24.31,87.4400016 C24.9633366,87.4400016 25.5399975,87.5800002 26.04,87.8600016 C26.5400025,88.140003 26.956665,88.5099993 27.29,88.9700016 C27.623335,89.4300039 27.8733325,89.9666652 28.04,90.5800016 C28.2066675,91.193338 28.29,91.826665 28.29,92.4800016 Z M25.87,92.5200016 C25.87,92.1466664 25.8266671,91.7800034 25.74,91.4200016 C25.6533329,91.0599998 25.5233342,90.740003 25.35,90.4600016 C25.1766658,90.1800002 24.9600013,89.9533358 24.7,89.7800016 C24.4399987,89.6066674 24.1366684,89.5200016 23.79,89.5200016 C23.4433316,89.5200016 23.1166682,89.6166673 22.81,89.8100016 C22.5033318,90.0033359 22.2766674,90.2133338 22.13,90.4400016 L22.13,95.1000016 C22.530002,95.2866692 22.9166648,95.3800016 23.29,95.3800016 C23.7300022,95.3800016 24.1133317,95.3000024 24.44,95.1400016 C24.7666683,94.9800008 25.0366656,94.7633363 25.25,94.4900016 C25.4633344,94.2166669 25.6199995,93.9100033 25.72,93.5700016 C25.8200005,93.2299999 25.87,92.8800034 25.87,92.5200016 Z M32.11,93.1200016 C32.1633336,93.933339 32.4166644,94.5199998 32.87,94.8800016 C33.3233356,95.2400034 33.9099964,95.4200016 34.63,95.4200016 C34.963335,95.4200016 35.2766652,95.3900019 35.57,95.3300016 C35.8633348,95.2700013 36.1233322,95.1933354 36.35,95.1000016 C36.5766678,95.0066678 36.7699992,94.9133354 36.93,94.8200016 C37.0900008,94.7266678 37.2099996,94.640002 37.29,94.5600016 L37.95,96.5800016 C37.8566662,96.6466686 37.7066677,96.7366677 37.5,96.8500016 C37.2933323,96.9633355 37.0366682,97.0700011 36.73,97.1700016 C36.4233318,97.2700021 36.0633354,97.3566679 35.65,97.4300016 C35.2366646,97.5033353 34.7833358,97.5400016 34.29,97.5400016 C33.6633302,97.5400016 33.0666695,97.4400026 32.5,97.2400016 C31.9333305,97.0400006 31.4366688,96.7300037 31.01,96.3100016 C30.5833312,95.8899995 30.2433346,95.3666714 29.99,94.7400016 C29.7366654,94.1133318 29.61,93.3666726 29.61,92.5000016 C29.61,91.6866642 29.7266655,90.9666714 29.96,90.3400016 C30.1933345,89.7133318 30.5133313,89.1866704 30.92,88.7600016 C31.3266687,88.3333328 31.7999973,88.0066694 32.34,87.7800016 C32.8800027,87.5533338 33.4566636,87.4400016 34.07,87.4400016 C34.6833364,87.4400016 35.2499974,87.5400006 35.77,87.7400016 C36.2900026,87.9400026 36.7399981,88.2499995 37.12,88.6700016 C37.5000019,89.0900037 37.7999989,89.6333316 38.02,90.3000016 C38.2400011,90.9666716 38.35,91.759997 38.35,92.6800016 L38.35,93.1200016 L32.11,93.1200016 Z M35.83,91.3400016 C35.8033332,91.0066666 35.7333339,90.7166695 35.62,90.4700016 C35.5066661,90.2233337 35.3666675,90.0233357 35.2,89.8700016 C35.0333325,89.7166675 34.8533343,89.6033353 34.66,89.5300016 C34.4666657,89.4566679 34.270001,89.4200016 34.07,89.4200016 C33.6433312,89.4200016 33.2366686,89.58 32.85,89.9000016 C32.4633314,90.2200032 32.236667,90.6999984 32.17,91.3400016 L35.83,91.3400016 Z M45.69,89.7800016 C45.5833328,89.7533348 45.4566674,89.733335 45.31,89.7200016 C45.1633326,89.7066682 45.0100008,89.7000016 44.85,89.7000016 C44.383331,89.7000016 43.9633352,89.8233337 43.59,90.0700016 C43.2166648,90.3166695 42.9033346,90.5733336 42.65,90.8400016 L42.65,97.3200016 L40.17,97.3200016 L40.17,87.6800016 L42.43,87.6800016 L42.59,88.7000016 C42.6966672,88.5666676 42.8333325,88.426669 43,88.2800016 C43.1666675,88.1333342 43.3566656,88.0000022 43.57,87.8800016 C43.7833344,87.760001 44.0066655,87.6633353 44.24,87.5900016 C44.4733345,87.5166679 44.7166654,87.4800016 44.97,87.4800016 C45.1966678,87.4800016 45.4166656,87.4966681 45.63,87.5300016 C45.8433344,87.5633351 45.983333,87.5933348 46.05,87.6200016 L45.69,89.7800016 Z M59.15,97.3200016 L59.15,91.6600016 C59.15,91.0199984 59.0300012,90.5033369 58.79,90.1100016 C58.5499988,89.7166663 58.1033366,89.5200016 57.45,89.5200016 C57.2633324,89.5200016 57.0733343,89.5500013 56.88,89.6100016 C56.6866657,89.6700019 56.5033342,89.7400012 56.33,89.8200016 C56.1566658,89.900002 56.003334,89.9833345 55.87,90.0700016 C55.736666,90.1566687 55.6300004,90.2333346 55.55,90.3000016 C55.5766668,90.4600024 55.6033332,90.6400006 55.63,90.8400016 C55.6566668,91.0400026 55.67,91.2600004 55.67,91.5000016 L55.67,97.3200016 L53.19,97.3200016 L53.19,91.6600016 C53.19,91.3666668 53.1666669,91.0900029 53.12,90.8300016 C53.0733331,90.5700003 52.9900006,90.3433359 52.87,90.1500016 C52.7499994,89.9566673 52.5933343,89.8033355 52.4,89.6900016 C52.2066657,89.5766677 51.9633348,89.5200016 51.67,89.5200016 C51.2966648,89.5200016 50.943335,89.6200006 50.61,89.8200016 C50.276665,90.0200026 49.9966678,90.2333338 49.77,90.4600016 L49.77,97.3200016 L47.29,97.3200016 L47.29,87.6800016 L49.57,87.6800016 L49.67,88.4000016 C49.9633348,88.1333336 50.3266645,87.9066692 50.76,87.7200016 C51.1933355,87.533334 51.6299978,87.4400016 52.07,87.4400016 C52.5233356,87.4400016 52.9733311,87.5100009 53.42,87.6500016 C53.8666689,87.7900023 54.2833314,88.0333332 54.67,88.3800016 C55.1100022,88.1133336 55.5933307,87.8900025 56.12,87.7100016 C56.6466693,87.5300007 57.209997,87.4400016 57.81,87.4400016 C58.5300036,87.4400016 59.1333309,87.533334 59.62,87.7200016 C60.1066691,87.9066692 60.4966652,88.1733332 60.79,88.5200016 C61.0833348,88.86667 61.2933327,89.2933324 61.42,89.8000016 C61.5466673,90.3066708 61.61,90.886665 61.61,91.5400016 L61.61,97.3200016 L59.15,97.3200016 Z M69.09,97.3200016 L68.99,96.6000016 C68.723332,96.8933364 68.3833354,97.1233341 67.97,97.2900016 C67.5566646,97.4566691 67.1033358,97.5400016 66.61,97.5400016 C66.1966646,97.5400016 65.8000019,97.4700023 65.42,97.3300016 C65.0399981,97.1900009 64.7033348,96.9900029 64.41,96.7300016 C64.1166652,96.4700003 63.8800009,96.1500035 63.7,95.7700016 C63.5199991,95.3899997 63.43,94.960004 63.43,94.4800016 C63.43,93.9999992 63.5233324,93.5766701 63.71,93.2100016 C63.8966676,92.8433331 64.1499984,92.5333362 64.47,92.2800016 C64.7900016,92.026667 65.1566646,91.8200024 65.57,91.6600016 C65.9833354,91.5000008 66.4166644,91.380002 66.87,91.3000016 C67.1900016,91.2333346 67.5399981,91.1833351 67.92,91.1500016 C68.3000019,91.1166681 68.6166654,91.0866684 68.87,91.0600016 L68.87,90.9200016 C68.87,90.3866656 68.7333347,90.0066694 68.46,89.7800016 C68.1866653,89.5533338 67.8100024,89.4400016 67.33,89.4400016 C67.0499986,89.4400016 66.7833346,89.4733346 66.53,89.5400016 C66.2766654,89.6066686 66.050001,89.6900011 65.85,89.7900016 C65.649999,89.8900021 65.4733341,89.9900011 65.32,90.0900016 C65.1666659,90.1900021 65.0433338,90.2800012 64.95,90.3600016 L64.13,88.6200016 C64.2366672,88.5266678 64.3999989,88.4133356 64.62,88.2800016 C64.8400011,88.1466676 65.1066651,88.0166689 65.42,87.8900016 C65.7333349,87.7633343 66.0866647,87.6566687 66.48,87.5700016 C66.8733353,87.4833345 67.2966644,87.4400016 67.75,87.4400016 C68.283336,87.4400016 68.7699978,87.5100009 69.21,87.6500016 C69.6500022,87.7900023 70.0299984,88.0100001 70.35,88.3100016 C70.6700016,88.6100031 70.9199991,88.9899993 71.1,89.4500016 C71.2800009,89.9100039 71.37,90.466665 71.37,91.1200016 L71.37,97.3200016 L69.09,97.3200016 Z M68.89,92.8200016 C68.623332,92.833335 68.3500014,92.8566681 68.07,92.8900016 C67.7899986,92.9233351 67.5233346,92.966668 67.27,93.0200016 C66.736664,93.1266688 66.3666677,93.3100003 66.16,93.5700016 C65.9533323,93.8300029 65.85,94.1133334 65.85,94.4200016 C65.85,94.7400032 65.9666655,94.9966673 66.2,95.1900016 C66.4333345,95.3833359 66.7633312,95.4800016 67.19,95.4800016 C67.5100016,95.4800016 67.8199985,95.4133356 68.12,95.2800016 C68.4200015,95.1466676 68.6766656,94.9800026 68.89,94.7800016 L68.89,92.8200016 Z M79.93,97.3200016 L79.93,91.8200016 C79.93,91.0866646 79.7766682,90.5200036 79.47,90.1200016 C79.1633318,89.7199996 78.7366694,89.5200016 78.19,89.5200016 C77.8033314,89.5200016 77.4466683,89.6200006 77.12,89.8200016 C76.7933317,90.0200026 76.5100012,90.2400004 76.27,90.4800016 L76.27,97.3200016 L73.79,97.3200016 L73.79,87.6800016 L76.05,87.6800016 L76.17,88.4400016 C76.5566686,88.12 76.9933309,87.8733358 77.48,87.7000016 C77.9666691,87.5266674 78.4566642,87.4400016 78.95,87.4400016 C79.4566692,87.4400016 79.9233312,87.5166675 80.35,87.6700016 C80.7766688,87.8233357 81.1433318,88.0666666 81.45,88.4000016 C81.7566682,88.7333366 81.9933325,89.1666656 82.16,89.7000016 C82.3266675,90.2333376 82.41,90.8733312 82.41,91.6200016 L82.41,97.3200016 L79.93,97.3200016 Z M86.75,93.1200016 C86.8033336,93.933339 87.0566644,94.5199998 87.51,94.8800016 C87.9633356,95.2400034 88.5499964,95.4200016 89.27,95.4200016 C89.603335,95.4200016 89.9166652,95.3900019 90.21,95.3300016 C90.5033348,95.2700013 90.7633322,95.1933354 90.99,95.1000016 C91.2166678,95.0066678 91.4099992,94.9133354 91.57,94.8200016 C91.7300008,94.7266678 91.8499996,94.640002 91.93,94.5600016 L92.59,96.5800016 C92.4966662,96.6466686 92.3466677,96.7366677 92.14,96.8500016 C91.9333323,96.9633355 91.6766682,97.0700011 91.37,97.1700016 C91.0633318,97.2700021 90.7033354,97.3566679 90.29,97.4300016 C89.8766646,97.5033353 89.4233358,97.5400016 88.93,97.5400016 C88.3033302,97.5400016 87.7066695,97.4400026 87.14,97.2400016 C86.5733305,97.0400006 86.0766688,96.7300037 85.65,96.3100016 C85.2233312,95.8899995 84.8833346,95.3666714 84.63,94.7400016 C84.3766654,94.1133318 84.25,93.3666726 84.25,92.5000016 C84.25,91.6866642 84.3666655,90.9666714 84.6,90.3400016 C84.8333345,89.7133318 85.1533313,89.1866704 85.56,88.7600016 C85.9666687,88.3333328 86.4399973,88.0066694 86.98,87.7800016 C87.5200027,87.5533338 88.0966636,87.4400016 88.71,87.4400016 C89.3233364,87.4400016 89.8899974,87.5400006 90.41,87.7400016 C90.9300026,87.9400026 91.3799981,88.2499995 91.76,88.6700016 C92.1400019,89.0900037 92.4399989,89.6333316 92.66,90.3000016 C92.8800011,90.9666716 92.99,91.759997 92.99,92.6800016 L92.99,93.1200016 L86.75,93.1200016 Z M90.47,91.3400016 C90.4433332,91.0066666 90.3733339,90.7166695 90.26,90.4700016 C90.1466661,90.2233337 90.0066675,90.0233357 89.84,89.8700016 C89.6733325,89.7166675 89.4933343,89.6033353 89.3,89.5300016 C89.1066657,89.4566679 88.910001,89.4200016 88.71,89.4200016 C88.2833312,89.4200016 87.8766686,89.58 87.49,89.9000016 C87.1033314,90.2200032 86.876667,90.6999984 86.81,91.3400016 L90.47,91.3400016 Z M100.95,97.3200016 L100.95,91.8200016 C100.95,91.0866646 100.796668,90.5200036 100.49,90.1200016 C100.183332,89.7199996 99.7566694,89.5200016 99.21,89.5200016 C98.8233314,89.5200016 98.4666683,89.6200006 98.14,89.8200016 C97.8133317,90.0200026 97.5300012,90.2400004 97.29,90.4800016 L97.29,97.3200016 L94.81,97.3200016 L94.81,87.6800016 L97.07,87.6800016 L97.19,88.4400016 C97.5766686,88.12 98.0133309,87.8733358 98.5,87.7000016 C98.9866691,87.5266674 99.4766642,87.4400016 99.97,87.4400016 C100.476669,87.4400016 100.943331,87.5166675 101.37,87.6700016 C101.796669,87.8233357 102.163332,88.0666666 102.47,88.4000016 C102.776668,88.7333366 103.013333,89.1666656 103.18,89.7000016 C103.346668,90.2333376 103.43,90.8733312 103.43,91.6200016 L103.43,97.3200016 L100.95,97.3200016 Z M113.35,96.5000016 C113.256666,96.5666686 113.110001,96.660001 112.91,96.7800016 C112.709999,96.9000022 112.460002,97.0166677 112.16,97.1300016 C111.859999,97.2433355 111.510002,97.3400012 111.11,97.4200016 C110.709998,97.500002 110.256669,97.5400016 109.75,97.5400016 C109.16333,97.5400016 108.600003,97.4400026 108.06,97.2400016 C107.519997,97.0400006 107.043335,96.733337 106.63,96.3200016 C106.216665,95.9066662 105.886668,95.3866714 105.64,94.7600016 C105.393332,94.1333318 105.27,93.3933392 105.27,92.5400016 C105.27,91.686664 105.389999,90.9400048 105.63,90.3000016 C105.870001,89.6599984 106.193331,89.1266704 106.6,88.7000016 C107.006669,88.2733328 107.476664,87.9566693 108.01,87.7500016 C108.543336,87.5433339 109.10333,87.4400016 109.69,87.4400016 C110.250003,87.4400016 110.739998,87.5133342 111.16,87.6600016 C111.580002,87.806669 111.943332,87.9900005 112.25,88.2100016 C112.556668,88.4300027 112.806666,88.6733336 113,88.9400016 C113.193334,89.2066696 113.349999,89.4600004 113.47,89.7000016 L111.63,90.9400016 C111.429999,90.5933332 111.180002,90.2700031 110.88,89.9700016 C110.579999,89.6700001 110.190002,89.5200016 109.71,89.5200016 C109.176664,89.5200016 108.713335,89.7566659 108.32,90.2300016 C107.926665,90.7033373 107.73,91.4399966 107.73,92.4400016 C107.73,93.4000064 107.929998,94.1333324 108.33,94.6400016 C108.730002,95.1466708 109.309996,95.4000016 110.07,95.4000016 C110.430002,95.4000016 110.753332,95.3633353 111.04,95.2900016 C111.326668,95.2166679 111.576666,95.1300021 111.79,95.0300016 C112.003334,94.9300011 112.179999,94.8266688 112.32,94.7200016 C112.460001,94.6133344 112.563333,94.5266686 112.63,94.4600016 L113.35,96.5000016 Z M115.11,97.3200016 L115.11,87.6800016 L117.57,87.6800016 L117.57,97.3200016 L115.11,97.3200016 Z M116.35,86.7800016 C115.843331,86.7800016 115.466668,86.6333364 115.22,86.3400016 C114.973332,86.0466668 114.85,85.7200034 114.85,85.3600016 C114.85,85.0133332 114.973332,84.6933364 115.22,84.4000016 C115.466668,84.1066668 115.843331,83.9600016 116.35,83.9600016 C116.843336,83.9600016 117.213332,84.1066668 117.46,84.4000016 C117.706668,84.6933364 117.83,85.0133332 117.83,85.3600016 C117.83,85.7200034 117.706668,86.0466668 117.46,86.3400016 C117.213332,86.6333364 116.843336,86.7800016 116.35,86.7800016 Z M125.11,97.3200016 L125.01,96.6000016 C124.743332,96.8933364 124.403335,97.1233341 123.99,97.2900016 C123.576665,97.4566691 123.123336,97.5400016 122.63,97.5400016 C122.216665,97.5400016 121.820002,97.4700023 121.44,97.3300016 C121.059998,97.1900009 120.723335,96.9900029 120.43,96.7300016 C120.136665,96.4700003 119.900001,96.1500035 119.72,95.7700016 C119.539999,95.3899997 119.45,94.960004 119.45,94.4800016 C119.45,93.9999992 119.543332,93.5766701 119.73,93.2100016 C119.916668,92.8433331 120.169998,92.5333362 120.49,92.2800016 C120.810002,92.026667 121.176665,91.8200024 121.59,91.6600016 C122.003335,91.5000008 122.436664,91.380002 122.89,91.3000016 C123.210002,91.2333346 123.559998,91.1833351 123.94,91.1500016 C124.320002,91.1166681 124.636665,91.0866684 124.89,91.0600016 L124.89,90.9200016 C124.89,90.3866656 124.753335,90.0066694 124.48,89.7800016 C124.206665,89.5533338 123.830002,89.4400016 123.35,89.4400016 C123.069999,89.4400016 122.803335,89.4733346 122.55,89.5400016 C122.296665,89.6066686 122.070001,89.6900011 121.87,89.7900016 C121.669999,89.8900021 121.493334,89.9900011 121.34,90.0900016 C121.186666,90.1900021 121.063334,90.2800012 120.97,90.3600016 L120.15,88.6200016 C120.256667,88.5266678 120.419999,88.4133356 120.64,88.2800016 C120.860001,88.1466676 121.126665,88.0166689 121.44,87.8900016 C121.753335,87.7633343 122.106665,87.6566687 122.5,87.5700016 C122.893335,87.4833345 123.316664,87.4400016 123.77,87.4400016 C124.303336,87.4400016 124.789998,87.5100009 125.23,87.6500016 C125.670002,87.7900023 126.049998,88.0100001 126.37,88.3100016 C126.690002,88.6100031 126.939999,88.9899993 127.12,89.4500016 C127.300001,89.9100039 127.39,90.466665 127.39,91.1200016 L127.39,97.3200016 L125.11,97.3200016 Z M124.91,92.8200016 C124.643332,92.833335 124.370001,92.8566681 124.09,92.8900016 C123.809999,92.9233351 123.543335,92.966668 123.29,93.0200016 C122.756664,93.1266688 122.386668,93.3100003 122.18,93.5700016 C121.973332,93.8300029 121.87,94.1133334 121.87,94.4200016 C121.87,94.7400032 121.986666,94.9966673 122.22,95.1900016 C122.453335,95.3833359 122.783331,95.4800016 123.21,95.4800016 C123.530002,95.4800016 123.839999,95.4133356 124.14,95.2800016 C124.440002,95.1466676 124.696666,94.9800026 124.91,94.7800016 L124.91,92.8200016 Z" id="Sinpermanencia" fill="#FFFFFF" fill-rule="nonzero"></path>
                    </g>
                </g>
            </g>
        </g>
    </g>
</svg>