<svg width="168" height="199" viewBox="0 0 168 199" xmlns="http://www.w3.org/2000/svg"><defs><linearGradient x1="0%" y1="100%" x2="100%" y2="0%" id="linearGradient-1"><stop stop-color="#007C92" offset="0%"/><stop stop-color="#00B0CA" offset="100%"/></linearGradient></defs><g id="✅--PLP-y-PDP-Total" stroke="none" stroke-width="1" fill="none" fill-rule="evenodd"><g id="PLP-Desktop---Oferta-flash-Ilimitada-Total---producción" transform="translate(-773 -225)"><g id="Group-2" transform="translate(773 225.2)"><g id="Bolo-50-Desktop-Copy-3"><g id="Bolo-50---Desk" fill-rule="nonzero"><circle id="Oval-Copy-4" fill="url(#linearGradient-1)" cx="54.05" cy="54.05" r="54.05"/><path d="M51.448 66.978c.821 0 1.462.221 1.921.664.46.444.69 1.184.69 2.222v5.043h-1.087l-.049-.665-.16.155c-.22.196-.464.353-.732.47a2.732 2.732 0 01-1.102.218c-.325 0-.635-.051-.933-.154a2.509 2.509 0 01-.802-.454 2.154 2.154 0 01-.568-.754 2.479 2.479 0 01-.21-1.054c0-.757.275-1.354.826-1.792a3.99 3.99 0 011.865-.827 11.19 11.19 0 011.768-.17v-.097l-.005-.21c-.027-.54-.157-.935-.393-1.185-.265-.28-.64-.421-1.127-.421-.346 0-.697.067-1.054.202a3.802 3.802 0 00-1.038.608l-.389-.908.177-.128c.245-.168.532-.328.861-.48.41-.189.924-.283 1.54-.283zm16.101 0c.8 0 1.47.23 2.011.689.54.46.91 1.008 1.11 1.646.2.637.3 1.21.3 1.718 0 .8-.17 1.54-.51 2.222-.34.68-.77 1.157-1.29 1.427a3.46 3.46 0 01-1.62.405c-.574 0-1.074-.116-1.5-.348a3.186 3.186 0 01-1.063-.925 4.246 4.246 0 01-.64-1.313 5.247 5.247 0 01-.22-1.5c0-.768.158-1.486.471-2.157.314-.67.74-1.148 1.281-1.435a3.525 3.525 0 011.67-.43zm-25.733-2.773v10.702h-1.249V65.68l-2.319 1.557-.6-.892 3.081-2.14h1.087zm17.82 2.773c1.016 0 1.73.259 2.14.778.412.519.617 1.297.617 2.335v4.816h-1.184v-4.849l-.005-.21c-.027-.55-.163-.987-.408-1.314-.276-.367-.727-.551-1.354-.551-.4 0-.784.09-1.152.267a5.067 5.067 0 00-.956.592v6.065H56.15v-7.735h1.086l.082.616.187-.137c.258-.177.547-.325.867-.446.4-.152.821-.227 1.264-.227zm7.913.989c-.55 0-1.01.183-1.378.551-.367.368-.605.778-.713 1.232a5.38 5.38 0 00-.163 1.249c0 .616.109 1.18.325 1.694.216.514.497.873.843 1.079a2.1 2.1 0 001.086.308 1.85 1.85 0 001.314-.52c.367-.345.616-.761.746-1.248.13-.486.194-.919.194-1.297 0-.594-.11-1.143-.332-1.646-.222-.502-.505-.862-.851-1.078a1.994 1.994 0 00-1.07-.324zm-14.674 2.902l-.339.015a8.07 8.07 0 00-1.453.204c-.503.124-.873.324-1.111.6a1.475 1.475 0 00-.357.997c0 .346.1.638.3.876.2.238.403.381.608.43.206.048.39.073.552.073.356 0 .683-.079.98-.236a4.3 4.3 0 00.82-.559v-2.4zm8.415-7.2l.746.39-.073.206c-.153.4-.347.72-.584.961-.275.281-.591.422-.948.422-.195 0-.384-.043-.568-.13a3.664 3.664 0 01-.551-.324c-.432-.314-.757-.47-.973-.47a.607.607 0 00-.47.218c-.13.146-.27.392-.422.738l-.746-.373.069-.202a2.79 2.79 0 01.572-.965c.275-.292.592-.438.948-.438.227 0 .452.057.673.17.222.114.43.246.625.398.302.237.567.356.794.356.152 0 .303-.07.454-.21.152-.141.303-.39.454-.746zM26.808 30.845v4.266H17.19v4.154l.033-.012c.07-.02.208-.034.416-.044.25-.013.461-.02.636-.02 3.018 0 5.345.68 6.979 2.04 1.634 1.36 2.45 3.474 2.45 6.343 0 1.547-.243 2.875-.73 3.985-.486 1.11-1.153 2.02-2.001 2.732a8.013 8.013 0 01-2.937 1.553 12.69 12.69 0 01-3.574.486c-.873 0-1.703-.069-2.488-.206a13.114 13.114 0 01-2.17-.561 12.45 12.45 0 01-1.778-.786c-.524-.287-.948-.58-1.272-.88l1.945-4.153.377.28c.756.546 1.534.995 2.336 1.348.936.412 1.965.617 3.087.617.6 0 1.18-.075 1.74-.224a4.005 4.005 0 001.478-.73 3.535 3.535 0 001.01-1.31c.25-.536.375-1.203.375-2.001 0-1.522-.474-2.632-1.422-3.33-.948-.7-2.32-1.049-4.116-1.049-.848 0-1.665.07-2.451.206-.786.137-1.503.28-2.152.43V30.845h13.846zm12.123-.262c1.672 0 3.075.393 4.21 1.18a9.05 9.05 0 012.75 3.03c.699 1.235 1.198 2.613 1.497 4.135.3 1.522.45 3.03.45 4.528 0 1.496-.15 3.006-.45 4.527-.3 1.522-.798 2.9-1.497 4.135a9.05 9.05 0 01-2.75 3.031c-1.135.786-2.538 1.179-4.21 1.179-1.671 0-3.08-.393-4.228-1.179a8.975 8.975 0 01-2.77-3.03c-.698-1.236-1.196-2.614-1.496-4.136a23.412 23.412 0 01-.449-4.527c0-1.497.15-3.006.45-4.528.299-1.522.797-2.9 1.496-4.135a8.975 8.975 0 012.769-3.03c1.148-.787 2.557-1.18 4.228-1.18zM68.792 44.39c.973 0 1.834.169 2.582.505.748.337 1.366.78 1.852 1.329a5.667 5.667 0 011.104 1.87c.25.7.374 1.41.374 2.134 0 .748-.125 1.471-.374 2.17a5.51 5.51 0 01-1.123 1.87 5.634 5.634 0 01-1.852 1.33c-.736.336-1.603.504-2.6.504-.998 0-1.871-.168-2.62-.505a5.577 5.577 0 01-1.87-1.328 5.51 5.51 0 01-1.123-1.871 6.299 6.299 0 010-4.285 5.5 5.5 0 011.122-1.89c.5-.548 1.123-.99 1.871-1.328.749-.336 1.634-.505 2.657-.505zm3.443-13.845l2.47 2.582-23.35 22.9-2.47-2.694 23.35-22.788zm12.684 12.43v12.817h-1.287l-.115-.75-.162.166c-.274.26-.562.452-.866.575a3.234 3.234 0 01-1.22.22c-.616 0-1.163-.124-1.644-.374a3.533 3.533 0 01-1.21-1.028 4.765 4.765 0 01-.75-1.547 6.9 6.9 0 01-.259-1.931c0-.96.205-1.825.615-2.594.41-.769.929-1.316 1.556-1.643a4.268 4.268 0 011.999-.49 4.925 4.925 0 011.941.346v-3.766h1.402zm4.458 1.154v2.498h2.287v1.21h-2.306v5.86l.004.162c.018.36.1.603.246.732a.922.922 0 00.634.221c.41 0 .833-.166 1.268-.5l.384 1.115-.172.112c-.181.108-.39.205-.625.292a3.14 3.14 0 01-1.086.173c-.653 0-1.156-.176-1.508-.529-.352-.352-.528-.893-.528-1.623v-6.015h-1.5v-1.21h1.5v-2.498h1.402zm7.648 2.267c.948 0 1.742.272 2.383.817.64.544 1.079 1.194 1.316 1.95.237.756.355 1.435.355 2.037 0 .948-.201 1.825-.605 2.632-.403.807-.913 1.371-1.528 1.691-.614.32-1.255.48-1.921.48-.679 0-1.271-.137-1.777-.412a3.776 3.776 0 01-1.26-1.096 5.031 5.031 0 01-.758-1.556 6.217 6.217 0 01-.26-1.778c0-.91.186-1.761.558-2.555.371-.794.877-1.361 1.518-1.7.64-.34 1.3-.51 1.979-.51zm-15.219 1.191c-.717 0-1.325.212-1.825.635-.5.422-.823.912-.97 1.47a5.96 5.96 0 00-.221 1.508c0 .807.13 1.505.394 2.094.262.59.598.99 1.008 1.201.41.212.846.317 1.307.317.371 0 .73-.08 1.076-.24.346-.16.66-.426.942-.797v-5.746l-.146-.074a3.78 3.78 0 00-.72-.243 3.78 3.78 0 00-.845-.125zm15.219-.019c-.653 0-1.198.218-1.633.654-.436.435-.718.922-.846 1.46a6.429 6.429 0 00-.192 1.48c0 .73.128 1.399.384 2.007.257.609.59 1.035 1 1.278.41.244.839.365 1.287.365.602 0 1.12-.205 1.556-.615.436-.41.73-.903.884-1.48.154-.576.23-1.088.23-1.536a4.78 4.78 0 00-.393-1.95c-.263-.596-.599-1.022-1.009-1.279a2.363 2.363 0 00-1.268-.384zm-28.308.003c-.723 0-1.26.28-1.609.842a3.373 3.373 0 00-.524 1.815c0 .648.175 1.253.524 1.814.35.562.886.842 1.61.842.723 0 1.259-.28 1.608-.842.35-.56.524-1.166.524-1.814 0-.649-.175-1.254-.524-1.815-.35-.562-.885-.842-1.609-.842zM38.931 34.886c-.723 0-1.34.224-1.852.673-.511.45-.935 1.054-1.272 1.815-.337.76-.58 1.659-.73 2.694a23.447 23.447 0 00-.224 3.35c0 1.197.08 2.313.243 3.348.162 1.036.405 1.946.73 2.732.324.786.742 1.403 1.253 1.852.511.45 1.129.674 1.852.674a2.66 2.66 0 001.815-.674c.512-.449.936-1.066 1.272-1.852.337-.786.58-1.696.73-2.732.15-1.035.225-2.151.225-3.349 0-1.197-.075-2.313-.225-3.349-.15-1.035-.393-1.933-.73-2.694-.336-.76-.76-1.366-1.272-1.815a2.66 2.66 0 00-1.815-.673zm15.68-4.34c.997 0 1.87.167 2.618.504.749.337 1.372.78 1.871 1.329a5.51 5.51 0 011.123 1.87c.25.7.374 1.41.374 2.133a6.41 6.41 0 01-.374 2.17 5.51 5.51 0 01-1.123 1.872c-.499.549-1.122.991-1.87 1.328-.749.337-1.622.505-2.62.505s-1.865-.168-2.6-.505a5.634 5.634 0 01-1.853-1.328 5.51 5.51 0 01-1.122-1.871 6.299 6.299 0 01-.375-2.133c0-.748.125-1.472.375-2.17a5.51 5.51 0 011.122-1.871 5.634 5.634 0 011.852-1.329c.736-.337 1.603-.505 2.601-.505zm-.038 3.142c-.35 0-.661.081-.936.244a2.136 2.136 0 00-.673.617c-.175.25-.306.53-.393.842a3.497 3.497 0 00.393 2.788c.349.573.885.86 1.609.86.723 0 1.26-.287 1.609-.86a3.471 3.471 0 00.524-1.834c0-.324-.044-.642-.131-.954a2.747 2.747 0 00-.393-.842c-.175-.25-.4-.455-.674-.617a1.804 1.804 0 00-.935-.244z" id="Combined-Shape" fill="#FFF"/></g></g><g id="Group-3" transform="translate(43 74)"><g id="Bolo-TV--Desk" transform="translate(.256)"><circle id="Oval" fill="#333" cx="61.538" cy="61.538" r="61.538"/><path d="M41.585 19.967V15.97h1.775c1.054 0 1.857-.248 2.41-.746.551-.497.827-1.228.827-2.193 0-.994-.26-1.745-.783-2.252-.522-.508-1.325-.761-2.41-.761h-2.953v9.95h1.134zm1.85-5.042h-1.85v-3.879h1.835c.626 0 1.111.154 1.454.463.343.308.515.805.515 1.491 0 .687-.181 1.179-.544 1.477-.364.299-.833.448-1.41.448zm5.907 5.206a2.52 2.52 0 001.015-.201c.308-.134.582-.326.82-.574l.045.611h1v-4.64c0-.954-.212-1.635-.634-2.043-.423-.408-1.012-.612-1.768-.612-.567 0-1.04.087-1.417.261-.378.174-.697.36-.955.56l.358.835c.308-.248.626-.435.955-.56.328-.124.651-.186.97-.186.447 0 .792.13 1.036.388.244.259.366.686.366 1.283v.09c-.448 0-.99.052-1.627.156a3.672 3.672 0 00-1.715.761c-.507.403-.761.952-.761 1.649 0 .368.065.69.194.97.13.278.303.509.522.693.219.184.465.323.739.418.273.094.559.141.857.141zm.135-.94c-.15 0-.319-.022-.508-.067-.189-.044-.375-.176-.559-.395a1.21 1.21 0 01-.276-.805c0-.359.11-.664.328-.918.219-.254.56-.438 1.022-.552a7.981 7.981 0 011.649-.201v2.208c-.23.198-.48.37-.754.514a1.905 1.905 0 01-.902.217zm7.489.94c.467 0 .907-.067 1.32-.201.413-.134.748-.316 1.007-.544l-.313-.94c-.24.228-.51.412-.813.552-.304.139-.684.208-1.142.208a1.87 1.87 0 01-.82-.186 1.97 1.97 0 01-.679-.545 2.734 2.734 0 01-.462-.88 3.819 3.819 0 01-.172-1.193c0-.448.067-.885.201-1.313.135-.428.366-.783.694-1.067a1.665 1.665 0 011.119-.425c.438 0 .783.102 1.037.306a3.4 3.4 0 01.708.813l.761-.567a5.44 5.44 0 00-.38-.552c-.174-.229-.45-.44-.828-.634-.378-.194-.816-.29-1.313-.29-.378 0-.8.089-1.268.268-.467.179-.885.57-1.253 1.17-.368.603-.552 1.376-.552 2.32 0 .627.09 1.172.268 1.634.18.463.413.848.702 1.156.288.309.621.537 1 .687.377.149.77.223 1.178.223zm4.982-.164v-3.52h.91c.22 0 .423.04.612.119a.96.96 0 01.448.38c.109.174.278.52.507 1.037l.805 1.984h1.209l-1.194-3.013c-.139-.348-.293-.604-.462-.768a1.558 1.558 0 00-.671-.366c.198-.08.382-.234.552-.462.169-.23.333-.518.492-.866l.746-1.64h-1.179l-.656 1.506c-.21.467-.423.773-.642.918a1.325 1.325 0 01-.746.216h-.73v-5.475h-1.09v9.95h1.09zm11.652 0v-8.92h2.939v-1.03h-6.982v1.03h2.924v8.92H73.6zm7.533 0l3.387-9.95h-1.194l-2.7 8.205-2.715-8.205h-1.253l3.431 9.95h1.044zm-42.36 16.21c.437-.01.91-.083 1.417-.217s.94-.433 1.298-.895c.358-.463.537-1.062.537-1.798 0-.428-.085-.82-.254-1.178a2.263 2.263 0 00-.805-.91c-.368-.25-.89-.513-1.567-.791-.368-.14-.726-.291-1.074-.455a2.462 2.462 0 01-.835-.612c-.21-.243-.314-.554-.314-.932 0-.468.155-.833.463-1.097.308-.263.74-.395 1.298-.395.984 0 1.83.378 2.536 1.134l.552-.865a3.555 3.555 0 00-1.313-.978 4.185 4.185 0 00-1.715-.35c-.398 0-.826.07-1.283.209-.458.139-.863.425-1.216.857-.353.433-.53.963-.53 1.59 0 .417.087.802.261 1.155.174.353.465.67.873.948.408.278.905.522 1.492.73.795.309 1.365.607 1.708.896.343.288.515.676.515 1.163 0 .309-.07.6-.21.873-.139.274-.367.485-.686.634a2.56 2.56 0 01-1.104.224c-.497 0-.95-.09-1.357-.269a4.84 4.84 0 01-1.164-.73l-.492 1.059c.14.119.308.236.507.35.2.115.425.222.679.321a4.898 4.898 0 001.783.328zm7.742-.046a4.38 4.38 0 001.38-.223c.453-.15.788-.334 1.007-.552l-.283-.94a3.691 3.691 0 01-.91.567 2.86 2.86 0 01-1.164.223c-.736 0-1.298-.253-1.686-.76-.387-.508-.581-1.209-.581-2.104H49.2a5.93 5.93 0 00-.261-1.686 2.783 2.783 0 00-.963-1.432c-.467-.368-1.054-.552-1.76-.552-.467 0-.935.115-1.402.343-.468.23-.853.642-1.157 1.239-.303.596-.455 1.302-.455 2.118 0 1.223.299 2.156.896 2.797.596.642 1.402.962 2.416.962zm1.447-4.699h-3.58c.12-.666.343-1.141.671-1.425a1.723 1.723 0 011.164-.425c.199 0 .438.057.716.172.279.114.515.32.709.619.194.298.3.651.32 1.06zm3.864 4.535v-5.326c.229-.228.495-.435.798-.619.304-.184.615-.276.933-.276.169 0 .348.02.537.06l.134-1.06a2.915 2.915 0 00-.612-.074c-.338 0-.653.087-.947.261a4.986 4.986 0 00-.843.634l-.104-.716h-.985v7.116h1.09zm3.864-8.369a.735.735 0 00.507-.186c.14-.125.21-.306.21-.545 0-.229-.07-.408-.21-.537a.718.718 0 00-.507-.194.745.745 0 00-.515.194c-.144.13-.216.308-.216.537 0 .239.072.42.216.545a.762.762 0 00.515.186zm.552 8.37V28.85h-1.104v7.116h1.104zm4.938.163a4.38 4.38 0 001.38-.223c.453-.15.788-.334 1.007-.552l-.283-.94a3.691 3.691 0 01-.91.567 2.864 2.864 0 01-1.164.223c-.736 0-1.298-.253-1.686-.76-.388-.508-.582-1.209-.582-2.104h4.923c0-.537-.087-1.099-.26-1.686a2.783 2.783 0 00-.963-1.432c-.467-.368-1.054-.552-1.76-.552-.468 0-.935.115-1.403.343-.467.23-.852.642-1.156 1.239-.303.596-.455 1.302-.455 2.118 0 1.223.299 2.156.895 2.797.597.642 1.403.962 2.417.962zm1.447-4.699h-3.58c.12-.666.343-1.141.671-1.425a1.723 1.723 0 011.164-.425c.199 0 .437.057.716.172.278.114.514.32.708.619.194.298.301.651.321 1.06zm4.177 4.535v-6.176h1.597v-.94h-1.612v-.507c0-.467.06-.845.18-1.134.119-.288.412-.432.88-.432.169 0 .343.017.522.052.179.035.338.087.477.156l.105-.954a3.425 3.425 0 00-1.194-.21c-.298 0-.61.06-.932.18-.324.12-.592.378-.806.776-.214.397-.32.915-.32 1.551v.522h-1v.94h1v6.176h1.103zm4.46.164c.369 0 .707-.067 1.015-.201.309-.134.582-.326.82-.574l.046.611h1v-4.64c0-.954-.212-1.635-.635-2.043-.423-.408-1.012-.612-1.768-.612-.567 0-1.04.087-1.417.261-.378.174-.696.36-.955.56l.358.835c.309-.248.627-.435.955-.56.328-.124.651-.186.97-.186.447 0 .793.13 1.037.388.243.259.365.686.365 1.283v.09c-.447 0-.99.052-1.626.156a3.672 3.672 0 00-1.716.761c-.507.403-.76.952-.76 1.649 0 .368.064.69.193.97.13.278.304.509.523.693.218.184.465.323.738.418.274.094.56.141.858.141zm.135-.94c-.149 0-.318-.022-.507-.067-.19-.044-.376-.176-.56-.395a1.21 1.21 0 01-.276-.805c0-.359.11-.664.329-.918.218-.254.56-.438 1.022-.552a7.981 7.981 0 011.648-.201v2.208c-.229.198-.48.37-.753.514a1.905 1.905 0 01-.903.217zm5.759.776v-5.58c.248-.198.542-.38.88-.544a2.397 2.397 0 011.059-.246c.577 0 .992.17 1.246.507.253.339.38.806.38 1.403v4.46h1.09v-4.43c0-.955-.19-1.671-.568-2.149-.378-.477-1.034-.716-1.969-.716-.408 0-.796.07-1.164.21-.368.138-.69.317-.97.536l-.074-.567h-1v7.116h1.09zm8.578.164c.348 0 .708-.064 1.081-.194.373-.129.686-.355.94-.678.254-.324.38-.739.38-1.246 0-.577-.166-1.027-.5-1.35-.332-.323-.812-.6-1.439-.828-1.094-.398-1.64-.826-1.64-1.283 0-.239.091-.458.275-.656.184-.2.485-.299.903-.299.368 0 .7.065 1 .194.298.13.566.308.805.537l.462-.82a3.114 3.114 0 00-.925-.59c-.378-.164-.83-.246-1.357-.246-.667 0-1.201.182-1.604.545-.403.363-.604.833-.604 1.41 0 .497.14.897.418 1.2.278.304.755.58 1.432.828 1.173.458 1.76.935 1.76 1.433 0 .387-.117.67-.35.85-.234.179-.58.268-1.037.268-.448 0-.838-.087-1.171-.26a4.342 4.342 0 01-.828-.545l-.388.925c.08.08.228.184.447.313a3.858 3.858 0 001.94.492zM26.704 66.385c.935 0 1.77-.05 2.506-.15a18.04 18.04 0 001.94-.357 9.199 9.199 0 001.357-.433c.348-.149.602-.273.76-.373v-9.577h-6.683v3.43h3.103v3.581c-.08.04-.363.105-.85.194-.487.09-1.129.134-1.924.134a4.768 4.768 0 01-2.074-.447 4.438 4.438 0 01-1.611-1.313c-.448-.577-.8-1.283-1.06-2.118-.258-.836-.387-1.79-.387-2.865 0-1.173.13-2.193.388-3.058.258-.865.596-1.586 1.014-2.163.418-.577.9-1.005 1.447-1.283a3.675 3.675 0 011.686-.418c.557 0 1.054.075 1.492.224.437.15.82.338 1.148.567.329.229.607.482.836.76.229.28.413.548.552.806l2.626-2.416c-.557-1.015-1.383-1.845-2.477-2.492-1.094-.646-2.496-.97-4.207-.97a8.193 8.193 0 00-3.178.627c-1.004.418-1.894 1.06-2.67 1.925s-1.392 1.949-1.85 3.252c-.457 1.303-.686 2.85-.686 4.64 0 1.63.214 3.083.641 4.356.428 1.273 1.03 2.352 1.806 3.237a7.584 7.584 0 002.79 2.014c1.083.457 2.272.686 3.565.686zm13.993-.418v-7.459h2.894c.438 0 .791.045 1.06.134.268.09.492.234.67.433.18.199.33.458.448.776.12.318.25.696.388 1.134l1.492 4.982h3.968l-1.491-5.43c-.319-1.154-.652-1.99-1-2.506a2.877 2.877 0 00-1.358-1.104c.955-.577 1.661-1.293 2.119-2.148a5.86 5.86 0 00.686-2.805c0-1.174-.199-2.138-.597-2.894-.397-.756-.92-1.358-1.566-1.805a6.121 6.121 0 00-2.163-.94 10.714 10.714 0 00-2.357-.269h-6.952v19.901h3.76zm2.686-10.89h-2.686v-5.55h2.686c1.193 0 2.058.234 2.595.701.537.468.806 1.179.806 2.134 0 1.81-1.134 2.715-3.401 2.715zm12.83 10.89l1.342-3.998h7.608l1.373 3.998h3.908l-7.19-19.9h-3.79l-7.16 19.9h3.908zm7.816-7.37h-5.31l2.655-7.846 2.655 7.847zm13.636 7.37v-16.29h5.639v-3.61H68.207v3.61h5.639v16.29h3.819zm11.785 0v-19.9h-3.819v19.9h3.82zm9.876.418c.836 0 1.661-.12 2.477-.358a6.763 6.763 0 002.193-1.089 5.6 5.6 0 001.566-1.835c.398-.736.597-1.591.597-2.566 0-.895-.11-1.666-.328-2.312a4.561 4.561 0 00-1.045-1.716c-.477-.497-1.089-.94-1.835-1.328a22.8 22.8 0 00-2.67-1.148 39.874 39.874 0 01-1.865-.731c-.487-.21-.875-.423-1.163-.642-.289-.219-.493-.452-.612-.701-.12-.249-.18-.552-.18-.91 0-.577.21-1.07.628-1.477.417-.408 1.143-.612 2.178-.612.517 0 1.019.065 1.506.194.488.13.94.294 1.358.493.418.199.79.417 1.119.656.328.239.592.477.79.716l2-2.655a8.686 8.686 0 00-.91-.895 6.533 6.533 0 00-1.358-.88 9.132 9.132 0 00-1.895-.672c-.726-.179-1.546-.268-2.461-.268-1.094 0-2.059.139-2.894.417-.836.279-1.532.667-2.089 1.164a4.769 4.769 0 00-1.253 1.76 5.743 5.743 0 00-.418 2.208c0 .836.115 1.562.343 2.178a4.527 4.527 0 001.015 1.611c.447.458 1 .856 1.656 1.194a15.32 15.32 0 002.267.925 29.43 29.43 0 012.253.85c.567.249 1.004.507 1.313.776.308.268.512.557.611.865.1.309.15.672.15 1.09 0 .695-.274 1.252-.82 1.67-.548.418-1.299.627-2.254.627a7.849 7.849 0 01-1.805-.194 7.627 7.627 0 01-2.58-1.12 7.86 7.86 0 01-.746-.566l-1.612 3.312c.18.14.463.318.85.537.389.219.87.433 1.448.641.577.21 1.238.393 1.984.552.746.16 1.576.239 2.491.239zM38.213 85.967v-9.876h-1.477l-3.118 1.985.88 1.447 1.776-1.134v7.578h1.94zm7.803.164a2.69 2.69 0 001.014-.186 2.04 2.04 0 00.76-.515l.075.537h1.701v-4.624c0-.488-.067-.903-.201-1.246a2.286 2.286 0 00-.56-.85 2.2 2.2 0 00-.85-.493 3.579 3.579 0 00-1.09-.156c-.337 0-.653.032-.946.097a4.963 4.963 0 00-.791.238 4.187 4.187 0 00-.597.291 2.7 2.7 0 00-.365.254l.611 1.298c.07-.06.162-.127.276-.202a4.12 4.12 0 01.396-.223 2.63 2.63 0 01.507-.187c.189-.05.388-.074.597-.074.358 0 .639.084.843.253.203.17.305.453.305.85v.105c-.189.02-.425.042-.708.067a6.739 6.739 0 00-.783.112c-.339.06-.662.15-.97.268-.308.12-.582.274-.82.463-.24.189-.428.42-.568.694a2.06 2.06 0 00-.208.947 2.179 2.179 0 00.731 1.678c.218.194.47.343.753.448.283.104.58.156.888.156zm.432-1.536c-.318 0-.564-.072-.738-.216a.709.709 0 01-.261-.575c0-.229.077-.44.23-.634.155-.194.431-.33.829-.41a6.8 6.8 0 01.597-.097c.208-.025.412-.042.611-.052v1.462c-.159.149-.35.273-.574.373-.224.1-.455.149-.694.149zm6.28-6.684c.16-.397.317-.653.47-.768.155-.114.287-.171.396-.171.11 0 .224.032.343.097.12.064.279.166.478.305.228.15.44.261.634.336.194.075.395.112.604.112.358 0 .701-.157 1.03-.47.327-.313.561-.724.7-1.23l-1.029-.553c-.16.398-.308.654-.448.769-.139.114-.263.171-.373.171a.903.903 0 01-.372-.097 4.127 4.127 0 01-.523-.306 3.575 3.575 0 00-.626-.335 1.572 1.572 0 00-.582-.112c-.348 0-.676.154-.985.462-.308.309-.552.716-.73 1.224l1.014.566zm.493 8.056v-5.102c.18-.179.39-.343.634-.492a1.5 1.5 0 01.798-.224c.408 0 .726.15.955.448.229.298.343.72.343 1.268v4.102h1.85v-4.251c0-.557-.062-1.035-.186-1.433-.125-.397-.301-.72-.53-.97a2.033 2.033 0 00-.82-.544 3.248 3.248 0 00-2.14.022c-.364.13-.69.314-.978.553l-.09-.567h-1.686v7.19h1.85zm9.399.164c.577 0 1.081-.109 1.514-.328a3.18 3.18 0 001.074-.865c.283-.358.497-.763.642-1.216a4.52 4.52 0 00.216-1.38 4.45 4.45 0 00-.216-1.372 3.648 3.648 0 00-.65-1.201 3.235 3.235 0 00-1.074-.85c-.427-.214-.93-.321-1.506-.321-.577 0-1.082.107-1.515.32-.432.214-.79.498-1.074.85a3.724 3.724 0 00-.641 1.202 4.449 4.449 0 00-.216 1.372c0 .468.072.928.216 1.38.144.453.358.858.641 1.216a3.19 3.19 0 001.074.865c.433.219.938.328 1.515.328zm0-1.596c-.269 0-.505-.057-.709-.171a1.478 1.478 0 01-.507-.47 2.261 2.261 0 01-.306-.694 3.351 3.351 0 01-.104-.858c0-.298.034-.582.104-.85.07-.269.174-.5.313-.694.14-.194.309-.348.508-.462a1.37 1.37 0 01.7-.172c.27 0 .503.057.702.172.199.114.368.268.507.462.14.194.244.425.313.694.07.268.105.552.105.85 0 .308-.035.594-.105.858a2.16 2.16 0 01-.313.694c-.14.199-.308.355-.507.47a1.382 1.382 0 01-.701.171zm10.577 1.596c.467 0 .907-.067 1.32-.201.413-.134.748-.316 1.007-.544l-.313-.94a2.98 2.98 0 01-.813.552c-.304.139-.684.208-1.142.208a1.87 1.87 0 01-.82-.186 1.97 1.97 0 01-.679-.545 2.734 2.734 0 01-.462-.88 3.819 3.819 0 01-.172-1.193c0-.448.067-.885.202-1.313.134-.428.365-.783.693-1.067a1.665 1.665 0 011.12-.425c.437 0 .782.102 1.036.306a3.4 3.4 0 01.709.813l.76-.567a5.44 5.44 0 00-.38-.552c-.174-.229-.45-.44-.828-.634-.378-.194-.816-.29-1.313-.29-.378 0-.8.089-1.268.268-.467.179-.885.57-1.253 1.17-.368.603-.552 1.376-.552 2.32 0 .627.09 1.172.269 1.634.179.463.412.848.7 1.156.29.309.622.537 1 .687.378.149.771.223 1.179.223zm6.49 0c.516 0 1.014-.124 1.491-.373.477-.248.873-.686 1.186-1.312.313-.627.47-1.308.47-2.044 0-.468-.092-.995-.276-1.581a3.23 3.23 0 00-1.022-1.515c-.497-.422-1.114-.634-1.85-.634-.527 0-1.039.132-1.536.396-.498.263-.89.703-1.179 1.32a4.625 4.625 0 00-.433 1.984c0 .467.068.927.202 1.38.134.452.33.855.59 1.208.258.353.583.637.976.85.393.215.853.321 1.38.321zm0-.925a1.93 1.93 0 01-1-.283c-.319-.189-.577-.52-.776-.992a3.978 3.978 0 01-.298-1.559c0-.348.05-.731.149-1.149.1-.417.318-.795.656-1.133.338-.339.761-.508 1.268-.508.338 0 .667.1.985.299.318.199.58.53.783.992.204.462.306.967.306 1.514 0 .348-.06.746-.18 1.193-.118.448-.347.83-.685 1.15a1.707 1.707 0 01-1.209.476zm5.862.761v-5.58c.249-.198.542-.38.88-.544a2.397 2.397 0 011.06-.246c.576 0 .992.17 1.245.507.254.339.38.806.38 1.403v4.46h1.09v-4.43c0-.955-.19-1.671-.567-2.149-.378-.477-1.035-.716-1.97-.716-.407 0-.795.07-1.163.21a3.612 3.612 0 00-.97.536l-.074-.567h-1v7.116h1.09zm-59.106 16V97.76h3.76v4.207h1.909v-9.95h-1.91v3.938h-3.76v-3.938h-1.909v9.95h1.91zm11.74 0c.24 0 .485-.02.739-.06a3.5 3.5 0 00.694-.178c.576-.23 1.007-.582 1.29-1.06a2.9 2.9 0 00.425-1.506c0-.627-.154-1.147-.462-1.56a2.64 2.64 0 00-1.224-.902c.368-.229.652-.507.85-.835.2-.328.3-.716.3-1.164 0-.418-.078-.793-.232-1.126a2.426 2.426 0 00-.649-.85 2.845 2.845 0 00-.985-.53 4.147 4.147 0 00-1.253-.18h-3.371v9.951h3.878zm-1.059-5.877H36.2v-2.373l.852.001c.054.001.116.004.185.007l.299.015a2.994 2.994 0 01.455.067c.288.1.507.251.656.455a1.096 1.096 0 01.06 1.238 1.22 1.22 0 01-.523.455c-.089.05-.23.085-.425.105-.194.02-.405.03-.634.03zm.433 4.177h-1.358v-2.551h1.328c.229 0 .443.017.642.052.198.035.373.092.522.171.228.13.402.299.522.508.12.208.179.422.179.641 0 .19-.047.37-.142.545-.094.174-.246.32-.455.44-.12.07-.273.12-.462.149-.19.03-.448.045-.776.045zm9.115 1.91c.736 0 1.38-.152 1.932-.456a4.223 4.223 0 001.372-1.186 5.253 5.253 0 00.82-1.663 6.617 6.617 0 000-3.775 5.253 5.253 0 00-.82-1.663 4.144 4.144 0 00-1.372-1.179c-.552-.298-1.196-.447-1.932-.447-.726 0-1.36.15-1.902.447a4.191 4.191 0 00-1.358 1.179 5.136 5.136 0 00-.813 1.663 6.787 6.787 0 000 3.775c.18.621.45 1.176.813 1.663.363.488.816.883 1.358 1.186.542.304 1.176.455 1.902.455zm0-1.776a1.92 1.92 0 01-1.037-.284 2.416 2.416 0 01-.76-.76 3.698 3.698 0 01-.463-1.097 5.18 5.18 0 01-.157-1.275c0-.438.052-.863.157-1.276.104-.413.258-.778.462-1.096.204-.319.458-.572.761-.761a1.92 1.92 0 011.037-.284c.398 0 .75.095 1.06.284.308.189.566.442.775.76.209.319.365.684.47 1.097.104.413.157.838.157 1.276 0 .437-.053.862-.157 1.275a3.583 3.583 0 01-.47 1.097 2.46 2.46 0 01-.776.76 1.986 1.986 0 01-1.059.284zm15.784 1.566v-1.805h-4.909v-2.267h3.79V96.09h-3.79v-2.268h4.58v-1.805h-6.49v9.95h6.819zm3.953.164c.408 0 .788-.044 1.141-.134.353-.09.662-.226.925-.41a2.02 2.02 0 00.627-.701c.154-.284.23-.62.23-1.007 0-.348-.054-.65-.163-.903a1.832 1.832 0 00-.478-.656 2.539 2.539 0 00-.783-.455 6.603 6.603 0 00-1.081-.299 9.762 9.762 0 01-.716-.171 2.289 2.289 0 01-.448-.172.564.564 0 01-.231-.209.57.57 0 01-.067-.283.66.66 0 01.23-.507c.155-.14.45-.21.889-.21.477 0 .9.08 1.268.24.368.159.646.313.835.462l.627-1.343a2.19 2.19 0 00-.329-.216 3.933 3.933 0 00-.567-.253 5.182 5.182 0 00-.805-.217 5.524 5.524 0 00-1.044-.09c-.965 0-1.684.2-2.156.597-.472.398-.709.915-.709 1.552 0 .348.053.644.157.888.104.243.259.452.462.626.204.174.45.318.739.433.288.114.612.211.97.29.358.08.646.157.865.232.219.074.388.15.507.224a.58.58 0 01.239.246c.04.09.06.184.06.283a.617.617 0 01-.262.522c-.174.13-.484.194-.932.194-.279 0-.542-.03-.79-.09a4.27 4.27 0 01-.687-.223 3.79 3.79 0 01-.567-.298 3.25 3.25 0 01-.418-.314l-.67 1.418c.109.1.258.204.447.313.189.11.412.211.671.306a5.973 5.973 0 002.014.336zm6.102 2.656v-2.864c.308.139.626.208.954.208.627 0 1.169-.109 1.626-.328a3.276 3.276 0 001.127-.858c.293-.353.512-.755.656-1.208a4.52 4.52 0 00.216-1.38c0-.487-.062-.96-.186-1.417a3.661 3.661 0 00-.56-1.201 2.867 2.867 0 00-.932-.828c-.373-.209-.803-.313-1.29-.313-.388 0-.724.077-1.007.23-.284.155-.51.317-.679.486l-.09-.537h-1.685v10.01h1.85zm.85-4.267c-.279 0-.567-.07-.865-.209v-3.476c.109-.169.278-.325.507-.47.229-.144.472-.216.73-.216.26 0 .486.065.68.194.194.13.355.298.484.507.13.21.227.448.291.716.065.269.097.542.097.82 0 .27-.037.53-.112.784a2.04 2.04 0 01-.35.686c-.16.204-.36.366-.604.485a1.93 1.93 0 01-.858.18zm7.071 1.611a2.7 2.7 0 001.015-.186 2.04 2.04 0 00.76-.515l.075.537h1.7v-4.624c0-.488-.066-.903-.2-1.246a2.286 2.286 0 00-.56-.85 2.2 2.2 0 00-.85-.493 3.579 3.579 0 00-1.09-.156c-.338 0-.653.032-.947.097a4.963 4.963 0 00-.79.238 4.187 4.187 0 00-.597.291 2.79 2.79 0 00-.366.254l.612 1.298c.07-.06.162-.127.276-.202.114-.074.246-.149.395-.223a2.63 2.63 0 01.508-.187c.188-.05.387-.074.596-.074.358 0 .64.084.843.253.204.17.306.453.306.85v.105c-.189.02-.425.042-.709.067a6.739 6.739 0 00-.783.112c-.338.06-.661.15-.97.268-.308.12-.581.274-.82.463s-.428.42-.567.694a2.06 2.06 0 00-.209.947 2.208 2.208 0 00.732 1.678c.218.194.47.343.753.448.283.104.579.156.887.156zm.433-1.536c-.318 0-.565-.072-.739-.216a.709.709 0 01-.26-.575c0-.229.076-.44.23-.634.155-.194.43-.33.828-.41a6.8 6.8 0 01.597-.097c.21-.025.413-.042.612-.052v1.462c-.16.149-.35.273-.574.373-.224.1-.455.149-.694.149zm6.28-6.684c.16-.397.316-.653.47-.768.155-.114.286-.171.396-.171.11 0 .223.032.343.097.12.064.278.166.477.305.229.15.44.261.634.336.194.075.396.112.604.112.358 0 .702-.157 1.03-.47.328-.313.562-.724.701-1.23l-1.03-.553c-.159.398-.308.654-.447.769-.14.114-.264.171-.373.171a.903.903 0 01-.373-.097 4.127 4.127 0 01-.522-.306 3.575 3.575 0 00-.627-.335 1.572 1.572 0 00-.581-.112c-.348 0-.677.154-.985.462-.308.309-.552.716-.731 1.224l1.014.566zm.493 8.056v-5.102c.179-.179.39-.343.634-.492a1.5 1.5 0 01.798-.224c.408 0 .726.15.955.448.228.298.343.72.343 1.268v4.102h1.85v-4.251c0-.557-.062-1.035-.187-1.433-.124-.397-.3-.72-.53-.97a2.033 2.033 0 00-.82-.544 3.248 3.248 0 00-2.14.022c-.364.13-.69.314-.978.553l-.09-.567h-1.685v7.19h1.85zm8.31.164c.367 0 .705-.062 1.014-.186a2.04 2.04 0 00.76-.515l.075.537h1.7v-4.624c0-.488-.066-.903-.2-1.246a2.286 2.286 0 00-.56-.85 2.2 2.2 0 00-.85-.493 3.579 3.579 0 00-1.09-.156c-.338 0-.653.032-.947.097a4.963 4.963 0 00-.79.238 4.187 4.187 0 00-.597.291 2.79 2.79 0 00-.366.254l.612 1.298c.07-.06.162-.127.276-.202.114-.074.246-.149.395-.223a2.63 2.63 0 01.508-.187c.189-.05.387-.074.596-.074.358 0 .64.084.843.253.204.17.306.453.306.85v.105c-.189.02-.425.042-.709.067a6.739 6.739 0 00-.783.112c-.338.06-.661.15-.97.268-.308.12-.581.274-.82.463s-.428.42-.567.694a2.06 2.06 0 00-.209.947 2.208 2.208 0 00.732 1.678c.218.194.47.343.753.448.283.104.579.156.887.156zm.432-1.536c-.318 0-.565-.072-.739-.216a.709.709 0 01-.26-.575c0-.229.076-.44.23-.634.155-.194.43-.33.829-.41a6.8 6.8 0 01.596-.097c.21-.025.413-.042.612-.052v1.462c-.16.149-.35.273-.574.373-.224.1-.455.149-.694.149z" id="PackTVSeriefansGRATIS1añoconHBOEspaña" fill="#FFF" fill-rule="nonzero"/></g></g></g></g></g></svg>