<svg xmlns="http://www.w3.org/2000/svg" width="44" height="44" viewBox="0 0 44 44">
    <g fill="none" fill-rule="evenodd" transform="translate(-10 -10)">
        <circle cx="32" cy="32" r="32" fill="#FFF"/>
        <g fill-rule="nonzero">
            <path fill="#E60000" d="M4.896 17.895l6.89-9.365c.174-.219.174-.512 0-.73-.176-.233-.47-.371-.783-.367H6.377L7.86.849c.043-.18.001-.368-.114-.52-.115-.151-.294-.255-.495-.286-.402-.125-.846.03-1.047.367L.1 10.799c-.173.218-.087.512 0 .73.176.22.436.367.698.367h3.925l-1.57 5.485c-.107.37.12.753.523.879.088.073.262.073.349.073.435-.073.784-.22.871-.438zM16.813 17.895l6.89-9.365c.174-.219.174-.512 0-.73-.176-.233-.47-.371-.783-.367h-4.624L19.779.849c.042-.18 0-.368-.114-.52-.115-.151-.294-.255-.496-.286-.402-.125-.846.03-1.047.367l-6.105 10.389c-.174.218-.087.512 0 .73.175.22.436.367.698.367h3.924l-1.57 5.485c-.107.37.12.753.523.879.089.073.262.073.35.073.435-.073.784-.22.87-.438z" transform="translate(13.667 22.833)"/>
            <path fill="#EBEBEB" d="M30.186 17.895l6.36-9.365c.16-.219.16-.512 0-.73-.162-.233-.434-.371-.723-.367h-4.268L32.924.849c.039-.18 0-.368-.105-.52-.106-.151-.272-.255-.458-.286-.37-.125-.78.03-.966.367l-5.636 10.389c-.16.218-.08.512 0 .73.162.22.403.367.645.367h3.622l-1.449 5.485c-.099.37.11.753.482.879.082.073.242.073.323.073.402-.073.724-.22.804-.438z" transform="translate(13.667 22.833)"/>
        </g>
    </g>
</svg>
