<svg xmlns="http://www.w3.org/2000/svg" width="120" height="120" viewBox="0 0 120 120">
    <g fill="none" fill-rule="evenodd">
        <circle cx="60" cy="60" r="60" fill="#000" fill-opacity=".2"/>
        <g transform="translate(21 21)">
            <path d="M0 0H78V78H0z"/>
            <circle cx="39" cy="39" r="32.48" fill="#FFF" fill-rule="nonzero"/>
            <path fill="#000" fill-rule="nonzero" d="M39 71.48c-17.916 0-32.472-14.887-32.472-32.886V39c.52 17.567 14.911 31.539 32.486 31.539C56.59 70.539 70.98 56.567 71.5 39v-.406C71.296 57.224 56.916 71.48 39 71.48z" opacity=".06"/>
            <path fill="#E60000" fill-rule="nonzero" d="M59.467 35.518c-.101-.693-.745-1.173-1.438-1.072-.694.1-1.174.745-1.073 1.438.127.875.191 1.757.191 2.64-.011 10.018-8.13 18.137-18.147 18.148-4.99.015-9.763-2.045-13.175-5.688h8.938c.7 0 1.267-.567 1.267-1.267s-.567-1.268-1.267-1.268H23.469c-.7 0-1.267.568-1.267 1.268v11.375c0 .7.567 1.267 1.267 1.267s1.268-.567 1.268-1.267v-7.589c3.837 3.673 8.951 5.713 14.263 5.688 11.414-.02 20.662-9.268 20.682-20.683 0-1-.073-2-.215-2.99z"/>
            <g fill="#000" fill-rule="nonzero" opacity=".06">
                <path d="M1.532 12.594c-.7 0-1.268-.568-1.268-1.268v.634c0 .7.568 1.267 1.268 1.267.7 0 1.267-.567 1.267-1.267v-.634c0 .336-.133.659-.371.897-.238.237-.56.37-.896.37zM3.888 1.848h8.937c.337.002.66-.132.898-.37s.37-.56.37-.897c0-.107-.016-.214-.045-.317-.14.56-.642.951-1.219.95H3.396l.492.634z" transform="translate(21.938 49.156)"/>
            </g>
            <path fill="#E60000" fill-rule="nonzero" d="M54.53 15.616c-.7 0-1.267.568-1.267 1.268v7.613c-3.834-3.68-8.949-5.725-14.263-5.704-11.414.02-20.662 9.268-20.682 20.682 0 1.006.072 2.01.215 3.007.093.622.626 1.083 1.255 1.084.061.004.122.004.183 0 .333-.048.634-.227.835-.496.2-.27.287-.609.238-.942-.127-.874-.19-1.757-.191-2.64.004-10.023 8.124-18.149 18.147-18.16 4.975-.02 9.736 2.021 13.15 5.639h-8.913c-.7 0-1.267.567-1.267 1.267s.567 1.268 1.267 1.268h11.294c.7 0 1.267-.568 1.267-1.268v-11.35c0-.7-.567-1.268-1.267-1.268z"/>
            <path fill="#000" fill-rule="nonzero" d="M21.023 41.945c-.13.6-.671 1.018-1.284.994-.612-.024-1.119-.484-1.202-1.091-.127-.874-.198-1.754-.211-2.637v.264c0 1.006.073 2.011.22 3.007.048.462.346.86.776 1.037.43.177.921.106 1.282-.187.36-.293.533-.76.448-1.216-.016-.057-.02-.114-.029-.17z" opacity=".06"/>
            <g fill="#000" fill-rule="nonzero" opacity=".06">
                <path d="M32.493 2.763v-.297c0-.815-.055-1.63-.162-2.438-.044.163-.054.333-.029.5.11.74.173 1.487.191 2.234zM.09 18.168c3.839 3.672 8.952 5.71 14.264 5.687 11.414-.02 20.662-9.268 20.682-20.682v-.406c-.18 11.3-9.38 20.37-20.682 20.39-5.33.022-10.46-2.032-14.3-5.729l.037.74z" transform="translate(24.646 35.344)"/>
            </g>
            <path fill="#000" fill-rule="nonzero" d="M52.15 26.967h.488c-.151-.223-.317-.436-.496-.638-3.413-3.615-8.17-5.654-13.142-5.635-10.017.01-18.136 8.126-18.147 18.143v.374c.11-7.368 4.666-13.939 11.528-16.626 6.863-2.687 14.668-.957 19.753 4.378" opacity=".06"/>
            <path fill="#000" fill-rule="nonzero" d="M43.237 28.868h11.298c.575-.004 1.075-.394 1.219-.95.03.103.044.21.044.316 0 .337-.133.659-.37.897-.239.237-.56.37-.897.37H43.237c-.338.006-.663-.125-.902-.364-.24-.24-.37-.565-.365-.903 0-.223.062-.443.178-.633 0 .698.39 1.267 1.09 1.267z" opacity=".06"/>
        </g>
    </g>
</svg>
