<svg xmlns="http://www.w3.org/2000/svg" width="120" height="120" viewBox="0 0 120 120">
    <g fill="none" fill-rule="evenodd">
        <circle cx="60" cy="60" r="60" fill="#000" fill-opacity=".2"/>
        <g transform="translate(21 21)">
            <circle cx="39" cy="39" r="32.5" fill="#FFF" fill-rule="nonzero"/>
            <g fill-rule="nonzero">
                <path fill="#000" d="M32.5 59.313c-17.794 0-32.297-14.3-32.5-32.094v.406c0 17.956 14.544 32.5 32.5 32.5S65 45.581 65 27.625v-.406c-.203 17.794-14.706 32.093-32.5 32.093z" opacity=".06" transform="translate(6.5 11.375)"/>
                <g>
                    <path fill="#000" d="M44.132 12.431c-.325-.284-.853-.284-1.137.04-.285.326-.285.854.04 1.138 1.991 1.829 3.86 3.82 5.485 5.972 5.606 7.313 8.734 16.006 9.181 25.31.528-.813 1.016-1.666 1.422-2.52-.853-8.693-4.022-16.818-9.303-23.765-1.666-2.194-3.575-4.265-5.688-6.175zM27.639 49.075c-.447.081-.732.487-.65.934.609 3.453 1.584 6.825 2.925 10.075h.284c.487 0 .975 0 1.462-.04-1.421-3.331-2.478-6.785-3.087-10.36-.081-.365-.528-.69-.934-.609zM42.751 7.84c.163.204.406.285.61.285.203 0 .365-.081.528-.203 2.275-1.91 4.712-3.656 7.271-5.119l-1.34-1.097c-2.478 1.463-4.794 3.128-6.988 4.957-.325.324-.365.853-.081 1.178zM44.62 9.303c-.447 0-.853.366-.853.813 0 .447.365.812.812.812h.04c4.998 0 9.954.731 14.707 2.234-.325-.69-.69-1.34-1.097-2.03-4.469-1.22-9.019-1.829-13.61-1.829zM30.157 47.572c-.243.406-.081.894.285 1.097 5.322 3.169 11.253 5.281 17.347 6.256.65-.447 1.34-.894 1.95-1.34-6.5-.813-12.838-2.966-18.485-6.297-.365-.204-.894-.082-1.097.284zM36.617 8.653c-.122 0-.285-.04-.407-.122-7.475-4.469-16.006-6.825-24.659-6.825-.447 0-.812-.365-.812-.812 0-.447.365-.813.812-.813 8.978.04 17.794 2.478 25.513 7.069.365.244.528.731.284 1.097-.203.244-.447.406-.731.406z" opacity=".06" transform="translate(6.5 11.375) translate(2.302)"/>
                    <path fill="#4A4D4E" d="M27.11 42.006c-.446 0-.812-.365-.812-.812C26.5 30.956 30.158 20.962 36.617 13c.284-.366.812-.406 1.137-.122.366.284.406.813.122 1.138-6.256 7.678-9.79 17.306-9.994 27.178.04.487-.325.812-.772.812zM14.68 21.938c-.245 0-.448-.082-.61-.285-.285-.325-.244-.853.081-1.137 6.134-5.282 13.61-8.857 21.572-10.36.447-.081.853.203.934.65.082.447-.203.853-.65.935-7.637 1.462-14.868 4.915-20.84 9.993-.122.122-.325.203-.488.203z" transform="translate(6.5 11.375) translate(2.302)"/>
                    <path fill="#000" d="M.948 41.722c-.081 0-.203 0-.284-.04-.407-.163-.65-.61-.488-1.057 1.747-4.713 4.144-9.1 7.231-13.081.285-.366.772-.407 1.138-.163.365.285.406.772.162 1.138-2.965 3.86-5.322 8.084-6.987 12.634-.122.366-.447.569-.772.569z" opacity=".06" transform="translate(6.5 11.375) translate(2.302)"/>
                    <path fill="#4A4D4E" d="M23.78 43.672c-.204 0-.366-.081-.529-.203-4.55-3.982-8.287-8.694-11.09-14.056-.204-.407-.041-.894.324-1.097.407-.203.894-.041 1.097.325 2.722 5.159 6.338 9.75 10.725 13.568.325.285.366.813.082 1.138-.163.244-.366.325-.61.325z" transform="translate(6.5 11.375) translate(2.302)"/>
                    <path fill="#000" d="M9.357 21.45c-.365 0-.65-.203-.772-.569-1.584-5.078-2.437-10.36-2.478-15.722 0-.447.366-.812.813-.812.447 0 .812.365.812.812.04 5.16.853 10.278 2.397 15.235.122.447-.122.893-.528 1.015-.081.041-.162.041-.244.041z" opacity=".06" transform="translate(6.5 11.375) translate(2.302)"/>
                    <path fill="#E60000" d="M11.754 29.9c-2.844 0-5.16-2.316-5.16-5.16 0-2.843 2.316-5.159 5.16-5.159 2.844 0 5.16 2.316 5.16 5.16 0 2.843-2.316 5.159-5.16 5.159zm0-8.694c-1.95 0-3.534 1.585-3.534 3.535 0 1.95 1.584 3.534 3.534 3.534 1.95 0 3.535-1.584 3.535-3.534 0-1.95-1.585-3.535-3.535-3.535zM27.232 50.74c-2.843 0-5.16-2.315-5.16-5.159s2.317-5.16 5.16-5.16c2.844 0 5.16 2.316 5.16 5.16 0 2.844-2.316 5.16-5.16 5.16zm0-8.734c-1.95 0-3.534 1.585-3.534 3.535 0 1.95 1.584 3.534 3.534 3.534 1.95 0 3.535-1.584 3.535-3.534 0-1.91-1.585-3.535-3.535-3.535zM40.232 15.478c-2.843 0-5.16-2.316-5.16-5.16 0-2.843 2.317-5.159 5.16-5.159 2.844 0 5.16 2.316 5.16 5.16 0 2.843-2.316 5.16-5.16 5.16zm0-8.734c-1.95 0-3.534 1.584-3.534 3.534 0 1.95 1.584 3.534 3.534 3.534 1.95 0 3.535-1.584 3.535-3.534 0-1.95-1.585-3.534-3.535-3.534z" transform="translate(6.5 11.375) translate(2.302)"/>
                </g>
            </g>
            <path d="M0 0L0 78 78 78 78 0z"/>
        </g>
    </g>
</svg>
