<svg xmlns="http://www.w3.org/2000/svg" width="120" height="120" viewBox="0 0 120 120">
    <g fill="none" fill-rule="evenodd">
        <circle cx="60" cy="60" r="60" fill="#000" fill-opacity=".2"/>
        <g transform="translate(21 21)">
            <path fill="#D8D8D8" fill-opacity="0" d="M0 0H78V78H0z"/>
            <path fill="#666" fill-rule="nonzero" d="M52.024 49.047c-.897 0-1.625-.728-1.625-1.625V25.179c0-.897.728-1.625 1.625-1.625.898 0 1.625.728 1.625 1.625v22.243c0 .897-.727 1.625-1.625 1.625z"/>
            <path fill="#FFF" fill-rule="nonzero" d="M64.8 47.117c2.86.06 5.13 2.423 5.075 5.281v10.563c.054 2.86-2.218 5.223-5.078 5.28H13.203c-2.86-.057-5.132-2.42-5.078-5.28V52.398c-.054-2.861 2.22-5.226 5.082-5.281h51.594z"/>
            <path fill="#000" fill-rule="nonzero" d="M64.785 67.43H13.19c-2.856-.063-5.123-2.426-5.066-5.282v.813c-.027 1.373.493 2.702 1.445 3.692.952.99 2.26 1.562 3.633 1.589h51.594c1.374-.027 2.68-.598 3.633-1.589.952-.99 1.472-2.319 1.445-3.692v-.813c.027 1.376-.494 2.706-1.45 3.697-.954.99-2.264 1.56-3.64 1.584z" opacity=".06"/>
            <path fill="#E60000" fill-rule="nonzero" d="M65 17.595c-.218 0-.427-.085-.58-.24-6.872-6.853-17.993-6.853-24.863 0-.209.208-.512.288-.796.212-.284-.077-.505-.3-.58-.583-.076-.284.005-.587.214-.795 7.512-7.496 19.674-7.496 27.186 0 .156.153.244.362.244.581 0 .219-.088.428-.244.58-.153.157-.362.245-.581.245z"/>
            <path fill="#E60000" fill-rule="nonzero" d="M59.938 21.93c-.128 0-.255-.031-.37-.09-.08-.039-.152-.091-.215-.154-4.044-4.025-10.58-4.025-14.625 0-.153.156-.362.244-.58.244-.22 0-.429-.088-.582-.244-.157-.153-.246-.364-.246-.583 0-.22.089-.43.246-.583 4.688-4.67 12.27-4.67 16.957 0l.029.028.04.049c.206.246.247.59.106.878-.142.288-.44.466-.76.454z"/>
            <circle cx="15.442" cy="57.688" r="2.438" fill="#000" fill-rule="nonzero" opacity=".06"/>
            <circle cx="20.317" cy="57.688" r="1" fill="#D62B11" fill-rule="nonzero"/>
            <circle cx="15.442" cy="57.688" r="1" fill="#D62B11" fill-rule="nonzero"/>
        </g>
    </g>
</svg>
