<?xml version="1.0" encoding="UTF-8"?>
<svg width="130px" height="130px" viewBox="0 0 130 130" version="1.1" xmlns="http://www.w3.org/2000/svg" xmlns:xlink="http://www.w3.org/1999/xlink">
    <!-- Generator: Sketch 64 (93537) - https://sketch.com -->
    <title>bolo_linea2</title>
    <desc>Created with Sketch.</desc>
    <defs>
        <circle id="path-1" cx="65" cy="65" r="65"></circle>
    </defs>
    <g id="PLP-Revamp-Vodafone-One-Test-A/B" stroke="none" stroke-width="1" fill="none" fill-rule="evenodd">
        <g id="PLP-Desktop---Revamp-One---Cambio-cabecera-Copy" transform="translate(-575.000000, -156.000000)">
            <g id="Cabecera" transform="translate(50.000000, 136.000000)">
                <g id="bodegon" transform="translate(443.000000, 0.000000)">
                    <g id="bolo_linea2" transform="translate(147.000000, 85.000000) rotate(-345.000000) translate(-147.000000, -85.000000) translate(82.000000, 20.000000)">
                        <mask id="mask-2" fill="white">
                            <use xlink:href="#path-1"></use>
                        </mask>
                        <use id="Mask" fill="#E60000" xlink:href="#path-1"></use>
                        <g id="Icons+Indicators-/-System-Icons-/-sim-/-#FFFFFF" mask="url(#mask-2)">
                            <g transform="translate(46.428571, 13.928571)" id="sim">
                                <g>
                                    <polygon id="bg" fill-opacity="0" fill="#D8D8D8" points="0 0 37.1428571 0 37.1428571 37.1428571 0 37.1428571"></polygon>
                                    <path d="M10.0595239,30.952381 L10.0595239,6.19047619 L10.0595239,6.19047654 C10.0595239,4.90838636 11.0988624,3.86904797 12.3809526,3.86904797 L21.6666669,3.86904797 L27.0833335,9.28571464 L27.0833335,30.9523813 L27.0833335,30.9523813 C27.0833335,32.2344715 26.0439951,33.2738099 24.761905,33.2738099 L12.3809526,33.2738099 L12.3809525,33.2738099 C11.0988623,33.2738099 10.0595239,32.2344715 10.0595239,30.9523813 C10.0595239,30.9523813 10.0595239,30.9523813 10.0595239,30.9523813 L10.0595239,30.952381 Z" id="Shape" stroke="#FFFFFF" stroke-width="1.54761905" stroke-linecap="round" stroke-linejoin="round"></path>
                                    <path d="M16.25,28.6309524 C15.395281,28.6309524 14.702381,27.9380524 14.702381,27.0833333 L14.702381,17.797619 C14.702381,16.9429 15.395281,16.25 16.25,16.25 L20.8928571,16.25 C21.7475762,16.25 22.4404762,16.9429 22.4404762,17.797619 L22.4404762,27.0833333 C22.4404762,27.9380524 21.7475762,28.6309524 20.8928571,28.6309524 L16.25,28.6309524 Z" id="Shape" stroke="#FFFFFF" stroke-width="1.54761905" stroke-linecap="round" stroke-linejoin="round"></path>
                                </g>
                            </g>
                        </g>
                        <path d="M31.1409215,71.9774344 L31.1409215,67.8457903 L34.9461147,67.8457903 L34.9461147,65.5504325 L31.1409215,65.5504325 L31.1409215,61.3473772 L28.9679827,61.3473772 L28.9679827,65.5504325 L25.1627895,65.5504325 L25.1627895,67.8457903 L28.9679827,67.8457903 L28.9679827,71.9774344 L31.1409215,71.9774344 Z M49.1875349,73.5892857 L49.1875349,71.1613072 L43.0155727,71.1613072 C43.0155727,70.8688616 43.1311907,70.6087211 43.3624268,70.3808855 C43.5936628,70.15305 44.069737,69.7670898 44.7906494,69.223005 L44.7906494,69.223005 L46.8819754,67.6723633 C47.623291,67.1350795 48.1639753,66.5552891 48.5040283,65.9329921 C48.8440813,65.3106951 49.0141078,64.5472761 49.0141078,63.6427351 C49.0141078,63.0170375 48.8780866,62.3862392 48.6060442,61.7503401 C48.3340018,61.1144409 47.8443255,60.582258 47.1370152,60.1537912 C46.4501081,59.7253244 45.6135777,59.511091 44.627424,59.511091 C44.2261614,59.511091 43.7398856,59.5808018 43.1685965,59.7202236 C42.5973075,59.8596453 42.0005144,60.1061837 41.3782174,60.4598389 C40.7559204,60.813494 40.284947,61.1705497 39.9652972,61.5310059 L39.9652972,61.5310059 L41.240496,63.5407192 L41.6281564,63.1530587 C41.804984,62.9762312 42.0226179,62.8011039 42.2810582,62.6276768 C42.5394985,62.4542498 42.8319441,62.3012259 43.1583949,62.1686053 C43.4848458,62.0359846 43.8419015,61.9696742 44.2295619,61.9696742 C44.8552595,61.9696742 45.3432356,62.1346 45.6934902,62.4644514 C46.0437448,62.7943028 46.2188721,63.2516741 46.2188721,63.8365653 C46.2188721,64.3602469 46.1134556,64.8040161 45.9026228,65.1678728 C45.6917899,65.5317296 45.30753,65.9074881 44.7498431,66.2951486 L44.7498431,66.2951486 L41.8525914,68.5292969 C41.3221087,68.882952 40.9140451,69.3726283 40.6284005,69.9983259 C40.3699602,70.569615 40.2407401,71.1579067 40.2407401,71.763201 L40.2407401,71.763201 L40.2407401,73.5892857 L49.1875349,73.5892857 Z M53.0845424,67.4275251 C53.7374442,67.4275251 54.3495396,67.1826869 54.9208287,66.6930106 L54.9208287,66.6930106 L54.9820382,67.2847028 L56.7775181,67.2847028 L56.7775181,62.5817697 C56.7775181,61.5616106 56.5275792,60.8287964 56.0277012,60.3833269 C55.5278233,59.9378575 54.839216,59.7151228 53.9618792,59.7151228 C53.5402134,59.7151228 53.0981445,59.7882342 52.6356724,59.934457 C52.1732003,60.0806798 51.6971261,60.3408203 51.2074498,60.7148786 L51.2074498,60.7148786 L52.0133754,62.0308838 C52.3398263,61.7996477 52.6441738,61.6211199 52.9264178,61.4953003 C53.2086618,61.3694807 53.4960066,61.3065709 53.7884521,61.3065709 C54.0672956,61.3065709 54.3053327,61.3966849 54.5025635,61.576913 C54.6997942,61.7571411 54.7984096,61.9866769 54.7984096,62.2655204 L54.7984096,62.2655204 L54.7984096,62.4695522 C54.4175502,62.5035575 53.9074707,62.5681676 53.268171,62.6633824 C52.6424735,62.7653983 52.0371791,63.0238386 51.4522879,63.4387033 C50.894601,63.8263637 50.6157575,64.3908517 50.6157575,65.1321673 C50.6157575,65.8530797 50.8503941,66.4158674 51.3196673,66.8205305 C51.7889404,67.2251936 52.3772321,67.4275251 53.0845424,67.4275251 Z M53.543614,65.8156738 C52.8771101,65.8156738 52.5438581,65.5504325 52.5438581,65.0199498 C52.5438581,64.8091169 52.62037,64.6203875 52.7733939,64.4537615 C52.9264178,64.2871355 53.203561,64.1630162 53.6048235,64.0814035 C53.9380755,64.026995 54.3427386,63.9793876 54.8188128,63.9385812 L54.8188128,63.9385812 L54.8188128,65.2953927 C54.6623884,65.445016 54.48046,65.5691354 54.2730277,65.6677508 C54.0655954,65.7663661 53.8224574,65.8156738 53.543614,65.8156738 Z M65.5508859,73.8239223 C65.9997559,73.8171212 66.4316232,73.7525112 66.8464879,73.6300921 C67.2953578,73.5008719 67.5469971,73.4090576 67.6014056,73.3546491 L67.6014056,73.3546491 L67.142334,71.3959438 C66.8498884,71.5183629 66.5710449,71.5795724 66.3058036,71.5795724 C66.0405622,71.5795724 65.8348301,71.5132621 65.6886074,71.3806414 C65.5423846,71.2480207 65.4692732,71.0014823 65.4692732,70.6410261 L65.4692732,70.6410261 L65.4692732,59.6539132 L62.8780692,59.6539132 L62.8780692,71.140904 C62.8780692,71.3925432 62.9052734,71.6781878 62.9596819,71.9978376 C63.0140904,72.3174874 63.13991,72.6133336 63.3371408,72.885376 C63.5343715,73.1574184 63.8098145,73.3818534 64.1634696,73.5586809 C64.5171247,73.7355085 64.9795968,73.8239223 65.5508859,73.8239223 Z M68.6827741,62.3471331 L73.2122803,60.0109689 L71.9778878,58.2766985 L67.989066,61.2249581 L68.6827741,62.3471331 Z M71.8758719,73.5892857 L71.8758719,63.520316 L69.3050711,63.520316 L69.3050711,73.5892857 L71.8758719,73.5892857 Z M77.0480783,73.5892857 L77.0480783,66.4481724 C77.2997175,66.1965332 77.5972639,65.9652972 77.9407174,65.7544643 C78.284171,65.5436314 78.656529,65.438215 79.0577916,65.438215 C79.6426828,65.438215 80.0915527,65.6473476 80.4044015,66.0656128 C80.7172503,66.483878 80.8736747,67.0772705 80.8736747,67.8457903 L80.8736747,67.8457903 L80.8736747,73.5892857 L83.4648786,73.5892857 L83.4648786,67.6315569 C83.4648786,66.856236 83.3492606,66.1166207 83.1180246,65.412711 C82.8867885,64.7088013 82.4855259,64.174918 81.9142369,63.8110613 C81.3429478,63.4472046 80.6526402,63.2652762 79.843314,63.2652762 C79.3332345,63.2652762 78.823155,63.3570905 78.3130755,63.5407192 C77.802996,63.7243478 77.3473249,63.9827881 76.9460624,64.31604 L76.9460624,64.31604 L76.8134417,63.520316 L74.4568743,63.520316 L74.4568743,73.5892857 L77.0480783,73.5892857 Z M90.2693394,73.8239223 C90.7726179,73.8171212 91.3439069,73.7457101 91.9832066,73.6096889 C92.6361084,73.4804688 93.0475725,73.3750523 93.2175991,73.2934396 C93.4964425,73.1982247 93.7888881,73.0383998 94.0949358,72.8139648 L94.0949358,72.8139648 L93.4012277,70.7022356 C93.2175991,70.8858643 92.8758458,71.0813947 92.3759678,71.2888271 C91.8760899,71.4962594 91.292899,71.5999756 90.6263951,71.5999756 C89.8714774,71.5999756 89.2576817,71.4129464 88.785008,71.0388881 C88.3123343,70.6648298 88.0487932,70.0527344 87.9943848,69.2026018 L87.9943848,69.2026018 L94.513201,69.2026018 L94.513201,68.7435303 C94.513201,68.03622 94.4077846,67.2642997 94.1969517,66.4277693 C93.9861189,65.5708357 93.5202462,64.8295201 92.7993338,64.2038225 C92.0852225,63.578125 91.1636789,63.2652762 90.0347028,63.2652762 C89.3954032,63.2652762 88.7935093,63.3842948 88.2290213,63.6223319 C87.6645333,63.860369 87.1697562,64.2021223 86.7446899,64.6475917 C86.3196237,65.0930612 85.9863717,65.6422468 85.7449341,66.2951486 C85.5034964,66.9480504 85.3827776,67.6995675 85.3827776,68.5497001 C85.3827776,69.4542411 85.513698,70.2346627 85.7755389,70.8909651 C86.0373797,71.5472674 86.3910348,72.0947527 86.8365043,72.5334211 C87.2819737,72.9720895 87.8022548,73.2968401 88.3973476,73.507673 C88.9924404,73.7185059 89.6164376,73.8239223 90.2693394,73.8239223 Z M91.8811907,67.3459124 L88.0555943,67.3459124 C88.1236049,66.6794085 88.3582415,66.1778303 88.759504,65.8411778 C89.1607666,65.5045253 89.5858329,65.3361991 90.0347028,65.3361991 C90.1231166,65.3361991 90.2982439,65.3753052 90.5600848,65.4535174 C90.8219256,65.5317296 91.0973685,65.7238595 91.3864136,66.0299072 C91.6754586,66.3359549 91.8403843,66.7746233 91.8811907,67.3459124 L91.8811907,67.3459124 Z M99.0937151,73.8239223 C99.6105957,73.8239223 100.08497,73.7355085 100.516837,73.5586809 C100.948704,73.3818534 101.30406,73.1404157 101.582903,72.834368 L101.582903,72.834368 L101.684919,73.5892857 L104.072091,73.5892857 L104.072091,67.1112758 C104.072091,66.5943952 103.99898,66.0996181 103.852757,65.6269444 C103.706534,65.1542707 103.475298,64.7411063 103.159049,64.3874512 C102.8428,64.033796 102.444938,63.7583531 101.965463,63.5611223 C101.485988,63.3638916 100.926601,63.2652762 100.287301,63.2652762 C99.6888079,63.2652762 98.971296,63.3978969 98.1347656,63.6631383 C97.3390416,63.9283796 96.7949568,64.2072231 96.5025112,64.4996687 L96.5025112,64.4996687 L97.3594448,66.3155518 C97.5974819,66.1115199 97.9460362,65.9006871 98.4051078,65.6830532 C98.8641793,65.4654192 99.3453544,65.3566023 99.8486328,65.3566023 C100.351911,65.3566023 100.746373,65.4756208 101.032017,65.7136579 C101.317662,65.951695 101.460484,66.3495571 101.460484,66.907244 L101.460484,66.907244 L101.460484,67.0500663 C100.263497,67.1928885 99.5663888,67.2779018 99.3691581,67.305106 C99.022304,67.3459124 98.6363438,67.439427 98.2112776,67.5856498 C97.7862113,67.7318726 97.3883493,67.9410052 97.0176915,68.2130476 C96.6470337,68.48509 96.347787,68.8183419 96.1199515,69.2128034 C95.892116,69.6072649 95.7781982,70.0765381 95.7781982,70.6206229 C95.7781982,71.1239014 95.8717128,71.5744716 96.058742,71.9723336 C96.2457711,72.3701957 96.4923096,72.7051479 96.7983573,72.9771903 C97.104405,73.2492327 97.4563599,73.4583653 97.8542219,73.6045881 C98.2520839,73.7508109 98.6652483,73.8239223 99.0937151,73.8239223 Z M99.7058105,71.6713867 C99.2569406,71.6713867 98.9100865,71.5693708 98.6652483,71.365339 C98.4204102,71.1613072 98.2979911,70.8926653 98.2979911,70.5594134 C98.2979911,70.2397635 98.406808,69.9439174 98.624442,69.671875 C98.8420759,69.3998326 99.2297363,69.2094029 99.7874233,69.1005859 C100.066267,69.0529785 100.630755,68.9815674 101.480887,68.8863525 L101.480887,68.8863525 L101.480887,70.9368722 C101.256452,71.1477051 100.98781,71.3228324 100.674962,71.4622541 C100.362113,71.6016759 100.039063,71.6713867 99.7058105,71.6713867 Z" id="+2ªlínea" fill="#FFFFFF" fill-rule="nonzero" mask="url(#mask-2)"></path>
                        <path d="M33.5065569,100.060168 C34.9491374,100.060168 36.1788068,99.9363325 37.1955654,99.6886605 C38.2123239,99.4409886 38.9423043,99.1737636 39.3855068,98.8869856 L39.3855068,98.8869856 L39.3855068,90.3097151 L33.402274,90.3097151 L33.402274,93.3860613 L36.1788068,93.3860613 L36.1788068,96.5797259 C36.1092849,96.6231771 35.8572678,96.6840088 35.4227557,96.762221 C34.9882435,96.8404332 34.4146874,96.8795393 33.7020874,96.8795393 C33.4674508,96.8795393 33.1850179,96.8578137 32.8547886,96.8143624 C32.5245594,96.7709112 32.1769496,96.6644557 31.8119594,96.494996 C31.4469692,96.3255362 31.0928417,96.0756917 30.7495771,95.7454625 C30.4063125,95.4152332 30.0999814,94.9633405 29.8305838,94.3897845 C29.3439302,93.3817162 29.1006034,92.1998431 29.1006034,90.844165 L29.1006034,90.844165 L29.1006034,90.5052455 C29.0919131,90.2184675 29.1049485,89.9186541 29.1397095,89.6058053 C29.1918509,89.1626029 29.2787534,88.6933297 29.4004168,88.1979858 C29.6263631,87.2246785 30.0782558,86.3904152 30.7560948,85.6951957 C31.3991728,84.9999762 32.1769496,84.6523664 33.0894252,84.6523664 L33.0894252,84.6523664 L33.1676374,84.6523664 C33.9845203,84.6523664 34.703638,84.8565871 35.3249904,85.2650286 C35.9463428,85.6734701 36.4264788,86.1731591 36.7653983,86.7640956 L36.7653983,86.7640956 L39.1117641,84.600225 C38.6164202,83.6877494 37.8886123,82.942561 36.9283404,82.3646598 C35.9680684,81.7867586 34.7058105,81.497808 33.1415667,81.497808 C32.1421887,81.497808 31.1927795,81.6846482 30.2933393,82.0583287 C29.3938991,82.4320092 28.5965692,83.0077378 27.9013497,83.7855146 C27.2061303,84.5632914 26.6542998,85.5344262 26.2458583,86.6989188 C25.8374169,87.8634115 25.6331961,89.2451602 25.6331961,90.844165 C25.6331961,92.304126 25.8243815,93.6033174 26.2067522,94.7417393 C26.589123,95.8801612 27.1279181,96.8447783 27.8231376,97.6355905 C28.518357,98.4264026 29.3504479,99.028202 30.3194101,99.4409886 C31.2883722,99.8537752 32.3507545,100.060168 33.5065569,100.060168 Z M46.0335432,99.6821429 L46.0335432,93.0080357 L48.6145455,93.0080357 C49.0056065,93.0080357 49.3575614,93.0688674 49.6704189,93.1905308 C49.9832589,93.3121942 50.200515,93.5077247 50.3221784,93.7771223 C50.4959833,94.1508028 50.6915138,94.6331113 50.9087699,95.2240479 L50.9087699,95.2240479 L52.2514125,99.6821429 L55.7970319,99.6821429 L54.4674247,94.8199515 C54.1632661,93.8466442 53.8591076,93.1275266 53.5549491,92.6625985 C53.2507906,92.1976705 52.8510393,91.8391979 52.3556955,91.5871809 C53.2073393,91.0744565 53.837382,90.433551 54.2458235,89.6644645 C54.6542649,88.8953779 54.8584856,88.0589419 54.8584856,87.1551566 C54.8671759,86.3382737 54.7194417,85.5387713 54.4152832,84.7566493 C54.0763637,83.9397664 53.4006973,83.2554097 52.3882839,82.7035793 C51.3758705,82.1517488 50.2092053,81.8758336 48.8882882,81.8758336 L48.8882882,81.8758336 L42.6704189,81.8758336 L42.6704189,99.6821429 L46.0335432,99.6821429 Z M48.4320504,89.9316895 L46.0335432,89.9316895 L46.0335432,84.9782506 L48.4320504,84.9782506 C49.5009504,84.9782506 50.2743821,85.1868164 50.7523455,85.6039481 C51.2303089,86.0210798 51.4692906,86.6554676 51.4692906,87.5071115 C51.4692906,89.1234968 50.4568772,89.9316895 48.4320504,89.9316895 L48.4320504,89.9316895 Z M59.9031721,99.6821429 L61.1024257,96.1104527 L67.9199219,96.1104527 L69.1452462,99.6821429 L72.6387242,99.6821429 L66.212289,81.8758336 L62.823094,81.8758336 L56.4096941,99.6821429 L59.9031721,99.6821429 Z M66.9031634,93.0862479 L62.145255,93.0862479 L64.5307268,86.0732213 L66.9031634,93.0862479 Z M79.0912301,99.6821429 L79.0912301,85.1086042 L84.1489519,85.1086042 L84.1489519,81.8758336 L70.6312779,81.8758336 L70.6312779,85.1086042 L75.6759644,85.1086042 L75.6759644,99.6821429 L79.0912301,99.6821429 Z M89.6368408,99.6821429 L89.6368408,81.8758336 L86.2215751,81.8758336 L86.2215751,99.6821429 L89.6368408,99.6821429 Z M98.4617833,100.060168 C99.1917637,100.060168 100.0282,99.9254697 100.971091,99.6560721 C101.913983,99.3866746 102.750419,98.8261539 103.480399,97.97451 C104.210379,97.0794149 104.57537,96.0278954 104.57537,94.8199515 C104.523228,94.1334223 104.427636,93.4773089 104.288592,92.8516113 C104.123477,92.1737723 103.649859,91.5046236 102.867737,90.844165 C102.085615,90.166326 100.903742,89.5536639 99.3221174,89.0061785 C98.6095174,88.7541614 98.0272711,88.5216974 97.5753784,88.3087864 C97.1234857,88.0958755 96.7802211,87.9112078 96.5455845,87.7547834 C96.1197626,87.4332444 95.9068516,86.9596261 95.9068516,86.3339286 C95.9068516,85.8212042 96.0936919,85.3823469 96.4673723,85.0173567 C96.8410528,84.6523664 97.488476,84.4698713 98.4096418,84.4698713 C98.4444028,84.4611811 98.4791638,84.4568359 98.5139247,84.4568359 C98.7398711,84.4568359 99.0527198,84.5089774 99.4524711,84.6132603 C99.913054,84.7262335 100.482265,84.9434896 101.160104,85.2650286 C101.837943,85.5865676 102.346322,85.9341774 102.685242,86.3078578 L102.685242,86.3078578 L104.471087,83.9354213 C104.201689,83.6312628 103.791075,83.283653 103.239245,82.8925921 C102.687414,82.5015311 102.007403,82.1713019 101.19921,81.9019043 C100.391017,81.6325067 99.5046125,81.497808 98.5399955,81.497808 C97.5666882,81.497808 96.6064162,81.6542324 95.6591797,81.9670811 C94.7119431,82.2799299 93.9645822,82.8361055 93.4170968,83.6356079 C92.8696115,84.4003494 92.5958688,85.3432408 92.5958688,86.4642822 C92.5871785,86.6120164 92.5828334,86.7684408 92.5828334,86.9335554 C92.5828334,87.09867 92.5871785,87.27682 92.5958688,87.4680054 C92.6132493,87.8503761 92.7522932,88.3000962 93.0130005,88.8171657 C93.2737078,89.3342352 93.6691139,89.8143712 94.1992188,90.2575736 C94.9552699,90.8832711 95.9937541,91.3829601 97.3146711,91.7566406 C98.9049857,92.304126 99.9565052,92.7907796 100.46923,93.2166016 C100.947193,93.6337333 101.186175,94.2159796 101.186175,94.9633405 C101.186175,95.5803478 100.940675,96.0756917 100.449677,96.4493722 C99.9586777,96.8230527 99.2873564,97.0098929 98.4357125,97.0098929 C97.8534662,97.0098929 97.3168437,96.9534063 96.8258449,96.8404332 C96.3348461,96.72746 95.8981614,96.5818984 95.5157907,96.4037484 C95.1334199,96.2255984 94.7988456,96.0365856 94.5120675,95.83671 C94.2252895,95.6368344 94.0036883,95.4673747 93.8472639,95.3283308 L93.8472639,95.3283308 L92.4003383,98.3003941 C92.5567627,98.4220575 92.8109523,98.5806545 93.1629072,98.776185 C93.5148621,98.9717154 93.9493742,99.1629008 94.4664437,99.349741 C94.9835132,99.5365813 95.5787949,99.7016959 96.2522888,99.8450849 C96.9257827,99.9884739 97.6622809,100.060168 98.4617833,100.060168 Z" id="GRATIS" fill="#FFFFFF" fill-rule="nonzero" mask="url(#mask-2)"></path>
                    </g>
                </g>
            </g>
        </g>
    </g>
</svg>