<svg width="80" height="90" viewBox="0 0 80 90" xmlns="http://www.w3.org/2000/svg"><g fill="none" fill-rule="evenodd"><path d="M0 5h80v80H0z"/><path fill="#E60000" d="M10.279 7.906v74.412l16.265-11.479 42.886-5.694v-51.5z"/><path d="M39.1 28.4c-1.023 4.009-2.115 7.685-3.276 11.03-1.161 3.345-2.309 6.164-3.442 8.46a65.478 65.478 0 01-1.638 3.068 10.188 10.188 0 01-2.218 2.674c-.912.787-2.06 1.423-3.442 1.907-1.383.484-3.152.74-5.308.767l-.456-4.602c.498 0 1.064-.028 1.7-.083a11.06 11.06 0 001.887-.332 8.497 8.497 0 001.762-.684 3.902 3.902 0 001.369-1.182c.11-.139.207-.276.29-.414.083-.139.18-.318.29-.54l-8.21-20.07h5.515l5.556 15.343c.415-.995.83-2.115 1.244-3.358a99.43 99.43 0 001.203-3.878c.387-1.34.76-2.701 1.12-4.084.358-1.381.69-2.723.995-4.022H39.1zm10.104 20.401c-2.35 0-4.133-.705-5.349-2.115-1.216-1.41-1.824-3.538-1.824-6.386V28.4h5.141v11.362c0 1.382.25 2.502.747 3.359.498.857 1.354 1.285 2.571 1.285.995 0 1.838-.2 2.53-.602.69-.4 1.243-.78 1.658-1.14V28.4h5.142v19.987h-4.727l-.166-1.576c-.912.774-1.86 1.3-2.84 1.576-.982.276-1.943.414-2.883.414" fill="#FFF"/></g></svg>