<svg width="130" height="130" viewBox="0 0 130 130" xmlns="http://www.w3.org/2000/svg" xmlns:xlink="http://www.w3.org/1999/xlink"><defs><circle id="a" cx="65" cy="65" r="65"/></defs><g transform="rotate(15 65 65)" fill="none" fill-rule="evenodd"><mask id="b" fill="#fff"><use xlink:href="#a"/></mask><use fill="#E60000" xlink:href="#a"/><g mask="url(#b)"><path d="M46.429 13.929H83.57V51.07H46.43z"/><path d="M56.488 44.881V20.119h0a2.321 2.321 0 012.322-2.321h9.285l5.417 5.416v21.667h0a2.321 2.321 0 01-2.322 2.321H58.81h0a2.321 2.321 0 01-2.322-2.321s0 0 0 0h0z" stroke="#FFF" stroke-width="1.548" stroke-linecap="round" stroke-linejoin="round"/><path d="M62.679 42.56a1.548 1.548 0 01-1.548-1.548v-9.286c0-.855.693-1.547 1.548-1.547h4.642c.855 0 1.548.692 1.548 1.547v9.286c0 .855-.693 1.548-1.548 1.548H62.68z" stroke="#FFF" stroke-width="1.548" stroke-linecap="round" stroke-linejoin="round"/></g><path d="M31.14 71.977v-4.131h3.806V65.55h-3.805v-4.203h-2.173v4.203h-3.805v2.296h3.805v4.131h2.173zm18.048 1.612v-2.428h-6.172c0-.292.115-.552.346-.78.232-.228.708-.614 1.429-1.158l2.091-1.55c.741-.538 1.282-1.118 1.622-1.74.34-.622.51-1.386.51-2.29 0-.626-.136-1.257-.408-1.893-.272-.636-.762-1.168-1.469-1.596-.687-.429-1.523-.643-2.51-.643-.4 0-.887.07-1.458.21-.572.139-1.168.385-1.79.739-.623.353-1.094.71-1.414 1.071l1.275 2.01.388-.388a4.79 4.79 0 011.53-.985 2.82 2.82 0 011.072-.198c.625 0 1.113.165 1.463.494.35.33.526.788.526 1.373 0 .523-.106.967-.316 1.33-.211.365-.595.74-1.153 1.128l-2.897 2.234c-.53.354-.939.844-1.225 1.47a4.239 4.239 0 00-.387 1.764v1.826h8.947zm3.897-6.161c.652 0 1.265-.245 1.836-.735l.061.592h1.796v-4.703c0-1.02-.25-1.753-.75-2.199-.5-.445-1.189-.668-2.066-.668a4.37 4.37 0 00-1.326.22c-.463.146-.939.406-1.429.78l.806 1.316c.327-.231.631-.41.913-.536.283-.126.57-.188.862-.188.28 0 .517.09.715.27.197.18.295.41.295.689v.204c-.38.034-.89.098-1.53.193-.626.102-1.23.36-1.816.776-.557.387-.836.952-.836 1.693 0 .721.234 1.284.704 1.689.469.404 1.057.607 1.765.607zm.459-1.612c-.667 0-1-.266-1-.796 0-.21.076-.4.23-.566.152-.167.43-.291.83-.373a16.3 16.3 0 011.215-.142v1.356c-.157.15-.339.274-.546.373a1.69 1.69 0 01-.73.148zm12.007 8.008c.449-.007.88-.071 1.295-.194.45-.13.701-.22.755-.275l-.459-1.96a2.166 2.166 0 01-.836.185c-.265 0-.471-.067-.617-.2-.147-.132-.22-.379-.22-.739V59.654h-2.59V71.14c0 .252.026.537.08.857.055.32.18.615.378.887.197.272.473.497.826.674.354.177.817.265 1.388.265zm3.132-11.477l4.53-2.336-1.235-1.734-3.989 2.948.694 1.122zm3.193 11.242V63.52h-2.57v10.07h2.57zm5.172 0v-7.14c.252-.252.55-.484.893-.695.343-.21.716-.316 1.117-.316.585 0 1.034.21 1.346.628.313.418.47 1.011.47 1.78v5.743h2.59v-5.957a7.08 7.08 0 00-.346-2.22c-.231-.703-.632-1.237-1.204-1.6-.571-.365-1.261-.547-2.07-.547-.51 0-1.02.092-1.53.276a4.495 4.495 0 00-1.368.775l-.133-.796h-2.356v10.07h2.591zm13.221.235a8.913 8.913 0 001.714-.214c.653-.13 1.065-.235 1.235-.317.278-.095.57-.255.877-.479l-.694-2.112c-.183.184-.525.38-1.025.587-.5.207-1.083.311-1.75.311-.755 0-1.368-.187-1.841-.561-.473-.374-.736-.986-.79-1.836h6.518v-.46c0-.707-.105-1.479-.316-2.315-.21-.857-.677-1.598-1.398-2.224-.714-.626-1.635-.939-2.764-.939a4.6 4.6 0 00-1.806.357c-.564.238-1.06.58-1.484 1.026a4.71 4.71 0 00-1 1.647c-.242.653-.362 1.405-.362 2.255 0 .904.13 1.685.393 2.341.261.656.615 1.204 1.06 1.642.446.44.966.764 1.561.975.595.21 1.22.316 1.872.316zm1.612-6.478h-3.825c.068-.667.302-1.168.704-1.505.4-.336.826-.505 1.275-.505.088 0 .263.04.525.118.262.078.537.27.826.576.29.306.454.745.495 1.316zm7.213 6.478c.517 0 .991-.088 1.423-.265a2.904 2.904 0 001.066-.725l.102.755h2.387v-6.478c0-.517-.073-1.011-.22-1.484a3.295 3.295 0 00-.693-1.24 3.211 3.211 0 00-1.194-.826c-.479-.197-1.038-.296-1.678-.296-.598 0-1.316.133-2.152.398-.796.265-1.34.544-1.632.837l.856 1.816c.238-.204.587-.415 1.046-.633a3.33 3.33 0 011.444-.326c.503 0 .897.119 1.183.357.286.238.428.636.428 1.193v.143c-1.197.143-1.894.228-2.09.255-.348.04-.734.134-1.159.28a4.46 4.46 0 00-1.193.628c-.371.272-.67.605-.898 1-.228.394-.342.864-.342 1.408 0 .503.094.953.28 1.351.188.398.434.733.74 1.005.306.272.658.481 1.056.628.398.146.811.219 1.24.219zm.612-2.153c-.45 0-.796-.102-1.04-.306a.998.998 0 01-.368-.806c0-.32.109-.615.326-.887.218-.272.606-.463 1.163-.571.28-.048.844-.12 1.694-.215v2.05a2.845 2.845 0 01-.806.526 2.35 2.35 0 01-.97.21zM33.507 100.06c1.442 0 2.672-.124 3.689-.371 1.016-.248 1.746-.515 2.19-.802V90.31h-5.984v3.076h2.777v3.194c-.07.043-.322.104-.756.182-.435.078-1.008.118-1.72.118-.236 0-.518-.022-.848-.066a3.607 3.607 0 01-1.043-.319c-.365-.17-.72-.42-1.062-.75-.344-.33-.65-.782-.92-1.355-.486-1.008-.73-2.19-.73-3.546v-.339a6.395 6.395 0 01.04-.9c.052-.442.139-.912.26-1.407a5.197 5.197 0 011.356-2.503c.643-.695 1.42-1.043 2.333-1.043h.079c.817 0 1.536.205 2.157.613a4.424 4.424 0 011.44 1.5l2.347-2.165c-.496-.912-1.223-1.657-2.184-2.235-.96-.578-2.222-.867-3.786-.867-1 0-1.95.187-2.849.56-.9.374-1.696.95-2.392 1.728-.695.777-1.247 1.748-1.655 2.913-.409 1.164-.613 2.546-.613 4.145 0 1.46.191 2.76.574 3.898.382 1.138.92 2.103 1.616 2.894a6.866 6.866 0 002.496 1.805c.97.413 2.032.62 3.188.62zm12.527-.378v-6.674h2.58c.392 0 .744.06 1.056.183.313.121.53.317.652.586.174.374.37.856.587 1.447l1.342 4.458h3.546l-1.33-4.862c-.304-.973-.608-1.692-.912-2.157a3.076 3.076 0 00-1.2-1.076c.852-.513 1.482-1.153 1.89-1.923.41-.769.613-1.605.613-2.509a6.375 6.375 0 00-.443-2.398c-.339-.817-1.014-1.502-2.027-2.053-1.012-.552-2.179-.828-3.5-.828H42.67v17.806h3.364zm2.398-9.75h-2.398v-4.954h2.398c1.069 0 1.842.209 2.32.626.478.417.717 1.051.717 1.903 0 1.616-1.012 2.425-3.037 2.425zm11.471 9.75l1.2-3.572h6.817l1.225 3.572h3.494l-6.427-17.806h-3.389L56.41 99.682h3.493zm7-6.596h-4.758l2.386-7.013 2.372 7.013zm12.188 6.596V85.11h5.058v-3.233H70.631v3.233h5.045v14.573h3.415zm10.546 0V81.876h-3.415v17.806h3.415zm8.825.378c.73 0 1.566-.135 2.51-.404.942-.27 1.778-.83 2.508-1.681.73-.896 1.095-1.947 1.095-3.155a13.93 13.93 0 00-.286-1.968c-.166-.678-.64-1.347-1.421-2.008-.782-.678-1.964-1.29-3.546-1.838a19.345 19.345 0 01-1.747-.697 8.413 8.413 0 01-1.03-.554c-.425-.322-.638-.795-.638-1.421 0-.513.187-.952.56-1.317.374-.365 1.021-.547 1.943-.547a.429.429 0 01.104-.013c.226 0 .539.052.938.156.461.113 1.03.33 1.708.652.678.322 1.186.67 1.525 1.043l1.786-2.373c-.27-.304-.68-.651-1.232-1.042-.552-.391-1.232-.722-2.04-.991-.808-.27-1.694-.404-2.659-.404-.973 0-1.934.156-2.88.47-.948.312-1.695.868-2.243 1.668-.547.764-.821 1.707-.821 2.828a8.007 8.007 0 00-.013.47c0 .165.004.343.013.534.017.382.156.832.417 1.35.26.516.656.996 1.186 1.44.756.625 1.795 1.125 3.116 1.499 1.59.547 2.642 1.034 3.154 1.46.478.417.717.999.717 1.746 0 .617-.245 1.113-.736 1.486-.491.374-1.163.56-2.014.56a7.178 7.178 0 01-1.61-.169 6.614 6.614 0 01-2.314-1.003 7.53 7.53 0 01-.665-.509L92.4 98.3c.157.122.411.28.763.476a9.04 9.04 0 001.303.574c.518.187 1.113.352 1.786.495.674.143 1.41.215 2.21.215z" fill="#FFF" fill-rule="nonzero" mask="url(#b)"/></g></svg>