<svg xmlns="http://www.w3.org/2000/svg" width="100" height="33" viewBox="0 0 100 33"><g fill="none" fill-rule="evenodd"><path fill="#FFF" d="M0 0l1.193 32.795 7.44-8.63 91.047-1.72V1.72z"/><path d="M85.44 8.45a59.13 59.13 0 0 1-1.414 4.76c-.5 1.445-.996 2.662-1.485 3.652-.227.454-.463.895-.707 1.325-.245.43-.564.814-.958 1.154-.393.34-.889.615-1.485.823-.597.21-1.36.32-2.292.332l-.196-1.987c.214 0 .459-.012.733-.036a4.81 4.81 0 0 0 .815-.143c.268-.072.522-.17.76-.295.239-.126.436-.296.591-.51.048-.06.09-.12.126-.18.036-.06.077-.137.125-.232L76.509 8.45h2.38l2.399 6.622c.179-.43.358-.912.537-1.45.179-.536.352-1.094.519-1.673a69.015 69.015 0 0 0 .913-3.499h2.183zm4.423 8.806c-1.015 0-1.784-.304-2.309-.912-.525-.61-.787-1.528-.787-2.757V8.45h2.219v4.904c0 .597.107 1.08.322 1.45.215.37.585.555 1.11.555.43 0 .793-.087 1.091-.26.299-.173.538-.337.717-.492V8.45h2.219v8.627h-2.04l-.072-.68c-.394.334-.802.561-1.226.68a4.59 4.59 0 0 1-1.244.18m-81.931-.18l-3.617-8.63h2.363l2.256 5.73 2.185-5.73h2.255l-3.509 8.63zm11.737-4.36c0-.359-.042-.7-.126-1.024a2.483 2.483 0 0 0-.376-.835 1.93 1.93 0 0 0-.608-.557 1.658 1.658 0 0 0-.842-.207c-.322 0-.603.07-.842.207a1.928 1.928 0 0 0-.608.557 2.476 2.476 0 0 0-.376.835 4.064 4.064 0 0 0-.125 1.024c0 .372.041.716.125 1.034.083.317.206.595.367.835s.364.428.609.566c.244.137.528.206.85.206.323 0 .603-.069.842-.206.238-.138.441-.327.608-.566.167-.24.293-.518.376-.835.084-.318.126-.662.126-1.034m2.184.01c0 .56-.086 1.112-.26 1.655a4.562 4.562 0 0 1-.77 1.46c-.34.43-.77.775-1.288 1.038-.52.263-1.126.394-1.818.394-.692 0-1.298-.131-1.817-.394a3.816 3.816 0 0 1-1.29-1.038 4.561 4.561 0 0 1-.769-1.46 5.407 5.407 0 0 1 0-3.303c.173-.537.43-1.017.77-1.441.34-.424.77-.764 1.289-1.02.519-.257 1.125-.386 1.817-.386s1.295.129 1.808.385a3.9 3.9 0 0 1 1.29 1.02c.346.425.605.905.778 1.442a5.31 5.31 0 0 1 .26 1.647m6.669-2.38c-.428-.168-.826-.252-1.194-.252-.38 0-.706.073-.98.216a1.931 1.931 0 0 0-.676.584 2.66 2.66 0 0 0-.401.826c-.089.306-.133.62-.133.943 0 .36.038.704.115 1.034.078.33.196.616.356.862.16.246.363.443.606.593.244.15.531.224.864.224a1.8 1.8 0 0 0 .837-.224c.285-.15.487-.327.606-.53v-4.276zm.18 6.731l-.091-.662c-.203.226-.47.426-.803.6-.333.172-.726.259-1.178.259-.595 0-1.119-.125-1.57-.376a3.533 3.533 0 0 1-1.143-1.003 4.554 4.554 0 0 1-.705-1.45 6.08 6.08 0 0 1-.24-1.719c0-.56.082-1.11.249-1.647a4.37 4.37 0 0 1 .758-1.441 3.777 3.777 0 0 1 1.277-1.02c.511-.257 1.112-.386 1.802-.386.452 0 .94.083 1.464.248V5.135h2.22v11.942h-2.04zm8.29-4.047c-.24.013-.487.034-.739.063-.252.03-.492.069-.72.117-.481.095-.815.26-1.001.492a1.19 1.19 0 0 0-.28.76.85.85 0 0 0 .316.69c.21.174.508.26.892.26.288 0 .568-.06.838-.179.27-.12.502-.269.694-.448v-1.754zm.178 4.039l-.089-.644c-.24.265-.545.473-.916.623-.371.15-.779.226-1.222.226-.37 0-.728-.063-1.069-.188a2.823 2.823 0 0 1-.907-.537 2.64 2.64 0 0 1-.638-.86 2.656 2.656 0 0 1-.243-1.155c0-.429.084-.808.252-1.136.167-.329.395-.606.682-.833.288-.227.618-.412.989-.555.371-.143.76-.25 1.168-.322.287-.06.602-.104.943-.134.342-.03.626-.057.854-.081v-.125c0-.477-.123-.818-.369-1.021-.246-.203-.585-.304-1.016-.304a3.108 3.108 0 0 0-1.332.313c-.18.09-.34.179-.477.269-.138.089-.249.17-.333.241l-.734-1.557a3.26 3.26 0 0 1 .439-.305c.197-.119.435-.235.716-.349a5.97 5.97 0 0 1 .949-.286 5.27 5.27 0 0 1 1.136-.117c.478 0 .914.063 1.307.188.395.126.734.322 1.021.59.287.269.51.609.672 1.02.16.411.241.91.241 1.493v5.546H37.17zm8.884-9.965a3.34 3.34 0 0 0-.421-.152c-.21-.066-.486-.099-.833-.099-.31 0-.57.093-.778.278-.21.185-.314.487-.314.904v.412h1.862v1.79h-1.844v6.84h-2.22v-6.84H40.36v-1.79h1.146v-.465c0-.561.072-1.036.215-1.424a2.46 2.46 0 0 1 .6-.949c.256-.244.557-.423.904-.537.346-.113.722-.17 1.127-.17.538 0 .983.051 1.335.152.352.102.557.17.617.206l-.25 1.844zm6.051 5.613c0-.359-.041-.7-.125-1.024a2.491 2.491 0 0 0-.376-.835 1.926 1.926 0 0 0-.609-.557 1.658 1.658 0 0 0-.841-.207c-.322 0-.603.07-.842.207a1.926 1.926 0 0 0-.608.557 2.483 2.483 0 0 0-.376.835 4.064 4.064 0 0 0-.126 1.024c0 .372.042.716.126 1.034.083.317.206.595.366.835.162.24.364.428.61.566.244.137.528.206.85.206.322 0 .602-.069.841-.206.239-.138.442-.327.609-.566.167-.24.293-.518.376-.835.084-.318.125-.662.125-1.034m2.185.01c0 .56-.087 1.112-.26 1.655a4.555 4.555 0 0 1-.77 1.46c-.34.43-.77.775-1.289 1.038-.52.263-1.125.394-1.817.394-.693 0-1.298-.131-1.817-.394a3.816 3.816 0 0 1-1.29-1.038 4.561 4.561 0 0 1-.77-1.46 5.418 5.418 0 0 1-.26-1.656c0-.56.087-1.11.26-1.647.173-.537.43-1.017.77-1.441.34-.424.77-.764 1.29-1.02.519-.257 1.124-.386 1.817-.386.692 0 1.295.129 1.808.385a3.91 3.91 0 0 1 1.29 1.02c.345.425.605.905.778 1.442a5.34 5.34 0 0 1 .26 1.647m6.891 4.351v-4.924c0-.656-.137-1.163-.412-1.522-.274-.358-.656-.537-1.146-.537-.346 0-.665.09-.957.269a4.106 4.106 0 0 0-.761.59v6.124h-2.22v-8.63h2.023l.107.68a3.845 3.845 0 0 1 1.173-.662 3.9 3.9 0 0 1 2.57-.027c.38.137.71.355.984.653.274.299.486.687.635 1.165.15.477.224 1.05.224 1.718v5.103h-2.22zm9.127-5.353a2.287 2.287 0 0 0-.189-.78c-.102-.22-.228-.4-.378-.537a1.502 1.502 0 0 0-1.017-.403c-.384 0-.75.144-1.098.43-.348.287-.552.717-.612 1.29h3.294zm-3.348 1.593c.048.728.276 1.253.684 1.576.407.322.934.483 1.58.483a4.223 4.223 0 0 0 1.547-.287c.203-.083.377-.167.521-.25.144-.084.252-.162.323-.233l.592 1.809a4.083 4.083 0 0 1-1.092.528 7.002 7.002 0 0 1-2.185.331c-.561 0-1.095-.09-1.603-.269a3.565 3.565 0 0 1-1.333-.832 4.08 4.08 0 0 1-.913-1.405c-.228-.562-.34-1.23-.34-2.006 0-.728.104-1.373.312-1.934a4.087 4.087 0 0 1 .86-1.414 3.74 3.74 0 0 1 1.271-.877 3.96 3.96 0 0 1 1.549-.305c.55 0 1.056.09 1.522.269.466.179.868.456 1.208.832.34.376.61.863.806 1.46.197.596.295 1.306.295 2.13v.394H66.96z" fill="#E60000"/></g></svg>