<svg xmlns="http://www.w3.org/2000/svg" width="44" height="44" viewBox="0 0 44 44">
    <g fill="none" fill-rule="evenodd">
        <g>
            <path fill="#F4F4F4" d="M0 0H1280V4746H0z" transform="translate(-450 -2409)"/>
            <g>
                <g>
                    <g transform="translate(-450 -2409) translate(20 1710) translate(0 589) translate(420 100)">
                        <circle cx="32" cy="32" r="32" fill="#FFF"/>
                        <g>
                            <g transform="translate(10 10) translate(2.75)">
                                <path d="M0 0H44V44H0z"/>
                                <path stroke="#666" stroke-linecap="round" stroke-linejoin="round" d="M17.32 37.909H6.091c-1.034 0-1.872-.839-1.872-1.873h0c0-.496.197-.972.548-1.323.352-.35.828-.547 1.324-.547h1.964"/>
                                <circle cx="12.641" cy="29.487" r="6.552" stroke="#666" stroke-linecap="round" stroke-linejoin="round"/>
                                <circle cx="12.641" cy="29.487" r="1.107" stroke="#E60000" stroke-linecap="round" stroke-linejoin="round"/>
                                <path stroke="#666" stroke-linecap="round" stroke-linejoin="round" d="M17.226 34.166H29.02c3.876 0 7.017-3.143 7.017-7.019h0V13.111c.001-1.862-.738-3.647-2.054-4.964-1.316-1.316-3.101-2.056-4.963-2.056H14.981c-1.862 0-3.647.74-4.963 2.056-1.316 1.317-2.055 3.102-2.054 4.964V24.9"/>
                                <path stroke="#666" stroke-linecap="round" stroke-linejoin="round" d="M36.036 26.68L39.781 26.68 39.781 13.578 36.036 13.578"/>
                            </g>
                        </g>
                    </g>
                </g>
            </g>
        </g>
    </g>
</svg>
