<?xml version="1.0" encoding="utf-8"?>
<!-- Generator: Adobe Illustrator 21.1.0, SVG Export Plug-In . SVG Version: 6.00 Build 0)  -->
<svg version="1.1" id="Layer_1" xmlns="http://www.w3.org/2000/svg" xmlns:xlink="http://www.w3.org/1999/xlink" x="0px" y="0px"
	 viewBox="0 0 304 68" style="enable-background:new 0 0 304 68;" xml:space="preserve">
<style type="text/css">
	.st0{fill:#111111;}
</style>
<path id="_50_S13_Title_1_small_1x.svg" class="st0" d="M27.5,19.9H16.9v-6.4h10v-3.2h-10V4.1h10.6V0.7H12.9v22.5h14.6V19.9
	L27.5,19.9z M30.7,23.3h3.9v-9.6c0-2.4,1.4-4,3.7-4c2.2,0,3.3,1.3,3.3,3.7v9.9h3.9V12.6c0-3.8-2.1-6.2-5.7-6.2
	c-2.5,0-4.3,1.2-5.2,3.2h-0.1V6.7h-3.7L30.7,23.3L30.7,23.3z M63.3,12.6c-0.3-3.5-3-6.2-7.3-6.2C51.1,6.4,48,9.7,48,15
	c0,5.4,3.1,8.6,8,8.6c4.2,0,7-2.4,7.3-6.1h-3.7c-0.2,1.8-1.8,3.1-3.6,3c-2.5,0-4.1-2-4.1-5.5c0-3.4,1.6-5.5,4-5.5
	c1.8-0.1,3.4,1.3,3.6,3.1H63.3L63.3,12.6z M80.4,6.7h-3.9v9.6c0,2.4-1.4,4-3.6,4c-2.2,0-3.3-1.3-3.3-3.7V6.7h-3.9v10.7
	c0,3.8,2.3,6.2,5.9,6.2c2.5,0,4.2-1.2,5.1-3.2h0.1v2.9h3.7L80.4,6.7L80.4,6.7z M90.9,9.4c2.2,0,3.7,1.6,3.8,4H87
	C87.1,11.1,88.7,9.4,90.9,9.4z M94.7,18.3c-0.4,1.4-1.8,2.3-3.6,2.3c-2.5,0-4.2-1.8-4.2-4.4v-0.2h11.6v-1.3c0-5-2.9-8.3-7.6-8.3
	c-4.8,0-7.8,3.5-7.8,8.7c0,5.3,3,8.6,8,8.6c3.9,0,6.8-2.2,7.3-5.3L94.7,18.3L94.7,18.3z M101.1,23.3h3.9v-9.6c0-2.4,1.4-4,3.7-4
	c2.2,0,3.3,1.3,3.3,3.7v9.9h3.9V12.6c0-3.8-2.1-6.2-5.7-6.2c-2.5,0-4.3,1.2-5.2,3.2h-0.1V6.7h-3.7V23.3L101.1,23.3z M120.2,2.8v3.9
	h-2.4v3h2.4v9.2c0,3.2,1.4,4.5,5,4.5c0.7,0,1.3,0,2-0.2v-3c-0.4,0.1-0.7,0.1-1.1,0.1c-1.4,0-2-0.6-2-2V9.7h3.1v-3h-3.1V2.8H120.2
	L120.2,2.8z M130,23.3h3.9v-9.6c0-2.3,1.3-3.7,3.5-3.7c0.5,0,1.1,0.1,1.6,0.2V6.6c-0.4-0.1-0.8-0.2-1.2-0.2c-2,0-3.4,1.2-4,3.2h-0.1
	V6.7H130V23.3z M146.8,20.6c-1.7,0-2.8-0.9-2.8-2.2c0-1.3,1.1-2.2,3-2.3l3.8-0.2v1.3C150.8,19.1,149,20.6,146.8,20.6L146.8,20.6z
	 M145.6,23.5c2.1,0,4.1-1.1,5.2-2.9h0.1v2.6h3.8V11.9c0-3.3-2.7-5.5-6.8-5.5c-4.2,0-6.9,2.2-7,5.3h3.6c0.2-1.4,1.4-2.3,3.3-2.3
	c1.9,0,3.1,1,3.1,2.7v1.2l-4.4,0.2c-4,0.2-6.3,2-6.3,4.9C140.1,21.5,142.4,23.5,145.6,23.5L145.6,23.5z M171.5,9.4
	c2.2,0,3.7,1.6,3.8,4h-7.7C167.8,11.1,169.3,9.4,171.5,9.4L171.5,9.4z M175.4,18.3c-0.4,1.4-1.8,2.3-3.6,2.3c-2.5,0-4.2-1.8-4.2-4.4
	v-0.2h11.6v-1.3c0-5-2.9-8.3-7.6-8.3c-4.8,0-7.8,3.5-7.8,8.7c0,5.3,3,8.6,8,8.6c3.9,0,6.8-2.2,7.3-5.3L175.4,18.3L175.4,18.3z
	 M181.9,23.3h3.9V0.7h-3.9L181.9,23.3L181.9,23.3z M195.9,23.3h3.9V6.7h-3.9V23.3z M197.8,4.2c1.2,0,2.1-1,2.1-2.1
	c0-1.2-1-2.1-2.1-2.1c-1.2,0-2.1,1-2.1,2.1C195.7,3.3,196.6,4.2,197.8,4.2L197.8,4.2z M203.5,0.7v22.5h4v-7.4h4.6
	c4.6,0,7.8-3.1,7.8-7.6s-3.1-7.5-7.6-7.5H203.5L203.5,0.7z M207.6,4h3.7c2.9,0,4.6,1.6,4.6,4.2c0,2.7-1.7,4.3-4.6,4.3h-3.7V4z
	 M222.7,23.3h3.9v-9.5c0-2.4,1.4-4.1,3.8-4.1c2.2,0,3.4,1.4,3.4,3.7v9.9h3.9V12.6c0-3.8-2.1-6.2-5.8-6.2c-2.5,0-4.3,1.1-5.2,3.2
	h-0.1V0.7h-3.8V23.3z M248.2,23.6c4.9,0,8-3.2,8-8.6c0-5.4-3.2-8.6-8-8.6s-8,3.3-8,8.6C240.2,20.4,243.3,23.6,248.2,23.6L248.2,23.6
	z M248.2,20.5c-2.5,0-4.1-2-4.1-5.5c0-3.5,1.6-5.5,4.1-5.5c2.5,0,4.1,2,4.1,5.5C252.3,18.5,250.7,20.5,248.2,20.5L248.2,20.5z
	 M258.8,23.3h3.9v-9.6c0-2.4,1.4-4,3.7-4c2.2,0,3.3,1.3,3.3,3.7v9.9h3.9V12.6c0-3.8-2.1-6.2-5.7-6.2c-2.5,0-4.3,1.2-5.2,3.2h-0.1
	V6.7h-3.7L258.8,23.3L258.8,23.3z M284,9.4c2.2,0,3.7,1.6,3.8,4H280C280.2,11.1,281.8,9.4,284,9.4L284,9.4z M287.8,18.3
	c-0.4,1.4-1.8,2.3-3.6,2.3c-2.5,0-4.2-1.8-4.2-4.4v-0.2h11.6v-1.3c0-5-2.9-8.3-7.6-8.3c-4.8,0-7.8,3.5-7.8,8.7c0,5.3,3,8.6,8,8.6
	c3.9,0,6.8-2.2,7.3-5.3L287.8,18.3L287.8,18.3z M8.6,42.4c-4.2,0-6.9,3.3-6.9,8.6c0,5.3,2.7,8.6,6.8,8.6c2.4,0,4.3-1.2,5.2-3.1h0.1
	v8.2h3.9v-22h-3.8v2.9h-0.1C12.8,43.6,10.8,42.4,8.6,42.4L8.6,42.4z M9.7,56.4c-2.5,0-4-2.1-4-5.4c0-3.3,1.5-5.4,4-5.4
	c2.5,0,4.1,2.1,4.1,5.4C13.8,54.3,12.2,56.4,9.7,56.4L9.7,56.4z M35.7,42.7h-3.9v9.6c0,2.4-1.4,4-3.6,4c-2.2,0-3.3-1.3-3.3-3.7v-9.9
	h-3.9v10.7c0,3.8,2.3,6.2,5.9,6.2c2.5,0,4.2-1.2,5.1-3.2h0.1v2.9h3.7V42.7L35.7,42.7z M46.1,45.4c2.2,0,3.7,1.6,3.8,4h-7.7
	C42.4,47.1,43.9,45.4,46.1,45.4L46.1,45.4z M50,54.3c-0.4,1.4-1.8,2.3-3.6,2.3c-2.5,0-4.2-1.8-4.2-4.4v-0.2h11.6v-1.3
	c0-5-2.9-8.3-7.6-8.3c-4.8,0-7.8,3.5-7.8,8.7c0,5.3,3,8.6,8,8.6c3.9,0,6.8-2.2,7.3-5.3L50,54.3L50,54.3z M62.9,59.3h3.9V49.1
	c0-2,1.3-3.5,3.2-3.5c1.8,0,2.9,1.1,2.9,3v10.6h3.8V49c0-2,1.3-3.4,3.2-3.4c1.9,0,3,1.2,3,3.2v10.4h3.9V47.9c0-3.3-2.1-5.5-5.4-5.5
	c-2.2-0.1-4.3,1.2-5.2,3.3h-0.1c-0.6-2.1-2.3-3.3-4.6-3.3c-2.1-0.1-4,1.2-4.7,3.2h-0.1v-2.9h-3.7V59.3z M97.1,45.4
	c2.2,0,3.7,1.6,3.8,4h-7.7C93.3,47.1,94.9,45.4,97.1,45.4L97.1,45.4z M100.9,54.3c-0.4,1.4-1.8,2.3-3.6,2.3c-2.5,0-4.2-1.8-4.2-4.4
	v-0.2h11.6v-1.3c0-5-2.9-8.3-7.6-8.3c-4.8,0-7.8,3.5-7.8,8.7c0,5.3,3,8.6,8,8.6c3.9,0,6.8-2.2,7.3-5.3L100.9,54.3L100.9,54.3z
	 M111.3,42.7h-3.9V60c0,1.5-0.6,2.1-2.2,2.1c-0.1,0-0.4,0-0.5,0v3c0.1,0,0.7,0,1,0c3.8,0,5.7-1.7,5.7-5V42.7z M109.4,40.2
	c1.2,0,2.1-1,2.1-2.1c0-1.2-1-2.1-2.1-2.1c-1.2,0-2.1,1-2.1,2.1C107.3,39.3,108.2,40.2,109.4,40.2L109.4,40.2z M122.1,59.6
	c4.9,0,8-3.2,8-8.6c0-5.4-3.2-8.6-8-8.6s-8,3.3-8,8.6C114.1,56.4,117.2,59.6,122.1,59.6L122.1,59.6z M122.1,56.5
	c-2.5,0-4.1-2-4.1-5.5c0-3.5,1.6-5.5,4.1-5.5c2.5,0,4.1,2,4.1,5.5C126.1,54.5,124.5,56.5,122.1,56.5L122.1,56.5z M132.7,59.3h3.9
	v-9.6c0-2.3,1.3-3.7,3.5-3.7c0.5,0,1.1,0.1,1.6,0.2v-3.5c-0.4-0.1-0.8-0.2-1.2-0.2c-2,0-3.4,1.2-4,3.2h-0.1v-2.9h-3.7L132.7,59.3
	L132.7,59.3z M165,42.7h-4.1L157,55.7H157l-3.8-12.9H149l5.9,16.6h4.3L165,42.7z M172.5,56.6c-1.7,0-2.8-0.9-2.8-2.2
	c0-1.3,1.1-2.2,3-2.3l3.8-0.2v1.3C176.5,55.1,174.8,56.6,172.5,56.6L172.5,56.6z M171.4,59.5c2.1,0,4.1-1.1,5.2-2.9h0.1v2.6h3.7
	V47.9c0-3.3-2.7-5.5-6.8-5.5c-4.2,0-6.9,2.2-7,5.3h3.6c0.2-1.4,1.4-2.3,3.3-2.3c1.9,0,3.1,1,3.1,2.7v1.2l-4.4,0.2
	c-4,0.2-6.3,2-6.3,4.9C165.8,57.5,168.2,59.5,171.4,59.5L171.4,59.5z M204.7,48.6c-0.3-3.5-3-6.2-7.3-6.2c-4.8,0-7.9,3.3-7.9,8.6
	c0,5.4,3.1,8.6,8,8.6c4.2,0,7-2.4,7.3-6.1h-3.7c-0.2,1.8-1.8,3.1-3.6,3c-2.5,0-4.1-2-4.1-5.5c0-3.4,1.6-5.5,4-5.5
	c1.8-0.1,3.4,1.3,3.6,3.1H204.7L204.7,48.6z M214.5,59.6c4.9,0,8-3.2,8-8.6c0-5.4-3.2-8.6-8-8.6c-4.8,0-8,3.3-8,8.6
	C206.5,56.4,209.7,59.6,214.5,59.6L214.5,59.6z M214.5,56.5c-2.5,0-4.1-2-4.1-5.5c0-3.5,1.6-5.5,4.1-5.5c2.5,0,4.1,2,4.1,5.5
	C218.6,54.5,217,56.5,214.5,56.5L214.5,56.5z M225.2,59.3h3.9v-9.6c0-2.4,1.4-4,3.7-4c2.2,0,3.3,1.3,3.3,3.7v9.9h3.9V48.6
	c0-3.8-2.1-6.2-5.7-6.2c-2.5,0-4.3,1.2-5.2,3.2h-0.1v-2.8h-3.7V59.3L225.2,59.3z M244.2,38.8v3.9h-2.4v3h2.4v9.2
	c0,3.2,1.4,4.5,5,4.5c0.7,0,1.3,0,2-0.2v-3c-0.4,0.1-0.7,0.1-1.1,0.1c-1.4,0-2-0.6-2-2v-8.6h3.1v-3h-3.1v-3.9H244.2z M254.1,59.3
	h3.9V42.7h-3.9V59.3z M256,40.2c1.2,0,2.1-1,2.1-2.1c0-1.2-1-2.1-2.1-2.1c-1.2,0-2.1,1-2.1,2.1C253.9,39.3,254.9,40.2,256,40.2z
	 M268.7,56.2c-2.5,0-4-2-4-5.2c0-3.2,1.6-5.3,4-5.3c2.5,0,4.1,2.1,4.1,5.3C272.8,54.2,271.2,56.2,268.7,56.2L268.7,56.2z
	 M268.7,65.5c4.8,0,8-2.6,8-6.5V42.7h-3.8v2.8h-0.1c-1-2-3-3.2-5.2-3.1c-4.2,0-6.9,3.3-6.9,8.5c0,5.2,2.7,8.4,6.8,8.4
	c2.4,0,4.3-1.2,5.2-3h0.1v2.8c0,2.1-1.5,3.5-4,3.5c-1.8,0-3.3-0.9-3.7-2.1h-3.9C261.7,63.4,264.6,65.5,268.7,65.5L268.7,65.5z
	 M287.3,59.6c4.9,0,8-3.2,8-8.6c0-5.4-3.2-8.6-8-8.6s-8,3.3-8,8.6C279.3,56.4,282.5,59.6,287.3,59.6L287.3,59.6z M287.3,56.5
	c-2.5,0-4.1-2-4.1-5.5c0-3.5,1.6-5.5,4.1-5.5c2.5,0,4.1,2,4.1,5.5C291.4,54.5,289.8,56.5,287.3,56.5L287.3,56.5z M300,59.5
	c1.2,0,2.2-1,2.2-2.2c0-1.2-1-2.2-2.2-2.2s-2.2,1-2.2,2.2C297.8,58.4,298.8,59.4,300,59.5C300,59.5,300,59.5,300,59.5L300,59.5z"/>
</svg>
