<?xml version="1.0" encoding="utf-8"?>
<!-- Generator: Adobe Illustrator 21.1.0, SVG Export Plug-In . SVG Version: 6.00 Build 0)  -->
<svg version="1.1" id="Layer_1" xmlns="http://www.w3.org/2000/svg" xmlns:xlink="http://www.w3.org/1999/xlink" x="0px" y="0px"
	 viewBox="0 0 716 120" style="enable-background:new 0 0 716 120;" xml:space="preserve">
<style type="text/css">
	.st0{fill:#FFFFFF;}
</style>
<path id="_50_S1_Headline_medium_1x.svg" class="st0" d="M22.1,48.1c10.7,0,18-5.8,19.4-15.5h-7.9c-1.2,5.4-5.5,8.7-11.5,8.7
	c-7.8,0-12.8-6.3-12.8-16.5c0-10.1,5-16.4,12.7-16.4c5.8,0,10.4,3.7,11.5,9.4h7.9c-1-9.7-9-16.2-19.4-16.2c-12.8,0-21,8.9-21,23.3
	C1.2,39.3,9.2,48.1,22.1,48.1z M58.3,42c-3.4,0-5.6-1.7-5.6-4.4c0-2.6,2.2-4.3,5.9-4.6l7.7-0.5v2.5C66.2,39.1,62.7,42,58.3,42
	L58.3,42z M56,47.9c4.2,0,8.4-2.2,10.3-5.8h0.2v5.3h7.5V24.6c0-6.7-5.3-11-13.6-11c-8.4,0-13.7,4.4-14.1,10.6h7.2
	c0.5-2.8,2.8-4.5,6.5-4.5c3.8,0,6.2,2,6.2,5.5v2.4L57.5,28c-8.1,0.5-12.6,4-12.6,9.9C44.9,43.9,49.5,47.9,56,47.9L56,47.9z
	 M62.8,9.7L70.1,0h-7.4l-5.4,9.7H62.8L62.8,9.7z M79.6,47.4h7.8V27.1c0-4,2.6-6.9,6.4-6.9c3.6,0,5.9,2.3,5.9,6v21.2h7.6V26.9
	c0-4,2.6-6.7,6.3-6.7c3.8,0,5.9,2.3,5.9,6.4v20.8h7.8V24.7c0-6.6-4.3-11-10.8-11c-4.8,0-8.7,2.6-10.3,6.7h-0.2
	c-1.2-4.2-4.6-6.7-9.2-6.7c-4.5,0-8,2.5-9.4,6.4h-0.2v-5.8h-7.5L79.6,47.4L79.6,47.4z M145,42c-3.4,0-5.6-1.7-5.6-4.4
	c0-2.6,2.2-4.3,5.9-4.6l7.7-0.5v2.5C152.9,39.1,149.4,42,145,42L145,42z M142.6,47.9c4.2,0,8.4-2.2,10.3-5.8h0.2v5.3h7.5V24.6
	c0-6.7-5.3-11-13.6-11c-8.4,0-13.7,4.4-14.1,10.6h7.2c0.5-2.8,2.8-4.5,6.5-4.5c3.8,0,6.2,2,6.2,5.5v2.4l-8.8,0.5
	c-8.1,0.5-12.6,4-12.6,9.9C131.6,43.9,136.2,47.9,142.6,47.9L142.6,47.9z M166.3,47.4h7.8V28.1c0-4.7,2.7-7.5,7.1-7.5
	c1.1,0,2.1,0.1,3.2,0.4v-7c-0.8-0.2-1.6-0.3-2.4-0.3c-3.9,0-6.8,2.3-7.9,6.3h-0.2v-5.8h-7.5V47.4L166.3,47.4z M199.1,42
	c-3.4,0-5.6-1.7-5.6-4.4c0-2.6,2.2-4.3,5.9-4.6l7.7-0.5v2.5C207,39.1,203.5,42,199.1,42L199.1,42z M196.7,47.9
	c4.2,0,8.4-2.2,10.3-5.8h0.2v5.3h7.5V24.6c0-6.7-5.3-11-13.6-11c-8.4,0-13.7,4.4-14.1,10.6h7.2c0.5-2.8,2.8-4.5,6.5-4.5
	c3.8,0,6.2,2,6.2,5.5v2.4l-8.8,0.5c-8.1,0.5-12.6,4-12.6,9.9C185.6,43.9,190.3,47.9,196.7,47.9L196.7,47.9z M219.8,23.7
	c0,4.9,3.2,8,9.5,9.4l5.5,1.2c3.5,0.8,4.7,1.9,4.7,3.9c0,2.5-2.3,4-6.1,4c-3.9,0-6.2-1.6-6.8-4.8h-7.7c0.6,6.4,5.8,10.5,14.4,10.5
	c8.1,0,13.9-4.2,13.9-10.5c0-4.8-2.7-7.5-9.5-9l-5.5-1.2c-3.5-0.8-4.8-2.1-4.8-4c0-2.4,2.3-4.1,5.7-4.1c3.6,0,5.8,1.9,6.1,4.9h7.2
	c-0.2-6.3-5.3-10.6-13.4-10.6C225,13.6,219.8,17.7,219.8,23.7L219.8,23.7z M264.6,2.3v45.1h8.1V32.5h9.1c9.1,0,15.5-6.1,15.5-15.1
	s-6.2-15.1-15.2-15.1L264.6,2.3L264.6,2.3z M272.7,8.9h7.3c5.8,0,9.1,3.1,9.1,8.5c0,5.5-3.4,8.6-9.2,8.6h-7.3L272.7,8.9L272.7,8.9z
	 M301.8,47.4h7.8V28.1c0-4.7,2.7-7.5,7.1-7.5c1.1,0,2.1,0.1,3.2,0.4v-7c-0.8-0.2-1.6-0.3-2.4-0.3c-3.9,0-6.8,2.3-7.9,6.3h-0.2v-5.8
	h-7.5V47.4L301.8,47.4z M336.7,48c9.7,0,16-6.5,16-17.2c0-10.7-6.4-17.2-16-17.2s-16,6.6-16,17.2C320.6,41.6,327,48,336.7,48
	L336.7,48z M336.7,41.9c-4.9,0-8.1-4-8.1-11.1c0-7,3.2-11.1,8.1-11.1c4.9,0,8.1,4,8.1,11.1C344.8,37.9,341.6,41.9,336.7,41.9
	L336.7,41.9z M361.3,47.7c2.5,0,4.5-2,4.5-4.5s-2-4.5-4.5-4.5s-4.5,2-4.5,4.5c0,2.4,1.9,4.5,4.4,4.5
	C361.2,47.7,361.2,47.7,361.3,47.7L361.3,47.7z M382,2.3v45.1h8.1V32.5h9.1c9.1,0,15.5-6.1,15.5-15.1s-6.2-15.1-15.2-15.1L382,2.3
	L382,2.3z M390,8.9h7.3c5.8,0,9.1,3.1,9.1,8.5c0,5.5-3.4,8.6-9.2,8.6H390L390,8.9L390,8.9z M428.9,42c-3.4,0-5.6-1.7-5.6-4.4
	c0-2.6,2.2-4.3,5.9-4.6l7.7-0.5v2.5C436.8,39.1,433.3,42,428.9,42L428.9,42z M426.6,47.9c4.2,0,8.4-2.2,10.3-5.8h0.2v5.3h7.5V24.6
	c0-6.7-5.3-11-13.6-11c-8.4,0-13.7,4.4-14.1,10.6h7.2c0.5-2.8,2.8-4.5,6.5-4.5c3.8,0,6.2,2,6.2,5.5v2.4l-8.8,0.5
	c-8.1,0.5-12.6,4-12.6,9.9C415.5,43.9,420.2,47.9,426.6,47.9L426.6,47.9z M450.2,47.4h7.8V28.2c0-4.8,2.8-8,7.3-8
	c4.4,0,6.6,2.6,6.6,7.3v19.8h7.8V26c0-7.7-4.2-12.3-11.5-12.3c-5.1,0-8.6,2.4-10.4,6.3h-0.2v-5.7h-7.5V47.4L450.2,47.4z M487.5,6.5
	v7.8h-4.8v6h4.8v18.3c0,6.4,2.8,9,10,9c1.4,0,2.7-0.1,4-0.3v-5.9c-0.7,0.1-1.5,0.2-2.2,0.2c-2.8,0-4-1.2-4-4V20.2h6.2v-6h-6.2V6.5
	L487.5,6.5L487.5,6.5z M517.9,42c-3.4,0-5.6-1.7-5.6-4.4c0-2.6,2.2-4.3,5.9-4.6l7.7-0.5v2.5C525.8,39.1,522.3,42,517.9,42L517.9,42z
	 M515.5,47.9c4.2,0,8.4-2.2,10.3-5.8h0.2v5.3h7.5V24.6c0-6.7-5.3-11-13.6-11c-8.4,0-13.7,4.4-14.1,10.6h7.2c0.5-2.8,2.8-4.5,6.5-4.5
	c3.8,0,6.2,2,6.2,5.5v2.4l-8.8,0.5c-8.1,0.5-12.6,4-12.6,9.9C504.5,43.9,509.1,47.9,515.5,47.9L515.5,47.9z M539.4,47.4h7.8V2.3
	h-7.8V47.4L539.4,47.4z M553.5,47.4h7.8V2.3h-7.8V47.4L553.5,47.4z M579.4,42c-3.4,0-5.6-1.7-5.6-4.4c0-2.6,2.2-4.3,5.9-4.6l7.7-0.5
	v2.5C587.3,39.1,583.8,42,579.4,42L579.4,42z M577,47.9c4.2,0,8.4-2.2,10.3-5.8h0.2v5.3h7.5V24.6c0-6.7-5.3-11-13.6-11
	c-8.4,0-13.7,4.4-14.1,10.6h7.2c0.5-2.8,2.8-4.5,6.5-4.5c3.8,0,6.2,2,6.2,5.5v2.4l-8.8,0.5c-8.1,0.5-12.6,4-12.6,9.9
	C566,43.9,570.6,47.9,577,47.9L577,47.9z M613.7,2.3v45.1h8.1V32.5h9.1c9.1,0,15.5-6.1,15.5-15.1s-6.2-15.1-15.2-15.1L613.7,2.3
	L613.7,2.3z M621.8,8.9h7.3c5.8,0,9.1,3.1,9.1,8.5c0,5.5-3.4,8.6-9.2,8.6h-7.3V8.9L621.8,8.9z M650.9,47.4h7.8V28.1
	c0-4.7,2.7-7.5,7.1-7.5c1.1,0,2.1,0.1,3.2,0.4v-7c-0.8-0.2-1.6-0.3-2.4-0.3c-3.9,0-6.8,2.3-7.9,6.3h-0.2v-5.8h-7.5V47.4L650.9,47.4z
	 M685.8,48c9.7,0,16-6.5,16-17.2c0-10.7-6.4-17.2-16-17.2s-16,6.6-16,17.2C669.7,41.6,676,48,685.8,48L685.8,48z M685.8,41.9
	c-4.9,0-8.1-4-8.1-11.1c0-7,3.2-11.1,8.1-11.1c4.9,0,8.1,4,8.1,11.1C693.9,37.9,690.7,41.9,685.8,41.9L685.8,41.9z M710.4,47.7
	c2.5,0,4.5-2,4.5-4.5s-2-4.5-4.5-4.5s-4.5,2-4.5,4.5c0,2.4,1.9,4.5,4.4,4.5C710.3,47.7,710.3,47.7,710.4,47.7L710.4,47.7z
	 M134.9,76.8h8.9c5.1,0,8.2,2.9,8.2,7.7c0,4.9-3,7.7-8.1,7.7h-9.1V76.8z M134.9,98.4h8.7l8.9,17h9.2l-9.8-18.2
	c5.4-1.9,8.5-6.9,8.5-12.9c0-8.6-5.8-14-15.6-14h-17.9v45.1h8.1V98.4L134.9,98.4z M179.6,87.6c4.5,0,7.5,3.3,7.6,8h-15.5
	C172,90.9,175.2,87.6,179.6,87.6L179.6,87.6z M187.2,105.5c-0.8,2.8-3.6,4.6-7.2,4.6c-5.1,0-8.3-3.6-8.3-8.9v-0.5h23.2v-2.5
	c0-10.1-5.9-16.6-15.3-16.6c-9.6,0-15.6,6.9-15.6,17.4c0,10.6,6,17.1,15.9,17.1c7.8,0,13.7-4.3,14.7-10.6H187.2z M199.2,115.4h7.8
	V96.2c0-4.8,2.8-8,7.3-8c4.4,0,6.6,2.6,6.6,7.3v19.8h7.8V94c0-7.7-4.2-12.3-11.5-12.3c-5.1,0-8.6,2.4-10.4,6.3h-0.2v-5.7h-7.5V115.4
	L199.2,115.4z M246.8,115.9c4.8,0,8.7-2.5,10.5-6.2h0.1v5.7h7.6V70.3h-7.8v17.5H257c-1.8-3.7-5.5-6.1-10.2-6.1
	c-8.3,0-13.8,6.6-13.8,17.1C233,109.3,238.4,115.9,246.8,115.9L246.8,115.9z M249.1,88.1c4.9,0,8.1,4.2,8.1,10.7
	c0,6.6-3.2,10.7-8.1,10.7c-5,0-8.1-4.1-8.1-10.7C241,92.2,244.1,88.1,249.1,88.1L249.1,88.1z M271.1,115.4h7.8V82.2h-7.8
	L271.1,115.4L271.1,115.4z M275,77.2c2.3,0,4.2-1.9,4.2-4.2c0-2.3-1.9-4.2-4.2-4.2c-2.3,0-4.2,1.9-4.2,4.2
	C270.7,75.4,272.6,77.3,275,77.2L275,77.2z M284.9,115.4h7.8V95.1c0-4,2.6-6.9,6.4-6.9c3.6,0,5.9,2.3,5.9,6v21.2h7.6V94.9
	c0-4,2.6-6.7,6.3-6.7c3.8,0,5.9,2.3,5.9,6.4v20.8h7.8V92.7c0-6.6-4.3-11-10.8-11c-4.8,0-8.7,2.6-10.3,6.7h-0.2
	c-1.2-4.2-4.6-6.7-9.2-6.7c-4.5,0-8,2.5-9.4,6.4h-0.2v-5.8h-7.5L284.9,115.4L284.9,115.4z M338.3,115.4h7.8V82.2h-7.8V115.4z
	 M342.2,77.2c2.3,0,4.2-1.9,4.2-4.2c0-2.3-1.9-4.2-4.2-4.2c-2.3,0-4.2,1.9-4.2,4.2C337.9,75.4,339.8,77.3,342.2,77.2
	C342.2,77.2,342.2,77.2,342.2,77.2L342.2,77.2z M366.3,87.6c4.5,0,7.5,3.3,7.6,8h-15.5C358.8,90.9,362,87.6,366.3,87.6L366.3,87.6z
	 M374,105.5c-0.8,2.8-3.6,4.6-7.2,4.6c-5.1,0-8.3-3.6-8.3-8.9v-0.5h23.2v-2.5c0-10.1-5.9-16.6-15.3-16.6c-9.6,0-15.6,6.9-15.6,17.4
	c0,10.6,6,17.1,15.9,17.1c7.8,0,13.7-4.3,14.7-10.6H374L374,105.5z M386,115.4h7.8V96.2c0-4.8,2.8-8,7.3-8c4.4,0,6.6,2.6,6.6,7.3
	v19.8h7.8V94c0-7.7-4.2-12.3-11.5-12.3c-5.1,0-8.6,2.4-10.4,6.3h-0.2v-5.7H386L386,115.4L386,115.4z M423.3,74.5v7.8h-4.8v6h4.8
	v18.3c0,6.4,2.8,9,10,9c1.4,0,2.7-0.1,4-0.3v-5.9c-0.7,0.1-1.5,0.2-2.2,0.2c-2.8,0-4-1.2-4-4V88.2h6.2v-6h-6.2v-7.8L423.3,74.5
	L423.3,74.5z M456.1,116c9.7,0,16-6.5,16-17.2c0-10.7-6.4-17.2-16-17.2s-16,6.6-16,17.2C440,109.6,446.4,116,456.1,116z
	 M456.1,109.9c-4.9,0-8.1-4-8.1-11.1c0-7,3.2-11.1,8.1-11.1c4.9,0,8.1,4,8.1,11.1C464.2,105.9,461,109.9,456.1,109.9z M489.5,70.3
	v45.1h8.1v-14.9h9.1c9.1,0,15.5-6.1,15.5-15.1s-6.2-15.1-15.2-15.1H489.5z M497.6,76.9h7.3c5.8,0,9.1,3.1,9.1,8.5
	c0,5.5-3.4,8.6-9.2,8.6h-7.3V76.9z M526.8,115.4h7.8V96.1c0-4.7,2.7-7.5,7.1-7.5c1.1,0,2.1,0.1,3.2,0.4v-7c-0.8-0.2-1.6-0.3-2.4-0.3
	c-3.9,0-6.8,2.3-7.9,6.3h-0.2v-5.8h-7.5V115.4z M561.6,116c9.7,0,16-6.5,16-17.2c0-10.7-6.4-17.2-16-17.2s-16,6.6-16,17.2
	C545.6,109.6,551.9,116,561.6,116z M561.6,109.9c-4.9,0-8.1-4-8.1-11.1c0-7,3.2-11.1,8.1-11.1c4.9,0,8.1,4,8.1,11.1
	C569.7,105.9,566.6,109.9,561.6,109.9z M586.2,115.7c2.5,0,4.5-2,4.5-4.5s-2-4.5-4.5-4.5s-4.5,2-4.5,4.5c0,2.4,1.9,4.5,4.4,4.5
	C586.1,115.7,586.2,115.7,586.2,115.7L586.2,115.7z"/>
</svg>
