<?xml version="1.0" encoding="utf-8"?>
<!-- Generator: Adobe Illustrator 21.1.0, SVG Export Plug-In . SVG Version: 6.00 Build 0)  -->
<svg version="1.1" id="Layer_1" xmlns="http://www.w3.org/2000/svg" xmlns:xlink="http://www.w3.org/1999/xlink" x="0px" y="0px"
	 viewBox="0 0 428 128" style="enable-background:new 0 0 428 128;" xml:space="preserve">
<style type="text/css">
	.st0{fill:#FFFFFF;}
</style>
<path id="_50_S2_Title_1_large_1x.svg" class="st0" d="M22.4,1.5C9.2,1.5,1,10.5,1,24.8s8.2,23.3,21.4,23.3
	c13.1,0,21.4-8.9,21.4-23.3S35.5,1.5,22.4,1.5z M22.4,8.4c8,0,13.2,6.4,13.2,16.4c0,10-5.1,16.4-13.2,16.4
	c-8.1,0-13.2-6.4-13.2-16.4C9.2,14.8,14.3,8.4,22.4,8.4z M67.3,47.9c8.4,0,13.7-6.5,13.7-17.1s-5.3-17.1-13.7-17.1
	c-4.7,0-8.5,2.4-10.3,6.2h-0.2V2.3H49v45.1h7.6v-5.7h0.2C58.7,45.6,62.4,47.9,67.3,47.9z M64.9,20.1c5,0,8.1,4.2,8.1,10.7
	c0,6.6-3.1,10.7-8.1,10.7c-4.8,0-8.2-4.2-8.2-10.7C56.8,24.4,60.1,20.1,64.9,20.1L64.9,20.1z M84.8,23.7c0,4.9,3.2,8,9.5,9.4
	l5.5,1.2c3.5,0.8,4.7,1.9,4.7,3.9c0,2.5-2.3,4-6.1,4c-3.9,0-6.2-1.6-6.8-4.8H84C84.6,43.9,89.7,48,98.4,48c8.1,0,13.9-4.2,13.9-10.5
	c0-4.8-2.7-7.5-9.5-9l-5.5-1.2c-3.5-0.8-4.8-2.1-4.8-4c0-2.4,2.3-4.1,5.7-4.1c3.6,0,5.8,1.9,6.1,4.9h7.2
	c-0.2-6.3-5.3-10.6-13.4-10.6C90.1,13.6,84.8,17.7,84.8,23.7L84.8,23.7z M130.9,19.6c4.5,0,7.5,3.3,7.6,8h-15.5
	C123.4,22.9,126.6,19.6,130.9,19.6L130.9,19.6z M138.6,37.5c-0.8,2.8-3.6,4.6-7.2,4.6c-5.1,0-8.3-3.6-8.3-8.9v-0.5h23.2v-2.5
	c0-10.1-5.9-16.6-15.3-16.6c-9.6,0-15.6,6.9-15.6,17.4c0,10.6,6,17.1,15.9,17.1c7.8,0,13.7-4.3,14.7-10.6H138.6z M150,23.7
	c0,4.9,3.2,8,9.5,9.4l5.5,1.2c3.5,0.8,4.7,1.9,4.7,3.9c0,2.5-2.3,4-6.1,4c-3.9,0-6.2-1.6-6.8-4.8h-7.7c0.6,6.4,5.8,10.5,14.4,10.5
	c8.1,0,13.9-4.2,13.9-10.5c0-4.8-2.7-7.5-9.5-9l-5.5-1.2c-3.5-0.8-4.8-2.1-4.8-4c0-2.4,2.3-4.1,5.7-4.1c3.6,0,5.8,1.9,6.1,4.9h7.2
	c-0.2-6.3-5.3-10.6-13.4-10.6C155.3,13.6,150,17.7,150,23.7L150,23.7z M182.1,47.4h7.8V14.2h-7.8V47.4L182.1,47.4z M185.9,9.2
	c2.3,0,4.2-1.9,4.2-4.2c0-2.3-1.9-4.2-4.2-4.2c-2.3,0-4.2,1.9-4.2,4.2C181.7,7.4,183.6,9.3,185.9,9.2L185.9,9.2z M210.4,48
	c9.7,0,16-6.5,16-17.2c0-10.7-6.4-17.2-16-17.2s-16,6.6-16,17.2C194.4,41.6,200.7,48,210.4,48L210.4,48z M210.4,41.9
	c-4.9,0-8.1-4-8.1-11.1c0-7,3.2-11.1,8.1-11.1c4.9,0,8.1,4,8.1,11.1C218.6,37.9,215.4,41.9,210.4,41.9L210.4,41.9z M213.2,9.7
	l7.3-9.7h-7.4l-5.4,9.7H213.2L213.2,9.7z M230.9,47.4h7.8V28.2c0-4.8,2.8-8,7.3-8c4.4,0,6.6,2.6,6.6,7.3v19.8h7.8V26
	c0-7.7-4.2-12.3-11.5-12.3c-5.1,0-8.6,2.4-10.4,6.3h-0.2v-5.7h-7.5L230.9,47.4L230.9,47.4z M19.9,81.7c-4.8,0-8.6,2.4-10.4,6.3H9.3
	v-5.7H1.7v44h7.8v-16.4h0.2c1.8,3.7,5.6,6,10.4,6c8.3,0,13.6-6.5,13.6-17.1C33.7,88.2,28.3,81.7,19.9,81.7L19.9,81.7z M17.5,109.5
	c-4.8,0-8.1-4.2-8.1-10.7c0-6.4,3.2-10.7,8.1-10.7c5,0,8.2,4.2,8.2,10.7C25.7,105.4,22.6,109.5,17.5,109.5L17.5,109.5z M52.7,116
	c9.7,0,16-6.5,16-17.2c0-10.7-6.4-17.2-16-17.2s-16,6.6-16,17.2C36.7,109.6,43,116,52.7,116L52.7,116z M52.7,109.9
	c-4.9,0-8.1-4-8.1-11.1c0-7,3.2-11.1,8.1-11.1c4.9,0,8.1,4,8.1,11.1C60.9,105.9,57.7,109.9,52.7,109.9L52.7,109.9z M73.2,115.4H81
	V96.1c0-4.7,2.7-7.5,7.1-7.5c1.1,0,2.1,0.1,3.2,0.4v-7c-0.8-0.2-1.6-0.3-2.4-0.3c-3.9,0-6.8,2.3-7.9,6.3h-0.2v-5.8h-7.5V115.4
	L73.2,115.4z M107.1,115.4h7.8V70.3h-7.8V115.4z M135.5,116c9.7,0,16-6.5,16-17.2c0-10.7-6.4-17.2-16-17.2s-16,6.6-16,17.2
	C119.5,109.6,125.8,116,135.5,116L135.5,116z M135.5,109.9c-4.9,0-8.1-4-8.1-11.1c0-7,3.2-11.1,8.1-11.1c4.9,0,8.1,4,8.1,11.1
	C143.7,105.9,140.5,109.9,135.5,109.9L135.5,109.9z M155.4,91.7c0,4.9,3.2,8,9.5,9.4l5.5,1.2c3.5,0.8,4.7,1.9,4.7,3.9
	c0,2.5-2.3,4-6.1,4c-3.9,0-6.2-1.6-6.8-4.8h-7.7c0.6,6.4,5.8,10.5,14.4,10.5c8.1,0,13.9-4.2,13.9-10.5c0-4.8-2.7-7.5-9.5-9l-5.5-1.2
	c-3.5-0.8-4.8-2.1-4.8-4c0-2.4,2.3-4.1,5.7-4.1c3.6,0,5.8,1.9,6.1,4.9h7.2c-0.2-6.3-5.3-10.6-13.4-10.6
	C160.7,81.6,155.4,85.7,155.4,91.7L155.4,91.7z M211.9,115.9c4.8,0,8.7-2.5,10.5-6.2h0.1v5.7h7.6V70.3h-7.8v17.5h-0.2
	c-1.8-3.7-5.5-6.1-10.2-6.1c-8.3,0-13.8,6.6-13.8,17.1C198.1,109.3,203.5,115.9,211.9,115.9L211.9,115.9z M214.2,88.1
	c4.9,0,8.1,4.2,8.1,10.7c0,6.6-3.2,10.7-8.1,10.7c-5,0-8.1-4.1-8.1-10.7C206.1,92.2,209.2,88.1,214.2,88.1L214.2,88.1z M250.3,87.6
	c4.5,0,7.5,3.3,7.6,8h-15.5C242.8,90.9,245.9,87.6,250.3,87.6L250.3,87.6z M258,105.5c-0.8,2.8-3.6,4.6-7.2,4.6
	c-5.1,0-8.3-3.6-8.3-8.9v-0.5h23.2v-2.5c0-10.1-5.9-16.6-15.3-16.6c-9.6,0-15.6,6.9-15.6,17.4c0,10.6,6,17.1,15.9,17.1
	c7.8,0,13.7-4.3,14.7-10.6H258L258,105.5z M272.1,74.5v7.8h-4.8v6h4.8v18.3c0,6.4,2.8,9,10,9c1.4,0,2.7-0.1,4-0.3v-5.9
	c-0.7,0.1-1.5,0.2-2.2,0.2c-2.8,0-4-1.2-4-4V88.2h6.2v-6h-6.2v-7.8L272.1,74.5L272.1,74.5z M302.5,110c-3.4,0-5.6-1.7-5.6-4.4
	c0-2.6,2.2-4.3,5.9-4.6l7.7-0.5v2.5C310.5,107.1,306.9,110,302.5,110L302.5,110z M300.2,115.9c4.2,0,8.4-2.2,10.3-5.8h0.2v5.3h7.5
	V92.6c0-6.7-5.3-11-13.6-11c-8.4,0-13.7,4.4-14.1,10.6h7.2c0.5-2.8,2.8-4.5,6.5-4.5c3.8,0,6.2,2,6.2,5.5v2.4l-8.8,0.5
	c-8.1,0.5-12.6,4-12.6,9.9C289.1,111.9,293.8,115.9,300.2,115.9L300.2,115.9z M324,115.4h7.8V70.3H324V115.4z M338.1,115.4h7.8V70.3
	h-7.8V115.4z M366.2,87.6c4.5,0,7.5,3.3,7.6,8h-15.5C358.7,90.9,361.8,87.6,366.2,87.6L366.2,87.6z M373.9,105.5
	c-0.8,2.8-3.6,4.6-7.2,4.6c-5.1,0-8.3-3.6-8.3-8.9v-0.5h23.2v-2.5c0-10.1-5.9-16.6-15.3-16.6c-9.6,0-15.6,6.9-15.6,17.4
	c0,10.6,6,17.1,15.9,17.1c7.8,0,13.7-4.3,14.7-10.6H373.9L373.9,105.5z M385.3,91.7c0,4.9,3.2,8,9.5,9.4l5.5,1.2
	c3.5,0.8,4.7,1.9,4.7,3.9c0,2.5-2.3,4-6.1,4c-3.9,0-6.2-1.6-6.8-4.8h-7.7c0.6,6.4,5.8,10.5,14.4,10.5c8.1,0,13.9-4.2,13.9-10.5
	c0-4.8-2.7-7.5-9.5-9l-5.5-1.2c-3.5-0.8-4.8-2.1-4.8-4c0-2.4,2.3-4.1,5.7-4.1c3.6,0,5.8,1.9,6.1,4.9h7.2
	c-0.2-6.3-5.3-10.6-13.4-10.6C390.6,81.6,385.3,85.7,385.3,91.7L385.3,91.7z M422.6,115.7c2.5,0,4.5-2,4.5-4.5s-2-4.5-4.5-4.5
	s-4.5,2-4.5,4.5c0,2.4,1.9,4.5,4.4,4.5C422.5,115.7,422.5,115.7,422.6,115.7L422.6,115.7z"/>
</svg>
