<?xml version="1.0" encoding="utf-8"?>
<!-- Generator: Adobe Illustrator 21.1.0, SVG Export Plug-In . SVG Version: 6.00 Build 0)  -->
<svg version="1.1" id="Layer_1" xmlns="http://www.w3.org/2000/svg" xmlns:xlink="http://www.w3.org/1999/xlink" x="0px" y="0px"
	 viewBox="0 0 236 76" style="enable-background:new 0 0 236 76;" xml:space="preserve">
<style type="text/css">
	.st0{fill:#FFFFFF;}
</style>
<path id="_50_S2_Title_1_medium_1x.svg" class="st0" d="M14.8,0.9C6.6,0.9,1.4,6.6,1.4,15.5s5.2,14.6,13.4,14.6
	c8.2,0,13.4-5.6,13.4-14.6S23,0.9,14.8,0.9z M14.8,5.2c5,0,8.2,4,8.2,10.3c0,6.3-3.2,10.3-8.2,10.3c-5,0-8.2-4-8.2-10.3
	C6.6,9.2,9.7,5.2,14.8,5.2z M43.2,29.9c5.2,0,8.5-4.1,8.5-10.7S48.5,8.6,43.2,8.6c-2.7-0.1-5.3,1.4-6.5,3.9h-0.1v-11h-4.9v28.2h4.8
	v-3.5h0.1C37.9,28.5,40.2,29.9,43.2,29.9z M41.7,12.6c3.1,0,5.1,2.6,5.1,6.7c0,4.1-1.9,6.7-5.1,6.7c-3,0-5.1-2.6-5.1-6.7
	C36.6,15.2,38.7,12.6,41.7,12.6z M54.5,14.8c0,3.1,2,5,6,5.9l3.4,0.8c2.2,0.5,2.9,1.2,2.9,2.4c0,1.5-1.5,2.5-3.8,2.5
	c-2.5,0-3.9-1-4.2-3H54c0.4,4,3.6,6.6,9,6.6c5.1,0,8.7-2.6,8.7-6.5c0-3-1.7-4.7-6-5.6l-3.4-0.8c-2.2-0.5-3-1.3-3-2.5
	c0-1.5,1.4-2.5,3.6-2.5c2.2,0,3.6,1.2,3.8,3.1h4.5c-0.1-3.9-3.3-6.6-8.4-6.6C57.8,8.5,54.5,11.1,54.5,14.8L54.5,14.8z M83.7,12.2
	c2.8,0,4.7,2.1,4.8,5h-9.7C79,14.3,81,12.2,83.7,12.2L83.7,12.2z M88.5,23.4c-0.5,1.7-2.2,2.9-4.5,2.9c-3.2,0-5.2-2.2-5.2-5.6v-0.3
	h14.5v-1.6c0-6.3-3.7-10.4-9.5-10.4c-6,0-9.8,4.3-9.8,10.9c0,6.6,3.8,10.7,10,10.7c4.9,0,8.5-2.7,9.2-6.6H88.5L88.5,23.4z M96,14.8
	c0,3.1,2,5,6,5.9l3.4,0.8c2.2,0.5,2.9,1.2,2.9,2.4c0,1.5-1.5,2.5-3.8,2.5c-2.5,0-3.9-1-4.2-3h-4.8c0.4,4,3.6,6.6,9,6.6
	c5.1,0,8.7-2.6,8.7-6.5c0-3-1.7-4.7-6-5.6l-3.4-0.8c-2.2-0.5-3-1.3-3-2.5c0-1.5,1.4-2.5,3.6-2.5c2.2,0,3.6,1.2,3.8,3.1h4.5
	c-0.1-3.9-3.3-6.6-8.4-6.6C99.3,8.5,96,11.1,96,14.8L96,14.8z M116.4,29.6h4.9V8.9h-4.9L116.4,29.6L116.4,29.6z M118.8,5.8
	c1.5,0,2.6-1.2,2.6-2.7c0-1.5-1.2-2.6-2.7-2.6c-1.5,0-2.6,1.2-2.6,2.6C116.1,4.6,117.3,5.8,118.8,5.8C118.8,5.8,118.8,5.8,118.8,5.8
	L118.8,5.8z M134.5,30c6.1,0,10-4,10-10.8c0-6.7-4-10.8-10-10.8s-10,4.1-10,10.8C124.5,26,128.4,30,134.5,30L134.5,30z M134.5,26.2
	c-3.1,0-5.1-2.5-5.1-6.9c0-4.4,2-6.9,5.1-6.9c3.1,0,5.1,2.5,5.1,6.9C139.6,23.7,137.6,26.2,134.5,26.2L134.5,26.2z M136.2,6l4.6-6
	h-4.6l-3.4,6H136.2L136.2,6z M147.6,29.6h4.9v-12c0-3,1.8-5,4.6-5c2.8,0,4.1,1.6,4.1,4.6v12.4h4.9V16.2c0-4.8-2.6-7.7-7.2-7.7
	c-3.2,0-5.4,1.5-6.5,3.9h-0.1V8.9h-4.7L147.6,29.6L147.6,29.6z M189.3,8.6c-2.8-0.1-5.3,1.4-6.5,3.9h-0.1V8.9H178v27.5h4.9V26.2h0.1
	c1.1,2.3,3.5,3.8,6.5,3.8c5.2,0,8.5-4.1,8.5-10.7C197.9,12.6,194.6,8.6,189.3,8.6L189.3,8.6z M187.8,26c-3,0-5-2.6-5.1-6.7
	c0-4,2-6.7,5.1-6.7c3.1,0,5.1,2.6,5.1,6.7C192.9,23.4,191,25.9,187.8,26L187.8,26z M210.2,30c6.1,0,10-4,10-10.8
	c0-6.7-4-10.8-10-10.8s-10,4.1-10,10.8C200.2,26,204.1,30,210.2,30L210.2,30z M210.2,26.2c-3.1,0-5.1-2.5-5.1-6.9
	c0-4.4,2-6.9,5.1-6.9c3.1,0,5.1,2.5,5.1,6.9C215.3,23.7,213.3,26.2,210.2,26.2L210.2,26.2z M223.4,29.6h4.9V17.6
	c0-2.9,1.7-4.7,4.4-4.7c0.7,0,1.3,0.1,2,0.3V8.7c-0.5-0.1-1-0.2-1.5-0.2c-2.4,0-4.3,1.4-5,4H228V8.9h-4.7L223.4,29.6L223.4,29.6z
	 M2,73.6h4.9V45.4H2V73.6z M20.2,74c6.1,0,10-4,10-10.8c0-6.7-4-10.8-10-10.8s-10,4.1-10,10.8C10.2,70,14.1,74,20.2,74L20.2,74z
	 M20.2,70.2c-3.1,0-5.1-2.5-5.1-6.9c0-4.4,2-6.9,5.1-6.9c3.1,0,5.1,2.5,5.1,6.9C25.2,67.7,23.3,70.2,20.2,70.2L20.2,70.2z
	 M32.9,58.8c0,3.1,2,5,6,5.9l3.4,0.8c2.2,0.5,2.9,1.2,2.9,2.4c0,1.5-1.5,2.5-3.8,2.5c-2.5,0-3.9-1-4.2-3h-4.8c0.4,4,3.6,6.6,9,6.6
	c5.1,0,8.7-2.6,8.7-6.5c0-3-1.7-4.7-6-5.6l-3.4-0.8c-2.2-0.5-3-1.3-3-2.5c0-1.5,1.4-2.5,3.6-2.5c2.2,0,3.6,1.2,3.8,3.1h4.5
	c-0.1-3.9-3.3-6.6-8.4-6.6C36.2,52.5,32.9,55.1,32.9,58.8L32.9,58.8z M68.9,73.9c3,0,5.4-1.5,6.5-3.9h0.1v3.5h4.8V45.4h-4.9v11h-0.1
	c-1.2-2.4-3.7-3.9-6.4-3.8c-5.2,0-8.6,4.1-8.6,10.7C60.3,69.8,63.7,73.9,68.9,73.9L68.9,73.9z M70.4,56.6c3.1,0,5.1,2.6,5.1,6.7
	c0,4.1-2,6.7-5.1,6.7c-3.1,0-5.1-2.6-5.1-6.7C65.3,59.2,67.3,56.6,70.4,56.6L70.4,56.6z M93.3,56.2c2.8,0,4.7,2.1,4.8,5h-9.7
	C88.6,58.3,90.6,56.2,93.3,56.2L93.3,56.2z M98.1,67.4c-0.5,1.7-2.2,2.9-4.5,2.9c-3.2,0-5.2-2.2-5.2-5.6v-0.3h14.5v-1.6
	c0-6.3-3.7-10.4-9.5-10.4c-6,0-9.8,4.3-9.8,10.9c0,6.6,3.8,10.7,10,10.7c4.9,0,8.5-2.7,9.2-6.6H98.1L98.1,67.4z M107.3,48.1v4.8h-3
	v3.8h3v11.4c0,4,1.8,5.6,6.2,5.6c0.8,0,1.7,0,2.5-0.2v-3.7c-0.5,0.1-0.9,0.1-1.4,0.1c-1.7,0-2.5-0.8-2.5-2.5V56.7h3.9v-3.8h-3.9
	v-4.8H107.3z M126.7,70.3c-2.1,0-3.5-1.1-3.5-2.8c0-1.6,1.4-2.7,3.7-2.8l4.8-0.3v1.6C131.7,68.4,129.4,70.3,126.7,70.3L126.7,70.3z
	 M125.2,73.9c2.7,0,5.3-1.4,6.4-3.6h0.1v3.3h4.7V59.3c0-4.2-3.3-6.9-8.5-6.9c-5.3,0-8.6,2.8-8.8,6.6h4.5c0.3-1.7,1.8-2.8,4.1-2.8
	c2.4,0,3.9,1.2,3.9,3.4v1.5l-5.5,0.3c-5,0.3-7.9,2.5-7.9,6.2C118.3,71.4,121.2,73.9,125.2,73.9L125.2,73.9z M140.5,73.6h4.9V45.4
	h-4.9V73.6z M149.6,73.6h4.9V45.4h-4.9V73.6z M167.6,56.2c2.8,0,4.7,2.1,4.8,5h-9.7C162.9,58.3,164.8,56.2,167.6,56.2L167.6,56.2z
	 M172.4,67.4c-0.5,1.7-2.2,2.9-4.5,2.9c-3.2,0-5.2-2.2-5.2-5.6v-0.3h14.5v-1.6c0-6.3-3.7-10.4-9.5-10.4c-6,0-9.8,4.3-9.8,10.9
	c0,6.6,3.8,10.7,10,10.7c4.9,0,8.5-2.7,9.2-6.6H172.4L172.4,67.4z M179.9,58.8c0,3.1,2,5,6,5.9l3.4,0.8c2.2,0.5,2.9,1.2,2.9,2.4
	c0,1.5-1.5,2.5-3.8,2.5c-2.5,0-3.8-1-4.2-3h-4.8c0.4,4,3.6,6.6,9,6.6c5.1,0,8.7-2.6,8.7-6.5c0-3-1.7-4.7-6-5.6l-3.4-0.8
	c-2.2-0.5-3-1.3-3-2.5c0-1.5,1.4-2.5,3.6-2.5c2.2,0,3.6,1.2,3.8,3.1h4.5c-0.1-3.9-3.3-6.6-8.4-6.6C183.2,52.5,179.9,55.1,179.9,58.8
	L179.9,58.8z M203.5,73.8c1.6,0,2.8-1.3,2.8-2.8c0-1.6-1.3-2.8-2.8-2.8c-1.6,0-2.8,1.3-2.8,2.8C200.7,72.5,201.9,73.8,203.5,73.8
	C203.5,73.8,203.5,73.8,203.5,73.8L203.5,73.8z"/>
</svg>
