<?xml version="1.0" encoding="utf-8"?>
<!-- Generator: Adobe Illustrator 21.1.0, SVG Export Plug-In . SVG Version: 6.00 Build 0)  -->
<svg version="1.1" id="Layer_1" xmlns="http://www.w3.org/2000/svg" xmlns:xlink="http://www.w3.org/1999/xlink" x="0px" y="0px"
	 viewBox="0 0 232 20" style="enable-background:new 0 0 232 20;" xml:space="preserve">
<style type="text/css">
	.st0{fill:#888888;}
</style>
<path id="_50_S3_Sub_1_small_1x.svg" class="st0" d="M0.3,11.4c0.1,2.7,2.4,4.4,5.8,4.4c3.6,0,5.8-1.8,5.8-4.6
	c0-2.2-1.3-3.4-4.4-4.1L5.9,6.8c-1.8-0.4-2.6-1-2.6-2c0-1.2,1.2-2,2.8-2c1.7,0,2.9,0.8,3,2.2h2.5c-0.1-2.6-2.2-4.4-5.5-4.4
	c-3.2,0-5.5,1.8-5.5,4.4C0.7,7,2,8.4,5,9l1.6,0.3c1.9,0.4,2.7,1.1,2.7,2.1c0,1.2-1.2,2.1-3,2.1c-1.8,0-3.2-0.8-3.4-2.2L0.3,11.4
	L0.3,11.4z M13.9,15.5h2.6V4.7h-2.6L13.9,15.5L13.9,15.5z M15.2,3c0.8,0,1.4-0.6,1.4-1.4s-0.6-1.4-1.4-1.4c-0.8,0-1.4,0.6-1.4,1.4
	C13.8,2.4,14.4,3,15.2,3C15.2,3,15.2,3,15.2,3z M18.7,7.8c0,1.6,1,2.6,3.1,3.1l1.8,0.4c1.1,0.3,1.5,0.6,1.5,1.3c0,0.8-0.8,1.3-2,1.3
	c-1.3,0-2-0.5-2.2-1.6h-2.5c0.2,2.1,1.9,3.5,4.7,3.5c2.7,0,4.6-1.4,4.6-3.4c0-1.6-0.9-2.4-3.1-3L22.7,9c-1.1-0.3-1.6-0.7-1.6-1.3
	c0-0.8,0.8-1.3,1.9-1.3c1.2,0,1.9,0.6,2,1.6h2.4c-0.1-2.1-1.7-3.5-4.4-3.5C20.4,4.4,18.7,5.8,18.7,7.8z M30.2,2.1v2.5h-1.6v2h1.6v6
	c0,2.1,0.9,2.9,3.3,2.9c0.4,0,0.9,0,1.3-0.1v-1.9c-0.2,0-0.5,0.1-0.7,0.1c-0.9,0-1.3-0.4-1.3-1.3V6.6h2v-2h-2V2.1H30.2z M41.3,6.4
	c1.5,0,2.5,1.1,2.5,2.6h-5.1C38.8,7.5,39.9,6.4,41.3,6.4L41.3,6.4z M43.8,12.3c-0.3,0.9-1.2,1.5-2.4,1.5c-1.7,0-2.7-1.2-2.7-2.9
	v-0.2h7.6V9.9c0-3.3-1.9-5.4-5-5.4c-3.1,0-5.1,2.3-5.1,5.7c0,3.5,2,5.6,5.2,5.6c2.6,0,4.5-1.4,4.8-3.5H43.8L43.8,12.3z M48.2,15.5
	h2.6V8.9c-0.1-1.2,0.8-2.2,1.9-2.3c0.1,0,0.1,0,0.2,0c1-0.1,1.9,0.7,1.9,1.7c0,0.1,0,0.2,0,0.3v7h2.5V8.8c-0.1-1.1,0.7-2.1,1.9-2.2
	c0.1,0,0.1,0,0.2,0c1.2,0,2,0.8,2,2.1v6.8h2.6V8.1c0-2.2-1.4-3.6-3.5-3.6c-1.5-0.1-2.8,0.8-3.4,2.2h-0.1c-0.4-1.4-1.6-2.3-3-2.2
	c-1.4,0-2.6,0.8-3.1,2.1h0V4.7h-2.5L48.2,15.5L48.2,15.5z M70,13.8c-1.1,0-1.8-0.6-1.8-1.5c0-0.9,0.7-1.4,1.9-1.5l2.5-0.2v0.8
	C72.6,12.8,71.5,13.8,70,13.8L70,13.8z M69.3,15.7c1.4,0,2.7-0.7,3.4-1.9h0v1.7h2.5V8.1c0-2.2-1.8-3.6-4.5-3.6
	c-2.8,0-4.5,1.5-4.6,3.5h2.4c0.2-0.9,0.9-1.5,2.1-1.5c1.3,0,2,0.7,2,1.8V9l-2.9,0.2c-2.6,0.2-4.1,1.3-4.1,3.2
	C65.6,14.4,67.2,15.7,69.3,15.7L69.3,15.7z M85.9,15.7c1.4,0.1,2.8-0.7,3.4-2h0v1.9h2.5V0.7h-2.6v5.8h-0.1c-0.6-1.3-1.9-2.1-3.4-2
	c-2.7,0-4.5,2.2-4.5,5.6C81.4,13.6,83.2,15.7,85.9,15.7z M86.7,6.6c1.6,0,2.7,1.4,2.7,3.5c0,2.2-1.1,3.5-2.7,3.5
	c-1.6,0-2.7-1.4-2.7-3.5C84,8,85.1,6.6,86.7,6.6L86.7,6.6z M99,6.4c1.5,0,2.5,1.1,2.5,2.6h-5.1C96.5,7.5,97.5,6.4,99,6.4L99,6.4z
	 M101.5,12.3c-0.3,0.9-1.2,1.5-2.4,1.5c-1.7,0-2.7-1.2-2.7-2.9v-0.2h7.6V9.9c0-3.3-1.9-5.4-5-5.4c-3.1,0-5.1,2.3-5.1,5.7
	c0,3.5,2,5.6,5.2,5.6c2.6,0,4.5-1.4,4.8-3.5H101.5L101.5,12.3z M111,2.1v2.5h-1.6v2h1.6v6c0,2.1,0.9,2.9,3.3,2.9
	c0.4,0,0.9,0,1.3-0.1v-1.9c-0.2,0-0.5,0.1-0.7,0.1c-0.9,0-1.3-0.4-1.3-1.3V6.6h2v-2h-2V2.1H111z M117.6,15.5h2.6V9.2
	c0-1.5,0.9-2.5,2.3-2.5c0.4,0,0.7,0,1,0.1V4.6c-0.3-0.1-0.5-0.1-0.8-0.1c-1.3,0-2.4,0.9-2.6,2.1h0V4.7h-2.5L117.6,15.5L117.6,15.5z
	 M125.1,15.5h2.6V4.7h-2.6V15.5z M126.3,3c0.8,0,1.4-0.6,1.4-1.4c0-0.8-0.6-1.4-1.4-1.4c-0.8,0-1.4,0.6-1.4,1.4
	C124.9,2.4,125.6,3,126.3,3L126.3,3z M136,4.5c-1.4,0-2.8,0.8-3.4,2.1h0V4.7H130v14.4h2.6v-5.4h0c0.6,1.3,2,2,3.4,2
	c2.7,0,4.5-2.1,4.5-5.6C140.5,6.6,138.7,4.5,136,4.5L136,4.5z M135.2,13.6c-1.6,0-2.6-1.4-2.7-3.5c0-2.1,1.1-3.5,2.7-3.5
	c1.6,0,2.7,1.4,2.7,3.5C137.9,12.3,136.8,13.6,135.2,13.6z M142.4,15.5h2.6V0.7h-2.6V15.5z M152.1,6.4c1.5,0,2.5,1.1,2.5,2.6h-5.1
	C149.6,7.5,150.6,6.4,152.1,6.4L152.1,6.4z M154.6,12.3c-0.3,0.9-1.2,1.5-2.4,1.5c-1.7,0-2.7-1.2-2.7-2.9v-0.2h7.6V9.9
	c0-3.3-1.9-5.4-5-5.4c-3.1,0-5.1,2.3-5.1,5.7c0,3.5,2,5.6,5.2,5.6c2.6,0,4.5-1.4,4.8-3.5H154.6L154.6,12.3z M173,8.5
	c-0.2-2.3-2-4.1-4.8-4.1c-3.2,0-5.2,2.2-5.2,5.7c0,3.5,2,5.7,5.2,5.7c2.7,0,4.6-1.6,4.8-4h-2.4c-0.1,1.2-1.2,2-2.4,2
	c-1.6,0-2.7-1.3-2.7-3.6c0-2.2,1-3.6,2.6-3.6c1.2,0,2.2,0.8,2.4,2L173,8.5L173,8.5z M178.7,13.8c-1.1,0-1.8-0.6-1.8-1.5
	c0-0.9,0.7-1.4,1.9-1.5l2.5-0.2v0.8C181.3,12.8,180.1,13.8,178.7,13.8L178.7,13.8z M177.9,15.7c1.4,0,2.7-0.7,3.4-1.9h0v1.7h2.5V8.1
	c0-2.2-1.8-3.6-4.5-3.6c-2.8,0-4.5,1.5-4.6,3.5h2.4c0.2-0.9,0.9-1.5,2.1-1.5c1.3,0,2,0.7,2,1.8V9l-2.9,0.2c-2.6,0.2-4.1,1.3-4.1,3.2
	C174.3,14.4,175.8,15.7,177.9,15.7L177.9,15.7z M180.2,3.2l2.4-3.2h-2.4l-1.8,3.2H180.2z M186.1,15.5h2.6V8.9
	c-0.1-1.2,0.8-2.2,1.9-2.3c0.1,0,0.1,0,0.2,0c1-0.1,1.9,0.7,1.9,1.7c0,0.1,0,0.2,0,0.3v7h2.5V8.8c-0.1-1.1,0.7-2.1,1.9-2.2
	c0.1,0,0.1,0,0.2,0c1.2,0,2,0.8,2,2.1v6.8h2.6V8.1c0-2.2-1.4-3.6-3.5-3.6c-1.5-0.1-2.8,0.8-3.4,2.2h-0.1c-0.4-1.4-1.6-2.3-3-2.2
	c-1.4,0-2.6,0.8-3.1,2.1h0V4.7h-2.5L186.1,15.5L186.1,15.5z M208,13.8c-1.1,0-1.8-0.6-1.8-1.5c0-0.9,0.7-1.4,1.9-1.5l2.5-0.2v0.8
	C210.6,12.8,209.4,13.8,208,13.8L208,13.8z M207.2,15.7c1.4,0,2.7-0.7,3.4-1.9h0v1.7h2.5V8.1c0-2.2-1.8-3.6-4.5-3.6
	c-2.8,0-4.5,1.5-4.6,3.5h2.4c0.2-0.9,0.9-1.5,2.1-1.5c1.3,0,2,0.7,2,1.8V9l-2.9,0.2c-2.6,0.2-4.1,1.3-4.1,3.2
	C203.6,14.4,205.1,15.7,207.2,15.7L207.2,15.7z M215.4,15.5h2.6V9.2c0-1.5,0.9-2.5,2.3-2.5c0.4,0,0.7,0,1,0.1V4.6
	c-0.3-0.1-0.5-0.1-0.8-0.1c-1.3,0-2.4,0.9-2.6,2.1h0V4.7h-2.5L215.4,15.5L215.4,15.5z M226.5,13.8c-1.1,0-1.8-0.6-1.8-1.5
	c0-0.9,0.7-1.4,1.9-1.5l2.5-0.2v0.8C229.1,12.8,228,13.8,226.5,13.8L226.5,13.8z M225.8,15.7c1.4,0,2.7-0.7,3.4-1.9h0v1.7h2.5V8.1
	c0-2.2-1.8-3.6-4.5-3.6c-2.8,0-4.5,1.5-4.6,3.5h2.4c0.2-0.9,0.9-1.5,2.1-1.5c1.3,0,2,0.7,2,1.8V9l-2.9,0.2c-2.6,0.2-4.1,1.3-4.1,3.2
	C222.1,14.4,223.7,15.7,225.8,15.7L225.8,15.7z"/>
</svg>
