<?xml version="1.0" encoding="utf-8"?>
<!-- Generator: Adobe Illustrator 21.1.0, SVG Export Plug-In . SVG Version: 6.00 Build 0)  -->
<svg version="1.1" id="Layer_1" xmlns="http://www.w3.org/2000/svg" xmlns:xlink="http://www.w3.org/1999/xlink" x="0px" y="0px"
	 viewBox="0 0 116 24" style="enable-background:new 0 0 116 24;" xml:space="preserve">
<style type="text/css">
	.st0{fill:#888888;}
</style>
<path id="_50_S4_Sub_1_large_1x.svg" class="st0" d="M12,20.7L18.9,1h-3.8l-5,15.9H10L5,1H1.1L8,20.7H12L12,20.7z M20.7,20.7h3.4
	V6.2h-3.4V20.7z M23.6,4.2L26.8,0h-3.2l-2.4,4.2H23.6z M32.5,21c1.9,0.1,3.7-1,4.6-2.7h0.1v2.5h3.3V1h-3.4v7.7H37
	C36.2,7,34.4,5.9,32.5,6c-3.7,0-6,2.9-6,7.5C26.5,18.1,28.9,21,32.5,21z M33.6,8.8c2.1,0,3.6,1.8,3.6,4.7c0,2.9-1.4,4.7-3.6,4.7
	c-2.2,0-3.6-1.8-3.6-4.7C30,10.6,31.4,8.8,33.6,8.8z M49.8,8.6c2,0,3.3,1.4,3.3,3.5h-6.8C46.5,10,47.9,8.6,49.8,8.6z M53.1,16.4
	c-0.4,1.2-1.6,2-3.2,2c-2.2,0-3.7-1.6-3.7-3.9v-0.2h10.1v-1.1c0-4.4-2.6-7.3-6.7-7.3c-4.2,0-6.8,3-6.8,7.6c0,4.6,2.6,7.5,7,7.5
	c3.4,0,6-1.9,6.4-4.6H53.1z M65.3,21c4.2,0,7-2.8,7-7.5c0-4.7-2.8-7.6-7-7.6s-7,2.9-7,7.6C58.3,18.2,61,21,65.3,21L65.3,21z
	 M65.3,18.3c-2.2,0-3.6-1.8-3.6-4.8c0-3.1,1.4-4.8,3.6-4.8c2.2,0,3.6,1.8,3.6,4.8C68.8,16.6,67.4,18.3,65.3,18.3L65.3,18.3z
	 M89.9,20.7h3.4v-3.8H96V14h-2.7V1h-5c-4.3,6.2-6.5,9.7-8.2,12.9v3h9.8L89.9,20.7L89.9,20.7z M83.3,14c2-3.6,4.3-7.1,6.7-10.4H90
	v10.5L83.3,14L83.3,14L83.3,14z M102.2,20.7v-6.3l1.9-2.3l6.4,8.6h4.3l-8.2-11l7.6-8.8h-4.1l-7.9,9.2h-0.1V1h-3.5v19.7L102.2,20.7
	L102.2,20.7z"/>
</svg>
