<?xml version="1.0" encoding="utf-8"?>
<!-- Generator: Adobe Illustrator 21.1.0, SVG Export Plug-In . SVG Version: 6.00 Build 0)  -->
<svg version="1.1" id="Layer_1" xmlns="http://www.w3.org/2000/svg" xmlns:xlink="http://www.w3.org/1999/xlink" x="0px" y="0px"
	 viewBox="0 0 448 260" style="enable-background:new 0 0 448 260;" xml:space="preserve">
<style type="text/css">
	.st0{fill:#FFFFFF;}
</style>
<path id="_50_S4_Title_1_large_1x.svg" class="st0" d="M33,38.3H12.6V0H4.5v45.1H33V38.3z M49.6,39.7c-3.4,0-5.6-1.7-5.6-4.4
	c0-2.6,2.2-4.3,5.9-4.6l7.7-0.5v2.5C57.5,36.8,54,39.7,49.6,39.7L49.6,39.7z M47.2,45.6c4.2,0,8.4-2.2,10.3-5.8h0.2v5.3h7.5V22.3
	c0-6.7-5.3-11-13.6-11c-8.4,0-13.7,4.4-14.1,10.6h7.2c0.5-2.8,2.8-4.5,6.5-4.5c3.8,0,6.2,2,6.2,5.5v2.4l-8.8,0.5
	c-8.1,0.5-12.6,4-12.6,9.9C36.1,41.6,40.8,45.6,47.2,45.6L47.2,45.6z M83.1,45.1h7.8V24.8c0-4,2.6-6.9,6.4-6.9c3.6,0,5.9,2.3,5.9,6
	v21.2h7.6V24.6c0-4,2.6-6.7,6.3-6.7c3.8,0,5.9,2.3,5.9,6.4v20.8h7.8V22.4c0-6.6-4.3-11-10.8-11c-4.8,0-8.7,2.6-10.3,6.7h-0.2
	c-1.2-4.2-4.6-6.7-9.2-6.7c-4.5,0-8,2.5-9.4,6.4h-0.2V12h-7.5L83.1,45.1L83.1,45.1z M148.5,39.7c-3.4,0-5.6-1.7-5.6-4.4
	c0-2.6,2.2-4.3,5.9-4.6l7.7-0.5v2.5C156.4,36.8,152.9,39.7,148.5,39.7L148.5,39.7z M146.1,45.6c4.2,0,8.4-2.2,10.3-5.8h0.2v5.3h7.5
	V22.3c0-6.7-5.3-11-13.6-11c-8.4,0-13.7,4.4-14.1,10.6h7.2c0.5-2.8,2.8-4.5,6.5-4.5c3.8,0,6.2,2,6.2,5.5v2.4l-8.8,0.5
	c-8.1,0.5-12.6,4-12.6,9.9C135,41.6,139.7,45.6,146.1,45.6L146.1,45.6z M173.4,57.4c7.6,0,11.2-2.8,14-11l12-34.4h-8.2l-7.8,26.5
	h-0.2L175.5,12H167l11.8,33.2c0,0.1-0.5,1.8-0.5,1.8c-0.8,3.1-2.5,4.3-5.7,4.3c-0.8,0-1.5,0-2.2-0.1v6.2
	C170.7,57.4,172.9,57.4,173.4,57.4z M216.2,45.7c9.7,0,16-6.5,16-17.2c0-10.7-6.4-17.2-16-17.2s-16,6.6-16,17.2
	C200.2,39.3,206.5,45.7,216.2,45.7L216.2,45.7z M216.2,39.6c-4.9,0-8.1-4-8.1-11.1c0-7,3.2-11.1,8.1-11.1c4.9,0,8.1,4,8.1,11.1
	C224.4,35.6,221.2,39.6,216.2,39.6L216.2,39.6z M236.7,45.1h7.8V25.8c0-4.7,2.7-7.5,7.1-7.5c1.1,0,2.1,0.1,3.2,0.4v-7
	c-0.8-0.2-1.6-0.3-2.4-0.3c-3.9,0-6.8,2.3-7.9,6.3h-0.2V12h-7.5V45.1L236.7,45.1z M32.9,91.8c-0.5-7-5.9-12.5-14.7-12.5
	c-9.6,0-15.9,6.7-15.9,17.2c0,10.8,6.2,17.2,15.9,17.2c8.3,0,14-4.9,14.7-12.3h-7.3c-0.7,3.8-3.3,6-7.2,6c-4.9,0-8.1-4-8.1-10.9
	c0-6.8,3.2-10.9,8.1-10.9c4.2,0,6.6,2.7,7.2,6.2H32.9z M49.1,107.7c-3.4,0-5.6-1.7-5.6-4.4c0-2.6,2.2-4.3,5.9-4.6l7.7-0.5v2.5
	C57,104.8,53.5,107.7,49.1,107.7L49.1,107.7z M46.7,113.6c4.2,0,8.4-2.2,10.3-5.8h0.2v5.3h7.5V90.3c0-6.7-5.3-11-13.6-11
	c-8.4,0-13.7,4.4-14.1,10.6h7.2c0.5-2.8,2.8-4.5,6.5-4.5c3.8,0,6.2,2,6.2,5.5v2.4l-8.8,0.5c-8.1,0.5-12.6,4-12.6,9.9
	C35.7,109.6,40.3,113.6,46.7,113.6L46.7,113.6z M70.6,113.1h7.8V68h-7.8V113.1z M84.6,113.1h7.8V80h-7.8V113.1L84.6,113.1z M88.5,75
	c2.3,0,4.2-1.9,4.2-4.2c0-2.3-1.9-4.2-4.2-4.2c-2.3,0-4.2,1.9-4.2,4.2C84.2,73.1,86.1,75,88.5,75L88.5,75z M110.7,113.6
	c4.8,0,8.7-2.5,10.5-6.2h0.1v5.7h7.6V68h-7.8v17.5H121c-1.8-3.7-5.5-6.1-10.2-6.1C102.4,79.4,97,86,97,96.5
	C97,107,102.4,113.6,110.7,113.6L110.7,113.6z M113.1,85.8c4.9,0,8.1,4.2,8.1,10.7c0,6.6-3.2,10.7-8.1,10.7c-5,0-8.1-4.1-8.1-10.7
	C105,90,108.1,85.8,113.1,85.8z M147,107.7c-3.4,0-5.6-1.7-5.6-4.4c0-2.6,2.2-4.3,5.9-4.6l7.7-0.5v2.5
	C154.9,104.8,151.4,107.7,147,107.7L147,107.7z M144.7,113.6c4.2,0,8.4-2.2,10.3-5.8h0.2v5.3h7.5V90.3c0-6.7-5.3-11-13.6-11
	c-8.4,0-13.7,4.4-14.1,10.6h7.2c0.5-2.8,2.8-4.5,6.5-4.5c3.8,0,6.2,2,6.2,5.5v2.4l-8.8,0.5c-8.1,0.5-12.6,4-12.6,9.9
	C133.6,109.6,138.3,113.6,144.7,113.6L144.7,113.6z M180.7,113.6c4.8,0,8.7-2.5,10.5-6.2h0.1v5.7h7.6V68h-7.8v17.5h-0.2
	c-1.8-3.7-5.5-6.1-10.2-6.1c-8.3,0-13.8,6.6-13.8,17.1C166.9,107,172.3,113.6,180.7,113.6L180.7,113.6z M183,85.8
	c4.9,0,8.1,4.2,8.1,10.7c0,6.6-3.2,10.7-8.1,10.7c-5,0-8.1-4.1-8.1-10.7C174.9,90,178,85.8,183,85.8z M229.5,113.6
	c4.8,0,8.7-2.5,10.5-6.2h0.1v5.7h7.6V68h-7.8v17.5h-0.2c-1.8-3.7-5.5-6.1-10.2-6.1c-8.3,0-13.8,6.6-13.8,17.1
	C215.7,107,221.1,113.6,229.5,113.6L229.5,113.6z M231.8,85.8c4.9,0,8.1,4.2,8.1,10.7c0,6.6-3.2,10.7-8.1,10.7
	c-5,0-8.1-4.1-8.1-10.7C223.7,90,226.8,85.8,231.8,85.8z M267.9,85.3c4.5,0,7.5,3.3,7.6,8h-15.5C260.4,88.7,263.5,85.3,267.9,85.3z
	 M275.6,103.2c-0.8,2.8-3.6,4.6-7.2,4.6c-5.1,0-8.3-3.6-8.3-8.9v-0.5h23.2v-2.5c0-10.1-5.9-16.6-15.3-16.6
	c-9.6,0-15.6,6.9-15.6,17.4c0,10.6,6,17.1,15.9,17.1c7.8,0,13.7-4.3,14.7-10.6H275.6z M329,80h-8.1l-7.7,25.9H313L305.3,80H297
	l11.8,33.1h8.6L329,80z M332.2,113.1h7.8V80h-7.8V113.1L332.2,113.1z M338.8,75.4l7.3-9.7h-7.4l-5.4,9.7H338.8L338.8,75.4z
	 M358.3,113.6c4.8,0,8.7-2.5,10.5-6.2h0.1v5.7h7.6V68h-7.8v17.5h-0.2c-1.8-3.7-5.5-6.1-10.2-6.1c-8.3,0-13.8,6.6-13.8,17.1
	C344.5,107,349.9,113.6,358.3,113.6L358.3,113.6z M360.6,85.8c4.9,0,8.1,4.2,8.1,10.7c0,6.6-3.2,10.7-8.1,10.7
	c-5,0-8.1-4.1-8.1-10.7C352.5,90,355.6,85.8,360.6,85.8z M396.7,85.3c4.5,0,7.5,3.3,7.6,8h-15.5C389.2,88.7,392.3,85.3,396.7,85.3z
	 M404.4,103.2c-0.8,2.8-3.6,4.6-7.2,4.6c-5.1,0-8.3-3.6-8.3-8.9v-0.5H412v-2.5c0-10.1-5.9-16.6-15.3-16.6c-9.6,0-15.6,6.9-15.6,17.4
	c0,10.6,6,17.1,15.9,17.1c7.8,0,13.7-4.3,14.7-10.6H404.4L404.4,103.2z M431.1,113.7c9.7,0,16-6.5,16-17.2c0-10.7-6.4-17.2-16-17.2
	s-16,6.6-16,17.2C415,107.3,421.3,113.7,431.1,113.7L431.1,113.7z M431.1,107.6c-4.9,0-8.1-4-8.1-11.1c0-7,3.2-11.1,8.1-11.1
	c4.9,0,8.1,4,8.1,11.1C439.2,103.6,436,107.6,431.1,107.6L431.1,107.6z M32.9,148h-8.1l-7.7,25.9h-0.2L9.2,148H0.9l11.8,33.1h8.6
	L32.9,148z M36.1,181.1h7.8V148h-7.8V181.1L36.1,181.1z M39.9,143c2.3,0,4.2-1.9,4.2-4.2c0-2.3-1.9-4.2-4.2-4.2
	c-2.3,0-4.2,1.9-4.2,4.2C35.7,141.1,37.6,143,39.9,143C39.9,143,39.9,143,39.9,143L39.9,143z M49.2,157.5c0,4.9,3.2,8,9.5,9.4
	l5.5,1.2c3.5,0.8,4.7,1.9,4.7,3.9c0,2.5-2.3,4-6.1,4c-3.9,0-6.2-1.6-6.8-4.8h-7.7c0.6,6.4,5.8,10.5,14.4,10.5
	c8.1,0,13.9-4.2,13.9-10.5c0-4.8-2.7-7.5-9.5-9l-5.5-1.2c-3.5-0.8-4.8-2.1-4.8-4c0-2.4,2.3-4.1,5.7-4.1c3.6,0,5.8,1.9,6.1,4.9h7.2
	c-0.2-6.3-5.3-10.6-13.4-10.6C54.5,147.3,49.2,151.4,49.2,157.5L49.2,157.5z M83.2,140.2v7.8h-4.8v6h4.8v18.3c0,6.4,2.8,9,10,9
	c1.4,0,2.7-0.1,4-0.3V175c-0.7,0.1-1.5,0.2-2.2,0.2c-2.8,0-4-1.2-4-4V154h6.2v-6H91v-7.8L83.2,140.2L83.2,140.2z M113.6,175.7
	c-3.4,0-5.6-1.7-5.6-4.4c0-2.6,2.2-4.3,5.9-4.6l7.7-0.5v2.5C121.5,172.8,118,175.7,113.6,175.7L113.6,175.7z M111.2,181.6
	c4.2,0,8.4-2.2,10.3-5.8h0.2v5.3h7.5v-22.8c0-6.7-5.3-11-13.6-11c-8.4,0-13.7,4.4-14.1,10.6h7.2c0.5-2.8,2.8-4.5,6.5-4.5
	c3.8,0,6.2,2,6.2,5.5v2.4l-8.8,0.5c-8.1,0.5-12.6,4-12.6,9.9C100.2,177.6,104.8,181.6,111.2,181.6L111.2,181.6z M161.4,153.3
	c4.5,0,7.5,3.3,7.6,8h-15.5C153.9,156.7,157,153.3,161.4,153.3L161.4,153.3z M169.1,171.2c-0.8,2.8-3.6,4.6-7.2,4.6
	c-5.1,0-8.3-3.6-8.3-8.9v-0.5h23.2v-2.5c0-10.1-5.9-16.6-15.3-16.6c-9.6,0-15.6,6.9-15.6,17.4c0,10.6,6,17.1,15.9,17.1
	c7.8,0,13.7-4.3,14.7-10.6H169.1L169.1,171.2z M181.1,181.1h7.8v-19.2c0-4.8,2.8-8,7.3-8c4.4,0,6.6,2.6,6.6,7.3v19.8h7.8v-21.4
	c0-7.7-4.2-12.3-11.5-12.3c-5.1,0-8.6,2.4-10.4,6.3h-0.2V148h-7.5V181.1L181.1,181.1z M257.8,148H250v19.2c0,4.8-2.8,8-7.3,8
	c-4.4,0-6.7-2.6-6.7-7.3V148h-7.8v21.4c0,7.7,4.6,12.3,11.8,12.3c5,0,8.4-2.3,10.1-6.3h0.2v5.8h7.5L257.8,148L257.8,148z
	 M263.6,181.1h7.8v-19.2c0-4.8,2.8-8,7.3-8c4.4,0,6.6,2.6,6.6,7.3v19.8h7.8v-21.4c0-7.7-4.2-12.3-11.5-12.3c-5.1,0-8.6,2.4-10.4,6.3
	h-0.2V148h-7.5V181.1L263.6,181.1z M3.1,225.5c0,4.9,3.2,8,9.5,9.4l5.5,1.2c3.5,0.8,4.7,1.9,4.7,3.9c0,2.5-2.3,4-6.1,4
	c-3.9,0-6.2-1.6-6.8-4.8H2.3c0.6,6.4,5.8,10.5,14.4,10.5c8.1,0,13.9-4.2,13.9-10.5c0-4.8-2.7-7.5-9.5-9l-5.5-1.2
	c-3.5-0.8-4.8-2.1-4.8-4c0-2.4,2.3-4.1,5.7-4.1c3.6,0,5.8,1.9,6.1,4.9h7.2c-0.2-6.3-5.3-10.6-13.4-10.6
	C8.4,215.3,3.1,219.4,3.1,225.5L3.1,225.5z M35,249.1h7.8v-20.3c0-4,2.6-6.9,6.4-6.9c3.6,0,5.9,2.3,5.9,6v21.2h7.6v-20.5
	c0-4,2.6-6.7,6.3-6.7c3.8,0,5.9,2.3,5.9,6.4v20.8h7.8v-22.7c0-6.6-4.3-11-10.8-11c-4.8,0-8.7,2.6-10.3,6.7h-0.2
	c-1.2-4.2-4.6-6.7-9.2-6.7c-4.5,0-8,2.5-9.4,6.4h-0.2V216H35L35,249.1L35,249.1z M100.3,243.7c-3.4,0-5.6-1.7-5.6-4.4
	c0-2.6,2.2-4.3,5.9-4.6l7.7-0.5v2.5C108.3,240.8,104.7,243.7,100.3,243.7L100.3,243.7z M98,249.6c4.2,0,8.4-2.2,10.3-5.8h0.2v5.3
	h7.5v-22.8c0-6.7-5.3-11-13.6-11c-8.4,0-13.7,4.4-14.1,10.6h7.2c0.5-2.8,2.8-4.5,6.5-4.5c3.8,0,6.2,2,6.2,5.5v2.4l-8.8,0.5
	c-8.1,0.5-12.6,4-12.6,9.9C86.9,245.6,91.6,249.6,98,249.6L98,249.6z M121.6,249.1h7.8v-19.3c0-4.7,2.7-7.5,7.1-7.5
	c1.1,0,2.1,0.1,3.2,0.4v-7c-0.8-0.2-1.6-0.3-2.4-0.3c-3.9,0-6.8,2.3-7.9,6.3h-0.2V216h-7.5L121.6,249.1L121.6,249.1z M145.2,208.2
	v7.8h-4.8v6h4.8v18.3c0,6.4,2.8,9,10,9c1.4,0,2.7-0.1,4-0.3V243c-0.7,0.1-1.5,0.2-2.2,0.2c-2.8,0-4-1.2-4-4V222h6.2v-6H153v-7.8
	L145.2,208.2L145.2,208.2z M182.1,215.4c-4.8,0-8.6,2.4-10.4,6.3h-0.2V216h-7.6v44h7.8v-16.4h0.2c1.8,3.7,5.6,6,10.4,6
	c8.3,0,13.6-6.5,13.6-17.1C195.9,221.9,190.5,215.4,182.1,215.4L182.1,215.4z M179.8,243.2c-4.8,0-8.1-4.2-8.1-10.7
	c0-6.4,3.2-10.7,8.1-10.7c5,0,8.2,4.2,8.2,10.7C187.9,239.1,184.8,243.2,179.8,243.2L179.8,243.2z M200.5,249.1h7.8v-19
	c0-4.9,2.8-8.1,7.5-8.1c4.5,0,6.8,2.8,6.8,7.4v19.8h7.8v-21.3c0-7.6-4.3-12.4-11.6-12.4c-5,0-8.7,2.3-10.5,6.3h-0.2V204h-7.7V249.1z
	 M250.7,249.7c9.7,0,16-6.5,16-17.2c0-10.7-6.4-17.2-16-17.2c-9.7,0-16,6.6-16,17.2C234.7,243.3,241,249.7,250.7,249.7L250.7,249.7z
	 M250.7,243.6c-4.9,0-8.1-4-8.1-11.1c0-7,3.2-11.1,8.1-11.1c4.9,0,8.1,4,8.1,11.1C258.8,239.6,255.7,243.6,250.7,243.6L250.7,243.6z
	 M271.2,249.1h7.8v-19.2c0-4.8,2.8-8,7.3-8c4.4,0,6.6,2.6,6.6,7.3v19.8h7.8v-21.4c0-7.7-4.2-12.3-11.5-12.3c-5.1,0-8.6,2.4-10.4,6.3
	h-0.2V216h-7.5V249.1L271.2,249.1z M320.6,221.3c4.5,0,7.5,3.3,7.6,8h-15.5C313.1,224.7,316.2,221.3,320.6,221.3L320.6,221.3z
	 M328.3,239.2c-0.8,2.8-3.6,4.6-7.2,4.6c-5.1,0-8.3-3.6-8.3-8.9v-0.5h23.2v-2.5c0-10.1-5.9-16.6-15.3-16.6
	c-9.6,0-15.6,6.9-15.6,17.4c0,10.6,6,17.1,15.9,17.1c7.8,0,13.7-4.3,14.7-10.6H328.3L328.3,239.2z M345.7,249.4c2.5,0,4.5-2,4.5-4.5
	s-2-4.5-4.5-4.5s-4.5,2-4.5,4.5l0,0c0,2.5,1.9,4.5,4.4,4.5C345.6,249.4,345.7,249.4,345.7,249.4L345.7,249.4z"/>
</svg>
