<?xml version="1.0" encoding="utf-8"?>
<!-- Generator: Adobe Illustrator 21.1.0, SVG Export Plug-In . SVG Version: 6.00 Build 0)  -->
<svg version="1.1" id="Layer_1" xmlns="http://www.w3.org/2000/svg" xmlns:xlink="http://www.w3.org/1999/xlink" x="0px" y="0px"
	 viewBox="0 0 264 104" style="enable-background:new 0 0 264 104;" xml:space="preserve">
<style type="text/css">
	.st0{fill:#FFFFFF;}
</style>
<path id="_50_S4_Title_1_small_1x.svg" class="st0" d="M16.1,19.9H5.9V0.7h-4v22.5h14.3V19.9z M24.8,20.6c-1.7,0-2.8-0.9-2.8-2.2
	c0-1.3,1.1-2.2,3-2.3l3.8-0.2v1.3C28.7,19.1,27,20.6,24.8,20.6z M23.6,23.6c2.1,0,4.1-1.1,5.2-2.9h0.1v2.6h3.8V11.9
	c0-3.3-2.7-5.5-6.8-5.5c-4.2,0-6.9,2.2-7,5.3h3.6c0.2-1.4,1.4-2.3,3.3-2.3c1.9,0,3.1,1,3.1,2.7v1.2l-4.4,0.2c-4,0.2-6.3,2-6.3,5
	C18.1,21.5,20.4,23.5,23.6,23.6L23.6,23.6z M42.4,23.3h3.9V13.1c0-2,1.3-3.5,3.2-3.5c1.8,0,2.9,1.1,2.9,3v10.6h3.8V13.1
	c0-2,1.3-3.4,3.2-3.4c1.9,0,3,1.2,3,3.2v10.4h3.9V11.9c0-3.3-2.1-5.5-5.4-5.5c-2.2-0.1-4.3,1.2-5.2,3.3h-0.1
	c-0.6-2.1-2.3-3.3-4.6-3.3c-2.1-0.1-4,1.2-4.7,3.2h-0.1V6.7h-3.7V23.3z M75.5,20.6c-1.7,0-2.8-0.9-2.8-2.2c0-1.3,1.1-2.2,3-2.3
	l3.8-0.2v1.3C79.4,19.1,77.7,20.6,75.5,20.6L75.5,20.6z M74.3,23.6c2.1,0,4.1-1.1,5.2-2.9h0.1v2.6h3.8V11.9c0-3.3-2.7-5.5-6.8-5.5
	c-4.2,0-6.9,2.2-7,5.3h3.6c0.2-1.4,1.4-2.3,3.3-2.3c1.9,0,3.1,1,3.1,2.7v1.2l-4.4,0.2c-4,0.2-6.3,2-6.3,5
	C68.8,21.5,71.1,23.5,74.3,23.6L74.3,23.6z M88.3,29.4c3.8,0,5.6-1.4,7-5.5l6-17.2h-4.1L93.4,20h-0.1L89.4,6.7h-4.2L91,23.3
	c0,0-0.2,0.9-0.2,0.9c-0.4,1.5-1.2,2.1-2.9,2.1c-0.4,0-0.8,0-1.1-0.1v3.1C87,29.4,88.1,29.4,88.3,29.4L88.3,29.4z M110.2,23.6
	c4.9,0,8-3.2,8-8.6c0-5.4-3.2-8.6-8-8.6s-8,3.3-8,8.6C102.2,20.4,105.3,23.6,110.2,23.6L110.2,23.6z M110.2,20.5
	c-2.5,0-4.1-2-4.1-5.5c0-3.5,1.6-5.5,4.1-5.5c2.5,0,4.1,2,4.1,5.5C114.3,18.5,112.7,20.5,110.2,20.5L110.2,20.5z M120.8,23.3h3.9
	v-9.6c0-2.3,1.3-3.8,3.5-3.8c0.5,0,1.1,0.1,1.6,0.2V6.6c-0.4-0.1-0.8-0.1-1.2-0.2c-2,0-3.4,1.2-4,3.2h-0.1V6.7h-3.7L120.8,23.3
	L120.8,23.3z M153.1,12.6c-0.3-3.5-3-6.2-7.3-6.2c-4.8,0-7.9,3.3-7.9,8.6c0,5.4,3.1,8.6,8,8.6c4.2,0,7-2.4,7.3-6.1h-3.7
	c-0.2,1.8-1.8,3.1-3.6,3c-2.5,0-4.1-2-4.1-5.5c0-3.4,1.6-5.5,4-5.5c1.8-0.1,3.4,1.3,3.6,3.1H153.1z M161.6,20.6
	c-1.7,0-2.8-0.9-2.8-2.2c0-1.3,1.1-2.2,3-2.3l3.8-0.2v1.3C165.6,19.1,163.8,20.6,161.6,20.6L161.6,20.6z M160.4,23.6
	c2.1,0,4.1-1.1,5.2-2.9h0.1v2.6h3.8V11.9c0-3.3-2.7-5.5-6.8-5.5c-4.2,0-6.9,2.2-7,5.3h3.6c0.2-1.4,1.4-2.3,3.3-2.3
	c1.9,0,3.1,1,3.1,2.7v1.2l-4.4,0.2c-4,0.2-6.3,2-6.3,5C154.9,21.5,157.2,23.5,160.4,23.6L160.4,23.6z M172.8,23.3h3.9V0.7h-3.9V23.3
	z M180.2,23.3h3.9V6.7h-3.9L180.2,23.3L180.2,23.3z M182.1,4.2c1.2,0,2.1-1,2.1-2.1c0-1.2-1-2.1-2.1-2.1c-1.2,0-2.1,1-2.1,2.1
	C180,3.3,180.9,4.2,182.1,4.2C182.1,4.2,182.1,4.2,182.1,4.2L182.1,4.2z M193.7,23.6c2.2,0.1,4.2-1.1,5.2-3.1h0.1v2.8h3.8V0.7h-3.9
	v8.8h-0.1c-1-1.9-3-3.1-5.1-3.1c-4.2,0-6.9,3.3-6.9,8.6C186.8,20.3,189.5,23.5,193.7,23.6L193.7,23.6z M194.8,9.6
	c2.5,0,4.1,2.1,4.1,5.4c0,3.3-1.6,5.4-4.1,5.4c-2.5,0-4.1-2.1-4.1-5.4C190.8,11.7,192.3,9.6,194.8,9.6L194.8,9.6z M212.2,20.6
	c-1.7,0-2.8-0.9-2.8-2.2c0-1.3,1.1-2.2,3-2.3l3.8-0.2v1.3C216.2,19.1,214.4,20.6,212.2,20.6L212.2,20.6z M211,23.6
	c2.1,0,4.1-1.1,5.2-2.9h0.1v2.6h3.8V11.9c0-3.3-2.7-5.5-6.8-5.5c-4.2,0-6.9,2.2-7,5.3h3.6c0.2-1.4,1.4-2.3,3.3-2.3
	c1.9,0,3.1,1,3.1,2.7v1.2l-4.4,0.2c-4,0.2-6.3,2-6.3,5C205.5,21.5,207.8,23.5,211,23.6L211,23.6z M229.5,23.6
	c2.2,0.1,4.2-1.1,5.2-3.1h0.1v2.8h3.8V0.7h-3.9v8.8h-0.1c-1-1.9-3-3.1-5.1-3.1c-4.2,0-6.9,3.3-6.9,8.6
	C222.6,20.3,225.3,23.5,229.5,23.6L229.5,23.6z M230.6,9.6c2.5,0,4.1,2.1,4.1,5.4c0,3.3-1.6,5.4-4.1,5.4c-2.5,0-4.1-2.1-4.1-5.4
	C226.6,11.7,228.1,9.6,230.6,9.6L230.6,9.6z M7.6,59.6c2.2,0.1,4.2-1.1,5.2-3.1h0.1v2.8h3.8V36.7h-3.9v8.8h-0.1
	c-1-1.9-3-3.1-5.1-3.1c-4.2,0-6.9,3.3-6.9,8.6C0.8,56.3,3.5,59.5,7.6,59.6L7.6,59.6z M8.8,45.6c2.5,0,4.1,2.1,4.1,5.4
	c0,3.3-1.6,5.4-4.1,5.4c-2.5,0-4.1-2.1-4.1-5.4C4.7,47.7,6.3,45.6,8.8,45.6L8.8,45.6z M27.3,45.4c2.2,0,3.7,1.6,3.8,4h-7.7
	C23.5,47.1,25.1,45.4,27.3,45.4L27.3,45.4z M31.1,54.3c-0.4,1.4-1.8,2.3-3.6,2.3c-2.5,0-4.2-1.8-4.2-4.4v-0.2h11.6v-1.3
	c0-5-2.9-8.3-7.6-8.3c-4.8,0-7.8,3.4-7.8,8.7c0,5.3,3,8.6,8,8.6c3.9,0,6.8-2.2,7.3-5.3L31.1,54.3L31.1,54.3z M58.6,42.7h-4.1
	l-3.8,13h-0.1l-3.8-13h-4.2l5.9,16.6h4.3L58.6,42.7z M60.6,59.3h3.9V42.7h-3.9V59.3L60.6,59.3z M63.9,40.4l3.7-4.8h-3.7l-2.7,4.8
	H63.9z M74.1,59.6c2.2,0.1,4.2-1.1,5.2-3.1h0.1v2.8h3.8V36.7h-3.9v8.8h-0.1c-1-1.9-3-3.1-5.1-3.1c-4.2,0-6.9,3.3-6.9,8.6
	C67.2,56.3,69.9,59.5,74.1,59.6L74.1,59.6z M75.3,45.6c2.5,0,4.1,2.1,4.1,5.4c0,3.3-1.6,5.4-4.1,5.4c-2.5,0-4.1-2.1-4.1-5.4
	C71.2,47.7,72.8,45.6,75.3,45.6L75.3,45.6z M93.7,45.4c2.2,0,3.7,1.6,3.8,4h-7.7C90,47.1,91.6,45.4,93.7,45.4L93.7,45.4z M97.6,54.3
	c-0.4,1.4-1.8,2.3-3.6,2.3c-2.5,0-4.2-1.8-4.2-4.4v-0.2h11.6v-1.3c0-5-2.9-8.3-7.6-8.3c-4.8,0-7.8,3.4-7.8,8.7c0,5.3,3,8.6,8,8.6
	c3.9,0,6.8-2.2,7.3-5.3L97.6,54.3L97.6,54.3z M111.3,59.6c4.9,0,8-3.2,8-8.6c0-5.4-3.2-8.6-8-8.6s-8,3.3-8,8.6
	C103.3,56.4,106.5,59.6,111.3,59.6L111.3,59.6z M111.3,56.5c-2.5,0-4.1-2-4.1-5.5c0-3.5,1.6-5.5,4.1-5.5c2.5,0,4.1,2,4.1,5.5
	C115.4,54.5,113.8,56.5,111.3,56.5L111.3,56.5z M143.1,42.7H139l-3.8,13h-0.1l-3.8-13h-4.2l5.9,16.6h4.3L143.1,42.7z M145.1,59.3
	h3.9V42.7h-3.9L145.1,59.3L145.1,59.3z M147,40.2c1.2,0,2.1-1,2.1-2.1c0-1.2-1-2.1-2.1-2.1c-1.2,0-2.1,1-2.1,2.1
	C144.9,39.3,145.8,40.2,147,40.2C147,40.2,147,40.2,147,40.2L147,40.2z M152.1,47.5c0,2.5,1.6,4,4.8,4.7l2.8,0.6
	c1.7,0.4,2.3,1,2.3,2c0,1.2-1.2,2-3.1,2c-2,0-3.1-0.8-3.4-2.4h-3.8c0.3,3.2,2.9,5.3,7.2,5.3c4.1,0,6.9-2.1,6.9-5.2
	c0-2.4-1.3-3.7-4.8-4.5l-2.8-0.6c-1.7-0.4-2.4-1.1-2.4-2c0-1.2,1.1-2,2.9-2c1.8,0,2.9,0.9,3.1,2.4h3.6c-0.1-3.1-2.7-5.3-6.7-5.3
	C154.7,42.4,152.1,44.4,152.1,47.5L152.1,47.5z M169.5,38.8v3.9h-2.4v3h2.4v9.2c0,3.2,1.4,4.5,5,4.5c0.7,0,1.4,0,2-0.2v-3
	c-0.4,0.1-0.7,0.1-1.1,0.1c-1.4,0-2-0.6-2-2v-8.6h3.1v-3h-3.1v-3.9L169.5,38.8L169.5,38.8z M185.1,56.6c-1.7,0-2.8-0.9-2.8-2.2
	c0-1.3,1.1-2.2,3-2.3l3.8-0.2v1.3C189.1,55.1,187.3,56.6,185.1,56.6L185.1,56.6z M183.9,59.6c2.1,0,4.1-1.1,5.2-2.9h0.1v2.6h3.8
	V47.9c0-3.3-2.7-5.5-6.8-5.5c-4.2,0-6.9,2.2-7,5.3h3.6c0.2-1.4,1.4-2.3,3.3-2.3c1.9,0,3.1,1,3.1,2.7v1.2l-4.4,0.2
	c-4,0.2-6.3,2-6.3,5C178.4,57.5,180.7,59.5,183.9,59.6L183.9,59.6z M8.6,81.4c2.2,0,3.7,1.6,3.8,4H4.7C4.8,83.1,6.4,81.4,8.6,81.4
	L8.6,81.4z M12.4,90.3c-0.4,1.4-1.8,2.3-3.6,2.3c-2.5,0-4.2-1.8-4.2-4.4v-0.2h11.6v-1.3c0-5-2.9-8.3-7.6-8.3c-4.8,0-7.8,3.4-7.8,8.7
	c0,5.3,3,8.6,8,8.6c3.9,0,6.8-2.2,7.3-5.3L12.4,90.3L12.4,90.3z M18.8,95.3h3.9v-9.6c0-2.4,1.4-4,3.7-4c2.2,0,3.3,1.3,3.3,3.7v9.9
	h3.9V84.6c0-3.8-2.1-6.2-5.7-6.2c-2.5,0-4.3,1.2-5.2,3.2h-0.1v-2.8h-3.7L18.8,95.3L18.8,95.3z M58,78.7h-3.9v9.6c0,2.4-1.4,4-3.6,4
	c-2.2,0-3.3-1.3-3.3-3.7v-9.9h-3.9v10.7c0,3.8,2.3,6.2,5.9,6.2c2.5,0,4.2-1.2,5.1-3.2h0.1v2.9H58V78.7L58,78.7z M61.3,95.3h3.9v-9.6
	c0-2.4,1.4-4,3.7-4c2.2,0,3.3,1.3,3.3,3.7v9.9h3.9V84.6c0-3.8-2.1-6.2-5.7-6.2c-2.5,0-4.3,1.2-5.2,3.2h-0.1v-2.8h-3.7V95.3
	L61.3,95.3z M85.6,83.5c0,2.5,1.6,4,4.8,4.7l2.8,0.6c1.7,0.4,2.3,1,2.3,2c0,1.2-1.2,2-3.1,2c-2,0-3.1-0.8-3.4-2.4h-3.8
	c0.3,3.2,2.9,5.3,7.2,5.3c4.1,0,6.9-2.1,6.9-5.2c0-2.4-1.3-3.7-4.8-4.5l-2.8-0.6c-1.7-0.4-2.4-1.1-2.4-2c0-1.2,1.1-2,2.9-2
	c1.8,0,2.9,0.9,3.1,2.4h3.6c-0.1-3.1-2.7-5.3-6.7-5.3C88.2,78.4,85.6,80.4,85.6,83.5L85.6,83.5z M101.9,95.3h3.9V85.1
	c0-2,1.3-3.5,3.2-3.5c1.8,0,2.9,1.1,2.9,3v10.6h3.8V85.1c0-2,1.3-3.4,3.2-3.4c1.9,0,3,1.2,3,3.2v10.4h3.9V83.9
	c0-3.3-2.1-5.5-5.4-5.5c-2.2-0.1-4.3,1.2-5.2,3.3h-0.1c-0.6-2.1-2.3-3.3-4.6-3.3c-2.1-0.1-4,1.2-4.7,3.2h-0.1v-2.9h-3.7L101.9,95.3
	L101.9,95.3z M135,92.6c-1.7,0-2.8-0.9-2.8-2.2c0-1.3,1.1-2.2,3-2.3l3.8-0.2v1.3C139,91.1,137.2,92.6,135,92.6L135,92.6z
	 M133.8,95.6c2.1,0,4.1-1.1,5.2-2.9h0.1v2.6h3.8V83.9c0-3.3-2.7-5.5-6.8-5.5c-4.2,0-6.9,2.2-7,5.3h3.6c0.2-1.4,1.4-2.3,3.3-2.3
	c1.9,0,3.1,1,3.1,2.7v1.2l-4.4,0.2c-4,0.2-6.3,2-6.3,5C128.3,93.5,130.6,95.5,133.8,95.6L133.8,95.6z M146.1,95.3h3.9v-9.6
	c0-2.3,1.3-3.8,3.5-3.8c0.5,0,1.1,0.1,1.6,0.2v-3.5c-0.4-0.1-0.8-0.1-1.2-0.2c-2,0-3.4,1.2-4,3.2h-0.1v-2.9h-3.7L146.1,95.3
	L146.1,95.3z M158.3,74.8v3.9h-2.4v3h2.4v9.2c0,3.2,1.4,4.5,5,4.5c0.7,0,1.4,0,2-0.2v-3c-0.4,0.1-0.7,0.1-1.1,0.1c-1.4,0-2-0.6-2-2
	v-8.6h3.1v-3h-3.1v-3.9L158.3,74.8L158.3,74.8z M177.1,78.4c-2.2-0.1-4.3,1.2-5.2,3.1h-0.1v-2.9H168v22h3.9v-8.2h0.1
	c0.9,1.9,2.8,3,5.2,3c4.2,0,6.8-3.3,6.8-8.5C184,81.7,181.3,78.4,177.1,78.4L177.1,78.4z M176,92.4c-2.4,0-4-2.1-4-5.4
	c0-3.2,1.6-5.4,4-5.4c2.5,0,4.1,2.1,4.1,5.4C180,90.3,178.5,92.4,176,92.4L176,92.4z M186.8,95.3h3.9v-9.5c0-2.4,1.4-4.1,3.8-4.1
	c2.2,0,3.4,1.4,3.4,3.7v9.9h3.9V84.6c0-3.8-2.1-6.2-5.8-6.2c-2.5,0-4.3,1.1-5.2,3.2h-0.1v-8.8h-3.8L186.8,95.3L186.8,95.3z
	 M212.3,95.6c4.9,0,8-3.2,8-8.6c0-5.4-3.2-8.6-8-8.6s-8,3.3-8,8.6C204.3,92.4,207.4,95.6,212.3,95.6L212.3,95.6z M212.3,92.5
	c-2.5,0-4.1-2-4.1-5.5c0-3.5,1.6-5.5,4.1-5.5c2.5,0,4.1,2,4.1,5.5C216.3,90.5,214.7,92.5,212.3,92.5L212.3,92.5z M222.9,95.3h3.9
	v-9.6c0-2.4,1.4-4,3.7-4c2.2,0,3.3,1.3,3.3,3.7v9.9h3.9V84.6c0-3.8-2.1-6.2-5.7-6.2c-2.5,0-4.3,1.2-5.2,3.2h-0.1v-2.8h-3.7V95.3
	L222.9,95.3z M248,81.4c2.2,0,3.7,1.6,3.8,4h-7.7C244.3,83.1,245.9,81.4,248,81.4L248,81.4z M251.9,90.3c-0.4,1.4-1.8,2.3-3.6,2.3
	c-2.5,0-4.2-1.8-4.2-4.4v-0.2h11.6v-1.3c0-5-2.9-8.3-7.6-8.3c-4.8,0-7.8,3.4-7.8,8.7c0,5.3,3,8.6,8,8.6c3.9,0,6.8-2.2,7.3-5.3
	L251.9,90.3L251.9,90.3z M261,95.5c1.2,0,2.2-1,2.2-2.2s-1-2.2-2.2-2.2s-2.2,1-2.2,2.2l0,0C258.7,94.4,259.7,95.4,261,95.5
	C261,95.5,261,95.5,261,95.5L261,95.5z"/>
</svg>
