<?xml version="1.0" encoding="utf-8"?>
<!-- Generator: Adobe Illustrator 21.1.0, SVG Export Plug-In . SVG Version: 6.00 Build 0)  -->
<svg version="1.1" id="Layer_1" xmlns="http://www.w3.org/2000/svg" xmlns:xlink="http://www.w3.org/1999/xlink" x="0px" y="0px"
	 viewBox="0 0 296 124" style="enable-background:new 0 0 296 124;" xml:space="preserve">
<style type="text/css">
	.st0{fill:#FFFFFF;}
</style>
<path id="_50_S4_Title_1_medium_1x.svg" class="st0" d="M19.7,24.8H6.9V0.9h-5v28.2h17.8V24.8z M30.4,25.8c-2.1,0-3.5-1.1-3.5-2.8
	c0-1.6,1.3-2.7,3.7-2.9l4.8-0.3v1.6C35.4,23.9,33.2,25.8,30.4,25.8z M29,29.4c2.7,0,5.3-1.4,6.4-3.6h0.1v3.3h4.7V14.8
	c0-4.2-3.3-6.9-8.5-6.9c-5.3,0-8.6,2.8-8.8,6.6h4.5c0.3-1.7,1.8-2.8,4.1-2.8c2.4,0,3.9,1.2,3.9,3.4v1.5L29.9,17
	c-5,0.3-7.9,2.5-7.9,6.2C22,26.9,25,29.4,29,29.4L29,29.4z M52.1,29.1H57V16.4c0-2.5,1.6-4.3,4-4.3c2.3,0,3.7,1.4,3.7,3.7v13.3h4.7
	V16.3c0-2.5,1.6-4.2,3.9-4.2c2.4,0,3.7,1.4,3.7,4v13h4.9V14.9c0-4.1-2.7-6.9-6.8-6.9c-3,0-5.5,1.6-6.4,4.2h-0.1
	C67.8,9.5,65.7,8,62.8,8c-2.6-0.1-5,1.5-5.9,4h-0.1V8.4h-4.7L52.1,29.1L52.1,29.1z M93.3,25.8c-2.1,0-3.5-1.1-3.5-2.8
	c0-1.6,1.4-2.7,3.7-2.9l4.8-0.3v1.6C98.3,23.9,96.1,25.8,93.3,25.8L93.3,25.8z M91.8,29.4c2.7,0,5.3-1.4,6.4-3.6h0.1v3.3h4.7V14.8
	c0-4.2-3.3-6.9-8.5-6.9c-5.3,0-8.6,2.8-8.8,6.6h4.5c0.3-1.7,1.8-2.8,4.1-2.8c2.4,0,3.9,1.2,3.9,3.4v1.5L92.8,17
	c-5,0.3-7.9,2.5-7.9,6.2C84.9,26.9,87.8,29.4,91.8,29.4L91.8,29.4z M109.2,36.8c4.7,0,7-1.7,8.8-6.9l7.5-21.5h-5.1L115.5,25h-0.1
	l-4.9-16.6h-5.3l7.4,20.7c0,0.1-0.3,1.1-0.3,1.1c-0.5,1.9-1.6,2.7-3.6,2.7c-0.5,0-0.9,0-1.4-0.1v3.8C107.6,36.8,109,36.8,109.2,36.8
	L109.2,36.8z M136.4,29.5c6.1,0,10-4,10-10.8c0-6.7-4-10.8-10-10.8s-10,4.1-10,10.8C126.4,25.5,130.3,29.5,136.4,29.5L136.4,29.5z
	 M136.4,25.7c-3.1,0-5.1-2.5-5.1-6.9c0-4.4,2-6.9,5.1-6.9c3.1,0,5.1,2.5,5.1,6.9C141.5,23.2,139.5,25.7,136.4,25.7L136.4,25.7z
	 M149.5,29.1h4.9V17c0-2.9,1.7-4.7,4.4-4.7c0.7,0,1.3,0.1,2,0.3V8.2c-0.5-0.1-1-0.2-1.5-0.2c-2.4,0-4.3,1.4-5,4h-0.1V8.4h-4.7V29.1z
	 M189.5,15.8c-0.3-4.4-3.7-7.8-9.2-7.8c-6,0-9.9,4.2-9.9,10.8c0,6.7,3.9,10.8,10,10.8c5.2,0,8.8-3.1,9.2-7.7H185
	c-0.4,2.3-2,3.7-4.5,3.7c-3.1,0-5.1-2.5-5.1-6.8c0-4.3,2-6.8,5-6.8c2.6,0,4.1,1.7,4.5,3.9H189.5L189.5,15.8z M200,25.8
	c-2.1,0-3.5-1.1-3.5-2.8c0-1.6,1.3-2.7,3.7-2.9l4.8-0.3v1.6C205,23.9,202.8,25.8,200,25.8L200,25.8z M198.5,29.4
	c2.7,0,5.3-1.4,6.4-3.6h0.1v3.3h4.7V14.8c0-4.2-3.3-6.9-8.5-6.9c-5.3,0-8.6,2.8-8.8,6.6h4.5c0.3-1.7,1.8-2.8,4.1-2.8
	c2.4,0,3.9,1.2,3.9,3.4v1.5l-5.5,0.3c-5,0.3-7.9,2.5-7.9,6.2C191.6,26.9,194.5,29.4,198.5,29.4L198.5,29.4z M213.8,29.1h4.9V0.9
	h-4.9V29.1z M222.9,29.1h4.9V8.4h-4.9V29.1z M225.3,5.3c1.5,0,2.6-1.2,2.6-2.7S226.8,0,225.3,0c-1.4,0-2.6,1.2-2.6,2.6
	C222.7,4.1,223.9,5.3,225.3,5.3C225.3,5.3,225.3,5.3,225.3,5.3L225.3,5.3z M239.6,29.4c3,0,5.4-1.5,6.5-3.9h0.1v3.5h4.8V0.9h-4.9v11
	H246c-1.2-2.4-3.7-3.9-6.4-3.8c-5.2,0-8.6,4.1-8.6,10.7C231,25.3,234.4,29.4,239.6,29.4L239.6,29.4z M241.1,12
	c3.1,0,5.1,2.6,5.1,6.7c0,4.1-2,6.7-5.1,6.7c-3.1,0-5.1-2.6-5.1-6.7C236,14.6,238,12.1,241.1,12L241.1,12z M262.6,25.8
	c-2.1,0-3.5-1.1-3.5-2.8c0-1.6,1.3-2.7,3.7-2.9l4.8-0.3v1.6C267.6,23.9,265.4,25.8,262.6,25.8L262.6,25.8z M261.2,29.4
	c2.7,0,5.2-1.4,6.4-3.6h0.1v3.3h4.7V14.8c0-4.2-3.3-6.9-8.5-6.9c-5.3,0-8.6,2.8-8.8,6.6h4.5c0.3-1.7,1.8-2.8,4.1-2.8
	c2.4,0,3.9,1.2,3.9,3.4v1.5l-5.5,0.3c-5,0.3-7.9,2.5-7.9,6.2C254.3,26.9,257.2,29.4,261.2,29.4L261.2,29.4z M284.1,29.4
	c3,0,5.4-1.5,6.5-3.9h0.1v3.5h4.8V0.9h-4.9v11h-0.1c-1.2-2.4-3.7-3.9-6.4-3.8c-5.2,0-8.6,4.1-8.6,10.7
	C275.5,25.3,278.8,29.4,284.1,29.4L284.1,29.4z M285.5,12c3.1,0,5.1,2.6,5.1,6.7c0,4.1-2,6.7-5.1,6.7c-3.1,0-5.1-2.6-5.1-6.7
	C280.4,14.6,282.4,12.1,285.5,12L285.5,12z M9.2,73.4c3,0,5.4-1.5,6.5-3.9h0.1v3.5h4.8V44.9h-4.9v11h-0.1c-1.2-2.4-3.7-3.9-6.4-3.8
	c-5.2,0-8.6,4.1-8.6,10.7C0.6,69.3,3.9,73.4,9.2,73.4z M10.6,56.1c3.1,0,5.1,2.6,5.1,6.7c0,4.1-2,6.7-5.1,6.7
	c-3.1,0-5.1-2.6-5.1-6.7C5.5,58.6,7.5,56.1,10.6,56.1z M33.5,55.7c2.8,0,4.7,2.1,4.8,5h-9.7C28.8,57.8,30.8,55.7,33.5,55.7
	L33.5,55.7z M38.3,66.9c-0.5,1.7-2.2,2.9-4.5,2.9c-3.2,0-5.2-2.2-5.2-5.6v-0.3h14.5v-1.6c0-6.3-3.7-10.4-9.5-10.4
	c-6,0-9.8,4.3-9.8,10.9c0,6.6,3.7,10.7,10,10.7c4.9,0,8.5-2.7,9.2-6.6H38.3L38.3,66.9z M72.4,52.4h-5.1l-4.8,16.2h-0.1l-4.8-16.2
	h-5.2l7.3,20.7h5.3L72.4,52.4z M74.8,73.1h4.9V52.4h-4.9V73.1z M78.9,49.5l4.6-6h-4.6l-3.4,6H78.9L78.9,49.5z M91.5,73.4
	c3,0,5.4-1.5,6.5-3.9h0.1v3.5h4.8V44.9H98v11h-0.1c-1.2-2.4-3.7-3.9-6.4-3.8c-5.2,0-8.6,4.1-8.6,10.7C82.9,69.3,86.2,73.4,91.5,73.4
	L91.5,73.4z M92.9,56.1c3.1,0,5.1,2.6,5.1,6.7c0,4.1-2,6.7-5.1,6.7c-3.1,0-5.1-2.6-5.1-6.7C87.8,58.6,89.8,56.1,92.9,56.1L92.9,56.1
	z M115.8,55.7c2.8,0,4.7,2.1,4.8,5h-9.7C111.1,57.8,113.1,55.7,115.8,55.7L115.8,55.7z M120.6,66.9c-0.5,1.7-2.2,2.9-4.5,2.9
	c-3.2,0-5.2-2.2-5.2-5.6v-0.3h14.5v-1.6c0-6.3-3.7-10.4-9.5-10.4c-6,0-9.8,4.3-9.8,10.9c0,6.6,3.7,10.7,10,10.7
	c4.9,0,8.5-2.7,9.2-6.6H120.6L120.6,66.9z M137.7,73.5c6.1,0,10-4,10-10.8c0-6.7-4-10.8-10-10.8s-10,4.1-10,10.8
	C127.6,69.5,131.6,73.5,137.7,73.5L137.7,73.5z M137.7,69.7c-3.1,0-5.1-2.5-5.1-6.9c0-4.4,2-6.9,5.1-6.9c3.1,0,5.1,2.5,5.1,6.9
	C142.7,67.2,140.8,69.7,137.7,69.7L137.7,69.7z M177,52.4H172l-4.8,16.2h-0.1l-4.8-16.2h-5.2l7.3,20.7h5.3L177,52.4z M179.4,73.1
	h4.9V52.4h-4.9V73.1z M181.8,49.3c1.5,0,2.6-1.2,2.6-2.7c0-1.5-1.2-2.6-2.7-2.6c-1.4,0-2.6,1.2-2.6,2.6
	C179.1,48.1,180.3,49.3,181.8,49.3C181.8,49.3,181.8,49.3,181.8,49.3L181.8,49.3z M188,58.3c0,3.1,2,5,6,5.9l3.4,0.8
	c2.2,0.5,2.9,1.2,2.9,2.4c0,1.5-1.5,2.5-3.8,2.5c-2.5,0-3.8-1-4.2-3h-4.8c0.4,4,3.6,6.6,9,6.6c5.1,0,8.7-2.6,8.7-6.5
	c0-3-1.7-4.7-6-5.6l-3.4-0.8c-2.2-0.5-3-1.3-3-2.5c0-1.5,1.4-2.5,3.6-2.5c2.2,0,3.6,1.2,3.8,3.1h4.5c-0.1-3.9-3.3-6.6-8.4-6.6
	C191.3,52,188,54.6,188,58.3L188,58.3z M209.6,47.6v4.8h-3v3.7h3v11.4c0,4,1.8,5.6,6.2,5.6c0.8,0,1.7,0,2.5-0.2v-3.7
	c-0.5,0.1-0.9,0.1-1.4,0.1c-1.7,0-2.5-0.8-2.5-2.5V56.1h3.9v-3.7h-3.9v-4.8H209.6z M228.9,69.8c-2.1,0-3.5-1.1-3.5-2.8
	c0-1.6,1.3-2.7,3.7-2.9l4.8-0.3v1.6C233.9,67.9,231.7,69.8,228.9,69.8L228.9,69.8z M227.5,73.4c2.7,0,5.2-1.4,6.4-3.6h0.1v3.3h4.7
	V58.8c0-4.2-3.3-6.9-8.5-6.9c-5.3,0-8.6,2.8-8.8,6.6h4.5c0.3-1.7,1.8-2.8,4.1-2.8c2.4,0,3.9,1.2,3.9,3.4v1.5l-5.5,0.3
	c-5,0.3-7.9,2.5-7.9,6.2C220.5,70.9,223.5,73.4,227.5,73.4L227.5,73.4z M259.5,55.7c2.8,0,4.7,2.1,4.8,5h-9.7
	C254.8,57.8,256.8,55.7,259.5,55.7L259.5,55.7z M264.3,66.9c-0.5,1.7-2.2,2.9-4.5,2.9c-3.2,0-5.2-2.2-5.2-5.6v-0.3h14.5v-1.6
	c0-6.3-3.7-10.4-9.5-10.4c-6,0-9.8,4.3-9.8,10.9c0,6.6,3.7,10.7,10,10.7c4.9,0,8.5-2.7,9.2-6.6H264.3L264.3,66.9z M272.2,73.1h4.9
	v-12c0-3,1.8-5,4.6-5c2.8,0,4.1,1.6,4.1,4.6v12.4h4.9V59.7c0-4.8-2.6-7.7-7.2-7.7c-3.2,0-5.4,1.5-6.5,3.9h-0.1v-3.6h-4.7L272.2,73.1
	L272.2,73.1z M19.8,96.4h-4.9v12c0,3-1.7,5-4.5,5c-2.7,0-4.2-1.6-4.2-4.6V96.4H1.3v13.4c0,4.8,2.9,7.7,7.3,7.7c3.1,0,5.2-1.4,6.3-4
	h0.1v3.6h4.7L19.8,96.4L19.8,96.4z M23.7,117.1h4.9v-12c0-3,1.8-5,4.6-5c2.8,0,4.1,1.6,4.1,4.6v12.4h4.9v-13.4
	c0-4.8-2.6-7.7-7.2-7.7c-3.2,0-5.4,1.5-6.5,3.9h-0.1v-3.6h-4.7L23.7,117.1L23.7,117.1z M53.7,102.3c0,3.1,2,5,6,5.9l3.4,0.8
	c2.2,0.5,2.9,1.2,2.9,2.4c0,1.5-1.5,2.5-3.8,2.5c-2.5,0-3.8-1-4.2-3h-4.8c0.4,4,3.6,6.6,9,6.6c5.1,0,8.7-2.6,8.7-6.5
	c0-3-1.7-4.7-6-5.6l-3.4-0.8c-2.2-0.5-3-1.3-3-2.5c0-1.5,1.4-2.5,3.6-2.5c2.2,0,3.6,1.2,3.8,3.1h4.5C70.2,98.7,67,96,62,96
	C57,96,53.7,98.5,53.7,102.3L53.7,102.3z M74,117.1h4.9v-12.7c0-2.5,1.6-4.3,4-4.3c2.3,0,3.7,1.4,3.7,3.7v13.3h4.7v-12.8
	c0-2.5,1.6-4.2,3.9-4.2c2.4,0,3.7,1.4,3.7,4v13h4.9v-14.2c0-4.1-2.7-6.9-6.8-6.9c-3,0-5.5,1.6-6.4,4.2h-0.1
	c-0.8-2.7-2.8-4.2-5.8-4.2c-2.6-0.1-5,1.5-5.9,4h-0.1v-3.6H74L74,117.1L74,117.1z M115.2,113.8c-2.1,0-3.5-1.1-3.5-2.8
	c0-1.6,1.3-2.7,3.7-2.9l4.8-0.3v1.6C120.1,111.9,117.9,113.8,115.2,113.8L115.2,113.8z M113.7,117.4c2.7,0,5.3-1.4,6.4-3.6h0.1v3.3
	h4.7v-14.3c0-4.2-3.3-6.9-8.5-6.9c-5.3,0-8.6,2.8-8.8,6.6h4.5c0.3-1.7,1.8-2.8,4.1-2.8c2.4,0,3.9,1.2,3.9,3.4v1.5l-5.5,0.3
	c-5,0.3-7.9,2.5-7.9,6.2C106.8,114.9,109.7,117.4,113.7,117.4L113.7,117.4z M128.8,117.1h4.9V105c0-2.9,1.7-4.7,4.4-4.7
	c0.7,0,1.3,0.1,2,0.3v-4.4c-0.5-0.1-1-0.2-1.5-0.2c-2.4,0-4.3,1.4-5,4h-0.1v-3.6h-4.7L128.8,117.1L128.8,117.1z M143.9,91.6v4.8h-3
	v3.8h3v11.4c0,4,1.8,5.6,6.2,5.6c0.8,0,1.7,0,2.5-0.2v-3.7c-0.5,0.1-0.9,0.1-1.4,0.1c-1.7,0-2.5-0.8-2.5-2.5v-10.8h3.9v-3.8h-3.9
	v-4.8H143.9z M167.4,96c-2.8-0.1-5.3,1.4-6.5,3.9h-0.1v-3.6H156v27.5h4.9v-10.3h0.1c1.1,2.3,3.5,3.8,6.5,3.8c5.2,0,8.5-4.1,8.5-10.7
	C176,100.1,172.6,96,167.4,96L167.4,96z M165.9,113.4c-3,0-5-2.6-5.1-6.7c0-4,2-6.7,5.1-6.7c3.1,0,5.1,2.6,5.1,6.7
	C171,110.9,169,113.4,165.9,113.4L165.9,113.4z M179.2,117.1h4.9v-11.9c0-3.1,1.8-5.1,4.7-5.1c2.8,0,4.3,1.7,4.3,4.6v12.3h4.9v-13.3
	c0-4.7-2.7-7.8-7.2-7.8c-3.1,0-5.4,1.4-6.5,3.9H184v-11h-4.8L179.2,117.1L179.2,117.1z M211,117.5c6.1,0,10-4,10-10.8
	c0-6.7-4-10.8-10-10.8s-10,4.1-10,10.8C201,113.5,204.9,117.5,211,117.5L211,117.5z M211,113.7c-3.1,0-5.1-2.5-5.1-6.9
	c0-4.4,2-6.9,5.1-6.9c3.1,0,5.1,2.5,5.1,6.9C216,111.2,214.1,113.7,211,113.7L211,113.7z M224.1,117.1h4.9v-12c0-3,1.8-5,4.6-5
	c2.8,0,4.1,1.6,4.1,4.6v12.4h4.9v-13.4c0-4.8-2.6-7.7-7.2-7.7c-3.2,0-5.4,1.5-6.5,3.9h-0.1v-3.6h-4.7L224.1,117.1L224.1,117.1z
	 M255.4,99.7c2.8,0,4.7,2.1,4.8,5h-9.7C250.7,101.8,252.6,99.7,255.4,99.7L255.4,99.7z M260.2,110.9c-0.5,1.7-2.2,2.9-4.5,2.9
	c-3.2,0-5.2-2.2-5.2-5.6v-0.3h14.5v-1.6c0-6.3-3.7-10.4-9.5-10.4c-6,0-9.8,4.3-9.8,10.9c0,6.6,3.8,10.7,10,10.7
	c4.9,0,8.5-2.7,9.2-6.6H260.2L260.2,110.9z M271.4,117.3c1.6,0,2.8-1.3,2.8-2.8c0-1.6-1.3-2.8-2.8-2.8c-1.6,0-2.8,1.3-2.8,2.8
	C268.6,116,269.8,117.3,271.4,117.3C271.4,117.3,271.4,117.3,271.4,117.3L271.4,117.3z"/>
</svg>
