<?xml version="1.0" encoding="utf-8"?>
<!-- Generator: Adobe Illustrator 21.1.0, SVG Export Plug-In . SVG Version: 6.00 Build 0)  -->
<svg version="1.1" id="Layer_1" xmlns="http://www.w3.org/2000/svg" xmlns:xlink="http://www.w3.org/1999/xlink" x="0px" y="0px"
	 viewBox="0 0 272 64" style="enable-background:new 0 0 272 64;" xml:space="preserve">
<style type="text/css">
	.st0{fill:#FFFFFF;}
</style>
<path id="_50_S5_Title_1_small_1x.svg" class="st0" d="M15.5,22.7h-3.7c-0.1,2-1.4,3.2-3.4,3.2S5.1,24.7,5.1,23
	c0-1.5,0.7-2.4,2.6-3.6c2.2-1.3,3.1-2.7,2.9-5l0-1.1H6.9v0.9c0,1.6-0.6,2.4-2.6,3.6C2.2,19.1,1,20.8,1,23.2c0,3.4,2.9,5.9,7.2,5.9
	C12.8,29.1,15.3,26.4,15.5,22.7z M8.6,10.4c1.2,0,2.2-1,2.1-2.3S9.7,5.9,8.4,6C7.2,6,6.3,7,6.3,8.2C6.3,9.4,7.3,10.4,8.6,10.4
	C8.5,10.4,8.6,10.4,8.6,10.4L8.6,10.4z M27,24.1c1.4,0,2.7-0.2,4-0.7l1.9,2.6h4l-3-4.1c2.6-2,3.9-5.3,3.9-9.4
	c0-7.2-4.1-11.7-10.7-11.7c-6.5,0-10.7,4.5-10.7,11.7S20.4,24.1,27,24.1L27,24.1z M27,20.7c-4,0-6.6-3.2-6.6-8.3
	c0-5.1,2.6-8.3,6.6-8.3c4.1,0,6.6,3.2,6.6,8.3c0,2.7-0.8,4.9-2.2,6.3l-1.5-2.1h-4l2.8,3.8C28.2,20.6,27.6,20.7,27,20.7L27,20.7z
	 M55.3,7.1h-3.9v9.6c0,2.4-1.4,4-3.6,4c-2.2,0-3.3-1.3-3.3-3.7V7.1h-3.9v10.7c0,3.8,2.3,6.2,5.9,6.2c2.5,0,4.2-1.2,5.1-3.2h0.1v2.9
	h3.7V7.1z M58.7,23.7h3.9V7.1h-3.9V23.7z M60.6,4.6c1.2,0,2.1-1,2.1-2.1c0-1.2-1-2.1-2.1-2.1c-1.2,0-2.1,1-2.1,2.1
	C58.5,3.7,59.5,4.6,60.6,4.6C60.6,4.6,60.6,4.6,60.6,4.6L60.6,4.6z M73.1,9.8c2.2,0,3.7,1.6,3.8,4h-7.7C69.4,11.5,71,9.8,73.1,9.8
	L73.1,9.8z M77,18.7c-0.4,1.4-1.8,2.3-3.6,2.3c-2.5,0-4.2-1.8-4.2-4.4v-0.2h11.6v-1.3c0-5-2.9-8.3-7.6-8.3c-4.8,0-7.8,3.4-7.8,8.7
	c0,5.3,3,8.6,8,8.6c3.9,0,6.8-2.2,7.3-5.3L77,18.7L77,18.7z M74.5,4.8L78.2,0h-3.7l-2.7,4.8H74.5L74.5,4.8z M83.4,23.7h3.9v-9.6
	c0-2.4,1.4-4,3.7-4c2.2,0,3.3,1.3,3.3,3.7v9.9h3.9V13c0-3.8-2.1-6.2-5.7-6.2c-2.5,0-4.3,1.2-5.2,3.2h-0.1V7.1h-3.7V23.7L83.4,23.7z
	 M109,3.3v3.9h-2.4v3h2.4v9.2c0,3.2,1.4,4.5,5,4.5c0.7,0,1.4,0,2-0.2v-3c-0.4,0.1-0.7,0.1-1.1,0.1c-1.4,0-2-0.6-2-2v-8.6h3.1v-3
	h-3.1V3.3L109,3.3L109,3.3z M118.9,23.7h3.9V7.1h-3.9L118.9,23.7L118.9,23.7z M120.8,4.6c1.2,0,2.1-1,2.1-2.1c0-1.2-1-2.1-2.1-2.1
	c-1.2,0-2.1,1-2.1,2.1C118.7,3.7,119.6,4.6,120.8,4.6C120.8,4.6,120.8,4.6,120.8,4.6L120.8,4.6z M133.3,9.8c2.2,0,3.7,1.6,3.8,4
	h-7.7C129.5,11.5,131.1,9.8,133.3,9.8L133.3,9.8z M137.1,18.7c-0.4,1.4-1.8,2.3-3.6,2.3c-2.5,0-4.2-1.8-4.2-4.4v-0.2h11.6v-1.3
	c0-5-2.9-8.3-7.6-8.3c-4.8,0-7.8,3.4-7.8,8.7c0,5.3,3,8.6,8,8.6c3.9,0,6.8-2.2,7.3-5.3L137.1,18.7L137.1,18.7z M143.5,23.7h3.9v-9.6
	c0-2.4,1.4-4,3.7-4c2.2,0,3.3,1.3,3.3,3.7v9.9h3.9V13c0-3.8-2.1-6.2-5.7-6.2c-2.5,0-4.3,1.2-5.2,3.2h-0.1V7.1h-3.7V23.7L143.5,23.7z
	 M168.7,9.8c2.2,0,3.7,1.6,3.8,4h-7.7C164.9,11.5,166.5,9.8,168.7,9.8L168.7,9.8z M172.5,18.7c-0.4,1.4-1.8,2.3-3.6,2.3
	c-2.5,0-4.2-1.8-4.2-4.4v-0.2h11.6v-1.3c0-5-2.9-8.3-7.6-8.3c-4.8,0-7.8,3.4-7.8,8.7c0,5.3,3,8.6,8,8.6c3.9,0,6.8-2.2,7.3-5.3
	L172.5,18.7L172.5,18.7z M185.5,23.7h3.9V13.6c0-2,1.3-3.5,3.2-3.5c1.8,0,2.9,1.1,2.9,3v10.6h3.8V13.5c0-2,1.3-3.4,3.2-3.4
	c1.9,0,3,1.2,3,3.2v10.4h3.9V12.3c0-3.3-2.1-5.5-5.4-5.5c-2.2-0.1-4.3,1.2-5.2,3.3h-0.1C198,8,196.3,6.8,194,6.8
	c-2.1-0.1-4,1.2-4.7,3.2h-0.1V7.1h-3.7L185.5,23.7L185.5,23.7z M212.6,23.7h3.9V7.1h-3.9V23.7L212.6,23.7z M214.5,4.6
	c1.2,0,2.1-1,2.1-2.1c0-1.2-1-2.1-2.1-2.1c-1.2,0-2.1,1-2.1,2.1C212.4,3.7,213.4,4.6,214.5,4.6C214.5,4.6,214.5,4.6,214.5,4.6
	L214.5,4.6z M227,9.8c2.2,0,3.7,1.6,3.8,4h-7.7C223.3,11.5,224.8,9.8,227,9.8L227,9.8z M230.9,18.7c-0.4,1.4-1.8,2.3-3.6,2.3
	c-2.5,0-4.2-1.8-4.2-4.4v-0.2h11.6v-1.3c0-5-2.9-8.3-7.6-8.3c-4.8,0-7.8,3.4-7.8,8.7c0,5.3,3,8.6,8,8.6c3.9,0,6.8-2.2,7.3-5.3
	L230.9,18.7L230.9,18.7z M243.5,24c2.2,0.1,4.2-1.1,5.2-3.1h0.1v2.8h3.8V1.2h-3.9v8.8h-0.1c-1-1.9-3-3.1-5.1-3.1
	c-4.2,0-6.9,3.3-6.9,8.6C236.6,20.7,239.3,24,243.5,24L243.5,24z M244.6,10.1c2.5,0,4.1,2.1,4.1,5.4c0,3.3-1.6,5.4-4.1,5.4
	c-2.5,0-4.1-2.1-4.1-5.4C240.6,12.1,242.1,10.1,244.6,10.1L244.6,10.1z M263.3,24c4.9,0,8-3.2,8-8.6c0-5.4-3.2-8.6-8-8.6
	c-4.8,0-8,3.3-8,8.6C255.3,20.8,258.4,24,263.3,24L263.3,24z M263.3,20.9c-2.5,0-4.1-2-4.1-5.5c0-3.5,1.6-5.5,4.1-5.5
	c2.5,0,4.1,2,4.1,5.5C267.4,18.9,265.8,20.9,263.3,20.9L263.3,20.9z M7.4,57c-1.7,0-2.8-0.9-2.8-2.2c0-1.3,1.1-2.2,3-2.3l3.8-0.2
	v1.3C11.3,55.6,9.6,57,7.4,57L7.4,57z M6.2,60c2.1,0,4.1-1.1,5.2-2.9h0.1v2.6h3.7V48.3c0-3.3-2.7-5.5-6.8-5.5c-4.2,0-6.9,2.2-7,5.3
	H5c0.2-1.4,1.4-2.3,3.3-2.3c1.9,0,3.1,1,3.1,2.7v1.2L7,50c-4,0.2-6.3,2-6.3,5C0.7,57.9,3,60,6.2,60L6.2,60z M25.1,59.7H29V37.2h-3.9
	V59.7z M38.5,57c-1.7,0-2.8-0.9-2.8-2.2c0-1.3,1.1-2.2,3-2.3l3.8-0.2v1.3C42.4,55.6,40.7,57,38.5,57L38.5,57z M37.3,60
	c2.1,0,4.1-1.1,5.2-2.9h0.1v2.6h3.7V48.3c0-3.3-2.7-5.5-6.8-5.5c-4.2,0-6.9,2.2-7,5.3h3.6c0.2-1.4,1.4-2.3,3.3-2.3
	c1.9,0,3.1,1,3.1,2.7v1.2L38.1,50c-4,0.2-6.3,2-6.3,5C31.8,57.9,34.1,60,37.3,60L37.3,60z M63.4,60c4.9,0,8-3.2,8-8.6
	c0-5.4-3.2-8.6-8-8.6s-8,3.3-8,8.6C55.4,56.8,58.5,60,63.4,60L63.4,60z M63.4,56.9c-2.5,0-4.1-2-4.1-5.5c0-3.5,1.6-5.5,4.1-5.5
	c2.5,0,4.1,2,4.1,5.5C67.5,54.9,65.9,56.9,63.4,56.9L63.4,56.9z M73.7,47.9c0,2.5,1.6,4,4.8,4.7l2.7,0.6c1.7,0.4,2.3,1,2.3,2
	c0,1.2-1.2,2-3.1,2c-2,0-3.1-0.8-3.4-2.4h-3.8c0.3,3.2,2.9,5.3,7.2,5.3c4.1,0,6.9-2.1,6.9-5.2c0-2.4-1.3-3.7-4.8-4.5l-2.8-0.6
	c-1.7-0.4-2.4-1.1-2.4-2c0-1.2,1.1-2,2.9-2c1.8,0,2.9,0.9,3.1,2.4h3.6c-0.1-3.1-2.7-5.3-6.7-5.3C76.4,42.8,73.7,44.9,73.7,47.9
	L73.7,47.9z M104.7,49c-0.3-3.5-3-6.2-7.3-6.2c-4.8,0-7.9,3.3-7.9,8.6c0,5.4,3.1,8.6,8,8.6c4.2,0,7-2.4,7.3-6.1H101
	c-0.2,1.8-1.8,3.1-3.6,3c-2.5,0-4.1-2-4.1-5.5c0-3.4,1.6-5.5,4-5.5c1.8-0.1,3.4,1.3,3.6,3.1H104.7z M121.8,43.1h-3.9v9.6
	c0,2.4-1.4,4-3.6,4c-2.2,0-3.3-1.3-3.3-3.7v-9.9H107v10.7c0,3.8,2.3,6.2,5.9,6.2c2.5,0,4.2-1.2,5.1-3.2h0.1v2.9h3.8L121.8,43.1
	L121.8,43.1z M125.1,59.7h3.9v-9.6c0-2.3,1.3-3.7,3.5-3.7c0.5,0,1.1,0.1,1.6,0.2V43c-0.4-0.1-0.8-0.1-1.2-0.2c-2,0-3.4,1.2-4,3.2
	h-0.1v-2.9h-3.7V59.7z M136.3,59.7h3.9V43.1h-3.9L136.3,59.7L136.3,59.7z M138.3,40.6c1.2,0,2.1-1,2.1-2.1c0-1.2-1-2.1-2.1-2.1
	c-1.2,0-2.1,1-2.1,2.1C136.1,39.7,137.1,40.6,138.3,40.6C138.3,40.6,138.3,40.6,138.3,40.6L138.3,40.6z M149.8,60
	c2.2,0.1,4.2-1.1,5.2-3.1h0.1v2.8h3.8V37.2H155v8.8h-0.1c-1-1.9-3-3.1-5.1-3.1c-4.2,0-6.9,3.3-6.9,8.6C142.9,56.7,145.6,60,149.8,60
	L149.8,60z M151,46.1c2.5,0,4.1,2.1,4.1,5.4c0,3.3-1.6,5.4-4.1,5.4c-2.5,0-4.1-2.1-4.1-5.4C146.9,48.1,148.5,46.1,151,46.1L151,46.1
	z M168.4,57c-1.7,0-2.8-0.9-2.8-2.2c0-1.3,1.1-2.2,3-2.3l3.8-0.2v1.3C172.3,55.6,170.6,57,168.4,57L168.4,57z M167.2,60
	c2.1,0,4.1-1.1,5.2-2.9h0.1v2.6h3.7V48.3c0-3.3-2.7-5.5-6.8-5.5c-4.2,0-6.9,2.2-7,5.3h3.6c0.2-1.4,1.4-2.3,3.3-2.3
	c1.9,0,3.1,1,3.1,2.7v1.2l-4.4,0.2c-4,0.2-6.3,2-6.3,5C161.6,57.9,164,60,167.2,60L167.2,60z M185.6,60c2.2,0.1,4.2-1.1,5.2-3.1h0.1
	v2.8h3.8V37.2h-3.9v8.8h-0.1c-1-1.9-3-3.1-5.1-3.1c-4.2,0-6.9,3.3-6.9,8.6C178.7,56.7,181.4,60,185.6,60L185.6,60z M186.8,46.1
	c2.5,0,4.1,2.1,4.1,5.4c0,3.3-1.6,5.4-4.1,5.4c-2.5,0-4.1-2.1-4.1-5.4C182.7,48.1,184.3,46.1,186.8,46.1L186.8,46.1z M197.4,43.3
	h3.7c0.1-1.9,1.4-3.2,3.4-3.2c2,0,3.3,1.2,3.3,2.9c0,1.6-0.7,2.4-2.6,3.6c-2.2,1.3-3.1,2.7-2.9,5l0,1.1h3.6v-0.9
	c0-1.6,0.6-2.4,2.6-3.6c2.1-1.3,3.3-2.9,3.3-5.3c0-3.4-2.9-5.9-7.1-5.9C200,37,197.5,39.7,197.4,43.3L197.4,43.3z M204.1,60
	c1.2,0,2.2-1.1,2.1-2.3c0-1.2-1.1-2.2-2.3-2.1c-1.2,0-2.1,1-2.1,2.2C201.8,59,202.8,60,204.1,60C204.1,60,204.1,60,204.1,60
	L204.1,60z"/>
</svg>
