<?xml version="1.0" encoding="utf-8"?>
<!-- Generator: Adobe Illustrator 21.1.0, SVG Export Plug-In . SVG Version: 6.00 Build 0)  -->
<svg version="1.1" id="Layer_1" xmlns="http://www.w3.org/2000/svg" xmlns:xlink="http://www.w3.org/1999/xlink" x="0px" y="0px"
	 viewBox="0 0 220 120" style="enable-background:new 0 0 220 120;" xml:space="preserve">
<style type="text/css">
	.st0{fill:#FFFFFF;}
</style>
<path id="_50_S5_Title_1_medium_1x.svg" class="st0" d="M19.6,28.4H15c-0.2,2.4-1.8,4-4.3,4s-4.1-1.5-4.1-3.6c0-1.9,0.8-3,3.2-4.4
	c2.7-1.6,3.8-3.3,3.6-6.2l0-1.4H8.9v1.1c0,2-0.7,2.9-3.3,4.5C3,23.9,1.5,26,1.5,28.9c0,4.3,3.6,7.4,9,7.4
	C16.2,36.3,19.5,33,19.6,28.4z M11,13c1.5,0,2.7-1.3,2.7-2.8c0-1.5-1.3-2.7-2.8-2.7c-1.5,0-2.7,1.3-2.7,2.8C8.2,11.7,9.4,13,11,13
	C11,13,11,13,11,13L11,13z M33.9,30.1c1.7,0,3.4-0.3,5-0.8l2.3,3.2h4.9l-3.8-5.1c3.2-2.5,4.9-6.6,4.9-11.8c0-9-5.2-14.6-13.4-14.6
	c-8.2,0-13.4,5.6-13.4,14.6S25.6,30.1,33.9,30.1L33.9,30.1z M33.9,25.9c-5.1,0-8.3-4-8.3-10.3c0-6.3,3.2-10.4,8.3-10.4
	c5.1,0,8.3,4,8.3,10.4c0,3.4-1,6.2-2.8,7.9l-1.9-2.6h-4.9l3.5,4.8C35.4,25.7,34.6,25.9,33.9,25.9L33.9,25.9z M69.1,8.9h-4.9v12
	c0,3-1.7,5-4.5,5c-2.7,0-4.2-1.6-4.2-4.6V8.9h-4.9v13.4c0,4.8,2.8,7.7,7.3,7.7c3.1,0,5.2-1.4,6.3-4h0.1v3.6h4.7L69.1,8.9L69.1,8.9z
	 M73.2,29.6h4.9V8.9h-4.9V29.6z M75.6,5.8c1.5,0,2.6-1.2,2.6-2.7c0-1.5-1.2-2.6-2.7-2.6c-1.4,0-2.6,1.2-2.6,2.6
	C73,4.6,74.1,5.8,75.6,5.8C75.6,5.8,75.6,5.8,75.6,5.8L75.6,5.8z M91.1,12.2c2.8,0,4.7,2.1,4.8,5h-9.7
	C86.4,14.3,88.3,12.2,91.1,12.2L91.1,12.2z M95.9,23.4c-0.5,1.7-2.2,2.9-4.5,2.9c-3.2,0-5.2-2.2-5.2-5.5v-0.3h14.5v-1.6
	c0-6.3-3.7-10.4-9.5-10.4c-6,0-9.8,4.3-9.8,10.9c0,6.6,3.8,10.7,10,10.7c4.9,0,8.5-2.7,9.2-6.6L95.9,23.4L95.9,23.4z M92.8,6l4.6-6
	h-4.6l-3.4,6H92.8z M103.7,29.6h4.9v-12c0-3,1.8-5,4.6-5c2.8,0,4.1,1.6,4.1,4.6v12.4h4.9V16.2c0-4.8-2.6-7.7-7.2-7.7
	c-3.2,0-5.4,1.5-6.5,3.9h-0.1V8.9h-4.7L103.7,29.6L103.7,29.6z M135.4,4.1v4.8h-3v3.8h3v11.4c0,4,1.8,5.6,6.2,5.6
	c0.8,0,1.7,0,2.5-0.2v-3.7c-0.5,0.1-0.9,0.1-1.4,0.1c-1.7,0-2.5-0.8-2.5-2.5V12.7h3.9V8.9h-3.9V4.1L135.4,4.1L135.4,4.1z
	 M147.6,29.6h4.9V8.9h-4.9V29.6z M150,5.8c1.5,0,2.6-1.2,2.6-2.7c0-1.5-1.2-2.6-2.7-2.6c-1.4,0-2.6,1.2-2.6,2.6
	C147.4,4.6,148.5,5.8,150,5.8C150,5.8,150,5.8,150,5.8L150,5.8z M165.5,12.2c2.8,0,4.7,2.1,4.8,5h-9.7
	C160.8,14.3,162.7,12.2,165.5,12.2L165.5,12.2z M170.3,23.4c-0.5,1.7-2.2,2.9-4.5,2.9c-3.2,0-5.2-2.2-5.2-5.5v-0.3H175v-1.6
	c0-6.3-3.7-10.4-9.5-10.4c-6,0-9.8,4.3-9.8,10.9c0,6.6,3.8,10.7,10,10.7c4.9,0,8.5-2.7,9.2-6.6L170.3,23.4L170.3,23.4z M178.1,29.6
	h4.9v-12c0-3,1.8-5,4.6-5c2.8,0,4.1,1.6,4.1,4.6v12.4h4.9V16.2c0-4.8-2.6-7.7-7.2-7.7c-3.2,0-5.4,1.5-6.5,3.9h-0.1V8.9h-4.7
	L178.1,29.6L178.1,29.6z M209.4,12.2c2.8,0,4.7,2.1,4.8,5h-9.7C204.7,14.3,206.6,12.2,209.4,12.2L209.4,12.2z M214.2,23.4
	c-0.5,1.7-2.2,2.9-4.5,2.9c-3.2,0-5.2-2.2-5.2-5.5v-0.3h14.5v-1.6c0-6.3-3.7-10.4-9.5-10.4c-6,0-9.8,4.3-9.8,10.9
	c0,6.6,3.8,10.7,10,10.7c4.9,0,8.5-2.7,9.2-6.6L214.2,23.4L214.2,23.4z M1.9,73.6h4.9V60.9c0-2.5,1.6-4.3,4-4.3
	c2.3,0,3.7,1.4,3.7,3.7v13.3h4.7V60.8c0-2.5,1.6-4.2,3.9-4.2c2.4,0,3.7,1.4,3.7,4v13h4.9V59.4c0-4.1-2.7-6.9-6.8-6.9
	c-3,0-5.5,1.6-6.4,4.2h-0.1c-0.8-2.7-2.9-4.2-5.8-4.2c-2.6-0.1-5,1.5-5.9,4H6.6v-3.6H1.9V73.6L1.9,73.6z M35.7,73.6h4.9V52.9h-4.9
	V73.6z M38.1,49.8c1.5,0,2.6-1.2,2.6-2.7c0-1.5-1.2-2.6-2.7-2.6c-1.4,0-2.6,1.2-2.6,2.6C35.5,48.6,36.7,49.8,38.1,49.8
	C38.1,49.8,38.1,49.8,38.1,49.8L38.1,49.8z M53.6,56.2c2.8,0,4.7,2.1,4.8,5h-9.7C48.9,58.3,50.9,56.2,53.6,56.2L53.6,56.2z
	 M58.4,67.4c-0.5,1.7-2.2,2.9-4.5,2.9c-3.2,0-5.2-2.2-5.2-5.5v-0.3h14.5v-1.6c0-6.3-3.7-10.4-9.5-10.4c-6,0-9.8,4.3-9.8,10.9
	c0,6.6,3.8,10.7,10,10.7c4.9,0,8.5-2.7,9.2-6.6L58.4,67.4L58.4,67.4z M74,73.9c3,0,5.4-1.5,6.5-3.9h0.1v3.5h4.8V45.4h-4.9v11h-0.1
	c-1.2-2.4-3.7-3.9-6.4-3.8c-5.2,0-8.6,4.1-8.6,10.7C65.4,69.8,68.8,73.9,74,73.9L74,73.9z M75.4,56.6c3.1,0,5.1,2.6,5.1,6.7
	c0,4.1-2,6.7-5.1,6.7c-3.1,0-5.1-2.6-5.1-6.7C70.4,59.1,72.3,56.6,75.4,56.6L75.4,56.6z M98.6,74c6.1,0,10-4,10-10.8
	c0-6.7-4-10.8-10-10.8s-10,4.1-10,10.8C88.6,70,92.5,74,98.6,74L98.6,74z M98.6,70.2c-3.1,0-5.1-2.5-5.1-6.9c0-4.4,2-6.9,5.1-6.9
	c3.1,0,5.1,2.5,5.1,6.9C103.7,67.7,101.7,70.2,98.6,70.2L98.6,70.2z M127.3,70.3c-2.1,0-3.5-1.1-3.5-2.8c0-1.6,1.3-2.7,3.7-2.9
	l4.8-0.3v1.6C132.3,68.4,130.1,70.3,127.3,70.3L127.3,70.3z M125.9,73.9c2.7,0,5.3-1.4,6.4-3.6h0.1v3.3h4.7V59.3
	c0-4.2-3.3-6.9-8.5-6.9c-5.3,0-8.6,2.8-8.8,6.6h4.5c0.3-1.7,1.8-2.8,4.1-2.8c2.4,0,3.9,1.2,3.9,3.4v1.5l-5.5,0.3
	c-5,0.3-7.9,2.5-7.9,6.2C118.9,71.4,121.9,73.9,125.9,73.9L125.9,73.9z M149.1,73.6h4.9V45.4h-4.9V73.6z M165.7,70.3
	c-2.1,0-3.5-1.1-3.5-2.8c0-1.6,1.3-2.7,3.7-2.9l4.8-0.3v1.6C170.7,68.4,168.5,70.3,165.7,70.3L165.7,70.3z M164.2,73.9
	c2.7,0,5.2-1.4,6.4-3.6h0.1v3.3h4.7V59.3c0-4.2-3.3-6.9-8.5-6.9c-5.3,0-8.6,2.8-8.8,6.6h4.5c0.3-1.7,1.8-2.8,4.1-2.8
	c2.4,0,3.9,1.2,3.9,3.4v1.5l-5.5,0.3c-5,0.3-7.9,2.5-7.9,6.2C157.3,71.4,160.2,73.9,164.2,73.9L164.2,73.9z M11.1,118
	c6.1,0,10-4,10-10.8c0-6.7-4-10.8-10-10.8s-10,4.1-10,10.8C1.1,114,5,118,11.1,118z M11.1,114.2c-3.1,0-5.1-2.5-5.1-6.9
	c0-4.4,2-6.9,5.1-6.9c3.1,0,5.1,2.5,5.1,6.9C16.2,111.7,14.2,114.2,11.1,114.2z M23.9,102.8c0,3.1,2,5,6,5.9l3.4,0.8
	c2.2,0.5,2.9,1.2,2.9,2.4c0,1.5-1.5,2.5-3.8,2.5c-2.5,0-3.8-1-4.2-3h-4.8c0.4,4,3.6,6.6,9,6.6c5.1,0,8.7-2.6,8.7-6.5
	c0-3-1.7-4.7-6-5.6l-3.4-0.8c-2.2-0.5-3-1.3-3-2.5c0-1.5,1.4-2.5,3.6-2.5c2.2,0,3.6,1.2,3.8,3.1h4.5c-0.1-3.9-3.3-6.6-8.4-6.6
	C27.2,96.5,23.9,99,23.9,102.8L23.9,102.8z M62.4,104.3c-0.3-4.4-3.7-7.8-9.2-7.8c-6,0-9.9,4.2-9.9,10.8c0,6.7,3.9,10.8,10,10.8
	c5.2,0,8.8-3,9.2-7.7h-4.6c-0.4,2.3-2,3.8-4.5,3.8c-3.1,0-5.1-2.5-5.1-6.8c0-4.3,2-6.8,5-6.8c2.6,0,4.1,1.7,4.5,3.9H62.4z
	 M83.7,96.9h-4.9v12c0,3-1.7,5-4.5,5c-2.7,0-4.2-1.6-4.2-4.6V96.9h-4.9v13.4c0,4.8,2.8,7.7,7.3,7.7c3.1,0,5.2-1.4,6.3-4H79v3.6h4.7
	V96.9L83.7,96.9z M87.6,117.6h4.9v-12.1c0-2.9,1.7-4.7,4.4-4.7c0.7,0,1.3,0.1,2,0.3v-4.4c-0.5-0.1-1-0.2-1.5-0.2c-2.4,0-4.3,1.4-5,4
	h-0.1v-3.6h-4.7L87.6,117.6L87.6,117.6z M101.5,117.6h4.9V96.9h-4.9V117.6z M103.9,93.8c1.5,0,2.6-1.2,2.6-2.7
	c0-1.5-1.2-2.6-2.7-2.6c-1.4,0-2.6,1.2-2.6,2.6C101.2,92.6,102.4,93.8,103.9,93.8C103.9,93.8,103.9,93.8,103.9,93.8L103.9,93.8z
	 M118.2,117.9c3,0,5.4-1.5,6.5-3.9h0.1v3.5h4.8V89.4h-4.9v11h-0.1c-1.2-2.4-3.7-3.9-6.4-3.8c-5.2,0-8.6,4.1-8.6,10.7
	C109.6,113.8,112.9,117.9,118.2,117.9L118.2,117.9z M119.6,100.6c3.1,0,5.1,2.6,5.1,6.7c0,4.1-2,6.7-5.1,6.7c-3.1,0-5.1-2.6-5.1-6.7
	C114.6,103.1,116.5,100.6,119.6,100.6L119.6,100.6z M141.2,114.3c-2.1,0-3.5-1.1-3.5-2.8c0-1.6,1.3-2.7,3.7-2.9l4.8-0.3v1.6
	C146.1,112.4,143.9,114.3,141.2,114.3L141.2,114.3z M139.7,117.9c2.7,0,5.3-1.4,6.4-3.6h0.1v3.3h4.7v-14.3c0-4.2-3.3-6.9-8.5-6.9
	c-5.3,0-8.6,2.8-8.8,6.6h4.5c0.3-1.7,1.8-2.8,4.1-2.8c2.4,0,3.9,1.2,3.9,3.4v1.5l-5.5,0.3c-5,0.3-7.9,2.5-7.9,6.2
	C132.8,115.4,135.7,117.9,139.7,117.9L139.7,117.9z M162.6,117.9c3,0,5.4-1.5,6.5-3.9h0.1v3.5h4.8V89.4h-4.9v11H169
	c-1.2-2.4-3.7-3.9-6.4-3.8c-5.2,0-8.6,4.1-8.6,10.7C154,113.8,157.4,117.9,162.6,117.9L162.6,117.9z M164.1,100.6
	c3.1,0,5.1,2.6,5.1,6.7c0,4.1-2,6.7-5.1,6.7c-3.1,0-5.1-2.6-5.1-6.7C159,103.1,160.9,100.6,164.1,100.6L164.1,100.6z M177.1,97.1
	h4.6c0.2-2.4,1.8-4,4.3-4c2.5,0,4.1,1.5,4.1,3.6c0,1.9-0.8,3-3.2,4.5c-2.7,1.6-3.8,3.3-3.7,6.2l0,1.4h4.5v-1.1c0-2,0.7-3,3.3-4.5
	c2.7-1.6,4.1-3.7,4.1-6.7c0-4.3-3.6-7.4-8.9-7.4C180.5,89.2,177.3,92.5,177.1,97.1L177.1,97.1z M185.6,118c1.5,0,2.7-1.3,2.7-2.8
	c0-1.5-1.3-2.7-2.8-2.7c-1.5,0-2.7,1.3-2.7,2.8C182.7,116.8,184,118,185.6,118C185.5,118,185.5,118,185.6,118L185.6,118z"/>
</svg>
