<?xml version="1.0" encoding="utf-8"?>
<!-- Generator: Adobe Illustrator 21.1.0, SVG Export Plug-In . SVG Version: 6.00 Build 0)  -->
<svg version="1.1" id="Layer_1" xmlns="http://www.w3.org/2000/svg" xmlns:xlink="http://www.w3.org/1999/xlink" x="0px" y="0px"
	 viewBox="0 0 168 28" style="enable-background:new 0 0 168 28;" xml:space="preserve">
<style type="text/css">
	.st0{fill:#888888;}
</style>
<path id="_50_S6_Sub_1_large_1x.svg" class="st0" d="M9,20.8c4.2,0,6.8-2.1,6.8-5.6c0-2.6-1.9-4.5-4.6-4.8v-0.1
	c2.1-0.4,3.6-2.2,3.6-4.3c0-3-2.3-5-5.9-5H0.7v19.8H9L9,20.8z M4.3,3.8H8c2.1,0,3.3,1,3.3,2.7c0,1.9-1.4,2.9-3.8,2.9H4.3V3.8z
	 M4.3,18v-6.1H8c2.7,0,4.1,1,4.1,3s-1.4,3.1-4,3.1H4.3z M23.4,18.4c-1.5,0-2.5-0.8-2.5-2c0-1.1,0.9-1.9,2.6-2l3.3-0.2v1.1
	C26.9,17.1,25.4,18.4,23.4,18.4z M22.4,21c1.9,0,3.6-1,4.5-2.5H27v2.3h3.3v-10c0-2.9-2.3-4.8-5.9-4.8c-3.7,0-6,2-6.2,4.6h3.2
	c0.2-1.2,1.2-2,2.9-2c1.7,0,2.7,0.9,2.7,2.4v1l-3.8,0.2c-3.5,0.2-5.5,1.8-5.5,4.4C17.6,19.2,19.6,21,22.4,21z M34.1,2.9v3.4h-2.1
	v2.6h2.1v8c0,2.8,1.2,3.9,4.4,3.9c0.6,0,1.2,0,1.8-0.1v-2.6c-0.2,0-0.7,0-1,0c-1.2,0-1.8-0.5-1.8-1.8V8.9h2.7V6.2h-2.7V2.8L34.1,2.9
	L34.1,2.9z M48.8,8.6c2,0,3.3,1.5,3.3,3.5h-6.8C45.5,10,46.8,8.6,48.8,8.6L48.8,8.6z M52.1,16.4c-0.4,1.2-1.6,2-3.2,2
	c-2.2,0-3.7-1.5-3.7-3.9v-0.2h10.1v-1.1c0-4.4-2.6-7.2-6.7-7.2c-4.2,0-6.8,3-6.8,7.6s2.6,7.5,7,7.5c3.4,0,6-1.9,6.4-4.6H52.1
	L52.1,16.4z M57.8,20.8h3.4v-8.5c0-2,1.2-3.2,3.1-3.2c0.5,0,0.9,0,1.4,0.1v-3C65.3,6.1,65,6,64.6,6c-1.7,0-3,1-3.5,2.8h-0.1V6.2
	h-3.3L57.8,20.8L57.8,20.8z M67.7,20.8h3.4V6.2h-3.4V20.8z M70.6,4.2L73.8,0h-3.2l-2.4,4.2H70.6z M79.5,18.4c-1.5,0-2.5-0.8-2.5-2
	c0-1.1,0.9-1.9,2.6-2l3.3-0.2v1.1C82.9,17.1,81.4,18.4,79.5,18.4L79.5,18.4z M78.4,21c1.9,0,3.6-1,4.5-2.5H83v2.3h3.3v-10
	C86.3,7.9,84,6,80.4,6c-3.7,0-6,2-6.2,4.6h3.2c0.2-1.2,1.2-2,2.9-2c1.7,0,2.7,0.9,2.7,2.4v1l-3.8,0.2c-3.5,0.2-5.5,1.8-5.5,4.4
	C73.6,19.2,75.6,21,78.4,21L78.4,21z M96.7,26.1c3.3,0,4.9-1.2,6.1-4.9l5.2-15h-3.6L101,17.9H101L97.6,6.2h-3.7L99,20.8
	c0,0-0.2,0.8-0.2,0.8c-0.4,1.4-1.1,1.9-2.5,1.9c-0.2,0-0.8,0-1,0v2.7C95.5,26.1,96.5,26.1,96.7,26.1L96.7,26.1z M128.4,11.4
	c-0.2-3-2.6-5.5-6.4-5.5c-4.2,0-6.9,2.9-6.9,7.5c0,4.7,2.7,7.5,7,7.5c3.6,0,6.1-2.1,6.4-5.4h-3.2c-0.2,1.6-1.6,2.7-3.2,2.6
	c-2.2,0-3.6-1.8-3.6-4.8c0-3,1.4-4.8,3.5-4.8c1.6-0.1,3,1.1,3.2,2.7H128.4z M130.8,20.8h3.4v-8.4c0-2.1,1.2-3.5,3.3-3.5
	c2,0,3,1.2,3,3.2v8.6h3.4v-9.4c0-3.3-1.9-5.4-5.1-5.4c-2.2,0-3.8,1-4.6,2.8h-0.1V1h-3.4L130.8,20.8L130.8,20.8z M146.8,20.8h3.4V6.2
	h-3.4V20.8z M148.5,4c1,0,1.9-0.8,1.9-1.8c0,0,0,0,0-0.1c0-1-0.8-1.9-1.9-1.9c-1,0-1.9,0.8-1.9,1.9C146.7,3.2,147.5,4,148.5,4
	C148.5,4,148.5,4,148.5,4L148.5,4z M161.3,6c-1.9-0.1-3.7,1-4.6,2.8h-0.1V6.2h-3.3v19.2h3.4v-7.1h0.1c0.9,1.7,2.6,2.7,4.5,2.6
	c3.6,0,6-2.9,6-7.5C167.3,8.9,164.9,6,161.3,6L161.3,6z M160.2,18.2c-2.1,0-3.5-1.9-3.5-4.7c0-2.8,1.4-4.7,3.5-4.7
	c2.2,0,3.6,1.9,3.6,4.7S162.4,18.2,160.2,18.2L160.2,18.2z"/>
</svg>
