<?xml version="1.0" encoding="utf-8"?>
<!-- Generator: Adobe Illustrator 21.1.0, SVG Export Plug-In . SVG Version: 6.00 Build 0)  -->
<svg version="1.1" id="Layer_1" xmlns="http://www.w3.org/2000/svg" xmlns:xlink="http://www.w3.org/1999/xlink" x="0px" y="0px"
	 viewBox="0 0 128 20" style="enable-background:new 0 0 128 20;" xml:space="preserve">
<style type="text/css">
	.st0{fill:#888888;}
</style>
<path id="_50_S6_Sub_1_small_1x.svg" class="st0" d="M7.2,15.5c3.2,0,5.1-1.6,5.1-4.2c0-1.9-1.5-3.5-3.4-3.6V7.7
	c1.6-0.3,2.7-1.6,2.7-3.2c0-2.2-1.7-3.7-4.4-3.7H1v14.8L7.2,15.5L7.2,15.5z M3.7,2.8h2.8c1.6,0,2.5,0.7,2.5,2C9,6.2,7.9,7,6.1,7H3.6
	L3.7,2.8L3.7,2.8z M3.7,13.5V8.9h2.8c2,0,3.1,0.8,3.1,2.3c0,1.5-1,2.3-3,2.3H3.7L3.7,13.5z M18.1,13.8c-1.1,0-1.8-0.6-1.8-1.5
	c0-0.9,0.7-1.4,1.9-1.5l2.5-0.2v0.8C20.7,12.8,19.6,13.8,18.1,13.8z M17.3,15.7c1.4,0,2.7-0.7,3.4-1.9h0.1v1.7h2.5V8.1
	c0-2.2-1.8-3.6-4.4-3.6c-2.8,0-4.5,1.5-4.6,3.5h2.4c0.2-0.9,0.9-1.5,2.1-1.5c1.3,0,2,0.7,2,1.8V9l-2.9,0.2c-2.6,0.2-4.1,1.3-4.1,3.2
	C13.7,14.4,15.2,15.7,17.3,15.7z M26.2,2.1v2.5h-1.6v2h1.6v6c0,2.1,0.9,2.9,3.3,2.9c0.4,0,0.9,0,1.3-0.1v-1.9
	c-0.2,0-0.5,0.1-0.7,0.1c-0.9,0-1.3-0.4-1.3-1.3V6.6h2v-2h-2V2.1H26.2L26.2,2.1z M37.3,6.4c1.5,0,2.5,1.1,2.5,2.6h-5.1
	C34.8,7.5,35.8,6.4,37.3,6.4L37.3,6.4z M39.8,12.3c-0.3,0.9-1.2,1.5-2.4,1.5c-1.7,0-2.7-1.2-2.7-2.9v-0.2h7.6V9.9
	c0-3.3-1.9-5.4-5-5.4c-3.1,0-5.1,2.3-5.1,5.7c0,3.5,2,5.6,5.2,5.6c2.6,0,4.5-1.4,4.8-3.5H39.8L39.8,12.3z M44.2,15.5h2.6V9.2
	c0-1.5,0.9-2.5,2.3-2.5c0.4,0,0.7,0,1,0.1V4.6c-0.3-0.1-0.5-0.1-0.8-0.1c-1.3,0-2.4,0.9-2.6,2.1h0V4.7h-2.5L44.2,15.5L44.2,15.5z
	 M51.7,15.5h2.6V4.7h-2.6V15.5z M53.8,3.2L56.2,0h-2.4L52,3.2H53.8z M60.6,13.8c-1.1,0-1.8-0.6-1.8-1.5c0-0.9,0.7-1.4,1.9-1.5
	l2.5-0.2v0.8C63.2,12.8,62,13.8,60.6,13.8L60.6,13.8z M59.8,15.7c1.4,0,2.7-0.7,3.4-1.9h0v1.7h2.5V8.1c0-2.2-1.8-3.6-4.5-3.6
	c-2.8,0-4.5,1.5-4.6,3.5H59c0.2-0.9,0.9-1.5,2.1-1.5c1.3,0,2,0.7,2,1.8V9l-2.9,0.2c-2.6,0.2-4.1,1.3-4.1,3.2
	C56.2,14.4,57.7,15.7,59.8,15.7L59.8,15.7z M73.6,19.6c2.5,0,3.7-0.9,4.6-3.6l3.9-11.3h-2.7l-2.6,8.7h0l-2.6-8.7h-2.8l3.9,10.9
	c0,0-0.2,0.6-0.2,0.6c-0.1,0.9-1,1.5-1.9,1.4c-0.2,0-0.5,0-0.7,0v2C72.8,19.6,73.5,19.6,73.6,19.6L73.6,19.6z M97.6,8.5
	c-0.2-2.3-2-4.1-4.8-4.1c-3.2,0-5.2,2.2-5.2,5.7c0,3.5,2,5.6,5.2,5.6c2.7,0,4.6-1.6,4.8-4h-2.4c-0.1,1.2-1.2,2-2.4,2
	c-1.6,0-2.7-1.3-2.7-3.6c0-2.2,1-3.6,2.6-3.6c1.2,0,2.2,0.8,2.4,2L97.6,8.5L97.6,8.5z M99.4,15.5h2.6V9.3c0-1.6,0.9-2.7,2.5-2.7
	c1.5,0,2.2,0.9,2.2,2.4v6.5h2.6v-7c0-2.5-1.4-4.1-3.8-4.1c-1.6,0-2.9,0.8-3.4,2.1h0V0.7h-2.5L99.4,15.5L99.4,15.5z M111.6,15.5h2.6
	V4.7h-2.6V15.5z M112.9,3c0.8,0,1.4-0.6,1.4-1.4s-0.6-1.4-1.4-1.4c-0.8,0-1.4,0.6-1.4,1.4C111.5,2.4,112.1,3,112.9,3L112.9,3z
	 M122.5,4.5c-1.4,0-2.8,0.8-3.4,2.1h0V4.7h-2.5v14.4h2.6v-5.4h0c0.6,1.3,2,2,3.4,2c2.7,0,4.5-2.1,4.5-5.6
	C127,6.6,125.2,4.5,122.5,4.5L122.5,4.5z M121.7,13.6c-1.6,0-2.6-1.4-2.7-3.5c0-2.1,1.1-3.5,2.7-3.5c1.6,0,2.7,1.4,2.7,3.5
	C124.4,12.3,123.4,13.6,121.7,13.6L121.7,13.6z"/>
</svg>
