<?xml version="1.0" encoding="utf-8"?>
<!-- Generator: Adobe Illustrator 21.1.0, SVG Export Plug-In . SVG Version: 6.00 Build 0)  -->
<svg version="1.1" id="Layer_1" xmlns="http://www.w3.org/2000/svg" xmlns:xlink="http://www.w3.org/1999/xlink" x="0px" y="0px"
	 viewBox="0 0 292 120" style="enable-background:new 0 0 292 120;" xml:space="preserve">
<style type="text/css">
	.st0{fill:#FFFFFF;}
</style>
<path id="_50_S6_Title_1_medium_1x.svg" class="st0" d="M30.4,29.6V1.4h-5.8l-8.6,21.5h-0.2L7.1,1.4H1.3v28.2h4.5v-20H6l8.1,20h3.4
	l8.1-20h0.1v20H30.4L30.4,29.6z M53.2,8.9h-4.9v12c0,3-1.7,5-4.5,5c-2.7,0-4.2-1.6-4.2-4.6V8.9h-4.9v13.4c0,4.8,2.9,7.7,7.3,7.7
	c3.1,0,5.2-1.4,6.3-4h0.1v3.6h4.7L53.2,8.9L53.2,8.9z M75.4,16.3c-0.3-4.4-3.7-7.8-9.2-7.8c-6,0-9.9,4.2-9.9,10.8
	c0,6.7,3.9,10.8,10,10.8c5.2,0,8.8-3,9.2-7.7h-4.6c-0.5,2.3-2,3.8-4.5,3.8c-3.1,0-5.1-2.5-5.1-6.8c0-4.3,2-6.8,5-6.8
	c2.6,0,4.1,1.7,4.5,3.9H75.4z M78.5,29.6h4.9V17.7c0-3,1.8-5.1,4.7-5.1c2.8,0,4.3,1.7,4.3,4.6v12.3h4.9V16.3c0-4.7-2.7-7.8-7.2-7.8
	c-3.1,0-5.4,1.4-6.5,3.9h-0.1v-11h-4.8V29.6L78.5,29.6z M108.6,26.3c-2.1,0-3.5-1.1-3.5-2.8c0-1.6,1.4-2.7,3.7-2.9l4.8-0.3v1.6
	C113.6,24.4,111.4,26.3,108.6,26.3L108.6,26.3z M107.2,29.9c2.7,0,5.3-1.4,6.4-3.6h0.1v3.3h4.7V15.3c0-4.2-3.3-6.9-8.5-6.9
	c-5.3,0-8.6,2.8-8.8,6.6h4.5c0.3-1.7,1.8-2.8,4.1-2.8c2.4,0,3.9,1.2,3.9,3.4v1.5l-5.5,0.3c-5,0.3-7.9,2.5-7.9,6.2
	C100.2,27.4,103.2,29.9,107.2,29.9L107.2,29.9z M130.3,29.6h4.9V16.9c0-2.5,1.6-4.3,4-4.3c2.3,0,3.7,1.4,3.7,3.7v13.3h4.7V16.8
	c0-2.5,1.6-4.2,3.9-4.2c2.4,0,3.7,1.4,3.7,4v13h4.9V15.4c0-4.1-2.7-6.9-6.8-6.9c-3,0-5.4,1.6-6.4,4.2h-0.1c-0.8-2.7-2.9-4.2-5.8-4.2
	c-2.6-0.1-5,1.5-5.9,4H135V8.9h-4.7L130.3,29.6L130.3,29.6z M171.5,26.3c-2.1,0-3.5-1.1-3.5-2.8c0-1.6,1.3-2.7,3.7-2.9l4.8-0.3v1.6
	C176.5,24.4,174.3,26.3,171.5,26.3L171.5,26.3z M170,29.9c2.7,0,5.3-1.4,6.4-3.6h0.1v3.3h4.7V15.3c0-4.2-3.3-6.9-8.5-6.9
	c-5.3,0-8.6,2.8-8.8,6.6h4.5c0.3-1.7,1.8-2.8,4.1-2.8c2.4,0,3.9,1.2,3.9,3.4v1.5l-5.5,0.3c-5,0.3-7.9,2.5-7.9,6.2
	C163.1,27.4,166,29.9,170,29.9L170,29.9z M174.3,6l4.6-6h-4.6l-3.4,6H174.3z M184.8,14.8c0,3.1,2,5,6,5.9l3.4,0.8
	c2.2,0.5,2.9,1.2,2.9,2.4c0,1.5-1.5,2.5-3.8,2.5c-2.5,0-3.8-1-4.2-3h-4.8c0.4,4,3.6,6.6,9,6.6c5.1,0,8.7-2.6,8.7-6.5
	c0-3-1.7-4.7-6-5.6l-3.4-0.8c-2.2-0.5-3-1.3-3-2.5c0-1.5,1.4-2.5,3.6-2.5c2.2,0,3.6,1.2,3.8,3.1h4.5c-0.1-3.9-3.3-6.6-8.4-6.6
	C188.1,8.5,184.8,11,184.8,14.8L184.8,14.8z M12.2,52.5c-2.8-0.1-5.3,1.4-6.5,3.9H5.6v-3.6H0.8v27.5h4.9V70.2h0.1
	c1.1,2.3,3.5,3.8,6.5,3.8c5.2,0,8.5-4.1,8.5-10.7C20.8,56.6,17.4,52.5,12.2,52.5L12.2,52.5z M10.7,69.9c-3,0-5-2.6-5.1-6.7
	c0-4,2-6.7,5.1-6.7c3.1,0,5.1,2.6,5.1,6.7C15.8,67.4,13.8,69.9,10.7,69.9L10.7,69.9z M33.1,74c6.1,0,10-4,10-10.8
	c0-6.7-4-10.8-10-10.8s-10,4.1-10,10.8C23,70,27,74,33.1,74L33.1,74z M33.1,70.2c-3.1,0-5.1-2.5-5.1-6.9c0-4.4,2-6.9,5.1-6.9
	c3.1,0,5.1,2.5,5.1,6.9C38.1,67.7,36.1,70.2,33.1,70.2L33.1,70.2z M47.5,48.1v4.8h-3v3.8h3v11.4c0,4,1.8,5.6,6.2,5.6
	c0.8,0,1.7,0,2.5-0.2v-3.7c-0.5,0.1-0.9,0.1-1.4,0.1c-1.7,0-2.5-0.8-2.5-2.5V56.6h3.9v-3.8h-3.9v-4.8L47.5,48.1L47.5,48.1z
	 M68.2,56.2c2.8,0,4.7,2.1,4.8,5h-9.7C63.5,58.3,65.4,56.2,68.2,56.2L68.2,56.2z M72.9,67.4c-0.5,1.7-2.2,2.9-4.5,2.9
	c-3.2,0-5.2-2.2-5.2-5.5v-0.3h14.5v-1.6c0-6.3-3.7-10.4-9.5-10.4c-6,0-9.8,4.3-9.8,10.9c0,6.6,3.8,10.7,10,10.7
	c4.9,0,8.5-2.7,9.2-6.6L72.9,67.4L72.9,67.4z M80.8,73.6h4.9v-12c0-3,1.8-5,4.6-5c2.8,0,4.1,1.6,4.1,4.6v12.4h4.9V60.2
	c0-4.8-2.6-7.7-7.2-7.7c-3.2,0-5.4,1.5-6.5,3.9h-0.1v-3.6h-4.7L80.8,73.6L80.8,73.6z M121.4,60.3c-0.3-4.4-3.7-7.8-9.2-7.8
	c-6,0-9.9,4.2-9.9,10.8c0,6.7,3.9,10.8,10,10.8c5.2,0,8.8-3,9.2-7.7h-4.6c-0.5,2.3-2,3.8-4.5,3.8c-3.1,0-5.1-2.5-5.1-6.8
	c0-4.3,2-6.8,5-6.8c2.6,0,4.1,1.7,4.5,3.9H121.4z M124.4,73.6h4.9V52.9h-4.9V73.6z M126.8,49.8c1.5,0,2.6-1.2,2.6-2.7
	c0-1.5-1.2-2.6-2.7-2.6c-1.4,0-2.6,1.2-2.6,2.6C124.2,48.6,125.3,49.8,126.8,49.8C126.8,49.8,126.8,49.8,126.8,49.8L126.8,49.8z
	 M140.9,70.3c-2.1,0-3.5-1.1-3.5-2.8c0-1.6,1.3-2.7,3.7-2.9l4.8-0.3v1.6C145.9,68.4,143.7,70.3,140.9,70.3L140.9,70.3z M139.4,73.9
	c2.7,0,5.3-1.4,6.4-3.6h0.1v3.3h4.7V59.3c0-4.2-3.3-6.9-8.5-6.9c-5.3,0-8.6,2.8-8.8,6.6h4.5c0.3-1.7,1.8-2.8,4.1-2.8
	c2.4,0,3.9,1.2,3.9,3.4v1.5l-5.5,0.3c-5,0.3-7.9,2.5-7.9,6.2C132.5,71.4,135.4,73.9,139.4,73.9L139.4,73.9z M158,73.8
	c1.6,0,2.8-1.3,2.8-2.8c0-1.6-1.3-2.8-2.8-2.8c-1.6,0-2.8,1.3-2.8,2.8l0,0C155.1,72.5,156.4,73.8,158,73.8
	C157.9,73.8,158,73.8,158,73.8L158,73.8z M200.7,73.6V45.4h-5.8l-8.6,21.5h-0.2l-8.6-21.5h-5.8v28.2h4.5v-20h0.1l8.1,20h3.4l8.1-20
	h0.1v20H200.7z M223.6,52.9h-4.9v12c0,3-1.7,5-4.6,5c-2.7,0-4.2-1.6-4.2-4.6V52.9h-4.9v13.4c0,4.8,2.8,7.7,7.3,7.7
	c3.1,0,5.2-1.4,6.3-4h0.1v3.6h4.7V52.9L223.6,52.9z M245.8,60.3c-0.3-4.4-3.7-7.8-9.2-7.8c-6,0-9.9,4.2-9.9,10.8
	c0,6.7,3.9,10.8,10,10.8c5.2,0,8.8-3,9.2-7.7h-4.6c-0.5,2.3-2.1,3.8-4.5,3.8c-3.1,0-5.1-2.5-5.1-6.8c0-4.3,2-6.8,5-6.8
	c2.6,0,4.1,1.7,4.5,3.9H245.8L245.8,60.3z M248.8,73.6h4.9V61.7c0-3,1.8-5.1,4.7-5.1c2.8,0,4.3,1.7,4.3,4.6v12.3h4.9V60.3
	c0-4.7-2.7-7.8-7.2-7.8c-3.1,0-5.4,1.4-6.5,3.9h-0.1v-11h-4.8L248.8,73.6L248.8,73.6z M279,70.3c-2.1,0-3.5-1.1-3.5-2.8
	c0-1.6,1.3-2.7,3.7-2.9l4.8-0.3v1.6C283.9,68.4,281.7,70.3,279,70.3L279,70.3z M277.5,73.9c2.7,0,5.3-1.4,6.4-3.6h0.1v3.3h4.7V59.3
	c0-4.2-3.3-6.9-8.5-6.9c-5.3,0-8.6,2.8-8.8,6.6h4.5c0.3-1.7,1.8-2.8,4.1-2.8c2.4,0,3.9,1.2,3.9,3.4v1.5l-5.5,0.3
	c-5,0.3-7.9,2.5-7.9,6.2C270.6,71.4,273.5,73.9,277.5,73.9L277.5,73.9z M0.8,117.6h4.9v-12.7c0-2.5,1.6-4.3,4-4.3
	c2.3,0,3.7,1.4,3.7,3.7v13.3h4.7v-12.8c0-2.5,1.6-4.2,3.9-4.2c2.4,0,3.7,1.4,3.7,4v13h4.9v-14.2c0-4.1-2.7-6.9-6.8-6.9
	c-3,0-5.5,1.6-6.4,4.2h-0.1c-0.8-2.7-2.9-4.2-5.8-4.2c-2.6-0.1-5,1.5-5.9,4H5.5v-3.6H0.8V117.6L0.8,117.6z M42,114.3
	c-2.1,0-3.5-1.1-3.5-2.8c0-1.6,1.4-2.7,3.7-2.9l4.8-0.3v1.6C47,112.4,44.8,114.3,42,114.3L42,114.3z M40.6,117.9
	c2.7,0,5.3-1.4,6.4-3.6h0.1v3.3h4.7v-14.3c0-4.2-3.3-6.9-8.5-6.9c-5.3,0-8.6,2.8-8.8,6.6H39c0.3-1.7,1.8-2.8,4.1-2.8
	c2.4,0,3.9,1.2,3.9,3.4v1.5l-5.5,0.3c-5,0.3-7.9,2.5-7.9,6.2C33.6,115.4,36.6,117.9,40.6,117.9L40.6,117.9z M44.8,94l4.6-6h-4.6
	l-3.4,6H44.8L44.8,94z M55.3,102.8c0,3.1,2,5,6,5.9l3.4,0.8c2.2,0.5,2.9,1.2,2.9,2.4c0,1.5-1.5,2.5-3.8,2.5c-2.5,0-3.9-1-4.2-3h-4.8
	c0.4,4,3.6,6.6,9,6.6c5.1,0,8.7-2.6,8.7-6.5c0-3-1.7-4.7-6-5.6l-3.4-0.8c-2.2-0.5-3-1.3-3-2.5c0-1.5,1.4-2.5,3.6-2.5
	c2.2,0,3.6,1.2,3.8,3.1H72c-0.1-3.9-3.3-6.6-8.4-6.6C58.6,96.5,55.3,99,55.3,102.8L55.3,102.8z M91.1,114.3c-2.1,0-3.5-1.1-3.5-2.8
	c0-1.6,1.4-2.7,3.7-2.9l4.8-0.3v1.6C96.1,112.4,93.9,114.3,91.1,114.3L91.1,114.3z M89.7,117.9c2.7,0,5.3-1.4,6.4-3.6h0.1v3.3h4.7
	v-14.3c0-4.2-3.3-6.9-8.5-6.9c-5.3,0-8.6,2.8-8.8,6.6h4.5c0.3-1.7,1.8-2.8,4.1-2.8c2.4,0,3.9,1.2,3.9,3.4v1.5l-5.5,0.3
	c-5,0.3-7.9,2.5-7.9,6.2C82.8,115.4,85.7,117.9,89.7,117.9L89.7,117.9z M123.2,96.9h-4.9v12c0,3-1.7,5-4.5,5c-2.7,0-4.2-1.6-4.2-4.6
	V96.9h-4.9v13.4c0,4.8,2.9,7.7,7.3,7.7c3.1,0,5.2-1.4,6.3-4h0.1v3.6h4.7L123.2,96.9L123.2,96.9z M128.5,92.1v4.8h-3v3.8h3v11.4
	c0,4,1.8,5.6,6.2,5.6c0.8,0,1.7,0,2.5-0.2v-3.7c-0.5,0.1-0.9,0.1-1.4,0.1c-1.7,0-2.5-0.8-2.5-2.5v-10.8h3.9v-3.8h-3.9v-4.8
	L128.5,92.1L128.5,92.1z M149.3,118c6.1,0,10-4,10-10.8c0-6.7-4-10.8-10-10.8s-10,4.1-10,10.8C139.3,114,143.3,118,149.3,118z
	 M149.3,114.2c-3.1,0-5.1-2.5-5.1-6.9c0-4.4,2-6.9,5.1-6.9c3.1,0,5.1,2.5,5.1,6.9C154.4,111.7,152.4,114.2,149.3,114.2z
	 M162.5,117.6h4.9v-12c0-3,1.8-5,4.6-5c2.8,0,4.1,1.6,4.1,4.6v12.4h4.9v-13.4c0-4.8-2.6-7.7-7.2-7.7c-3.2,0-5.4,1.5-6.5,3.9h-0.1
	v-3.6h-4.7L162.5,117.6L162.5,117.6z M194,118c6.1,0,10-4,10-10.8c0-6.7-4-10.8-10-10.8s-10,4.1-10,10.8
	C183.9,114,187.9,118,194,118L194,118z M194,114.2c-3.1,0-5.1-2.5-5.1-6.9c0-4.4,2-6.9,5.1-6.9c3.1,0,5.1,2.5,5.1,6.9
	C199,111.7,197,114.2,194,114.2L194,114.2z M207.1,117.6h4.9v-12.7c0-2.5,1.6-4.3,4-4.3c2.3,0,3.7,1.4,3.7,3.7v13.3h4.7v-12.8
	c0-2.5,1.6-4.2,3.9-4.2c2.4,0,3.7,1.4,3.7,4v13h4.9v-14.2c0-4.1-2.7-6.9-6.8-6.9c-3,0-5.5,1.6-6.4,4.2h-0.1
	c-0.8-2.7-2.8-4.2-5.8-4.2c-2.6-0.1-5,1.5-5.9,4h-0.1v-3.6h-4.7L207.1,117.6L207.1,117.6z M240.9,117.6h4.9V96.9h-4.9V117.6z
	 M245,94l4.6-6H245l-3.4,6H245z M257.4,114.3c-2.1,0-3.5-1.1-3.5-2.8c0-1.6,1.3-2.7,3.7-2.9l4.8-0.3v1.6
	C262.3,112.4,260.1,114.3,257.4,114.3L257.4,114.3z M255.9,117.9c2.7,0,5.3-1.4,6.4-3.6h0.1v3.3h4.7v-14.3c0-4.2-3.3-6.9-8.5-6.9
	c-5.3,0-8.6,2.8-8.8,6.6h4.5c0.3-1.7,1.8-2.8,4.1-2.8c2.4,0,3.9,1.2,3.9,3.4v1.5l-5.5,0.3c-5,0.3-7.9,2.5-7.9,6.2
	C249,115.4,251.9,117.9,255.9,117.9L255.9,117.9z M274.4,117.8c1.6,0,2.8-1.3,2.8-2.8c0-1.6-1.3-2.8-2.8-2.8s-2.8,1.3-2.8,2.8l0,0
	C271.6,116.5,272.8,117.8,274.4,117.8C274.4,117.8,274.4,117.8,274.4,117.8L274.4,117.8z M280.9,91.6h2.5c0-1.3,1.2-2.2,2.7-2.2
	c1.4,0,2.3,0.8,2.3,1.9c0,0.9-0.4,1.6-2.3,3.3l-5.1,4.6v2h10.2v-2.3h-6.7v-0.1l3.1-2.7c2.5-2.2,3.3-3.2,3.3-4.9c0-2.3-2-4-4.9-4
	C283,87.2,280.9,89,280.9,91.6L280.9,91.6z"/>
</svg>
