<svg xmlns="http://www.w3.org/2000/svg" xmlns:xlink="http://www.w3.org/1999/xlink" width="250" height="230" viewBox="0 0 250 230"><defs><path id="gqrtzh8owb" d="M97.902 13.986H55.944c-7.724 0-13.986 6.262-13.986 13.986V139.86c0 7.724 6.262 13.986 13.986 13.986h55.944c7.724 0 13.986-6.262 13.986-13.986V41.958L97.902 13.986z"/><path id="271qk3zq1c" d="M13.986 0h24.476c7.724 0 13.986 6.262 13.986 13.986v24.476c0 7.724-6.262 13.986-13.986 13.986H13.986C6.262 52.448 0 46.186 0 38.462V13.986C0 6.262 6.262 0 13.986 0z"/><path id="3j7xag9kif" d="M97.902 13.986H55.944c-7.724 0-13.986 6.262-13.986 13.986V139.86c0 7.724 6.262 13.986 13.986 13.986h55.944c7.724 0 13.986-6.262 13.986-13.986V41.958L97.902 13.986z"/><path id="rmx4wrn9zg" d="M13.986 0h24.476c7.724 0 13.986 6.262 13.986 13.986v24.476c0 7.724-6.262 13.986-13.986 13.986H13.986C6.262 52.448 0 46.186 0 38.462V13.986C0 6.262 6.262 0 13.986 0z"/><filter id="gmx5p044ia" width="110.7%" height="106.4%" x="-5.4%" y="-3.2%" filterUnits="objectBoundingBox"><feOffset in="SourceAlpha" result="shadowOffsetOuter1"/><feGaussianBlur in="shadowOffsetOuter1" result="shadowBlurOuter1" stdDeviation="1.5"/><feColorMatrix in="shadowBlurOuter1" values="0 0 0 0 0.808622056 0 0 0 0 0.808622056 0 0 0 0 0.808622056 0 0 0 0.403518357 0"/></filter><filter id="tyg651jure" width="110.7%" height="106.4%" x="-5.4%" y="-3.2%" filterUnits="objectBoundingBox"><feOffset in="SourceAlpha" result="shadowOffsetOuter1"/><feGaussianBlur in="shadowOffsetOuter1" result="shadowBlurOuter1" stdDeviation="1.5"/><feColorMatrix in="shadowBlurOuter1" values="0 0 0 0 0.808622056 0 0 0 0 0.808622056 0 0 0 0 0.808622056 0 0 0 0.403518357 0"/></filter></defs><g fill="none" fill-rule="evenodd"><g fill-rule="nonzero" transform="translate(0 26.224)"><use fill="#000" filter="url(#gmx5p044ia)" xlink:href="#gqrtzh8owb"/><use fill="#EBEBEB" xlink:href="#gqrtzh8owb"/></g><path fill="#000" fill-rule="nonzero" d="M55.944 178.322h55.944c7.724 0 13.986-6.262 13.986-13.986v1.748c0 7.724-6.262 13.986-13.986 13.986H55.944c-7.724 0-13.986-6.262-13.986-13.986v-1.748c0 7.724 6.262 13.986 13.986 13.986zm15.734-68.182h24.476c7.724 0 13.986 6.262 13.986 13.986v24.476c0 7.724-6.262 13.986-13.986 13.986H71.678c-7.724 0-13.986-6.262-13.986-13.986v-24.476c0-7.724 6.262-13.986 13.986-13.986z" opacity=".06"/><path d="M0 26.224h167.832v167.832H0z"/><path fill="#E60000" fill-rule="nonzero" d="M83.916 70.804a8.741 8.741 0 10-.002 17.482 8.741 8.741 0 00.003-17.482zm4.275 11.093a4.588 4.588 0 01-1.25 1.521 4.72 4.72 0 01-2.972 1.005h-.499a4.683 4.683 0 01-.751-.157 4.992 4.992 0 01-2.789-2.098 5.333 5.333 0 01-.638-1.407v-.114a5.782 5.782 0 01-.157-.874 6.07 6.07 0 010-.874v-.088c.025-.424.09-.846.192-1.258a7.57 7.57 0 012.456-3.916 8.225 8.225 0 012.395-1.408c.245-.096.481-.175.717-.245l.446-.122c.365-.09.736-.158 1.11-.2a4.316 4.316 0 011.101 0h.175a3.6 3.6 0 00-2.937 3.513v.114a5.755 5.755 0 011.845.708c.475.288.888.668 1.215 1.119l.07.105c.23.344.406.721.524 1.118a5 5 0 01.201 1.268v.175c.016.73-.14 1.455-.454 2.115z"/><g transform="translate(57.692 110.14)"><mask id="erql9reryd" fill="#fff"><use xlink:href="#271qk3zq1c"/></mask><g fill="#000" fill-rule="nonzero" mask="url(#erql9reryd)" opacity=".06"><path d="M17.483 32.343h17.482V20.105H17.483v12.238zm19.23-13.986V34.09H15.736V18.357h20.979z"/><path d="M13.986 0h-1.748v16.459l4.34 3.862 1.163-1.306-3.755-3.341zm3.755 33.328l-1.163-1.306-4.34 3.862v16.459h1.748V36.668zm17.071-14.305l1.181 1.29 4.217-3.862V0h-1.748v15.682zm3.65 33.32h1.748V35.891l-4.217-3.861-1.181 1.29 3.65 3.341zM-1.016 14.242l-1.236 1.236 11.619 11.62h7.792V25.35h-7.068zM35.402 25.35v1.748h7.793l11.619-11.62-1.236-1.236L42.47 25.35zM25.35 32.893v19.45h1.748v-19.45zm0-32.788v19.458h1.748V.105z"/></g></g><path fill="#F4F4F4" fill-rule="nonzero" d="M71.678 111.014c-7.241 0-13.112 5.87-13.112 13.112v24.476c0 7.241 5.87 13.112 13.112 13.112h24.476c7.241 0 13.112-5.87 13.112-13.112v-24.476c0-7.241-5.87-13.112-13.112-13.112H71.678zm0-1.748h24.476c8.207 0 14.86 6.653 14.86 14.86v24.476c0 8.207-6.653 14.86-14.86 14.86H71.678c-8.207 0-14.86-6.653-14.86-14.86v-24.476c0-8.207 6.653-14.86 14.86-14.86z"/><path fill="#000" fill-rule="nonzero" d="M71.678 111.014c-7.241 0-13.112 5.87-13.112 13.112v24.476c0 7.241 5.87 13.112 13.112 13.112h24.476c7.241 0 13.112-5.87 13.112-13.112v-24.476c0-7.241-5.87-13.112-13.112-13.112H71.678zm0-1.748h24.476c8.207 0 14.86 6.653 14.86 14.86v24.476c0 8.207-6.653 14.86-14.86 14.86H71.678c-8.207 0-14.86-6.653-14.86-14.86v-24.476c0-8.207 6.653-14.86 14.86-14.86z" opacity=".06"/><path fill="#000" fill-rule="nonzero" d="M71.678 111.014c-7.241 0-13.112 5.87-13.112 13.112v24.476c0 7.241 5.87 13.112 13.112 13.112h24.476c7.241 0 13.112-5.87 13.112-13.112v-24.476c0-7.241-5.87-13.112-13.112-13.112H71.678zm0-1.748h24.476c8.207 0 14.86 6.653 14.86 14.86v24.476c0 8.207-6.653 14.86-14.86 14.86H71.678c-8.207 0-14.86-6.653-14.86-14.86v-24.476c0-8.207 6.653-14.86 14.86-14.86z" opacity=".06"/><g fill-rule="nonzero" transform="rotate(29 50.553 198.923)"><use fill="#000" filter="url(#tyg651jure)" xlink:href="#3j7xag9kif"/><use fill="#EBEBEB" xlink:href="#3j7xag9kif"/></g><path fill="#000" fill-rule="nonzero" d="M77.97 160.583l48.929 27.122c6.756 3.744 15.268 1.303 19.013-5.452l-.847 1.529c-3.745 6.755-12.258 9.196-19.013 5.452l-48.93-27.123c-6.756-3.744-9.197-12.257-5.452-19.013l.847-1.528c-3.744 6.755-1.303 15.268 5.452 19.013zm46.816-52.006l21.407 11.866c6.756 3.745 9.197 12.258 5.452 19.013l-11.866 21.408c-3.745 6.755-12.258 9.196-19.013 5.452l-21.407-11.867c-6.756-3.744-9.197-12.257-5.452-19.013l11.866-21.407c3.745-6.755 12.257-9.196 19.013-5.452z" opacity=".06"/><path d="M102.778.432L249.568 81.8 168.2 228.589 21.41 147.221z"/><path fill="#E60000" fill-rule="nonzero" d="M154.56 80.106a8.741 8.741 0 10-8.477 15.29 8.741 8.741 0 008.478-15.29zm-1.64 11.775a4.588 4.588 0 01-1.83.724 4.72 4.72 0 01-3.086-.562l-.437-.241a4.683 4.683 0 01-.58-.502 4.992 4.992 0 01-1.423-3.187 5.333 5.333 0 01.124-1.54l.056-.1c.073-.287.17-.568.286-.84a6.07 6.07 0 01.424-.765l.042-.076c.228-.36.49-.697.778-1.008a7.57 7.57 0 014.047-2.234 8.225 8.225 0 012.777-.07c.261.034.506.08.746.133l.45.11c.362.098.72.218 1.067.363.343.136.667.315.963.534l.153.084a3.6 3.6 0 00-4.272 1.649l-.055.1c.507.427.937.939 1.27 1.513.276.483.453 1.015.52 1.568l.01.126c.035.412.006.827-.083 1.232a5 5 0 01-.439 1.206l-.085.153a4.687 4.687 0 01-1.422 1.63z"/><g transform="rotate(29 -140.533 268.504)"><mask id="k68gtn0w4h" fill="#fff"><use xlink:href="#rmx4wrn9zg"/></mask><g fill="#000" fill-rule="nonzero" mask="url(#k68gtn0w4h)" opacity=".06"><path d="M17.483 32.343h17.482V20.105H17.483v12.238zm19.23-13.986V34.09H15.736V18.357h20.979z"/><path d="M13.986 0h-1.748v16.459l4.34 3.862 1.163-1.306-3.755-3.341zm3.755 33.328l-1.163-1.306-4.34 3.862v16.459h1.748V36.668zm17.071-14.305l1.181 1.29 4.217-3.862V0h-1.748v15.682zm3.65 33.32h1.748V35.891l-4.217-3.861-1.181 1.29 3.65 3.341zM-1.016 14.242l-1.236 1.236 11.619 11.62h7.792V25.35h-7.068zM35.402 25.35v1.748h7.793l11.619-11.62-1.236-1.236L42.47 25.35zM25.35 32.893v19.45h1.748v-19.45zm0-32.788v19.458h1.748V.105z"/></g></g><path fill="#F4F4F4" fill-rule="nonzero" d="M124.362 109.342c-6.333-3.51-14.314-1.223-17.825 5.11L94.671 135.86c-3.51 6.333-1.223 14.314 5.111 17.825l21.407 11.866c6.334 3.51 14.314 1.223 17.825-5.111l11.866-21.407c3.511-6.333 1.223-14.314-5.11-17.825l-21.408-11.866zm.848-1.53l21.407 11.867c7.178 3.979 9.771 13.023 5.792 20.201l-11.866 21.407c-3.979 7.178-13.023 9.772-20.201 5.793l-21.407-11.866c-7.178-3.98-9.772-13.023-5.793-20.201l11.866-21.408c3.98-7.178 13.024-9.771 20.202-5.792z"/><path fill="#000" fill-rule="nonzero" d="M124.362 109.342c-6.333-3.51-14.314-1.223-17.825 5.11L94.671 135.86c-3.51 6.333-1.223 14.314 5.111 17.825l21.407 11.866c6.334 3.51 14.314 1.223 17.825-5.111l11.866-21.407c3.511-6.333 1.223-14.314-5.11-17.825l-21.408-11.866zm.848-1.53l21.407 11.867c7.178 3.979 9.771 13.023 5.792 20.201l-11.866 21.407c-3.979 7.178-13.023 9.772-20.201 5.793l-21.407-11.866c-7.178-3.98-9.772-13.023-5.793-20.201l11.866-21.408c3.98-7.178 13.024-9.771 20.202-5.792z" opacity=".06"/><path fill="#000" fill-rule="nonzero" d="M124.362 109.342c-6.333-3.51-14.314-1.223-17.825 5.11L94.671 135.86c-3.51 6.333-1.223 14.314 5.111 17.825l21.407 11.866c6.334 3.51 14.314 1.223 17.825-5.111l11.866-21.407c3.511-6.333 1.223-14.314-5.11-17.825l-21.408-11.866zm.848-1.53l21.407 11.867c7.178 3.979 9.771 13.023 5.792 20.201l-11.866 21.407c-3.979 7.178-13.023 9.772-20.201 5.793l-21.407-11.866c-7.178-3.98-9.772-13.023-5.793-20.201l11.866-21.408c3.98-7.178 13.024-9.771 20.202-5.792z" opacity=".06"/></g></svg>