<svg xmlns="http://www.w3.org/2000/svg" width="132" height="125" viewBox="0 0 132 125"><g fill="none" fill-rule="evenodd"><path d="M7 0h124.8v124.8H7z"/><g fill-rule="nonzero"><path fill="#E60000" d="M.919 4.954v116.083l25.374-17.906 66.901-8.884v-80.34z"/><path fill="#FFF" d="M45.879 36.925c-1.596 6.254-3.3 11.99-5.11 17.206-1.811 5.22-3.601 9.618-5.37 13.197-.82 1.638-1.67 3.234-2.554 4.787-.885 1.552-2.038 2.943-3.46 4.172-1.424 1.229-3.214 2.22-5.37 2.975-2.157.754-4.917 1.154-8.28 1.197l-.712-7.18c.777 0 1.66-.044 2.653-.13a17.152 17.152 0 002.943-.517c.97-.258 1.886-.615 2.749-1.067a6.093 6.093 0 002.135-1.843c.171-.217.323-.431.452-.648.13-.215.28-.496.453-.84L13.6 36.924h8.603l8.669 23.935a77.095 77.095 0 001.94-5.24c.647-1.94 1.272-3.956 1.876-6.048.604-2.09 1.186-4.215 1.747-6.371.56-2.156 1.077-4.248 1.552-6.275h7.892zm15.764 31.826c-3.666 0-6.448-1.1-8.345-3.299-1.898-2.2-2.846-5.52-2.846-9.962V36.924h8.02V54.65c0 2.156.39 3.903 1.165 5.24.777 1.336 2.112 2.005 4.011 2.005 1.553 0 2.868-.314 3.946-.939 1.078-.625 1.94-1.218 2.588-1.778V36.924h8.02v31.18h-7.374l-.258-2.458c-1.424 1.208-2.901 2.028-4.431 2.459-1.532.43-3.03.646-4.496.646"/></g></g></svg>