<svg width="138" height="138" viewBox="0 0 138 138" xmlns="http://www.w3.org/2000/svg"><g transform="rotate(-15 110.092 14.494)" fill="none" fill-rule="evenodd"><circle fill="#333" cx="55.77" cy="55.77" r="55.77"/><path d="M29.04 74.148c.594 0 1.13-.116 1.608-.348a3.593 3.593 0 001.21-.944c.329-.397.582-.86.76-1.39.177-.529.266-1.09.266-1.684 0-.594-.115-1.234-.344-1.922a3.879 3.879 0 00-1.22-1.766c-.584-.491-1.298-.736-2.144-.736-.432 0-.84.066-1.224.198a4.456 4.456 0 00-1.07.538c.38-1.543 1.08-2.635 2.1-3.278a6.197 6.197 0 013.37-.963l-.3-1.19c-.95 0-1.867.154-2.755.464a5.367 5.367 0 00-2.28 1.535c-.632.713-1.13 1.595-1.495 2.647-.365 1.052-.547 2.253-.547 3.602 0 .658.075 1.302.227 1.931.152.63.394 1.188.726 1.675.333.487.755.88 1.268 1.181.514.3 1.128.45 1.845.45zm.02-1.336c-.49 0-.897-.12-1.22-.363a2.729 2.729 0 01-.784-.939 4.247 4.247 0 01-.416-1.268 8.044 8.044 0 01-.116-1.331c0-.542.032-1.004.096-1.385.304-.238.647-.43 1.031-.576a3.46 3.46 0 011.235-.218c.393 0 .792.109 1.195.325.404.216.725.57.964 1.06.238.49.358 1.058.358 1.704 0 .374-.063.795-.189 1.263a2.433 2.433 0 01-.774 1.215c-.39.342-.85.513-1.38.513zm11.317 1.075V66.51a9.76 9.76 0 011.138-.702c.429-.23.863-.344 1.302-.344.355 0 .684.086.987.257.304.17.528.455.673.852.145.397.218.866.218 1.408v5.906h1.452v-5.712c-.006-.704-.068-1.259-.184-1.665.252-.226.615-.457 1.09-.692.474-.236.95-.354 1.427-.354.768 0 1.297.221 1.588.663.29.443.436 1.06.436 1.854v5.906h1.471v-5.712c0-.633-.07-1.263-.208-1.893-.139-.629-.447-1.134-.925-1.515-.477-.38-1.178-.571-2.1-.571-.646 0-1.238.118-1.777.353a5.398 5.398 0 00-1.38.847c-.303-.458-.676-.772-1.118-.943a3.79 3.79 0 00-1.38-.257c-.567 0-1.088.108-1.563.324a6.434 6.434 0 00-1.166.664l-.107-.756h-1.326v9.459h1.452zm18.113.222c.62 0 1.23-.1 1.83-.3.6-.2 1.046-.445 1.336-.735l-.368-1.25a5.126 5.126 0 01-1.215.756c-.448.2-.963.3-1.544.3-.98 0-1.728-.339-2.241-1.017-.513-.677-.77-1.61-.77-2.797h6.535c0-.71-.115-1.456-.344-2.237a3.66 3.66 0 00-1.278-1.902c-.622-.487-1.402-.731-2.338-.731-.62 0-1.24.152-1.863.455-.623.303-1.136.85-1.54 1.641-.403.79-.605 1.728-.605 2.812 0 1.627.397 2.868 1.191 3.723s1.865 1.282 3.214 1.282zm1.917-6.254h-4.753c.161-.884.46-1.515.895-1.892a2.28 2.28 0 011.544-.567c.265 0 .581.078.95.233.367.155.68.429.938.823.258.393.4.861.426 1.403zm6.351 6.254c.458 0 .936-.087 1.433-.261a2.69 2.69 0 001.249-.905c.335-.43.503-.98.503-1.65 0-.769-.221-1.367-.663-1.797-.442-.429-1.08-.795-1.912-1.098-1.452-.53-2.178-1.098-2.178-1.704 0-.323.122-.617.368-.881.245-.265.645-.397 1.2-.397.484 0 .925.087 1.321.261a3.66 3.66 0 011.07.717l.62-1.094c-.316-.304-.725-.563-1.225-.78-.5-.216-1.102-.324-1.805-.324-.891 0-1.604.24-2.14.721s-.803 1.106-.803 1.874c0 .658.185 1.189.556 1.592.371.403 1.005.77 1.903 1.099 1.561.613 2.342 1.249 2.342 1.907 0 .516-.155.894-.464 1.133-.31.239-.768.358-1.375.358-.6 0-1.121-.116-1.564-.349a5.789 5.789 0 01-1.098-.726l-.513 1.23c.103.103.3.242.59.416s.655.328 1.094.46c.439.132.936.198 1.491.198zm9.052 0c.62 0 1.23-.1 1.83-.3.6-.2 1.045-.445 1.335-.735l-.367-1.25a5.126 5.126 0 01-1.215.756c-.449.2-.964.3-1.545.3-.98 0-1.728-.339-2.24-1.017-.514-.677-.77-1.61-.77-2.797h6.534a7.95 7.95 0 00-.343-2.237 3.66 3.66 0 00-1.278-1.902c-.623-.487-1.402-.731-2.338-.731-.62 0-1.241.152-1.864.455-.623.303-1.136.85-1.54 1.641-.402.79-.604 1.728-.604 2.812 0 1.627.397 2.868 1.19 3.723.794.855 1.866 1.282 3.215 1.282zm1.917-6.254h-4.754c.162-.884.46-1.515.896-1.892.435-.378.95-.567 1.544-.567.264 0 .58.078.949.233.367.155.68.429.939.823.258.393.4.861.426 1.403zm6.35 6.254c.459 0 .936-.087 1.433-.261a2.69 2.69 0 001.249-.905c.336-.43.503-.98.503-1.65 0-.769-.22-1.367-.663-1.797-.442-.429-1.08-.795-1.912-1.098-1.452-.53-2.178-1.098-2.178-1.704 0-.323.123-.617.368-.881.245-.265.645-.397 1.2-.397.484 0 .925.087 1.322.261a3.66 3.66 0 011.07.717l.62-1.094c-.317-.304-.725-.563-1.226-.78-.5-.216-1.102-.324-1.805-.324-.89 0-1.604.24-2.14.721-.535.481-.803 1.106-.803 1.874 0 .658.185 1.189.557 1.592.37.403 1.005.77 1.902 1.099 1.562.613 2.343 1.249 2.343 1.907 0 .516-.155.894-.465 1.133-.31.239-.768.358-1.375.358-.6 0-1.121-.116-1.563-.349a5.789 5.789 0 01-1.099-.726l-.513 1.23c.103.103.3.242.59.416s.656.328 1.094.46c.44.132.936.198 1.491.198zM20.808 54.6c1.132 0 2.23-.165 3.291-.495 1.172-.33 2.179-1.072 3.02-2.224.862-1.132 1.293-2.63 1.293-4.493 0-2.354-.674-4.09-2.021-5.207-1.348-1.117-3.264-1.675-5.748-1.675-.43 0-.726.02-.887.06V37.14h7.904v-3.501H16.285v10.804c1.623-.35 2.885-.526 3.787-.526 1.473 0 2.6.288 3.38.864.782.576 1.173 1.49 1.173 2.742v.165c0 .431-.07.837-.21 1.218a3.08 3.08 0 01-.707 1.142c-.32.33-.72.58-1.202.75-.43.151-.921.226-1.472.226h-.196c-.921 0-1.768-.17-2.54-.51a11.025 11.025 0 01-2.238-1.338l-1.593 3.426c.27.27.651.541 1.142.811.491.27 1.197.536 2.119.797.921.26 1.948.39 3.08.39zm16.815 0c1.382 0 2.54-.323 3.47-.969a7.47 7.47 0 002.262-2.494c.576-1.017.987-2.151 1.232-3.403.246-1.253.369-2.495.369-3.727 0-1.302-.166-2.715-.496-4.237-.31-1.663-1.062-3.12-2.254-4.373-1.172-1.312-2.7-1.969-4.583-1.969-1.373 0-2.64.404-3.802 1.21-1.162.806-2.048 2.051-2.66 3.734-.59 1.723-.886 3.601-.886 5.635 0 1.232.123 2.474.368 3.727.245 1.252.656 2.386 1.232 3.403a7.47 7.47 0 002.262 2.494c.931.646 2.093.97 3.486.97zm.09-3.546h-.09c-.591 0-1.097-.185-1.518-.556-.42-.37-.764-.879-1.03-1.525-.265-.646-.465-1.395-.6-2.246a17.552 17.552 0 01-.203-2.75 6.12 6.12 0 01-.015-.436c0-.24.01-.49.03-.751.03-.44.065-.927.105-1.458.09-1.052.42-2.048.992-2.99.56-.922 1.287-1.382 2.179-1.382h.06c.43 0 .846.137 1.247.413.4.275.756.696 1.067 1.262.31.566.558 1.29.744 2.171.185.882.278 1.939.278 3.17v.392c0 .59-.04 1.227-.12 1.908a10.18 10.18 0 01-.519 2.322c-.255.716-.604 1.31-1.044 1.78-.421.45-.942.676-1.563.676zm12.802-8.024c.822 0 1.54-.14 2.157-.42a4.667 4.667 0 001.54-1.097c.41-.451.719-.965.924-1.54a5.28 5.28 0 00.308-1.781c-.01-.29-.115-.867-.316-1.728-.2-.732-.72-1.428-1.562-2.089-.822-.651-1.838-.977-3.05-.977-.622 0-1.228.103-1.819.308a4.59 4.59 0 00-1.585.94 4.47 4.47 0 00-1.097 1.532c-.265.601-.398 1.282-.398 2.044 0 .59.102 1.174.308 1.75.205.576.513 1.09.924 1.54.41.451.92.817 1.525 1.098.606.28 1.32.42 2.141.42zm-2.674 11.315l19.203-18.828-2.043-2.119-19.204 18.738 2.044 2.21zm2.644-13.96c-.31 0-.573-.067-.789-.202a1.88 1.88 0 01-.54-.511 2.17 2.17 0 01-.324-.706 3.135 3.135 0 01-.105-.804c0-.571.156-1.077.466-1.518.31-.44.741-.661 1.292-.661.471 0 .882.205 1.233.616.35.41.525.932.525 1.563 0 .23-.057.518-.172.864a2.721 2.721 0 01-.541.939c-.246.28-.594.42-1.045.42zm11.66 14.02c.822 0 1.536-.138 2.142-.413a4.616 4.616 0 001.525-1.09c.411-.45.719-.964.924-1.54a5.25 5.25 0 00.308-1.78c0-.601-.155-1.245-.465-1.931-.311-.686-.772-1.315-1.383-1.886-.821-.661-1.828-.992-3.02-.992-.631 0-1.25.108-1.856.323a4.661 4.661 0 00-1.6.955c-.461.42-.827.934-1.097 1.54s-.406 1.28-.406 2.02c0 .592.103 1.175.308 1.751a4.53 4.53 0 00.924 1.54c.411.451.924.815 1.54 1.09.617.275 1.335.413 2.157.413zm-.03-2.644c-.59 0-1.031-.23-1.322-.692a2.74 2.74 0 01-.435-1.487c0-.531.145-1.027.435-1.488.29-.47.732-.706 1.323-.706.59 0 1.032.233 1.322.699a2.776 2.776 0 010 2.982c-.29.461-.731.692-1.322.692zm15.015 2.6c.445 0 .831-.085 1.16-.256a2.77 2.77 0 00.79-.59l.086.65h1.976V42.48h-2.147v3.276c-.547-.166-1.026-.248-1.437-.248h-.086c-.233 0-.541.045-.923.137-.428.096-.878.3-1.352.611-.473.31-.844.74-1.112 1.287-.359.673-.539 1.46-.539 2.361 0 .582.079 1.142.236 1.68.156.54.386 1.015.688 1.425.302.41.676.739 1.12.984.445.245.959.368 1.54.368zm.445-1.864a1.62 1.62 0 01-.855-.218 1.853 1.853 0 01-.595-.578 2.648 2.648 0 01-.35-.842 4.31 4.31 0 01-.116-1.005 1.05 1.05 0 01-.008-.146 5.9 5.9 0 01.068-.624c.057-.37.27-.753.637-1.146.368-.394.854-.59 1.459-.59.33 0 .724.082 1.18.248v4.165c-.12.2-.32.372-.599.518-.28.145-.553.218-.82.218zm8.297 1.865a4.16 4.16 0 001.27-.193 3.406 3.406 0 001.005-.492l-.556-1.565a1.765 1.765 0 01-1.12.368.698.698 0 01-.458-.158c-.128-.106-.192-.293-.192-.56v-4.286h1.941v-1.753h-1.941v-2.19h-2.156v2.19h-1.189v1.753h1.19v4.73c0 .593.18 1.1.542 1.523.362.422.917.633 1.664.633zm7.108 0c.256 0 .589-.039.996-.116.408-.077.849-.28 1.322-.607.473-.328.855-.777 1.146-1.347a5.04 5.04 0 00.582-2.387c0-.502-.117-1.115-.351-1.839-.222-.69-.656-1.286-1.3-1.788-.65-.513-1.449-.77-2.395-.77-.679 0-1.333.159-1.963.475-.63.317-1.14.837-1.527 1.561a5.072 5.072 0 00-.556 2.361c0 .548.084 1.088.252 1.621.169.533.42 1.01.753 1.428.334.42.754.759 1.262 1.018.507.26 1.1.39 1.779.39zm.111-1.874a.677.677 0 00-.111-.008c-.32 0-.599-.067-.838-.201a1.719 1.719 0 01-.595-.552 2.7 2.7 0 01-.36-.817 3.898 3.898 0 01-.123-1.005c0-.348.047-.7.141-1.056.094-.357.275-.68.543-.971.33-.354.741-.53 1.232-.53h.043c.154 0 .365.051.633.154.296.108.576.377.838.808.262.43.393.962.393 1.595.006.051.009.109.009.171 0 .148-.02.328-.06.54-.057.296-.16.585-.308.867a2.29 2.29 0 01-.607.732 1.286 1.286 0 01-.83.273z" fill="#FFF" fill-rule="nonzero"/></g></svg>