<svg xmlns="http://www.w3.org/2000/svg" xmlns:xlink="http://www.w3.org/1999/xlink" width="74" height="70" viewBox="0 0 74 70">
    <defs>
        <path id="44877zjkxa" d="M.177 6.967c0 2.593 6.743 4.693 15.066 4.693 8.164 0 14.807-2.02 15.05-4.55V1.197H28.14v.47C25.507.787 20.717.197 15.227.197S4.943.78 2.313 1.667v-.464H.163v5.764h.014z"/>
        <path id="4afj95cghd" d="M0 6.793c0 2.594 6.743 4.697 15.063 4.697 8.167 0 14.81-2.027 15.054-4.553V1.023h-2.154v.464c-2.63-.88-7.423-1.47-12.91-1.47-5.486 0-10.283.59-12.91 1.47v-.464H0v5.77z"/>
        <path id="gknn3ppkhg" d="M.273 6.96c0 2.593 6.747 4.707 15.06 4.707 8.167 0 14.81-2.024 15.054-4.55V1.19h-2.154v.477C25.603.787 20.81.197 15.32.197S5.043.773 2.417 1.667V1.19H.263v5.77h.01z"/>
        <linearGradient id="od2od0yd9c" x1="0%" x2="99.989%" y1="50%" y2="50%">
            <stop offset="0%"/>
            <stop offset="87%" stop-opacity=".35"/>
            <stop offset="100%" stop-opacity="0"/>
        </linearGradient>
        <linearGradient id="5t7fqghn8f" x1="0%" x2="100%" y1="49.983%" y2="49.983%">
            <stop offset="0%"/>
            <stop offset="100%" stop-opacity="0"/>
        </linearGradient>
    </defs>
    <g fill="none" fill-rule="evenodd">
        <g>
            <g>
                <g>
                    <g>
                        <g>
                            <g>
                                <g fill="#FFF" transform="translate(-1074 -2961) translate(18 2492) translate(11 439) translate(937) translate(77.679) translate(30.821 30)">
                                    <ellipse cx="36.5" cy="35" rx="36.25" ry="35"/>
                                </g>
                                <g transform="translate(-1074 -2961) translate(18 2492) translate(11 439) translate(937) translate(77.679) translate(30.821 30) translate(5 3)">
                                    <path d="M0 0H64V64H0z"/>
                                    <g fill="#E60000" fill-rule="nonzero">
                                        <path d="M16.797 12.847v6.913l9.77-9.85-9.77-9.853v6.18S3.667 4.4.053 19.76c0 0 3.917-6.137 13.294-7.097 1.483-.116 2.46-.103 3.45.184z" transform="translate(26 5.667)"/>
                                    </g>
                                    <g style="mix-blend-mode:multiply" fill="#E60000" fill-rule="nonzero">
                                        <path d="M13.333 2.23C5.83 3 1.827 7.09.53 8.687c-.17.556-.333 1.13-.477 1.74 0 0 3.917-6.137 13.294-7.097 1.483-.117 2.46-.103 3.45.183v-1.1c-.99-.286-1.967-.3-3.464-.183zM16.8 9.327L16.8 10.427 26.567.577 26.02.027z" transform="translate(26 15)"/>
                                    </g>
                                    <path fill="#EBEBEB" fill-rule="nonzero" d="M25.03 56.257L25.03 52.747 22.483 53.26 21.223 52.593 25.697 51.667 27.813 51.667 27.813 56.24z"/>
                                    <path fill="#EBEBEB" fill-rule="nonzero" d="M15.51 52.637c0 2.593 6.743 4.696 15.063 4.696 8.177 0 14.824-2.03 15.054-4.56v-5.91h-2.154v.47c-2.633-.88-7.423-1.47-12.913-1.47s-10.283.584-12.913 1.47v-.463h-2.15v5.773l.013-.006z"/>
                                    <g transform="translate(15.333 45.667)">
                                        <mask id="5dnhuuwceb" fill="#fff">
                                            <use xlink:href="#44877zjkxa"/>
                                        </mask>
                                        <g fill="#000" fill-rule="nonzero" mask="url(#5dnhuuwceb)" opacity=".06">
                                            <g>
                                                <path d="M0 1.169v7.76c.82.329 1.659.606 2.513.83v-8.59H0zM5.04 1.155v9.477c.809.1 1.643.192 2.503.277V1.155H5.04zM10.053 3.525v8.107c.82.03 1.667.053 2.51.077V3.525h-2.51zM15.073 3.969v7.046c.847 0 1.687-.026 2.51-.05v-7l-2.51.004zM20.093 3.652v7.377c.864-.074 1.7-.15 2.51-.237v-7.14h-2.51zM25.117.025v10.07c.906-.21 1.746-.43 2.51-.666V.025h-2.51z" transform="translate(2.667 .948)"/>
                                            </g>
                                        </g>
                                    </g>
                                    <path fill="#000" fill-rule="nonzero" d="M15.51 52.633c0 2.594 6.743 4.694 15.067 4.694 8.163 0 14.806-2.02 15.05-4.55v-5.914h-2.154v.47c-2.633-.88-7.423-1.47-12.913-1.47s-10.283.584-12.913 1.47v-.463h-2.15v5.763h.013z" opacity=".06"/>
                                    <ellipse cx="30.563" cy="46.767" fill="#EBEBEB" fill-rule="nonzero" rx="15.067" ry="4.693"/>
                                    <ellipse cx="30.563" cy="46.753" fill="#E60000" fill-rule="nonzero" rx="12.553" ry="3.457"/>
                                    <path fill="#000" fill-rule="nonzero" d="M42.52 45.703c-1.023-.896-2.743-1.35-4.227-1.666-1.603-.334-3.228-.55-4.863-.644-3.353-.243-6.724-.066-10.033.527-1.667.317-3.65.79-4.794 1.793-.486.41-.73.947-.486 1.48.243.534.833.924 1.436 1.23-.56-.486-.77-1.113-.38-1.693.355-.446.812-.798 1.334-1.027 1.666-.826 3.726-1.21 5.666-1.46 1.277-.163 2.564-.256 3.857-.303 1.327-.023 2.655.043 3.973.197 2.077.213 4.244.566 6.08 1.333.665.235 1.266.62 1.757 1.127.507.61.333 1.28-.273 1.83.603-.304 1.213-.704 1.44-1.23.226-.527-.007-1.077-.487-1.494z" opacity=".06"/>
                                    <path fill="#000" fill-rule="nonzero" d="M42.52 45.703c-1.023-.896-2.743-1.35-4.227-1.666-1.603-.334-3.228-.55-4.863-.644-3.353-.243-6.724-.066-10.033.527-1.667.317-3.65.79-4.794 1.793-.486.41-.73.947-.486 1.48.243.534.833.924 1.436 1.23-.56-.486-.77-1.113-.38-1.693.355-.446.812-.798 1.334-1.027 1.666-.826 3.726-1.21 5.666-1.46 1.277-.163 2.564-.256 3.857-.303 1.327-.023 2.655.043 3.973.197 2.077.213 4.244.566 6.08 1.333.665.235 1.266.62 1.757 1.127.507.61.333 1.28-.273 1.83.603-.304 1.213-.704 1.44-1.23.226-.527-.007-1.077-.487-1.494z" opacity=".06"/>
                                    <g fill="#000" fill-rule="nonzero" opacity=".06">
                                        <path d="M3.863 4.613L3.863 1.093 1.333 1.607 0.07 0.94 0.07 0 4.543 0.05 6.66 0.05 6.66 4.627z" transform="translate(26 45.333)"/>
                                    </g>
                                    <g fill="#000" fill-rule="nonzero" opacity=".06">
                                        <path d="M3.863 4.613L3.863 1.093 1.333 1.607 0.07 0.94 0.07 0 4.543 0.05 6.66 0.05 6.66 4.627z" transform="translate(26 45.333)"/>
                                    </g>
                                    <path fill="#EBEBEB" fill-rule="nonzero" d="M29.863 49L29.863 45.467 27.333 45.977 26.07 45.31 30.543 44.39 32.66 44.39 32.66 49z"/>
                                    <ellipse cx="30.563" cy="46.767" fill="url(#od2od0yd9c)" fill-rule="nonzero" opacity=".2" rx="15.067" ry="4.693"/>
                                    <path fill="#EBEBEB" fill-rule="nonzero" d="M10.667 45.463c0 2.594 6.743 4.694 15.063 4.694 8.173 0 14.823-2.027 15.053-4.557v-5.91H38.63v.463c-2.63-.88-7.423-1.47-12.91-1.47s-10.283.59-12.91 1.47v-.463h-2.143v5.773z"/>
                                    <g transform="translate(10.667 38.667)">
                                        <mask id="mf734yau0e" fill="#fff">
                                            <use xlink:href="#4afj95cghd"/>
                                        </mask>
                                        <g fill="#000" fill-rule="nonzero" mask="url(#mf734yau0e)" opacity=".06">
                                            <g>
                                                <path d="M.257.277v7.76c.818.329 1.656.606 2.51.83V.277H.257zM5.29.263V9.74c.81.1 1.647.19 2.503.277V.283L5.29.263zM10.3 2.63v8.107c.823.033 1.667.056 2.51.076V2.63H10.3zM15.333 3.077v7.043c.851 0 1.688-.017 2.51-.05v-7l-2.51.007zM20.333 2.747v7.373c.86-.07 1.704-.147 2.51-.233v-7.14h-2.51zM25.363.41V9.2c.91-.169 1.747-.359 2.514-.57V.41h-2.514z" transform="translate(1 1.667)"/>
                                            </g>
                                        </g>
                                    </g>
                                    <path fill="#000" fill-rule="nonzero" d="M10.667 45.46c0 2.593 6.743 4.697 15.063 4.697 8.167 0 14.81-2.027 15.053-4.554V39.69H38.63v.463c-2.63-.88-7.423-1.47-12.91-1.47s-10.283.59-12.91 1.47v-.463h-2.143v5.77z" opacity=".06"/>
                                    <ellipse cx="25.733" cy="39.593" fill="#EBEBEB" fill-rule="nonzero" rx="15.067" ry="4.693"/>
                                    <ellipse cx="25.733" cy="39.603" fill="#EBEBEB" fill-rule="nonzero" rx="15.067" ry="4.693"/>
                                    <g fill="#000" fill-rule="nonzero" opacity=".06">
                                        <path d="M4.03 4.793L4.03 1.28 1.483 1.79 0.223 1.123 0.223 0.167 4.697 0.213 6.813 0.213 6.813 4.793z" transform="translate(21 38)"/>
                                    </g>
                                    <g fill="#000" fill-rule="nonzero" opacity=".06">
                                        <path d="M4.03 4.793L4.03 1.28 1.483 1.79 0.223 1.123 0.223 0.167 4.697 0.213 6.813 0.213 6.813 4.793z" transform="translate(21 38)"/>
                                    </g>
                                    <path fill="#EBEBEB" fill-rule="nonzero" d="M25.03 41.817L25.03 38.313 22.483 38.84 21.223 38.173 25.697 37.253 27.813 37.253 27.813 41.823z"/>
                                    <path fill="url(#5t7fqghn8f)" fill-rule="nonzero" d="M38.643 39.69v.463c-2.63-.88-7.423-1.47-12.91-1.47-5.486 0-10.28-.95-12.91-.066l.244.64.166.383 9.924 10.443c.84.047 1.703.074 2.586.074 8.167 0 14.81-2.027 15.054-4.554V39.69h-2.154z" opacity=".2"/>
                                    <path fill="#EBEBEB" fill-rule="nonzero" d="M12.607 38.297c0 2.593 6.743 4.703 15.06 4.703 8.173 0 14.82-2.033 15.053-4.563v-5.914h-2.153V33c-2.63-.88-7.424-1.47-12.914-1.47-5.49 0-10.276.577-12.903 1.47v-.477h-2.153v5.774h.01z"/>
                                    <g transform="translate(12.333 31.333)">
                                        <mask id="iphbm6z6kh" fill="#fff">
                                            <use xlink:href="#gknn3ppkhg"/>
                                        </mask>
                                        <g fill="#000" fill-rule="nonzero" mask="url(#iphbm6z6kh)" opacity=".06">
                                            <g>
                                                <path d="M.107.137v9c.814.375 1.652.696 2.51.96V.137H.107zM5.12.123v10.96c.81.117 1.647.224 2.503.334V.137L5.12.123zM10.15 2.863v9.387c.823.037 1.667.063 2.51.09V2.863h-2.51zM15.17 3.377v8.156c.851-.013 1.689-.033 2.513-.06V3.377H15.17zM20.203 3v8.533c.86-.083 1.7-.176 2.51-.273V3h-2.51zM25.217.293V10.47c.906-.207 1.746-.43 2.51-.667V.293h-2.51z" transform="translate(2.667 1)"/>
                                            </g>
                                        </g>
                                    </g>
                                    <path fill="#000" fill-rule="nonzero" d="M12.607 38.293c0 2.594 6.746 4.707 15.06 4.707 8.166 0 14.81-2.023 15.053-4.55v-5.927h-2.153V33c-2.63-.88-7.424-1.47-12.914-1.47-5.49 0-10.276.577-12.903 1.47v-.477h-2.153v5.77h.01z" opacity=".06"/>
                                    <ellipse cx="27.66" cy="32.427" fill="#EBEBEB" fill-rule="nonzero" rx="15.067" ry="4.693"/>
                                    <ellipse cx="27.66" cy="32.427" fill="#E60000" fill-rule="nonzero" rx="12.553" ry="3.457"/>
                                    <path fill="#000" fill-rule="nonzero" d="M39.623 31.377c-1.026-.897-2.75-1.354-4.23-1.667-1.604-.332-3.23-.547-4.866-.643-3.357-.244-6.731-.066-10.044.53-1.666.333-3.646.786-4.793 1.79-.487.413-.73.95-.487 1.48.244.53.834.926 1.44 1.23-.563-.484-.773-1.11-.38-1.69.354-.446.812-.798 1.334-1.024 1.666-.826 3.73-1.223 5.666-1.476 1.274-.164 2.564-.257 3.857-.3 1.326-.024 2.652.04 3.97.193 2.077.217 4.247.57 6.083 1.333.662.24 1.261.625 1.754 1.127.506.61.333 1.293-.277 1.833.603-.306 1.217-.706 1.44-1.23.223-.523.01-1.073-.467-1.486z" opacity=".06"/>
                                    <path fill="#000" fill-rule="nonzero" d="M39.623 31.377c-1.026-.897-2.75-1.354-4.23-1.667-1.604-.332-3.23-.547-4.866-.643-3.357-.244-6.731-.066-10.044.53-1.666.333-3.646.786-4.793 1.79-.487.413-.73.95-.487 1.48.244.53.834.926 1.44 1.23-.563-.484-.773-1.11-.38-1.69.354-.446.812-.798 1.334-1.024 1.666-.826 3.73-1.223 5.666-1.476 1.274-.164 2.564-.257 3.857-.3 1.326-.024 2.652.04 3.97.193 2.077.217 4.247.57 6.083 1.333.662.24 1.261.625 1.754 1.127.506.61.333 1.293-.277 1.833.603-.306 1.217-.706 1.44-1.23.223-.523.01-1.073-.467-1.486z" opacity=".06"/>
                                </g>
                            </g>
                        </g>
                    </g>
                </g>
            </g>
        </g>
    </g>
</svg>
