<svg xmlns="http://www.w3.org/2000/svg" width="74" height="70" viewBox="0 0 74 70">
    <defs>
        <linearGradient id="3o00arfrfa" x1="40.758%" x2="97.446%" y1="1.917%" y2="76.093%">
            <stop offset="0%"/>
            <stop offset="100%" stop-opacity="0"/>
        </linearGradient>
    </defs>
    <g fill="none" fill-rule="evenodd">
        <g>
            <g>
                <g>
                    <g transform="translate(-138 -2961) translate(18 2492) translate(11 439) translate(109.334 30)">
                        <ellipse cx="36.133" cy="35" fill="#FFF" fill-rule="nonzero" rx="36.133" ry="35"/>
                        <g>
                            <path fill="#EBEBEB" fill-rule="nonzero" d="M32 14.793l-21.333 9.874-6.08-5.867c-.334-.333-.334-1.477.076-1.667l18.67-8.18c.456-.214.994-.154 1.39.157L32 14.793zM32 14.793l21.333 9.874 6.08-5.867c.334-.333.334-1.47-.073-1.667l-18.673-8.18c-.456-.214-.994-.154-1.39.157L32 14.793z" transform="translate(3.666 3)"/>
                            <path fill="#000" fill-rule="nonzero" d="M32 14.793l-21.333 9.874-6.08-5.867c-.334-.333-.334-1.477.076-1.667l18.67-8.18c.456-.214.994-.154 1.39.157L32 14.793zM32 14.793l21.333 9.874 6.08-5.867c.334-.333.334-1.47-.073-1.667l-18.673-8.18c-.456-.214-.994-.154-1.39.157L32 14.793z" opacity=".06" transform="translate(3.666 3)"/>
                            <path fill="#EBEBEB" fill-rule="nonzero" d="M32 33.5L10.667 24v21.797c.007.523.32.994.8 1.203l19.466 8.513c.681.298 1.456.298 2.137 0L52.533 47c.486-.212.8-.69.8-1.22V24L32 33.5z" transform="translate(3.666 3)"/>
                            <path fill="#000" fill-rule="nonzero" d="M32 33.5v22.253c.368 0 .733-.075 1.07-.223L52.533 47c.486-.212.8-.69.8-1.22V24L32 33.5z" opacity=".06" transform="translate(3.666 3)"/>
                            <path fill="#EBEBEB" fill-rule="nonzero" d="M32 14.127L10.667 24l-6.08-5.867c-.158-.152-.231-.372-.195-.589.036-.216.176-.4.375-.494l18.566-8.763c.456-.215.994-.154 1.39.156L32 14.127zM32 14.127L53.333 24l6.08-5.867c.158-.152.231-.372.195-.589-.036-.216-.176-.4-.375-.494L40.667 8.287c-.456-.215-.994-.154-1.39.156L32 14.127z" transform="translate(3.666 3)"/>
                            <path fill="#E60000" fill-rule="nonzero" d="M32 33.52L10.667 24 32 14.123zM32 33.52L53.333 24 32 14.123z" transform="translate(3.666 3)"/>
                            <path fill="#000" fill-rule="nonzero" d="M32 33.52L10.667 24 32 14.123z" opacity=".12" transform="translate(3.666 3)"/>
                            <path fill="#EBEBEB" fill-rule="nonzero" d="M59.07 33.373L53.333 24 32 33.517l5.843 10.103c.347.599 1.094.834 1.72.54l18.934-8.887c.343-.16.6-.46.71-.822.11-.362.06-.754-.137-1.078zM4.93 33.373L10.667 24 32 33.517l-5.843 10.106c-.347.6-1.094.834-1.72.54L5.5 35.277c-.343-.162-.602-.461-.71-.825-.11-.363-.058-.755.14-1.079z" transform="translate(3.666 3)"/>
                            <path fill="url(#3o00arfrfa)" fill-rule="nonzero" d="M32 33.517l-5.843 10.106c-.347.6-1.094.834-1.72.54L15 39.733l15.69 15.69.243.107c.338.148.702.224 1.07.223V33.5l-.003.017z" opacity=".2" transform="translate(3.666 3)"/>
                            <path fill="#000" fill-rule="nonzero" d="M52.533 46.333l-19.463 8.53c-.681.298-1.456.298-2.137 0l-19.466-8.53c-.486-.211-.8-.69-.8-1.22v.667c0 .53.314 1.008.8 1.22l19.466 8.513c.681.298 1.456.298 2.137 0L52.533 47c.486-.212.8-.69.8-1.22v-.667c0 .53-.314 1.009-.8 1.22z" opacity=".06" transform="translate(3.666 3)"/>
                            <path fill="#000" fill-rule="nonzero" d="M58.5 34.61l-18.933 8.887c-.627.293-1.374.059-1.72-.54l-5.54-9.577-.307.137 5.843 10.103c.347.599 1.094.834 1.72.54l18.934-8.887c.575-.273.877-.916.72-1.533-.099.382-.361.7-.717.87zM26.157 42.957c-.347.599-1.094.833-1.72.54L5.5 34.61c-.356-.168-.62-.486-.72-.867-.157.618.144 1.26.72 1.534l18.933 8.886c.627.294 1.374.06 1.72-.54L32 33.517l-.307-.137-5.536 9.577z" opacity=".12" transform="translate(3.666 3)"/>
                            <path d="M0 0H64V64H0z" transform="translate(3.666 3)"/>
                        </g>
                    </g>
                </g>
            </g>
        </g>
    </g>
</svg>
