<svg xmlns="http://www.w3.org/2000/svg" width="249" height="32" viewBox="0 0 249 32"><path d="M239.038 31.324c-5.839 0-9.679-4.032-9.679-10.635 0-6.583 3.86-10.615 9.679-10.615 5.818 0 9.678 4.032 9.678 10.615 0 6.603-3.84 10.635-9.678 10.635zm0-17.782c-3.279 0-5.413 2.61-5.413 7.147 0 4.558 2.134 7.168 5.413 7.168 3.297 0 5.41-2.61 5.41-7.168 0-4.537-2.133-7.147-5.41-7.147zm-12.377.409c-2.696 0-4.364 1.811-4.364 4.713v12.27h-4.19v-20.49h3.996v3.487h.098c.678-2.396 2.502-3.817 4.907-3.817.6 0 1.125.097 1.435.156v3.914c-.33-.136-1.067-.233-1.882-.233zm-21.202 7.38h-6.013v9.603h-4.344V2.829h10.493c5.43 0 9.213 3.76 9.213 9.232 0 5.492-3.86 9.27-9.35 9.27zm-1.009-14.82h-5.004v11.16h4.985c3.782 0 5.935-2.046 5.935-5.59 0-3.545-2.153-5.57-5.916-5.57zM166.3 27.935l9.872-9.992c3.685-3.778 4.539-5.22 4.539-7.42 0-2.59-1.94-4.616-4.907-4.616-3.201 0-5.626 2.2-5.626 5.2h-4.112c0-5.103 4.112-8.803 9.738-8.803 5.488 0 9.193 3.524 9.193 7.946 0 3.233-1.513 5.473-6.517 10.498l-6.362 6.408v.097h13.325v3.68H166.3v-2.998zm-9.027-20.891h-.054l-5.712 4.075V6.827l5.728-3.98h4.24v28.087h-4.202V7.044zm-27.453 14.95c0 3.565 2.133 5.92 5.488 5.92 2.386 0 4.15-1.206 4.713-2.998h3.976c-.581 3.74-4.111 6.408-8.785 6.408-5.995 0-9.62-4.07-9.62-10.537 0-6.427 3.684-10.713 9.444-10.713 5.664 0 9.194 4.013 9.194 10.226v1.441h-14.41v.253zm10.22-3.194c-.097-3.135-2.074-5.336-5.004-5.336-2.928 0-4.984 2.24-5.197 5.336h10.202zm-21.585-.311c0-3.077-1.435-4.773-4.344-4.773-2.949 0-4.85 2.104-4.85 5.279v11.939h-4.189v-20.49h3.996v3.429h.096c1.106-2.338 3.279-3.78 6.42-3.78 4.5 0 7.08 2.884 7.08 7.578v13.263h-4.209V18.489zM92.271 31.324c-5.838 0-9.678-4.032-9.678-10.635 0-6.583 3.86-10.615 9.678-10.615 5.82 0 9.679 4.032 9.679 10.615 0 6.603-3.84 10.635-9.679 10.635zm0-17.782c-3.278 0-5.411 2.61-5.411 7.147 0 4.558 2.133 7.168 5.411 7.168 3.298 0 5.412-2.61 5.412-7.168 0-4.537-2.134-7.147-5.412-7.147zm-16.814 5.005c0-3.019-1.512-4.83-4.46-4.83-3.104 0-5.004 2.143-5.004 5.375v11.842h-4.19V2.829h4.15v11.044h.098c1.124-2.396 3.355-3.78 6.459-3.78 4.48 0 7.156 3 7.156 7.636v13.205h-4.209V18.547zm-25.981 2.785h-6.013v9.602h-4.344V2.829h10.493c5.43 0 9.212 3.76 9.212 9.232 0 5.492-3.859 9.27-9.348 9.27zM48.466 6.51h-5.003v11.16h4.984c3.783 0 5.936-2.046 5.936-5.59 0-3.545-2.153-5.57-5.916-5.57zm-16.235.934a2.426 2.426 0 01-2.424-2.414 2.415 2.415 0 012.424-2.416 2.415 2.415 0 012.426 2.416 2.426 2.426 0 01-2.426 2.414zm-9.6 19.938c-1.268 1.874-2.574 3.71-4.662 3.747-2.014.038-2.685-1.2-4.996-1.2-2.313 0-3.058 1.163-4.96 1.238-2.014.073-3.542-1.988-4.81-3.86C.593 23.524-1.384 16.631 1.3 11.984c1.306-2.322 3.692-3.783 6.264-3.821 1.977-.036 3.804 1.313 4.998 1.313 1.193 0 3.318-1.574 5.816-1.424.97.075 3.766.374 5.556 3.033-.149.114-3.318 1.948-3.281 5.807.037 4.608 4.027 6.145 4.064 6.183-.037.113-.633 2.174-2.087 4.308zM12.304 7.714c-.224-1.729.636-3.569 1.609-4.696C14.996 1.703 16.866.764 18.399.687c.186 1.805-.523 3.57-1.57 4.885-1.085 1.278-2.804 2.292-4.525 2.142zm22.023 23.22h-4.19v-20.49h4.19v20.49z" fill="#FFF" fill-rule="evenodd"/></svg>