<?xml version="1.0" encoding="UTF-8"?>
<svg width="64px" height="64px" viewBox="0 0 64 64" version="1.1" xmlns="http://www.w3.org/2000/svg" xmlns:xlink="http://www.w3.org/1999/xlink">
    <!-- Generator: Sketch 55 (78076) - https://sketchapp.com -->
    <title>Icon</title>
    <desc>Created with Sketch.</desc>
    <g id="✅-TV---Funcionalidades-y-Ofertas" stroke="none" stroke-width="1" fill="none" fill-rule="evenodd">
        <g id="TV---Desktop---Funcionalidades-y-Ofertas" transform="translate(-609.000000, -1787.000000)">
            <g id="Funcionalidades" transform="translate(0.000000, 1614.000000)">
                <g id="Cards-/-Carousel-Standard-/-Dark-bkgd-/-Desktop" transform="translate(37.000000, 128.000000)">
                    <g id="Content">
                        <g id="card3" transform="translate(417.000000, 0.000000)">
                            <g id="Últimos-7-días-y-Ver-desde-el-principio" transform="translate(23.000000, 45.000000)">
                                <g id="tv/vod" transform="translate(132.000000, 0.000000)">
                                    <rect id="Rectangle-path" x="0" y="10.638961" width="63.8337662" height="63.8337662"></rect>
                                    <path d="M25.751306,22.6516114 C26.4617891,22.8377932 26.8870151,23.5645673 26.7005008,24.2750504 L23.9150878,34.9110192 C23.9091034,34.9322971 23.9001268,34.9512478 23.8928125,34.9715283 C23.882506,35.0051075 23.8715345,35.0373569 23.8589008,35.0696062 C23.8396177,35.1161517 23.8186722,35.1603699 23.7947345,35.2032582 C23.7804384,35.2298556 23.7671397,35.2561205 23.7511813,35.2813881 C23.7219242,35.3285984 23.68768,35.3728166 23.6527709,35.4157049 C23.6374774,35.4346556 23.6238462,35.4542712 23.6072229,35.4725569 C23.5540281,35.5307387 23.4961787,35.5845984 23.4330099,35.6321413 C23.4220384,35.6407855 23.4090722,35.6467699 23.3974358,35.655414 C23.3435761,35.6936478 23.2873891,35.7285569 23.2285423,35.7581465 C23.2042722,35.7704478 23.1786722,35.7804218 23.1537371,35.7910608 C23.1008748,35.8133361 23.0480125,35.8332842 22.9931553,35.8489101 C22.9795242,35.8532322 22.9672229,35.8598816 22.9532592,35.8635387 C22.9316488,35.8688582 22.9093735,35.8711855 22.8877631,35.87584 C22.8654878,35.8801621 22.8438774,35.8848166 22.8216021,35.8881413 C22.7590982,35.8971179 22.6965943,35.9031023 22.6347553,35.9037673 C22.633093,35.9037673 22.6310982,35.9040997 22.6291034,35.9040997 C22.6254462,35.9040997 22.6234514,35.9034348 22.6207917,35.9034348 C22.5582878,35.9031023 22.4954514,35.8971179 22.4329475,35.8881413 C22.4083449,35.8841517 22.3850722,35.8788322 22.3617995,35.8741777 C22.3378618,35.8688582 22.3145891,35.8665309 22.2916488,35.860214 C22.2786826,35.8568894 22.2677112,35.8505725 22.2550774,35.8469153 C22.1985579,35.8299595 22.1437008,35.8093465 22.089841,35.7850764 C22.0669008,35.7751023 22.0436281,35.7664582 22.0206878,35.7551543 C21.9525319,35.7199127 21.8873683,35.6803491 21.8261943,35.6334712 C21.8215397,35.629814 21.8158878,35.6261569 21.8105683,35.6221673 C21.7497268,35.5746244 21.6938722,35.5210971 21.6416748,35.4635803 C21.6260488,35.4459595 21.6130826,35.4263439 21.5977891,35.4080582 C21.5618826,35.3641725 21.5286358,35.3189569 21.4983813,35.2704166 C21.4834203,35.245814 21.470454,35.2205465 21.4571553,35.1949465 C21.4338826,35.1503958 21.4116073,35.1051803 21.393654,35.0569725 C21.3806878,35.0257205 21.3700488,34.9941361 21.3604073,34.9615543 C21.3537579,34.9402764 21.3441164,34.9206608 21.3391294,34.8987179 L18.6587761,24.2630816 C18.4792436,23.5509361 18.9117839,22.8281517 19.6232644,22.6486192 C20.3354099,22.4687543 21.0585268,22.9009621 21.2383917,23.6131075 L22.653706,29.230479 L24.127867,23.6011387 C24.3143813,22.8906556 25.0418203,22.4657621 25.751306,22.6516114 Z M42.5558442,31.8370244 L42.5558442,26.4547075 C42.5558442,26.1388634 42.4301714,25.8363179 42.2064208,25.6135647 C41.9830026,25.3908114 41.6797922,25.2661361 41.3642805,25.267466 L39.8961039,25.2674554 L39.8961039,33.2005309 L41.1761039,33.2004738 C41.5401558,33.2037984 41.8912416,33.0618348 42.1502338,32.8055023 C42.4095584,32.5491699 42.5555117,32.200079 42.5558442,31.8370244 Z M41.3566338,22.6077257 C42.3783065,22.604401 43.3597506,23.0076842 44.0835325,23.7291387 C44.8079792,24.4509257 45.2155844,25.4313725 45.2155844,26.4547075 L45.2155844,31.8386868 C45.2142545,32.9125569 44.7840416,33.9415439 44.0203636,34.6965777 C43.2570182,35.4516114 42.2233766,35.8705205 41.1631377,35.860214 L38.5662338,35.860214 C37.831813,35.860214 37.2363636,35.2647647 37.2363636,34.5303439 L37.2363636,23.9375958 C37.2363636,23.2031751 37.831813,22.6077257 38.5662338,22.6077257 L41.3566338,22.6077257 Z M55.8545455,43.8857143 L55.8545455,14.6285714 C55.8545455,13.8941506 55.2590961,13.2987013 54.5246753,13.2987013 L9.30909091,13.2987013 C8.57467013,13.2987013 7.97922078,13.8941506 7.97922078,14.6285714 L7.97922078,43.8857143 C7.97922078,44.6201351 8.57467013,45.2155844 9.30909091,45.2155844 L54.5246753,45.2155844 C55.2590961,45.2155844 55.8545455,44.6201351 55.8545455,43.8857143 Z M54.5246753,10.638961 C56.7279377,10.638961 58.5142857,12.4253091 58.5142857,14.6285714 L58.5142857,43.8857143 C58.5142857,46.0889766 56.7279377,47.8753247 54.5246753,47.8753247 L33.2467532,47.8753247 L33.2467532,50.5350649 L43.8857143,50.5350649 C44.6201351,50.5350649 45.2155844,51.1305143 45.2155844,51.8649351 C45.2155844,52.5993558 44.6201351,53.1948052 43.8857143,53.1948052 L19.9480519,53.1948052 C19.2136312,53.1948052 18.6181818,52.5993558 18.6181818,51.8649351 C18.6181818,51.1305143 19.2136312,50.5350649 19.9480519,50.5350649 L30.587013,50.5350649 L30.587013,47.8753247 L9.30909091,47.8753247 C7.10582857,47.8753247 5.31948052,46.0889766 5.31948052,43.8857143 L5.31948052,14.6285714 C5.31948052,12.4253091 7.10582857,10.638961 9.30909091,10.638961 L54.5246753,10.638961 Z M32.7480519,32.0831169 L32.7480519,26.4311688 C32.7480519,25.7885091 32.2270753,25.2675325 31.5844156,25.2675325 C30.9417558,25.2675325 30.4207792,25.7885091 30.4207792,26.4311688 L30.4207792,32.0831169 C30.4207792,32.7257766 30.9417558,33.2467532 31.5844156,33.2467532 C32.2270753,33.2467532 32.7480519,32.7257766 32.7480519,32.0831169 Z M31.5844156,22.6077922 C33.6962494,22.6077922 35.4077922,24.3193351 35.4077922,26.4311688 L35.4077922,32.0831169 C35.4077922,34.1949506 33.6962494,35.9064935 31.5844156,35.9064935 C29.4725818,35.9064935 27.761039,34.1949506 27.761039,32.0831169 L27.761039,26.4311688 C27.761039,24.3193351 29.4725818,22.6077922 31.5844156,22.6077922 Z" id="Shape" fill="#FFFFFF" fill-rule="evenodd"></path>
                                </g>
                            </g>
                        </g>
                    </g>
                </g>
            </g>
        </g>
    </g>
</svg>