<?xml version="1.0" encoding="UTF-8"?>
<svg width="64px" height="64px" viewBox="0 0 64 64" version="1.1" xmlns="http://www.w3.org/2000/svg" xmlns:xlink="http://www.w3.org/1999/xlink">
    <!-- Generator: Sketch 55 (78076) - https://sketchapp.com -->
    <title>Icon</title>
    <desc>Created with Sketch.</desc>
    <g id="✅-TV---Funcionalidades-y-Ofertas" stroke="none" stroke-width="1" fill="none" fill-rule="evenodd">
        <g id="TV---Desktop---Funcionalidades-y-Ofertas---Carrusel-funcionalidades-2" transform="translate(-216.000000, -157.000000)">
            <g id="Funcionalidades">
                <g id="Cards-/-Carousel-Standard-/-Dark-bkgd-/-Desktop" transform="translate(37.000000, 112.000000)">
                    <g id="Content">
                        <g id="card3" transform="translate(24.000000, 0.000000)">
                            <g id="Últimos-7-días-y-Ver-desde-el-principio" transform="translate(23.000000, 45.000000)">
                                <g id="tv/verinicio" transform="translate(132.000000, 0.000000)">
                                    <rect id="Rectangle-path" x="0" y="0" width="63.8337662" height="63.8337662"></rect>
                                    <path d="M33.2467532,50.5350649 L43.8857143,50.5350649 C44.6201813,50.5350649 45.2155844,51.1304681 45.2155844,51.8649351 C45.2155844,52.5994021 44.6201813,53.1948052 43.8857143,53.1948052 L19.9480519,53.1948052 C19.213585,53.1948052 18.6181818,52.5994021 18.6181818,51.8649351 C18.6181818,51.1304681 19.213585,50.5350649 19.9480519,50.5350649 L30.587013,50.5350649 L30.587013,47.8753247 L9.30909091,47.8753247 C7.10578236,47.8753247 5.31948052,46.0890228 5.31948052,43.8857143 L5.31948052,14.6285714 C5.31948052,12.4252629 7.10578236,10.638961 9.30909091,10.638961 L54.5246753,10.638961 C56.7279839,10.638961 58.5142857,12.4252629 58.5142857,14.6285714 L58.5142857,43.8857143 C58.5142857,46.0890228 56.7279839,47.8753247 54.5246753,47.8753247 L33.2467532,47.8753247 L33.2467532,50.5350649 Z M21.1018113,29.4142185 L22.5284564,27.9875733 C23.047803,27.4682267 23.8898302,27.4682267 24.4091768,27.9875733 C24.9285234,28.5069199 24.9285234,29.3489471 24.4091768,29.8682937 L20.752034,33.5254366 C20.2326874,34.0447831 19.3906602,34.0447831 18.8713136,33.5254366 L15.2141707,29.8682937 C14.6948241,29.3489471 14.6948241,28.5069199 15.2141707,27.9875733 C15.7335173,27.4682267 16.5755445,27.4682267 17.0948911,27.9875733 L18.4411001,29.3337824 C18.4197402,25.784927 19.8195191,22.366014 22.3401497,19.8475021 C27.5365315,14.6562923 35.9561583,14.6599478 41.14739,19.8563509 C46.3383233,25.0517171 46.3346677,33.4712926 41.1392061,38.66306 C35.943168,43.8539265 27.5229275,43.8502708 22.3319658,38.6548762 C21.8128409,38.135308 21.8132003,37.2932808 22.3327685,36.774156 C22.8523367,36.2550311 23.6943638,36.2553904 24.2134887,36.7749587 C28.3662291,40.9312453 35.1025185,40.9341699 39.2592886,36.7815371 C43.4156423,32.6281388 43.4185667,25.8925143 39.2658004,21.7362015 C35.1127314,17.5789954 28.3771588,17.576071 24.2200063,21.7290859 C22.1807188,23.7666592 21.0585024,26.5409181 21.1018113,29.4142185 Z M9.30909091,13.2987013 C8.57471634,13.2987013 7.97922078,13.8941969 7.97922078,14.6285714 L7.97922078,43.8857143 C7.97922078,44.6200889 8.57471634,45.2155844 9.30909091,45.2155844 L54.5246753,45.2155844 C55.2590499,45.2155844 55.8545455,44.6200889 55.8545455,43.8857143 L55.8545455,14.6285714 C55.8545455,13.8941969 55.2590499,13.2987013 54.5246753,13.2987013 L9.30909091,13.2987013 Z" id="Stroke-8" fill="#FFFFFF" fill-rule="evenodd"></path>
                                </g>
                            </g>
                        </g>
                    </g>
                </g>
            </g>
        </g>
    </g>
</svg>