<svg xmlns="http://www.w3.org/2000/svg" width="74" height="28" viewBox="0 0 74 28">
    <g fill="none" fill-rule="evenodd">
        <g fill="#333">
            <g>
                <g>
                    <g>
                        <g>
                            <path d="M3.709 19.99c1.052 1.001 2.04 1.373 3.445.537.781-.464 1.547-.952 2.315-1.438.152-.097.28-.232.418-.35-.018-.04-.035-.082-.052-.124-2.292-.012-4.578.161-7.021.245.362.464.588.839.895 1.13zm10.498-1.286c.078.094.128.195.209.244 1.011.625 2.01 1.272 3.05 1.848.407.226.886.258 1.389.126 1.103-.29 1.741-1.062 2.337-2-.78-.195-6.323-.364-6.985-.218zm56.348-.569h1.683v-7.05h-1.683v7.05zM20.83 14.013c-2.01 1.15-4.019 2.307-6.013 3.484-.249.148-.589.263-.702.62.103.034.163.071.222.071 1.634-.005 3.269-.01 4.902-.022 1.306-.01 2.366-.54 3.144-1.557.844-1.104 1.141-2.328.622-3.768-.776.416-1.485.777-2.175 1.172zm-10.828 3.965c-2.846-1.861-5.842-3.47-8.886-5.107-.235.684-.279 1.262-.194 1.903.236 1.797 1.983 3.385 3.87 3.398 1.635.012 3.27.003 4.906 0 .084 0 .168-.025.252-.04l.052-.154zm25.943-1.64c.012.579.336 1.05.87 1.35 1.29.723 2.657.72 4.042.38 1.163-.286 1.832-1.069 1.814-2.333-.018-1.4-.002-2.8-.005-4.198 0-.143-.026-.286-.041-.442h-1.597v.65c0 1.185.011 2.37-.006 3.553-.005.318-.052.646-.15.947-.16.496-.54.772-1.069.81-.325.024-.66.047-.98.002-.854-.118-1.112-.43-1.259-1.228-.03-.168-.01-.344-.01-.517-.002-1.226 0-2.453-.003-3.681 0-.183-.028-.366-.043-.538H35.93c0 1.768-.023 3.507.014 5.245zm11.118-3.786l1.148 2.646h-2.258l1.11-2.646zm-2.333 5.583l.674-1.616h3.343c.247.558.482 1.085.72 1.618h1.845l-3.294-7.033h-1.789l-3.262 7.03h1.763zm20.67-7.002c-1.054.188-1.953.614-2.356 1.687-.345.917-.448 1.84-.27 2.831.305 1.694 1.612 2.503 2.996 2.51.96.005 1.92.006 2.881.003h.446v-1.22c-.837 0-1.639.013-2.44-.006-.342-.008-.69-.052-1.024-.13-.771-.177-1.12-.753-.983-1.633h4.437v-1.223H64.61c.019-1.184.845-1.593 1.614-1.612.785-.018 1.571-.003 2.357-.01h.523v-1.233c-.946 0-3.389-.021-3.707.036zm-30.882-.047h-1.59v2.84H29.28v-2.85h-1.57v7.066h1.576c.033-.978-.02-1.957.03-2.942.67 0 1.258-.003 1.845 0 .579.005 1.158-.016 1.758.01v2.925h1.598v-7.049zM19.5 7.568c-.833 1.156-1.675 2.304-2.486 3.474-1.269 1.83-2.317 3.783-3.307 5.77-.077.155-.11.332-.195.601.22-.083.324-.107.412-.156 1.478-.821 2.965-1.626 4.424-2.477.88-.513 1.704-1.116 2.411-1.855.645-.674.983-1.486.874-2.407-.158-1.316-.881-2.347-1.845-3.26-.114.122-.213.207-.288.31zM2.748 9.438c-.617 1.47-.223 2.832.9 3.784.215.181.422.373.644.545 1.83 1.403 3.864 2.468 5.919 3.5.084.043.184.054.429.124-1.711-3.715-3.82-7.01-6.305-10.173-.716.692-1.243 1.4-1.587 2.22zm10.43-3.987c-.496 1.389-.709 2.839-.79 4.296-.112 2.039-.07 4.082.102 6.12.026.303.117.6.197.994.141-.158.22-.226.274-.31.85-1.348 1.725-2.68 2.533-4.053.61-1.036 1.111-2.135 1.443-3.293.251-.877.36-1.785.028-2.662-.512-1.355-1.638-2.021-3.355-2.12-.137.324-.305.669-.432 1.028zM9.992 4.403C7.602 4.67 6.51 6.696 6.954 8.51c.262 1.072.638 2.098 1.164 3.057.775 1.412 1.615 2.79 2.443 4.174.227.378.515.72.774 1.078l.14-.037c.08-.783.204-1.564.233-2.348.095-2.557.146-5.117-.383-7.643-.17-.817-.385-1.629-.843-2.417-.19.01-.342.011-.49.028zm43.841 12.055l1.496-5.36H57.3l1.712 5.37c.57-1.844 1.116-3.616 1.662-5.387h1.585c.007.443-1.82 6.013-2.309 7.04h-2.006c-.254-.811-.52-1.662-.788-2.512-.271-.858-.545-1.714-.845-2.656l-1.42 5.171c-.666.082-1.312.032-2.04.032l-2.587-7.078h1.788l1.781 5.38z" transform="translate(-606 -654) translate(20 528) translate(334 120) translate(236) translate(16 6)"/>
                        </g>
                    </g>
                </g>
            </g>
        </g>
    </g>
</svg>
