<?xml version="1.0" encoding="UTF-8"?>
<svg width="84px" height="32px" viewBox="0 0 84 32" version="1.1" xmlns="http://www.w3.org/2000/svg" xmlns:xlink="http://www.w3.org/1999/xlink">
    <title>Logos / Logo - Samsung / Gris</title>
    <g id="Logos-/-Logo---Samsung-/-Gris" stroke="none" stroke-width="1" fill="none" fill-rule="evenodd">
        <path d="M8.35504347,15.3756401 C8.35504347,15.3756401 7.58644349,14.9004401 7.1103435,14.7168401 C7.1103435,14.7168401 5.63884354,14.0346401 5.34724355,13.7088401 C5.34724355,13.7088401 4.77394356,13.1670401 5.10964355,12.5406401 C5.10964355,12.5406401 5.25004355,12.1302401 5.85574353,12.1302401 C5.85574353,12.1302401 6.64594351,12.1725401 6.64594351,12.8214401 L6.64594351,13.7367401 L9.47644344,13.7367401 L9.47104344,12.3885401 C9.47104344,12.3885401 9.68704343,10.1808402 6.13834352,10.0845402 C6.13834352,10.0845402 5.87104353,10.0674402 5.47864354,10.0863402 C5.47864354,10.0863402 3.3285436,10.2015402 2.55994362,11.3814402 C2.55544362,11.3904402 2.54914362,11.3967402 2.54464362,11.4048402 C2.54464362,11.4048402 2.23054363,11.7396402 2.23054363,12.9087401 L2.23054363,13.7529401 C2.23054363,13.7529401 2.19814363,14.7267401 2.69584362,15.3549401 C2.69584362,15.3549401 2.97754361,15.7662401 3.66964359,16.21984 C3.66964359,16.21984 5.07634355,16.97764 5.92054353,17.41144 C5.92054353,17.41144 6.77374351,17.89654 6.66034351,18.67144 C6.66034351,18.67144 6.59104351,19.46614 5.76844353,19.43374 C5.76844353,19.43374 5.01604355,19.40044 5.01604355,18.62104 L5.01604355,17.70574 L2.00014363,17.70574 L2.00014363,19.03504 C2.00014363,19.03504 1.91644364,21.5766399 5.79004353,21.5766399 C5.79004353,21.5766399 9.49084344,21.6513399 9.66544343,18.96844 L9.66544343,17.88754 C9.66544343,17.88664 9.79414343,16.24144 8.35504347,15.3756401 L8.35504347,15.3756401 Z M54.7365422,18.51394 C54.7365422,18.51394 54.7770422,19.40044 53.9553423,19.40044 C53.9553423,19.40044 53.0904423,19.44634 53.0904423,18.53644 L53.0814423,10.4094402 L50.0079424,10.4094402 L50.0079424,18.47074 C50.0079424,18.47074 49.6920424,21.5226769 53.9985423,21.5226769 C53.9985423,21.5226769 57.7407422,21.5667399 57.7407422,18.61114 L57.7407422,10.4094402 L54.7365422,10.4094402 L54.7365422,18.51394 Z M68.0232419,16.97674 L67.8999419,16.97674 L65.021742,10.4031402 L61.5783421,10.4031402 L61.5783421,21.2058399 L64.380942,21.2058399 L64.212642,14.6322401 L64.338642,14.6322401 L67.3203419,21.2058399 L70.6593418,21.2058399 L70.6593418,10.4022402 L67.8207419,10.4022402 L68.0232419,16.97674 Z M77.4246416,15.2271401 L77.4246416,16.81294 L78.1968416,16.81294 L78.1968416,18.51484 C78.1968416,19.34644 77.4858416,19.36174 77.4858416,19.36174 C76.6218417,19.36174 76.6542417,18.57154 76.6542417,18.57154 L76.6542417,12.6846401 C76.6542417,12.0780401 77.4210416,12.0456401 77.4210416,12.0456401 C78.1572416,12.0456401 78.1626416,12.7692401 78.1626416,12.7692401 L78.1626416,13.6647401 L80.9985415,13.6647401 C81.0912415,11.9169402 80.7429415,11.4939402 80.7429415,11.4939402 C80.0391416,9.91444021 77.3778416,10.0008402 77.3778416,10.0008402 C73.2873417,10.0008402 73.7418417,13.1391401 73.7418417,13.1391401 L73.7418417,18.83074 C73.8300417,21.7737399 77.8602416,21.4749399 77.9277416,21.4722399 C79.7205416,21.2742399 80.2614416,20.7036399 80.2614416,20.7036399 C80.7600415,20.3337399 80.8887415,19.8216399 80.8887415,19.8216399 C81.0309415,19.52284 81.0669415,18.57154 81.0669415,18.57154 L81.0669415,15.2271401 L77.4246416,15.2271401 Z M14.2158433,10.4445402 L12.3537434,21.1923399 L15.3660433,21.1923399 L16.4694433,12.8592401 L16.7169432,12.8592401 L17.8194432,21.1923399 L20.8308431,21.1923399 L18.9696432,10.4445402 L14.2158433,10.4445402 Z M30.8730429,10.3995402 L29.9253429,16.33684 L29.7039429,16.33684 L28.7985429,10.4535402 L24.072643,10.4535402 L23.8359431,21.2049399 L26.634043,21.2049399 L26.667343,13.1040401 L26.887843,13.1040401 L28.3710429,21.2031399 L31.3149429,21.2031399 L32.7801428,13.1067401 L32.9745428,13.1067401 L33.0420428,21.2049399 L35.8554427,21.2049399 L35.5521427,10.3995402 L30.8730429,10.3995402 Z M45.3576425,15.3756401 C45.3576425,15.3756401 44.5881425,14.9004401 44.1120425,14.7159401 C44.1120425,14.7159401 42.6405426,14.0337401 42.3480426,13.7088401 C42.3480426,13.7088401 41.7738426,13.1679401 42.1104426,12.5397401 C42.1104426,12.5397401 42.2508426,12.1293401 42.8574426,12.1293401 C42.8574426,12.1293401 43.6467425,12.1725401 43.6467425,12.8214401 L43.6467425,13.7367401 L46.4763425,13.7367401 L46.4718425,12.3885401 C46.4718425,12.3885401 46.6887425,10.1808402 43.1382425,10.0836402 C43.1382425,10.0836402 40.3464426,9.90004021 39.5454426,11.4039402 C39.5454426,11.4039402 39.2313426,11.7396402 39.2313426,12.9078401 L39.2313426,13.7520401 C39.2313426,13.7520401 39.1989426,14.7258401 39.6966426,15.3540401 C39.6966426,15.3540401 39.9774426,15.7653401 40.6704426,16.21894 C40.6704426,16.21894 42.0771426,16.97674 42.9213426,17.41054 C42.9213426,17.41054 43.7736425,17.89744 43.6620425,18.67144 C43.6620425,18.67144 43.5918425,19.46614 42.7692426,19.43374 C42.7692426,19.43374 42.0168426,19.40044 42.0168426,18.62014 L42.0168426,17.70574 L39.0018427,17.70574 L39.0018427,19.03414 C39.0018427,19.03414 38.9172427,21.5757399 42.7917426,21.5757399 C42.7917426,21.5757399 46.4934425,21.6504399 46.6653425,18.96754 L46.6653425,17.88574 C46.6653425,17.88574 46.7958424,16.24144 45.3576425,15.3756401 L45.3576425,15.3756401 Z" id="Fill-1" fill="#333333"></path>
    </g>
</svg>