<?xml version="1.0" encoding="UTF-8"?>
<svg width="84px" height="32px" viewBox="0 0 84 32" version="1.1" xmlns="http://www.w3.org/2000/svg" xmlns:xlink="http://www.w3.org/1999/xlink">
    <title>Logos / Logo - Xiaomi / Gris</title>
    <g id="Logos-/-Logo---Xiaomi-/-Gris" stroke="none" stroke-width="1" fill="none" fill-rule="evenodd">
        <path d="M44.502,11.8354444 L42.663,11.8354444 C42.617,12.1114444 42.63,20.2324444 42.675,20.3864444 L44.502,20.3864444 L44.502,11.8354444 Z M80.254,20.3844444 L82.092,20.3844444 L82.092,11.8344444 L80.25,11.8344444 C80.201,12.0384444 80.206,20.2124444 80.254,20.3844444 L80.254,20.3844444 Z M37.752,16.0134444 C37.971,15.7324444 38.184,15.4574444 38.398,15.1834444 C38.617,14.9014444 38.836,14.6214444 39.056,14.3404444 C39.27,14.0644444 39.484,13.7894444 39.699,13.5144444 C39.919,13.2334444 40.139,12.9534444 40.356,12.6714444 C40.566,12.3984444 40.79,12.1364444 41.005,11.8224444 L40.752,11.8224444 C40.204,11.8224444 39.654,11.8284444 39.106,11.8194444 C38.941,11.8164444 38.835,11.8634444 38.733,11.9994444 C38.097,12.8494444 37.452,13.6924444 36.81,14.5384444 C36.767,14.5934444 36.721,14.6464444 36.664,14.7164444 C36.605,14.6424444 36.555,14.5834444 36.509,14.5214444 C35.871,13.6724444 35.232,12.8254444 34.598,11.9734444 C34.519,11.8664444 34.439,11.8174444 34.3,11.8194444 C33.687,11.8284444 33.074,11.8224444 32.46,11.8234444 C32.408,11.8234444 32.356,11.8344444 32.276,11.8424444 C33.364,13.2524444 34.433,14.6364444 35.504,16.0234444 C34.383,17.4654444 33.276,18.8884444 32.17,20.3114444 C32.162,20.3214444 32.158,20.3364444 32.154,20.3504444 C32.152,20.3564444 32.154,20.3634444 32.156,20.3704444 C32.158,20.3764444 32.162,20.3824444 32.169,20.3964444 C32.785,20.3964444 33.405,20.3894444 34.025,20.4004444 C34.189,20.4034444 34.282,20.3464444 34.377,20.2214444 C35.054,19.3304444 35.737,18.4444444 36.419,17.5574444 C36.469,17.4914444 36.523,17.4274444 36.59,17.3424444 C36.657,17.4254444 36.71,17.4894444 36.761,17.5554444 C37.436,18.4474444 38.113,19.3384444 38.782,20.2344444 C38.874,20.3564444 38.97,20.4024444 39.12,20.3994444 C39.548,20.3904444 39.976,20.3964444 40.403,20.3964444 L41.141,20.3964444 C39.992,18.9104444 38.878,17.4684444 37.752,16.0134444 L37.752,16.0134444 Z M62.662,16.0254444 C62.653,15.5424444 62.607,15.0684444 62.449,14.6124444 C62.203,13.9054444 61.758,13.3834444 61.028,13.1584444 C60.773,13.0794444 60.498,13.0334444 60.231,13.0254444 C59.025,12.9904444 58.153,13.5674444 57.807,14.7374444 C57.628,15.3414444 57.609,15.9574444 57.668,16.5794444 C57.714,17.0644444 57.826,17.5334444 58.063,17.9664444 C58.374,18.5334444 58.835,18.9134444 59.472,19.0534444 C59.706,19.1054444 59.951,19.1294498 60.191,19.1294498 C61.268,19.1314444 62.049,18.5704444 62.416,17.5544444 C62.595,17.0584444 62.647,16.5434444 62.662,16.0254444 L62.662,16.0254444 Z M64.632,16.0144444 C64.638,16.6894444 64.552,17.3494444 64.319,17.9854444 C63.892,19.1544444 63.085,19.9384444 61.899,20.3074444 C60.77,20.6584444 59.623,20.6684444 58.487,20.3414444 C57.227,19.9784444 56.374,19.1584444 55.958,17.9164444 C55.573,16.7664444 55.54,15.5924444 55.866,14.4234444 C56.228,13.1264444 57.061,12.2554444 58.352,11.8564444 C59.562,11.4824444 60.786,11.4844444 61.99,11.8724444 C63.345,12.3084444 64.157,13.2634444 64.489,14.6374444 C64.598,15.0894444 64.638,15.5494444 64.632,16.0144444 L64.632,16.0144444 Z M52.376,16.3134444 C52.314,16.3054444 52.267,16.2954444 52.219,16.2924444 C51.635,16.2484444 51.051,16.2594444 50.469,16.3044444 C50.022,16.3394444 49.578,16.4044444 49.151,16.5514444 C48.866,16.6494444 48.597,16.7754444 48.377,16.9884444 C47.814,17.5334444 47.91,18.3454444 48.585,18.7354444 C48.872,18.9014444 49.187,18.9894444 49.511,19.0464444 C50.409,19.2024444 51.298,19.1224444 52.181,18.9334444 C52.387,18.8894444 52.387,18.8854444 52.387,18.6654444 C52.387,17.9534444 52.387,17.2414444 52.387,16.5294444 C52.387,16.4604444 52.379,16.3914444 52.376,16.3134444 L52.376,16.3134444 Z M52.314,14.8984444 C52.402,14.2524444 52.118,13.7014444 51.573,13.4344444 C51.209,13.2544444 50.815,13.1914444 50.414,13.1764444 C49.223,13.1324444 48.054,13.2834444 46.902,13.5804444 C46.882,13.5854444 46.861,13.5874444 46.812,13.5964444 C46.783,13.1034444 46.805,12.6174444 46.799,12.1064444 C47.05,12.0404444 47.294,11.9684444 47.542,11.9124444 C48.546,11.6864444 49.561,11.5514444 50.593,11.6064444 C51.2,11.6394444 51.799,11.7094444 52.378,11.9044444 C53.398,12.2494444 53.973,12.9664444 54.131,14.0184444 C54.182,14.3554444 54.206,14.6994444 54.208,15.0404444 C54.216,16.6144444 54.211,18.1894444 54.211,19.7644444 C54.211,19.9914444 54.211,19.9924444 54,20.0624444 C53.19,20.3294444 52.357,20.4704444 51.509,20.5354444 C50.702,20.5984444 49.899,20.5594444 49.1,20.4444444 C48.54,20.3644444 47.996,20.2274444 47.491,19.9634444 C46.636,19.5184444 46.201,18.8154444 46.182,17.8474444 C46.164,16.9394444 46.548,16.2564444 47.303,15.7704444 C47.844,15.4224444 48.449,15.2374444 49.074,15.1124444 C50.022,14.9214444 50.982,14.8824444 51.946,14.8984444 C52.066,14.8994444 52.186,14.8984444 52.314,14.8984444 L52.314,14.8984444 Z M78.392,20.1204444 L78.392,14.9464444 C78.392,14.6404444 78.4,14.3334444 78.389,14.0274444 C78.357,13.1754444 77.989,12.5084444 77.252,12.0664444 C77.053,11.9464444 76.834,11.8524444 76.612,11.7784444 C75.97,11.5654444 75.31,11.5644444 74.646,11.6404444 C73.848,11.7314444 73.103,11.9704444 72.424,12.4054444 C72.384,12.4314444 72.339,12.4504444 72.3,12.4704444 C72.272,12.4534444 72.252,12.4454444 72.235,12.4324444 C71.54,11.8754444 70.729,11.6484444 69.855,11.6044444 C69.028,11.5634444 68.223,11.7024444 67.431,11.9304444 C66.986,12.0574444 66.551,12.2114444 66.142,12.4214444 C66.092,12.9414444 66.133,20.1894444 66.189,20.3824444 L68.035,20.3824444 L68.035,16.9324444 L68.035,13.5034444 C68.082,13.4794444 68.106,13.4624444 68.132,13.4524444 C68.72,13.2304444 69.331,13.1314444 69.956,13.1834444 C70.587,13.2354444 71.09,13.6454444 71.251,14.2324444 C71.308,14.4424444 71.326,14.6684444 71.327,14.8874444 C71.333,16.6264444 71.33,18.3644444 71.331,20.1034444 C71.331,20.1934444 71.339,20.2834444 71.344,20.3844444 L73.192,20.3844444 C73.197,20.2874444 73.205,20.1974444 73.205,20.1064444 C73.206,18.0834444 73.211,16.0594444 73.198,14.0354444 C73.196,13.7884444 73.279,13.6644444 73.487,13.5614444 C74.085,13.2624444 74.706,13.1154444 75.368,13.2654444 C75.946,13.3954444 76.331,13.7464444 76.465,14.3344444 C76.502,14.4994444 76.508,14.6734444 76.509,14.8434444 C76.512,16.5964444 76.511,18.3494444 76.511,20.1024444 L76.511,20.3844444 L78.392,20.3844444 L78.392,20.1204444 Z M10.898,17.7994444 L10.898,17.7994444 C10.898,18.6264444 10.897,19.4524444 10.899,20.2784444 C10.9,20.5494444 10.945,20.5914444 11.208,20.5924444 C11.792,20.5934444 12.377,20.5934444 12.961,20.5914444 C13.183,20.5914444 13.238,20.5354444 13.248,20.3174444 C13.249,20.2824444 13.249,20.2464444 13.249,20.2104444 C13.249,18.6084444 13.249,17.0054444 13.248,15.4024444 C13.248,15.3454444 13.251,15.2884444 13.245,15.2314444 C13.23,15.0974444 13.178,15.0444444 13.043,15.0234444 C12.994,15.0164444 12.943,15.0184444 12.894,15.0184444 C12.345,15.0174444 11.796,15.0174444 11.248,15.0184444 C10.944,15.0194444 10.902,15.0624444 10.898,15.3624444 C10.898,15.3984444 10.898,15.4344444 10.898,15.4694444 L10.898,17.7994444 Z M21.043,16.0794444 L21.043,11.9564444 C21.043,11.8984444 21.045,11.8414444 21.042,11.7854444 C21.033,11.6344444 20.988,11.5854444 20.836,11.5654444 C20.773,11.5584444 20.708,11.5594444 20.644,11.5594444 C20.16,11.5594444 19.675,11.5584444 19.19,11.5594444 C18.823,11.5604444 18.796,11.5874444 18.796,11.9644444 C18.795,14.7064444 18.795,17.4484444 18.795,20.1904444 C18.795,20.2044444 18.795,20.2184444 18.796,20.2324444 C18.797,20.5594444 18.828,20.5914444 19.146,20.5924444 C19.388,20.5934444 19.63,20.5924444 19.873,20.5924444 C20.157,20.5924444 20.442,20.5934444 20.728,20.5924444 C21.01,20.5914444 21.042,20.5584444 21.043,20.2674444 L21.043,20.1184444 L21.043,16.0794444 Z M6.992,16.0744444 C6.992,17.4644444 6.992,18.8544444 6.992,20.2434444 C6.992,20.5544444 7.029,20.5924444 7.332,20.5924444 C7.838,20.5934444 8.345,20.5854444 8.851,20.5944444 C9.255,20.6024444 9.24,20.5134444 9.24,20.2124444 C9.238,18.0674444 9.239,15.9224444 9.239,13.7774444 C9.239,13.4994444 9.249,13.4894444 9.53,13.4894444 C10.479,13.4894444 11.427,13.4894444 12.375,13.4894444 C12.788,13.4894444 13.203,13.4754444 13.615,13.4974444 C14.158,13.5264444 14.557,13.7904444 14.773,14.3024444 C14.865,14.5224444 14.899,14.7524444 14.899,14.9904444 C14.898,16.7574444 14.898,18.5244444 14.899,20.2924444 C14.899,20.5524444 14.937,20.5914444 15.195,20.5924444 C15.744,20.5934444 16.293,20.5934444 16.841,20.5924444 C17.092,20.5914444 17.141,20.5424444 17.145,20.2934444 C17.146,20.2574444 17.145,20.2224444 17.145,20.1864444 L17.145,14.3284444 C17.145,14.2434444 17.145,14.1574444 17.141,14.0724444 C17.089,12.8984444 16.338,11.9414444 15.221,11.6604444 C14.942,11.5894444 14.644,11.5644444 14.355,11.5634444 C12.017,11.5564444 9.678,11.5594444 7.34,11.5604444 C7.037,11.5604444 6.994,11.6054444 6.992,11.9054444 C6.992,11.9484444 6.992,11.9914444 6.992,12.0344444 L6.992,16.0744444 Z M2,16.0724444 C2,12.3874444 2,8.70244444 2.002,5.01744444 C2.002,4.87744444 2.01,4.73044444 2.05,4.59744444 C2.158,4.24944444 2.492,4.01044444 2.855,4.00044444 C2.905,3.99944444 2.955,4.00044444 3.005,4.00044444 C10.349,4.00044444 17.693,4.00044444 25.037,4.00244444 C25.17,4.00244444 25.312,4.00744444 25.436,4.04844444 C25.784,4.16544444 25.988,4.41544444 26.034,4.78244444 C26.044,4.86744444 26.0430278,4.95344444 26.0430278,5.03944444 C26.0430278,12.4014444 26.0430278,19.7644444 26.042,27.1264444 C26.042,27.2534444 26.04,27.3854444 26.01,27.5084444 C25.926,27.8604444 25.606,28.1194444 25.24,28.1444444 C25.148,28.1504444 25.055,28.1494444 24.962,28.1494444 C17.668,28.1504444 10.374,28.1504444 3.08,28.1494444 C2.994,28.1494444 2.909,28.1464444 2.823,28.1464444 C2.395,28.1484444 1.998,27.7404444 2.001,27.2974444 C2.002,27.2114444 2,27.1264444 2,27.0414444 L2,16.0724444 Z" id="Fill-1" fill="#333333"></path>
    </g>
</svg>