<?xml version="1.0" encoding="UTF-8"?>
<svg width="84px" height="32px" viewBox="0 0 84 32" version="1.1" xmlns="http://www.w3.org/2000/svg" xmlns:xlink="http://www.w3.org/1999/xlink">
    <title>Logos / Logo - Oppo / Gris</title>
    <g id="Logos-/-Logo---Oppo-/-Gris" stroke="none" stroke-width="1" fill="none" fill-rule="evenodd">
        <path d="M67.9493723,9.99690957 C67.0832258,9.99237318 66.2323016,10.0921738 65.4072552,10.359065 C64.2975526,10.7174401 63.3385503,11.2897817 62.7486878,12.330884 C61.7150965,14.1575384 62.413037,16.4098577 64.3827972,17.3987915 C66.4682466,18.4459423 68.6435073,18.453503 70.8271402,17.6997056 C71.7678758,17.3761095 72.5358387,16.8022558 73.0663344,15.9486577 C73.8982309,14.6104217 73.9050809,12.1864755 71.6377255,10.878482 C70.4968172,10.221461 69.247831,10.0059824 67.9493723,9.99690957 L67.9493723,9.99690957 Z M68.128995,20.1886735 C66.2543739,20.2211843 64.4581474,19.8733941 62.8187102,18.926044 C61.4030402,18.1072249 60.3968489,16.9451522 60.0124869,15.3324643 C59.4865578,13.1194604 60.3679266,10.9480401 62.3209423,9.58863416 C63.5554675,8.72974367 64.9467819,8.28290892 66.4271465,8.10145318 C68.5011792,7.84741515 70.5226951,8.04928466 72.4277607,8.94824662 C74.0633924,9.72094564 75.3100953,10.8822624 75.7987298,12.6696014 C76.3878312,14.8274125 75.6838017,17.0389043 73.6858803,18.5049154 C72.3166382,19.5089705 70.7457012,19.976219 69.0697305,20.1387731 C68.7599576,20.1690158 68.4486624,20.1727961 68.128995,20.1886735 L68.128995,20.1886735 Z M16.1769498,9.99237318 C15.1037806,9.99539744 14.1371672,10.1186361 13.212415,10.4717187 C12.1095624,10.8928473 11.1947046,11.546844 10.7152035,12.6582604 C9.93049608,14.4818905 10.6702978,16.4952931 12.5464412,17.4139128 C14.7803076,18.5056715 17.0925686,18.4965987 19.3622073,17.5220302 C21.0244779,16.8083043 21.7893964,15.4927502 21.6691405,13.7046551 C21.5816126,12.4027102 20.8258274,11.4961876 19.7252582,10.8573122 C18.6049,10.2055837 17.3673304,10.0074945 16.1769498,9.99237318 L16.1769498,9.99237318 Z M16.353528,20.1939659 C14.4012733,20.2083312 12.5844968,19.883979 10.9298373,18.9124348 C9.51721177,18.0830308 8.49351491,16.9277627 8.14111963,15.3082702 C7.64182956,13.0060505 8.48209821,10.9896237 10.429025,9.60829187 C11.662028,8.733524 13.0624757,8.28139679 14.554257,8.09994105 C16.6298119,7.84665909 18.6467612,8.06138171 20.5563935,8.94673449 C22.0146858,9.62265711 23.1510274,10.636541 23.7576344,12.1509404 C24.6877144,14.4728177 23.8794124,17.0260512 21.7315518,18.5684249 C20.5175767,19.4401685 19.1338734,19.8801987 17.6664477,20.0850925 C17.2143467,20.1478459 16.7561567,20.1614551 16.353528,20.1939659 L16.353528,20.1939659 Z M33.3773405,18.1866118 C34.6232823,18.2123181 35.821274,18.0006197 36.9218433,17.40484 C38.1890963,16.7183325 38.9547759,15.6915954 38.995876,14.2142433 C39.036215,12.7557928 38.4060135,11.6216945 37.1402827,10.9336748 C34.7937716,9.65894826 32.3551658,9.65063154 29.9447212,10.7423902 C28.5381846,11.3805096 27.7405382,12.5168761 27.7374806,14.0932728 C27.7336882,15.6696695 28.5526457,16.7568918 29.9287379,17.4607889 C31.007996,18.0119607 32.1686932,18.2191226 33.3773405,18.1866118 L33.3773405,18.1866118 Z M27.7314049,18.6712499 L27.7314049,23.9901711 L25.318677,23.9901711 L25.318677,8.58079876 L27.7222715,8.58079876 L27.7222715,9.57200072 C27.8379607,9.51000334 27.9095053,9.47673646 27.9772444,9.43515285 C29.9104712,8.24964204 32.0316929,7.8859745 34.2647981,8.04096794 C35.8182296,8.14908531 37.2963109,8.53165449 38.6259751,9.36105842 C40.4138294,10.4785233 41.4527485,12.0496276 41.4306762,14.1885371 C41.4108873,16.0446781 40.539413,17.4819587 39.0438261,18.557084 C37.8808456,19.3932925 36.5610758,19.8560046 35.146928,20.0608984 C33.2517568,20.3345941 31.385508,20.2189161 29.5847148,19.5407253 C28.9567967,19.3048328 28.3646508,18.972164 27.7314049,18.6712499 L27.7314049,18.6712499 Z M50.6142646,9.98859285 C50.4019141,10.0006899 50.1088856,10.0044702 49.8181405,10.0339568 C48.6574433,10.1511469 47.5515463,10.4339155 46.5879773,11.1242033 C45.2902798,12.054164 44.7430396,13.5972938 45.1791573,15.1154735 C45.4828414,16.1716971 46.1625152,16.9451522 47.1435897,17.4071082 C49.5068453,18.5185246 51.8944565,18.499623 54.2546677,17.3851823 C54.9967528,17.035124 55.5675875,16.4665627 55.9382494,15.7278866 C56.8150515,13.9821312 56.1749556,11.9354617 54.4274403,10.9057004 C53.2789209,10.2290217 52.0109068,10.0067384 50.6142646,9.98859285 L50.6142646,9.98859285 Z M45.0398736,24 L42.6248624,24 L42.6248624,8.57701843 L45.0406348,8.57701843 L45.0406348,9.55839154 C45.4508746,9.33913252 45.8101199,9.12819023 46.1853486,8.95051482 C47.8879582,8.14454892 49.6940791,7.90941253 51.5572835,8.03794368 C53.1206094,8.14606105 54.6055407,8.53467876 55.9450995,9.36710695 C57.4361197,10.2940433 58.4468776,11.5710381 58.6797782,13.3372073 C58.9667177,15.5010669 58.146238,17.2226282 56.4055728,18.5200367 C55.2311755,19.3963167 53.879439,19.8582728 52.4378912,20.0608984 C50.1964136,20.3754217 48.0234363,20.1576748 45.9691925,19.1490833 C45.6617029,18.9986263 45.3709578,18.8133902 45.0398736,18.6251299 L45.0398736,24 Z" id="Fill-1" fill="#333333"></path>
    </g>
</svg>