<svg width="70" height="36" viewBox="0 0 70 36" xmlns="http://www.w3.org/2000/svg"><defs><linearGradient x1="32.838%" y1="25.006%" x2="56.373%" y2="85.828%" id="linearGradient-1"><stop offset="0%"/><stop stop-opacity="0" offset="100%"/></linearGradient></defs><g id="Page-2" stroke="none" stroke-width="1" fill="none" fill-rule="evenodd"><g id="LP_Preventa-Samsung-Galaxy-Note-XX-+-Watch----Note---Desktop" transform="translate(-756 -1406)"><g id="Group-6" transform="translate(50 1359)"><g id="1" transform="translate(600)"><g id="Group" transform="translate(76)"><g transform="translate(23 23)" id="band_on_charge_hi_dark"><path id="bg" fill-opacity="0" fill="#D8D8D8" d="M0 0h84v84H0z"/><path d="M70 36.75V31.5a7 7 0 00-7-7H14a7 7 0 00-7 7v21a7 7 0 007 7h49a7 7 0 007-7V36.75z" id="Shape" fill="#FFF" fill-rule="nonzero"/><path d="M70 52.5h1.75c2.9 0 5.25-2.35 5.25-5.25v-10.5c0-2.9-2.35-5.25-5.25-5.25H70" id="Shape" fill="#EBEBEB" fill-rule="nonzero"/><g id="Group" opacity=".06" transform="translate(70 31.5)" fill="#000" fill-rule="nonzero"><path d="M0 21h1.75C4.65 21 7 18.65 7 15.75V5.25C7 2.35 4.65 0 1.75 0H0" id="Shape"/></g><g id="Group" opacity=".06" transform="translate(70 31.5)" fill="#000" fill-rule="nonzero"><path d="M0 21h1.75C4.65 21 7 18.65 7 15.75V5.25C7 2.35 4.65 0 1.75 0H0" id="Shape"/></g><path d="M71.75 52.5c2.9 0 5.25-2.35 5.25-5.25v-5.84l-7-7V52.5h1.75z" id="Shape" fill="url(#linearGradient-1)" fill-rule="nonzero" opacity=".2"/><path d="M38.5 51.625a.874.874 0 01-.682-1.422l5.862-7.328H31.5a.875.875 0 01-.683-1.422l7-8.75a.875.875 0 011.365 1.094l-5.862 7.328H45.5a.875.875 0 01.682 1.422l-7 8.75a.874.874 0 01-.682.328z" id="Shape" fill="#E60000" fill-rule="nonzero"/><path id="Shape" fill="#E60000" fill-rule="nonzero" d="M37.673 42l1.671-8.527L31.491 42zm1.671-.04l-1.67 8.523 7.857-8.522z"/><path d="M63 58.625H14a7 7 0 01-7-7v.875a7 7 0 007 7h49a7 7 0 007-7v-.875a7 7 0 01-7 7zm8.75-7H70v.875h1.75c2.9 0 5.25-2.35 5.25-5.25v-.875c0 2.9-2.35 5.25-5.25 5.25z" id="Shape" fill="#000" fill-rule="nonzero" opacity=".06"/></g></g></g></g></g></g></svg>