<svg width="70" height="64" viewBox="0 0 70 64" xmlns="http://www.w3.org/2000/svg"><defs><linearGradient x1="29.269%" y1="38.97%" x2="88.031%" y2="88.463%" id="linearGradient-1"><stop offset="0%"/><stop stop-opacity="0" offset="100%"/></linearGradient></defs><g id="Page-2" stroke="none" stroke-width="1" fill="none" fill-rule="evenodd"><g id="LP_Preventa-Samsung-Galaxy-Note-XX-+-Watch----Note---Desktop" transform="translate(-1056 -1392)"><g id="Group-6" transform="translate(50 1359)"><g id="1" transform="translate(900)"><g id="Group" transform="translate(76)"><g id="camera-hi-dark" transform="translate(23 23)"><path id="Rectangle" d="M0 0h84v84H0z"/><path d="M70 73.5H14a7 7 0 01-7-7V28a3.5 3.5 0 013.5-3.5h7.875a5.25 5.25 0 004.2-2.1l7.35-9.8a5.25 5.25 0 014.2-2.1h15.75a5.25 5.25 0 014.2 2.1l7.35 9.8a5.25 5.25 0 004.2 2.1H73.5A3.5 3.5 0 0177 28v38.5a7 7 0 01-7 7z" id="Path" fill="#FFF" fill-rule="nonzero"/><g id="Group" opacity=".2" transform="translate(28 32.375)" fill="url(#linearGradient-1)" fill-rule="nonzero"><path d="M49 20.125v14a7 7 0 01-7 7H13.125L.166 28.459 28.626 0 49 20.125z" id="Path"/></g><circle id="Oval" fill="#F4F4F4" fill-rule="nonzero" cx="42" cy="46.375" r="20.125"/><circle id="Oval" fill="#4A4D4E" fill-rule="nonzero" cx="42" cy="46.375" r="14"/><path d="M42 65.625c-10.946.003-19.887-8.744-20.125-19.688v.438C21.875 57.49 30.885 66.5 42 66.5s20.125-9.01 20.125-20.125v-.438C61.887 56.882 52.946 65.627 42 65.626z" id="Path" fill="#000" fill-rule="nonzero" opacity=".06"/><circle id="Oval" fill="#000" fill-rule="nonzero" cx="42" cy="46.375" r="7.875"/><circle id="Oval" fill="#E60000" fill-rule="nonzero" cx="15.75" cy="32.375" r="2.625"/><path d="M54.25 41.125c0 4.226-5.486 7.656-12.25 7.656s-12.25-3.43-12.25-7.656c0-4.226 5.486-8.75 12.25-8.75s12.25 4.524 12.25 8.75z" id="Path" fill="#F4F4F4" fill-rule="nonzero" opacity=".06"/><circle id="Oval" fill="#333" fill-rule="nonzero" cx="42" cy="42.875" r="1.75"/><path d="M70 72.625H14a7 7 0 01-7-7v.875a7 7 0 007 7h56a7 7 0 007-7v-.875a7 7 0 01-7 7z" id="Path" fill="#000" fill-rule="nonzero" opacity=".06"/><path d="M61.425 22.4l-7.35-9.8a5.25 5.25 0 00-4.2-2.1h-15.75a5.25 5.25 0 00-4.2 2.1l-7.35 9.8a5.25 5.25 0 01-4.2 2.1h47.25a5.25 5.25 0 01-4.2-2.1z" id="Path" fill="#000" fill-rule="nonzero" opacity=".12"/></g></g></g></g></g></g></svg>