<svg width="84" height="84" viewBox="0 0 84 84" xmlns="http://www.w3.org/2000/svg"><g id="Landing-Venta" stroke="none" stroke-width="1" fill="none" fill-rule="evenodd"><g id="LP_Venta-Note20+Watch3---Móvil---Desktop" transform="translate(-1048 -1429)"><g id="Group-2" transform="translate(50 1406)"><g id="1" transform="translate(899)"><g id="Group" transform="translate(76)"><g id="broadband-or-wifi-hi-dark" transform="translate(23 23)"><path id="Rectangle" d="M0 0h84v84H0z"/><rect id="Rectangle" fill="#FFF" fill-rule="nonzero" x="7" y="7" width="70" height="70" rx="35"/><g id="fa4a42bd-b59d-43ff-8dce-28a6df31c2d2" transform="translate(38.5 48.125)" fill="#4A4D4E" fill-rule="nonzero"><circle id="042280e8-da1c-4a0b-be37-c1481f633cb8" cx="3.5" cy="3.5" r="3.5"/></g><path d="M23.7 34.724a25.87 25.87 0 0136.6 0" id="d969ffd8-428f-47e6-88e9-3e3e607e29f4" stroke="#E60000" stroke-width="4" stroke-linecap="round" stroke-linejoin="round"/><path d="M28.997 39.375a18.484 18.484 0 0126.15 0" id="370c27c9-583f-45c0-a022-02c3e872fbb5" stroke="#E60000" stroke-width="4" stroke-linecap="round" stroke-linejoin="round"/><path d="M34.44 43.391c4.198-4.19 10.996-4.19 15.194 0" id="7b9c047b-d52e-4d6e-9d4e-dc33ed15caf6" stroke="#E60000" stroke-width="4" stroke-linecap="round" stroke-linejoin="round"/><path d="M42 76.125C22.862 76.072 7.293 60.698 7 41.562V42c.058 19.306 15.694 34.942 35 35 19.306-.058 34.942-15.694 35-35v-.438c-.293 19.136-15.862 34.51-35 34.563z" id="Path" fill="#000" fill-rule="nonzero" opacity=".06"/></g></g></g></g></g></g></svg>