<svg xmlns="http://www.w3.org/2000/svg" width="84" height="84" viewBox="0 0 84 84">
    <defs>
        <linearGradient id="beb7ha5xoa" x1="10.421%" x2="89.579%" y1="26.301%" y2="73.695%">
            <stop offset="0%" stop-color="#FFF" stop-opacity=".3"/>
            <stop offset="100%" stop-color="#F6F6F6" stop-opacity="0"/>
        </linearGradient>
        <linearGradient id="1ie9gwwuab" x1="27.975%" x2="72.018%" y1="17045.312%" y2="16968.091%">
            <stop offset="0%" stop-color="#FFF" stop-opacity=".3"/>
            <stop offset="100%" stop-color="#F6F6F6" stop-opacity="0"/>
        </linearGradient>
        <linearGradient id="lg2l40xjfc" x1="25.008%" x2="96.168%" y1="18.556%" y2="59.95%">
            <stop offset="0%"/>
            <stop offset="100%" stop-opacity="0"/>
        </linearGradient>
    </defs>
    <g fill="none" fill-rule="evenodd">
        <path fill="#D8D8D8" fill-opacity="0" d="M0 0L84 0 84 84 0 84z"/>
        <path fill="#FFF" fill-rule="nonzero" d="M31.938 14H73.5c1.933 0 3.5 1.567 3.5 3.5v42c0 1.933-1.567 3.5-3.5 3.5h-63C8.567 63 7 61.433 7 59.5v-42c0-1.933 1.567-3.5 3.5-3.5h21.438"/>
        <path fill="#333" fill-rule="nonzero" d="M9.625 17.938h64.75c.483 0 .875.391.875.875v38.062c0 .483-.392.875-.875.875H9.625c-.483 0-.875-.392-.875-.875V18.812c0-.483.392-.875.875-.875z"/>
        <path fill="#000" fill-rule="nonzero" d="M73.5 62.125h-63c-1.933 0-3.5-1.567-3.5-3.5v.875c0 1.933 1.567 3.5 3.5 3.5h63c1.933 0 3.5-1.567 3.5-3.5v-.875c0 1.933-1.567 3.5-3.5 3.5z" opacity=".06"/>
        <path fill="#333" fill-rule="nonzero" d="M74.375 18.594c.242 0 .438.196.438.437v37.844c0 .242-.196.438-.438.438H9.625c-.242 0-.438-.196-.438-.438V19.031c0-.241.196-.437.438-.437h64.75zm0-.438H9.625c-.483 0-.875.392-.875.875v37.844c0 .483.392.875.875.875h64.75c.483 0 .875-.392.875-.875V19.031c0-.483-.392-.875-.875-.875z" opacity=".24"/>
        <path fill="url(#beb7ha5xoa)" fill-rule="nonzero" d="M9.625 17.938h64.75c.483 0 .875.391.875.875v38.062c0 .483-.392.875-.875.875H9.625c-.483 0-.875-.392-.875-.875V18.812c0-.483.392-.875.875-.875z" opacity=".5"/>
        <path fill="#333" fill-rule="nonzero" d="M74.375 18.375c.242 0 .438.196.438.438v38.062c0 .242-.196.438-.438.438H9.625c-.242 0-.438-.196-.438-.438V18.812c0-.241.196-.437.438-.437h64.75zm0-.438H9.625c-.483 0-.875.392-.875.875v38.063c0 .483.392.875.875.875h64.75c.483 0 .875-.392.875-.875V18.812c0-.483-.392-.875-.875-.875z" opacity=".24"/>
        <path fill="#FFF" fill-rule="nonzero" d="M49.757 21h18.095c1.814 0 3.285 1.471 3.285 3.286v42.428c0 1.815-1.47 3.286-3.285 3.286H49.757c-1.815 0-3.286-1.471-3.286-3.286V24.286c0-1.815 1.471-3.286 3.286-3.286z"/>
        <path fill="#333" fill-rule="nonzero" d="M48.96 25.944h19.727c.455 0 .823.368.823.822v35.827c0 .454-.368.823-.823.823H48.962c-.455 0-.823-.369-.823-.823V26.766c0-.454.368-.822.823-.822z"/>
        <circle cx="58.8" cy="66.386" r="1.833" fill="#E60000" fill-rule="nonzero"/>
        <path fill="#000" fill-rule="nonzero" d="M67.86 69.177H49.745c-1.811-.012-3.273-1.483-3.273-3.294v.823c0 1.82 1.475 3.294 3.295 3.294H67.86c1.82 0 3.294-1.475 3.294-3.294v-.823c0 1.82-1.475 3.294-3.294 3.294z" opacity=".06"/>
        <path fill="#333" fill-rule="nonzero" d="M55.799 23.472H61.8c.162 0 .293.131.293.293v.236c0 .162-.13.293-.293.293H55.8c-.162 0-.293-.13-.293-.293v-.236c0-.162.13-.293.293-.293z"/>
        <path fill="#E60000" fill-rule="nonzero" d="M53.331 23.472h.236c.162 0 .294.131.294.293v.236c0 .162-.132.293-.293.293h-.237c-.162 0-.293-.13-.293-.293v-.236c0-.162.131-.293.293-.293z"/>
        <path fill="url(#1ie9gwwuab)" fill-rule="nonzero" d="M48.96 25.944h19.727c.455 0 .823.368.823.822v35.827c0 .454-.368.823-.823.823H48.962c-.455 0-.823-.369-.823-.823V26.766c0-.454.368-.822.823-.822z" opacity=".5"/>
        <path fill="#333" fill-rule="nonzero" d="M68.688 26.355c.227 0 .41.184.41.411V62.59c0 .227-.183.411-.41.411H48.96c-.228 0-.412-.184-.412-.411V26.766c0-.227.184-.411.412-.411h19.727zm0-.438H48.96c-.225-.002-.441.087-.599.247-.157.16-.243.378-.237.602V62.59c0 .454.368.822.823.822h19.74c.454 0 .822-.368.822-.822V26.766c0-.455-.368-.824-.823-.827v-.022z" opacity=".24"/>
        <path fill="#FFF" fill-rule="nonzero" d="M30.424 70h-7.075c-1.213-.001-2.236-.905-2.388-2.109l-.805-6.435c-.033-.275.053-.55.236-.757.181-.206.443-.324.717-.324h11.55c.277-.002.54.116.722.324.184.207.27.482.236.757l-.804 6.435C32.66 69.095 31.637 70 30.422 70zM32.66 41.125H21.11c-.275 0-.537-.118-.718-.324-.183-.207-.27-.482-.236-.757l.805-6.435c.152-1.204 1.175-2.108 2.388-2.109h7.075c1.213.001 2.237.905 2.389 2.109l.804 6.435c.034.275-.052.55-.236.757-.182.208-.445.326-.722.324z"/>
        <path fill="#000" fill-rule="nonzero" d="M33.14 38.75H20.323l-.061.555H33.513l-.062-.555h-.31z" opacity=".06"/>
        <path fill="#FFF" fill-rule="nonzero" d="M33.14 62.3H20.629c-2.922-.005-5.289-2.372-5.294-5.294V44.494c.005-2.922 2.372-5.29 5.294-5.294h12.513c2.922.002 5.291 2.371 5.293 5.294v12.512c-.002 2.923-2.37 5.292-5.293 5.294z"/>
        <path fill="#4A4D4E" fill-rule="nonzero" d="M32.62 61.337H21.153c-2.68-.002-4.851-2.172-4.856-4.851V45.014c.005-2.679 2.177-4.85 4.856-4.852H32.62c2.679.003 4.85 2.174 4.852 4.852v11.472c-.003 2.678-2.173 4.85-4.852 4.852z"/>
        <path fill="#000" fill-rule="nonzero" d="M33.14 61.819H20.629c-2.922-.005-5.289-2.372-5.294-5.294v.481c.005 2.922 2.372 5.29 5.294 5.294h12.513c2.922-.002 5.291-2.371 5.293-5.294v-.481c-.002 2.923-2.37 5.291-5.293 5.294z" opacity=".06"/>
        <path fill="#E60000" fill-rule="nonzero" d="M32.3 51.188h-5.416c-.241 0-.437-.196-.437-.438v-7.337c0-.241.196-.437.437-.437.242 0 .438.196.438.437v6.9H32.3c.248 0 .45.201.45.45s-.202.45-.45.45v-.026z"/>
        <path fill="#000" fill-rule="nonzero" d="M32.3 50.93h-5.416c-.241 0-.437-.197-.437-.438v.258c0 .242.196.438.437.438h5.417c.241 0 .437-.196.437-.438.007-.045.007-.09 0-.136-.056.193-.236.323-.437.315z" opacity=".12"/>
        <path fill="url(#lg2l40xjfc)" fill-rule="nonzero" d="M32.813 67.891l.7-5.591H20.269l7.7 7.7h2.455c1.213-.001 2.237-.905 2.389-2.109z" opacity=".2"/>
    </g>
</svg>
