<svg xmlns="http://www.w3.org/2000/svg" width="84" height="84" viewBox="0 0 84 84">
    <g fill="none" fill-rule="evenodd">
        <g>
            <path fill="#E60000" d="M20.186 60.172c-4.934-1.795-9.277-4.817-12.658-8.698-1.835-2.106-3.386-4.466-4.596-7.018C1.142 40.902 0 36.963 0 32.446c0-.195.004-.387.006-.58-.002-.164-.006-.328-.006-.493 0-2.586.322-5.095.926-7.493C4.276 9.039 16.34 0 30.613 0c12.724 0 23.692 7.184 28.296 19.258 1.604 3.716 2.494 7.811 2.494 12.115 0 8.017-3.084 15.315-8.132 20.776-.161.174-2.164 2.353-4.284 4.663l-.411.448c-1.373 1.496-2.747 2.996-3.66 3.997-5.157 5.653-9.872 10.46-12.39 12.984l-.664.664-.229.229-.208.206c-.524.52-.812.802-.812.802v-52.62h-7.591L8.945 32.668l4.05 7.181 7.722-4.18v24.69z" transform="translate(-.161 -.935) translate(11 8)"/>
            <path fill="#FFF" d="M20.717 60.36V35.67l-7.721 4.18-4.051-7.181 14.077-9.148h7.59V62.36c-3.017 0-6.316-.667-9.895-2z" transform="translate(-.161 -.935) translate(11 8)"/>
            <path fill="#D7D7D7" fill-rule="nonzero" d="M30.613 23.521L29.869 23.521 29.869 75.619 30.613 76.142z" opacity=".12" transform="translate(-.161 -.935) translate(11 8)"/>
        </g>
        <path fill="#CA0000" d="M41.613 8c12.724 0 23.692 7.184 28.296 19.258 1.604 3.716 2.494 7.811 2.494 12.115 0 7.915-3.006 15.13-7.942 20.568l-8.546 9.316c1.915-2.32 4.27-5.357 7.063-9.108 4.191-5.626 8.133-12.76 8.133-20.776 0-4.304-.89-8.4-2.494-12.115C64.092 15.394 53.424 8.25 40.982 8.006l.203-.003.428-.003z" transform="translate(-.161 -.935)"/>
    </g>
</svg>
