<svg xmlns="http://www.w3.org/2000/svg" width="84" height="84" viewBox="0 0 84 84"><g fill="none" fill-rule="evenodd"><path fill="#FFF" fill-rule="nonzero" d="M46.462 7h-2.58C27.404 7 14 20.278 14 36.597v10.806C14 63.722 27.405 77 43.881 77h2.581C59.444 77 70 66.544 70 53.686V30.314C70 17.456 59.443 7 46.462 7zM61.25 55.125A13.122 13.122 0 0148.125 68.25h-5.25c-7.249 0-13.125-5.876-13.125-13.125v-26.25c0-7.249 5.876-13.125 13.125-13.125h5.25A13.122 13.122 0 0161.25 28.875v26.25z"/><path d="M48.125 14.875h-5.25c-7.249 0-13.125 5.876-13.125 13.125v.875c0-7.249 5.876-13.125 13.125-13.125h5.25A13.122 13.122 0 0161.25 28.875V28a13.122 13.122 0 00-13.125-13.125zm-1.663 61.25h-2.58C27.404 76.125 14 62.847 14 46.528v.875C14 63.722 27.405 77 43.881 77h2.581C59.444 77 70 66.544 70 53.686v-.875c0 12.858-10.557 23.314-23.538 23.314z" fill="#000" fill-rule="nonzero" opacity=".06"/><path d="M0 0h84v84H0z"/><path fill="#E60000" fill-rule="nonzero" d="M21.875 44.625a2.625 2.625 0 110-5.25 2.625 2.625 0 010 5.25z"/><path fill="#000" fill-rule="nonzero" d="M21.875 43.75a2.625 2.625 0 01-2.586-2.188 2.625 2.625 0 105.171 0 2.623 2.623 0 01-2.585 2.188z" opacity=".12"/><path fill="#EBEBEB" fill-rule="nonzero" d="M29.72 28.04c0 .28.03.555.03.835v26.25c0 .28 0 .56-.03.836a2.188 2.188 0 001.78-2.148V30.186c0-1.05-.748-1.952-1.78-2.148z"/><path fill="#000" fill-rule="nonzero" d="M29.72 28.04c0 .28.03.555.03.835v26.25c0 .28 0 .56-.03.836a2.188 2.188 0 001.78-2.148V30.186c0-1.05-.748-1.952-1.78-2.148zM17.5 22.715A29.187 29.187 0 0014 36.597v10.806a29.187 29.187 0 003.5 13.882v-38.57z" opacity=".06"/><path fill="#4A4D4E" fill-rule="nonzero" d="M15.75 26.626a29.175 29.175 0 00-1.75 9.97v10.807c-.002 3.4.59 6.774 1.75 9.97V26.627z"/><path fill="#000" fill-rule="nonzero" d="M61.224 41.134h8.772l.005 1.75h-8.75" opacity=".06"/><path fill="#4A4D4E" fill-rule="nonzero" d="M61.25 42.875H70v1h-8.75z"/></g></svg>