<svg width="84" height="84" viewBox="0 0 84 84" xmlns="http://www.w3.org/2000/svg"><defs><linearGradient x1="-15.389%" y1="6.433%" x2="75.851%" y2="116.215%" id="a"><stop offset="0%"/><stop stop-opacity="0" offset="100%"/></linearGradient></defs><g fill="none" fill-rule="evenodd"><circle fill="#FFF" cx="42" cy="42" r="42"/><path d="M12 12h60v60H12z"/><path d="M12 12h60v60H12z"/><path d="M66.969 39.303l-3.125-9.375a.625.625 0 00-.594-.428h-15V52H62a5 5 0 005-5v-7.5a.63.63 0 00-.031-.197z" fill="#E60000" fill-rule="nonzero"/><path d="M43.25 24.5H22a5 5 0 00-5 5V47a5 5 0 005 5h26.25V29.5a5 5 0 00-5-5zm8.75 15h12.344l-2.216-6.644c-.169-.51-.49-.856-1.028-.856H52c-.69 0-1.25.56-1.25 1.25v5c0 .69.56 1.25 1.25 1.25z" fill="#EBEBEB" fill-rule="nonzero"/><path d="M52 39.5h12.344l-2.216-6.644c-.169-.51-.49-.856-1.028-.856H52c-.69 0-1.25.56-1.25 1.25v5c0 .69.56 1.25 1.25 1.25z" fill="#000" fill-rule="nonzero" opacity=".06"/><path d="M52.625 42h-1.25a.625.625 0 110-1.25h1.25a.625.625 0 110 1.25z" fill="#4A4D4E" fill-rule="nonzero"/><path d="M62 51.375H48.25V52H62a5 5 0 005-5v-.625a5 5 0 01-5 5z" fill="#000" fill-rule="nonzero" opacity=".12"/><path d="M22.669 51.375H22a5 5 0 01-5-5V47a5 5 0 005 5h26.25v-.625H22.669z" fill="#000" fill-rule="nonzero" opacity=".06"/><path d="M27 45.75a6.25 6.25 0 00-6.25 6.05 5 5 0 001.397.2H33.25A6.25 6.25 0 0027 45.75zm27.5 0a6.25 6.25 0 00-6.094 4.878L48.25 52h12.5a6.25 6.25 0 00-6.25-6.25z" fill="#000" fill-rule="nonzero" opacity=".12"/><path d="M27 57a5 5 0 110-10 5 5 0 010 10z" fill="#4A4D4E" fill-rule="nonzero"/><path d="M29.5 52a2.5 2.5 0 11-5 0 2.5 2.5 0 015 0z" fill="#EBEBEB" fill-rule="nonzero"/><path d="M27 56.375a5 5 0 01-4.984-4.688c0 .104-.016.207-.016.313a5 5 0 0010 0c0-.106 0-.21-.016-.313A5 5 0 0127 56.376z" fill="#000" fill-rule="nonzero" opacity=".12"/><path d="M49.95 40a5 5 0 005-5v-1.003L38.61 17.5h-2.36V40h13.7z" fill="url(#a)" fill-rule="nonzero" opacity=".2" transform="translate(12 12)"/><path d="M54.5 57a5 5 0 110-10 5 5 0 010 10z" fill="#4A4D4E" fill-rule="nonzero"/><path d="M57 52a2.5 2.5 0 11-5 0 2.5 2.5 0 015 0z" fill="#EBEBEB" fill-rule="nonzero"/><path d="M29.5 52a2.5 2.5 0 11-5 0 2.5 2.5 0 015 0zM57 52a2.5 2.5 0 11-5 0 2.5 2.5 0 015 0z" opacity=".12" fill="#000" fill-rule="nonzero"/><path d="M54.5 56.375a5 5 0 01-4.984-4.688c0 .104-.016.207-.016.313a5 5 0 1010 0c0-.106 0-.21-.016-.313a5 5 0 01-4.984 4.688z" fill="#000" fill-rule="nonzero" opacity=".12"/></g></svg>