<?xml version="1.0" encoding="UTF-8"?>
<svg width="64px" height="64px" viewBox="0 0 64 64" version="1.1" xmlns="http://www.w3.org/2000/svg" xmlns:xlink="http://www.w3.org/1999/xlink">
    <!-- Generator: Sketch 55 (78076) - https://sketchapp.com -->
    <title>Icon</title>
    <desc>Created with Sketch.</desc>
    <g id="✅-TV---Funcionalidades-y-Ofertas" stroke="none" stroke-width="1" fill="none" fill-rule="evenodd">
        <g id="TV---Desktop---Funcionalidades-y-Ofertas" transform="translate(-1002.000000, -1787.000000)">
            <g id="Funcionalidades" transform="translate(0.000000, 1614.000000)">
                <g id="Cards-/-Carousel-Standard-/-Dark-bkgd-/-Desktop" transform="translate(37.000000, 128.000000)">
                    <g id="Content">
                        <g id="card3" transform="translate(810.000000, 0.000000)">
                            <g id="Últimos-7-días-y-Ver-desde-el-principio" transform="translate(23.000000, 45.000000)">
                                <g id="tv/grabacion" transform="translate(132.000000, 0.000000)">
                                    <rect id="Rectangle-path" x="0" y="0" width="63.8337662" height="63.8337662"></rect>
                                    <path d="M30.9622617,31.4851813 L34.3531765,31.4851813 C35.0891615,31.4851813 35.6857952,32.081815 35.6857952,32.8178 C35.6857952,33.5537849 35.0891615,34.1504186 34.3531765,34.1504186 L30.9622617,34.1504186 L30.9622617,37.1533415 L35.3239226,37.1533415 C36.0599076,37.1533415 36.6565413,37.7499752 36.6565413,38.4859601 C36.6565413,39.2219451 36.0599076,39.8185788 35.3239226,39.8185788 L29.6296431,39.8185788 C28.8936581,39.8185788 28.2970244,39.2219451 28.2970244,38.4859601 L28.2970244,27.1500396 C28.2970244,26.4140546 28.8936581,25.8174209 29.6296431,25.8174209 L35.2972702,25.8174209 C36.0332552,25.8174209 36.6298889,26.4140546 36.6298889,27.1500396 C36.6298889,27.8860245 36.0332552,28.4826582 35.2972702,28.4826582 L30.9622617,28.4826582 L30.9622617,31.4851813 Z M21.3164448,32.4329957 C21.3636124,32.4293397 21.4107808,32.4282239 21.4577505,32.4295904 C21.7060651,32.4151669 22.0063523,32.3554944 22.2785687,32.2291807 C22.845049,31.9663229 23.1596463,31.4829807 23.1596463,30.4556001 C23.1596463,29.4288667 22.8451039,28.9457358 22.2785687,28.6828525 C21.9334223,28.5226979 21.5432096,28.4696078 21.2709974,28.4800183 C21.266733,28.480235 21.266733,28.480235 21.282354,28.4792211 L21.1867043,28.4826582 L19.2130961,28.4826582 L19.2130961,32.4292084 L21.1867043,32.4292084 L21.2826205,32.4326647 C21.2669704,32.4316461 21.2669704,32.4316461 21.2712865,32.4318658 C21.2860034,32.4324303 21.3010648,32.4328092 21.3164448,32.4329957 Z M23.4226512,34.6364233 L25.1876725,37.8434968 C25.542532,38.4882825 25.3075004,39.2986551 24.6627147,39.6535146 C24.017929,40.0083741 23.2075565,39.7733424 22.852697,39.1285567 L20.6325134,35.0944457 L19.2130961,35.0944457 L19.2130961,38.4859601 C19.2130961,39.2219451 18.6164624,39.8185788 17.8804774,39.8185788 C17.1444925,39.8185788 16.5478588,39.2219451 16.5478588,38.4859601 L16.5478588,27.1500396 C16.5478588,26.4140546 17.1444925,25.8174209 17.8804774,25.8174209 L21.1537163,25.8174209 C21.1582827,25.8172151 21.163387,25.8169861 21.1691422,25.8167279 C21.8257894,25.7916151 22.6095698,25.8982517 23.4004005,26.2652124 C24.8998407,26.9609817 25.8248836,28.3818296 25.8248836,30.4556001 C25.8248836,32.51961 24.9090408,33.9369246 23.4226511,34.6364229 Z M31.9172163,7.98471783 C18.700408,7.98471783 7.98471783,18.6996272 7.98471783,31.9172163 C7.98471783,45.1338059 18.7007411,55.8490484 31.9172163,55.8490484 C45.1332607,55.8490484 55.8497147,45.1335704 55.8497147,31.9172163 C55.8497147,18.6998627 45.1335938,7.98471783 31.9172163,7.98471783 Z M31.9172163,5.31948052 C46.6055094,5.31948052 58.514952,17.2278384 58.514952,31.9172163 C58.514952,46.6055946 46.6051762,58.5142857 31.9172163,58.5142857 C17.2288147,58.5142857 5.31948052,46.6058193 5.31948052,31.9172163 C5.31948052,17.2276138 17.2284815,5.31948052 31.9172163,5.31948052 Z M45.9348125,36.2902107 C46.4294645,35.7452398 47.2722454,35.7044483 47.8172162,36.1991004 C48.3621871,36.6937524 48.4029786,37.5365333 47.9083265,38.0815041 C46.9279947,39.1615609 45.547575,39.7897122 44.0637688,39.8184455 C40.7707564,39.8184455 38.2328959,36.6236781 38.2328959,32.8175334 C38.2328959,29.0089877 40.7648329,25.8179539 44.1038652,25.8185573 C45.8339884,25.8706375 47.4348967,26.7415584 48.4176518,28.1662887 C48.8355473,28.7721246 48.6831915,29.6020229 48.0773556,30.0199184 C47.4715196,30.437814 46.6416213,30.2854581 46.2237258,29.6796222 C45.7225663,28.9530759 44.9065791,28.5091652 44.0637688,28.4831913 C42.3898234,28.4831913 40.8981332,30.3631882 40.8981332,32.8175334 C40.8981332,35.2689978 42.394913,37.1532082 44.0377397,37.1534625 C44.761748,37.1393182 45.4472282,36.8273948 45.9348125,36.2902107 Z" id="Path-2" fill="#FFFFFF" fill-rule="evenodd"></path>
                                </g>
                            </g>
                        </g>
                    </g>
                </g>
            </g>
        </g>
    </g>
</svg>