<svg xmlns="http://www.w3.org/2000/svg" width="80" height="32" viewBox="0 0 80 32">
    <g fill="none" fill-rule="evenodd">
        <path d="M0 0H96V96H0z" transform="translate(-8 -32)"/>
        <g fill-rule="nonzero">
            <path fill="#E60000" d="M15.535 24.97H7.88C4.955 24.97 0 23.195 0 16.55c0-6.5 5.15-9.325 7.775-9.325H14.6c.432-.028.843.186 1.068.556.224.37.224.834 0 1.203-.225.37-.636.584-1.068.556H7.775c-1.205 0-5.46 1.68-5.46 7 0 5.81 4.635 6.105 5.565 6.105h7.655c.61.04 1.084.546 1.084 1.157 0 .612-.474 1.118-1.084 1.158v.01zM64.465 24.97h7.655c2.925 0 7.88-1.775 7.88-8.42 0-6.5-5.15-9.325-7.775-9.325H65.4c-.432-.028-.843.186-1.068.556-.224.37-.224.834 0 1.203.225.37.636.584 1.068.556h6.825c1.205 0 5.46 1.68 5.46 7 0 5.81-4.635 6.105-5.565 6.105h-7.655c-.61.04-1.084.546-1.084 1.157 0 .612.474 1.118 1.084 1.158v.01z" transform="translate(-8 -32) translate(8 32)"/>
            <path fill="#EBEBEB" d="M67.435 9.135C67.25 4.605 65.6 3.41 60.29 2.5 54.98 1.59 45.46 0 40 0c-5.46 0-15 1.56-20.29 2.5-5.29.94-6.96 2.105-7.145 6.635-.185 4.53.185 13.685 0 16.43-.185 2.745 3.5 4 10.255 4.75C29.575 31.065 35.935 32 40 32c4.065 0 10.405-.915 17.18-1.66 6.775-.745 10.435-2 10.255-4.75-.18-2.75.18-11.925 0-16.455z" transform="translate(-8 -32) translate(8 32)"/>
            <g fill="#000" opacity=".06">
                <path d="M.5.085c0 3.375.095 7.595.105 10.57C.63 7.895.525 3.64.5.085zM45.18 17.5c-6.775.75-13.115 1.665-17.18 1.665-4.065 0-10.405-.92-17.18-1.665C4.495 16.805.885 15.665.585 13.28v.29c-.18 2.75 3.5 4 10.255 4.75C17.595 19.07 23.935 20 28 20c4.065 0 10.405-.915 17.18-1.66 6.775-.745 10.435-2 10.255-4.75v-.29c-.32 2.36-3.935 3.5-10.255 4.2zM55.38 10.655c0-3 .115-7.195.105-10.57.015 3.555-.115 7.81-.105 10.57z" transform="translate(-8 -32) translate(8 32) translate(12 12)"/>
            </g>
            <path fill="#000" d="M63.55 9.54c-.07.007-.14.007-.21 0-.12 0-12.275-2.245-15.275-2.445-1.35-.09-2.5-.235-3.58-.38-1.44-.222-2.893-.344-4.35-.365-1.467.02-2.93.142-4.38.365-1.1.145-2.23.29-3.58.38C29.175 7.275 17 9.5 16.9 9.5c-.428.135-.896.01-1.2-.32-.303-.33-.387-.807-.216-1.222.171-.415.568-.693 1.016-.713.5-.095 12.41-2.27 15.545-2.5 1.27-.085 2.37-.225 3.43-.365 1.54-.237 3.093-.365 4.65-.385 1.567.018 3.131.147 4.68.385 1.06.14 2.16.28 3.43.365 3.135.21 15.04 2.385 15.545 2.5.6.097 1.022.64.967 1.246-.056.604-.57 1.063-1.177 1.049h-.02zM63.285 14.44h-.035c-.2 0-20.185-.535-23.385-.535-3.2 0-23.185.53-23.365.535-.635.009-1.16-.49-1.185-1.125-.01-.307.104-.605.315-.829.211-.223.503-.353.81-.361.825 0 20.22-.535 23.445-.535 3.225 0 22.625.5 23.45.535.61.047 1.078.56 1.07 1.172-.008.611-.49 1.112-1.1 1.143h-.02zM40 21.875c-1.88 0-5.8-.25-9.595-.5-2.795-.18-5.44-.35-7.095-.41-3.95-.14-7.43-.645-7.575-.665-.632-.093-1.07-.68-.977-1.312.092-.633.68-1.07 1.312-.978.035 0 3.5.5 7.32.645 1.69.06 4.35.23 7.165.41 3.755.24 7.64.5 9.445.5 1.805 0 5.69-.25 9.445-.5 2.815-.18 5.5-.35 7.165-.41 3.815-.135 7.285-.64 7.32-.645.632-.093 1.22.345 1.313.978.092.632-.346 1.22-.978 1.312-.145 0-3.625.5-7.575.665-1.655.06-4.3.23-7.095.41-3.795.25-7.715.5-9.595.5zM40 28.385c-2.385 0-9-.5-12.5-.885s-11.045-1.59-11.365-1.645c-.407-.067-.748-.346-.894-.732-.145-.387-.074-.821.188-1.14.262-.32.674-.475 1.081-.408.075 0 7.76 1.265 11.225 1.62 3.375.35 10 .875 12.27.875 2.27 0 8.895-.5 12.27-.875 3.465-.355 11.15-1.61 11.225-1.62.407-.067.82.088 1.081.408.262.319.333.753.188 1.14-.146.386-.487.665-.894.732-.32.055-7.83 1.28-11.365 1.645s-10.125.885-12.51.885z" opacity=".06" transform="translate(-8 -32) translate(8 32)"/>
        </g>
    </g>
</svg>
