<svg xmlns="http://www.w3.org/2000/svg" xmlns:xlink="http://www.w3.org/1999/xlink" width="80" height="81" viewBox="0 0 80 81">
    <defs>
        <filter id="zdfjjoob8a" width="104.5%" height="119.4%" x="-2.2%" y="-8.2%" filterUnits="objectBoundingBox">
            <feOffset dy="2" in="SourceAlpha" result="shadowOffsetOuter1"/>
            <feGaussianBlur in="shadowOffsetOuter1" result="shadowBlurOuter1" stdDeviation="4"/>
            <feColorMatrix in="shadowBlurOuter1" values="0 0 0 0 0 0 0 0 0 0 0 0 0 0 0 0 0 0 0.16 0"/>
        </filter>
        <rect id="6sruiyyyyb" width="580" height="134" x="0" y="0" rx="6"/>
    </defs>
    <g fill="none" fill-rule="evenodd">
        <g>
            <path fill="#F2F2F2" d="M0 0H1280V460H0z" transform="translate(-670 -190)"/>
            <g>
                <g transform="translate(-670 -190) translate(650 163)">
                    <use fill="#000" filter="url(#zdfjjoob8a)" xlink:href="#6sruiyyyyb"/>
                    <use fill="#FFF" xlink:href="#6sruiyyyyb"/>
                </g>
                <g transform="translate(-670 -190) translate(650 163) translate(20 27)">
                    <path fill="#D8D8D8" fill-opacity="0" d="M0 0H80V80H0z"/>
                    <path fill="#666" fill-rule="nonzero" d="M53.358 50.304c-.92 0-1.666-.746-1.666-1.666V25.825c0-.92.746-1.667 1.666-1.667.92 0 1.667.747 1.667 1.667v22.813c0 .92-.746 1.666-1.667 1.666z"/>
                    <path fill="#EBEBEB" fill-rule="nonzero" d="M13.546 48.325h52.917c2.931.062 5.26 2.485 5.204 5.417v10.833c.055 2.933-2.275 5.357-5.209 5.417H13.542c-2.934-.06-5.264-2.484-5.209-5.417V53.742c-.055-2.935 2.278-5.36 5.213-5.417z"/>
                    <g fill="#000" fill-rule="nonzero" opacity=".06">
                        <path d="M58.53 5.825H5.611C2.683 5.761.36 3.338.417.408v.834C.389 2.65.922 4.013 1.899 5.029s2.317 1.602 3.726 1.63h52.917c1.409-.028 2.75-.614 3.726-1.63.977-1.016 1.51-2.378 1.482-3.787V.408c.028 1.412-.507 2.776-1.486 3.792-.98 1.016-2.324 1.6-3.735 1.625z" transform="translate(7.917 63.333)"/>
                    </g>
                    <path fill="#E60000" fill-rule="nonzero" d="M66.667 18.046c-.224.001-.439-.087-.596-.246-7.047-7.029-18.453-7.029-25.5 0-.214.213-.525.296-.816.217-.291-.079-.518-.306-.596-.598-.077-.291.007-.602.22-.815 7.705-7.688 20.179-7.688 27.884 0 .16.157.25.372.25.596 0 .224-.09.439-.25.596-.157.16-.372.25-.596.25z"/>
                    <path fill="#E60000" fill-rule="nonzero" d="M61.475 22.492c-.132 0-.262-.032-.38-.092-.081-.04-.156-.093-.22-.158-4.148-4.128-10.852-4.128-15 0-.157.16-.372.25-.596.25-.224 0-.439-.09-.596-.25-.161-.157-.253-.373-.253-.598 0-.226.092-.441.253-.598 4.808-4.79 12.584-4.79 17.392 0l.03.029.04.05c.212.253.254.606.11.901-.146.295-.451.478-.78.466z"/>
                    <circle cx="15.838" cy="59.167" r="2.5" fill="#000" fill-rule="nonzero" opacity=".06"/>
                    <circle cx="20.837" cy="59.167" r="1" fill="#D62B11" fill-rule="nonzero"/>
                    <circle cx="15.838" cy="59.167" r="1" fill="#D62B11" fill-rule="nonzero"/>
                </g>
            </g>
        </g>
    </g>
</svg>
