<svg xmlns="http://www.w3.org/2000/svg" width="34" height="36" viewBox="0 0 34 36"><g fill="none" fill-rule="evenodd"><path fill="#D8D8D8" fill-opacity="0" d="M-7 42h48V-6H-7z"/><path stroke="#F99D1C" stroke-linecap="round" stroke-linejoin="round" d="M25.045 24.938c3.551-1.292 7.058-.613 7.833 1.517.776 2.13-1.474 4.904-5.025 6.197-3.552 1.292-7.059.613-7.834-1.517-.775-2.13 1.475-4.904 5.026-6.197zM6.156 26.812c3.557-1.295 7.07-.615 7.847 1.519.777 2.134-1.477 4.913-5.035 6.207-3.557 1.295-7.07.615-7.847-1.518-.776-2.134 1.478-4.913 5.035-6.208z"/><path stroke="#F99D1C" stroke-linecap="round" stroke-linejoin="round" d="M14.154 29.2V7.879l18.858-6.593V27.67"/></g></svg>