<svg width="84" height="32" viewBox="0 0 84 32" xmlns="http://www.w3.org/2000/svg"><g id="Logos-/-Logo---LG-/-Gris" stroke="none" stroke-width="1" fill="none" fill-rule="evenodd"><path d="M43.644 8.718c-.002.04-.002.079-.002.118l.008 13.924c0 .003.004.007.007.01l.01.01c.187.027 9.863.017 9.953-.011v-2.721h-6.538c-.064 0-.127-.007-.207-.011V8.676H43.66c-.007.018-.015.03-.016.042zm22.82 6.046c-.056.004-.112.01-.169.01l-5.301.001h-.163c-.029.147-.025 2.5.005 2.617h2.648v2.241c0 .247 0 .248-.234.318-.464.14-.94.223-1.422.273a6.551 6.551 0 01-2.044-.092c-.483-.102-.934-.284-1.326-.593-.472-.372-.767-.862-.956-1.424-.219-.651-.288-1.327-.309-2.008a10.516 10.516 0 01.05-1.516c.053-.478.142-.948.313-1.399.251-.666.654-1.209 1.28-1.569.45-.259.94-.389 1.452-.45.5-.059 1-.056 1.501-.006 1.011.102 1.855.52 2.502 1.312l.113.134 2.009-1.862c-.034-.048-.06-.087-.089-.125-.532-.701-1.214-1.208-2.017-1.559-.883-.387-1.814-.557-2.77-.602a11.097 11.097 0 00-1.7.045 8.259 8.259 0 00-1.625.328c-.874.276-1.657.709-2.313 1.358-.681.675-1.131 1.487-1.425 2.393-.304.938-.416 1.905-.435 2.885-.013.612.019 1.221.095 1.828.084.677.23 1.339.474 1.978.568 1.489 1.572 2.554 3.06 3.148.889.356 1.821.505 2.771.544.65.028 1.3.006 1.947-.066.726-.082 1.44-.214 2.139-.424.667-.199 1.31-.454 1.892-.844.014-.009.032-.01.047-.015v-6.859zm-42.053-3.671a1.303 1.303 0 00-1.313 1.299c0 .723.591 1.303 1.326 1.301a1.31 1.31 0 001.294-1.308 1.304 1.304 0 00-1.307-1.292zm6.066 9.525v-.867h-1.994c-.05 0-.101-.005-.163-.009V11.1h-.87c-.029.118-.028 9.403.001 9.518h3.026zm5.603-4.334c0 .066.002.11-.001.153-.034.417-.09.832-.182 1.241a8.23 8.23 0 01-7.476 6.395 8.068 8.068 0 01-2.695-.271 8.067 8.067 0 01-3.746-2.223c-1.89-1.969-2.628-4.32-2.241-7.011.228-1.585.908-2.977 1.976-4.173 1.156-1.293 2.575-2.151 4.265-2.552a8.601 8.601 0 012.103-.22l.214.001v-.847c-.134-.009-.264-.023-.394-.025a8.566 8.566 0 00-1.896.194c-1.877.405-3.477 1.307-4.783 2.712-1.434 1.543-2.234 3.374-2.413 5.472a8.844 8.844 0 00.12 2.359c.312 1.712 1.042 3.224 2.228 4.498 1.801 1.935 4.042 2.911 6.685 2.956a8.73 8.73 0 002.318-.287c3.696-.946 6.932-4.394 6.814-9.109 0-.029-.01-.058-.016-.088h-6.476v.825h5.596zM28.286 5c.051.009.102.022.153.025a10.848 10.848 0 0110.259 11.388c-.203 4-2.547 7.384-5.879 9.098a10.708 10.708 0 01-3.347 1.076 10.863 10.863 0 01-12.133-8.125 10.57 10.57 0 01-.29-1.871c-.006-.103-.032-.206-.049-.308v-.812c.011-.05.026-.1.031-.151.026-.251.045-.504.073-.755.128-1.104.427-2.161.885-3.174a10.862 10.862 0 019.319-6.366c.055-.003.111-.016.167-.025h.811z" id="Fill-1" fill="#333"/></g></svg>