<svg xmlns="http://www.w3.org/2000/svg" width="44" height="44" viewBox="0 0 44 44"><g fill="none" fill-rule="evenodd" transform="translate(-10 -10)"><circle cx="32" cy="32" r="32" fill="#FFF"/><g fill-rule="nonzero"><path fill="#E60000" d="M18.563 40.728l6.89-9.365a.576.576 0 000-.73.965.965 0 00-.783-.367h-4.626l1.483-6.584a.62.62 0 00-.114-.52.769.769 0 00-.495-.286c-.402-.125-.846.03-1.047.367l-6.104 10.389c-.173.218-.087.512 0 .73.176.22.436.367.698.367h3.925l-1.57 5.485c-.107.37.12.753.523.879.088.073.262.073.349.073.435-.073.784-.22.871-.438zm11.917 0l6.89-9.365a.576.576 0 000-.73.965.965 0 00-.783-.367h-4.624l1.483-6.584a.626.626 0 00-.114-.52.769.769 0 00-.496-.286c-.402-.125-.846.03-1.047.367l-6.105 10.389c-.174.218-.087.512 0 .73.175.22.436.367.698.367h3.924l-1.57 5.485c-.107.37.12.753.523.879.089.073.262.073.35.073.435-.073.784-.22.87-.438z"/><path fill="#EBEBEB" d="M43.853 40.728l6.36-9.365a.615.615 0 000-.73.866.866 0 00-.723-.367h-4.268l1.369-6.584a.667.667 0 00-.105-.52.701.701 0 00-.458-.286.81.81 0 00-.966.367l-5.636 10.389c-.16.218-.08.512 0 .73.162.22.403.367.645.367h3.622l-1.449 5.485c-.099.37.11.753.482.879.082.073.242.073.323.073.402-.073.724-.22.804-.438z"/></g></g></svg>