<svg xmlns="http://www.w3.org/2000/svg" width="120" height="120" viewBox="0 0 120 120"><g fill="none" fill-rule="evenodd"><circle cx="60" cy="60" r="60" fill="#000" fill-opacity=".2"/><g transform="translate(21 21)"><path d="M0 0h78v78H0z"/><circle cx="39" cy="39" r="32.48" fill="#FFF" fill-rule="nonzero"/><path fill="#000" fill-rule="nonzero" d="M39 71.48c-17.916 0-32.472-14.887-32.472-32.886V39c.52 17.567 14.911 31.539 32.486 31.539C56.59 70.539 70.98 56.567 71.5 39v-.406C71.296 57.224 56.916 71.48 39 71.48z" opacity=".06"/><path fill="#E60000" fill-rule="nonzero" d="M59.467 35.518a1.268 1.268 0 00-2.511.366c.127.875.191 1.757.191 2.64-.011 10.018-8.13 18.137-18.147 18.148a17.978 17.978 0 01-13.175-5.688h8.938a1.267 1.267 0 100-2.535H23.469c-.7 0-1.267.568-1.267 1.268v11.375a1.267 1.267 0 102.535 0v-7.589A20.488 20.488 0 0039 59.191c11.414-.02 20.662-9.268 20.682-20.683 0-1-.073-2-.215-2.99z"/><path d="M23.47 61.75c-.7 0-1.268-.568-1.268-1.268v.634a1.268 1.268 0 002.535 0v-.634a1.269 1.269 0 01-1.267 1.267zm2.356-10.746h8.937a1.26 1.26 0 001.223-1.584c-.14.56-.642.951-1.219.95h-9.433l.492.634z" fill="#000" fill-rule="nonzero" opacity=".06"/><path fill="#E60000" fill-rule="nonzero" d="M54.53 15.616c-.7 0-1.267.568-1.267 1.268v7.613A20.48 20.48 0 0039 18.793c-11.414.02-20.662 9.268-20.682 20.682 0 1.006.072 2.01.215 3.007a1.271 1.271 0 001.255 1.084c.061.004.122.004.183 0a1.27 1.27 0 001.073-1.438 18.511 18.511 0 01-.191-2.64c.004-10.023 8.124-18.149 18.147-18.16a17.98 17.98 0 0113.15 5.639h-8.913a1.267 1.267 0 100 2.535h11.294c.7 0 1.267-.568 1.267-1.268v-11.35c0-.7-.567-1.268-1.267-1.268z"/><path fill="#000" fill-rule="nonzero" d="M21.023 41.945a1.262 1.262 0 01-2.486-.097 20.42 20.42 0 01-.211-2.637v.264c0 1.006.073 2.011.22 3.007a1.267 1.267 0 102.506-.366c-.016-.057-.02-.114-.029-.17zm36.116-3.838v-.297c0-.815-.055-1.63-.162-2.438a1.223 1.223 0 00-.029.5c.11.74.173 1.487.191 2.234zM24.736 53.512A20.506 20.506 0 0039 59.199c11.414-.02 20.662-9.268 20.682-20.682v-.406c-.18 11.3-9.38 20.37-20.682 20.39a20.496 20.496 0 01-14.3-5.729l.037.74zM52.15 26.967h.488a6.227 6.227 0 00-.496-.638A17.977 17.977 0 0039 20.694c-10.017.01-18.136 8.126-18.147 18.143v.374a18.147 18.147 0 0131.281-12.248" opacity=".06"/><path fill="#000" fill-rule="nonzero" d="M43.237 28.868h11.298a1.268 1.268 0 001.219-.95c.03.103.044.21.044.316 0 .337-.133.659-.37.897-.239.237-.56.37-.897.37H43.237a1.243 1.243 0 01-1.267-1.267c0-.223.062-.443.178-.633 0 .698.39 1.267 1.09 1.267z" opacity=".06"/></g></g></svg>