<svg xmlns="http://www.w3.org/2000/svg" width="120" height="120" viewBox="0 0 120 120"><g fill="none" fill-rule="evenodd"><circle cx="60" cy="60" r="60" fill="#000" fill-opacity=".2"/><g transform="translate(21 21)"><circle cx="39" cy="39" r="32.5" fill="#FFF" fill-rule="nonzero"/><g fill-rule="nonzero"><path fill="#000" d="M39 70.688c-17.794 0-32.297-14.3-32.5-32.094V39c0 17.956 14.544 32.5 32.5 32.5S71.5 56.956 71.5 39v-.406C71.297 56.388 56.794 70.687 39 70.687z" opacity=".06"/><path fill="#000" d="M52.934 23.806c-.325-.284-.853-.284-1.137.04-.285.326-.285.854.04 1.138 1.991 1.829 3.86 3.82 5.485 5.972 5.606 7.313 8.734 16.006 9.181 25.31a22.102 22.102 0 001.422-2.52c-.853-8.693-4.022-16.818-9.303-23.765a45.174 45.174 0 00-5.688-6.175zM36.441 60.45a.792.792 0 00-.65.934 48.442 48.442 0 002.925 10.075H39c.487 0 .975 0 1.462-.04-1.421-3.331-2.478-6.785-3.087-10.36-.081-.365-.528-.69-.934-.609zm15.112-41.235a.783.783 0 00.61.285c.203 0 .365-.081.528-.203 2.275-1.91 4.712-3.656 7.271-5.119l-1.34-1.097a52.952 52.952 0 00-6.988 4.957c-.325.324-.365.853-.081 1.178zm1.869 1.463c-.447 0-.853.366-.853.813 0 .447.365.812.812.812h.04c4.998 0 9.954.731 14.707 2.234-.325-.69-.69-1.34-1.097-2.03a51.527 51.527 0 00-13.61-1.829zM38.959 58.947a.788.788 0 00.285 1.097c5.322 3.169 11.253 5.281 17.347 6.256.65-.447 1.34-.894 1.95-1.34a48.312 48.312 0 01-18.485-6.297c-.365-.204-.894-.082-1.097.284zm6.46-38.919a.78.78 0 01-.407-.122 48.086 48.086 0 00-24.659-6.825.814.814 0 01-.812-.812c0-.447.365-.813.812-.813a50.363 50.363 0 0125.513 7.069c.365.244.528.731.284 1.097-.203.244-.447.406-.731.406z" opacity=".06"/><path fill="#4A4D4E" d="M35.912 53.381a.815.815 0 01-.812-.812c.202-10.238 3.86-20.232 10.319-28.194a.792.792 0 011.137-.122.793.793 0 01.122 1.138 44.627 44.627 0 00-9.994 27.178c.04.487-.325.812-.772.812zm-12.43-20.068a.73.73 0 01-.61-.285.823.823 0 01.081-1.137c6.134-5.282 13.61-8.857 21.572-10.36a.792.792 0 01.934.65.793.793 0 01-.65.935 45.479 45.479 0 00-20.84 9.993.75.75 0 01-.488.203z"/><path fill="#000" d="M9.75 53.097c-.081 0-.203 0-.284-.04-.407-.163-.65-.61-.488-1.057 1.747-4.713 4.144-9.1 7.231-13.081.285-.366.772-.407 1.138-.163.365.285.406.772.162 1.138-2.965 3.86-5.322 8.084-6.987 12.634a.815.815 0 01-.772.569z" opacity=".06"/><path fill="#4A4D4E" d="M32.582 55.047c-.204 0-.366-.081-.529-.203-4.55-3.982-8.287-8.694-11.09-14.056a.836.836 0 01.324-1.097.836.836 0 011.097.325 47.04 47.04 0 0010.725 13.568.825.825 0 01.082 1.138.675.675 0 01-.61.325z"/><path fill="#000" d="M18.159 32.825c-.365 0-.65-.203-.772-.569a54.133 54.133 0 01-2.478-15.722c0-.447.366-.812.813-.812.447 0 .812.365.812.812.04 5.16.853 10.278 2.397 15.235.122.447-.122.893-.528 1.015-.081.041-.162.041-.244.041z" opacity=".06"/><path fill="#E60000" d="M20.556 41.275a5.167 5.167 0 01-5.16-5.16 5.167 5.167 0 015.16-5.159 5.167 5.167 0 015.16 5.16 5.167 5.167 0 01-5.16 5.159zm0-8.694a3.537 3.537 0 00-3.534 3.535 3.536 3.536 0 003.534 3.534 3.537 3.537 0 003.535-3.534 3.538 3.538 0 00-3.535-3.535zm15.478 29.534c-2.843 0-5.16-2.315-5.16-5.159s2.317-5.16 5.16-5.16a5.167 5.167 0 015.16 5.16 5.167 5.167 0 01-5.16 5.16zm0-8.734a3.537 3.537 0 00-3.534 3.535 3.536 3.536 0 003.534 3.534 3.537 3.537 0 003.535-3.534c0-1.91-1.585-3.535-3.535-3.535zm13-26.528a5.168 5.168 0 01-5.16-5.16 5.168 5.168 0 015.16-5.159 5.167 5.167 0 015.16 5.16 5.168 5.168 0 01-5.16 5.16zm0-8.734a3.536 3.536 0 00-3.534 3.534 3.536 3.536 0 003.534 3.534 3.537 3.537 0 003.535-3.534 3.537 3.537 0 00-3.535-3.534z"/></g><path d="M0 0v78h78V0z"/></g></g></svg>