<svg xmlns="http://www.w3.org/2000/svg" width="120" height="120" viewBox="0 0 120 120"><g fill="none" fill-rule="evenodd"><circle cx="60" cy="60" r="60" fill="#000" fill-opacity=".2"/><g transform="translate(21 21)"><path fill="#D8D8D8" fill-opacity="0" d="M0 0h78v78H0z"/><path fill="#666" fill-rule="nonzero" d="M52.024 49.047a1.626 1.626 0 01-1.625-1.625V25.179a1.626 1.626 0 013.25 0v22.243c0 .897-.727 1.625-1.625 1.625z"/><path fill="#FFF" fill-rule="nonzero" d="M64.8 47.117a5.183 5.183 0 015.075 5.281v10.563a5.182 5.182 0 01-5.078 5.28H13.203a5.182 5.182 0 01-5.078-5.28V52.398a5.183 5.183 0 015.082-5.281h51.594z"/><path fill="#000" fill-rule="nonzero" d="M64.785 67.43H13.19a5.18 5.18 0 01-5.066-5.282v.813a5.181 5.181 0 005.078 5.281h51.594a5.18 5.18 0 005.078-5.281v-.813a5.177 5.177 0 01-5.09 5.281z" opacity=".06"/><path fill="#E60000" fill-rule="nonzero" d="M65 17.595a.813.813 0 01-.58-.24c-6.872-6.853-17.993-6.853-24.863 0a.823.823 0 01-1.162-1.166c7.512-7.496 19.674-7.496 27.186 0a.813.813 0 010 1.161.81.81 0 01-.581.245z"/><path fill="#E60000" fill-rule="nonzero" d="M59.938 21.93a.812.812 0 01-.37-.09.798.798 0 01-.215-.154c-4.044-4.025-10.58-4.025-14.625 0a.813.813 0 01-1.162 0 .816.816 0 010-1.166c4.688-4.67 12.27-4.67 16.957 0l.029.028.04.049a.811.811 0 01-.654 1.332z"/><circle cx="15.442" cy="57.688" r="2.438" fill="#000" fill-rule="nonzero" opacity=".06"/><circle cx="20.317" cy="57.688" r="1" fill="#D62B11" fill-rule="nonzero"/><circle cx="15.442" cy="57.688" r="1" fill="#D62B11" fill-rule="nonzero"/></g></g></svg>