<?xml version="1.0" encoding="UTF-8"?>
<svg width="48px" height="36px" viewBox="0 0 48 36" version="1.1" xmlns="http://www.w3.org/2000/svg" xmlns:xlink="http://www.w3.org/1999/xlink">
    <title>devices_icon</title>
    <defs>
        <linearGradient x1="10.4210526%" y1="27.9070202%" x2="89.5789474%" y2="72.089308%" id="linearGradient-1">
            <stop stop-color="#FFFFFF" stop-opacity="0.3" offset="0%"></stop>
            <stop stop-color="#F6F6F6" stop-opacity="0" offset="100%"></stop>
        </linearGradient>
        <linearGradient x1="26.3740316%" y1="17045.3123%" x2="73.6188253%" y2="16968.0911%" id="linearGradient-2">
            <stop stop-color="#FFFFFF" stop-opacity="0.3" offset="0%"></stop>
            <stop stop-color="#F6F6F6" stop-opacity="0" offset="100%"></stop>
        </linearGradient>
        <linearGradient x1="25.008259%" y1="20.6872494%" x2="96.1678229%" y2="59.2755069%" id="linearGradient-3">
            <stop stop-color="#000000" offset="0%"></stop>
            <stop stop-color="#000000" stop-opacity="0" offset="100%"></stop>
        </linearGradient>
    </defs>
    <g id="Secure-Net" stroke="none" stroke-width="1" fill="none" fill-rule="evenodd">
        <g id="SecureNet---Desktop" transform="translate(-771.000000, -669.000000)">
            <g id="¿Por-qué-elegir-Vodafone?" transform="translate(29.000000, 552.000000)">
                <g id="3" transform="translate(621.000000, 70.000000)">
                    <g id="fibra" transform="translate(77.678571, 0.000000)">
                        <g id="multiscreen_hi" transform="translate(39.357143, 38.000000)">
                            <polygon id="bg" fill-opacity="0" fill="#D8D8D8" points="0 0 55.9285714 0 55.9285714 54 0 54"></polygon>
                            <path d="M21.2645089,9 L48.9375,9 C50.2245207,9 51.2678571,10.0073593 51.2678571,11.25 L51.2678571,38.25 C51.2678571,39.4926407 50.2245207,40.5 48.9375,40.5 L6.99107143,40.5 C5.70405072,40.5 4.66071429,39.4926407 4.66071429,38.25 L4.66071429,11.25 C4.66071429,10.0073593 5.70405072,9 6.99107143,9 L21.2645089,9" id="Shape" fill="#EBEBEB" fill-rule="nonzero"></path>
                            <rect id="Rectangle_path" fill="#333333" fill-rule="nonzero" x="5.82589286" y="11.53125" width="44.2767857" height="25.59375" rx="2"></rect>
                            <path d="M48.9375,39.9375 L6.99107143,39.9375 C5.70405072,39.9375 4.66071429,38.9301407 4.66071429,37.6875 L4.66071429,38.25 C4.66071429,39.4926407 5.70405072,40.5 6.99107143,40.5 L48.9375,40.5 C50.2245207,40.5 51.2678571,39.4926407 51.2678571,38.25 L51.2678571,37.6875 C51.2678571,38.9301407 50.2245207,39.9375 48.9375,39.9375 Z" id="Shape" fill="#000000" fill-rule="nonzero" opacity="0.06"></path>
                            <g id="Group" opacity="0.24" transform="translate(5.825893, 11.531250)" fill="#333333" fill-rule="nonzero">
                                <path d="M43.6941964,0.421875 C43.855074,0.421875 43.9854911,0.547794914 43.9854911,0.703125 L43.9854911,25.03125 C43.9854911,25.1865801 43.855074,25.3125 43.6941964,25.3125 L0.582589286,25.3125 C0.421711697,25.3125 0.291294643,25.1865801 0.291294643,25.03125 L0.291294643,0.703125 C0.291294643,0.547794914 0.421711697,0.421875 0.582589286,0.421875 L43.6941964,0.421875 L43.6941964,0.421875 Z M43.6941964,0.140625 L0.582589286,0.140625 C0.260834108,0.140625 0,0.392464828 0,0.703125 L0,25.03125 C0,25.3419102 0.260834108,25.59375 0.582589286,25.59375 L43.6941964,25.59375 C44.0159516,25.59375 44.2767857,25.3419102 44.2767857,25.03125 L44.2767857,0.703125 C44.2767857,0.392464828 44.0159516,0.140625 43.6941964,0.140625 Z" id="Shape"></path>
                            </g>
                            <path d="M6.40848214,11.53125 L49.5200893,11.53125 C49.8418445,11.53125 50.1026786,11.7830898 50.1026786,12.09375 L50.1026786,36.5625 C50.1026786,36.8731602 49.8418445,37.125 49.5200893,37.125 L6.40848214,37.125 C6.08672696,37.125 5.82589286,36.8731602 5.82589286,36.5625 L5.82589286,12.09375 C5.82589286,11.7830898 6.08672696,11.53125 6.40848214,11.53125 Z" id="Rectangle_path" fill="url(#linearGradient-1)" fill-rule="nonzero" opacity="0.5"></path>
                            <g id="Group" opacity="0.24" transform="translate(5.825893, 11.531250)" fill="#333333" fill-rule="nonzero">
                                <path d="M43.6941964,0.28125 C43.855074,0.28125 43.9854911,0.407169914 43.9854911,0.5625 L43.9854911,25.03125 C43.9854911,25.1865801 43.855074,25.3125 43.6941964,25.3125 L0.582589286,25.3125 C0.421711697,25.3125 0.291294643,25.1865801 0.291294643,25.03125 L0.291294643,0.5625 C0.291294643,0.407169914 0.421711697,0.28125 0.582589286,0.28125 L43.6941964,0.28125 L43.6941964,0.28125 Z M43.6941964,0 L0.582589286,0 C0.260834108,0 0,0.251839828 0,0.5625 L0,25.03125 C0,25.3419102 0.260834108,25.59375 0.582589286,25.59375 L43.6941964,25.59375 C44.0159516,25.59375 44.2767857,25.3419102 44.2767857,25.03125 L44.2767857,0.5625 C44.2767857,0.251839828 44.0159516,0 43.6941964,0 Z" id="Shape"></path>
                            </g>
                            <path d="M33.1289397,13.5 L45.1768862,13.5 C46.3850769,13.5 47.3645089,14.4456586 47.3645089,15.6121875 L47.3645089,42.8878125 C47.3645089,44.0543414 46.3850769,45 45.1768862,45 L33.1289397,45 C31.920749,45 30.941317,44.0543414 30.941317,42.8878125 L30.941317,15.6121875 C30.941317,14.4456586 31.920749,13.5 33.1289397,13.5 L33.1289397,13.5 Z" id="Rectangle_path" fill="#EBEBEB" fill-rule="nonzero"></path>
                            <path d="M32.5987835,16.678125 L45.7332589,16.678125 C46.0357088,16.678125 46.2808929,16.9148544 46.2808929,17.206875 L46.2808929,40.2384375 C46.2808929,40.5304581 46.0357088,40.7671875 45.7332589,40.7671875 L32.5987835,40.7671875 C32.2963336,40.7671875 32.0511496,40.5304581 32.0511496,40.2384375 L32.0511496,17.206875 C32.0511496,16.9148544 32.2963336,16.678125 32.5987835,16.678125 Z" id="Rectangle_path" fill="#333333" fill-rule="nonzero"></path>
                            <ellipse id="Oval" fill="#E60000" fill-rule="nonzero" cx="39.15" cy="42.676875" rx="1.22052455" ry="1.1784375"></ellipse>
                            <path d="M45.1827121,44.47125 L33.1202009,44.47125 C31.9144844,44.4635198 30.941317,43.5176032 30.941317,42.3534375 L30.941317,42.8821875 C30.941317,44.051823 31.9233574,45 33.1347656,45 L45.1827121,45 C46.3941203,45 47.3761607,44.051823 47.3761607,42.8821875 L47.3761607,42.3534375 C47.3761607,43.523073 46.3941203,44.47125 45.1827121,44.47125 Z" id="Shape" fill="#000000" fill-rule="nonzero" opacity="0.06"></path>
                            <path d="M37.1517187,15.0890625 L41.1482812,15.0890625 C41.2560692,15.0890625 41.3434487,15.1734288 41.3434487,15.2775 L41.3434487,15.429375 C41.3434487,15.5334462 41.2560692,15.6178125 41.1482812,15.6178125 L37.1517187,15.6178125 C37.0439308,15.6178125 36.9565513,15.5334462 36.9565513,15.429375 L36.9565513,15.2775 C36.9565513,15.1734288 37.0439308,15.0890625 37.1517187,15.0890625 Z" id="Rectangle_path" fill="#333333" fill-rule="nonzero"></path>
                            <path d="M35.508817,15.0890625 L35.6661161,15.0890625 C35.7739041,15.0890625 35.8612835,15.1734288 35.8612835,15.2775 L35.8612835,15.429375 C35.8612835,15.5334462 35.7739041,15.6178125 35.6661161,15.6178125 L35.508817,15.6178125 C35.401029,15.6178125 35.3136496,15.5334462 35.3136496,15.429375 L35.3136496,15.2775 C35.3136496,15.1734288 35.401029,15.0890625 35.508817,15.0890625 Z" id="Rectangle_path" fill="#E60000" fill-rule="nonzero"></path>
                            <path d="M32.5987835,16.678125 L45.7332589,16.678125 C46.0357088,16.678125 46.2808929,16.9148544 46.2808929,17.206875 L46.2808929,40.2384375 C46.2808929,40.5304581 46.0357088,40.7671875 45.7332589,40.7671875 L32.5987835,40.7671875 C32.2963336,40.7671875 32.0511496,40.5304581 32.0511496,40.2384375 L32.0511496,17.206875 C32.0511496,16.9148544 32.2963336,16.678125 32.5987835,16.678125 Z" id="Rectangle_path" fill="url(#linearGradient-2)" fill-rule="nonzero" opacity="0.5"></path>
                            <g id="Group" opacity="0.24" transform="translate(31.751116, 16.593750)" fill="#333333" fill-rule="nonzero">
                                <path d="M13.9821429,0.34875 C14.1333678,0.34875 14.2559598,0.467114719 14.2559598,0.613125 L14.2559598,23.641875 C14.2559598,23.7878853 14.1333678,23.90625 13.9821429,23.90625 L0.847667411,23.90625 C0.696442477,23.90625 0.573850446,23.7878853 0.573850446,23.641875 L0.573850446,0.613125 C0.573850446,0.467114719 0.696442477,0.34875 0.847667411,0.34875 L13.9821429,0.34875 L13.9821429,0.34875 Z M13.9821429,0.06746818 L0.847667411,0.06746818 C0.698086431,0.0659208436 0.554279601,0.123178188 0.449330968,0.226099468 C0.344382335,0.329020749 0.287328296,0.468744131 0.291294643,0.613125 L0.291294643,23.641875 C0.291294643,23.9338956 0.536478704,24.170625 0.838928571,24.170625 L13.9821429,24.170625 C14.2845927,24.170625 14.5297768,23.9338956 14.5297768,23.641875 L14.5297768,0.613125 C14.5297768,0.320645989 14.2850633,0.083110008 13.9821429,0.0815625 L13.9821429,0.06746818 Z" id="Shape"></path>
                            </g>
                            <path d="M20.2566295,45 L15.5463951,45 C14.7384094,44.9990618 14.0571073,44.4183587 13.9559263,43.644375 L13.4199442,39.5071875 C13.3979225,39.330746 13.4551778,39.1536422 13.5772433,39.020625 C13.6980239,38.8880791 13.872118,38.8122333 14.0549665,38.8124886 L21.7451451,38.8124886 C21.9290087,38.8114201 22.1043312,38.8873383 22.2257812,39.020625 C22.3478467,39.1536422 22.405102,39.330746 22.3830804,39.5071875 L21.8470982,43.644375 C21.7459172,44.4183587 21.0646151,44.9990618 20.2566295,45 L20.2566295,45 Z" id="Shape" fill="#EBEBEB" fill-rule="nonzero"></path>
                            <path d="M21.7451451,26.4375114 L14.0549665,26.4375114 C13.872118,26.4377667 13.6980239,26.3619209 13.5772433,26.229375 C13.4551778,26.0963578 13.3979225,25.919254 13.4199442,25.7428125 L13.9559263,21.605625 C14.0571073,20.8316413 14.7384094,20.2509382 15.5463951,20.25 L20.2566295,20.25 C21.0646151,20.2509382 21.7459172,20.8316413 21.8470982,21.605625 L22.3830804,25.7428125 C22.405102,25.919254 22.3478467,26.0963578 22.2257812,26.229375 C22.1043312,26.3626617 21.9290087,26.4385799 21.7451451,26.4375114 Z" id="Shape" fill="#EBEBEB" fill-rule="nonzero"></path>
                            <g id="Group" opacity="0.06" transform="translate(13.399554, 24.750000)" fill="#000000" fill-rule="nonzero">
                                <path d="M8.66601563,0.25 L0.334988839,0.25 L0.131082589,0.25 L0.0903013393,0.805 C0.171863839,0.805 0.253426339,0.805 0.334988839,0.805 L8.66601563,0.805 C8.75049107,0.805 8.83205357,0.805 8.91361607,0.805 L8.87283482,0.25 L8.66601563,0.25 Z" id="Shape"></path>
                            </g>
                            <path d="M22.0655692,40.05 L13.7345424,40.05 C11.7892537,40.0469032 10.2130846,38.5250848 10.2098772,36.646875 L10.2098772,28.603125 C10.2130846,26.7249152 11.7892537,25.2030968 13.7345424,25.2 L22.0655692,25.2 C24.0115223,25.2015508 25.5886281,26.7242737 25.5902344,28.603125 L25.5902344,36.646875 C25.5886281,38.5257263 24.0115223,40.0484492 22.0655692,40.05 L22.0655692,40.05 Z" id="Shape" fill="#EBEBEB" fill-rule="nonzero"></path>
                            <path d="M21.7189286,39.43125 L14.084096,39.43125 C12.3001559,39.4297025 10.8539361,38.0346103 10.8507254,36.3121875 L10.8507254,28.9378125 C10.8539361,27.2153897 12.3001559,25.8202975 14.084096,25.81875 L21.7189286,25.81875 C23.5023954,25.8203006 24.9477802,27.2158445 24.9493862,28.9378125 L24.9493862,36.3121875 C24.9477802,38.0341555 23.5023954,39.4296994 21.7189286,39.43125 Z" id="Shape" fill="#4A4D4E" fill-rule="nonzero"></path>
                            <path d="M22.0655692,39.740625 L13.7345424,39.740625 C11.7892537,39.7375282 10.2130846,38.2157098 10.2098772,36.3375 L10.2098772,36.646875 C10.2130846,38.5250848 11.7892537,40.0469032 13.7345424,40.05 L22.0655692,40.05 C24.0115223,40.0484492 25.5886281,38.5257263 25.5902344,36.646875 L25.5902344,36.3375 C25.5886281,38.2163513 24.0115223,39.7390742 22.0655692,39.740625 L22.0655692,39.740625 Z" id="Shape" fill="#000000" fill-rule="nonzero" opacity="0.06"></path>
                            <path d="M21.5062835,32.90625 L17.9000558,32.90625 C17.7391782,32.90625 17.6087612,32.7803301 17.6087612,32.625 L17.6087612,27.9084375 C17.6087612,27.7531074 17.7391782,27.6271875 17.9000558,27.6271875 C18.0609334,27.6271875 18.1913504,27.7531074 18.1913504,27.9084375 L18.1913504,32.34375 L21.5062835,32.34375 C21.6719874,32.34375 21.806317,32.4734475 21.806317,32.6334375 C21.806317,32.7934275 21.6719874,32.923125 21.5062835,32.923125 L21.5062835,32.90625 Z" id="Shape" fill="#E60000" fill-rule="nonzero"></path>
                            <path d="M21.5062835,32.7403125 L17.9000558,32.7403125 C17.7391782,32.7403125 17.6087612,32.6143926 17.6087612,32.4590625 L17.6087612,32.625 C17.6087612,32.7803301 17.7391782,32.90625 17.9000558,32.90625 L21.5062835,32.90625 C21.6671611,32.90625 21.7975781,32.7803301 21.7975781,32.625 C21.8020034,32.5960945 21.8020034,32.566718 21.7975781,32.5378125 C21.7602032,32.6619166 21.6400375,32.7454525 21.5062835,32.7403125 Z" id="Shape" fill="#000000" fill-rule="nonzero" opacity="0.12"></path>
                            <path d="M21.8470982,43.644375 L22.3131696,40.05 L13.4956808,40.05 L18.6224665,45 L20.2566295,45 C21.0646151,44.9990618 21.7459172,44.4183587 21.8470982,43.644375 Z" id="Shape" fill="url(#linearGradient-3)" fill-rule="nonzero" opacity="0.2"></path>
                        </g>
                    </g>
                </g>
            </g>
        </g>
    </g>
</svg>