<?xml version="1.0" encoding="UTF-8"?>
<svg width="46px" height="46px" viewBox="0 0 46 46" version="1.1" xmlns="http://www.w3.org/2000/svg" xmlns:xlink="http://www.w3.org/1999/xlink">
    <title>Parental_icon</title>
    <defs>
        <linearGradient x1="28.9256718%" y1="13.4654943%" x2="59.0306374%" y2="73.7547516%" id="linearGradient-1">
            <stop stop-color="#000000" offset="0%"></stop>
            <stop stop-color="#000000" stop-opacity="0" offset="100%"></stop>
        </linearGradient>
    </defs>
    <g id="Secure-Net" stroke="none" stroke-width="1" fill="none" fill-rule="evenodd">
        <g id="SecureNet---Desktop" transform="translate(-463.000000, -665.000000)">
            <g id="¿Por-qué-elegir-Vodafone?" transform="translate(29.000000, 552.000000)">
                <g id="Icono-convergente" transform="translate(390.000000, 70.000000)">
                    <g id="parental_control_hi" transform="translate(40.200000, 39.000000)">
                        <rect id="bg" fill-opacity="0" fill="#D8D8D8" x="0" y="0" width="54" height="54"></rect>
                        <path d="M27,49.561875 C26.6519633,49.5613997 26.3079306,49.4876099 25.9903125,49.3453125 C22.4015625,47.7590625 4.4775,38.424375 4.4775,10.704375 C4.43188702,10.0047349 4.69864401,9.32084825 5.2059375,8.836875 C6.0834375,8.060625 7.3575,8.218125 9.1209375,8.4375 C12.4425,8.848125 18.0028125,9.54 25.4334375,4.89375 C26.4012079,4.29174996 27.6269171,4.29174996 28.5946875,4.89375 L28.5946875,4.89375 C36,9.5371875 41.5603125,8.8453125 44.881875,8.4375 C46.6453125,8.218125 47.919375,8.060625 48.796875,8.836875 C49.3044851,9.32396583 49.5702044,10.0109223 49.5225,10.7128125 C49.5225,38.424375 31.59,47.761875 27.995625,49.35375 C27.6814427,49.4903806 27.3426047,49.5612111 27,49.561875 L27,49.561875 Z" id="Shape" fill="#EBEBEB" fill-rule="nonzero"></path>
                        <g id="Group" opacity="0.06" transform="translate(4.218750, 4.218750)" fill="#4A4D4E" fill-rule="nonzero">
                            <path d="M22.78125,45.343125 C22.4332133,45.3426497 22.0891806,45.2688599 21.7715625,45.1265625 C18.1828125,43.5403125 0.25875,34.205625 0.25875,6.485625 C0.213137016,5.78598491 0.479894011,5.10209825 0.9871875,4.618125 C1.8646875,3.841875 3.13875,3.999375 4.9021875,4.21875 C8.22375,4.629375 13.7840625,5.32125 21.2146875,0.675 C22.1824579,0.0729999631 23.4081671,0.0729999631 24.3759375,0.675 L24.3759375,0.675 C31.78125,5.3184375 37.3415625,4.6265625 40.663125,4.21875 C42.4265625,3.999375 43.700625,3.841875 44.578125,4.618125 C45.0857351,5.10521583 45.3514544,5.79217235 45.30375,6.4940625 C45.30375,34.205625 27.37125,43.543125 23.776875,45.135 C23.4626927,45.2716306 23.1238547,45.3424611 22.78125,45.343125 L22.78125,45.343125 Z M2.53125,6.3084375 C2.52710131,6.36742715 2.52710131,6.42663535 2.53125,6.485625 C2.53125,32.810625 19.33875,41.58 22.708125,43.070625 C22.768072,43.0974569 22.8366155,43.0974569 22.8965625,43.070625 C26.2715625,41.5771875 43.0875,32.8021875 43.0875,6.4828125 C43.0917098,6.42194771 43.0917098,6.36086479 43.0875,6.3 C42.7275,6.226875 41.7684375,6.345 40.9865625,6.4434375 C37.6115625,6.8653125 31.314375,7.6471875 23.214375,2.5790625 L23.214375,2.5790625 C22.9762272,2.43303747 22.6762728,2.43303747 22.438125,2.5790625 C14.3353125,7.6415625 8.0409375,6.868125 4.6603125,6.4490625 C3.830625,6.3534375 2.86875,6.2353125 2.50875,6.3084375 L2.53125,6.3084375 Z" id="Shape"></path>
                        </g>
                        <g id="Group" opacity="0.06" transform="translate(4.218750, 4.218750)" fill="#4A4D4E" fill-rule="nonzero">
                            <path d="M22.78125,45.343125 C22.4332133,45.3426497 22.0891806,45.2688599 21.7715625,45.1265625 C18.1828125,43.5403125 0.25875,34.205625 0.25875,6.485625 C0.213137016,5.78598491 0.479894011,5.10209825 0.9871875,4.618125 C1.8646875,3.841875 3.13875,3.999375 4.9021875,4.21875 C8.22375,4.629375 13.7840625,5.32125 21.2146875,0.675 C22.1824579,0.0729999631 23.4081671,0.0729999631 24.3759375,0.675 L24.3759375,0.675 C31.78125,5.3184375 37.3415625,4.6265625 40.663125,4.21875 C42.4265625,3.999375 43.700625,3.841875 44.578125,4.618125 C45.0857351,5.10521583 45.3514544,5.79217235 45.30375,6.4940625 C45.30375,34.205625 27.37125,43.543125 23.776875,45.135 C23.4626927,45.2716306 23.1238547,45.3424611 22.78125,45.343125 L22.78125,45.343125 Z M2.53125,6.3084375 C2.52710131,6.36742715 2.52710131,6.42663535 2.53125,6.485625 C2.53125,32.810625 19.33875,41.58 22.708125,43.070625 C22.768072,43.0974569 22.8366155,43.0974569 22.8965625,43.070625 C26.2715625,41.5771875 43.0875,32.8021875 43.0875,6.4828125 C43.0917098,6.42194771 43.0917098,6.36086479 43.0875,6.3 C42.7275,6.226875 41.7684375,6.345 40.9865625,6.4434375 C37.6115625,6.8653125 31.314375,7.6471875 23.214375,2.5790625 L23.214375,2.5790625 C22.9762272,2.43303747 22.6762728,2.43303747 22.438125,2.5790625 C14.3353125,7.6415625 8.0409375,6.868125 4.6603125,6.4490625 C3.830625,6.3534375 2.86875,6.2353125 2.50875,6.3084375 L2.53125,6.3084375 Z" id="Shape"></path>
                        </g>
                        <g id="Group" opacity="0.06" transform="translate(4.218750, 5.906250)" fill="#4A4D4E" fill-rule="nonzero">
                            <path d="M43.03125,3.9909375 C42.67125,3.9178125 41.7121875,4.03875 40.9303125,4.134375 C37.5609375,4.55625 31.269375,5.34375 23.169375,0.28125 L23.169375,0.28125 C22.9312272,0.13522497 22.6312728,0.13522497 22.393125,0.28125 C14.2903125,5.34375 7.9959375,4.5590625 4.6153125,4.14 C3.830625,4.044375 2.86875,3.9234375 2.50875,3.9965625 C2.50470955,4.0555559 2.50470955,4.1147566 2.50875,4.17375 C2.50875,4.3425 2.50875,4.5084375 2.50875,4.674375 C2.50705398,4.65660287 2.50705398,4.63870963 2.50875,4.6209375 C2.86875,4.5478125 3.830625,4.6659375 4.6153125,4.764375 C7.9903125,5.1834375 14.2903125,5.9653125 22.393125,0.894375 C22.6312728,0.74834997 22.9312272,0.74834997 23.169375,0.894375 L23.169375,0.894375 C31.269375,5.956875 37.5609375,5.180625 40.9415625,4.75875 C41.7234375,4.6603125 42.6825,4.5421875 43.0425,4.6153125 C43.044196,4.63308463 43.044196,4.65097787 43.0425,4.66875 C43.0425,4.5028125 43.0425,4.3396875 43.0425,4.17375 C43.0428671,4.1126288 43.0391085,4.05155251 43.03125,3.9909375 Z" id="Shape"></path>
                            <path d="M23.776875,42.8175 C23.1348624,43.1023381 22.4023251,43.1023381 21.7603125,42.8175 C18.19125,41.236875 0.4640625,32.0034375 0.253125,4.66875 C0.253125,4.7109375 0.253125,4.753125 0.253125,4.798125 C0.253125,32.518125 18.1771875,41.8528125 21.7659375,43.4390625 C22.0835556,43.5813599 22.4275883,43.6551497 22.775625,43.655625 C23.1224162,43.6547326 23.4652561,43.5819509 23.7825,43.441875 C27.376875,41.85 45.309375,32.5125 45.309375,4.8009375 C45.309375,4.753125 45.309375,4.7109375 45.309375,4.663125 C45.09,31.995 27.34875,41.236875 23.776875,42.8175 Z" id="Shape"></path>
                        </g>
                        <g id="Group" stroke-linecap="round"></g>
                        <circle id="b0589d54_4a10_4c05_9bec_91139f61aa17" fill="#EBEBEB" fill-rule="nonzero" cx="23.2621875" cy="18.18" r="5.805"></circle>
                        <path d="M30.4678125,34.7259375 C30.9591278,34.6254332 31.3877146,34.3278037 31.6535036,33.9025413 C31.9192926,33.477279 31.9990171,32.9616104 31.8740625,32.4759375 C30.4115625,26.6878125 27.196875,23.9878125 23.3296875,23.9878125 C19.4625,23.9878125 15.46875,26.685 13.9809375,32.4703125 C13.8551322,32.9560321 13.9344923,33.4721094 14.2004179,33.8975904 C14.4663435,34.3230714 14.8954574,34.6205525 15.3871875,34.7203125 C17.988014,35.2590051 20.6370963,35.5303494 23.293125,35.5303494 C25.7073892,35.5339784 28.114298,35.2641329 30.4678125,34.7259375 L30.4678125,34.7259375 Z" id="e44c092c_1d1c_41a7_b39a_7001e50e9ac5" fill="#EBEBEB" fill-rule="nonzero"></path>
                        <path d="M30.4678125,34.7259375 C30.9591278,34.6254332 31.3877146,34.3278037 31.6535036,33.9025413 C31.9192926,33.477279 31.9990171,32.9616104 31.8740625,32.4759375 C30.4115625,26.6878125 27.196875,23.9878125 23.3296875,23.9878125 C19.4625,23.9878125 15.46875,26.685 13.9809375,32.4703125 C13.8551322,32.9560321 13.9344923,33.4721094 14.2004179,33.8975904 C14.4663435,34.3230714 14.8954574,34.6205525 15.3871875,34.7203125 C17.988014,35.2590051 20.6370963,35.5303494 23.293125,35.5303494 C25.7073892,35.5339784 28.114298,35.2641329 30.4678125,34.7259375 L30.4678125,34.7259375 Z" id="c1664ed1_4b1b_4083_8dbd_3b7d7ce51952" fill="#EBEBEB" fill-rule="nonzero"></path>
                        <path d="M30.4678125,34.7259375 C30.9591278,34.6254332 31.3877146,34.3278037 31.6535036,33.9025413 C31.9192926,33.477279 31.9990171,32.9616104 31.8740625,32.4759375 C30.4115625,26.6878125 27.196875,23.9878125 23.3296875,23.9878125 C19.4625,23.9878125 15.46875,26.685 13.9809375,32.4703125 C13.8551322,32.9560321 13.9344923,33.4721094 14.2004179,33.8975904 C14.4663435,34.3230714 14.8954574,34.6205525 15.3871875,34.7203125 C17.988014,35.2590051 20.6370963,35.5303494 23.293125,35.5303494 C25.7073892,35.5339784 28.114298,35.2641329 30.4678125,34.7259375 L30.4678125,34.7259375 Z" id="bf4c6301_dfc8_4381_b90b_8bf8c5f36817" fill="#000000" fill-rule="nonzero" opacity="0.06"></path>
                        <circle id="912d09e7_8157_4963_a80f_cb135ef2b45b" fill="#000000" fill-rule="nonzero" opacity="0.06" cx="23.2621875" cy="18.18" r="5.805"></circle>
                        <circle id="ada919e7_cbf0_4a70_8dd0_63025e9ec737" fill="#EBEBEB" fill-rule="nonzero" cx="33.7921875" cy="19.7240625" r="4.2553125"></circle>
                        <path d="M39.5746875,31.905 C39.9339798,31.8298687 40.2467959,31.6108011 40.4402393,31.298847 C40.6336827,30.986893 40.6908566,30.609301 40.5984375,30.2540625 C39.526875,26.0128125 36.6609375,24.0328125 33.8484375,24.0328125 C31.0359375,24.0328125 28.0884375,26.0015625 27.0028125,30.25125 C26.9095108,30.6068806 26.9662528,30.9852188 27.1597755,31.2978324 C27.3532982,31.610446 27.6666406,31.8299364 28.0265625,31.905 C29.9325187,32.2998927 31.8738775,32.4987406 33.8203125,32.4984378 C35.7535223,32.4948102 37.6814256,32.2959893 39.5746875,31.905 L39.5746875,31.905 Z" id="dd53180f_e4b5_4545_834a_6b28c915d7ae" fill="#EBEBEB" fill-rule="nonzero"></path>
                        <path d="M39.5746875,31.905 C39.9339798,31.8298687 40.2467959,31.6108011 40.4402393,31.298847 C40.6336827,30.986893 40.6908566,30.609301 40.5984375,30.2540625 C39.526875,26.0128125 36.6609375,24.0328125 33.8484375,24.0328125 C31.0359375,24.0328125 28.0884375,26.0015625 27.0028125,30.25125 C26.9095108,30.6068806 26.9662528,30.9852188 27.1597755,31.2978324 C27.3532982,31.610446 27.6666406,31.8299364 28.0265625,31.905 C29.9325187,32.2998927 31.8738775,32.4987406 33.8203125,32.4984378 C35.7535223,32.4948102 37.6814256,32.2959893 39.5746875,31.905 L39.5746875,31.905 Z" id="bb62a611_ac9d_4200_8430_2e976eb9278c" fill="#000000" fill-rule="nonzero" opacity="0.06"></path>
                        <path d="M39.5746875,31.905 C39.9339798,31.8298687 40.2467959,31.6108011 40.4402393,31.298847 C40.6336827,30.986893 40.6908566,30.609301 40.5984375,30.2540625 C39.526875,26.0128125 36.6609375,24.0328125 33.8484375,24.0328125 C31.0359375,24.0328125 28.0884375,26.0015625 27.0028125,30.25125 C26.9095108,30.6068806 26.9662528,30.9852188 27.1597755,31.2978324 C27.3532982,31.610446 27.6666406,31.8299364 28.0265625,31.905 C29.9325187,32.2998927 31.8738775,32.4987406 33.8203125,32.4984378 C35.7535223,32.4948102 37.6814256,32.2959893 39.5746875,31.905 L39.5746875,31.905 Z" id="c023875c_9b97_4b1a_a68f_d02b0f2fee03" fill="#000000" fill-rule="nonzero" opacity="0.06"></path>
                        <circle id="43139dcf_e943_4e93_975b_19adbe8165b9" fill="#000000" fill-rule="nonzero" opacity="0.06" cx="33.7921875" cy="19.7240625" r="4.2553125"></circle>
                        <circle id="fb9bd275_a283_4396_8539_c22c1b64b374" fill="#000000" fill-rule="nonzero" opacity="0.06" cx="33.7921875" cy="19.7240625" r="4.2553125"></circle>
                        <path d="M39.5746875,31.905 C39.9339798,31.8298687 40.2467959,31.6108011 40.4402393,31.298847 C40.6336827,30.986893 40.6908566,30.609301 40.5984375,30.2540625 C39.526875,26.0128125 36.6609375,24.0328125 33.8484375,24.0328125 C31.0359375,24.0328125 28.0884375,26.0015625 27.0028125,30.25125 C26.9095108,30.6068806 26.9662528,30.9852188 27.1597755,31.2978324 C27.3532982,31.610446 27.6666406,31.8299364 28.0265625,31.905 C29.9325187,32.2998927 31.8738775,32.4987406 33.8203125,32.4984378 C35.7535223,32.4948102 37.6814256,32.2959893 39.5746875,31.905 L39.5746875,31.905 Z" id="129eeaa3_51fb_42ac_8fdd_e7bfcbdbd52b" fill="#000000" fill-rule="nonzero" opacity="0.12"></path>
                        <circle id="31b2f60b_cfb3_4ddf_95cb_67b1cb68c3ce" fill="#000000" fill-rule="nonzero" opacity="0.12" cx="33.7921875" cy="19.7240625" r="4.2553125"></circle>
                        <circle id="c690e139_b2dc_4cfe_8826_d072d5d14e35" fill="#E60100" fill-rule="nonzero" cx="27" cy="25.903125" r="3.8025"></circle>
                        <path d="M32.16375,36.736875 C32.4845387,36.6696245 32.7639032,36.4741829 32.9370435,36.1958837 C33.1101839,35.9175845 33.1620549,35.5806107 33.080625,35.263125 C32.1215625,31.471875 29.570625,29.7028125 27.0365625,29.7028125 C24.5025,29.7028125 21.8925,31.471875 20.9221875,35.2603125 C20.8389735,35.5778352 20.8896751,35.9155936 21.0624487,36.1946895 C21.2352223,36.4737854 21.5149359,36.6697745 21.83625,36.736875 C23.5351122,37.0878014 25.2652719,37.2649637 27,37.265627 C28.7347972,37.2663169 30.4650944,37.0891405 32.16375,36.736875 L32.16375,36.736875 Z" id="8d2c15cc_c7e0_48b7_b232_1f977859326b" fill="#E60100" fill-rule="nonzero"></path>
                        <path d="M27.995625,49.348125 C31.59,47.75625 49.5225,38.41875 49.5225,10.7071875 C49.5702044,10.0052973 49.3044851,9.31834083 48.796875,8.83125 C47.919375,8.055 46.6453125,8.2125 44.881875,8.431875 C41.5603125,8.8453125 36.0028125,9.5371875 28.569375,4.89375 C28.0984356,4.60036713 27.5548485,4.44449985 27,4.44375 L27,49.5590647 C27.3429998,49.5590647 27.6822282,49.4875216 27.995625,49.348125 Z" id="Shape" fill="url(#linearGradient-1)" fill-rule="nonzero" opacity="0.2"></path>
                    </g>
                </g>
            </g>
        </g>
    </g>
</svg>