<svg xmlns="http://www.w3.org/2000/svg" width="22" height="20" viewBox="0 0 22 20">
    <g fill="none" fill-rule="evenodd">
        <path d="M-2-3h26v26H-2z"/>
        <path fill="#333" d="M2.828 4.583h2.119c.299.001.583-.126.781-.35l2.233-3.209a.542.542 0 0 1 .07-.082A2.489 2.489 0 0 1 9.789.25h2.422c.651 0 1.33.235 1.76.66.024.025.046.051.065.08l2.22 3.238c.25.225.574.352.907.355h2.072c1.424 0 2.598 1.225 2.598 2.663v9.907a2.604 2.604 0 0 1-2.598 2.597H2.765a2.606 2.606 0 0 1-2.598-2.6V7.292a2.71 2.71 0 0 1 2.66-2.709zm5.989-2.892L6.6 4.876c-.437.518-1.032.792-1.655.79H2.839c-.883.02-1.59.742-1.589 1.626v9.857c.002.837.68 1.515 1.517 1.518h16.466a1.52 1.52 0 0 0 1.517-1.516V7.246c0-.85-.7-1.58-1.515-1.58h-2.078a2.47 2.47 0 0 1-1.69-.693.542.542 0 0 1-.071-.083l-2.22-3.24c-.217-.19-.6-.317-.965-.317H9.78c-.355-.006-.7.122-.963.358zM11 16.549a5.417 5.417 0 1 1 0-10.834 5.417 5.417 0 0 1 0 10.834zm0-1.084A4.333 4.333 0 1 0 11 6.8a4.333 4.333 0 0 0 0 8.666z"/>
    </g>
</svg>
