<svg xmlns="http://www.w3.org/2000/svg" width="80" height="34" viewBox="0 0 80 34"><g fill="#FFFFFE" fill-rule="evenodd"><path d="M19.406 25.064v.125a.573.573 0 0 0 .18.325C25.032 30.814 32.228 34 40.22 34c5.703 0 12.325-1.933 16.893-5.565.755-.604.108-1.504-.663-1.152-5.121 2.342-10.685 3.475-15.75 3.475-7.504 0-14.77-2.22-20.645-5.904a.561.561 0 0 0-.295-.095.35.35 0 0 0-.354.305"/><path d="M53.345 25.637c-.162.123-.248.263-.263.384v.074c.019.14.148.233.376.204 1.47-.19 4.749-.612 5.332.193.585.803-.649 4.116-1.2 5.592-.165.444.192.628.567.287 2.451-2.2 3.084-6.812 2.58-7.478-.239-.319-1.364-.617-2.756-.617-1.49 0-3.285.34-4.636 1.36m14.67-11.251c-.949 0-1.497.59-1.644 1.767.395.081.834.12 1.318.12.504 0 .87-.077 1.097-.232.227-.154.34-.391.34-.71 0-.63-.37-.945-1.11-.945zm-.207 3.235c-.563 0-1.052-.054-1.467-.164.059.67.26 1.149.6 1.438.342.289.857.434 1.549.434.276 0 .545-.018.808-.053a9.995 9.995 0 0 0 1.177-.254.451.451 0 0 1 .073-.007c.169 0 .253.115.253.344v.69c0 .159-.023.271-.066.336-.045.065-.132.123-.26.172a6.313 6.313 0 0 1-2.297.42c-1.225 0-2.165-.339-2.822-1.02-.657-.679-.985-1.652-.985-2.92 0-1.298.336-2.316 1.008-3.055.671-.74 1.604-1.109 2.799-1.109.918 0 1.638.225 2.156.674.518.45.777 1.049.777 1.797 0 .75-.28 1.317-.836 1.7-.558.385-1.38.577-2.467.577zm8.347 1.732c1.06 0 1.59-.81 1.59-2.429 0-1.608-.53-2.413-1.59-2.413s-1.589.805-1.589 2.413c0 1.62.53 2.429 1.59 2.429zm0 1.71c-1.2 0-2.139-.364-2.815-1.092-.676-.728-1.014-1.743-1.014-3.047 0-1.293.338-2.303 1.014-3.031.676-.728 1.615-1.092 2.815-1.092 1.201 0 2.14.364 2.816 1.092.676.728 1.014 1.738 1.014 3.031 0 1.304-.338 2.32-1.014 3.047-.677.728-1.615 1.092-2.816 1.092zm-16.972-1.74a2.54 2.54 0 0 0 1.392-.428v-4.032c-.434-.255-.933-.382-1.498-.382-.535 0-.934.2-1.196.603-.262.402-.393 1.01-.393 1.825s.138 1.42.416 1.818c.277.397.704.595 1.279.595zm-.727 1.68c-.656 0-1.226-.171-1.71-.513-.485-.34-.855-.814-1.113-1.42-.257-.606-.385-1.306-.385-2.1 0-1.262.297-2.273.892-3.031.596-.759 1.383-1.138 2.362-1.138.797 0 1.488.229 2.073.687V9.913c0-.142.03-.241.091-.297.06-.056.156-.084.288-.084h1.453c.14 0 .24.028.295.084.055.056.083.155.083.297v10.538c0 .133-.028.23-.083.29-.056.062-.154.092-.295.092h-1.211a.448.448 0 0 1-.28-.076.454.454 0 0 1-.144-.26l-.09-.351a3.192 3.192 0 0 1-2.226.855zm-5.766-9.18c-.384 0-.692-.107-.924-.32-.232-.214-.348-.504-.348-.87 0-.367.116-.657.348-.871.232-.214.54-.321.924-.321.383 0 .69.107.923.32.232.215.348.505.348.871 0 .367-.116.657-.348.87-.232.214-.54.322-.923.322zm-.727 9.011c-.131 0-.227-.03-.287-.091-.06-.062-.091-.158-.091-.29V13.41c0-.143.03-.242.09-.298.061-.056.157-.084.288-.084h1.453c.141 0 .24.028.295.084.056.056.084.155.084.298v7.04c0 .133-.028.23-.084.29-.055.062-.154.092-.295.092h-1.453zm-6.004 0a.696.696 0 0 1-.25-.038.394.394 0 0 1-.166-.122.909.909 0 0 1-.129-.237l-2.588-6.796a6.085 6.085 0 0 1-.076-.214.536.536 0 0 1-.03-.168c0-.153.1-.23.302-.23h1.514c.162 0 .28.032.356.093a.585.585 0 0 1 .174.305l1.559 5.406 1.59-5.406a.585.585 0 0 1 .173-.305c.076-.061.194-.092.356-.092h1.468c.202 0 .303.076.303.229 0 .05-.01.107-.03.168-.02.061-.046.132-.076.214l-2.589 6.796a.914.914 0 0 1-.128.237.405.405 0 0 1-.16.122.684.684 0 0 1-.256.038h-1.317zM0 13.412c0-.141.03-.24.092-.297.06-.057.156-.084.288-.084h1.096c.233 0 .374.112.425.336l.106.397c.304-.295.671-.53 1.101-.703a3.51 3.51 0 0 1 1.316-.26c.983 0 1.76.363 2.333 1.085.572.724.859 1.701.859 2.935 0 .844-.142 1.583-.425 2.214-.285.632-.67 1.12-1.156 1.459a2.833 2.833 0 0 1-1.672.513c-.415 0-.811-.066-1.185-.199a2.853 2.853 0 0 1-.958-.55v3.346c0 .143-.028.242-.084.299-.056.055-.155.083-.297.083H.38c-.132 0-.228-.028-.288-.083-.061-.057-.092-.156-.092-.3v-10.19zm3.71 1.07c-.527 0-1.024.138-1.49.412v4.019a2.77 2.77 0 0 0 1.49.413c.567 0 .984-.193 1.253-.58.27-.388.404-.998.404-1.834 0-.846-.132-1.461-.396-1.849-.264-.388-.684-.58-1.262-.58zm7.49-.29c.406-.448.789-.766 1.149-.956a2.45 2.45 0 0 1 1.147-.281h.213c.142 0 .243.028.303.083.062.057.091.156.091.298v1.283c0 .133-.027.23-.083.291-.055.06-.154.092-.296.092-.072 0-.163-.005-.274-.016a4.769 4.769 0 0 0-.425-.015c-.233 0-.516.033-.852.099-.334.067-.617.15-.85.252v5.134c0 .133-.029.23-.084.291-.056.06-.155.092-.297.092H9.483c-.132 0-.228-.031-.288-.092-.061-.062-.092-.158-.092-.29v-7.044c0-.143.03-.242.092-.299.06-.055.156-.084.288-.084h1.094c.233 0 .375.112.427.336l.197.826m5.086-2.368c-.386 0-.695-.107-.928-.321-.233-.215-.348-.505-.348-.872s.115-.656.348-.87c.233-.214.542-.32.928-.32.385 0 .694.106.927.32.233.214.35.503.35.87s-.117.657-.35.872c-.233.214-.542.32-.927.32zm-1.11 1.589c0-.143.03-.242.091-.298.062-.056.158-.085.29-.085h1.458c.143 0 .241.029.296.085.057.056.085.155.085.298v7.043c0 .132-.028.23-.085.29-.055.061-.153.092-.296.092h-1.458c-.132 0-.228-.03-.29-.091-.06-.06-.09-.159-.09-.291v-7.043zm6.123.367c.536-.357 1.02-.61 1.45-.756.43-.149.875-.223 1.331-.223.912 0 1.555.327 1.93.978.517-.346 1.004-.596 1.46-.748.455-.153.927-.23 1.412-.23.71 0 1.26.2 1.65.596.39.398.585.953.585 1.666v5.394c0 .133-.028.229-.083.29-.056.062-.155.09-.297.09h-1.459c-.132 0-.228-.028-.288-.09-.062-.061-.092-.157-.092-.29v-4.905c0-.692-.31-1.039-.928-1.039a3.83 3.83 0 0 0-1.656.397v5.547c0 .133-.028.229-.083.29-.056.062-.155.09-.297.09h-1.46c-.131 0-.227-.028-.287-.09-.062-.061-.091-.157-.091-.29v-4.905c0-.692-.31-1.039-.928-1.039a3.69 3.69 0 0 0-1.672.412v5.532c0 .133-.029.229-.084.29-.056.062-.154.09-.295.09h-1.46c-.131 0-.229-.028-.289-.09-.06-.061-.09-.157-.09-.29v-7.045c0-.143.03-.242.09-.297.06-.057.158-.084.288-.084h1.095c.234 0 .374.112.426.336l.121.412m14.622 3.866c-.577 0-1.08-.055-1.505-.167.06.682.267 1.171.616 1.466.35.295.879.443 1.589.443.283 0 .56-.018.828-.054a10.343 10.343 0 0 0 1.208-.259.457.457 0 0 1 .076-.008c.173 0 .258.118.258.352v.703c0 .162-.023.277-.067.344a.573.573 0 0 1-.267.175 6.51 6.51 0 0 1-2.356.427c-1.257 0-2.222-.345-2.895-1.039-.674-.692-1.01-1.685-1.01-2.98 0-1.323.344-2.362 1.033-3.115.689-.755 1.646-1.132 2.872-1.132.942 0 1.68.23 2.211.688.532.458.798 1.07.798 1.833 0 .765-.286 1.343-.858 1.734-.572.393-1.416.589-2.53.589m.212-3.3c-.974 0-1.536.601-1.687 1.802.405.083.856.123 1.353.123.516 0 .891-.079 1.124-.237.233-.157.35-.4.35-.725 0-.643-.38-.963-1.14-.963M24.914 4.34c.158 0 .32-.035.488-.105.167-.07.323-.164.469-.284v-.824a4.82 4.82 0 0 0-.749-.066c-.549 0-.824.22-.824.663 0 .196.054.347.161.454.108.108.26.161.455.161zm1.146.776l-.114-.426a2.29 2.29 0 0 1-.677.422 1.965 1.965 0 0 1-.743.156c-.468 0-.842-.133-1.123-.398-.28-.265-.421-.619-.421-1.061 0-.303.076-.57.227-.8.152-.23.37-.412.654-.545a2.353 2.353 0 0 1 1.004-.199c.303 0 .637.041 1.004.123v-.474c0-.29-.06-.489-.18-.596-.12-.108-.341-.161-.663-.161-.518 0-1.09.098-1.715.293V.531a3.46 3.46 0 0 1 .881-.288 5.355 5.355 0 0 1 1.08-.11c.65 0 1.125.132 1.425.394.3.262.45.674.45 1.236v3.353H26.06zm8.392 0V1.84c0-.43-.193-.644-.578-.644-.341 0-.685.082-1.033.246v3.675H31.46V1.84c0-.43-.193-.644-.578-.644-.354 0-.701.085-1.042.255v3.666h-1.383V.276h1.137l.123.464a4.09 4.09 0 0 1 .903-.47 2.55 2.55 0 0 1 .83-.137c.567 0 .968.202 1.202.606.322-.215.625-.37.91-.464a2.75 2.75 0 0 1 .88-.142c.442 0 .785.123 1.028.37.243.245.364.59.364 1.032v3.58h-1.382m4.318-.775c.158 0 .32-.035.488-.105.168-.07.324-.164.47-.284v-.824a4.82 4.82 0 0 0-.75-.066c-.548 0-.823.22-.823.663 0 .196.053.347.16.454.108.108.26.161.456.161zm1.147.776l-.114-.426a2.292 2.292 0 0 1-.677.422 1.965 1.965 0 0 1-.744.156c-.467 0-.841-.133-1.122-.398-.281-.265-.422-.619-.422-1.061 0-.303.076-.57.228-.8.151-.23.37-.412.653-.545a2.353 2.353 0 0 1 1.004-.199c.303 0 .638.041 1.004.123v-.474c0-.29-.06-.489-.18-.596-.12-.108-.34-.161-.663-.161-.518 0-1.089.098-1.714.293V.531c.233-.12.527-.216.88-.288a5.355 5.355 0 0 1 1.08-.11c.65 0 1.126.132 1.426.394.3.262.45.674.45 1.236v3.353h-1.09zm2.036 0v-.985l2.49-2.832h-2.395V.276h3.92v.985L43.45 4.093h2.567v1.023h-4.063m7.083-.919c.663 0 .995-.502.995-1.506 0-.997-.332-1.496-.995-1.496s-.994.499-.994 1.496c0 1.004.331 1.506.994 1.506zm0 1.061c-.751 0-1.338-.225-1.761-.677-.423-.451-.635-1.081-.635-1.89 0-.802.212-1.428.635-1.88.423-.452 1.01-.677 1.761-.677.752 0 1.34.225 1.762.677.423.452.635 1.078.635 1.88 0 .809-.212 1.439-.635 1.89-.423.452-1.01.677-1.762.677zm6.583-.142V1.943c0-.259-.057-.448-.17-.568-.114-.12-.288-.18-.521-.18-.348 0-.692.107-1.033.322v3.6h-1.383V.275h1.137l.133.52c.567-.439 1.174-.66 1.817-.66.449 0 .794.121 1.037.364.243.244.365.59.365 1.038v3.58H55.62"/></g></svg>