<svg width="64" height="64" viewBox="0 0 64 64" xmlns="http://www.w3.org/2000/svg"><g fill="none" fill-rule="evenodd"><path d="M0 10.639h63.834v63.834H0z"/><path d="M25.751 22.652a1.33 1.33 0 0 1 .95 1.623l-2.786 10.636c-.006.021-.015.04-.022.06a1.269 1.269 0 0 1-.098.232c-.015.027-.028.053-.044.078a1.3 1.3 0 0 1-.098.135l-.046.057a1.279 1.279 0 0 1-.174.16c-.011.008-.024.014-.036.022-.053.039-.11.074-.168.103l-.075.033a1.402 1.402 0 0 1-.16.058c-.014.004-.027.01-.04.015-.022.005-.045.007-.066.012l-.066.012a1.426 1.426 0 0 1-.187.016h-.014c-.063 0-.126-.007-.188-.016l-.071-.014c-.024-.005-.047-.007-.07-.014-.013-.003-.024-.01-.037-.013a1.335 1.335 0 0 1-.165-.062l-.07-.03a1.296 1.296 0 0 1-.194-.122l-.015-.01a1.36 1.36 0 0 1-.17-.16c-.015-.017-.028-.037-.043-.055a1.316 1.316 0 0 1-.1-.138.773.773 0 0 1-.04-.075 1.21 1.21 0 0 1-.098-.233c-.006-.022-.016-.041-.02-.063l-2.681-10.636a1.33 1.33 0 0 1 2.58-.65l1.415 5.617 1.474-5.629a1.33 1.33 0 0 1 1.623-.95zm16.805 9.185v-5.382a1.187 1.187 0 0 0-1.192-1.188h-1.468v7.934h1.28a1.367 1.367 0 0 0 1.38-1.364zm-1.2-9.23a3.845 3.845 0 0 1 3.86 3.848v5.384a4.026 4.026 0 0 1-4.053 4.021h-2.597a1.33 1.33 0 0 1-1.33-1.33V23.938c0-.735.596-1.33 1.33-1.33h2.79zm14.499 21.279V14.629a1.33 1.33 0 0 0-1.33-1.33H9.309a1.33 1.33 0 0 0-1.33 1.33v29.257c0 .734.596 1.33 1.33 1.33h45.216a1.33 1.33 0 0 0 1.33-1.33zm-1.33-33.247a3.99 3.99 0 0 1 3.99 3.99v29.257a3.99 3.99 0 0 1-3.99 3.99H33.247v2.66h10.639a1.33 1.33 0 0 1 0 2.659H19.948a1.33 1.33 0 0 1 0-2.66h10.639v-2.66H9.309a3.99 3.99 0 0 1-3.99-3.99V14.63a3.99 3.99 0 0 1 3.99-3.99h45.216zM32.748 32.083v-5.652a1.164 1.164 0 1 0-2.327 0v5.652a1.164 1.164 0 1 0 2.327 0zm-1.164-9.475a3.823 3.823 0 0 1 3.824 3.823v5.652a3.823 3.823 0 1 1-7.647 0v-5.652a3.823 3.823 0 0 1 3.823-3.823z" fill="#FFF"/></g></svg>