<svg width="64" height="64" viewBox="0 0 64 64" xmlns="http://www.w3.org/2000/svg"><g fill="none" fill-rule="evenodd"><path d="M0 0h63.834v63.834H0z"/><path d="M33.247 50.535h10.639a1.33 1.33 0 0 1 0 2.66H19.948a1.33 1.33 0 0 1 0-2.66h10.639v-2.66H9.309a3.99 3.99 0 0 1-3.99-3.99V14.63a3.99 3.99 0 0 1 3.99-3.99h45.216a3.99 3.99 0 0 1 3.99 3.99v29.257a3.99 3.99 0 0 1-3.99 3.99H33.247v2.66zm-12.634-26.04a2.159 2.159 0 0 1 .689-1.527 2.151 2.151 0 0 1 2.932.008l5.96 4.42.143.106a2.118 2.118 0 0 1-.005 3.507l-.148.11-6.071 4.517-.075.052c-.393.3-.878.453-1.395.432a2.147 2.147 0 0 1-2.03-2.159v-9.467zm2.66 8.452l4.962-3.694-4.962-3.68v7.374zm10.639-9.01a1.33 1.33 0 1 1 2.66 0v10.64a1.33 1.33 0 0 1-2.66 0v-10.64zm5.32 0a1.33 1.33 0 0 1 2.659 0v10.64a1.33 1.33 0 1 1-2.66 0v-10.64zM9.308 13.3a1.33 1.33 0 0 0-1.33 1.33v29.257c0 .734.596 1.33 1.33 1.33h45.216a1.33 1.33 0 0 0 1.33-1.33V14.629a1.33 1.33 0 0 0-1.33-1.33H9.309z" fill="#FFF"/></g></svg>