<svg width="64" height="64" viewBox="0 0 64 64" xmlns="http://www.w3.org/2000/svg"><g fill="none" fill-rule="evenodd"><path d="M0 0h63.834v63.834H0z"/><path d="M21.268 55.855V37.236c0-2.937-2.38-5.32-5.316-5.32h-2.658a5.318 5.318 0 0 0-5.316 5.32v13.3a5.318 5.318 0 0 0 5.316 5.319h7.974zm-2.79 2.66h-5.184a7.977 7.977 0 0 1-7.975-7.98V37.236a7.978 7.978 0 0 1 7.975-7.979h2.658c1.585 0 3.063.463 4.305 1.262 1.44-1.916 4.192-5.53 5.15-6.842.767-1.048 1.464-2.03 2.103-2.967 2.94-4.307 4.574-7.568 4.603-9.398-.214-2.721.05-4.338.827-5.224a2.158 2.158 0 0 1 1.056-.667c.168-.07.353-.106.544-.101 3.528.093 5.79 1.567 6.74 4.213.716 1.999.652 4.452.036 7.721a67.751 67.751 0 0 1-.61 2.841c-.828 3.57-.883 3.825-.983 4.816a4.785 4.785 0 0 0-.018.975c.237-.04.514-.09.848-.15-.09.016 1.548-.29 2.058-.38 1.486-.267 2.713-.452 3.906-.572 3.48-.352 6.102-.092 7.886 1.118 3.29 2.232 3.807 4.482 2.69 8.044 1.897 2.493 1.756 5.19.395 7.635a9.367 9.367 0 0 1-.47.76c.003.005.004.01.006.016.767 2.317.368 5.086-1.875 7.962 1.337 4.497-2 8.195-6.775 8.195H18.478zm3.753-26.197a7.948 7.948 0 0 1 1.695 4.918v18.619h24.448c3.286 0 5.249-2.356 4.043-5.297a1.33 1.33 0 0 1 .226-1.376c2.046-2.361 2.392-4.375 1.858-5.989a2.296 2.296 0 0 0-.147-.364 1.33 1.33 0 0 1 .16-1.59 6.283 6.283 0 0 0 .652-.952c.926-1.664.986-3.311-.33-4.911a6.094 6.094 0 0 0-.217-.249 1.33 1.33 0 0 1-.274-1.345c1.055-2.973.889-4.103-1.434-5.678-1.117-.758-3.224-.967-6.127-.674-1.114.113-2.28.288-3.705.543-.499.09-2.127.393-2.045.378-.75.138-1.24.22-1.657.273a1.328 1.328 0 0 1-.571-.052c-1.534-.49-1.93-1.895-1.727-3.926.116-1.165.165-1.392 1.038-5.153.26-1.12.436-1.932.587-2.732 1.103-5.852.255-8.496-3.827-8.764a2.843 2.843 0 0 0-.096.423c-.099.617-.112 1.52-.014 2.736l.004.107c0 2.563-1.787 6.142-5.066 10.947-.657.963-1.37 1.967-2.152 3.037-1.021 1.397-3.963 5.259-5.322 7.07zM34.023 5.414c.048-.013.113-.028.097-.024a1.282 1.282 0 0 0-.593.356c.119-.13.284-.248.469-.325l.027-.007z" fill="#FFF"/></g></svg>