<svg width="64" height="64" viewBox="0 0 64 64" xmlns="http://www.w3.org/2000/svg"><g fill="none" fill-rule="evenodd"><path d="M0 0h63.834v63.834H0z"/><path d="M30.962 31.485h3.391a1.333 1.333 0 1 1 0 2.665h-3.39v3.003h4.36a1.333 1.333 0 1 1 0 2.666H29.63a1.333 1.333 0 0 1-1.333-1.333V27.15c0-.736.597-1.333 1.333-1.333h5.667a1.333 1.333 0 1 1 0 2.666h-4.335v3.002zm-9.646.948c.048-.004.095-.005.142-.003.248-.015.548-.075.82-.2.567-.264.882-.747.882-1.774 0-1.027-.315-1.51-.881-1.773a2.32 2.32 0 0 0-1.008-.203h.011l-.095.003h-1.974v3.946h1.974l.096.004a1.724 1.724 0 0 0 .034 0zm2.107 2.203l1.765 3.207a1.333 1.333 0 0 1-2.335 1.286l-2.22-4.035h-1.42v3.392a1.333 1.333 0 1 1-2.665 0V27.15c0-.736.596-1.333 1.332-1.333h3.289a4.868 4.868 0 0 1 2.231.448c1.5.696 2.425 2.117 2.425 4.19 0 2.065-.916 3.482-2.402 4.181zm8.494-26.651C18.7 7.985 7.985 18.7 7.985 31.917c0 13.217 10.716 23.932 23.932 23.932S55.85 45.134 55.85 31.917c0-13.217-10.716-23.932-23.933-23.932zm0-2.666c14.689 0 26.598 11.909 26.598 26.598 0 14.689-11.91 26.597-26.598 26.597-14.688 0-26.598-11.908-26.598-26.597 0-14.69 11.91-26.598 26.598-26.598zM45.935 36.29a1.333 1.333 0 1 1 1.973 1.792 5.31 5.31 0 0 1-3.844 1.736c-3.293 0-5.831-3.194-5.831-7 0-3.809 2.532-7 5.87-7a5.437 5.437 0 0 1 4.315 2.348 1.333 1.333 0 1 1-2.194 1.514 2.757 2.757 0 0 0-2.16-1.197c-1.674 0-3.166 1.88-3.166 4.335 0 2.451 1.497 4.335 3.14 4.335a2.63 2.63 0 0 0 1.897-.863z" fill="#FFF"/></g></svg>