<svg width="64" height="64" viewBox="0 0 64 64" xmlns="http://www.w3.org/2000/svg"><g fill="none" fill-rule="evenodd"><path d="M0 0h63.834v63.834H0z"/><path d="M55.855 43.886V14.628a1.33 1.33 0 0 0-1.33-1.33H9.309a1.33 1.33 0 0 0-1.33 1.33v29.258c0 .734.596 1.33 1.33 1.33h45.216a1.33 1.33 0 0 0 1.33-1.33zm-1.33-33.247a3.99 3.99 0 0 1 3.99 3.99v29.257a3.99 3.99 0 0 1-3.99 3.99H33.247v2.659h10.639a1.33 1.33 0 0 1 0 2.66H19.948a1.33 1.33 0 1 1 0-2.66h10.639v-2.66H9.309a3.99 3.99 0 0 1-3.99-3.99V14.629a3.99 3.99 0 0 1 3.99-3.99h45.216zM36.74 32.993c1.2-.484 1.906-1.563 1.906-3.733s-.706-3.25-1.908-3.736a3.89 3.89 0 0 0-.911-.239v7.945c.308-.042.618-.119.913-.237zm.994-9.935c2.223.898 3.572 2.964 3.572 6.202 0 3.24-1.35 5.305-3.573 6.2a6.83 6.83 0 0 1-3.448.41 1.33 1.33 0 0 1-1.118-1.313v-10.6a1.33 1.33 0 0 1 1.12-1.313 6.83 6.83 0 0 1 3.448.414zm-8.533-.473c.734 0 1.33.595 1.33 1.33V34.51a1.33 1.33 0 0 1-2.66 0v-3.966h-2.683v3.966a1.33 1.33 0 0 1-2.66 0V23.914a1.33 1.33 0 0 1 2.66 0v3.97h2.683v-3.97c0-.734.595-1.33 1.33-1.33z" fill="#FFF"/></g></svg>