<svg width="64" height="64" viewBox="0 0 64 64" xmlns="http://www.w3.org/2000/svg"><g fill="none" fill-rule="evenodd"><path d="M0 0h63.834v63.834H0z"/><path d="M33.247 50.535h10.639a1.33 1.33 0 0 1 0 2.66H19.948a1.33 1.33 0 0 1 0-2.66h10.639v-2.66H9.309a3.99 3.99 0 0 1-3.99-3.99V14.63a3.99 3.99 0 0 1 3.99-3.99h45.216a3.99 3.99 0 0 1 3.99 3.99v29.257a3.99 3.99 0 0 1-3.99 3.99H33.247v2.66zm-12.145-21.12l1.426-1.427a1.33 1.33 0 1 1 1.881 1.88l-3.657 3.657a1.33 1.33 0 0 1-1.88 0l-3.658-3.657a1.33 1.33 0 1 1 1.88-1.88l1.347 1.346a13.298 13.298 0 0 1 3.9-9.486c5.196-5.192 13.615-5.188 18.806.008 5.191 5.196 5.188 13.615-.008 18.807-5.196 5.19-13.616 5.187-18.807-.008a1.33 1.33 0 1 1 1.881-1.88c4.153 4.156 10.89 4.16 15.046.007 4.157-4.154 4.16-10.89.007-15.046-4.153-4.157-10.889-4.16-15.046-.007a10.638 10.638 0 0 0-3.118 7.685zM9.309 13.298a1.33 1.33 0 0 0-1.33 1.33v29.257c0 .734.596 1.33 1.33 1.33h45.216a1.33 1.33 0 0 0 1.33-1.33V14.629a1.33 1.33 0 0 0-1.33-1.33H9.309z" fill="#FFF"/></g></svg>