<?xml version="1.0" encoding="utf-8"?>
<!-- Generator: Adobe Illustrator 21.1.0, SVG Export Plug-In . SVG Version: 6.00 Build 0)  -->
<svg version="1.1" id="Layer_1" xmlns="http://www.w3.org/2000/svg" xmlns:xlink="http://www.w3.org/1999/xlink" x="0px" y="0px"
	 viewBox="0 0 592 144" style="enable-background:new 0 0 592 144;" xml:space="preserve">
<style type="text/css">
	.st0{fill:#111111;}
</style>
<path id="_50_S1_Headline_large_1x.svg" class="st0" d="M36.5,49.7H10.9V1.8H0.8v56.4h35.7L36.5,49.7L36.5,49.7z M56.7,51.5
	c-4.2,0-7-2.1-7-5.5c0-3.3,2.7-5.4,7.4-5.7l9.6-0.6v3.2C66.6,47.8,62.2,51.5,56.7,51.5z M53.7,58.9c5.3,0,10.5-2.8,12.9-7.3h0.2v6.6
	h9.4V29.7c0-8.3-6.7-13.7-16.9-13.7c-10.6,0-17.1,5.5-17.6,13.3h9c0.6-3.4,3.6-5.7,8.2-5.7c4.8,0,7.7,2.5,7.7,6.8v3L55.7,34
	c-10.1,0.6-15.7,5-15.7,12.4C39.9,53.8,45.7,58.9,53.7,58.9L53.7,58.9z M97.6,58.2h9.7V32.8c0-5,3.3-8.6,8-8.6
	c4.5,0,7.3,2.8,7.3,7.5v26.5h9.4V32.6c0-5,3.2-8.4,7.9-8.4c4.8,0,7.4,2.9,7.4,8v26h9.7V29.8c0-8.3-5.3-13.8-13.5-13.8
	c-6,0-10.9,3.2-12.9,8.3h-0.2C129,19,124.8,16,119,16c-5.6,0-10,3.2-11.8,8H107v-7.2h-9.3V58.2L97.6,58.2z M181.6,23.5
	c5.6,0,9.3,4.1,9.5,10h-19.3C172.2,27.6,176.1,23.5,181.6,23.5z M191.2,45.8c-1.1,3.4-4.5,5.7-9,5.7c-6.4,0-10.4-4.5-10.4-11.1v-0.6
	h28.9v-3.2c0-12.6-7.3-20.7-19.1-20.7c-11.9,0-19.5,8.6-19.5,21.7c0,13.2,7.5,21.4,19.9,21.4c9.8,0,17.1-5.4,18.3-13.2H191.2
	L191.2,45.8z M221.2,58.9c6.1,0,10.8-3.1,13.1-7.7h0.2v7.1h9.5V1.8h-9.7v21.9H234c-2.2-4.6-6.9-7.7-12.8-7.7
	c-10.4,0-17.2,8.3-17.2,21.4C204,50.6,210.7,58.9,221.2,58.9L221.2,58.9z M224.1,24.1c6.1,0,10.2,5.3,10.2,13.4
	c0,8.2-4,13.4-10.2,13.4c-6.3,0-10.2-5.2-10.2-13.4C213.9,29.3,217.8,24.1,224.1,24.1L224.1,24.1z M251.1,58.2h9.7V16.8h-9.7V58.2
	L251.1,58.2z M255.9,10.5c2.9,0,5.3-2.4,5.2-5.3c0-2.9-2.4-5.3-5.3-5.2c-2.9,0-5.2,2.4-5.2,5.3C250.6,8.2,253,10.6,255.9,10.5
	C255.9,10.5,255.9,10.5,255.9,10.5L255.9,10.5z M283.3,58.9c6.1,0,10.8-3.1,13.1-7.7h0.2v7.1h9.5V1.8h-9.7v21.9h-0.2
	c-2.2-4.6-6.9-7.7-12.8-7.7c-10.4,0-17.2,8.3-17.2,21.4C266.1,50.6,272.9,58.9,283.3,58.9L283.3,58.9z M286.2,24.1
	c6.1,0,10.2,5.3,10.2,13.4c0,8.2-4,13.4-10.2,13.4c-6.3,0-10.2-5.2-10.2-13.4C276.1,29.3,280,24.1,286.2,24.1L286.2,24.1z
	 M328.1,51.5c-4.2,0-7-2.1-7-5.5c0-3.3,2.7-5.4,7.4-5.7l9.6-0.6v3.2C338.1,47.8,333.7,51.5,328.1,51.5L328.1,51.5z M325.2,58.9
	c5.3,0,10.5-2.8,12.9-7.3h0.2v6.6h9.4V29.7c0-8.3-6.7-13.7-17-13.7c-10.5,0-17.1,5.5-17.6,13.3h9c0.6-3.4,3.6-5.7,8.2-5.7
	c4.8,0,7.7,2.5,7.7,6.8v3L327.1,34c-10.1,0.6-15.7,5-15.7,12.4C311.4,53.8,317.2,58.9,325.2,58.9L325.2,58.9z M387,23.5
	c5.6,0,9.3,4.1,9.5,10h-19.3C377.5,27.6,381.5,23.5,387,23.5L387,23.5z M396.5,45.8c-1.1,3.4-4.5,5.7-9,5.7
	c-6.4,0-10.4-4.5-10.4-11.1v-0.6H406v-3.2c0-12.6-7.3-20.7-19.1-20.7c-12,0-19.5,8.6-19.5,21.7c0,13.2,7.5,21.4,19.9,21.4
	c9.8,0,17.1-5.4,18.3-13.2H396.5L396.5,45.8z M426.6,43.4l8.6,14.8h10.6l-13.2-20.9L446,16.8h-10.7L427,31.3h-0.2l-8.4-14.5h-10.9
	l13.2,20.7l-13.4,20.7h10.3l8.6-14.8H426.6L426.6,43.4z M464.2,51.5c-4.2,0-7-2.1-7-5.5c0-3.3,2.7-5.4,7.4-5.7l9.6-0.6v3.2
	C474.1,47.8,469.7,51.5,464.2,51.5L464.2,51.5z M461.2,58.9c5.3,0,10.5-2.8,12.9-7.3h0.2v6.6h9.4V29.7c0-8.3-6.7-13.7-17-13.7
	c-10.5,0-17.1,5.5-17.6,13.3h9c0.6-3.4,3.6-5.7,8.2-5.7c4.8,0,7.7,2.5,7.7,6.8v3L463.2,34c-10.1,0.6-15.7,5-15.7,12.4
	C447.4,53.8,453.2,58.9,461.2,58.9L461.2,58.9z M526.8,31.6c-0.7-8.7-7.4-15.6-18.4-15.6c-12,0-19.8,8.3-19.8,21.6
	c0,13.4,7.8,21.5,19.9,21.5c10.4,0,17.5-6.1,18.3-15.3h-9.2c-0.9,4.7-4.1,7.5-9,7.5c-6.2,0-10.2-5-10.2-13.7
	c0-8.5,3.9-13.7,10.1-13.7c5.2,0,8.3,3.3,9.1,7.7L526.8,31.6L526.8,31.6z M534.1,7.1v9.7h-5.9v7.5h5.9v22.9c0,8,3.5,11.2,12.5,11.2
	c1.7,0,3.4-0.1,5-0.4v-7.4c-0.9,0.1-1.8,0.2-2.8,0.2c-3.4,0-5-1.6-5-5V24.3h7.8v-7.5h-7.8V7.1L534.1,7.1L534.1,7.1z M571.6,51.5
	c-4.2,0-7-2.1-7-5.5c0-3.3,2.7-5.4,7.4-5.7l9.6-0.6v3.2C581.5,47.8,577.1,51.5,571.6,51.5L571.6,51.5z M568.7,58.9
	c5.3,0,10.5-2.8,12.9-7.3h0.2v6.6h9.4V29.7c0-8.3-6.7-13.7-17-13.7c-10.5,0-17.1,5.5-17.6,13.3h9c0.6-3.4,3.6-5.7,8.2-5.7
	c4.8,0,7.7,2.5,7.7,6.8v3L570.6,34c-10.1,0.6-15.7,5-15.7,12.4C554.9,53.8,560.7,58.9,568.7,58.9L568.7,58.9z M177.7,142.9
	c6.1,0,10.8-3.1,13.1-7.7h0.2v7.1h9.5V85.8h-9.7v21.9h-0.2c-2.2-4.6-6.9-7.7-12.8-7.7c-10.4,0-17.2,8.3-17.2,21.4
	C160.5,134.6,167.3,142.9,177.7,142.9L177.7,142.9z M180.6,108.1c6.1,0,10.2,5.3,10.2,13.4c0,8.2-4,13.4-10.2,13.4
	c-6.3,0-10.2-5.2-10.2-13.4C170.5,113.3,174.4,108.1,180.6,108.1L180.6,108.1z M225.3,107.5c5.6,0,9.3,4.1,9.5,10h-19.3
	C215.9,111.6,219.8,107.5,225.3,107.5L225.3,107.5z M234.9,129.8c-1.1,3.4-4.5,5.7-9,5.7c-6.4,0-10.4-4.5-10.4-11.1v-0.6h28.9v-3.2
	c0-12.6-7.3-20.7-19.1-20.7c-12,0-19.5,8.6-19.5,21.7c0,13.2,7.5,21.4,19.9,21.4c9.8,0,17.1-5.4,18.3-13.2H234.9L234.9,129.8z
	 M266.9,91.1v9.7H261v7.5h5.9v22.9c0,8,3.5,11.2,12.5,11.2c1.7,0,3.4-0.1,5-0.4v-7.4c-0.9,0.1-1.8,0.2-2.8,0.2c-3.4,0-5-1.6-5-5
	v-21.5h7.8v-7.5h-7.8v-9.7L266.9,91.1L266.9,91.1z M307.4,143c12.1,0,20-8.1,20-21.5c0-13.4-8-21.6-20-21.6c-12.1,0-20,8.2-20,21.6
	C287.3,134.9,295.2,143,307.4,143L307.4,143z M307.4,135.3c-6.2,0-10.2-5-10.2-13.8c0-8.8,4-13.8,10.2-13.8c6.2,0,10.2,5,10.2,13.8
	C317.5,130.3,313.6,135.3,307.4,135.3L307.4,135.3z M347.9,142.9c6.1,0,10.8-3.1,13.1-7.7h0.2v7.1h9.5V85.8H361v21.9h-0.2
	c-2.2-4.6-6.9-7.7-12.8-7.7c-10.4,0-17.2,8.3-17.2,21.4C330.8,134.6,337.5,142.9,347.9,142.9L347.9,142.9z M350.9,108.1
	c6.1,0,10.2,5.3,10.2,13.4c0,8.2-4,13.4-10.2,13.4c-6.3,0-10.2-5.2-10.2-13.4C340.7,113.3,344.6,108.1,350.9,108.1L350.9,108.1z
	 M396,143c12.1,0,20-8.1,20-21.5c0-13.4-8-21.6-20-21.6c-12.1,0-20,8.2-20,21.6C376,134.9,383.9,143,396,143L396,143z M396,135.3
	c-6.2,0-10.2-5-10.2-13.8c0-8.8,4-13.8,10.2-13.8c6.2,0,10.2,5,10.2,13.8C406.2,130.3,402.2,135.3,396,135.3L396,135.3z
	 M426.3,142.6c3.1,0,5.6-2.5,5.6-5.6c0-3.1-2.5-5.6-5.6-5.6s-5.6,2.5-5.6,5.6l0,0c0,3.1,2.4,5.6,5.5,5.6
	C426.2,142.6,426.2,142.6,426.3,142.6L426.3,142.6z"/>
</svg>
