<?xml version="1.0" encoding="utf-8"?>
<!-- Generator: Adobe Illustrator 21.1.0, SVG Export Plug-In . SVG Version: 6.00 Build 0)  -->
<svg version="1.1" id="Layer_1" xmlns="http://www.w3.org/2000/svg" xmlns:xlink="http://www.w3.org/1999/xlink" x="0px" y="0px"
	 viewBox="0 0 852 52" style="enable-background:new 0 0 852 52;" xml:space="preserve">
<style type="text/css">
	.st0{fill:#111111;}
</style>
<path id="_50_S2_Title_1_large_1x.svg" class="st0" d="M29.3,40.6H8.2V27.7h20v-6.4h-20V9.1h21.1V2.3H0.1v45.1h29.2V40.6L29.3,40.6z
	 M35.2,47.4h7.8V2.3h-7.8V47.4z M61.4,47.4h7.8V2.3h-7.8V47.4z M87.4,42c-3.4,0-5.6-1.7-5.6-4.4c0-2.6,2.2-4.3,5.9-4.6l7.7-0.5v2.5
	C95.3,39.1,91.8,42,87.4,42L87.4,42z M85,47.9c4.2,0,8.4-2.2,10.3-5.8h0.2v5.3h7.5V24.6c0-6.7-5.3-11-13.6-11
	c-8.4,0-13.7,4.4-14.1,10.6h7.2c0.5-2.8,2.8-4.5,6.5-4.5c3.8,0,6.2,2,6.2,5.5v2.4L86.6,28C78.5,28.5,74,32,74,37.9
	C74,43.9,78.6,47.9,85,47.9L85,47.9z M121,47.9c4.8,0,8.7-2.5,10.5-6.2h0.1v5.7h7.6V2.3h-7.8v17.5h-0.2c-1.8-3.7-5.5-6.1-10.2-6.1
	c-8.3,0-13.8,6.6-13.8,17.1C107.3,41.3,112.7,47.9,121,47.9L121,47.9z M123.4,20.1c4.9,0,8.1,4.2,8.1,10.7c0,6.6-3.2,10.7-8.1,10.7
	c-5,0-8.1-4.1-8.1-10.7C115.3,24.2,118.4,20.1,123.4,20.1L123.4,20.1z M159.9,48c9.7,0,16-6.5,16-17.2c0-10.7-6.4-17.2-16-17.2
	s-16,6.6-16,17.2C143.8,41.6,150.2,48,159.9,48L159.9,48z M159.9,41.9c-4.9,0-8.1-4-8.1-11.1c0-7,3.2-11.1,8.1-11.1
	c4.9,0,8.1,4,8.1,11.1C168,37.9,164.8,41.9,159.9,41.9L159.9,41.9z M211.1,47.9c8.4,0,13.7-6.5,13.7-17.1s-5.3-17.1-13.7-17.1
	c-4.7,0-8.5,2.4-10.3,6.2h-0.2V2.3h-7.8v45.1h7.6v-5.7h0.2C202.5,45.6,206.2,47.9,211.1,47.9L211.1,47.9z M208.7,20.1
	c5,0,8.1,4.2,8.1,10.7c0,6.6-3.1,10.7-8.1,10.7c-4.8,0-8.2-4.2-8.2-10.7C200.5,24.4,203.9,20.1,208.7,20.1L208.7,20.1z M243.9,48
	c9.7,0,16-6.5,16-17.2c0-10.7-6.4-17.2-16-17.2s-16,6.6-16,17.2C227.8,41.6,234.1,48,243.9,48L243.9,48z M243.9,41.9
	c-4.9,0-8.1-4-8.1-11.1c0-7,3.2-11.1,8.1-11.1c4.9,0,8.1,4,8.1,11.1C252,37.9,248.8,41.9,243.9,41.9L243.9,41.9z M264.3,47.4h7.8
	V28.2c0-4.8,2.8-8,7.3-8c4.4,0,6.6,2.6,6.6,7.3v19.8h7.8V26c0-7.7-4.2-12.3-11.5-12.3c-5.1,0-8.6,2.4-10.4,6.3h-0.2v-5.7h-7.5V47.4z
	 M299.6,47.4h7.8V14.2h-7.8V47.4z M303.5,9.2c2.3,0,4.2-1.9,4.2-4.2c0-2.3-1.9-4.2-4.2-4.2c-2.3,0-4.2,1.9-4.2,4.2
	C299.2,7.4,301.1,9.3,303.5,9.2C303.5,9.2,303.5,9.2,303.5,9.2L303.5,9.2z M315.5,6.5v7.8h-4.8v6h4.8v18.3c0,6.4,2.8,9,10,9
	c1.4,0,2.7-0.1,4-0.3v-5.9c-0.7,0.1-1.5,0.2-2.2,0.2c-2.8,0-4-1.2-4-4V20.2h6.2v-6h-6.2V6.5H315.5z M348.3,48c9.7,0,16-6.5,16-17.2
	c0-10.7-6.4-17.2-16-17.2s-16,6.6-16,17.2C332.3,41.6,338.6,48,348.3,48L348.3,48z M348.3,41.9c-4.9,0-8.1-4-8.1-11.1
	c0-7,3.2-11.1,8.1-11.1c4.9,0,8.1,4,8.1,11.1C356.4,37.9,353.2,41.9,348.3,41.9L348.3,41.9z M393.4,47.9c4.8,0,8.7-2.5,10.5-6.2h0.1
	v5.7h7.6V2.3h-7.8v17.5h-0.2c-1.8-3.7-5.5-6.1-10.2-6.1c-8.3,0-13.8,6.6-13.8,17.1C379.6,41.3,385,47.9,393.4,47.9z M395.7,20.1
	c4.9,0,8.1,4.2,8.1,10.7c0,6.6-3.2,10.7-8.1,10.7c-5,0-8.1-4.1-8.1-10.7C387.6,24.2,390.7,20.1,395.7,20.1z M431.8,19.6
	c4.5,0,7.5,3.3,7.6,8H424C424.3,22.9,427.5,19.6,431.8,19.6z M439.5,37.5c-0.8,2.8-3.6,4.6-7.2,4.6c-5.1,0-8.3-3.6-8.3-8.9v-0.5
	h23.2v-2.5c0-10.1-5.9-16.6-15.3-16.6c-9.6,0-15.6,6.9-15.6,17.4c0,10.6,6,17.1,15.9,17.1c7.8,0,13.7-4.3,14.7-10.6H439.5z
	 M465.9,6.5v7.8h-4.8v6h4.8v18.3c0,6.4,2.8,9,10,9c1.4,0,2.7-0.1,4-0.3v-5.9c-0.7,0.1-1.5,0.2-2.2,0.2c-2.8,0-4-1.2-4-4V20.2h6.2v-6
	h-6.2V6.5H465.9z M498.7,48c9.7,0,16-6.5,16-17.2c0-10.7-6.4-17.2-16-17.2s-16,6.6-16,17.2C482.6,41.6,488.9,48,498.7,48z
	 M498.7,41.9c-4.9,0-8.1-4-8.1-11.1c0-7,3.2-11.1,8.1-11.1c4.9,0,8.1,4,8.1,11.1C506.8,37.9,503.6,41.9,498.7,41.9z M531.5,47.9
	c4.8,0,8.7-2.5,10.5-6.2h0.1v5.7h7.6V2.3h-7.8v17.5h-0.2c-1.8-3.7-5.5-6.1-10.2-6.1c-8.3,0-13.8,6.6-13.8,17.1
	C517.7,41.3,523.2,47.9,531.5,47.9z M533.8,20.1c4.9,0,8.1,4.2,8.1,10.7c0,6.6-3.2,10.7-8.1,10.7c-5,0-8.1-4.1-8.1-10.7
	C525.7,24.2,528.8,20.1,533.8,20.1z M570.3,48c9.7,0,16-6.5,16-17.2c0-10.7-6.4-17.2-16-17.2s-16,6.6-16,17.2
	C554.3,41.6,560.6,48,570.3,48z M570.3,41.9c-4.9,0-8.1-4-8.1-11.1c0-7,3.2-11.1,8.1-11.1c4.9,0,8.1,4,8.1,11.1
	C578.4,37.9,575.3,41.9,570.3,41.9z M590.2,23.7c0,4.9,3.2,8,9.5,9.4l5.5,1.2c3.5,0.8,4.7,1.9,4.7,3.9c0,2.5-2.3,4-6.1,4
	c-3.9,0-6.2-1.6-6.8-4.8h-7.7c0.6,6.4,5.8,10.5,14.4,10.5c8.1,0,13.9-4.2,13.9-10.5c0-4.8-2.7-7.5-9.5-9l-5.5-1.2
	c-3.5-0.8-4.8-2.1-4.8-4c0-2.4,2.3-4.1,5.7-4.1c3.6,0,5.8,1.9,6.1,4.9h7.2c-0.2-6.3-5.3-10.6-13.4-10.6
	C595.5,13.6,590.2,17.7,590.2,23.7L590.2,23.7z M634.5,47.4h7.8V2.3h-7.8V47.4z M663,48c9.7,0,16-6.5,16-17.2
	c0-10.7-6.4-17.2-16-17.2s-16,6.6-16,17.2C646.9,41.6,653.2,48,663,48z M663,41.9c-4.9,0-8.1-4-8.1-11.1c0-7,3.2-11.1,8.1-11.1
	c4.9,0,8.1,4,8.1,11.1C671.1,37.9,667.9,41.9,663,41.9z M682.8,23.7c0,4.9,3.2,8,9.5,9.4l5.5,1.2c3.5,0.8,4.7,1.9,4.7,3.9
	c0,2.5-2.3,4-6.1,4c-3.9,0-6.2-1.6-6.8-4.8H682c0.6,6.4,5.8,10.5,14.4,10.5c8.1,0,13.9-4.2,13.9-10.5c0-4.8-2.7-7.5-9.5-9l-5.5-1.2
	c-3.5-0.8-4.8-2.1-4.8-4c0-2.4,2.3-4.1,5.7-4.1c3.6,0,5.8,1.9,6.1,4.9h7.2c-0.2-6.3-5.3-10.6-13.4-10.6
	C688.1,13.6,682.8,17.7,682.8,23.7z M739.3,47.9c4.8,0,8.7-2.5,10.5-6.2h0.1v5.7h7.6V2.3h-7.8v17.5h-0.2c-1.8-3.7-5.5-6.1-10.2-6.1
	c-8.3,0-13.8,6.6-13.8,17.1C725.5,41.3,730.9,47.9,739.3,47.9L739.3,47.9z M741.6,20.1c4.9,0,8.1,4.2,8.1,10.7
	c0,6.6-3.2,10.7-8.1,10.7c-5,0-8.1-4.1-8.1-10.7C733.5,24.2,736.6,20.1,741.6,20.1L741.6,20.1z M763.6,47.4h7.8V14.2h-7.8V47.4z
	 M770.2,9.7l7.3-9.7h-7.4l-5.4,9.7H770.2z M789.4,42c-3.4,0-5.6-1.7-5.6-4.4c0-2.6,2.2-4.3,5.9-4.6l7.7-0.5v2.5
	C797.4,39.1,793.9,42,789.4,42L789.4,42z M787.1,47.9c4.2,0,8.4-2.2,10.3-5.8h0.2v5.3h7.5V24.6c0-6.7-5.3-11-13.6-11
	c-8.4,0-13.7,4.4-14.1,10.6h7.2c0.5-2.8,2.8-4.5,6.5-4.5c3.8,0,6.2,2,6.2,5.5v2.4l-8.8,0.5c-8.1,0.5-12.6,4-12.6,9.9
	C776,43.9,780.7,47.9,787.1,47.9L787.1,47.9z M810.2,23.7c0,4.9,3.2,8,9.5,9.4l5.5,1.2c3.5,0.8,4.7,1.9,4.7,3.9c0,2.5-2.3,4-6.1,4
	c-3.9,0-6.2-1.6-6.8-4.8h-7.7c0.6,6.4,5.8,10.5,14.4,10.5c8.1,0,13.9-4.2,13.9-10.5c0-4.8-2.7-7.5-9.5-9l-5.5-1.2
	c-3.5-0.8-4.8-2.1-4.8-4c0-2.4,2.3-4.1,5.7-4.1c3.6,0,5.8,1.9,6.1,4.9h7.2c-0.2-6.3-5.3-10.6-13.4-10.6
	C815.4,13.6,810.2,17.7,810.2,23.7L810.2,23.7z M847.4,47.7c2.5,0,4.5-2,4.5-4.5s-2-4.5-4.5-4.5s-4.5,2-4.5,4.5
	c0,2.5,1.9,4.5,4.4,4.5C847.3,47.7,847.4,47.7,847.4,47.7L847.4,47.7z"/>
</svg>
