<?xml version="1.0" encoding="utf-8"?>
<!-- Generator: Adobe Illustrator 21.1.0, SVG Export Plug-In . SVG Version: 6.00 Build 0)  -->
<svg version="1.1" id="Layer_1" xmlns="http://www.w3.org/2000/svg" xmlns:xlink="http://www.w3.org/1999/xlink" x="0px" y="0px"
	 viewBox="0 0 120 16" style="enable-background:new 0 0 120 16;" xml:space="preserve">
<style type="text/css">
	.st0{fill:#666666;}
</style>
<path id="_50_S3_Sub_3_medium_1x.svg" class="st0" d="M15.9,14.8V0h-3.1L8.3,11.3H8.2L3.7,0H0.6v14.8H3V4.3H3l4.3,10.5h1.8l4.3-10.5
	h0.1v10.5H15.9L15.9,14.8z M23.3,15c3.2,0,5.3-2.1,5.3-5.6c0-3.5-2.1-5.7-5.3-5.7S18,5.9,18,9.4C18,12.9,20.1,15,23.3,15z M23.3,13
	c-1.6,0-2.7-1.3-2.7-3.6c0-2.3,1.1-3.6,2.7-3.6c1.6,0,2.7,1.3,2.7,3.6C25.9,11.7,24.9,13,23.3,13z M34.4,15c1.4,0.1,2.8-0.7,3.4-2h0
	v1.9h2.5V0h-2.6v5.8h-0.1c-0.6-1.3-1.9-2.1-3.4-2c-2.7,0-4.5,2.2-4.5,5.6C29.9,12.8,31.7,15,34.4,15z M35.2,5.8
	c1.6,0,2.7,1.4,2.7,3.5c0,2.2-1.1,3.5-2.7,3.5c-1.7,0-2.7-1.4-2.7-3.5C32.6,7.2,33.6,5.8,35.2,5.8z M47.6,15c3.2,0,5.3-2.1,5.3-5.6
	c0-3.5-2.1-5.7-5.3-5.7s-5.3,2.2-5.3,5.7C42.3,12.9,44.4,15,47.6,15L47.6,15z M47.6,13c-1.6,0-2.7-1.3-2.7-3.6
	c0-2.3,1.1-3.6,2.7-3.6c1.6,0,2.7,1.3,2.7,3.6C50.3,11.7,49.2,13,47.6,13L47.6,13z M62,14.8V4.4h0.1l7.3,10.4h2.3V0h-2.5v10.4h-0.1
	L61.7,0h-2.3v14.8H62L62,14.8z M79.1,15c3.2,0,5.3-2.1,5.3-5.6c0-3.5-2.1-5.7-5.3-5.7s-5.3,2.2-5.3,5.7C73.8,12.9,75.9,15,79.1,15
	L79.1,15z M79.1,13c-1.6,0-2.7-1.3-2.7-3.6c0-2.3,1.1-3.6,2.7-3.6c1.6,0,2.7,1.3,2.7,3.6C81.8,11.7,80.7,13,79.1,13L79.1,13z
	 M95.8,7.8c-0.2-2.3-1.9-4.1-4.8-4.1c-3.2,0-5.2,2.2-5.2,5.7c0,3.5,2,5.6,5.2,5.6c2.7,0,4.6-1.6,4.8-4h-2.4c-0.1,1.2-1.2,2-2.4,2
	c-1.6,0-2.7-1.3-2.7-3.6c0-2.2,1-3.6,2.6-3.6c1.2-0.1,2.2,0.8,2.4,2L95.8,7.8L95.8,7.8z M97.6,14.8h2.6V8.6c0-1.6,0.9-2.7,2.5-2.7
	c1.5,0,2.2,0.9,2.2,2.4v6.5h2.6v-7c0-2.5-1.4-4.1-3.8-4.1c-1.7,0-2.8,0.8-3.4,2.1h0V0h-2.5L97.6,14.8L97.6,14.8z M114.4,5.7
	c1.5,0,2.5,1.1,2.5,2.6h-5.1C111.9,6.8,113,5.7,114.4,5.7L114.4,5.7z M116.9,11.5c-0.3,0.9-1.2,1.5-2.4,1.5c-1.7,0-2.7-1.2-2.7-2.9
	V10h7.6V9.1c0-3.3-1.9-5.4-5-5.4c-3.1,0-5.1,2.3-5.1,5.7c0,3.5,2,5.6,5.2,5.6c2.6,0,4.5-1.4,4.8-3.5L116.9,11.5L116.9,11.5z"/>
</svg>
