<?xml version="1.0" encoding="utf-8"?>
<!-- Generator: Adobe Illustrator 21.1.0, SVG Export Plug-In . SVG Version: 6.00 Build 0)  -->
<svg version="1.1" id="Layer_1" xmlns="http://www.w3.org/2000/svg" xmlns:xlink="http://www.w3.org/1999/xlink" x="0px" y="0px"
	 viewBox="0 0 160 24" style="enable-background:new 0 0 160 24;" xml:space="preserve">
<style type="text/css">
	.st0{fill:#666666;}
</style>
<path id="_50_S3_Sub_3_large_1x.svg" class="st0" d="M21.6,19.7V0h-4.1l-6,15.1h-0.1L5.4,0H1.3v19.7h3.2v-14h0.1l5.7,14h2.4l5.7-14
	h0.1v14H21.6z M31.4,20c4.2,0,7-2.8,7-7.5c0-4.7-2.8-7.5-7-7.5s-7,2.9-7,7.5C24.4,17.2,27.1,20,31.4,20z M31.4,17.3
	c-2.2,0-3.6-1.8-3.6-4.8c0-3.1,1.4-4.8,3.6-4.8c2.2,0,3.6,1.8,3.6,4.8C34.9,15.6,33.6,17.3,31.4,17.3z M46.2,20
	c1.9,0.1,3.7-1,4.6-2.7h0.1v2.5h3.3V0h-3.4v7.7h-0.1C49.8,6,48.1,4.9,46.2,5c-3.7,0-6,2.9-6,7.5C40.2,17.1,42.6,20,46.2,20L46.2,20z
	 M47.2,7.8c2.2,0,3.6,1.8,3.6,4.7c0,2.9-1.4,4.7-3.6,4.7c-2.2,0-3.6-1.8-3.6-4.7C43.7,9.6,45,7.8,47.2,7.8L47.2,7.8z M63.6,20
	c4.2,0,7-2.8,7-7.5c0-4.7-2.8-7.5-7-7.5s-7,2.9-7,7.5C56.6,17.2,59.4,20,63.6,20L63.6,20z M63.6,17.3c-2.2,0-3.6-1.8-3.6-4.8
	c0-3.1,1.4-4.8,3.6-4.8c2.2,0,3.6,1.8,3.6,4.8C67.2,15.6,65.8,17.3,63.6,17.3L63.6,17.3z M82.6,19.7V5.9h0.1l9.8,13.8h3V0h-3.4v13.8
	H92L82.2,0h-3.1v19.7H82.6z M105.3,20c4.3,0,7-2.8,7-7.5c0-4.7-2.8-7.5-7-7.5s-7,2.9-7,7.5C98.3,17.2,101,20,105.3,20z M105.3,17.3
	c-2.2,0-3.6-1.8-3.6-4.8c0-3.1,1.4-4.8,3.6-4.8c2.2,0,3.6,1.8,3.6,4.8C108.8,15.6,107.5,17.3,105.3,17.3z M127.5,10.4
	c-0.2-3.1-2.6-5.5-6.4-5.5c-4.2,0-6.9,2.9-6.9,7.5c0,4.7,2.7,7.5,7,7.5c3.6,0,6.1-2.1,6.4-5.4h-3.2c-0.2,1.6-1.6,2.7-3.2,2.6
	c-2.2,0-3.6-1.8-3.6-4.8c0-3,1.4-4.8,3.5-4.8c1.6-0.1,3,1.1,3.2,2.7H127.5z M129.8,19.7h3.4v-8.3c0-2.1,1.2-3.6,3.3-3.6
	c2,0,3,1.2,3,3.2v8.6h3.4v-9.3c0-3.3-1.9-5.4-5.1-5.4c-2.2,0-3.8,1-4.6,2.8h-0.1V0h-3.4L129.8,19.7L129.8,19.7z M152,7.6
	c2,0,3.3,1.4,3.3,3.5h-6.8C148.7,9,150.1,7.6,152,7.6z M155.4,15.4c-0.4,1.2-1.6,2-3.2,2c-2.2,0-3.7-1.6-3.7-3.9v-0.2h10.1v-1.1
	c0-4.4-2.6-7.3-6.7-7.3c-4.2,0-6.8,3-6.8,7.6c0,4.6,2.6,7.5,7,7.5c3.4,0,6-1.9,6.4-4.6H155.4L155.4,15.4z"/>
</svg>
