<?xml version="1.0" encoding="utf-8"?>
<!-- Generator: Adobe Illustrator 21.1.0, SVG Export Plug-In . SVG Version: 6.00 Build 0)  -->
<svg version="1.1" id="Layer_1" xmlns="http://www.w3.org/2000/svg" xmlns:xlink="http://www.w3.org/1999/xlink" x="0px" y="0px"
	 viewBox="0 0 88 16" style="enable-background:new 0 0 88 16;" xml:space="preserve">
<style type="text/css">
	.st0{fill:#666666;}
</style>
<path id="_50_S3_Sub_2_medium_1x.svg" class="st0" d="M9.2,15.5l5.1-14.8h-2.8l-3.8,12H7.7L4,0.8H1.1l5.1,14.8H9.2L9.2,15.5z
	 M15.8,15.5h2.6V4.7h-2.6L15.8,15.5L15.8,15.5z M18,3.2L20.4,0h-2.4l-1.8,3.2H18L18,3.2z M24.8,15.7c1.4,0.1,2.8-0.7,3.4-2h0v1.9
	h2.5V0.8h-2.6v5.7h-0.1c-0.6-1.3-1.9-2.1-3.4-2c-2.7,0-4.5,2.2-4.5,5.6C20.3,13.6,22,15.7,24.8,15.7L24.8,15.7z M25.5,6.6
	c1.6,0,2.7,1.4,2.7,3.5c0,2.2-1.1,3.5-2.7,3.5c-1.6,0-2.7-1.4-2.7-3.5C22.9,8,23.9,6.6,25.5,6.6L25.5,6.6z M37.8,6.4
	c1.5,0,2.4,1.1,2.5,2.6h-5.1C35.3,7.5,36.4,6.4,37.8,6.4L37.8,6.4z M40.3,12.3c-0.3,0.9-1.2,1.5-2.4,1.5c-1.7,0-2.7-1.2-2.7-2.9
	v-0.2h7.6V9.9c0-3.3-1.9-5.4-5-5.4c-3.1,0-5.1,2.3-5.1,5.7c0,3.5,2,5.6,5.2,5.6c2.6,0,4.5-1.4,4.8-3.5L40.3,12.3L40.3,12.3z
	 M49.5,15.8c3.2,0,5.3-2.1,5.3-5.6c0-3.5-2.1-5.7-5.3-5.7s-5.3,2.2-5.3,5.7C44.2,13.6,46.3,15.8,49.5,15.8L49.5,15.8z M49.5,13.7
	c-1.6,0-2.7-1.3-2.7-3.6c0-2.3,1.1-3.6,2.7-3.6c1.6,0,2.7,1.3,2.7,3.6C52.2,12.4,51.1,13.7,49.5,13.7L49.5,13.7z M68.2,15.5h2.5
	v-2.8h2v-2.2h-2V0.8h-3.8c-3.2,4.7-4.9,7.3-6.1,9.7v2.3h7.4V15.5z M63.2,10.5c1.5-2.7,3.2-5.3,5-7.8h0v7.9L63.2,10.5L63.2,10.5
	L63.2,10.5z M77.5,15.5v-4.8l1.5-1.7l4.8,6.5H87l-6.1-8.2l5.7-6.6h-3l-5.9,6.9h-0.1V0.8h-2.6v14.8H77.5L77.5,15.5z"/>
</svg>
