<?xml version="1.0" encoding="utf-8"?>
<!-- Generator: Adobe Illustrator 21.1.0, SVG Export Plug-In . SVG Version: 6.00 Build 0)  -->
<svg version="1.1" id="Layer_1" xmlns="http://www.w3.org/2000/svg" xmlns:xlink="http://www.w3.org/1999/xlink" x="0px" y="0px"
	 viewBox="0 0 356 84" style="enable-background:new 0 0 356 84;" xml:space="preserve">
<style type="text/css">
	.st0{fill:#111111;}
</style>
<path id="_50_S3_Title_1_medium_1x.svg" class="st0" d="M14.5,29.6V5.7h8.4V1.4H1.1v4.3h8.4v23.9H14.5z M41,8.9h-4.9v12
	c0,3-1.7,5-4.6,5c-2.7,0-4.2-1.6-4.2-4.6V8.9h-4.9v13.4c0,4.8,2.9,7.7,7.3,7.7c3.1,0,5.2-1.4,6.3-4h0.1v3.6H41L41,8.9L41,8.9z
	 M44.6,14.8c0,3.1,2,5,6,5.9l3.4,0.8c2.2,0.5,2.9,1.2,2.9,2.4c0,1.5-1.5,2.5-3.8,2.5c-2.5,0-3.9-1-4.2-3h-4.8c0.4,4,3.6,6.6,9,6.6
	c5.1,0,8.7-2.6,8.7-6.5c0-3-1.7-4.7-6-5.6l-3.4-0.8c-2.2-0.5-3-1.3-3-2.5c0-1.5,1.4-2.5,3.6-2.5c2.2,0,3.6,1.2,3.8,3.1h4.5
	c-0.1-3.9-3.3-6.6-8.4-6.6C47.9,8.5,44.6,11.1,44.6,14.8L44.6,14.8z M74.2,29.6h4.9v-17h4.1V9H79V7.3c0-1.7,0.8-2.6,2.7-2.6
	c0.5,0,1,0,1.5,0.1V1.4c-0.9-0.1-1.7-0.2-2.6-0.2c-4.5,0-6.4,1.9-6.4,5.9V9h-2.8v3.7h2.8V29.6z M94.8,30c6.1,0,10-4,10-10.8
	c0-6.7-4-10.8-10-10.8s-10,4.1-10,10.8C84.8,26,88.7,30,94.8,30L94.8,30z M94.8,26.2c-3.1,0-5.1-2.5-5.1-6.9c0-4.4,2-6.9,5.1-6.9
	c3.1,0,5.1,2.5,5.1,6.9C99.9,23.7,97.9,26.2,94.8,26.2L94.8,26.2z M109.3,4.1v4.8h-3v3.8h3v11.4c0,4,1.8,5.6,6.2,5.6
	c0.8,0,1.7-0.1,2.5-0.2v-3.7c-0.5,0.1-0.9,0.1-1.4,0.1c-1.7,0-2.5-0.8-2.5-2.5V12.7h3.9V8.9h-3.9V4.1H109.3z M130.1,30
	c6.1,0,10-4,10-10.8c0-6.7-4-10.8-10-10.8s-10,4.1-10,10.8C120.1,26,124,30,130.1,30L130.1,30z M130.1,26.2c-3.1,0-5.1-2.5-5.1-6.9
	c0-4.4,2-6.9,5.1-6.9c3.1,0,5.1,2.5,5.1,6.9C135.2,23.7,133.2,26.2,130.1,26.2L130.1,26.2z M142.9,14.8c0,3.1,2,5,6,5.9l3.4,0.8
	c2.2,0.5,2.9,1.2,2.9,2.4c0,1.5-1.5,2.5-3.8,2.5c-2.5,0-3.9-1-4.2-3h-4.8c0.4,4,3.6,6.6,9,6.6c5.1,0,8.7-2.6,8.7-6.5
	c0-3-1.7-4.7-6-5.6l-3.4-0.8c-2.2-0.5-3-1.3-3-2.5c0-1.5,1.4-2.5,3.6-2.5c2.2,0,3.6,1.2,3.8,3.1h4.5c-0.1-3.9-3.3-6.6-8.4-6.6
	C146.2,8.5,142.9,11.1,142.9,14.8L142.9,14.8z M171.1,29.6h4.9V16.9c0-2.5,1.6-4.3,4-4.3c2.3,0,3.7,1.4,3.7,3.7v13.3h4.7V16.8
	c0-2.5,1.6-4.2,3.9-4.2c2.4,0,3.7,1.4,3.7,4v13h4.9V15.4c0-4.1-2.7-6.9-6.8-6.9c-3,0-5.5,1.6-6.4,4.2h-0.1c-0.8-2.7-2.9-4.2-5.8-4.2
	c-2.6-0.1-5,1.5-5.9,4h-0.1V8.9h-4.7L171.1,29.6L171.1,29.6z M213.7,12.2c2.8,0,4.7,2.1,4.8,5h-9.7C209,14.3,211,12.2,213.7,12.2
	L213.7,12.2z M218.5,23.4c-0.5,1.7-2.2,2.9-4.5,2.9c-3.2,0-5.2-2.2-5.2-5.6v-0.3h14.5v-1.6c0-6.3-3.7-10.4-9.5-10.4
	c-6,0-9.8,4.3-9.8,10.9c0,6.6,3.8,10.7,10,10.7c4.9,0,8.5-2.7,9.2-6.6H218.5L218.5,23.4z M231.4,8.9h-4.9v21.6
	c0,1.9-0.8,2.6-2.8,2.6c-0.1,0-0.5,0-0.6,0v3.7c0.2,0,0.9,0,1.2,0c4.7,0,7.1-2.1,7.1-6.3V8.9L231.4,8.9z M228.9,5.8
	c1.5,0,2.6-1.2,2.6-2.7c0-1.5-1.2-2.6-2.7-2.6c-1.5,0-2.6,1.2-2.6,2.6C226.2,4.6,227.4,5.8,228.9,5.8C228.9,5.8,228.9,5.8,228.9,5.8
	L228.9,5.8z M244.6,30c6.1,0,10-4,10-10.8c0-6.7-4-10.8-10-10.8s-10,4.1-10,10.8C234.6,26,238.5,30,244.6,30L244.6,30z M244.6,26.2
	c-3.1,0-5.1-2.5-5.1-6.9c0-4.4,2-6.9,5.1-6.9c3.1,0,5.1,2.5,5.1,6.9C249.7,23.7,247.7,26.2,244.6,26.2L244.6,26.2z M257.7,29.6h4.9
	V17.6c0-2.9,1.7-4.7,4.4-4.7c0.7,0,1.3,0.1,2,0.3V8.8c-0.5-0.1-1-0.2-1.5-0.2c-2.4,0-4.3,1.4-5,4h-0.1V8.9h-4.7L257.7,29.6
	L257.7,29.6z M278.6,26.3c-2.1,0-3.5-1.1-3.5-2.8c0-1.6,1.3-2.7,3.7-2.8l4.8-0.3v1.6C283.6,24.4,281.4,26.3,278.6,26.3L278.6,26.3z
	 M277.1,29.9c2.7,0,5.3-1.4,6.4-3.6h0.1v3.3h4.7V15.3c0-4.2-3.3-6.9-8.5-6.9c-5.3,0-8.6,2.8-8.8,6.6h4.5c0.3-1.7,1.8-2.8,4.1-2.8
	c2.4,0,3.9,1.2,3.9,3.4v1.5l-5.5,0.3c-5,0.3-7.9,2.5-7.9,6.2C270.2,27.4,273.1,29.9,277.1,29.9L277.1,29.9z M292.3,29.6h4.9V17.6
	c0-2.9,1.7-4.7,4.4-4.7c0.7,0,1.3,0.1,2,0.3V8.8c-0.5-0.1-1-0.2-1.5-0.2c-2.4,0-4.3,1.4-5,4h-0.1V8.9h-4.7L292.3,29.6L292.3,29.6z
	 M313.1,26.3c-2.1,0-3.5-1.1-3.5-2.8c0-1.6,1.4-2.7,3.7-2.8l4.8-0.3v1.6C318.1,24.4,315.9,26.3,313.1,26.3L313.1,26.3z M311.7,29.9
	c2.7,0,5.2-1.4,6.4-3.6h0.1v3.3h4.7V15.3c0-4.2-3.3-6.9-8.5-6.9c-5.3,0-8.6,2.8-8.8,6.6h4.5c0.3-1.7,1.8-2.8,4.1-2.8
	c2.4,0,3.9,1.2,3.9,3.4v1.5l-5.5,0.3c-5,0.3-7.9,2.5-7.9,6.2C304.8,27.4,307.7,29.9,311.7,29.9L311.7,29.9z M316,6l4.6-6h-4.6
	l-3.4,6H316z M326.8,29.6h4.9v-12c0-3,1.8-5,4.6-5c2.8,0,4.1,1.6,4.1,4.6v12.4h4.9V16.2c0-4.8-2.6-7.7-7.2-7.7
	c-3.2,0-5.4,1.5-6.5,3.9h-0.1V8.9h-4.7L326.8,29.6L326.8,29.6z M352.5,29.8c1.6,0,2.8-1.3,2.8-2.8c0-1.6-1.3-2.8-2.8-2.8
	s-2.8,1.3-2.8,2.8l0,0C349.7,28.5,350.9,29.8,352.5,29.8C352.5,29.8,352.5,29.8,352.5,29.8L352.5,29.8z M21,73.6h5.3l-10-28.2h-5.7
	l-10,28.2h5.2l2.4-7.3h10.4L21,73.6z M13.4,50.4h0.1l3.9,12h-8L13.4,50.4z M28.9,73.6h4.9V60.9c0-2.5,1.6-4.3,4-4.3
	c2.3,0,3.7,1.4,3.7,3.7v13.3h4.7V60.8c0-2.5,1.6-4.2,3.9-4.2c2.4,0,3.7,1.4,3.7,4v13h4.9V59.4c0-4.1-2.7-6.9-6.8-6.9
	c-3,0-5.4,1.6-6.4,4.2h-0.1c-0.8-2.7-2.9-4.2-5.8-4.2c-2.6-0.1-5,1.5-5.9,4h-0.1v-3.6h-4.7L28.9,73.6L28.9,73.6z M73.9,52.6
	c-2.8-0.1-5.3,1.4-6.5,3.9h-0.1v-3.6h-4.7v27.5h4.9V70.2h0.1c1.1,2.3,3.5,3.8,6.5,3.8c5.2,0,8.5-4.1,8.5-10.7
	C82.5,56.6,79.1,52.6,73.9,52.6L73.9,52.6z M72.4,70c-3,0-5-2.6-5.1-6.7c0-4,2-6.7,5.1-6.7c3.1,0,5.1,2.6,5.1,6.7
	C77.5,67.4,75.5,70,72.4,70L72.4,70z M85.7,73.6h4.9V45.4h-4.9V73.6z M94.9,73.6h4.9V52.9h-4.9V73.6z M97.3,49.8
	c1.5,0,2.6-1.2,2.6-2.7c0-1.5-1.2-2.6-2.7-2.6c-1.5,0-2.6,1.2-2.6,2.6C94.6,48.6,95.8,49.8,97.3,49.8C97.3,49.8,97.3,49.8,97.3,49.8
	L97.3,49.8z M111.4,70.3c-2.1,0-3.5-1.1-3.5-2.8c0-1.6,1.4-2.7,3.7-2.8l4.8-0.3v1.6C116.3,68.4,114.1,70.3,111.4,70.3L111.4,70.3z
	 M109.9,73.9c2.7,0,5.3-1.4,6.4-3.6h0.1v3.3h4.7V59.3c0-4.2-3.3-6.9-8.5-6.9c-5.3,0-8.6,2.8-8.8,6.6h4.5c0.3-1.7,1.8-2.8,4.1-2.8
	c2.4,0,3.9,1.2,3.9,3.4v1.5l-5.5,0.3c-5,0.3-7.9,2.5-7.9,6.2C103,71.4,105.9,73.9,109.9,73.9L109.9,73.9z M125,73.6h4.9V60.9
	c0-2.5,1.6-4.3,4-4.3c2.3,0,3.7,1.4,3.7,3.7v13.3h4.7V60.8c0-2.5,1.6-4.2,3.9-4.2c2.4,0,3.7,1.4,3.7,4v13h4.9V59.4
	c0-4.1-2.7-6.9-6.8-6.9c-3,0-5.5,1.6-6.4,4.2h-0.1c-0.8-2.7-2.9-4.2-5.8-4.2c-2.6-0.1-5,1.5-5.9,4h-0.1v-3.6H125L125,73.6L125,73.6z
	 M167.6,56.2c2.8,0,4.7,2.1,4.8,5h-9.7C162.9,58.3,164.9,56.2,167.6,56.2L167.6,56.2z M172.4,67.4c-0.5,1.7-2.2,2.9-4.5,2.9
	c-3.2,0-5.2-2.2-5.2-5.6v-0.3h14.5v-1.6c0-6.3-3.7-10.4-9.5-10.4c-6,0-9.8,4.3-9.8,10.9c0,6.6,3.8,10.7,10,10.7
	c4.9,0,8.5-2.7,9.2-6.6H172.4L172.4,67.4z M180.3,73.6h4.9v-12c0-3,1.8-5,4.6-5c2.8,0,4.1,1.6,4.1,4.6v12.4h4.9V60.2
	c0-4.8-2.6-7.7-7.2-7.7c-3.2,0-5.4,1.5-6.5,3.9h-0.1v-3.6h-4.7L180.3,73.6L180.3,73.6z M203.9,48.1v4.8h-3v3.8h3v11.4
	c0,4,1.8,5.6,6.2,5.6c0.8,0,1.7-0.1,2.5-0.2v-3.7c-0.5,0.1-0.9,0.1-1.4,0.1c-1.7,0-2.5-0.8-2.5-2.5V56.7h3.9v-3.8h-3.9v-4.8H203.9
	L203.9,48.1z M224.5,56.2c2.8,0,4.7,2.1,4.8,5h-9.7C219.8,58.3,221.8,56.2,224.5,56.2L224.5,56.2z M229.3,67.4
	c-0.5,1.7-2.2,2.9-4.5,2.9c-3.2,0-5.2-2.2-5.2-5.6v-0.3h14.5v-1.6c0-6.3-3.7-10.4-9.5-10.4c-6,0-9.8,4.3-9.8,10.9
	c0,6.6,3.8,10.7,10,10.7c4.9,0,8.5-2.7,9.2-6.6H229.3L229.3,67.4z M240.6,73.8c1.6,0,2.8-1.3,2.8-2.8s-1.3-2.8-2.8-2.8
	c-1.6,0-2.8,1.3-2.8,2.8C237.8,72.5,239,73.8,240.6,73.8C240.5,73.8,240.6,73.8,240.6,73.8L240.6,73.8z"/>
</svg>
