<?xml version="1.0" encoding="utf-8"?>
<!-- Generator: Adobe Illustrator 21.1.0, SVG Export Plug-In . SVG Version: 6.00 Build 0)  -->
<svg version="1.1" id="Layer_1" xmlns="http://www.w3.org/2000/svg" xmlns:xlink="http://www.w3.org/1999/xlink" x="0px" y="0px"
	 viewBox="0 0 168 60" style="enable-background:new 0 0 168 60;" xml:space="preserve">
<style type="text/css">
	.st0{fill:#111111;}
</style>
<path id="_50_S3_Title_3_small_1x.svg" class="st0" d="M16.3,19.1H6V0H2v22.5h14.3V19.1z M24.9,19.9c-1.7,0-2.8-0.9-2.8-2.2
	c0-1.3,1.1-2.2,3-2.3l3.8-0.2v1.3C28.9,18.4,27.1,19.9,24.9,19.9z M23.8,22.8c2.1,0,4.1-1.1,5.2-2.9H29v2.6h3.8V11.1
	c0-3.3-2.7-5.5-6.8-5.5c-4.2,0-6.9,2.2-7,5.3h3.6c0.2-1.4,1.4-2.3,3.3-2.3c1.9,0,3.1,1,3.1,2.7v1.2l-4.4,0.2c-4,0.2-6.3,2-6.3,5
	C18.2,20.8,20.6,22.8,23.8,22.8L23.8,22.8z M42.5,22.6h3.9V13c0-2.4,1.4-4,3.7-4c2.2,0,3.3,1.3,3.3,3.7v9.9h3.9V11.8
	c0-3.8-2.1-6.2-5.7-6.2c-2.5,0-4.3,1.2-5.2,3.2h-0.1V6h-3.7V22.6L42.5,22.6z M67.9,22.9c4.9,0,8-3.2,8-8.6c0-5.4-3.2-8.6-8-8.6
	s-8,3.3-8,8.6C59.8,19.6,63,22.9,67.9,22.9L67.9,22.9z M67.9,19.8c-2.5,0-4.1-2-4.1-5.5c0-3.5,1.6-5.5,4.1-5.5c2.5,0,4.1,2,4.1,5.5
	C71.9,17.8,70.3,19.8,67.9,19.8L67.9,19.8z M93.1,11.9c-0.3-3.5-3-6.2-7.3-6.2c-4.8,0-7.9,3.3-7.9,8.6c0,5.4,3.1,8.6,8,8.6
	c4.2,0,7-2.4,7.3-6.1h-3.7c-0.2,1.8-1.8,3.1-3.6,3c-2.5,0-4.1-2-4.1-5.5c0-3.4,1.6-5.5,4-5.5c1.8-0.1,3.4,1.3,3.6,3.1H93.1z
	 M95.7,22.6h3.9V13c0-2.4,1.4-4.1,3.8-4.1c2.2,0,3.4,1.4,3.4,3.7v9.9h3.9V11.9c0-3.8-2.1-6.2-5.8-6.2c-2.5,0-4.3,1.1-5.2,3.2h-0.1V0
	h-3.8L95.7,22.6L95.7,22.6z M121,8.7c2.2,0,3.7,1.6,3.8,4h-7.7C117.2,10.3,118.8,8.7,121,8.7L121,8.7z M124.8,17.6
	c-0.4,1.4-1.8,2.3-3.6,2.3c-2.5,0-4.2-1.8-4.2-4.4v-0.2h11.6v-1.3c0-5-2.9-8.3-7.6-8.3c-4.8,0-7.8,3.4-7.8,8.7c0,5.3,3,8.6,8,8.6
	c3.9,0,6.8-2.2,7.3-5.3L124.8,17.6L124.8,17.6z M1.3,46.7c0,2.5,1.6,4,4.8,4.7l2.8,0.6c1.7,0.4,2.3,1,2.3,2c0,1.2-1.2,2-3.1,2
	c-2,0-3.1-0.8-3.4-2.4H0.9c0.3,3.2,2.9,5.3,7.2,5.3c4.1,0,6.9-2.1,6.9-5.2c0-2.4-1.3-3.7-4.8-4.5l-2.8-0.6c-1.7-0.4-2.4-1.1-2.4-2
	c0-1.2,1.1-2,2.9-2c1.8,0,2.9,0.9,3.1,2.4h3.6c-0.1-3.1-2.7-5.3-6.7-5.3C4,41.6,1.3,43.7,1.3,46.7z M23.7,55.9
	c-1.7,0-2.8-0.9-2.8-2.2c0-1.3,1.1-2.2,3-2.3l3.8-0.2v1.3C27.7,54.4,25.9,55.9,23.7,55.9z M22.5,58.8c2.1,0,4.1-1.1,5.2-2.9h0.1v2.6
	h3.8V47.1c0-3.3-2.7-5.5-6.8-5.5c-4.2,0-6.9,2.2-7,5.3h3.6c0.2-1.4,1.4-2.3,3.3-2.3c1.9,0,3.1,1,3.1,2.7v1.2l-4.4,0.2
	c-4,0.2-6.3,2-6.3,5C17,56.8,19.3,58.8,22.5,58.8L22.5,58.8z M34.9,58.6h3.9V36h-3.9V58.6z M49.3,44.7c2.2,0,3.7,1.6,3.8,4h-7.7
	C45.6,46.3,47.2,44.7,49.3,44.7L49.3,44.7z M53.2,53.6c-0.4,1.4-1.8,2.3-3.6,2.3c-2.5,0-4.2-1.8-4.2-4.4v-0.2H57v-1.3
	c0-5-2.9-8.3-7.6-8.3c-4.8,0-7.8,3.4-7.8,8.7c0,5.3,3,8.6,8,8.6c3.9,0,6.8-2.2,7.3-5.3L53.2,53.6L53.2,53.6z M72.2,55.9
	c-1.7,0-2.8-0.9-2.8-2.2c0-1.3,1.1-2.2,3-2.3l3.8-0.2v1.3C76.1,54.4,74.4,55.9,72.2,55.9L72.2,55.9z M71,58.8c2.1,0,4.1-1.1,5.2-2.9
	h0.1v2.6H80V47.2c0-3.3-2.7-5.5-6.8-5.5c-4.2,0-6.9,2.2-7,5.3h3.6c0.2-1.4,1.4-2.3,3.3-2.3c1.9,0,3.1,1,3.1,2.7v1.2l-4.4,0.2
	c-4,0.2-6.3,2-6.3,5C65.5,56.8,67.8,58.8,71,58.8L71,58.8z M89.9,58.6h3.9V36h-3.9V58.6z M103.3,55.9c-1.7,0-2.8-0.9-2.8-2.2
	c0-1.3,1.1-2.2,3-2.3l3.8-0.2v1.3C107.2,54.4,105.5,55.9,103.3,55.9L103.3,55.9z M102.1,58.8c2.1,0,4.1-1.1,5.2-2.9h0.1v2.6h3.8
	V47.2c0-3.3-2.7-5.5-6.8-5.5c-4.2,0-6.9,2.2-7,5.3h3.6c0.2-1.4,1.4-2.3,3.3-2.3c1.9,0,3.1,1,3.1,2.7v1.2l-4.4,0.2
	c-4,0.2-6.3,2-6.3,5C96.6,56.8,98.9,58.8,102.1,58.8L102.1,58.8z M121,58.6h3.9V36H121L121,58.6L121,58.6z M143,42h-3.9v9.6
	c0,2.4-1.4,4-3.6,4c-2.2,0-3.3-1.3-3.3-3.7V42h-3.9v10.7c0,3.8,2.3,6.2,5.9,6.2c2.5,0,4.2-1.2,5.1-3.2h0.1v2.9h3.8L143,42L143,42z
	 M146,58.6h13.2v-3h-8.4v-0.1l8.2-10.9V42h-13v3h8.5v0.1L146,56.2V58.6L146,58.6z M164.9,58.7c1.2,0,2.2-1,2.2-2.2s-1-2.2-2.2-2.2
	s-2.2,1-2.2,2.2l0,0C162.6,57.7,163.6,58.7,164.9,58.7C164.8,58.7,164.8,58.7,164.9,58.7L164.9,58.7z"/>
</svg>
