<?xml version="1.0" encoding="utf-8"?>
<!-- Generator: Adobe Illustrator 21.1.0, SVG Export Plug-In . SVG Version: 6.00 Build 0)  -->
<svg version="1.1" id="Layer_1" xmlns="http://www.w3.org/2000/svg" xmlns:xlink="http://www.w3.org/1999/xlink" x="0px" y="0px"
	 viewBox="0 0 324 116" style="enable-background:new 0 0 324 116;" xml:space="preserve">
<style type="text/css">
	.st0{fill:#111111;}
</style>
<path id="_50_S3_Title_3_large_1x.svg" class="st0" d="M31.9,38.3H11.5V0H3.4v45.1h28.5L31.9,38.3L31.9,38.3z M48.5,39.7
	c-3.4,0-5.6-1.7-5.6-4.4c0-2.6,2.2-4.3,5.9-4.6l7.7-0.5v2.5C56.4,36.8,52.9,39.7,48.5,39.7L48.5,39.7z M46.1,45.6
	c4.2,0,8.4-2.2,10.3-5.8h0.2v5.3h7.5V22.3c0-6.7-5.3-11-13.6-11c-8.4,0-13.7,4.4-14.1,10.6h7.2c0.5-2.8,2.8-4.5,6.5-4.5
	c3.8,0,6.2,2,6.2,5.5v2.4l-8.8,0.5c-8.1,0.5-12.6,4-12.6,9.9C35.1,41.6,39.7,45.6,46.1,45.6L46.1,45.6z M82,45.1h7.8V25.9
	c0-4.8,2.8-8,7.3-8c4.4,0,6.6,2.6,6.6,7.3v19.8h7.8V23.7c0-7.7-4.2-12.3-11.5-12.3c-5.1,0-8.6,2.4-10.4,6.3h-0.2V12H82L82,45.1
	L82,45.1z M131.8,45.7c9.7,0,16-6.5,16-17.2c0-10.7-6.4-17.2-16-17.2s-16,6.6-16,17.2C115.8,39.3,122.1,45.7,131.8,45.7L131.8,45.7z
	 M131.8,39.6c-4.9,0-8.1-4-8.1-11.1c0-7,3.2-11.1,8.1-11.1c4.9,0,8.1,4,8.1,11.1C139.9,35.6,136.7,39.6,131.8,39.6L131.8,39.6z
	 M181.4,23.8c-0.5-7-5.9-12.5-14.7-12.5c-9.6,0-15.9,6.7-15.9,17.2c0,10.8,6.2,17.2,15.9,17.2c8.3,0,14-4.9,14.7-12.3h-7.3
	c-0.7,3.8-3.3,6-7.2,6c-4.9,0-8.1-4-8.1-10.9c0-6.8,3.2-10.9,8.1-10.9c4.2,0,6.6,2.7,7.2,6.2H181.4z M185.7,45.1h7.8v-19
	c0-4.9,2.8-8.1,7.5-8.1c4.5,0,6.8,2.8,6.8,7.4v19.8h7.8V23.7c0-7.6-4.3-12.4-11.6-12.4c-5,0-8.7,2.3-10.5,6.3h-0.2V0h-7.7
	L185.7,45.1L185.7,45.1z M235.6,17.3c4.5,0,7.5,3.3,7.6,8h-15.5C228,20.7,231.2,17.3,235.6,17.3L235.6,17.3z M243.2,35.2
	c-0.8,2.8-3.6,4.6-7.2,4.6c-5.1,0-8.3-3.6-8.3-8.9v-0.5h23.2v-2.5c0-10.1-5.9-16.6-15.3-16.6c-9.6,0-15.6,6.9-15.6,17.4
	c0,10.6,6,17.1,15.9,17.1c7.8,0,13.7-4.3,14.7-10.6H243.2z M2,89.5c0,4.9,3.2,8,9.5,9.4l5.5,1.2c3.5,0.8,4.7,1.9,4.7,3.9
	c0,2.5-2.3,4-6.1,4c-3.9,0-6.2-1.6-6.8-4.8H1.2c0.6,6.4,5.8,10.5,14.4,10.5c8.1,0,13.9-4.2,13.9-10.5c0-4.8-2.7-7.5-9.5-9l-5.5-1.2
	c-3.5-0.8-4.8-2.1-4.8-4c0-2.4,2.3-4.1,5.7-4.1c3.6,0,5.8,1.9,6.1,4.9h7.2c-0.2-6.3-5.3-10.6-13.4-10.6C7.3,79.3,2,83.4,2,89.5
	L2,89.5z M46,107.7c-3.4,0-5.6-1.7-5.6-4.4c0-2.6,2.2-4.3,5.9-4.6l7.7-0.5v2.5C53.9,104.8,50.4,107.7,46,107.7L46,107.7z
	 M43.6,113.6c4.2,0,8.4-2.2,10.3-5.8h0.2v5.3h7.5V90.3c0-6.7-5.3-11-13.6-11c-8.4,0-13.7,4.4-14.1,10.6h7.2c0.5-2.8,2.8-4.5,6.5-4.5
	c3.8,0,6.2,2,6.2,5.5v2.4l-8.8,0.5c-8.1,0.5-12.6,4-12.6,9.9C32.6,109.6,37.2,113.6,43.6,113.6L43.6,113.6z M67.5,113.1h7.8V68h-7.8
	L67.5,113.1L67.5,113.1z M95.6,85.3c4.5,0,7.5,3.3,7.6,8H87.7C88.1,88.7,91.2,85.3,95.6,85.3L95.6,85.3z M103.2,103.2
	c-0.8,2.8-3.6,4.6-7.2,4.6c-5.1,0-8.3-3.6-8.3-8.9v-0.5h23.2v-2.5c0-10.1-5.9-16.6-15.3-16.6c-9.6,0-15.6,6.9-15.6,17.4
	c0,10.6,6,17.1,15.9,17.1c7.8,0,13.7-4.3,14.7-10.6H103.2L103.2,103.2z M139.6,107.7c-3.4,0-5.6-1.7-5.6-4.4c0-2.6,2.2-4.3,5.9-4.6
	l7.7-0.5v2.5C147.5,104.8,144,107.7,139.6,107.7L139.6,107.7z M137.3,113.6c4.2,0,8.4-2.2,10.3-5.8h0.2v5.3h7.5V90.3
	c0-6.7-5.3-11-13.6-11c-8.4,0-13.7,4.4-14.1,10.6h7.2c0.5-2.8,2.8-4.5,6.5-4.5c3.8,0,6.2,2,6.2,5.5v2.4l-8.8,0.5
	c-8.1,0.5-12.6,4-12.6,9.9C126.2,109.6,130.8,113.6,137.3,113.6L137.3,113.6z M173.4,113.1h7.8V68h-7.8V113.1z M199.3,107.7
	c-3.4,0-5.6-1.7-5.6-4.4c0-2.6,2.2-4.3,5.9-4.6l7.7-0.5v2.5C207.2,104.8,203.7,107.7,199.3,107.7L199.3,107.7z M196.9,113.6
	c4.2,0,8.4-2.2,10.3-5.8h0.2v5.3h7.5V90.3c0-6.7-5.3-11-13.6-11c-8.4,0-13.7,4.4-14.1,10.6h7.2c0.5-2.8,2.8-4.5,6.5-4.5
	c3.8,0,6.2,2,6.2,5.5v2.4l-8.8,0.5c-8.1,0.5-12.6,4-12.6,9.9C185.9,109.6,190.5,113.6,196.9,113.6L196.9,113.6z M233,113.1h7.8V68
	H233V113.1z M276.2,80h-7.8v19.2c0,4.8-2.8,8-7.3,8c-4.4,0-6.7-2.6-6.7-7.3V80h-7.8v21.4c0,7.7,4.6,12.3,11.8,12.3
	c5,0,8.4-2.3,10.1-6.3h0.2v5.8h7.5V80z M281.3,113.1h26.4V107H291v-0.2l16.5-21.8V80h-26V86h17v0.1l-17.2,22.2V113.1z M318.3,113.4
	c2.5,0,4.5-2,4.5-4.5s-2-4.5-4.5-4.5s-4.5,2-4.5,4.5l0,0c0,2.5,1.9,4.5,4.4,4.5C318.2,113.4,318.3,113.4,318.3,113.4L318.3,113.4z"
	/>
</svg>
