<?xml version="1.0" encoding="utf-8"?>
<!-- Generator: Adobe Illustrator 21.1.0, SVG Export Plug-In . SVG Version: 6.00 Build 0)  -->
<svg version="1.1" id="Layer_1" xmlns="http://www.w3.org/2000/svg" xmlns:xlink="http://www.w3.org/1999/xlink" x="0px" y="0px"
	 viewBox="0 0 188 64" style="enable-background:new 0 0 188 64;" xml:space="preserve">
<style type="text/css">
	.st0{fill:#111111;}
</style>
<path id="_50_S3_Title_2_small_1x.svg" class="st0" d="M1.9,1.2v22.5h4v-7.5h4.6c4.6,0,7.8-3,7.8-7.5s-3.1-7.5-7.6-7.5H1.9z
	 M5.9,4.4h3.7c2.9,0,4.6,1.5,4.6,4.2c0,2.7-1.7,4.3-4.6,4.3H5.9V4.4z M25.7,21c-1.7,0-2.8-0.9-2.8-2.2c0-1.3,1.1-2.2,3-2.3l3.8-0.2
	v1.3C29.7,19.6,28,21,25.7,21z M24.6,24c2.1,0,4.1-1.1,5.2-2.9h0.1v2.6h3.7V12.3c0-3.3-2.7-5.5-6.8-5.5c-4.2,0-6.9,2.2-7,5.3h3.6
	c0.2-1.4,1.4-2.3,3.3-2.3c1.9,0,3.1,1,3.1,2.7v1.2L25.3,14c-4,0.2-6.3,2-6.3,5C19,21.9,21.4,24,24.6,24L24.6,24z M36.5,11.9
	c0,2.5,1.6,4,4.8,4.7l2.7,0.6c1.7,0.4,2.3,1,2.3,2c0,1.2-1.2,2-3.1,2c-2,0-3.1-0.8-3.4-2.4h-3.8C36.4,22,39,24,43.3,24
	c4.1,0,6.9-2.1,6.9-5.2c0-2.4-1.3-3.7-4.8-4.5l-2.7-0.6c-1.7-0.4-2.4-1.1-2.4-2c0-1.2,1.1-2,2.9-2c1.8,0,2.9,0.9,3.1,2.4h3.6
	c-0.1-3.1-2.7-5.3-6.7-5.3C39.2,6.8,36.5,8.9,36.5,11.9z M58.9,21c-1.7,0-2.8-0.9-2.8-2.2c0-1.3,1.1-2.2,3-2.3l3.8-0.2v1.3
	C62.9,19.6,61.1,21,58.9,21L58.9,21z M57.7,24c2.1,0,4.1-1.1,5.2-2.9H63v2.6h3.7V12.3c0-3.3-2.7-5.5-6.8-5.5c-4.2,0-6.9,2.2-7,5.3
	h3.6c0.2-1.4,1.4-2.3,3.3-2.3c1.9,0,3.1,1,3.1,2.7v1.2L58.5,14c-4,0.2-6.3,2-6.3,5C52.2,21.9,54.5,24,57.7,24L57.7,24z M77.6,3.3
	v3.9h-2.4v3h2.4v9.2c0,3.2,1.4,4.5,5,4.5c0.7,0,1.4,0,2-0.2v-3c-0.4,0.1-0.7,0.1-1.1,0.1c-1.4,0-2-0.6-2-2v-8.6h3.1v-3h-3.1V3.3
	H77.6L77.6,3.3z M102,7.1h-3.9v9.6c0,2.4-1.4,4-3.6,4c-2.2,0-3.3-1.3-3.3-3.7V7.1h-3.9v10.7c0,3.8,2.3,6.2,5.9,6.2
	c2.5,0,4.2-1.2,5.1-3.2h0.1v2.9h3.7V7.1z M126.5,7.1h-4.1l-3.8,13h-0.1l-3.8-13h-4.2l5.9,16.6h4.3L126.5,7.1z M128.5,23.7h3.9V7.1
	h-3.9V23.7z M131.8,4.8l3.7-4.8h-3.7L129,4.8H131.8z M141.9,24c2.2,0.1,4.2-1.1,5.2-3.1h0.1v2.8h3.8V1.2h-3.9v8.8h-0.1
	c-1-1.9-3-3.1-5.1-3.1c-4.2,0-6.9,3.3-6.9,8.6C135.1,20.7,137.8,24,141.9,24L141.9,24z M143.1,10.1c2.5,0,4.1,2.1,4.1,5.4
	c0,3.3-1.6,5.4-4.1,5.4c-2.5,0-4.1-2.1-4.1-5.4C139,12.1,140.6,10.1,143.1,10.1L143.1,10.1z M161.6,9.8c2.2,0,3.7,1.6,3.8,4h-7.7
	C157.8,11.5,159.4,9.8,161.6,9.8L161.6,9.8z M165.4,18.7c-0.4,1.4-1.8,2.3-3.6,2.3c-2.5,0-4.2-1.8-4.2-4.4v-0.2h11.6v-1.3
	c0-5-2.9-8.3-7.6-8.3c-4.8,0-7.8,3.4-7.8,8.7c0,5.3,3,8.6,8,8.6c3.9,0,6.8-2.2,7.3-5.3L165.4,18.7L165.4,18.7z M179.2,24
	c4.9,0,8-3.2,8-8.6c0-5.4-3.2-8.6-8-8.6s-8,3.3-8,8.6C171.1,20.8,174.3,24,179.2,24L179.2,24z M179.2,20.9c-2.5,0-4.1-2-4.1-5.5
	c0-3.5,1.6-5.5,4.1-5.5c2.5,0,4.1,2,4.1,5.5C183.2,18.9,181.6,20.9,179.2,20.9L179.2,20.9z M7.5,57c-1.7,0-2.8-0.9-2.8-2.2
	c0-1.3,1.1-2.2,3-2.3l3.8-0.2v1.3C11.5,55.6,9.7,57,7.5,57L7.5,57z M6.4,60c2.1,0,4.1-1.1,5.2-2.9h0.1v2.6h3.7V48.3
	c0-3.3-2.7-5.5-6.8-5.5c-4.2,0-6.9,2.2-7,5.3h3.6c0.2-1.4,1.4-2.3,3.3-2.3c1.9,0,3.1,1,3.1,2.7v1.2L7.1,50c-4,0.2-6.3,2-6.3,5
	C0.8,57.9,3.2,60,6.4,60L6.4,60z M32.5,60c4.9,0,8-3.2,8-8.6c0-5.4-3.2-8.6-8-8.6s-8,3.3-8,8.6C24.4,56.8,27.6,60,32.5,60L32.5,60z
	 M32.5,56.9c-2.5,0-4.1-2-4.1-5.5c0-3.5,1.6-5.5,4.1-5.5c2.5,0,4.1,2,4.1,5.5C36.5,54.9,34.9,56.9,32.5,56.9L32.5,56.9z M44.2,39.3
	v3.9h-2.4v3h2.4v9.2c0,3.2,1.4,4.5,5,4.5c0.7,0,1.4,0,2-0.2v-3c-0.4,0.1-0.7,0.1-1.1,0.1c-1.4,0-2-0.6-2-2v-8.6h3.1v-3h-3.1v-3.9
	L44.2,39.3L44.2,39.3z M54,59.7h3.9v-9.6c0-2.3,1.3-3.7,3.5-3.7c0.5,0,1.1,0.1,1.6,0.2V43c-0.4-0.1-0.8-0.1-1.2-0.2
	c-2,0-3.4,1.2-4,3.2h-0.1v-2.9H54V59.7z M71.8,60c4.9,0,8-3.2,8-8.6c0-5.4-3.2-8.6-8-8.6s-8,3.3-8,8.6C63.8,56.8,66.9,60,71.8,60
	L71.8,60z M71.8,56.9c-2.5,0-4.1-2-4.1-5.5c0-3.5,1.6-5.5,4.1-5.5c2.5,0,4.1,2,4.1,5.5C75.9,54.9,74.3,56.9,71.8,56.9L71.8,56.9z
	 M89,59.7h3.9v-9.6c0-2.4,1.4-4,3.7-4c2.2,0,3.3,1.3,3.3,3.7v9.9h3.9V49c0-3.8-2.1-6.2-5.7-6.2c-2.5,0-4.3,1.2-5.2,3.2h-0.1v-2.8H89
	L89,59.7L89,59.7z M107.1,59.7h3.9V43.1h-3.9V59.7L107.1,59.7z M109,40.6c1.2,0,2.1-1,2.1-2.1c0-1.2-1-2.1-2.1-2.1
	c-1.2,0-2.1,1-2.1,2.1C106.9,39.7,107.8,40.6,109,40.6C109,40.6,109,40.6,109,40.6L109,40.6z M128.9,43.1h-4.1l-3.8,13h-0.1l-3.8-13
	h-4.2l5.9,16.6h4.3L128.9,43.1z M137.5,45.8c2.2,0,3.7,1.6,3.8,4h-7.7C133.7,47.5,135.3,45.8,137.5,45.8L137.5,45.8z M141.3,54.7
	c-0.4,1.4-1.8,2.3-3.6,2.3c-2.5,0-4.2-1.8-4.2-4.4v-0.2h11.6v-1.3c0-5-2.9-8.3-7.6-8.3c-4.8,0-7.8,3.4-7.8,8.7c0,5.3,3,8.6,8,8.6
	c3.9,0,6.8-2.2,7.3-5.3L141.3,54.7L141.3,54.7z M147.9,59.7h3.9V37.2h-3.9V59.7z M157.9,59.9c1.2,0,2.2-1,2.2-2.2
	c0-1.2-1-2.2-2.2-2.2s-2.2,1-2.2,2.2l0,0C155.6,58.8,156.6,59.8,157.9,59.9C157.9,59.9,157.9,59.9,157.9,59.9L157.9,59.9z"/>
</svg>
