<?xml version="1.0" encoding="utf-8"?>
<!-- Generator: Adobe Illustrator 21.1.0, SVG Export Plug-In . SVG Version: 6.00 Build 0)  -->
<svg version="1.1" id="Layer_1" xmlns="http://www.w3.org/2000/svg" xmlns:xlink="http://www.w3.org/1999/xlink" x="0px" y="0px"
	 viewBox="0 0 156 60" style="enable-background:new 0 0 156 60;" xml:space="preserve">
<style type="text/css">
	.st0{fill:#111111;}
</style>
<path id="_50_S4_Title_1_small_1x.svg" class="st0" d="M17.7,19.9H7.5V0.7h-4v22.5h14.3V19.9z M20.4,23.3h3.9V6.7h-3.9V23.3z
	 M22.3,4.2c1.2,0,2.1-1,2.1-2.1c0-1.2-1-2.1-2.1-2.1c-1.2,0-2.1,1-2.1,2.1C20.2,3.3,21.2,4.2,22.3,4.2C22.3,4.2,22.3,4.2,22.3,4.2z
	 M27.4,11.5c0,2.5,1.6,4,4.8,4.7l2.8,0.6c1.7,0.4,2.3,1,2.3,2c0,1.2-1.2,2-3.1,2c-2,0-3.1-0.8-3.4-2.4H27c0.3,3.2,2.9,5.3,7.2,5.3
	c4.1,0,6.9-2.1,6.9-5.2c0-2.4-1.3-3.7-4.8-4.5l-2.8-0.6c-1.7-0.4-2.4-1.1-2.4-2c0-1.2,1.1-2,2.9-2c1.8,0,2.9,0.9,3.1,2.4h3.6
	c-0.1-3.1-2.7-5.3-6.7-5.3C30,6.4,27.4,8.4,27.4,11.5z M44.8,2.8v3.9h-2.4v3h2.4v9.2c0,3.2,1.4,4.5,5,4.5c0.7,0,1.4,0,2-0.2v-3
	c-0.4,0.1-0.7,0.1-1.1,0.1c-1.4,0-2-0.6-2-2V9.7h3.1v-3h-3.1V2.8H44.8z M61.6,23.6c4.9,0,8-3.2,8-8.6c0-5.4-3.2-8.6-8-8.6
	s-8,3.3-8,8.6C53.6,20.4,56.8,23.6,61.6,23.6L61.6,23.6z M61.6,20.5c-2.5,0-4.1-2-4.1-5.5c0-3.5,1.6-5.5,4.1-5.5
	c2.5,0,4.1,2,4.1,5.5C65.7,18.5,64.1,20.5,61.6,20.5L61.6,20.5z M87.9,6.4c-2.2-0.1-4.3,1.2-5.2,3.1h-0.1V6.7h-3.8v22h3.9v-8.2h0.1
	c0.9,1.9,2.8,3,5.2,3c4.2,0,6.8-3.3,6.8-8.5C94.8,9.7,92.1,6.4,87.9,6.4L87.9,6.4z M86.7,20.4c-2.4,0-4-2.1-4-5.4
	c0-3.2,1.6-5.4,4-5.4c2.5,0,4.1,2.1,4.1,5.4C90.8,18.3,89.2,20.4,86.7,20.4L86.7,20.4z M103.4,20.6c-1.7,0-2.8-0.9-2.8-2.2
	c0-1.3,1.1-2.2,3-2.3l3.8-0.2v1.3C107.4,19.1,105.6,20.6,103.4,20.6L103.4,20.6z M102.3,23.6c2.1,0,4.1-1.1,5.2-2.9h0.1v2.6h3.8
	V11.9c0-3.3-2.7-5.5-6.8-5.5c-4.2,0-6.9,2.2-7,5.3h3.6c0.2-1.4,1.4-2.3,3.3-2.3c1.9,0,3.1,1,3.1,2.7v1.2l-4.4,0.2
	c-4,0.2-6.3,2-6.3,5C96.7,21.5,99.1,23.5,102.3,23.6L102.3,23.6z M114.5,23.3h3.9v-9.6c0-2.3,1.3-3.8,3.5-3.8c0.5,0,1.1,0.1,1.6,0.2
	V6.6c-0.4-0.1-0.8-0.1-1.2-0.2c-2,0-3.4,1.2-4,3.2h-0.1V6.7h-3.7V23.3z M131.3,20.6c-1.7,0-2.8-0.9-2.8-2.2c0-1.3,1.1-2.2,3-2.3
	l3.8-0.2v1.3C135.3,19.1,133.5,20.6,131.3,20.6L131.3,20.6z M130.1,23.6c2.1,0,4.1-1.1,5.2-2.9h0.1v2.6h3.8V11.9
	c0-3.3-2.7-5.5-6.8-5.5c-4.2,0-6.9,2.2-7,5.3h3.6c0.2-1.4,1.4-2.3,3.3-2.3c1.9,0,3.1,1,3.1,2.7v1.2l-4.4,0.2c-4,0.2-6.3,2-6.3,5
	C124.6,21.5,126.9,23.5,130.1,23.6L130.1,23.6z M4.1,38.8v3.9H1.7v3h2.4v9.2c0,3.2,1.4,4.5,5,4.5c0.7,0,1.4,0,2-0.2v-3
	c-0.4,0.1-0.7,0.1-1.1,0.1c-1.4,0-2-0.6-2-2v-8.6h3.1v-3H8v-3.9H4.1z M20.9,59.6c4.9,0,8-3.2,8-8.6c0-5.4-3.2-8.6-8-8.6
	s-8,3.3-8,8.6C12.9,56.4,16.1,59.6,20.9,59.6L20.9,59.6z M20.9,56.5c-2.5,0-4.1-2-4.1-5.5c0-3.5,1.6-5.5,4.1-5.5
	c2.5,0,4.1,2,4.1,5.5C25,54.5,23.4,56.5,20.9,56.5L20.9,56.5z M37.7,59.5c2.2,0.1,4.2-1.1,5.2-3.1H43v2.8h3.8V36.7H43v8.8h-0.1
	c-1-1.9-3-3.1-5.1-3.1c-4.2,0-6.9,3.3-6.9,8.6C30.9,56.3,33.6,59.5,37.7,59.5L37.7,59.5z M38.9,45.6c2.5,0,4.1,2.1,4.1,5.4
	c0,3.3-1.6,5.4-4.1,5.4c-2.5,0-4.1-2.1-4.1-5.4C34.9,47.7,36.4,45.6,38.9,45.6L38.9,45.6z M57.6,59.6c4.9,0,8-3.2,8-8.6
	c0-5.4-3.2-8.6-8-8.6s-8,3.3-8,8.6C49.6,56.4,52.7,59.6,57.6,59.6L57.6,59.6z M57.6,56.5c-2.5,0-4.1-2-4.1-5.5
	c0-3.5,1.6-5.5,4.1-5.5c2.5,0,4.1,2,4.1,5.5C61.6,54.5,60,56.5,57.6,56.5L57.6,56.5z M81.9,45.4c2.2,0,3.7,1.6,3.8,4H78
	C78.1,47.1,79.7,45.4,81.9,45.4L81.9,45.4z M85.7,54.3c-0.4,1.4-1.8,2.3-3.6,2.3c-2.5,0-4.2-1.8-4.2-4.4v-0.2h11.6v-1.3
	c0-5-2.9-8.3-7.6-8.3c-4.8,0-7.8,3.4-7.8,8.7c0,5.3,3,8.6,8,8.6c3.9,0,6.8-2.2,7.3-5.3L85.7,54.3L85.7,54.3z M92.3,59.3h3.9V36.7
	h-3.9V59.3z M112.3,59.5c2.2,0.1,4.2-1.1,5.2-3.1h0.1v2.8h3.8V36.7h-3.9v8.8h-0.1c-1-1.9-3-3.1-5.1-3.1c-4.2,0-6.9,3.3-6.9,8.6
	C105.4,56.3,108.1,59.5,112.3,59.5L112.3,59.5z M113.5,45.6c2.5,0,4.1,2.1,4.1,5.4c0,3.3-1.6,5.4-4.1,5.4c-2.5,0-4.1-2.1-4.1-5.4
	C109.4,47.7,111,45.6,113.5,45.6L113.5,45.6z M124.9,59.3h3.9V42.7h-3.9V59.3L124.9,59.3z M128.2,40.4l3.7-4.8h-3.7l-2.7,4.8H128.2z
	 M138.2,56.6c-1.7,0-2.8-0.9-2.8-2.2c0-1.3,1.1-2.2,3-2.3l3.8-0.2v1.3C142.2,55.1,140.4,56.6,138.2,56.6L138.2,56.6z M137.1,59.5
	c2.1,0,4.1-1.1,5.2-2.9h0.1v2.6h3.8V47.9c0-3.3-2.7-5.5-6.8-5.5c-4.2,0-6.9,2.2-7,5.3h3.6c0.2-1.4,1.4-2.3,3.3-2.3
	c1.9,0,3.1,1,3.1,2.7v1.2l-4.4,0.2c-4,0.2-6.3,2-6.3,5C131.5,57.5,133.9,59.5,137.1,59.5L137.1,59.5z M152,59.5c1.2,0,2.2-1,2.2-2.2
	s-1-2.2-2.2-2.2s-2.2,1-2.2,2.2l0,0C149.8,58.4,150.7,59.4,152,59.5C152,59.5,152,59.5,152,59.5L152,59.5z"/>
</svg>
