<svg xmlns="http://www.w3.org/2000/svg" width="26" height="26" viewBox="0 0 26 26">
    <g fill="none" fill-rule="evenodd">
        <path fill="#D8D8D8" fill-opacity="0" d="M0 0L26 0 26 26 0 26z"/>
        <path stroke="#333" stroke-linecap="round" stroke-linejoin="round" d="M19.546 5.058h0c4.386 3.615 5.012 10.1 1.397 14.487-3.615 4.387-10.101 5.012-14.487 1.397-4.387-3.615-5.012-10.1-1.397-14.487C7.013 4.083 9.926 2.709 13 2.708h0c2.389-.002 4.704.83 6.546 2.35"/>
        <path stroke="#333" stroke-linecap="round" stroke-linejoin="round" d="M16.426 8.531h0c.619.562 1.185 1.178 1.691 1.842h0c1.992 2.623 2.994 5.865 2.832 9.154M6.714 4.85h0c2.675.007 5.299.734 7.595 2.106M11.628 19.695h0c.218 1.243.598 2.452 1.131 3.597M14.506 8.68h0c-1.934 2.372-3.018 5.323-3.08 8.383M19.283 4.85h0c-1.049.532-2.032 1.186-2.93 1.947M16.717 7.648h0c1.933 0 3.849.364 5.646 1.076M7.457 11.158h0c1.88-1.661 4.172-2.787 6.636-3.258M3.506 16.979h0c.515-1.4 1.24-2.712 2.149-3.894M12.561 19.122h0c2.04 1.206 4.342 1.903 6.709 2.031M7.058 13.27h0c.842 1.634 1.985 3.093 3.37 4.302M5.32 6.15h0c.014 1.59.261 3.167.734 4.683"/>
        <path stroke="#333" stroke-linecap="round" stroke-linejoin="round" d="M5.788 10.971c.611-.398 1.43-.225 1.827.387.398.61.225 1.429-.386 1.826-.611.398-1.43.225-1.827-.386-.398-.611-.225-1.429.386-1.827M10.744 17.28c.61-.397 1.429-.224 1.826.387.398.61.225 1.429-.386 1.826-.611.398-1.429.225-1.827-.386-.398-.61-.225-1.429.387-1.827M14.678 6.6c.611-.398 1.43-.225 1.827.387.398.61.225 1.429-.386 1.826-.611.398-1.43.225-1.827-.386-.398-.611-.225-1.429.386-1.827"/>
    </g>
</svg>
