<svg xmlns="http://www.w3.org/2000/svg" width="26" height="26" viewBox="0 0 26 26">
    <g fill="none" fill-rule="evenodd">
        <path fill="#D8D8D8" fill-opacity="0" d="M0 0L26 0 26 26 0 26z"/>
        <path stroke="#333" stroke-linecap="round" stroke-linejoin="round" d="M9.75 18.958l.452 3.621h0c.051.41.4.716.813.713h3.976c.412.003.761-.303.812-.713l.447-3.62"/>
        <path stroke="#333" stroke-linecap="round" stroke-linejoin="round" d="M9.48 18.958c-1.347 0-2.438-1.091-2.438-2.437V9.479c0-1.346 1.091-2.437 2.437-2.437h7.042c1.346 0 2.437 1.091 2.437 2.437v7.042c0 1.346-1.091 2.437-2.437 2.437H9.479z"/>
        <path stroke="#333" stroke-linecap="round" stroke-linejoin="round" d="M13 9.208L13 13.542 16.25 13.542M9.75 7.042l.452-3.621h0c.051-.41.4-.716.813-.713h3.976c.412-.003.761.303.812.713l.447 3.62"/>
    </g>
</svg>
