<svg xmlns="http://www.w3.org/2000/svg" width="84" height="84" viewBox="0 0 84 84"><defs><linearGradient id="h536219qpa" x1="26.824%" x2="73.176%" y1="10.73%" y2="89.27%"><stop offset="0%" stop-color="#FFF" stop-opacity=".3"/><stop offset="100%" stop-color="#F6F6F6" stop-opacity="0"/></linearGradient></defs><g fill="none" fill-rule="evenodd"><rect width="35" height="70" x="24.5" y="7" fill="#FFF" fill-rule="nonzero" rx="8"/><path fill="#000" fill-rule="nonzero" d="M56 76.125H28a3.5 3.5 0 01-3.5-3.5v.875A3.5 3.5 0 0028 77h28a3.5 3.5 0 003.5-3.5v-.875a3.5 3.5 0 01-3.5 3.5z" opacity=".06"/><rect width="31.5" height="53.375" x="26.25" y="14" fill="#333" fill-rule="nonzero" rx="2"/><rect width="31.5" height="53.375" x="26.25" y="14" fill="url(#h536219qpa)" fill-rule="nonzero" opacity=".5" rx="2"/><path fill="#333" fill-rule="nonzero" d="M56.875 14.438c.242 0 .438.195.438.437V66.5a.438.438 0 01-.438.438h-29.75a.438.438 0 01-.438-.438V14.875c0-.242.196-.438.438-.438h29.75zm0-.438h-29.75a.875.875 0 00-.875.875V66.5c0 .483.392.875.875.875h29.75a.875.875 0 00.875-.875V14.875a.875.875 0 00-.875-.875z" opacity=".24"/><rect width="7" height="1" x="38.5" y="10.5" fill="#4A4D4E" fill-rule="nonzero" rx=".5"/><rect width="1" height="1" x="35.875" y="10.5" fill="#E60000" fill-rule="nonzero" rx=".5"/><circle cx="42" cy="71.75" r="2.625" fill="#E60000" fill-rule="nonzero"/><path d="M0 0h84v84H0z"/></g></svg>