<svg xmlns="http://www.w3.org/2000/svg" width="48" height="48" viewBox="0 0 48 48"><g fill="none" fill-rule="evenodd"><path d="M47.752 47.876H.001V.125h47.751z"/><path d="M0 0h47.751v47.751H0z"/><path d="M0 0h47.751v47.751H0z"/><g stroke="#E60000" stroke-linecap="round" stroke-linejoin="round"><path d="M32.395 26.348c0 3.585-2.907 6.49-6.492 6.49s-6.491-2.904-6.491-6.49v-2.97"/><path d="M22.446 26.422l-3.034-3.044-2.997 2.997"/></g><path stroke="#666" stroke-linecap="round" stroke-linejoin="round" d="M23.41 14.3v-2.22c0-.903-.731-1.634-1.633-1.634H17.05a1.633 1.633 0 0 0-1.631 1.634v2.22M27.39 36.042v3.853c0 1.355-1.1 2.454-2.455 2.454H13.893a2.454 2.454 0 0 1-2.453-2.454V16.882a2.451 2.451 0 0 1 2.453-2.457h11.042a2.454 2.454 0 0 1 2.455 2.452v9.948m5.936-16.379V8.1a1.632 1.632 0 0 0-1.639-1.634h-4.725c-.902 0-1.634.732-1.634 1.634v2.346"/><path stroke="#666" stroke-linecap="round" stroke-linejoin="round" d="M21.886 10.446h12.982a2.452 2.452 0 0 1 2.453 2.452V35.88a2.452 2.452 0 0 1-2.453 2.452H27.39m-7.991-16.943v-3.98m1.99 1.99h-3.98m3.98 18.902h-3.98"/></g></svg>