<svg xmlns="http://www.w3.org/2000/svg" width="36" height="36" viewBox="0 0 36 36"><defs><radialGradient id="a" cx="48.34%" cy="49.419%" r="22.666%" fx="48.34%" fy="49.419%" gradientTransform="matrix(.94496 -.18024 .32719 .52055 -.135 .324)"><stop offset="0%"/><stop offset="100%" stop-opacity="0"/></radialGradient></defs><g fill="none" fill-rule="evenodd"><rect width="35.938" height="35.938" fill="#000" fill-rule="nonzero" rx="6"/><path fill="#B1060F" stroke="#000" stroke-width=".5" d="M19.896 5.796l-.01 5.388-.009 5.387-.443-1.25v-.003L18.86 27.31c.563 1.59.865 2.44.869 2.443.004.004.325.024.713.043a55.32 55.32 0 013.735.32c.256.032.476.048.49.036.012-.011.02-5.497.015-12.189l-.008-12.168h-4.778zm-8.642-.016v12.18c0 6.7.007 12.187.015 12.195.008.008.423-.031.922-.087a70.373 70.373 0 011.532-.154 81.447 81.447 0 012.285-.147c.053 0 .056-.274.064-5.16l.008-5.158.381 1.078.135.381.573-11.99-.197-.556-.882-2.493-.032-.089h-4.804z"/><path fill="url(#a)" d="M.024.02v6.837l4.817 12.776.001-.786.008-5.158.382 1.078c2.12 6.002 3.26 9.22 3.267 9.226.004.005.325.024.713.043 1.175.059 2.63.183 3.735.32.256.033.476.049.49.037.009-.008.014-2.698.016-6.492L8.66 4.12l-.002 1.304-.01 5.387-.443-1.25A11442.617 11442.617 0 014.86.108L4.828.02H.024z" transform="translate(11.23 5.76)"/><path fill="#E50914" d="M11.254 5.78l4.826 13.675v-.006l.381 1.078c2.121 6.002 3.26 9.22 3.268 9.227.004.004.325.024.713.043a55.32 55.32 0 013.735.32c.255.032.473.048.489.037l-4.789-13.586v.003l-.443-1.25a11442.45 11442.45 0 01-3.344-9.452l-.032-.089h-4.804z"/><path fill="#B1060F" stroke="#000" stroke-width=".5" d="M19.896 5.796l-.01 5.388-.009 5.387-.443-1.25v-.003L18.86 27.31c.563 1.59.865 2.44.869 2.443.004.004.325.024.713.043a55.32 55.32 0 013.735.32c.256.032.476.048.49.036.012-.011.02-5.497.015-12.189l-.008-12.168h-4.778zm-8.642-.016v12.18c0 6.7.007 12.187.015 12.195.008.008.423-.031.922-.087a70.373 70.373 0 011.532-.154 81.447 81.447 0 012.285-.147c.053 0 .056-.274.064-5.16l.008-5.158.381 1.078.135.381.573-11.99-.197-.556-.882-2.493-.032-.089h-4.804z"/><path fill="url(#a)" d="M.024.02v6.837l4.817 12.776.001-.786.008-5.158.382 1.078c2.12 6.002 3.26 9.22 3.267 9.226.004.005.325.024.713.043 1.175.059 2.63.183 3.735.32.256.033.476.049.49.037.009-.008.014-2.698.016-6.492L8.66 4.12l-.002 1.304-.01 5.387-.443-1.25A11442.617 11442.617 0 014.86.108L4.828.02H.024z" transform="translate(11.23 5.76)"/><path fill="#E50914" d="M11.254 5.78l4.826 13.675v-.006l.381 1.078c2.121 6.002 3.26 9.22 3.268 9.227.004.004.325.024.713.043a55.32 55.32 0 013.735.32c.255.032.473.048.489.037l-4.789-13.586v.003l-.443-1.25a11442.45 11442.45 0 01-3.344-9.452l-.032-.089h-4.804z"/></g></svg>