<?xml version="1.0" encoding="UTF-8"?>
<svg width="130px" height="130px" viewBox="0 0 130 130" version="1.1" xmlns="http://www.w3.org/2000/svg" xmlns:xlink="http://www.w3.org/1999/xlink">
    <!-- Generator: Sketch 64 (93537) - https://sketch.com -->
    <title>icono_datos</title>
    <desc>Created with Sketch.</desc>
    <g id="PLP-Revamp-Vodafone-One-Test-A/B" stroke="none" stroke-width="1" fill="none" fill-rule="evenodd">
        <g id="PLP-Desktop---Revamp" transform="translate(-124.000000, -1511.000000)">
            <g id="¿Por-qué-elegir-Vodafone?" transform="translate(0.000000, 1383.000000)">
                <g id="1" transform="translate(48.000000, 128.000000)">
                    <g id="Icono-convergente" transform="translate(76.000000, 0.000000)">
                        <circle id="Oval" fill-opacity="0.2" fill="#000000" cx="65" cy="65" r="65"></circle>
                        <circle id="Oval" fill="#FFFFFF" fill-rule="nonzero" cx="65" cy="65" r="35"></circle>
                        <g id="Icons+Indicators-/-HiFi-Icons-/-data-/-light_theme" transform="translate(39.000000, 39.000000)">
                            <g id="data-hi">
                                <path d="M42.88375,33.5833333 L39,33.5833333 L39,22.75 C39,20.3567661 37.0599006,18.4166667 34.6666667,18.4166667 L26,18.4166667 L26,33.5833333 L22.11625,33.5833333 C21.6778178,33.5829883 21.2824031,33.846938 21.1145757,34.2519774 C20.9467483,34.6570168 21.0396006,35.1232791 21.3497917,35.433125 L32.5,46.5833333 L43.6502083,35.433125 C43.9603994,35.1232791 44.0532517,34.6570168 43.8854243,34.2519774 C43.7175969,33.846938 43.3221822,33.5829883 42.88375,33.5833333 Z" id="Path" fill="#E60000" fill-rule="nonzero"></path>
                                <path d="M9.11895833,18.4166667 L13,18.4166667 L13,29.25 C13,31.6432339 14.9400994,33.5833333 17.3333333,33.5833333 L26,33.5833333 L26,18.4166667 L29.88375,18.4166667 C30.3221822,18.4170117 30.7175969,18.153062 30.8854243,17.7480226 C31.0532517,17.3429832 30.9603994,16.8767209 30.6502083,16.566875 L19.5,5.41666667 L8.35520833,16.566875 C8.04536514,16.8763724 7.95234043,17.3419785 8.11947343,17.7467723 C8.28660644,18.1515661 8.68101898,18.415917 9.11895833,18.4166667 Z" id="Path" fill="#EBEBEB" fill-rule="nonzero"></path>
                                <g id="Group" opacity="0.06" transform="translate(7.854167, 17.062500)" fill="#000000" fill-rule="nonzero">
                                    <path d="M5.14583333,0.8125 L1.26479167,0.8125 C0.771790083,0.815210786 0.341450475,0.479007967 0.224791667,1.92438658e-15 C0.141405006,0.322908406 0.211393591,0.666227085 0.414528394,0.930725526 C0.617663198,1.19522397 0.931301596,1.35141959 1.26479167,1.35416667 L5.14583333,1.35416667 L5.14583333,0.8125 Z" id="Path"></path>
                                    <path d="M5.14583333,11.6458333 L5.14583333,12.1875 C5.14583333,14.5807339 7.08593275,16.5208333 9.47916667,16.5208333 L18.1458333,16.5208333 L18.1458333,15.9791667 L9.47916667,15.9791667 C7.08593275,15.9791667 5.14583333,14.0390672 5.14583333,11.6458333 Z" id="Path"></path>
                                    <path d="M22.035,0.8125 L18.1458333,0.8125 L18.1458333,1.35416667 L22.0295833,1.35416667 C22.3630734,1.35141959 22.6767118,1.19522397 22.8798466,0.930725526 C23.0829814,0.666227085 23.15297,0.322908406 23.0695833,0 C22.9533968,0.477036479 22.5259817,0.812702802 22.035,0.8125 L22.035,0.8125 Z" id="Path"></path>
                                </g>
                                <path d="M43.6502083,34.8914583 L32.5,46.0416667 L21.3497917,34.8914583 C21.2175781,34.7560757 21.1240572,34.587738 21.0789583,34.4039583 C20.9760091,34.770745 21.0796352,35.1645241 21.3497917,35.433125 L32.5,46.5833333 L43.6502083,35.433125 C43.9203648,35.1645241 44.0239909,34.770745 43.9210417,34.4039583 C43.8759428,34.587738 43.7824219,34.7560757 43.6502083,34.8914583 L43.6502083,34.8914583 Z" id="Path" fill="#000000" fill-rule="nonzero" opacity="0.12"></path>
                                <rect id="26ccf54a-937c-45a6-aa4f-e12304e304d7" x="0" y="0" width="52" height="52"></rect>
                            </g>
                        </g>
                    </g>
                </g>
            </g>
        </g>
    </g>
</svg>