<svg width="84" height="32" viewBox="0 0 84 32" xmlns="http://www.w3.org/2000/svg"><g id="Logos-/-Logo---Samsung-/-Gris" stroke="none" stroke-width="1" fill="none" fill-rule="evenodd"><path d="M8.355 15.376s-.769-.476-1.245-.66c0 0-1.471-.681-1.763-1.007 0 0-.573-.542-.237-1.168 0 0 .14-.41.746-.41 0 0 .79.042.79.69v.916h2.83l-.005-1.348s.216-2.208-3.333-2.304c0 0-.267-.018-.66.001 0 0-2.15.116-2.918 1.295-.005.01-.01.016-.015.024 0 0-.314.335-.314 1.504v.844s-.033.974.465 1.602c0 0 .282.411.974.865 0 0 1.406.758 2.25 1.191 0 0 .854.486.74 1.26 0 0-.069.795-.892.763 0 0-.752-.034-.752-.813v-.915H2v1.329s-.084 2.542 3.79 2.542c0 0 3.7.074 3.875-2.609v-1.08c0-.001.13-1.647-1.31-2.512zm46.382 3.138s.04.886-.782.886c0 0-.865.046-.865-.864l-.009-8.127h-3.073v8.062s-.316 3.052 3.99 3.052c0 0 3.743.044 3.743-2.912V10.41h-3.004v8.105zm13.286-1.537H67.9l-2.878-6.574h-3.444v10.803h2.803l-.168-6.574h.126l2.981 6.574h3.34V10.402h-2.84l.203 6.575zm9.402-1.75v1.586h.772v1.702c0 .831-.711.847-.711.847-.864 0-.832-.79-.832-.79v-5.887c0-.607.767-.64.767-.64.736 0 .742.724.742.724v.896h2.836c.092-1.748-.256-2.171-.256-2.171C80.039 9.914 77.378 10 77.378 10c-4.09 0-3.636 3.138-3.636 3.138v5.692c.088 2.943 4.118 2.644 4.186 2.641 1.793-.198 2.333-.768 2.333-.768.499-.37.628-.882.628-.882.142-.3.178-1.25.178-1.25v-3.345h-3.642zm-63.21-4.782l-1.861 10.747h3.012l1.103-8.333h.248l1.102 8.333h3.012L18.97 10.445h-4.754zm16.658-.045l-.948 5.937h-.221l-.905-5.883h-4.726l-.237 10.75h2.798l.033-8.1h.22l1.484 8.1h2.944l1.465-8.097h.195l.067 8.098h2.813L35.552 10.4h-4.679zm14.485 4.976s-.77-.476-1.246-.66c0 0-1.471-.682-1.764-1.007 0 0-.574-.541-.238-1.17 0 0 .14-.41.747-.41 0 0 .79.044.79.692v.916h2.83l-.005-1.348s.217-2.208-3.334-2.305c0 0-2.792-.184-3.593 1.32 0 0-.314.336-.314 1.504v.844s-.032.974.466 1.602c0 0 .28.411.973.865 0 0 1.407.758 2.251 1.192 0 0 .853.486.741 1.26 0 0-.07.795-.893.763 0 0-.752-.034-.752-.814v-.914h-3.015v1.328s-.085 2.542 3.79 2.542c0 0 3.701.074 3.873-2.608v-1.082s.13-1.645-1.307-2.51z" id="Fill-1" fill="#333"/></g></svg>