<svg width="84" height="32" viewBox="0 0 84 32" xmlns="http://www.w3.org/2000/svg"><g id="Logos-/-Logo---Oppo-/-Gris" stroke="none" stroke-width="1" fill="none" fill-rule="evenodd"><path d="M67.95 9.997c-.867-.005-1.718.095-2.543.362-1.11.358-2.068.93-2.658 1.972-1.034 1.827-.336 4.079 1.634 5.068 2.085 1.047 4.26 1.055 6.444.3.94-.323 1.709-.897 2.24-1.75.831-1.339.838-3.763-1.43-5.07-1.14-.658-2.39-.873-3.688-.882zm.179 10.192c-1.875.032-3.67-.316-5.31-1.263-1.416-.819-2.422-1.98-2.807-3.594-.525-2.213.356-4.384 2.309-5.743 1.234-.86 2.626-1.306 4.106-1.488 2.074-.254 4.096-.052 6 .847 1.636.773 2.883 1.934 3.372 3.722.589 2.157-.115 4.369-2.113 5.835-1.37 1.004-2.94 1.471-4.616 1.634-.31.03-.621.034-.941.05zM16.177 9.992c-1.073.003-2.04.127-2.965.48-1.102.42-2.017 1.075-2.497 2.186-.785 1.824-.045 3.837 1.831 4.756 2.234 1.092 4.547 1.083 6.816.108 1.662-.714 2.427-2.03 2.307-3.817-.087-1.302-.843-2.209-1.944-2.848-1.12-.651-2.358-.85-3.548-.865zm.177 10.202c-1.953.014-3.77-.31-5.424-1.282-1.413-.829-2.436-1.984-2.789-3.604-.5-2.302.341-4.318 2.288-5.7 1.233-.874 2.633-1.327 4.125-1.508 2.076-.253 4.093-.039 6.002.847 1.459.676 2.595 1.69 3.202 3.204.93 2.322.121 4.875-2.026 6.417-1.214.872-2.598 1.312-4.066 1.517-.452.063-.91.076-1.312.109zm17.023-2.007c1.246.025 2.444-.186 3.545-.782 1.267-.687 2.033-1.713 2.074-3.19.04-1.46-.59-2.593-1.856-3.281-2.346-1.275-4.785-1.283-7.195-.192-1.407.639-2.204 1.775-2.208 3.351-.003 1.577.816 2.664 2.192 3.368 1.079.551 2.24.758 3.448.726zm-5.646.484v5.32H25.32V8.58h2.403v.991c.116-.062.188-.095.255-.137 1.933-1.185 4.055-1.549 6.288-1.394 1.553.108 3.031.49 4.361 1.32 1.788 1.118 2.827 2.689 2.805 4.828-.02 1.856-.892 3.293-2.387 4.368-1.163.836-2.483 1.299-3.897 1.504-1.895.274-3.761.158-5.562-.52-.628-.236-1.22-.569-1.854-.87zM50.614 9.99c-.212.012-.505.015-.796.045-1.16.117-2.266.4-3.23 1.09-1.298.93-1.845 2.473-1.409 3.991.304 1.057.984 1.83 1.965 2.292 2.363 1.112 4.75 1.093 7.11-.022a3.562 3.562 0 001.684-1.657c.877-1.746.237-3.793-1.51-4.822-1.15-.677-2.417-.9-3.814-.917zM45.04 24h-2.415V8.577h2.416v.981c.41-.219.77-.43 1.144-.607 1.703-.806 3.51-1.042 5.372-.913 1.564.108 3.049.497 4.388 1.33 1.491.926 2.502 2.203 2.735 3.97.287 2.163-.534 3.885-2.274 5.182-1.175.876-2.527 1.338-3.968 1.54-2.242.315-4.415.098-6.469-.91-.307-.151-.598-.337-.93-.525V24z" id="Fill-1" fill="#333"/></g></svg>