<svg width="99" height="99" viewBox="0 0 99 99" xmlns="http://www.w3.org/2000/svg" xmlns:xlink="http://www.w3.org/1999/xlink"><defs><path id="a" d="M0 .287h99.732V100H0z"/><path id="c" d="M0 100.8h99.732V1.087H0z"/></defs><g transform="rotate(16 53.558 50.5)" fill="none" fill-rule="evenodd"><g transform="translate(0 .8)"><mask id="b" fill="#fff"><use xlink:href="#a"/></mask><path d="M37.373 93.242c.218 0 .435.081.6.245l.244.245c6.105 6.159 16.05 6.186 22.208.082.217-.218.517-.3.817-.218l.355.109c8.364 2.262 16.975-2.67 19.264-11.036v-.026a.76.76 0 0 1 .6-.573l.326-.081c8.392-2.208 13.378-10.818 11.171-19.183-.081-.3 0-.6.219-.79l.272-.246c6.158-6.103 6.186-16.049.082-22.18a.788.788 0 0 1-.11-1.008c0-.054.028-.109.028-.136 2.262-8.365-2.67-16.975-11.035-19.264a.76.76 0 0 1-.573-.6c-.027-.109-.054-.245-.081-.354C79.525 9.836 70.942 4.849 62.577 7.056c-.3.083-.599 0-.79-.217l-.246-.246C55.438.463 45.492.408 39.335 6.51a.76.76 0 0 1-.818.192l-.354-.11c-8.365-2.26-16.975 2.698-19.264 11.036a.76.76 0 0 1-.6.572l-.327.082C9.58 20.49 4.593 29.101 6.8 37.492c.081.3 0 .6-.219.79l-.217.219C.179 44.604.125 54.549 6.228 60.708c.219.218.3.518.19.818-.026.108-.053.244-.108.353-2.261 8.365 2.67 17.003 11.035 19.265.3.082.518.3.573.599.026.109.054.218.082.327 2.233 8.393 10.817 13.378 19.21 11.172h.163zM49.362 100c-4.577 0-8.992-1.8-12.235-5.042-9.1 2.126-18.255-3.324-20.708-12.342C7.454 79.918 2.25 70.57 4.675 61.526c-6.376-6.812-6.212-17.467.382-24.087-2.153-9.102 3.324-18.257 12.343-20.71C20.125 7.766 29.443 2.56 38.49 4.986c6.812-6.402 17.466-6.239 24.114.355 9.101-2.125 18.257 3.324 20.709 12.343 8.964 2.698 14.168 12.044 11.743 21.09 6.376 6.812 6.213 17.467-.381 24.087 2.153 9.101-3.324 18.284-12.37 20.709-2.699 8.964-12.044 14.168-21.09 11.743A17.088 17.088 0 0 1 49.362 100z" fill="#333" mask="url(#b)"/></g><path d="M49.88 14.996c-19.837 0-35.968 16.13-35.968 35.967 0 19.836 16.13 35.967 35.968 35.967 19.837 0 35.967-16.131 35.967-35.967 0-19.837-16.158-35.967-35.967-35.967m0 73.57c-20.736 0-37.603-16.867-37.603-37.603S29.144 13.36 49.88 13.36c20.735 0 37.602 16.866 37.602 37.602 0 20.736-16.867 37.602-37.602 37.602" fill="#333"/><path fill="#333" d="M26.991 41.154l.382-8.366h.844l2.534 7.603 2.316-7.603h.763l.382 8.366h-.627l-.326-7.03-2.235 7.165h-.654l-2.398-7.275-.3 7.14zm12.017 0v-8.366h4.468v.6h-3.814v2.997h2.778v.6h-2.778V40.5h4.059v.6h-4.713zm8.283-.327l.217-.6c.11.11.246.19.382.245.164.083.354.136.546.164.163.028.327.055.49.055.436 0 .709-.11.872-.327.164-.3.245-.655.218-.982V32.79h.653v6.676a1.92 1.92 0 0 1-.163.953 1.509 1.509 0 0 1-.571.599 2.307 2.307 0 0 1-1.036.245 3.11 3.11 0 0 1-1.009-.164c-.217-.026-.409-.136-.599-.271m8.719-3.87c0 .68.11 1.362.354 2.016a2.65 2.65 0 0 0 .955 1.335c.38.245.79.381 1.252.381.573 0 1.146-.218 1.526-.653a3.4 3.4 0 0 0 .846-1.526c.136-.518.19-1.036.19-1.553 0-.682-.109-1.336-.354-1.962a2.828 2.828 0 0 0-.927-1.335 2.136 2.136 0 0 0-1.281-.437c-.409 0-.817.11-1.143.327a2.682 2.682 0 0 0-.818.846 4.06 4.06 0 0 0-.464 1.199 4.732 4.732 0 0 0-.136 1.362m-.68 0c0-.818.136-1.608.463-2.344.163-.463.463-.872.817-1.199.3-.273.653-.49 1.035-.626.3-.082.627-.137.926-.164a2.608 2.608 0 0 1 1.935.763c.491.463.871 1.09 1.036 1.744.163.6.272 1.198.272 1.826a5.633 5.633 0 0 1-.463 2.397 3.428 3.428 0 0 1-.845 1.227c-.3.271-.626.49-1.008.598-.3.082-.6.137-.899.137-.49 0-1.008-.108-1.444-.381a2.907 2.907 0 0 1-1.009-.982c-.272-.436-.49-.899-.599-1.389-.163-.518-.217-1.063-.217-1.607m11.825-.191h1.798c.49.027.98-.11 1.362-.41.627-.708.627-1.77 0-2.506a1.971 1.971 0 0 0-1.334-.436h-1.854l.028 3.352zm-.655 4.386v-8.365h2.508c.817 0 1.416.192 1.852.6a2.15 2.15 0 0 1 .627 1.69c.027.38-.081.762-.245 1.09a1.73 1.73 0 0 1-.6.653 2.047 2.047 0 0 1-.544.273c.245.054.463.244.599.463.136.3.245.6.354.899.027.191.163.627.382 1.363l.327 1.307h-.682l-.354-1.307c-.3-.982-.463-1.554-.517-1.744-.083-.218-.192-.408-.382-.545-.191-.136-.408-.219-.627-.192h-2.016v3.815H66.5zm-44.413 9.428h1.199c.272 0 .571-.027.844-.054a1.94 1.94 0 0 0 .653-.192c.273-.135.519-.353.655-.626a1.822 1.822 0 0 0-.027-1.716c-.163-.273-.382-.491-.68-.573a3.855 3.855 0 0 0-1.364-.19h-1.253l-.027 3.351zm-2.098 5.995v-11.28h3.351c.49 0 1.009.026 1.499.108.463.083.899.218 1.335.436a2.56 2.56 0 0 1 1.199 1.199c.272.545.381 1.117.381 1.717 0 .599-.136 1.17-.381 1.716a3.327 3.327 0 0 1-.845 1.2c-.19.19-.409.326-.654.408a4.243 4.243 0 0 1-1.144.327 8.121 8.121 0 0 1-1.145.082H22.14v4.087h-2.15zm13.051-6.158h1.526c1.28 0 1.935-.518 1.935-1.554a1.58 1.58 0 0 0-.463-1.226c-.3-.272-.79-.408-1.472-.408H33.04v3.188zm-2.098 6.158v-11.28h3.924a4.454 4.454 0 0 1 2.207.517 2.702 2.702 0 0 1 1.28 1.308 4.17 4.17 0 0 1 .273 1.526 3.55 3.55 0 0 1-.381 1.58c-.272.518-.71.927-1.2 1.227.3.163.546.408.71.681.244.435.435.899.544 1.39l.844 3.051h-2.152l-.844-2.807c-.137-.382-.273-.68-.382-.926-.081-.163-.218-.326-.408-.382a1.888 1.888 0 0 0-.682-.108H33.04v4.25h-2.098v-.027zm11.635 0v-11.28h7.33v2.043h-5.178v2.56h4.306v2.044h-4.306v2.562h5.559v2.044zm10.218-5.586a7.13 7.13 0 0 1 .409-2.616 5.97 5.97 0 0 1 1.063-1.852 4.33 4.33 0 0 1 1.526-1.09 4.493 4.493 0 0 1 1.798-.355 4.358 4.358 0 0 1 2.016.436c.463.219.899.519 1.253.926.191.219.354.436.491.682L59.77 48.4a2.076 2.076 0 0 0-.245-.354c-.108-.163-.273-.3-.436-.436a2.907 2.907 0 0 0-.627-.354c-.271-.11-.544-.136-.844-.136-.355 0-.708.081-1.035.218a2.35 2.35 0 0 0-.845.708 3.793 3.793 0 0 0-.6 1.2c-.163.572-.217 1.143-.217 1.743 0 1.226.272 2.152.79 2.807a2.557 2.557 0 0 0 2.125.98c.572.027 1.144-.108 1.662-.326a4.785 4.785 0 0 0 1.008-.627l.681 1.88c-.244.3-.79.572-1.553.79a8.45 8.45 0 0 1-2.043.327c-.68 0-1.335-.109-1.962-.382a3.892 3.892 0 0 1-1.525-1.116 4.964 4.964 0 0 1-.982-1.826 9.61 9.61 0 0 1-.327-2.507"/><mask id="d" fill="#fff"><use xlink:href="#c"/></mask><path fill="#333" mask="url(#d)" d="M64.648 56.576H66.8v-11.28h-2.152zm8.174-7.03a5.645 5.645 0 0 0 0 2.861c.11.436.272.845.518 1.226.218.354.518.626.872.845.354.218.763.327 1.171.327a2.585 2.585 0 0 0 2.126-1.199c.19-.3.326-.627.408-.954a5.68 5.68 0 0 0 .246-1.661c0-.709-.136-1.418-.41-2.045a2.857 2.857 0 0 0-1.035-1.362c-.409-.245-.87-.408-1.335-.408-.408 0-.817.108-1.171.327a2.877 2.877 0 0 0-.872.844c-.246.327-.409.736-.518 1.2m-2.043 3.542a7.523 7.523 0 0 1 0-4.252 5.63 5.63 0 0 1 .926-1.907 4.798 4.798 0 0 1 1.526-1.335c1.635-.844 3.624-.626 5.069.517a4.95 4.95 0 0 1 1.607 2.398c.273.79.409 1.608.436 2.453 0 .735-.11 1.444-.327 2.126a6.066 6.066 0 0 1-.926 1.879 4.609 4.609 0 0 1-1.553 1.336c-.682.353-1.418.544-2.18.517a4.205 4.205 0 0 1-2.153-.517 4.776 4.776 0 0 1-1.526-1.336 6.272 6.272 0 0 1-.9-1.88M22.44 60.772h.737l2.452 7.466 2.562-7.466h.653l-2.915 8.365h-.655zm7.467 4.168c0 .682.11 1.363.354 2.017.164.545.517 1.009.953 1.335.355.246.79.383 1.254.383.572 0 1.144-.219 1.526-.655a3.4 3.4 0 0 0 .845-1.526c.136-.517.19-1.035.19-1.553 0-.68-.108-1.335-.354-1.962a2.834 2.834 0 0 0-.926-1.335 2.135 2.135 0 0 0-1.281-.436 2.07 2.07 0 0 0-1.144.327c-.327.218-.6.518-.817.845a4.06 4.06 0 0 0-.464 1.199 7.975 7.975 0 0 0-.136 1.362m-.68 0c0-.818.135-1.608.461-2.344.192-.463.464-.871.819-1.199.299-.271.653-.49 1.035-.626.3-.082.627-.135.926-.164a2.608 2.608 0 0 1 1.934.763 3.66 3.66 0 0 1 1.036 1.772c.163.599.272 1.199.272 1.825a5.616 5.616 0 0 1-.462 2.398 3.428 3.428 0 0 1-.846 1.226c-.3.273-.626.491-1.007.6-.3.081-.6.136-.9.136-.49 0-1.008-.109-1.444-.382a2.904 2.904 0 0 1-1.008-.98c-.272-.436-.49-.899-.6-1.39a5.602 5.602 0 0 1-.217-1.635m8.719 3.569h1.199c.218 0 .436 0 .681-.027.218-.027.436-.082.627-.135.572-.219 1.09-.628 1.39-1.173a4.22 4.22 0 0 0 .517-2.288c.027-.627-.109-1.254-.327-1.854a2.91 2.91 0 0 0-.98-1.171 3.16 3.16 0 0 0-.872-.382 4.248 4.248 0 0 0-1.01-.108h-1.252l.027 7.139zm-.655.628v-8.366h1.963c.327 0 .68.028 1.008.082.3.054.6.163.872.299.599.3 1.09.764 1.417 1.363a4.9 4.9 0 0 1 .518 2.316c0 1.144-.219 2.071-.655 2.751a3.182 3.182 0 0 1-1.825 1.364c-.436.108-.873.19-1.307.19h-1.99zm7.985-3.325h2.86l-1.444-4.251-1.416 4.25zm-1.826 3.325l2.97-8.366h.6l2.997 8.366h-.681l-.98-2.698h-3.272l-.953 2.698h-.681zm7.575-.001v-8.365h4.36v.6H51.65v3.133h2.751v.6H51.65v4.005zm5.531-4.197c0 .682.11 1.363.355 2.017.164.545.517 1.009.953 1.335.354.246.79.383 1.253.383.573 0 1.145-.219 1.526-.655.409-.436.709-.953.846-1.526.136-.517.19-1.035.217-1.553 0-.68-.108-1.335-.354-1.962a2.834 2.834 0 0 0-.926-1.335c-.355-.273-.818-.409-1.282-.436a2.07 2.07 0 0 0-1.143.327 2.58 2.58 0 0 0-.79.845c-.219.382-.382.79-.463 1.199a4.804 4.804 0 0 0-.192 1.362m-.68 0c0-.818.136-1.608.462-2.344.191-.463.464-.871.818-1.199.3-.271.653-.49 1.035-.626.3-.082.627-.135.926-.164a2.608 2.608 0 0 1 1.935.763 3.66 3.66 0 0 1 1.036 1.772c.163.599.273 1.199.273 1.825a5.633 5.633 0 0 1-.463 2.398 3.428 3.428 0 0 1-.846 1.226c-.3.273-.626.491-1.008.6-.3.081-.6.136-.9.136-.49 0-1.007-.109-1.443-.382a2.904 2.904 0 0 1-1.009-.98c-.272-.436-.49-.899-.599-1.39a5.602 5.602 0 0 1-.217-1.635m8.065 4.196v-8.365h.68l4.442 7.03v-7.03h.627v8.365h-.545l-4.577-7.193v7.22h-.628zm7.683 0v-8.365h4.469v.6h-3.814v3.024h2.78v.599h-2.78v3.515h4.032v.6z"/></g></svg>