<svg xmlns="http://www.w3.org/2000/svg" width="24" height="24" viewBox="0 0 24 24"><g fill="none" fill-rule="evenodd"><path d="M0 0h24v24H0z"/><path stroke="#FFF" stroke-linecap="round" stroke-linejoin="round" d="M2.5 7.438c5.242-5.247 13.744-5.25 18.991-.01l.009.01M5.25 10.314a9.595 9.595 0 0 1 13.57 0M8.075 13.135a5.579 5.579 0 0 1 7.888 0M10.5 17.5h3v4h-3z"/><path stroke="#FFF" stroke-linecap="round" stroke-linejoin="round" d="M15.49 16.75l-3.085-3.088a.516.516 0 0 0-.792 0L8.5 16.75v4.195a.56.56 0 0 0 .566.555h5.886a.536.536 0 0 0 .538-.555V16.75z"/></g></svg>