<svg xmlns="http://www.w3.org/2000/svg" xmlns:xlink="http://www.w3.org/1999/xlink" width="26" height="23" viewBox="0 0 26 23">
    <defs>
        <path id="a" d="M0 .018h25.249v14.197H0z"/>
    </defs>
    <g fill="none" fill-rule="evenodd">
        <path fill="#FFF" d="M.377 22.733h25.341v-.882H.377z"/>
        <g transform="translate(0 .795)">
            <mask id="b" fill="#fff">
                <use xlink:href="#a"/>
            </mask>
            <path fill="#FFF" d="M1.3 2.374c0-.582.475-1.056 1.057-1.056h20.534c.582 0 1.057.474 1.057 1.056v9.484c0 .583-.475 1.057-1.057 1.057h-6.746v-1.252c0-.941-.367-1.825-1.032-2.492a3.497 3.497 0 0 0-2.488-1.029 3.525 3.525 0 0 0-3.522 3.52v1.253H2.357A1.058 1.058 0 0 1 1.3 11.858V2.374zm1.057 11.84h7.396c.36 0 .65-.29.65-.65v-1.901c0-1.224.997-2.22 2.222-2.22a2.2 2.2 0 0 1 1.568.647c.42.421.652.979.652 1.573v1.9c0 .36.29.652.65.652h7.396a2.36 2.36 0 0 0 2.358-2.357V2.374A2.36 2.36 0 0 0 22.89.018H2.357A2.36 2.36 0 0 0 0 2.374v9.484a2.36 2.36 0 0 0 2.358 2.357z" mask="url(#b)"/>
        </g>
        <path fill="#FFF" d="M6.285 4.857c.716 0 1.3.583 1.3 1.3 0 .717-.584 1.3-1.3 1.3-.718 0-1.301-.583-1.301-1.3 0-.717.583-1.3 1.3-1.3m0 3.902c1.435 0 2.601-1.168 2.601-2.601a2.604 2.604 0 0 0-2.6-2.602 2.604 2.604 0 0 0-2.601 2.602c0 1.433 1.166 2.6 2.6 2.6M18.963 4.857c.718 0 1.301.583 1.301 1.3a1.302 1.302 0 0 1-2.602 0c0-.717.584-1.3 1.301-1.3m0 3.902c1.435 0 2.601-1.168 2.601-2.601a2.604 2.604 0 0 0-2.6-2.602 2.604 2.604 0 0 0-2.602 2.602c0 1.433 1.167 2.6 2.601 2.6"/>
    </g>
</svg>
