<svg width="25" height="17" viewBox="0 0 25 17" xmlns="http://www.w3.org/2000/svg" xmlns:xlink="http://www.w3.org/1999/xlink"><defs><path id="a" d="M.384.64h24.324v16.197H.384z"/></defs><g transform="translate(0 .167)" fill="none" fill-rule="evenodd"><mask id="b" fill="#fff"><use xlink:href="#a"/></mask><path d="M20.053 6.839V6.82c-.026-.002-.047.003-.073.003h.003a.952.952 0 0 0-.909.921.95.95 0 0 0 .86.966c.025.001.049.006.072.008l.002-.019a.947.947 0 0 0 .834-.91.948.948 0 0 0-.789-.95M18.42 8.38v-.02c-.024 0-.048.006-.071.006v.001a.952.952 0 0 0-.911.921.95.95 0 0 0 .865.962H18.3c.025.003.049.01.072.01v-.02a.945.945 0 0 0 .836-.909.944.944 0 0 0-.788-.95m4.95 5.395c-.47 1.328-2.24 2.316-3.89 1.647-.786-.32-1.206-1.014-1.657-1.647-.302-.424-.895-1.49-1.544-1.703-.888-.29-2.525-.055-3.718-.055-1.469 0-2.733-.214-3.66.055-.696.202-1.12 1.128-1.544 1.703-.425.58-.906 1.264-1.602 1.589-1.926.906-4.104-.48-4.173-2.497-.023-.69.268-1.52.458-2.326.173-.753.347-1.546.512-2.27.37-1.603.537-3.286 1.203-4.373.718-1.172 2.097-1.857 3.544-1.986.517-.045 1.31-.028 1.774.112 1.587.488 1.976 1.71 4.461 1.307 1-.164 1.676-1.038 2.572-1.307 2.393-.712 4.628.596 5.433 2.158.568 1.105.79 2.906 1.087 4.257.175.806.302 1.52.457 2.214.212.95.658 2.073.287 3.122m1.013-2.851a13.589 13.589 0 0 1-.13-.527 65.88 65.88 0 0 1-.215-1.03c-.075-.376-.152-.764-.243-1.18-.07-.321-.136-.672-.207-1.046-.234-1.238-.477-2.518-.982-3.499-.43-.832-1.15-1.585-2.028-2.122a5.979 5.979 0 0 0-3.114-.883c-.574 0-1.144.086-1.702.252-.577.173-1.041.487-1.449.763-.367.245-.68.46-.973.507a4.552 4.552 0 0 1-.72.064c-.695 0-1.031-.208-1.592-.553-.432-.269-.919-.571-1.604-.779C8.914.74 8.284.706 7.846.706c-.225 0-.45.008-.65.025C5.278.9 3.611 1.855 2.733 3.285c-.604.983-.842 2.203-1.093 3.496-.08.408-.161.827-.254 1.225l-.23 1.014c-.091.416-.188.844-.282 1.253a18.24 18.24 0 0 1-.153.602c-.168.623-.337 1.27-.337 1.915l.002.121v-.002A3.996 3.996 0 0 0 1.68 15.72a4.145 4.145 0 0 0 2.825 1.116c.61 0 1.204-.133 1.764-.397.936-.441 1.523-1.24 1.996-1.881l.058-.08a8.4 8.4 0 0 0 .34-.508c.154-.236.437-.674.587-.761.207-.058.484-.083.874-.083.307 0 .655.016 1.022.034.427.021.91.044 1.415.044.393 0 .822-.023 1.236-.044.406-.022.824-.045 1.198-.045.499 0 .754.041.882.079.03.02.13.096.3.305.163.205.319.441.457.647.074.116.146.225.213.318l.14.196c.45.644 1.012 1.444 2.043 1.862a4.1 4.1 0 0 0 1.548.303 4.32 4.32 0 0 0 2.413-.752c.707-.482 1.244-1.157 1.507-1.903.14-.393.21-.823.21-1.274 0-.72-.172-1.385-.325-1.971M16.865 6.76v-.02c-.026-.002-.049.004-.073.004a.946.946 0 0 0-.906.92.95.95 0 0 0 .861.966h-.001c.025.003.046.008.072.008V8.62a.95.95 0 0 0 .835-.91.948.948 0 0 0-.788-.95m-8.078-.035c-.005-.01-.007-.019-.011-.03a.452.452 0 0 0-.08-.119l-.035-.033-.02-.02.007.01a.479.479 0 0 0-.301-.115h-.709v-.703a.48.48 0 0 0-.031-.164c-.005-.008-.008-.018-.012-.03a.543.543 0 0 0-.082-.118.288.288 0 0 0-.036-.032c-.006-.007-.01-.016-.019-.022l.007.011a.472.472 0 0 0-.299-.113h-.474a.47.47 0 0 0-.473.468v.703h-.708a.473.473 0 0 0-.474.471v.47c0 .115.046.214.113.296-.003-.002-.007-.002-.01-.007.007.01.015.013.02.021.012.011.021.024.035.034.037.032.078.06.12.082l.03.01a.45.45 0 0 0 .166.033h.708v.705a.46.46 0 0 0 .116.296c-.005-.002-.01-.004-.01-.007.005.01.012.014.02.021l.033.035c.037.032.075.06.12.08.011.006.02.007.029.01A.44.44 0 0 0 6.692 9h.474a.47.47 0 0 0 .472-.468v-.705h.71a.47.47 0 0 0 .473-.468v-.47a.458.458 0 0 0-.034-.165m3.124 1.927h-.675a.253.253 0 0 0-.253.25c0 .14.114.251.253.251h.675a.253.253 0 0 0 .253-.25.253.253 0 0 0-.253-.25m2.011 0h-.674a.252.252 0 0 0-.254.248c0 .14.114.252.254.252h.674c.14 0 .254-.114.254-.252a.252.252 0 0 0-.254-.249m4.53-1.556v-.021a.945.945 0 0 0 .835-.91.948.948 0 0 0-.788-.948v-.021a.955.955 0 0 0-.98.926.952.952 0 0 0 .933.974" fill="#FFF" mask="url(#b)"/></g></svg>