<?xml version="1.0" encoding="UTF-8"?>
<svg width="168px" height="199px" viewBox="0 0 168 199" version="1.1" xmlns="http://www.w3.org/2000/svg" xmlns:xlink="http://www.w3.org/1999/xlink">
    <title>Group 2</title>
    <defs>
        <linearGradient x1="0%" y1="100%" x2="100%" y2="0%" id="linearGradient-1">
            <stop stop-color="#007C92" offset="0%"></stop>
            <stop stop-color="#00B0CA" offset="100%"></stop>
        </linearGradient>
    </defs>
    <g id="✅--PLP-y-PDP-Total" stroke="none" stroke-width="1" fill="none" fill-rule="evenodd">
        <g id="PLP-Desktop---Oferta-flash-Ilimitada-Total---producción" transform="translate(-773.000000, -225.000000)">
            <g id="Group-2" transform="translate(773.000000, 225.200001)">
                <g id="Bolo-50-Desktop-Copy-3">
                    <g id="Bolo-50---Desk" fill-rule="nonzero">
                        <circle id="Oval-Copy-4" fill="url(#linearGradient-1)" cx="54.050119" cy="54.050119" r="54.050119"></circle>
                        <path d="M51.4475597,66.9775217 C52.2691361,66.9775217 52.9096413,67.1991311 53.3690755,67.6423499 C53.8285096,68.0855687 54.0582267,68.8260685 54.0582267,69.8638492 L54.0582267,69.8638492 L54.0582267,74.9068146 L52.9718001,74.9068146 L52.9231541,74.2419864 L52.7629467,74.3966806 C52.5432831,74.5929941 52.2994047,74.749526 52.0313113,74.8662763 C51.6961947,75.0122142 51.3286473,75.0851832 50.9286694,75.0851832 C50.6043629,75.0851832 50.2935692,75.0338346 49.9962883,74.9311376 C49.6990074,74.8284406 49.4314545,74.6770975 49.1936298,74.4771086 C48.9558051,74.2771196 48.7666263,74.0257821 48.6260935,73.723096 C48.4855607,73.42041 48.4152943,73.069078 48.4152943,72.6691 C48.4152943,71.912385 48.6909548,71.3151206 49.2422758,70.8773069 C49.7935968,70.4394931 50.4151841,70.1638326 51.1070379,70.0503254 C51.7988917,69.9368181 52.3880484,69.8800645 52.8745081,69.8800645 L52.8745081,69.8800645 L52.8745081,69.7827726 L52.8696035,69.5733747 C52.8434454,69.0331308 52.7126552,68.6380909 52.4772327,68.3882548 C52.2123824,68.1071892 51.8367275,67.9666564 51.3502678,67.9666564 C51.0043409,67.9666564 50.6530089,68.0342202 50.2962718,68.1693479 C49.9395347,68.3044756 49.5936078,68.5071671 49.2584911,68.7774225 L49.2584911,68.7774225 L48.8693233,67.8693644 L49.0457461,67.7412634 C49.2913542,67.572624 49.5784735,67.4126328 49.907104,67.2612898 C50.3178922,67.0721111 50.8313774,66.9775217 51.4475597,66.9775217 Z M67.5493754,66.9775217 C68.3493314,66.9775217 69.0195647,67.2072387 69.5600755,67.6666729 C70.1005863,68.1261071 70.4708361,68.6747255 70.6708251,69.3125282 C70.8708141,69.9503309 70.9708086,70.5232723 70.9708086,71.0313524 C70.9708086,71.8313084 70.8005477,72.5718081 70.4600259,73.2528517 C70.1195041,73.9338952 69.6897981,74.4095447 69.1709077,74.6798001 C68.6520174,74.9500555 68.1115066,75.0851832 67.5493754,75.0851832 C66.976434,75.0851832 66.4764616,74.9689734 66.0494581,74.7365537 C65.6224546,74.5041341 65.26842,74.196043 64.9873544,73.8122803 C64.7062888,73.4285177 64.4927871,72.990704 64.3468492,72.4988392 C64.2009112,72.0069744 64.1279423,71.5070019 64.1279423,70.9989218 C64.1279423,70.2313965 64.2846904,69.5125172 64.5981867,68.8422838 C64.9116829,68.1720505 65.3386864,67.6936984 65.8791972,67.4072277 C66.4197079,67.120757 66.976434,66.9775217 67.5493754,66.9775217 Z M41.8156578,64.2047014 L41.8156578,74.9068146 L40.567078,74.9068146 L40.567078,65.6802958 L38.2482868,67.2369668 L37.6483198,66.3451241 L40.7292312,64.2047014 L41.8156578,64.2047014 Z M59.6362978,66.9775217 C60.6524581,66.9775217 61.3659323,67.2369668 61.7767205,67.7558572 C62.1875086,68.2747475 62.3929027,69.053083 62.3929027,70.0908637 L62.3929027,70.0908637 L62.3929027,74.9068146 L61.2091841,74.9068146 L61.2091841,70.058433 L61.2040793,69.8474337 C61.1768536,69.2986484 61.040725,68.8609014 60.7956934,68.5341927 C60.5200329,68.1666454 60.0687064,67.9828717 59.4417139,67.9828717 C59.041736,67.9828717 58.6579733,68.072056 58.290426,68.2504245 C57.9228787,68.4287931 57.6039773,68.6260795 57.333722,68.8422838 L57.333722,68.8422838 L57.333722,74.9068146 L56.1500034,74.9068146 L56.1500034,67.1721055 L57.23643,67.1721055 L57.3175066,67.7882878 L57.5049558,67.6507819 C57.7626713,67.4743592 58.0515203,67.3256106 58.3715026,67.2045362 C58.7714806,67.0531932 59.193079,66.9775217 59.6362978,66.9775217 Z M67.5493754,67.9666564 C66.9980545,67.9666564 66.5386203,68.15043 66.171073,68.5179774 C65.8035257,68.8855247 65.5657009,69.2963129 65.4575988,69.7503419 C65.3494966,70.2043709 65.2954455,70.6205642 65.2954455,70.9989218 C65.2954455,71.615104 65.4035477,72.1799378 65.619752,72.693423 C65.8359563,73.2069083 66.1170219,73.5663479 66.4629488,73.771742 C66.8088757,73.9771361 67.1710179,74.0798331 67.5493754,74.0798331 C68.0574556,74.0798331 68.4952693,73.9068697 68.8628166,73.5609428 C69.2303639,73.2150159 69.4789989,72.7988226 69.6087215,72.3123629 C69.738444,71.8259032 69.8033053,71.3934946 69.8033053,71.0151371 C69.8033053,70.4205753 69.6925006,69.8719568 69.4708912,69.3692818 C69.2492818,68.8666068 68.9655137,68.5071671 68.6195868,68.2909628 C68.2736599,68.0747585 67.9169228,67.9666564 67.5493754,67.9666564 Z M52.8745081,70.8691992 L52.5364637,70.8842885 C51.9861937,70.916569 51.5016108,70.9845082 51.0827149,71.0881061 C50.5800399,71.2124235 50.20979,71.4124125 49.9719653,71.688073 C49.7341406,71.9637335 49.6152282,72.2961476 49.6152282,72.6853154 C49.6152282,73.0312423 49.7152227,73.3231181 49.9152117,73.5609428 C50.1152007,73.7987675 50.3178922,73.9420029 50.5232863,73.9906489 C50.7286804,74.0392948 50.912454,74.0636178 51.0746073,74.0636178 C51.4313444,74.0636178 51.7583534,73.9852438 52.0556343,73.8284956 C52.3529152,73.6717475 52.6258732,73.4852713 52.8745081,73.269067 L52.8745081,73.269067 L52.8745081,70.8691992 Z M61.2902608,63.6695958 L62.0361656,64.0587635 L61.9631967,64.2652607 C61.8103093,64.6650181 61.6157255,64.9853534 61.379445,65.2262668 C61.1037846,65.5073324 60.7875858,65.6478652 60.4308486,65.6478652 C60.2362648,65.6478652 60.047086,65.6046243 59.8633123,65.5181426 C59.6795387,65.4316609 59.495765,65.3235587 59.3119914,65.1938361 C58.8795827,64.8803399 58.5552763,64.7235918 58.339072,64.7235918 C58.1552983,64.7235918 57.9985502,64.7965607 57.8688276,64.9424986 C57.739105,65.0884365 57.5985722,65.3343689 57.4472292,65.6802958 L57.4472292,65.6802958 L56.7013244,65.3073434 L56.7699913,65.1048173 C56.9149364,64.7116785 57.1055492,64.3900194 57.3418296,64.1398401 C57.6174901,63.8479643 57.9336889,63.7020264 58.290426,63.7020264 C58.5174405,63.7020264 58.7417525,63.7587801 58.9633619,63.8722873 C59.1849713,63.9857946 59.393068,64.1182197 59.5876518,64.2695627 C59.8903379,64.5073875 60.1551882,64.6262998 60.3822027,64.6262998 C60.5335457,64.6262998 60.6848887,64.5560334 60.8362317,64.4155006 C60.9875747,64.2749678 61.1389178,64.0263329 61.2902608,63.6695958 L61.2902608,63.6695958 Z M26.8075004,30.844414 L26.8075004,35.1102157 L17.1907369,35.1102157 L17.1907369,39.2637595 L17.2239986,39.2518061 C17.2932936,39.2327499 17.4318836,39.2180247 17.6397687,39.2076305 C17.8892308,39.1951574 18.1012736,39.1889208 18.275897,39.1889208 C21.2943883,39.1889208 23.6206223,39.868705 25.2545989,41.2282734 C26.8885756,42.5878418 27.7055639,44.702033 27.7055639,47.570847 C27.7055639,49.1175119 27.4623384,50.4458975 26.9758873,51.5560038 C26.4894363,52.6661101 25.8221252,53.5766467 24.9739541,54.2876137 C24.125783,54.9985806 23.1466443,55.5162145 22.036538,55.8405152 C20.9264317,56.1648159 19.7352502,56.3269663 18.4629936,56.3269663 C17.5898763,56.3269663 16.7604148,56.2583642 15.9746093,56.12116 C15.1888037,55.9839559 14.4653636,55.7968593 13.8042891,55.5598703 C13.1432146,55.3228814 12.5507421,55.0609462 12.0268717,54.7740648 C11.5030013,54.4871834 11.0789158,54.1940654 10.7546151,53.8947109 L10.7546151,53.8947109 L12.7004194,49.7411671 L13.0765216,50.021812 C13.8325445,50.5670648 14.6114771,51.0160966 15.4133196,51.3689073 C16.3488024,51.7805197 17.3778335,51.9863259 18.5004129,51.9863259 C19.0991219,51.9863259 19.6791213,51.9114873 20.240411,51.7618101 C20.8017007,51.6121328 21.2943883,51.3689073 21.7184738,51.0321334 C22.1425594,50.6953596 22.4793332,50.258801 22.7287953,49.7224575 C22.9782574,49.186114 23.1029884,48.5188029 23.1029884,47.7205242 C23.1029884,46.1988055 22.6290105,45.0886992 21.6810545,44.3902054 C20.7330986,43.6917115 19.3610571,43.3424646 17.5649301,43.3424646 C16.716759,43.3424646 15.8997706,43.4110667 15.1139651,43.5482708 C14.3281595,43.685475 13.610956,43.8289157 12.9623545,43.9785929 L12.9623545,43.9785929 L12.9623545,30.844414 L26.8075004,30.844414 Z M38.9313579,30.5824788 C40.6027539,30.5824788 42.0059781,30.9753816 43.1410306,31.7611872 C44.2760831,32.5469927 45.1928563,33.5573142 45.8913502,34.7921515 C46.589844,36.0269889 47.0887682,37.4052669 47.3881227,38.9269856 C47.6874772,40.4487044 47.8371544,41.95795 47.8371544,43.4547225 C47.8371544,44.9514951 47.6874772,46.4607407 47.3881227,47.9824594 C47.0887682,49.5041782 46.589844,50.8824562 45.8913502,52.1172935 C45.1928563,53.3521309 44.2760831,54.3624523 43.1410306,55.1482579 C42.0059781,55.9340635 40.6027539,56.3269663 38.9313579,56.3269663 C37.2599619,56.3269663 35.8505011,55.9340635 34.7029755,55.1482579 C33.5554499,54.3624523 32.6324402,53.3521309 31.9339463,52.1172935 C31.2354525,50.8824562 30.7365283,49.5041782 30.4371738,47.9824594 C30.1378193,46.4607407 29.988142,44.9514951 29.988142,43.4547225 C29.988142,41.95795 30.1378193,40.4487044 30.4371738,38.9269856 C30.7365283,37.4052669 31.2354525,36.0269889 31.9339463,34.7921515 C32.6324402,33.5573142 33.5554499,32.5469927 34.7029755,31.7611872 C35.8505011,30.9753816 37.2599619,30.5824788 38.9313579,30.5824788 Z M68.7919698,44.3902054 C69.764872,44.3902054 70.6255162,44.5585923 71.3739024,44.8953661 C72.1222887,45.2321399 72.7397074,45.6749351 73.2261584,46.2237517 C73.7126095,46.7725683 74.0805661,47.3962235 74.3300282,48.0947174 C74.5794903,48.7932112 74.7042213,49.5041782 74.7042213,50.2276182 C74.7042213,50.9760045 74.5794903,51.6994445 74.3300282,52.3979384 C74.0805661,53.0964322 73.706373,53.7200874 73.2074488,54.268904 C72.7085246,54.8177206 72.0911059,55.2605158 71.3551928,55.5972897 C70.6192796,55.9340635 69.7523989,56.1024504 68.7545505,56.1024504 C67.7567022,56.1024504 66.8835848,55.9340635 66.1351986,55.5972897 C65.3868123,55.2605158 64.7631571,54.8177206 64.2642329,54.268904 C63.7653088,53.7200874 63.3911156,53.0964322 63.1416535,52.3979384 C62.8921914,51.6994445 62.7674604,50.9884776 62.7674604,50.2650375 C62.7674604,49.5415975 62.8921914,48.824394 63.1416535,48.113427 C63.3911156,47.4024601 63.7653088,46.7725683 64.2642329,46.2237517 C64.7631571,45.6749351 65.3868123,45.2321399 66.1351986,44.8953661 C66.8835848,44.5585923 67.7691753,44.3902054 68.7919698,44.3902054 Z M72.2345466,30.5450595 L74.7042213,33.1269921 L51.3545699,56.0276118 L48.8848952,53.3334212 L72.2345466,30.5450595 Z M84.9193005,42.9757173 L84.9193005,55.7923376 L83.6318738,55.7923376 L83.5165819,55.04294 L83.3545861,55.2076047 C83.0814794,55.468257 82.7928047,55.6599654 82.4885621,55.78273 C82.123471,55.9300475 81.7167467,56.0037062 81.2683891,56.0037062 C80.6534988,56.0037062 80.1058621,55.8788066 79.625479,55.6290074 C79.1450959,55.3792082 78.7415742,55.0365349 78.4149137,54.6009876 C78.0882532,54.1654403 77.838454,53.6498291 77.6655161,53.0541541 C77.4925782,52.4584791 77.4061092,51.8147658 77.4061092,51.1230142 C77.4061092,50.162248 77.6110727,49.2975585 78.0209995,48.5289456 C78.4309264,47.7603327 78.9497402,47.212696 79.5774407,46.8860355 C80.2051413,46.559375 80.8712724,46.3960447 81.5758343,46.3960447 C82.0241918,46.3960447 82.4052957,46.4312728 82.719146,46.501729 C83.0329963,46.5721852 83.2988082,46.652249 83.5165819,46.7419206 L83.5165819,46.7419206 L83.5165819,42.9757173 L84.9193005,42.9757173 Z M89.3772554,44.1286366 L89.3772554,46.6266286 L91.6638788,46.6266286 L91.6638788,47.837194 L89.3580401,47.837194 L89.3580401,53.6978674 L89.3619432,53.8589459 C89.3801577,54.2183325 89.4621231,54.4624772 89.6078393,54.59138 C89.7743721,54.7386974 89.9857406,54.8123562 90.2419449,54.8123562 C90.6518718,54.8123562 91.0746089,54.6458234 91.5101562,54.3127578 L91.5101562,54.3127578 L91.8944627,55.4272465 L91.7221253,55.5389356 C91.5407806,55.6470218 91.3324145,55.7442993 91.0970268,55.8307683 C90.7831765,55.9460602 90.4212879,56.0037062 90.011361,56.0037062 C89.3580401,56.0037062 88.8552391,55.8275657 88.5029582,55.4752848 C88.1506773,55.1230039 87.9745368,54.5817723 87.9745368,53.85159 L87.9745368,53.85159 L87.9745368,47.837194 L86.4757416,47.837194 L86.4757416,46.6266286 L87.9745368,46.6266286 L87.9745368,44.1286366 L89.3772554,44.1286366 Z M97.0249539,46.3960447 C97.9729098,46.3960447 98.7671432,46.6682618 99.4076539,47.212696 C100.048165,47.7571301 100.486915,48.4072485 100.723904,49.1630512 C100.960893,49.9188539 101.079387,50.5977953 101.079387,51.1998755 C101.079387,52.1478314 100.877626,53.0253311 100.474104,53.8323747 C100.070583,54.6394183 99.5613765,55.2030677 98.9464862,55.5233231 C98.3315959,55.8435785 97.6910851,56.0037062 97.0249539,56.0037062 C96.3460125,56.0037062 95.75354,55.8659964 95.2475365,55.5905767 C94.741533,55.3151571 94.3219985,54.950066 93.9889329,54.4953033 C93.6558673,54.0405407 93.4028655,53.521727 93.2299276,52.9388622 C93.0569897,52.3559974 92.9705208,51.7635249 92.9705208,51.1614448 C92.9705208,50.2519195 93.1562689,49.4000402 93.5277651,48.6058069 C93.8992614,47.8115735 94.4052649,47.2447215 95.0457756,46.9052508 C95.6862864,46.5657801 96.3460125,46.3960447 97.0249539,46.3960447 Z M81.8064182,47.5873948 C81.0890461,47.5873948 80.4805609,47.7987633 79.9809625,48.2215004 C79.4813641,48.6442375 79.1579062,49.1342283 79.0105887,49.6914726 C78.8632712,50.248717 78.7896125,50.7515179 78.7896125,51.1998755 C78.7896125,52.006919 78.9209172,52.7050758 79.1835266,53.2943457 C79.446136,53.8836156 79.7824041,54.2839348 80.192331,54.4953033 C80.6022579,54.7066719 81.0378052,54.8123562 81.498973,54.8123562 C81.8704692,54.8123562 82.2291553,54.7322923 82.5750311,54.5721646 C82.9209069,54.4120369 83.2347572,54.146225 83.5165819,53.7747287 L83.5165819,53.7747287 L83.5165819,48.0293472 L83.3713141,47.955176 C83.1684002,47.859868 82.928593,47.7789075 82.6518924,47.7122944 C82.3060166,47.629028 82.0241918,47.5873948 81.8064182,47.5873948 Z M97.0249539,47.5681794 C96.3716329,47.5681794 95.8271988,47.7859531 95.3916514,48.2215004 C94.9561041,48.6570477 94.6742794,49.1438359 94.5461772,49.681865 C94.4180751,50.219894 94.354024,50.7130873 94.354024,51.1614448 C94.354024,51.8916271 94.4821262,52.5609608 94.7383305,53.1694461 C94.9945348,53.7779313 95.3276004,54.2038709 95.7375273,54.447265 C96.1474541,54.6906591 96.5765964,54.8123562 97.0249539,54.8123562 C97.627034,54.8123562 98.1458477,54.6073927 98.581395,54.1974658 C99.0169424,53.7875389 99.3115773,53.2943457 99.4652999,52.717886 C99.6190225,52.1414263 99.6958838,51.6290177 99.6958838,51.1806601 C99.6958838,50.4760983 99.5645791,49.8259799 99.3019697,49.2303049 C99.0393602,48.6346299 98.7030921,48.2086902 98.2931652,47.9524859 C97.8832383,47.6962816 97.4605012,47.5681794 97.0249539,47.5681794 Z M68.7171312,47.570847 C67.9936911,47.570847 67.4573477,47.8514918 67.1081007,48.4127815 C66.7588538,48.9740712 66.5842303,49.5790168 66.5842303,50.2276182 C66.5842303,50.8762196 66.7588538,51.4811652 67.1081007,52.0424549 C67.4573477,52.6037446 67.9936911,52.8843895 68.7171312,52.8843895 C69.4405712,52.8843895 69.9769147,52.6037446 70.3261617,52.0424549 C70.6754086,51.4811652 70.850032,50.8762196 70.850032,50.2276182 C70.850032,49.5790168 70.6754086,48.9740712 70.3261617,48.4127815 C69.9769147,47.8514918 69.4405712,47.570847 68.7171312,47.570847 Z M38.9313579,34.8856998 C38.2079178,34.8856998 37.5904992,35.1102157 37.0791019,35.5592474 C36.5677046,36.0082792 36.1436191,36.6132248 35.8068452,37.3740841 C35.4700714,38.1349435 35.2268459,39.033007 35.0771686,40.0682747 C34.9274914,41.1035423 34.8526528,42.2198852 34.8526528,43.4173032 C34.8526528,44.6147212 34.9337279,45.7310641 35.0958783,46.7663317 C35.2580287,47.8015994 35.5012542,48.712136 35.8255549,49.4979416 C36.1498556,50.2837472 36.5677046,50.9011659 37.0791019,51.3501976 C37.5904992,51.7992294 38.2079178,52.0237452 38.9313579,52.0237452 C39.6298517,52.0237452 40.2347973,51.7992294 40.7461946,51.3501976 C41.2575919,50.9011659 41.6816774,50.2837472 42.0184512,49.4979416 C42.3552251,48.712136 42.5984506,47.8015994 42.7481278,46.7663317 C42.8978051,45.7310641 42.9726437,44.6147212 42.9726437,43.4173032 C42.9726437,42.2198852 42.8978051,41.1035423 42.7481278,40.0682747 C42.5984506,39.033007 42.3552251,38.1349435 42.0184512,37.3740841 C41.6816774,36.6132248 41.2575919,36.0082792 40.7461946,35.5592474 C40.2347973,35.1102157 39.6298517,34.8856998 38.9313579,34.8856998 Z M54.6100501,30.5450595 C55.6078985,30.5450595 56.4810158,30.7134464 57.229402,31.0502202 C57.9777883,31.386994 58.6014435,31.8297892 59.1003677,32.3786058 C59.5992919,32.9274224 59.973485,33.5510776 60.2229471,34.2495715 C60.4724092,34.9480653 60.5971402,35.6590323 60.5971402,36.3824723 C60.5971402,37.1308586 60.4724092,37.8542987 60.2229471,38.5527925 C59.973485,39.2512863 59.5992919,39.8749416 59.1003677,40.4237582 C58.6014435,40.9725748 57.9777883,41.41537 57.229402,41.7521438 C56.4810158,42.0889176 55.6078985,42.2573045 54.6100501,42.2573045 C53.6122018,42.2573045 52.745321,42.0889176 52.0094079,41.7521438 C51.2734947,41.41537 50.656076,40.9725748 50.1571519,40.4237582 C49.6582277,39.8749416 49.2840345,39.2512863 49.0345725,38.5527925 C48.7851104,37.8542987 48.6603793,37.1433317 48.6603793,36.4198916 C48.6603793,35.6715054 48.7851104,34.9480653 49.0345725,34.2495715 C49.2840345,33.5510776 49.6582277,32.9274224 50.1571519,32.3786058 C50.656076,31.8297892 51.2734947,31.386994 52.0094079,31.0502202 C52.745321,30.7134464 53.6122018,30.5450595 54.6100501,30.5450595 Z M54.5726308,33.6882818 C54.2233839,33.6882818 53.9115563,33.769357 53.637148,33.9315073 C53.3627397,34.0936577 53.1382238,34.2994639 52.9636003,34.548926 C52.7889769,34.7983881 52.6580093,35.0790329 52.5706976,35.3908605 C52.4833858,35.7026881 52.43973,36.0207523 52.43973,36.345053 C52.43973,36.9936545 52.6143534,37.6048366 52.9636003,38.1785994 C53.3128473,38.7523622 53.8491908,39.0392436 54.5726308,39.0392436 C55.2960709,39.0392436 55.8324144,38.7523622 56.1816613,38.1785994 C56.5309082,37.6048366 56.7055317,36.9936545 56.7055317,36.345053 C56.7055317,36.0207523 56.6618758,35.7026881 56.5745641,35.3908605 C56.4872523,35.0790329 56.3562847,34.7983881 56.1816613,34.548926 C56.0070378,34.2994639 55.7825219,34.0936577 55.5081136,33.9315073 C55.2337053,33.769357 54.9218777,33.6882818 54.5726308,33.6882818 Z" id="Combined-Shape" fill="#FFFFFF"></path>
                    </g>
                    <g id="Group" transform="translate(9.392461, 30.430071)">
                        <g id="Group-7" transform="translate(0.000000, 2.000000)"></g>
                    </g>
                </g>
                <g id="Group-3" transform="translate(43.000000, 74.000000)">
                    <g id="Bolo-TV--Desk" transform="translate(0.256071, 0.000000)">
                        <circle id="Oval" fill="#333333" cx="61.5381176" cy="61.5381176" r="61.5381176"></circle>
                        <path d="M41.5848492,19.9673326 L41.5848492,15.9692198 L43.3601307,15.9692198 C44.4143594,15.9692198 45.2174629,15.7205809 45.7694412,15.2233032 C46.3214195,14.7260255 46.5974086,13.9950272 46.5974086,13.0303084 C46.5974086,12.035753 46.3363378,11.2848637 45.8141962,10.7776404 C45.2920546,10.2704171 44.4889511,10.0168055 43.4048856,10.0168055 L43.4048856,10.0168055 L40.451056,10.0168055 L40.451056,19.9673326 L41.5848492,19.9673326 Z M43.4347223,14.9249366 L41.5848492,14.9249366 L41.5848492,11.0461704 L43.419804,11.0461704 C44.0463739,11.0461704 44.5312197,11.2003264 44.8743413,11.5086386 C45.2174629,11.8169508 45.3890237,12.3142285 45.3890237,13.0004718 C45.3890237,13.686715 45.2075174,14.17902 44.8445046,14.4773866 C44.4814919,14.7757532 44.0115645,14.9249366 43.4347223,14.9249366 L43.4347223,14.9249366 Z M49.3423816,20.1314343 C49.7103671,20.1314343 50.048516,20.0643018 50.3568281,19.9300368 C50.6651403,19.7957718 50.9386431,19.6043199 51.1773364,19.355681 L51.1773364,19.355681 L51.2220914,19.9673326 L52.2216196,19.9673326 L52.2216196,15.3277315 C52.2216196,14.3729583 52.0102766,13.6916878 51.5875905,13.2839201 C51.1649044,12.8761524 50.5756303,12.6722685 49.8197682,12.6722685 C49.2528716,12.6722685 48.7804578,12.7592921 48.4025267,12.9333393 C48.0245956,13.1073865 47.7063379,13.2938656 47.4477535,13.4927767 L47.4477535,13.4927767 L47.8057935,14.3282033 C48.1141056,14.0795644 48.4323634,13.8930853 48.7605667,13.7687659 C49.08877,13.6444464 49.4120005,13.5822867 49.7302582,13.5822867 C50.1778082,13.5822867 50.5234162,13.7115789 50.7670823,13.9701633 C51.0107483,14.2287478 51.1325814,14.6564066 51.1325814,15.2531399 L51.1325814,15.2531399 L51.1325814,15.3426498 C50.6850314,15.3426498 50.1429987,15.394864 49.5064832,15.4992923 C48.8699678,15.6037206 48.2980984,15.8573323 47.7908751,16.2601272 C47.2836518,16.6629222 47.0300402,17.2124141 47.0300402,17.9086029 C47.0300402,18.2765884 47.0946863,18.5998189 47.2239785,18.8782944 C47.3532707,19.1567699 47.5273179,19.3880041 47.7461201,19.5719968 C47.9649223,19.7559896 48.2110748,19.8952274 48.4845775,19.9897101 C48.7580803,20.0841929 49.044015,20.1314343 49.3423816,20.1314343 Z M49.4766466,19.1915794 C49.3274633,19.1915794 49.1583888,19.1692019 48.9694233,19.1244469 C48.7804578,19.0796919 48.5939786,18.9479133 48.4099859,18.7291111 C48.2259931,18.5103089 48.1339967,18.2417789 48.1339967,17.9235212 C48.1339967,17.5654812 48.2433978,17.2596554 48.4622,17.0060438 C48.6810022,16.7524322 49.0216375,16.5684394 49.4841058,16.4540655 C49.946574,16.3396917 50.4960659,16.2725592 51.1325814,16.2526681 L51.1325814,16.2526681 L51.1325814,18.4605811 C50.9038336,18.6594922 50.6527084,18.831053 50.3792056,18.9752636 C50.1057029,19.1194741 49.8048499,19.1915794 49.4766466,19.1915794 Z M56.965649,20.1314343 C57.4330901,20.1314343 57.8731809,20.0643018 58.2859214,19.9300368 C58.6986619,19.7957718 59.0343243,19.6142654 59.2929087,19.3855177 L59.2929087,19.3855177 L58.9796238,18.4456628 C58.7409305,18.6744106 58.4699141,18.8584033 58.1665747,18.9976411 C57.8632353,19.1368788 57.4828179,19.2064977 57.0253224,19.2064977 C56.7369013,19.2064977 56.4633985,19.144338 56.2048141,19.0200186 C55.9462297,18.8956991 55.7199683,18.7141928 55.52603,18.4754995 C55.3320917,18.2368062 55.1779356,17.9434123 55.0635618,17.5953179 C54.9491879,17.2472235 54.8920009,16.8494013 54.8920009,16.4018514 C54.8920009,15.9543014 54.9591334,15.516697 55.0933984,15.0890382 C55.2276634,14.6613794 55.4588975,14.3058258 55.7871008,14.0223775 C56.1153041,13.7389292 56.4882624,13.597205 56.9059757,13.597205 C57.3435801,13.597205 57.6891881,13.699147 57.9427997,13.9030308 C58.1964114,14.1069147 58.4326183,14.3779311 58.6514205,14.7160799 L58.6514205,14.7160799 L59.4122554,14.1491833 C59.332691,14.0099456 59.2058851,13.8259528 59.0318379,13.597205 C58.8577907,13.3684573 58.5818016,13.1571143 58.2038705,12.963176 C57.8259395,12.7692376 57.3883351,12.6722685 56.8910574,12.6722685 C56.5131263,12.6722685 56.0904402,12.7617785 55.6229992,12.9407985 C55.1555581,13.1198184 54.7378448,13.5101814 54.3698593,14.1118875 C54.0018738,14.7135935 53.8178811,15.4868604 53.8178811,16.431688 C53.8178811,17.058258 53.9073911,17.6027771 54.086411,18.0652453 C54.265431,18.5277136 54.4991515,18.9131039 54.7875726,19.221416 C55.0759937,19.5297282 55.4091698,19.758476 55.7871008,19.9076593 C56.1650319,20.0568426 56.5578813,20.1314343 56.965649,20.1314343 Z M61.9483718,19.9673326 L61.9483718,16.4466064 L62.85839,16.4466064 C63.0771922,16.4466064 63.281076,16.4863886 63.4700416,16.565953 C63.6590071,16.6455175 63.8081904,16.7723233 63.9175915,16.9463705 C64.0269926,17.1204177 64.196067,17.4660257 64.4248148,17.9831945 L64.4248148,17.9831945 L65.2304047,19.9673326 L66.4387896,19.9673326 L65.245323,16.9538296 C65.1060853,16.6057352 64.9519292,16.3496372 64.7828548,16.1855356 C64.6137803,16.0214339 64.3900054,15.8996009 64.1115298,15.8200364 C64.3104409,15.740472 64.4944337,15.5863159 64.6635081,15.3575682 C64.8325825,15.1288204 64.9966842,14.8403993 65.155813,14.4923049 L65.155813,14.4923049 L65.9017296,12.8512885 L64.7231814,12.8512885 L64.0667748,14.35804 C63.8579182,14.825481 63.6440888,15.1313068 63.4252866,15.2755173 C63.2064844,15.4197279 62.9578455,15.4918332 62.67937,15.4918332 L62.67937,15.4918332 L61.9483718,15.4918332 L61.9483718,10.0168055 L60.8593336,10.0168055 L60.8593336,19.9673326 L61.9483718,19.9673326 Z M73.5995887,19.9673326 L73.5995887,11.0461704 L76.5385,11.0461704 L76.5385,10.0168055 L69.5567209,10.0168055 L69.5567209,11.0461704 L72.4807138,11.0461704 L72.4807138,19.9673326 L73.5995887,19.9673326 Z M81.1333461,19.9673326 L84.5198074,10.0168055 L83.3263409,10.0168055 L80.6261229,18.2218878 L77.9109865,10.0168055 L76.6578467,10.0168055 L80.0890629,19.9673326 L81.1333461,19.9673326 Z M38.7727437,36.1761893 C39.2103481,36.1662437 39.6827619,36.0941384 40.1899852,35.9598735 C40.6972085,35.8256085 41.1298401,35.5272418 41.48788,35.0647736 C41.84592,34.6023053 42.02494,34.0030856 42.02494,33.2671146 C42.02494,32.8394558 41.9404028,32.4466064 41.7713283,32.0885664 C41.6022539,31.7305265 41.3337239,31.4271871 40.9657384,31.1785482 C40.5977529,30.9299093 40.0756113,30.6663521 39.3993136,30.3878766 C39.0313281,30.2486389 38.6732882,30.0969692 38.3251938,29.9328675 C37.9770994,29.7687659 37.6986238,29.564882 37.4897672,29.3212159 C37.2809105,29.0775498 37.1764822,28.7667513 37.1764822,28.3888202 C37.1764822,27.9213791 37.3306383,27.55588 37.6389505,27.2923228 C37.9472627,27.0287656 38.3798943,26.896987 38.9368453,26.896987 C39.9214552,26.896987 40.7668273,27.2749181 41.4729617,28.0307802 L41.4729617,28.0307802 L42.02494,27.165517 C41.6768456,26.7478037 41.2392412,26.4220868 40.7121268,26.1883663 C40.1850124,25.9546458 39.613143,25.8377855 38.9965187,25.8377855 C38.5986965,25.8377855 38.1710377,25.9074044 37.7135422,26.0466421 C37.2560467,26.1858799 36.8507653,26.4718146 36.4976981,26.9044462 C36.144631,27.3370778 35.9680974,27.8666786 35.9680974,28.4932485 C35.9680974,28.9109618 36.055121,29.296352 36.2291682,29.6494192 C36.4032154,30.0024864 36.6941228,30.3182577 37.1018906,30.5967333 C37.5096583,30.8752088 38.006936,31.1188749 38.5937237,31.3277315 C39.3893681,31.6360437 39.9587511,31.9344103 40.3018727,32.2228314 C40.6449943,32.5112525 40.8165551,32.8991291 40.8165551,33.3864613 C40.8165551,33.6947734 40.7469362,33.9856809 40.6076985,34.2591837 C40.4684607,34.5326864 40.239713,34.7440294 39.9214552,34.8932127 C39.6031975,35.0423961 39.235212,35.1169877 38.8174987,35.1169877 C38.320221,35.1169877 37.8676983,35.0274777 37.4599305,34.8484578 C37.0521628,34.6694378 36.6642862,34.4257717 36.2963007,34.1174595 L36.2963007,34.1174595 L35.8039957,35.176661 C35.9432335,35.2960077 36.1123079,35.412868 36.311219,35.5272418 C36.5101301,35.6416157 36.7363914,35.7485304 36.9900031,35.847986 C37.2436147,35.9474415 37.5220902,36.0270059 37.8254296,36.0866793 C38.1287691,36.1463526 38.4445404,36.1761893 38.7727437,36.1761893 Z M46.5153578,36.1314343 C46.9827988,36.1314343 47.4427807,36.0568426 47.8953034,35.9076593 C48.3478262,35.758476 48.6834886,35.5744832 48.9022908,35.355681 L48.9022908,35.355681 L48.6188425,34.4158261 C48.3503126,34.6445739 48.0469731,34.8335394 47.7088243,34.9827227 C47.3706754,35.1319061 46.9827988,35.2064977 46.5451944,35.2064977 C45.8092234,35.2064977 45.2472996,34.9528861 44.859423,34.4456628 C44.4715464,33.9384395 44.277608,33.2372779 44.277608,32.3421781 L44.277608,32.3421781 L49.2006575,32.3421781 C49.2006575,31.8051181 49.1136339,31.2431943 48.9395867,30.6564066 C48.7655394,30.0696189 48.4447953,29.5922323 47.9773543,29.2242468 C47.5099132,28.8562612 46.9231255,28.6722685 46.2169911,28.6722685 C45.7495501,28.6722685 45.282109,28.7866424 44.814668,29.0153901 C44.3472269,29.2441379 43.9618367,29.6568784 43.6584973,30.2536116 C43.3551579,30.8503449 43.2034882,31.5564793 43.2034882,32.3720147 C43.2034882,33.5953179 43.5018548,34.5277136 44.0985881,35.1692019 C44.6953213,35.8106901 45.5009112,36.1314343 46.5153578,36.1314343 Z M47.9624359,31.4321598 L44.3820364,31.4321598 C44.501383,30.7658077 44.725158,30.2909075 45.0533613,30.0074592 C45.3815646,29.7240109 45.7694412,29.5822867 46.2169911,29.5822867 C46.4159022,29.5822867 46.6545955,29.6394737 46.9330711,29.7538475 C47.2115466,29.8682214 47.4477535,30.0745917 47.6416918,30.3729583 C47.8356301,30.6713249 47.9425448,31.0243921 47.9624359,31.4321598 L47.9624359,31.4321598 Z M51.8262838,35.9673326 L51.8262838,30.6414883 C52.0550316,30.4127405 52.3210751,30.2063703 52.6244145,30.0223775 C52.927754,29.8383847 53.2385525,29.7463884 53.5568103,29.7463884 C53.7258847,29.7463884 53.9049047,29.7662795 54.0938702,29.8060617 L54.0938702,29.8060617 L54.2281352,28.7468601 C53.9993874,28.6971324 53.7955036,28.6722685 53.6164836,28.6722685 C53.2783347,28.6722685 52.9625634,28.7592921 52.6691695,28.9333393 C52.3757757,29.1073865 52.0948138,29.3187295 51.8262838,29.5673684 L51.8262838,29.5673684 L51.7218555,28.8512885 L50.7372456,28.8512885 L50.7372456,35.9673326 L51.8262838,35.9673326 Z M55.6901317,27.5981486 C55.8890428,27.5981486 56.0581172,27.5359889 56.197355,27.4116695 C56.3365927,27.28735 56.4062116,27.1058437 56.4062116,26.8671504 C56.4062116,26.6384026 56.3365927,26.4593826 56.197355,26.3300904 C56.0581172,26.2007982 55.8890428,26.1361521 55.6901317,26.1361521 C55.4912206,26.1361521 55.3196598,26.2007982 55.1754492,26.3300904 C55.0312387,26.4593826 54.9591334,26.6384026 54.9591334,26.8671504 C54.9591334,27.1058437 55.0312387,27.28735 55.1754492,27.4116695 C55.3196598,27.5359889 55.4912206,27.5981486 55.6901317,27.5981486 Z M56.2421099,35.9673326 L56.2421099,28.8512885 L55.1381534,28.8512885 L55.1381534,35.9673326 L56.2421099,35.9673326 Z M61.1800777,36.1314343 C61.6475187,36.1314343 62.1075006,36.0568426 62.5600234,35.9076593 C63.0125461,35.758476 63.3482085,35.5744832 63.5670107,35.355681 L63.5670107,35.355681 L63.2835624,34.4158261 C63.0150325,34.6445739 62.7116931,34.8335394 62.3735442,34.9827227 C62.0353954,35.1319061 61.6475187,35.2064977 61.2099144,35.2064977 C60.4739433,35.2064977 59.9120195,34.9528861 59.5241429,34.4456628 C59.1362663,33.9384395 58.942328,33.2372779 58.942328,32.3421781 L58.942328,32.3421781 L63.8653774,32.3421781 C63.8653774,31.8051181 63.7783538,31.2431943 63.6043066,30.6564066 C63.4302594,30.0696189 63.1095152,29.5922323 62.6420742,29.2242468 C62.1746331,28.8562612 61.5878454,28.6722685 60.8817111,28.6722685 C60.41427,28.6722685 59.9468289,28.7866424 59.4793879,29.0153901 C59.0119468,29.2441379 58.6265566,29.6568784 58.3232172,30.2536116 C58.0198778,30.8503449 57.8682081,31.5564793 57.8682081,32.3720147 C57.8682081,33.5953179 58.1665747,34.5277136 58.763308,35.1692019 C59.3600412,35.8106901 60.1656311,36.1314343 61.1800777,36.1314343 Z M62.6271558,31.4321598 L59.0467563,31.4321598 C59.1661029,30.7658077 59.3898779,30.2909075 59.7180812,30.0074592 C60.0462845,29.7240109 60.4341611,29.5822867 60.8817111,29.5822867 C61.0806221,29.5822867 61.3193154,29.6394737 61.597791,29.7538475 C61.8762665,29.8682214 62.1124734,30.0745917 62.3064117,30.3729583 C62.50035,30.6713249 62.6072647,31.0243921 62.6271558,31.4321598 L62.6271558,31.4321598 Z M66.8042887,35.9673326 L66.8042887,29.7911434 L68.4005502,29.7911434 L68.4005502,28.8512885 L66.7893704,28.8512885 L66.7893704,28.3440652 C66.7893704,27.8766241 66.8490437,27.4986931 66.9683903,27.210272 C67.087737,26.9218509 67.3811308,26.7776404 67.8485719,26.7776404 C68.0176463,26.7776404 68.1916935,26.7950451 68.3707135,26.8298545 C68.5497335,26.864664 68.7088623,26.9168781 68.8481001,26.986497 L68.8481001,26.986497 L68.9525284,26.0317238 C68.5745974,25.892486 68.1767752,25.8228672 67.7590619,25.8228672 C67.4606953,25.8228672 67.1498967,25.8825405 66.8266662,26.0018871 C66.5034357,26.1212338 66.2349057,26.3798182 66.0210763,26.7776404 C65.8072469,27.1754626 65.7003321,27.6926314 65.7003321,28.3291469 L65.7003321,28.3291469 L65.7003321,28.8512885 L64.7008039,28.8512885 L64.7008039,29.7911434 L65.7003321,29.7911434 L65.7003321,35.9673326 L66.8042887,35.9673326 Z M71.2648698,36.1314343 C71.6328553,36.1314343 71.9710042,36.0643018 72.2793164,35.9300368 C72.5876285,35.7957718 72.8611313,35.6043199 73.0998246,35.355681 L73.0998246,35.355681 L73.1445796,35.9673326 L74.1441078,35.9673326 L74.1441078,31.3277315 C74.1441078,30.3729583 73.9327648,29.6916878 73.5100787,29.2839201 C73.0873927,28.8761524 72.4981186,28.6722685 71.7422564,28.6722685 C71.1753598,28.6722685 70.702946,28.7592921 70.3250149,28.9333393 C69.9470839,29.1073865 69.6288261,29.2938656 69.3702417,29.4927767 L69.3702417,29.4927767 L69.7282817,30.3282033 C70.0365939,30.0795644 70.3548516,29.8930853 70.6830549,29.7687659 C71.0112582,29.6444464 71.3344887,29.5822867 71.6527464,29.5822867 C72.1002964,29.5822867 72.4459044,29.7115789 72.6895705,29.9701633 C72.9332366,30.2287478 73.0550696,30.6564066 73.0550696,31.2531399 L73.0550696,31.2531399 L73.0550696,31.3426498 C72.6075197,31.3426498 72.0654869,31.394864 71.4289715,31.4992923 C70.792456,31.6037206 70.2205866,31.8573323 69.7133633,32.2601272 C69.2061401,32.6629222 68.9525284,33.2124141 68.9525284,33.9086029 C68.9525284,34.2765884 69.0171745,34.5998189 69.1464667,34.8782944 C69.2757589,35.1567699 69.4498061,35.3880041 69.6686083,35.5719968 C69.8874105,35.7559896 70.133563,35.8952274 70.4070658,35.9897101 C70.6805685,36.0841929 70.9665032,36.1314343 71.2648698,36.1314343 Z M71.3991348,35.1915794 C71.2499515,35.1915794 71.0808771,35.1692019 70.8919115,35.1244469 C70.702946,35.0796919 70.5164668,34.9479133 70.3324741,34.7291111 C70.1484813,34.5103089 70.056485,34.2417789 70.056485,33.9235212 C70.056485,33.5654812 70.1658861,33.2596554 70.3846883,33.0060438 C70.6034905,32.7524322 70.9441257,32.5684394 71.406594,32.4540655 C71.8690622,32.3396917 72.4185541,32.2725592 73.0550696,32.2526681 L73.0550696,32.2526681 L73.0550696,34.4605811 C72.8263219,34.6594922 72.5751966,34.831053 72.3016939,34.9752636 C72.0281911,35.1194741 71.7273381,35.1915794 71.3991348,35.1915794 Z M77.1576108,35.9673326 L77.1576108,30.3878766 C77.4062496,30.1889655 77.6996435,30.0074592 78.0377923,29.8433575 C78.3759412,29.6792559 78.7290084,29.597205 79.0969939,29.597205 C79.673836,29.597205 80.0890629,29.7662795 80.3426746,30.1044283 C80.5962862,30.4425772 80.723092,30.9100182 80.723092,31.5067515 L80.723092,31.5067515 L80.723092,35.9673326 L81.8121302,35.9673326 L81.8121302,31.5365881 C81.8121302,30.5818149 81.6231647,29.865735 81.2452336,29.3883484 C80.8673026,28.9109618 80.210896,28.6722685 79.2760139,28.6722685 C78.8682461,28.6722685 78.4803695,28.7418874 78.112384,28.8811251 C77.7443985,29.0203629 77.421168,29.1993829 77.1426924,29.4181851 L77.1426924,29.4181851 L77.0681008,28.8512885 L76.0685726,28.8512885 L76.0685726,35.9673326 L77.1576108,35.9673326 Z M85.7356514,36.1314343 C86.0837458,36.1314343 86.4442722,36.0667882 86.8172305,35.937496 C87.1901887,35.8082038 87.5034737,35.5819424 87.7570853,35.2587119 C88.010697,34.9354814 88.1375028,34.5202545 88.1375028,34.0130312 C88.1375028,33.436189 87.9709148,32.9861527 87.6377387,32.6629222 C87.3045626,32.3396917 86.8246896,32.0637025 86.1981197,31.8349548 C85.1041087,31.4371326 84.5571032,31.0094738 84.5571032,30.5519783 C84.5571032,30.313285 84.6490996,30.0944828 84.8330924,29.8955717 C85.0170851,29.6966606 85.3179381,29.597205 85.7356514,29.597205 C86.1036369,29.597205 86.436813,29.6618512 86.7351796,29.7911434 C87.0335463,29.9204356 87.3020762,30.0994555 87.5407695,30.3282033 L87.5407695,30.3282033 L88.0032378,29.5076951 C87.7645445,29.2789473 87.4562323,29.0825226 87.0783013,28.918421 C86.7003702,28.7543193 86.2478475,28.6722685 85.7207331,28.6722685 C85.0543809,28.6722685 84.5198074,28.8537749 84.1170124,29.2167876 C83.7142175,29.5798003 83.51282,30.0497278 83.51282,30.6265699 C83.51282,31.1238476 83.6520578,31.5241562 83.9305333,31.8274956 C84.2090088,32.130835 84.6863954,32.4068242 85.3626931,32.655463 C86.5362685,33.1129585 87.1230563,33.5903451 87.1230563,34.0876228 C87.1230563,34.4754995 87.006196,34.7589478 86.7724755,34.9379677 C86.5387549,35.1169877 86.1931469,35.2064977 85.7356514,35.2064977 C85.2881015,35.2064977 84.8977385,35.1194741 84.5645624,34.9454269 C84.2313863,34.7713797 83.9553972,34.5898733 83.736595,34.4009078 L83.736595,34.4009078 L83.3487184,35.3258444 C83.4282828,35.4054088 83.5774661,35.5098371 83.7962683,35.6391293 C84.0150705,35.7684215 84.2885733,35.8827954 84.6167766,35.982251 C84.9449798,36.0817065 85.3179381,36.1314343 85.7356514,36.1314343 Z M26.7038135,66.3850459 C27.6386956,66.3850459 28.4741222,66.3353181 29.2100932,66.2358626 C29.9460642,66.136407 30.5925252,66.0170604 31.1494763,65.8778226 C31.7064273,65.7385849 32.15895,65.5943743 32.5070444,65.445191 C32.8551389,65.2960077 33.1087505,65.1716883 33.2678794,65.0722327 L33.2678794,65.0722327 L33.2678794,55.4946639 L26.5844668,55.4946639 L26.5844668,58.9258801 L29.6874798,58.9258801 L29.6874798,62.5062797 C29.6079154,62.5460619 29.3244671,62.610708 28.8371349,62.700218 C28.3498027,62.789728 27.7083145,62.834483 26.9126701,62.834483 C26.156808,62.834483 25.465592,62.6852997 24.839022,62.386933 C24.2124521,62.0885664 23.6753922,61.650962 23.2278422,61.0741199 C22.7802923,60.4972777 22.4272251,59.7911434 22.1686407,58.9557168 C21.9100563,58.1202902 21.7807641,57.165517 21.7807641,56.0913971 C21.7807641,54.9178217 21.9100563,53.8984024 22.1686407,53.0331392 C22.4272251,52.1678759 22.7653739,51.4468232 23.1830872,50.8699811 C23.6008005,50.2931389 24.0831599,49.8654801 24.6301654,49.5870046 C25.1771709,49.3085291 25.7390947,49.1692913 26.3159369,49.1692913 C26.8728879,49.1692913 27.3701656,49.243883 27.80777,49.3930663 C28.2453744,49.5422496 28.6282782,49.7312151 28.9564815,49.9599629 C29.2846848,50.1887106 29.5631604,50.4423223 29.7919081,50.7207978 C30.0206559,50.9992733 30.2046486,51.2678033 30.3438864,51.5263877 L30.3438864,51.5263877 L32.9695127,49.109618 C32.4125617,48.0951714 31.5870807,47.2647176 30.4930697,46.6182566 C29.3990587,45.9717956 27.9967355,45.648565 26.2861002,45.648565 C25.1721981,45.648565 24.1129966,45.8574217 23.1084956,46.275135 C22.1039946,46.6928483 21.2138675,47.3343365 20.4381142,48.1995997 C19.662361,49.064863 19.0457366,50.1489284 18.5882411,51.451796 C18.1307456,52.7546636 17.9019979,54.3011973 17.9019979,56.0913971 C17.9019979,57.722468 18.1158273,59.174519 18.5434861,60.4475499 C18.971145,61.7205809 19.572851,62.7996736 20.3486042,63.6848279 C21.1243575,64.5699822 22.0542668,65.2413072 23.1383322,65.6988027 C24.2223977,66.1562982 25.4108914,66.3850459 26.7038135,66.3850459 Z M40.6972085,65.9673326 L40.6972085,58.5081668 L43.5913648,58.5081668 C44.0289692,58.5081668 44.3820364,58.5529218 44.6505663,58.6424318 C44.9190963,58.7319418 45.1428713,58.8761524 45.3218913,59.0750634 C45.5009112,59.2739745 45.6500945,59.5325589 45.7694412,59.8508167 C45.8887878,60.1690744 46.0180801,60.5470055 46.1573178,60.9846099 L46.1573178,60.9846099 L47.649151,65.9673326 L51.6174272,65.9673326 L50.125594,60.5370599 C49.8073363,59.3833756 49.4741602,58.5479491 49.1260658,58.0307802 C48.7779714,57.5136114 48.3254487,57.1456259 47.7684976,56.9268237 C48.7232708,56.3499815 49.4294052,55.6339016 49.8869007,54.778584 C50.3443962,53.9232663 50.573144,52.9883842 50.573144,51.9739376 C50.573144,50.8003622 50.3742329,49.8356434 49.9764107,49.0797813 C49.5785885,48.3239192 49.0564469,47.7222131 48.4099859,47.2746632 C47.7635248,46.8271132 47.0424722,46.5138283 46.2468278,46.3348083 C45.4511835,46.1557883 44.6654847,46.0662783 43.8897314,46.0662783 L43.8897314,46.0662783 L36.9377889,46.0662783 L36.9377889,65.9673326 L40.6972085,65.9673326 Z M43.3825081,55.0769506 L40.6972085,55.0769506 L40.6972085,49.5273313 L43.3825081,49.5273313 C44.5759747,49.5273313 45.4412379,49.7610518 45.9782978,50.2284928 C46.5153578,50.6959339 46.7838877,51.407041 46.7838877,52.3618142 C46.7838877,54.1719051 45.6500945,55.0769506 43.3825081,55.0769506 L43.3825081,55.0769506 Z M56.2122733,65.9673326 L57.5549231,61.9692198 L65.1632722,61.9692198 L66.5357587,65.9673326 L70.4443616,65.9673326 L63.2537258,46.0662783 L59.4644696,46.0662783 L52.3036704,65.9673326 L56.2122733,65.9673326 Z M64.029479,58.5976768 L58.718553,58.5976768 L61.374016,50.7506344 L64.029479,58.5976768 Z M77.6648341,65.9673326 L77.6648341,49.6765146 L83.3039634,49.6765146 L83.3039634,46.0662783 L68.2066118,46.0662783 L68.2066118,49.6765146 L73.8457412,49.6765146 L73.8457412,65.9673326 L77.6648341,65.9673326 Z M89.450316,65.9673326 L89.450316,46.0662783 L85.6312231,46.0662783 L85.6312231,65.9673326 L89.450316,65.9673326 Z M99.3262515,66.3850459 C100.161678,66.3850459 100.987159,66.2656993 101.802694,66.0270059 C102.61823,65.7883126 103.349228,65.4252999 103.995689,64.9379677 C104.64215,64.4506356 105.164292,63.838984 105.562114,63.103013 C105.959936,62.3670419 106.158847,61.5117243 106.158847,60.5370599 C106.158847,59.64196 106.049446,58.8711796 105.830644,58.2247185 C105.611842,57.5782575 105.263747,57.0063881 104.786361,56.5091104 C104.308974,56.0118327 103.697323,55.5692555 102.951406,55.1813789 C102.205489,54.7935023 101.315362,54.4105984 100.281025,54.0326674 C99.5251625,53.7541919 98.9035654,53.5105258 98.4162332,53.3016691 C97.9289011,53.0928125 97.5410245,52.8789831 97.2526034,52.6601809 C96.9641823,52.4413787 96.7602984,52.2076582 96.6409518,51.9590193 C96.5216051,51.7103804 96.4619318,51.407041 96.4619318,51.0490011 C96.4619318,50.4721589 96.6707884,49.979854 97.0885017,49.5720862 C97.506215,49.1643185 98.2322405,48.9604347 99.2665781,48.9604347 C99.783747,48.9604347 100.285997,49.0250808 100.77333,49.154373 C101.260662,49.2836652 101.713185,49.4477668 102.130898,49.6466779 C102.548611,49.845589 102.921569,50.0643912 103.249773,50.3030845 C103.577976,50.5417778 103.841533,50.7804711 104.040444,51.0191644 L104.040444,51.0191644 L106.039501,48.3637014 C105.800807,48.0852259 105.497468,47.7868592 105.129482,47.4686015 C104.761497,47.1503438 104.308974,46.8569499 103.771914,46.5884199 C103.234854,46.31989 102.603312,46.096115 101.877286,45.917095 C101.151261,45.738075 100.330752,45.648565 99.4157615,45.648565 C98.3217505,45.648565 97.3570317,45.7878028 96.5216051,46.0662783 C95.6861786,46.3447539 94.9899898,46.7326305 94.4330387,47.2299082 C93.8760877,47.7271859 93.4583744,48.3139736 93.1798989,48.9902713 C92.9014233,49.666569 92.7621856,50.40254 92.7621856,51.1981844 C92.7621856,52.033611 92.8765595,52.7596364 93.1053072,53.3762608 C93.334055,53.9928852 93.6722038,54.5299451 94.1197538,54.9874406 C94.5673037,55.4449361 95.119282,55.8427583 95.7756886,56.1809071 C96.4320951,56.519056 97.1879573,56.8273682 98.0432749,57.1058437 C98.9781571,57.4241014 99.7290464,57.7075497 100.295943,57.9561886 C100.86284,58.2048274 101.300444,58.4634119 101.608756,58.7319418 C101.917068,59.0004718 102.120952,59.2888929 102.220408,59.597205 C102.319863,59.9055172 102.369591,60.26853 102.369591,60.6862433 C102.369591,61.3824321 102.096088,61.9393831 101.549083,62.3570964 C101.002077,62.7748097 100.251188,62.9836663 99.2964148,62.9836663 C98.6400082,62.9836663 98.0383022,62.9190202 97.4912967,62.789728 C96.9442912,62.6604358 96.456959,62.4963341 96.0293002,62.2974231 C95.6016414,62.098512 95.2286831,61.8896553 94.9104253,61.6708531 C94.5921676,61.4520509 94.3435287,61.2630854 94.1645087,61.1039565 L94.1645087,61.1039565 L92.5533289,64.4158261 C92.7323489,64.5550639 93.0157972,64.7340839 93.4036738,64.9528861 C93.7915505,65.1716883 94.2739098,65.3855177 94.850752,65.5943743 C95.4275942,65.803231 96.0889735,65.9872237 96.8348901,66.1463526 C97.5808067,66.3054815 98.4112605,66.3850459 99.3262515,66.3850459 Z M38.2133063,85.9673326 L38.2133063,76.0913971 L36.7363914,76.0913971 L33.6184601,78.0755352 L34.4986417,79.5226134 L36.2739232,78.3888202 L36.2739232,85.9673326 L38.2133063,85.9673326 Z M46.0155937,86.1314343 C46.3835792,86.1314343 46.721728,86.0692746 47.0300402,85.9449551 C47.3383524,85.8206357 47.591964,85.6490749 47.7908751,85.4302727 L47.7908751,85.4302727 L47.8654668,85.9673326 L49.5661566,85.9673326 L49.5661566,81.3426498 C49.5661566,80.8553177 49.4990241,80.4400908 49.3647591,80.0969692 C49.2304941,79.7538475 49.044015,79.4703992 48.8053217,79.2466243 C48.5666284,79.0228493 48.2831801,78.8587476 47.9549768,78.7543193 C47.6267735,78.649891 47.2637607,78.5976768 46.8659386,78.5976768 C46.5277897,78.5976768 46.2120184,78.6299999 45.9186245,78.694646 C45.6252307,78.7592921 45.3616735,78.8388565 45.1279529,78.9333393 C44.8942324,79.0278221 44.6953213,79.1247912 44.5312197,79.2242468 C44.367118,79.3237023 44.245285,79.4082395 44.1657206,79.4778584 L44.1657206,79.4778584 L44.7773721,80.7757532 C44.846991,80.7160799 44.9389874,80.6489474 45.0533613,80.5743558 C45.1677352,80.4997641 45.2995138,80.4251724 45.4486971,80.3505808 C45.5978804,80.2759891 45.7669548,80.2138294 45.9559203,80.1641016 C46.1448859,80.1143739 46.343797,80.08951 46.5526536,80.08951 C46.9106936,80.08951 47.1916555,80.1740472 47.3955393,80.3431216 C47.5994232,80.512196 47.7013651,80.7956443 47.7013651,81.1934665 L47.7013651,81.1934665 L47.7013651,81.2978948 C47.5123996,81.317786 47.2761927,81.3401635 46.9927444,81.3650273 C46.7092961,81.3898912 46.4482253,81.4271871 46.209532,81.4769148 C45.8713831,81.5365881 45.5481526,81.6260981 45.2398404,81.7454448 C44.9315282,81.8647914 44.6580255,82.0189475 44.4193322,82.2079131 C44.1806389,82.3968786 43.9916734,82.6281127 43.8524356,82.9016155 C43.7131978,83.1751182 43.643579,83.4908896 43.643579,83.8489295 C43.643579,84.2069695 43.7107114,84.5277136 43.8449764,84.8111619 C43.9792414,85.0946102 44.155775,85.3333035 44.3745772,85.5272418 C44.5933794,85.7211801 44.8445046,85.8703635 45.1279529,85.9747918 C45.4114012,86.0792201 45.7072815,86.1314343 46.0155937,86.1314343 Z M46.4482253,84.5948461 C46.1299675,84.5948461 45.8838151,84.5227408 45.7097679,84.3785303 C45.5357207,84.2343198 45.4486971,84.0428679 45.4486971,83.8041745 C45.4486971,83.5754268 45.5257751,83.3640838 45.6799312,83.1701455 C45.8340873,82.9762071 46.1100764,82.8394558 46.5078986,82.7598913 C46.6968641,82.7201091 46.8957752,82.6877861 47.1046319,82.6629222 C47.3134885,82.6380583 47.5173724,82.6206536 47.7162835,82.610708 L47.7162835,82.610708 L47.7162835,84.0727045 C47.5571546,84.2218878 47.3657027,84.3462073 47.1419277,84.4456628 C46.9181527,84.5451183 46.6869186,84.5948461 46.4482253,84.5948461 Z M52.7288429,77.9114336 C52.8879717,77.5136114 53.0446142,77.2575134 53.1987703,77.1431395 C53.3529264,77.0287656 53.484705,76.9715787 53.5941061,76.9715787 C53.7035072,76.9715787 53.8178811,77.0039017 53.9372277,77.0685479 C54.0565744,77.133194 54.2157032,77.2351359 54.4146143,77.3743736 C54.6433621,77.523557 54.8547051,77.6354444 55.0486434,77.7100361 C55.2425817,77.7846278 55.4439792,77.8219236 55.6528358,77.8219236 C56.0108758,77.8219236 56.3539974,77.6652811 56.6822007,77.3519961 C57.010404,77.0387112 57.2441245,76.6284571 57.3833623,76.1212338 L57.3833623,76.1212338 L56.3539974,75.5692555 C56.1948686,75.9670777 56.0456852,76.2231757 55.9064475,76.3375496 C55.7672097,76.4519235 55.6428903,76.5091104 55.5334892,76.5091104 C55.4240881,76.5091104 55.2997687,76.4767874 55.1605309,76.4121413 C55.0212931,76.3474952 54.8472459,76.2455532 54.6383893,76.1063155 C54.4096416,75.9571321 54.2007849,75.8452447 54.0118194,75.770653 C53.8228538,75.6960613 53.6289155,75.6587655 53.4300044,75.6587655 C53.08191,75.6587655 52.7537068,75.8129216 52.4453946,76.1212338 C52.1370824,76.429546 51.8934163,76.8373137 51.7143963,77.344537 L51.7143963,77.344537 L52.7288429,77.9114336 Z M53.2211478,85.9673326 L53.2211478,80.8652632 C53.4001678,80.6862433 53.6115108,80.5221416 53.8551769,80.3729583 C54.098843,80.223775 54.3648866,80.1491833 54.6533076,80.1491833 C55.0610754,80.1491833 55.3793331,80.2983666 55.6080809,80.5967333 C55.8368286,80.8950999 55.9512025,81.317786 55.9512025,81.8647914 L55.9512025,81.8647914 L55.9512025,85.9673326 L57.8010756,85.9673326 L57.8010756,81.7156081 C57.8010756,81.1586571 57.7389159,80.6812705 57.6145964,80.2834483 C57.490277,79.8856261 57.3137434,79.5623956 57.0849957,79.3137567 C56.8562479,79.0651179 56.5827452,78.8836115 56.2644874,78.7692376 C55.9462297,78.6548638 55.5981353,78.5976768 55.2202042,78.5976768 C54.8522187,78.5976768 54.4867196,78.6623229 54.1237069,78.7916151 C53.7606941,78.9209074 53.4349772,79.1049001 53.1465561,79.3435934 L53.1465561,79.3435934 L53.0570462,78.7766968 L51.3712747,78.7766968 L51.3712747,85.9673326 L53.2211478,85.9673326 Z M62.6196967,86.1314343 C63.1965388,86.1314343 63.7012757,86.0220332 64.1339073,85.803231 C64.5665389,85.5844288 64.9245789,85.2960077 65.2080272,84.9379677 C65.4914755,84.5799278 65.7053049,84.1746464 65.8495155,83.7221237 C65.993726,83.269601 66.0658313,82.8096191 66.0658313,82.3421781 C66.0658313,81.874737 65.993726,81.4172415 65.8495155,80.9696916 C65.7053049,80.5221416 65.4889891,80.121833 65.200568,79.7687659 C64.912147,79.4156987 64.554107,79.1322504 64.1264482,78.918421 C63.6987893,78.7045915 63.1965388,78.5976768 62.6196967,78.5976768 C62.0428545,78.5976768 61.5381176,78.7045915 61.105486,78.918421 C60.6728544,79.1322504 60.3148145,79.4156987 60.0313662,79.7687659 C59.7479179,80.121833 59.5340884,80.5221416 59.3898779,80.9696916 C59.2456674,81.4172415 59.1735621,81.874737 59.1735621,82.3421781 C59.1735621,82.8096191 59.2456674,83.269601 59.3898779,83.7221237 C59.5340884,84.1746464 59.7479179,84.5799278 60.0313662,84.9379677 C60.3148145,85.2960077 60.6728544,85.5844288 61.105486,85.803231 C61.5381176,86.0220332 62.0428545,86.1314343 62.6196967,86.1314343 Z M62.6196967,84.5351728 C62.3511667,84.5351728 62.1149598,84.4779859 61.9110759,84.363612 C61.7071921,84.2492381 61.5381176,84.0925956 61.4038527,83.8936845 C61.2695877,83.6947734 61.1676457,83.4635393 61.0980269,83.1999821 C61.028408,82.9364249 60.9935985,82.6504902 60.9935985,82.3421781 C60.9935985,82.0438114 61.028408,81.7603631 61.0980269,81.4918332 C61.1676457,81.2233032 61.2720741,80.992069 61.4113118,80.7981307 C61.5505496,80.6041924 61.719624,80.4500363 61.9185351,80.3356625 C62.1174462,80.2212886 62.3511667,80.1641016 62.6196967,80.1641016 C62.8882267,80.1641016 63.1219472,80.2212886 63.3208583,80.3356625 C63.5197694,80.4500363 63.6888438,80.6041924 63.8280815,80.7981307 C63.9673193,80.992069 64.0717476,81.2233032 64.1413665,81.4918332 C64.2109854,81.7603631 64.2457948,82.0438114 64.2457948,82.3421781 C64.2457948,82.6504902 64.2109854,82.9364249 64.1413665,83.1999821 C64.0717476,83.4635393 63.9673193,83.6947734 63.8280815,83.8936845 C63.6888438,84.0925956 63.5197694,84.2492381 63.3208583,84.363612 C63.1219472,84.4779859 62.8882267,84.5351728 62.6196967,84.5351728 Z M73.1967938,86.1314343 C73.6642348,86.1314343 74.1043256,86.0643018 74.5170661,85.9300368 C74.9298066,85.7957718 75.2654691,85.6142654 75.5240535,85.3855177 L75.5240535,85.3855177 L75.2107685,84.4456628 C74.9720752,84.6744106 74.7010588,84.8584033 74.3977194,84.9976411 C74.09438,85.1368788 73.7139626,85.2064977 73.2564671,85.2064977 C72.968046,85.2064977 72.6945433,85.144338 72.4359588,85.0200186 C72.1773744,84.8956991 71.9511131,84.7141928 71.7571748,84.4754995 C71.5632364,84.2368062 71.4090804,83.9434123 71.2947065,83.5953179 C71.1803326,83.2472235 71.1231457,82.8494013 71.1231457,82.4018514 C71.1231457,81.9543014 71.1902782,81.516697 71.3245431,81.0890382 C71.4588081,80.6613794 71.6900423,80.3058258 72.0182456,80.0223775 C72.3464489,79.7389292 72.7194071,79.597205 73.1371204,79.597205 C73.5747248,79.597205 73.9203328,79.699147 74.1739445,79.9030308 C74.4275561,80.1069147 74.663763,80.3779311 74.8825652,80.7160799 L74.8825652,80.7160799 L75.6434001,80.1491833 C75.5638357,80.0099456 75.4370299,79.8259528 75.2629827,79.597205 C75.0889355,79.3684573 74.8129463,79.1571143 74.4350153,78.963176 C74.0570842,78.7692376 73.6194798,78.6722685 73.1222021,78.6722685 C72.744271,78.6722685 72.321585,78.7617785 71.8541439,78.9407985 C71.3867029,79.1198184 70.9689896,79.5101814 70.6010041,80.1118875 C70.2330186,80.7135935 70.0490258,81.4868604 70.0490258,82.431688 C70.0490258,83.058258 70.1385358,83.6027771 70.3175558,84.0652453 C70.4965757,84.5277136 70.7302963,84.9131039 71.0187173,85.221416 C71.3071384,85.5297282 71.6403145,85.758476 72.0182456,85.9076593 C72.3961766,86.0568426 72.789026,86.1314343 73.1967938,86.1314343 Z M79.686268,86.1314343 C80.2034368,86.1314343 80.7007145,86.0071148 81.1781011,85.758476 C81.6554877,85.5098371 82.0508235,85.0722327 82.3641085,84.4456628 C82.6773935,83.8190929 82.8340359,83.1378224 82.8340359,82.4018514 C82.8340359,81.9344103 82.7420396,81.4072959 82.5580468,80.8205082 C82.374054,80.2337205 82.0334188,79.7289836 81.5361411,79.3062976 C81.0388634,78.8836115 80.422239,78.6722685 79.686268,78.6722685 C79.1591536,78.6722685 78.6469575,78.8040471 78.1496798,79.0676043 C77.6524021,79.3311615 77.2595527,79.7712522 76.9711316,80.3878766 C76.6827106,81.004501 76.5385,81.6658804 76.5385,82.3720147 C76.5385,82.8394558 76.6056325,83.2994377 76.7398975,83.7519604 C76.8741625,84.2044831 77.0705872,84.6072781 77.3291716,84.9603452 C77.587756,85.3134124 77.9134729,85.5968607 78.3063223,85.8106901 C78.6991717,86.0245196 79.1591536,86.1314343 79.686268,86.1314343 Z M79.686268,85.2064977 C79.3381736,85.2064977 79.0049975,85.1120149 78.6867398,84.9230494 C78.368482,84.7340839 78.1098976,84.4033942 77.9109865,83.9309804 C77.7120754,83.4585665 77.6126199,82.9389113 77.6126199,82.3720147 C77.6126199,82.0239203 77.6623477,81.6410165 77.7618032,81.2233032 C77.8612587,80.8055899 78.0800609,80.4276588 78.4182098,80.08951 C78.7563586,79.7513611 79.1790447,79.5822867 79.686268,79.5822867 C80.0244168,79.5822867 80.3526201,79.6817423 80.6708779,79.8806533 C80.9891356,80.0795644 81.2502064,80.4102541 81.4540903,80.8727224 C81.6579741,81.3351907 81.7599161,81.8399276 81.7599161,82.386933 C81.7599161,82.7350275 81.7002427,83.1328496 81.5808961,83.5803996 C81.4615494,84.0279495 81.2328017,84.4108534 80.8946528,84.7291111 C80.556504,85.0473688 80.153709,85.2064977 79.686268,85.2064977 Z M85.5491723,85.9673326 L85.5491723,80.3878766 C85.7978111,80.1889655 86.091205,80.0074592 86.4293538,79.8433575 C86.7675027,79.6792559 87.1205699,79.597205 87.4885554,79.597205 C88.0653975,79.597205 88.4806244,79.7662795 88.7342361,80.1044283 C88.9878477,80.4425772 89.1146535,80.9100182 89.1146535,81.5067515 L89.1146535,81.5067515 L89.1146535,85.9673326 L90.2036917,85.9673326 L90.2036917,81.5365881 C90.2036917,80.5818149 90.0147262,79.865735 89.6367951,79.3883484 C89.2588641,78.9109618 88.6024575,78.6722685 87.6675754,78.6722685 C87.2598076,78.6722685 86.871931,78.7418874 86.5039455,78.8811251 C86.13596,79.0203629 85.8127295,79.1993829 85.5342539,79.4181851 L85.5342539,79.4181851 L85.4596623,78.8512885 L84.4601341,78.8512885 L84.4601341,85.9673326 L85.5491723,85.9673326 Z M26.4427427,101.967333 L26.4427427,97.7603631 L30.2021622,97.7603631 L30.2021622,101.967333 L32.1117087,101.967333 L32.1117087,92.0168055 L30.2021622,92.0168055 L30.2021622,95.955245 L26.4427427,95.955245 L26.4427427,92.0168055 L24.5331962,92.0168055 L24.5331962,101.967333 L26.4427427,101.967333 Z M38.1834696,101.967333 C38.4221629,101.967333 38.6683154,101.947442 38.921927,101.907659 C39.1755387,101.867877 39.4067728,101.808204 39.6156294,101.728639 C40.1924716,101.499892 40.6226168,101.146824 40.9060651,100.669438 C41.1895134,100.192051 41.3312376,99.6898007 41.3312376,99.1626863 C41.3312376,98.5361164 41.1770815,98.0164611 40.8687693,97.6037206 C40.5604571,97.1909801 40.1526894,96.8901271 39.6454661,96.7011616 C40.0134516,96.4724138 40.2968999,96.1939383 40.495811,95.865735 C40.6947221,95.5375317 40.7941776,95.1496551 40.7941776,94.7021052 C40.7941776,94.2843919 40.7170996,93.9089472 40.5629435,93.5757711 C40.4087874,93.2425951 40.1924716,92.9591468 39.9139961,92.7254262 C39.6355205,92.4917057 39.3073172,92.3151721 38.9293862,92.1958255 C38.5514551,92.0764788 38.1337418,92.0168055 37.6762463,92.0168055 L37.6762463,92.0168055 L34.3047034,92.0168055 L34.3047034,101.967333 L38.1834696,101.967333 Z M37.1242681,96.08951 L36.1993315,96.08951 L36.1993315,93.7174953 L37.0505052,93.7183241 C37.1046532,93.7194291 37.1665367,93.7216393 37.2361555,93.7249544 C37.3405839,93.7299272 37.4400394,93.7349 37.5345222,93.7398728 C37.6290049,93.7448455 37.7185149,93.7547911 37.8030521,93.7697094 C37.8875894,93.7846278 37.9497491,93.7970597 37.9895313,93.8070053 C38.2779524,93.9064608 38.4967546,94.0581305 38.6459379,94.2620144 C38.7951212,94.4658982 38.8697129,94.6871868 38.8697129,94.9258801 C38.8697129,95.1247912 38.8150123,95.3162431 38.7056112,95.5002359 C38.5962101,95.6842286 38.4221629,95.8358984 38.1834696,95.955245 C38.0939596,96.0049728 37.9522355,96.0397822 37.7582972,96.0596733 C37.5643588,96.0795644 37.3530158,96.08951 37.1242681,96.08951 L37.1242681,96.08951 Z M37.5568997,100.266643 L36.1993315,100.266643 L36.1993315,97.7156081 L37.527063,97.7156081 C37.7558108,97.7156081 37.9696402,97.7330128 38.1685513,97.7678223 C38.3674624,97.8026317 38.5415096,97.8598187 38.6906929,97.9393831 C38.9194406,98.0686753 39.0934878,98.2377497 39.2128345,98.4466064 C39.3321811,98.655463 39.3918545,98.8692924 39.3918545,99.0880946 C39.3918545,99.2770602 39.3446131,99.4585665 39.2501303,99.6326137 C39.1556475,99.8066609 39.0039778,99.9533579 38.7951212,100.072705 C38.6757745,100.142323 38.5216185,100.192051 38.3326529,100.221888 C38.1436874,100.251724 37.885103,100.266643 37.5568997,100.266643 L37.5568997,100.266643 Z M46.6720003,102.176189 C47.4079713,102.176189 48.0519459,102.02452 48.6039242,101.72118 C49.1559025,101.417841 49.613398,101.022505 49.9764107,100.535173 C50.3394234,100.047841 50.6129262,99.493376 50.7969189,98.8717788 C50.9809117,98.2501817 51.0729081,97.6211254 51.0729081,96.9846099 C51.0729081,96.3480944 50.9809117,95.7190381 50.7969189,95.0974409 C50.6129262,94.4758438 50.3394234,93.9213791 49.9764107,93.434047 C49.613398,92.9467148 49.1559025,92.5538654 48.6039242,92.2554988 C48.0519459,91.9571321 47.4079713,91.8079488 46.6720003,91.8079488 C45.9459748,91.8079488 45.3119457,91.9571321 44.769913,92.2554988 C44.2278803,92.5538654 43.7753575,92.9467148 43.4123448,93.434047 C43.0493321,93.9213791 42.7783157,94.4758438 42.5992957,95.0974409 C42.4202758,95.7190381 42.3307658,96.3480944 42.3307658,96.9846099 C42.3307658,97.6211254 42.4202758,98.2501817 42.5992957,98.8717788 C42.7783157,99.493376 43.0493321,100.047841 43.4123448,100.535173 C43.7753575,101.022505 44.2278803,101.417841 44.769913,101.72118 C45.3119457,102.02452 45.9459748,102.176189 46.6720003,102.176189 Z M46.6720003,100.400908 C46.2841236,100.400908 45.9385156,100.306425 45.6351762,100.11746 C45.3318368,99.928494 45.0782252,99.6748823 44.8743413,99.3566246 C44.6704574,99.0383669 44.5163013,98.6728677 44.411873,98.2601272 C44.3074447,97.8473867 44.2552305,97.4222143 44.2552305,96.9846099 C44.2552305,96.5470055 44.3074447,96.121833 44.411873,95.7090925 C44.5163013,95.296352 44.6704574,94.9308529 44.8743413,94.6125952 C45.0782252,94.2943374 45.3318368,94.0407258 45.6351762,93.8517603 C45.9385156,93.6627947 46.2841236,93.568312 46.6720003,93.568312 C47.0698224,93.568312 47.4228896,93.6627947 47.7312018,93.8517603 C48.039514,94.0407258 48.2980984,94.2943374 48.506955,94.6125952 C48.7158117,94.9308529 48.8724542,95.296352 48.9768825,95.7090925 C49.0813108,96.121833 49.133525,96.5470055 49.133525,96.9846099 C49.133525,97.4222143 49.0813108,97.8473867 48.9768825,98.2601272 C48.8724542,98.6728677 48.7158117,99.0383669 48.506955,99.3566246 C48.2980984,99.6748823 48.039514,99.928494 47.7312018,100.11746 C47.4228896,100.306425 47.0698224,100.400908 46.6720003,100.400908 Z M62.455595,101.967333 L62.455595,100.162215 L57.547464,100.162215 L57.547464,97.8946281 L61.3367202,97.8946281 L61.3367202,96.08951 L57.547464,96.08951 L57.547464,93.8219236 L62.1273917,93.8219236 L62.1273917,92.0168055 L55.6379175,92.0168055 L55.6379175,101.967333 L62.455595,101.967333 Z M66.4089529,102.131434 C66.8167206,102.131434 67.1971381,102.086679 67.5502053,101.997169 C67.9032724,101.907659 68.2115846,101.770908 68.4751418,101.586915 C68.738699,101.402922 68.9475556,101.169202 69.1017117,100.885754 C69.2558678,100.602305 69.3329459,100.266643 69.3329459,99.8787662 C69.3329459,99.5306718 69.2782453,99.2298188 69.1688442,98.9762071 C69.0594431,98.7225955 68.9003143,98.5037933 68.6914576,98.3198006 C68.482601,98.1358078 68.2215302,97.9841381 67.9082452,97.8647914 C67.5949603,97.7454448 67.2344339,97.6459892 66.8266662,97.5664248 C66.5382451,97.5067515 66.2995518,97.4495645 66.1105863,97.394864 C65.9216207,97.3401635 65.7724374,97.2829765 65.6630363,97.2233032 C65.5536352,97.1636299 65.4765572,97.094011 65.4318022,97.0144465 C65.3870472,96.9348821 65.3646697,96.8403993 65.3646697,96.7309982 C65.3646697,96.5320872 65.4417477,96.3630127 65.5959038,96.223775 C65.7500599,96.0845372 66.0459402,96.0149183 66.4835446,96.0149183 C66.9609312,96.0149183 67.3836172,96.0944828 67.7516027,96.2536116 C68.1195882,96.4127405 68.3980638,96.5668966 68.5870293,96.7160799 L68.5870293,96.7160799 L69.2135992,95.3734301 C69.1439803,95.3137567 69.0345792,95.2416515 68.8853959,95.1571143 C68.7362126,95.0725771 68.5472471,94.9880398 68.3184993,94.9035026 C68.0897516,94.8189654 67.8212216,94.7468601 67.5129094,94.6871868 C67.2045972,94.6275135 66.8565028,94.5976768 66.4686262,94.5976768 C65.5039074,94.5976768 64.7853411,94.7965879 64.3129273,95.1944101 C63.8405135,95.5922323 63.6043066,96.1094011 63.6043066,96.7459166 C63.6043066,97.094011 63.6565207,97.3898912 63.760949,97.6335573 C63.8653774,97.8772234 64.0195335,98.08608 64.2234173,98.2601272 C64.4273012,98.4341744 64.6734537,98.578385 64.9618747,98.6927588 C65.2502958,98.8071327 65.5735263,98.9041019 65.9315663,98.9836663 C66.2896062,99.0632307 66.5780273,99.1403088 66.7968295,99.2149004 C67.0156317,99.2894921 67.1847061,99.3640838 67.3040528,99.4386754 C67.4233994,99.5132671 67.5029639,99.5953179 67.5427461,99.6848279 C67.5825283,99.7743379 67.6024194,99.8688206 67.6024194,99.9682762 C67.6024194,100.187078 67.5153958,100.361126 67.3413486,100.490418 C67.1673014,100.61971 66.8565028,100.684356 66.4089529,100.684356 C66.1304774,100.684356 65.8669202,100.654519 65.6182813,100.594846 C65.3696425,100.535173 65.1408947,100.460581 64.9320381,100.371071 C64.7231814,100.281561 64.5342159,100.182106 64.3651415,100.072705 C64.196067,99.9633034 64.0568293,99.8588751 63.9474282,99.7594196 L63.9474282,99.7594196 L63.2761033,101.176661 C63.3855044,101.276117 63.5346877,101.380545 63.7236532,101.489946 C63.9126188,101.599347 64.1363937,101.701289 64.3949781,101.795772 C64.6535626,101.890255 64.9519292,101.969819 65.290078,102.034465 C65.6282269,102.099111 66.0011852,102.131434 66.4089529,102.131434 Z M72.5105505,104.786897 L72.5105505,101.922578 C72.8188627,102.061815 73.1371204,102.131434 73.4653237,102.131434 C74.0918936,102.131434 74.6339264,102.022033 75.0914219,101.803231 C75.5489174,101.584429 75.924362,101.298494 76.2177559,100.945427 C76.5111497,100.59236 76.7299519,100.189565 76.8741625,99.7370421 C77.018373,99.2845193 77.0904783,98.8245374 77.0904783,98.3570964 C77.0904783,97.8697642 77.0283186,97.3973504 76.9039991,96.9398549 C76.7796797,96.4823594 76.5932006,96.0820508 76.3445617,95.7389292 C76.0959228,95.3958076 75.7851243,95.1198184 75.412166,94.9109618 C75.0392077,94.7021052 74.6090625,94.5976768 74.1217303,94.5976768 C73.7338537,94.5976768 73.3981912,94.6747549 73.1147429,94.828911 C72.8312946,94.9830671 72.6050333,95.1446823 72.4359588,95.3137567 L72.4359588,95.3137567 L72.3464489,94.7766968 L70.6606774,94.7766968 L70.6606774,104.786897 L72.5105505,104.786897 Z M73.3608954,100.520254 C73.0824199,100.520254 72.7939988,100.450636 72.4956322,100.311398 L72.4956322,100.311398 L72.4956322,96.8354266 C72.6050333,96.6663521 72.7741077,96.5097097 73.0028554,96.3654991 C73.2316032,96.2212886 73.4752693,96.1491833 73.7338537,96.1491833 C73.9924381,96.1491833 74.2186995,96.2138294 74.4126378,96.3431216 C74.6065761,96.4724138 74.7681913,96.6414883 74.8974835,96.8503449 C75.0267758,97.0592015 75.1237449,97.2978948 75.188391,97.5664248 C75.2530371,97.8349548 75.2853602,98.1084575 75.2853602,98.386933 C75.2853602,98.655463 75.2480643,98.9165338 75.1734727,99.1701455 C75.098881,99.4237571 74.9820208,99.6525048 74.8228919,99.8563887 C74.663763,100.060273 74.4623655,100.221888 74.2186995,100.341234 C73.9750334,100.460581 73.6890987,100.520254 73.3608954,100.520254 Z M80.4321846,102.131434 C80.8001701,102.131434 81.1383189,102.069275 81.4466311,101.944955 C81.7549433,101.820636 82.0085549,101.649075 82.207466,101.430273 L82.207466,101.430273 L82.2820577,101.967333 L83.9827475,101.967333 L83.9827475,97.3426498 C83.9827475,96.8553177 83.915615,96.4400908 83.78135,96.0969692 C83.647085,95.7538475 83.4606059,95.4703992 83.2219126,95.2466243 C82.9832192,95.0228493 82.6997709,94.8587476 82.3715677,94.7543193 C82.0433644,94.649891 81.6803516,94.5976768 81.2825295,94.5976768 C80.9443806,94.5976768 80.6286093,94.6299999 80.3352154,94.694646 C80.0418215,94.7592921 79.7782644,94.8388565 79.5445438,94.9333393 C79.3108233,95.0278221 79.1119122,95.1247912 78.9478106,95.2242468 C78.7837089,95.3237023 78.6618759,95.4082395 78.5823114,95.4778584 L78.5823114,95.4778584 L79.193963,96.7757532 C79.2635819,96.7160799 79.3555783,96.6489474 79.4699522,96.5743558 C79.584326,96.4997641 79.7161046,96.4251724 79.865288,96.3505808 C80.0144713,96.2759891 80.1835457,96.2138294 80.3725112,96.1641016 C80.5614768,96.1143739 80.7603878,96.08951 80.9692445,96.08951 C81.3272844,96.08951 81.6082464,96.1740472 81.8121302,96.3431216 C82.0160141,96.512196 82.117956,96.7956443 82.117956,97.1934665 L82.117956,97.1934665 L82.117956,97.2978948 C81.9289905,97.317786 81.6927836,97.3401635 81.4093353,97.3650273 C81.125887,97.3898912 80.8648162,97.4271871 80.6261229,97.4769148 C80.287974,97.5365881 79.9647435,97.6260981 79.6564313,97.7454448 C79.3481191,97.8647914 79.0746164,98.0189475 78.8359231,98.2079131 C78.5972298,98.3968786 78.4082642,98.6281127 78.2690265,98.9016155 C78.1297887,99.1751182 78.0601698,99.4908896 78.0601698,99.8489295 C78.0601698,100.206969 78.1273023,100.527714 78.2615673,100.811162 C78.3958323,101.09461 78.5723659,101.333304 78.7911681,101.527242 C79.0099703,101.72118 79.2610955,101.870363 79.5445438,101.974792 C79.8279921,102.07922 80.1238724,102.131434 80.4321846,102.131434 Z M80.8648162,100.594846 C80.5465584,100.594846 80.300406,100.522741 80.1263588,100.37853 C79.9523116,100.23432 79.865288,100.042868 79.865288,99.8041745 C79.865288,99.5754268 79.942366,99.3640838 80.0965221,99.1701455 C80.2506782,98.9762071 80.5266673,98.8394558 80.9244895,98.7598913 C81.113455,98.7201091 81.3123661,98.6877861 81.5212228,98.6629222 C81.7300794,98.6380583 81.9339633,98.6206536 82.1328744,98.610708 L82.1328744,98.610708 L82.1328744,100.072705 C81.9737455,100.221888 81.7822936,100.346207 81.5585186,100.445663 C81.3347436,100.545118 81.1035095,100.594846 80.8648162,100.594846 Z M87.1454338,93.9114336 C87.3045626,93.5136114 87.4612051,93.2575134 87.6153612,93.1431395 C87.7695173,93.0287656 87.9012959,92.9715787 88.010697,92.9715787 C88.1200981,92.9715787 88.234472,93.0039017 88.3538186,93.0685479 C88.4731653,93.133194 88.6322941,93.2351359 88.8312052,93.3743736 C89.059953,93.523557 89.271296,93.6354444 89.4652343,93.7100361 C89.6591726,93.7846278 89.8605701,93.8219236 90.0694267,93.8219236 C90.4274667,93.8219236 90.7705883,93.6652811 91.0987916,93.3519961 C91.4269949,93.0387112 91.6607154,92.6284571 91.7999532,92.1212338 L91.7999532,92.1212338 L90.7705883,91.5692555 C90.6114594,91.9670777 90.4622761,92.2231757 90.3230384,92.3375496 C90.1838006,92.4519235 90.0594812,92.5091104 89.9500801,92.5091104 C89.840679,92.5091104 89.7163596,92.4767874 89.5771218,92.4121413 C89.437884,92.3474952 89.2638368,92.2455532 89.0549802,92.1063155 C88.8262324,91.9571321 88.6173758,91.8452447 88.4284103,91.770653 C88.2394447,91.6960613 88.0455064,91.6587655 87.8465953,91.6587655 C87.4985009,91.6587655 87.1702976,91.8129216 86.8619855,92.1212338 C86.5536733,92.429546 86.3100072,92.8373137 86.1309872,93.344537 L86.1309872,93.344537 L87.1454338,93.9114336 Z M87.6377387,101.967333 L87.6377387,96.8652632 C87.8167587,96.6862433 88.0281017,96.5221416 88.2717678,96.3729583 C88.5154339,96.223775 88.7814774,96.1491833 89.0698985,96.1491833 C89.4776663,96.1491833 89.795924,96.2983666 90.0246717,96.5967333 C90.2534195,96.8950999 90.3677934,97.317786 90.3677934,97.8647914 L90.3677934,97.8647914 L90.3677934,101.967333 L92.2176665,101.967333 L92.2176665,97.7156081 C92.2176665,97.1586571 92.1555068,96.6812705 92.0311873,96.2834483 C91.9068679,95.8856261 91.7303343,95.5623956 91.5015866,95.3137567 C91.2728388,95.0651179 90.9993361,94.8836115 90.6810783,94.7692376 C90.3628206,94.6548638 90.0147262,94.5976768 89.6367951,94.5976768 C89.2688096,94.5976768 88.9033105,94.6623229 88.5402978,94.7916151 C88.177285,94.9209074 87.8515681,95.1049001 87.563147,95.3435934 L87.563147,95.3435934 L87.473637,94.7766968 L85.7878656,94.7766968 L85.7878656,101.967333 L87.6377387,101.967333 Z M95.9472494,102.131434 C96.3152349,102.131434 96.6533837,102.069275 96.9616959,101.944955 C97.2700081,101.820636 97.5236197,101.649075 97.7225308,101.430273 L97.7225308,101.430273 L97.7971225,101.967333 L99.4978123,101.967333 L99.4978123,97.3426498 C99.4978123,96.8553177 99.4306798,96.4400908 99.2964148,96.0969692 C99.1621498,95.7538475 98.9756707,95.4703992 98.7369774,95.2466243 C98.4982841,95.0228493 98.2148358,94.8587476 97.8866325,94.7543193 C97.5584292,94.649891 97.1954164,94.5976768 96.7975943,94.5976768 C96.4594454,94.5976768 96.1436741,94.6299999 95.8502802,94.694646 C95.5568864,94.7592921 95.2933292,94.8388565 95.0596086,94.9333393 C94.8258881,95.0278221 94.626977,95.1247912 94.4628754,95.2242468 C94.2987737,95.3237023 94.1769407,95.4082395 94.0973763,95.4778584 L94.0973763,95.4778584 L94.7090278,96.7757532 C94.7786467,96.7160799 94.8706431,96.6489474 94.985017,96.5743558 C95.0993909,96.4997641 95.2311695,96.4251724 95.3803528,96.3505808 C95.5295361,96.2759891 95.6986105,96.2138294 95.887576,96.1641016 C96.0765416,96.1143739 96.2754527,96.08951 96.4843093,96.08951 C96.8423493,96.08951 97.1233112,96.1740472 97.327195,96.3431216 C97.5310789,96.512196 97.6330208,96.7956443 97.6330208,97.1934665 L97.6330208,97.1934665 L97.6330208,97.2978948 C97.4440553,97.317786 97.2078484,97.3401635 96.9244001,97.3650273 C96.6409518,97.3898912 96.379881,97.4271871 96.1411877,97.4769148 C95.8030388,97.5365881 95.4798083,97.6260981 95.1714961,97.7454448 C94.8631839,97.8647914 94.5896812,98.0189475 94.3509879,98.2079131 C94.1122946,98.3968786 93.9233291,98.6281127 93.7840913,98.9016155 C93.6448535,99.1751182 93.5752346,99.4908896 93.5752346,99.8489295 C93.5752346,100.206969 93.6423671,100.527714 93.7766321,100.811162 C93.9108971,101.09461 94.0874307,101.333304 94.3062329,101.527242 C94.5250351,101.72118 94.7761603,101.870363 95.0596086,101.974792 C95.3430569,102.07922 95.6389372,102.131434 95.9472494,102.131434 Z M96.379881,100.594846 C96.0616232,100.594846 95.8154708,100.522741 95.6414236,100.37853 C95.4673764,100.23432 95.3803528,100.042868 95.3803528,99.8041745 C95.3803528,99.5754268 95.4574308,99.3640838 95.6115869,99.1701455 C95.765743,98.9762071 96.0417321,98.8394558 96.4395543,98.7598913 C96.6285198,98.7201091 96.8274309,98.6877861 97.0362876,98.6629222 C97.2451442,98.6380583 97.4490281,98.6206536 97.6479392,98.610708 L97.6479392,98.610708 L97.6479392,100.072705 C97.4888103,100.221888 97.2973584,100.346207 97.0735834,100.445663 C96.8498084,100.545118 96.6185743,100.594846 96.379881,100.594846 Z" id="PackTVSeriefansGRATIS1añoconHBOEspaña" fill="#FFFFFF" fill-rule="nonzero"></path>
                    </g>
                </g>
            </g>
        </g>
    </g>
</svg>