<?xml version="1.0" encoding="UTF-8"?>
<svg width="80px" height="90px" viewBox="0 0 80 90" version="1.1" xmlns="http://www.w3.org/2000/svg" xmlns:xlink="http://www.w3.org/1999/xlink">
    <!-- Generator: Sketch 63.1 (92452) - https://sketch.com -->
    <title>icono</title>
    <desc>Created with Sketch.</desc>
    <g id="PLP-Revamp-Vodafone-One-Test-A/B" stroke="none" stroke-width="1" fill="none" fill-rule="evenodd">
        <g id="PLP-Desktop---One---Modulo-YU" transform="translate(-69.000000, -1338.000000)">
            <g id="Añade-lineas" transform="translate(0.000000, 1143.000000)">
                <g id="Card-lineas-Copy" transform="translate(50.000000, 180.000000)">
                    <g id="icono" transform="translate(16.000000, 6.000000)">
                        <g id="Group-7" transform="translate(3.000000, 14.000000)">
                            <rect id="Rectangle" x="0" y="0" width="80" height="80"></rect>
                            <polygon id="Fill-1" fill="#E60000" points="10.2787281 2.90561404 10.2787281 77.3178947 26.5440789 65.839386 69.4296053 60.1446491 69.4296053 8.64508772"></polygon>
                            <g id="Group-6" transform="translate(18.333333, 23.028509)" fill="#FFFFFF">
                                <path d="M20.7661842,0.37122807 C19.7433772,4.3804386 18.6512719,8.05675439 17.490307,11.4010526 C16.3293421,14.7466667 15.1819737,17.5659649 14.0486404,19.8607018 C13.5232018,20.9107018 12.9771491,21.9335088 12.4109211,22.9291228 C11.8438158,23.9238596 11.1047807,24.8155263 10.1925,25.6032456 C9.2802193,26.3909649 8.13285088,27.0269298 6.75083333,27.5107018 C5.3679386,27.9940351 3.59907895,28.2501754 1.4429386,28.277807 L0.986798246,23.675614 C1.48460526,23.675614 2.05083333,23.6471053 2.68723684,23.5922807 C3.32276316,23.5365789 3.95171053,23.4264912 4.57364035,23.2607018 C5.19557018,23.0949123 5.78285088,22.8664035 6.33592105,22.5764912 C6.88855263,22.2861404 7.34513158,21.8922807 7.70434211,21.3949123 C7.81442982,21.2558772 7.91179825,21.1185965 7.99469298,20.98 C8.07758772,20.8418421 8.17407895,20.6620175 8.28504386,20.4414035 L0.0745175439,0.37122807 L5.58942982,0.37122807 L11.1460088,15.7137719 C11.5609211,14.7185965 11.9753947,13.5988596 12.3898684,12.355 C12.8047807,11.1111404 13.2052193,9.81903509 13.5925,8.47780702 C13.9793421,7.13745614 14.3525877,5.77605263 14.7122368,4.39359649 C15.0710088,3.01201754 15.4025877,1.67078947 15.7074123,0.37122807 L20.7661842,0.37122807 Z" id="Fill-2"></path>
                                <path d="M30.8711404,20.772807 C28.5211404,20.772807 26.737807,20.0679825 25.5220175,18.6578947 C24.3053509,17.2482456 23.6974561,15.1192982 23.6974561,12.2719298 L23.6974561,0.371052632 L28.8391228,0.371052632 L28.8391228,11.7333333 C28.8391228,13.1157895 29.0882456,14.2355263 29.585614,15.0921053 C30.0834211,15.9491228 30.9395614,16.3776316 32.1566667,16.3776316 C33.1518421,16.3776316 33.9948246,16.1767544 34.6860526,15.7758772 C35.3768421,15.3754386 35.9299123,14.9951754 36.3448246,14.6359649 L36.3448246,0.371052632 L41.4864912,0.371052632 L41.4864912,20.3583333 L36.7592982,20.3583333 L36.5935088,18.7824561 C35.6812281,19.5565789 34.7338596,20.0820175 33.7531579,20.3583333 C32.7715789,20.6342105 31.810614,20.772807 30.8711404,20.772807" id="Fill-4"></path>
                            </g>
                        </g>
                    </g>
                </g>
            </g>
        </g>
    </g>
</svg>