<svg xmlns="http://www.w3.org/2000/svg" width="40" height="34" viewBox="0 0 40 34"><g fill="none" fill-rule="evenodd"><path fill="#D8D8D8" fill-opacity="0" d="M-4 41h48V-7H-4z"/><path stroke="#A1B728" stroke-linecap="round" stroke-linejoin="round" d="M27.962 24.626c1.871-2.242 4.448-6.08 4.45-9.356 0-3.506-2.655-6.458-6.3-6.458-3.644 0-6.299 2.846-6.299 6.353 0 4.896 6.3 11.574 6.3 11.574s1.399-1.57 1.849-2.113zM1.393 33.14V4.917l12.854-3.681v28.223z"/><path stroke="#A1B728" stroke-linecap="round" stroke-linejoin="round" d="M26.113 4.917l12.854-3.681v28.223L26.113 33.14l-11.866-3.681V1.236l11.866 3.681"/><path stroke="#A1B728" stroke-linecap="round" stroke-linejoin="round" d="M26.113 12.88c1.275 0 2.31 1.03 2.31 2.3a2.305 2.305 0 01-2.31 2.301 2.305 2.305 0 01-2.31-2.3 2.305 2.305 0 012.31-2.301zm0-7.963v3.895m0 17.927v6.4"/></g></svg>