<svg xmlns="http://www.w3.org/2000/svg" width="48" height="48" viewBox="0 0 48 48">
    <g fill="none" fill-rule="evenodd">
        <path d="M0 0.124H47.751V47.875H0z" transform="rotate(180 23.876 24)"/>
        <path d="M0 0H47.751V47.751H0z"/>
        <path d="M0 0H47.751V47.751H0z"/>
        <g stroke="#E60000" stroke-linecap="round" stroke-linejoin="round">
            <path d="M15.98 2.97c0 3.585-2.907 6.49-6.492 6.49S2.997 6.556 2.997 2.97V0" transform="translate(16.415 23.378)"/>
            <path d="M6.031 3.044L2.997 0 0 2.997" transform="translate(16.415 23.378)"/>
        </g>
        <path stroke="#666" stroke-linecap="round" stroke-linejoin="round" d="M23.41 14.3v-2.22c0-.903-.731-1.634-1.633-1.634H17.05c-.901.001-1.631.732-1.631 1.634v2.22M27.39 36.042v3.853c0 1.355-1.1 2.454-2.455 2.454H13.893c-1.355 0-2.453-1.1-2.453-2.454V16.882c0-.651.257-1.276.717-1.737.46-.461 1.084-.72 1.736-.72h11.042c.65 0 1.275.257 1.736.717.46.46.719 1.084.719 1.735v9.948M33.326 10.446V8.1c0-.434-.172-.85-.48-1.157-.307-.306-.724-.478-1.159-.477h-4.725c-.902 0-1.634.732-1.634 1.634v2.346"/>
        <path stroke="#666" stroke-linecap="round" stroke-linejoin="round" d="M21.886 10.446h12.982c.65 0 1.274.258 1.734.718.46.46.719 1.083.719 1.734V35.88c0 .65-.258 1.274-.718 1.734-.46.46-1.084.719-1.735.718H27.39M19.399 21.389L19.399 17.409M21.389 19.399L17.409 19.399M21.389 38.301L17.409 38.301"/>
    </g>
</svg>
